<?xml  version="1.0" encoding="UTF-8"?>
<!DOCTYPE svg PUBLIC "-//W3C//DTD SVG 1.0//EN" "http://www.w3.org/TR/2001/REC-SVG-20010904/DTD/svg10.dtd" >
<svg xmlns="http://www.w3.org/2000/svg" >
<metadata>
<version>1.0</version>
<id><![CDATA[Oron W26 Condensed Medium]]></id>
<vendor>Monotype Imaging Inc.</vendor>
<credits>
<name>Fonts.com WebFonts</name>
<URL>http://webfonts.fonts.com</URL>
<role>Home of the Web fonts</role>
</credits>
<license>
<URL>http://webfonts.fonts.com/Legal</URL>
</license>
<copyright><![CDATA[Masterfont Studio Rosenberg 2003 (C) version 1.0]]></copyright>
<trademark></trademark>
<licensee>
<name></name>
</licensee>
</metadata>
<defs >
<font horiz-adv-x="436" id="08df2457-2079-4130-a82f-613106b0a06c">
<font-face font-family="" panose-1="0 0 5 0 0 0 0 0 0 0" ascent="800" descent="-329" units-per-em="1000" alphabetic="0">
</font-face>
<missing-glyph horiz-adv-x="500" d="M63 0V800H438V0H63ZM125 63H375V738H125V63Z"  />

<glyph unicode="&#xA;" />
<glyph unicode="&#xD;" />
<glyph unicode=" " horiz-adv-x="250" />
<glyph unicode="!" horiz-adv-x="200" d="M202 550Q147 347 119 182L68 149Q68 262 107 501L202 550ZM131 40L63 -13Q32 20 19 54L88 107Q105 65 131 40Z"  />
<glyph unicode="&quot;" horiz-adv-x="355" d="M331 505L253 320H193L231 505H331ZM171 505L93 320H33L71 505H171Z"  />
<glyph unicode="#" horiz-adv-x="575" d="M476 382L468 332H387L360 182H441L432 132H351L328 0H278L301 132H181L158 0H108L131 132H50L59 182H140L167 332H86L94 382H175L197 505H247L225 382H345L367 505H417L395 382H476ZM337 332H217L190 182H310L337 332Z"  />
<glyph unicode="$" horiz-adv-x="485" d="M394 144Q394 12 260 -7V-72H180V-8Q44 7 44 143V154H137Q135 57 221 57Q259 57 283 77T308 134Q308 170 243 203Q127 263 121 267Q56 312 56 377Q56 431 92 467Q125 501 180 511V579H260V513Q318 507 352 475Q390 441 390 384V372H299Q301 453 220 453Q187 453 165 435T142 385Q142 350 207 317Q320 261 329 255Q394 210 394 144Z"  />
<glyph unicode="%" horiz-adv-x="717" d="M615 116Q615 -15 490 -15Q365 -15 365 116Q365 247 490 247Q615 247 615 116ZM543 562L162 -60H112L492 562H543ZM291 389Q291 258 166 258Q41 258 41 389Q41 520 166 520Q291 520 291 389ZM555 116Q555 203 490 203Q425 203 425 116Q425 29 490 29Q555 29 555 116ZM231 389Q231 476 166 476Q100 476 100 389Q100 302 166 302Q231 302 231 389Z"  />
<glyph unicode="&apos;" horiz-adv-x="199" d="M116 505L37 320H-23L15 505H116Z"  />
<glyph unicode="(" horiz-adv-x="323" d="M200 -51H132Q96 148 96 302Q96 409 126 555H198Q179 419 179 296Q179 169 200 -51Z"  />
<glyph unicode=")" horiz-adv-x="323" d="M200 301Q200 147 164 -52H96Q117 168 117 295Q117 418 98 554H170Q200 408 200 301Z"  />
<glyph unicode="*" horiz-adv-x="429" d="M360 525Q358 524 253 495Q245 503 241 516Q268 543 320 593Q351 563 360 525ZM235 641Q234 627 208 535Q205 534 197 534Q189 534 185 535Q182 542 176 567L157 641Q183 649 197 649Q211 649 235 641ZM361 427Q348 385 321 358Q314 364 242 436Q244 449 254 456Q260 456 290 447L361 427ZM151 515Q149 506 139 495Q127 497 105 505L33 524Q41 561 72 593L151 515ZM237 310Q209 304 196 304Q179 304 157 309Q160 328 185 417Q189 418 197 418Q205 418 209 417Q209 414 217 385L237 310ZM151 436Q148 432 125 410L73 359Q44 387 33 427Q69 437 140 456Q148 448 151 436Z"  />
<glyph unicode="+" horiz-adv-x="587" d="M468 218H301V51H236V218H69V283H236V450H301V283H468V218Z"  />
<glyph unicode="&#x2c;" horiz-adv-x="157" d="M115 97L37 -87H-23L15 97H115Z"  />
<glyph unicode="-" horiz-adv-x="284" d="M219 211H57V275H219V211Z"  />
<glyph unicode="." horiz-adv-x="240" d="M155 0H62V98H155V0Z"  />
<glyph unicode="/" horiz-adv-x="345" d="M279 621L108 -119H42L213 621H279Z"  />
<glyph unicode="0" horiz-adv-x="435" d="M396 252Q396 120 372 69Q335 -10 218 -10Q102 -10 64 69Q39 121 39 252Q39 387 62 436Q99 515 218 515Q337 515 373 436Q396 387 396 252ZM314 239Q314 294 311 329Q306 386 291 412Q269 448 218 448Q167 448 145 412Q129 385 124 329Q121 293 121 226Q121 150 134 115Q155 57 218 57Q283 57 304 121Q314 154 314 239Z"  />
<glyph unicode="1" horiz-adv-x="435" d="M291 0H209V391Q208 391 208 392Q203 391 180 374Q119 331 82 323V418Q99 423 133 437Q184 461 210 505H291V0Z"  />
<glyph unicode="2" horiz-adv-x="435" d="M397 0H44V67Q96 115 162 167Q243 231 261 251Q308 303 308 367Q308 448 220 448Q174 448 148 419T122 342H45Q43 515 215 515Q390 515 390 365Q390 323 384 297Q367 223 251 135Q228 119 206 104Q175 82 167 69L169 67H397V0Z"  />
<glyph unicode="3" horiz-adv-x="435" d="M392 130Q392 -10 219 -10Q150 -10 101 24Q45 63 45 129Q45 145 48 160H130Q127 150 127 139Q127 101 154 79T219 57Q310 57 310 142Q310 189 268 211Q233 230 184 226V294Q198 292 206 292Q310 292 310 375Q310 406 286 427T229 448Q137 448 142 345Q133 345 115 346Q97 346 89 346Q68 346 57 345Q56 352 56 366Q56 441 107 480Q153 515 231 515Q302 515 345 483Q392 447 392 378Q392 307 337 276Q299 254 299 255Q304 250 310 248Q332 236 355 224Q392 197 392 130Z"  />
<glyph unicode="4" horiz-adv-x="435" d="M393 106H329V0H245V106H24V179L192 505H329V179H393V106ZM247 179Q247 443 247 443L98 179H247Z"  />
<glyph unicode="5" horiz-adv-x="435" d="M382 175Q382 94 340 44Q296 -10 216 -10Q148 -10 103 18Q49 51 49 114H132Q132 81 159 63Q182 47 217 47Q259 47 281 93Q299 129 299 176Q299 291 220 291Q186 291 161 275Q131 257 131 224H55L72 505H359V438H151L141 309Q161 352 232 352Q382 352 382 175Z"  />
<glyph unicode="6" horiz-adv-x="435" d="M394 161Q394 79 348 35T220 -10Q110 -10 70 63Q42 115 42 236Q42 387 60 431Q94 515 220 515Q282 515 327 491Q382 460 382 403V392H295Q296 448 219 448Q186 448 169 438Q131 416 131 301V283L132 281Q134 282 136 286Q176 330 239 330Q394 330 394 161ZM311 172Q311 274 219 274Q133 274 133 165Q133 111 152 86Q173 57 225 57Q311 57 311 172Z"  />
<glyph unicode="7" horiz-adv-x="435" d="M348 431L217 0H122Q156 103 205 255L261 430Q261 431 262 434Q262 436 262 437Q263 437 263 438H50V505H348V431Z"  />
<glyph unicode="8" horiz-adv-x="435" d="M400 138Q400 -10 213 -10Q135 -10 89 25Q37 63 37 138Q37 220 122 260Q129 263 136 267Q130 269 122 272Q97 281 81 295Q48 324 48 378Q48 447 98 483Q141 515 213 515Q289 515 335 486Q390 450 390 378Q390 324 357 295Q343 282 316 273Q309 271 302 268Q306 265 315 261Q400 226 400 138ZM307 378Q307 448 213 448Q177 448 154 431Q128 413 128 378Q128 345 154 322T213 299Q249 299 278 321T307 378ZM316 138Q316 183 287 209T213 236Q172 236 146 208T119 138Q119 57 213 57Q316 57 316 138Z"  />
<glyph unicode="9" horiz-adv-x="435" d="M394 246Q394 115 371 66Q334 -10 218 -10Q156 -10 111 14Q56 45 56 102V113H143Q140 57 219 57Q278 57 297 100Q308 126 308 195Q308 200 308 209Q307 218 307 222L302 221Q282 174 203 174Q44 174 44 344Q44 426 90 470T218 515Q337 515 373 432Q394 383 394 246ZM305 340Q305 394 286 419Q265 448 213 448Q163 448 144 412Q130 387 130 333Q130 231 219 231Q305 231 305 340Z"  />
<glyph unicode=":" horiz-adv-x="199" d="M92 301H0V399H92V301ZM92 0H0V98H92V0Z"  />
<glyph unicode=";" horiz-adv-x="191" d="M106 314H13V400H106V314ZM115 97L37 -87H-23L15 97H115Z"  />
<glyph unicode="&lt;" horiz-adv-x="637" d="M534 0L46 207V278L534 483V404L139 243L534 80V0Z"  />
<glyph unicode="=" horiz-adv-x="587" d="M469 298H69V368H469V298ZM469 128H69V198H469V128Z"  />
<glyph unicode="&gt;" horiz-adv-x="637" d="M538 207L49 0V80L444 243L49 404V483L538 278V207Z"  />
<glyph unicode="?" horiz-adv-x="514" d="M367 482Q367 417 332 363Q300 323 267 282Q232 238 232 197V154H154V197Q154 262 214 344T275 487Q275 591 201 591Q125 591 125 467Q125 427 138 390H60Q32 440 32 480Q32 657 201 657Q367 657 367 482ZM241 0H147V98H241V0Z"  />
<glyph unicode="@" horiz-adv-x="759" d="M699 350Q699 258 647 201Q591 140 495 140Q404 140 390 195Q332 146 282 146Q242 146 217 172Q187 202 187 262Q187 349 234 419Q287 496 366 496Q422 496 450 462L456 484H533L470 229Q468 221 468 216Q468 178 517 178Q567 178 608 216Q661 265 661 351Q661 449 587 517Q508 590 383 590Q254 590 168 512T81 315Q81 200 167 123T382 45Q486 45 568 99Q577 103 581 103Q598 103 598 87Q598 77 589 70Q511 10 382 10Q235 10 139 96T43 315Q43 452 138 538T383 625Q524 625 613 543Q699 464 699 350ZM440 426Q425 462 377 462Q334 462 299 391Q265 324 265 250Q265 184 303 184Q354 184 388 234L440 426Z"  />
<glyph unicode="A" horiz-adv-x="681" d="M669 0H358V24H462L399 198H198L136 24H256V0H18V24H108L334 654H352L578 24H669V0ZM390 222L298 475L207 222H390Z"  />
<glyph unicode="B" horiz-adv-x="616" d="M568 176Q568 94 507 47T338 0H25V24H114V621H25V645H330Q418 645 479 606Q545 563 545 493Q545 383 406 350Q470 336 514 295Q568 246 568 176ZM437 485V501Q437 621 330 621H223V360H330Q382 360 408 385Q437 415 437 485ZM457 164V187Q457 336 330 336H223V24H330Q399 24 429 60Q457 93 457 164Z"  />
<glyph unicode="C" horiz-adv-x="631" d="M598 4Q598 -7 587 -7Q581 -7 575 -1L523 51Q453 -18 351 -18Q231 -18 135 82Q35 185 35 323Q35 451 126 551Q221 656 356 656Q450 656 518 607L555 642Q565 651 572 651Q584 651 584 632V478Q584 462 575 462Q568 462 565 470L563 475Q537 546 486 586Q431 630 356 630Q171 630 171 374V268Q171 8 351 8Q490 8 574 188Q580 201 588 201Q598 201 598 187V4Z"  />
<glyph unicode="D" horiz-adv-x="682" d="M664 330Q664 180 575 90T337 0H28V24H119V621H28V645H337Q481 645 572 558T664 330ZM541 306V354Q541 496 479 563Q426 621 335 621H228V24H335Q541 24 541 306Z"  />
<glyph unicode="E" horiz-adv-x="591" d="M553 35Q553 0 519 0H31V24H118V621H29V645H494Q525 645 525 618V474Q525 457 513 457Q501 457 500 475Q497 528 472 569Q439 621 379 621H227V352H304Q342 352 358 377Q367 390 377 435Q381 452 389 452Q400 452 400 436V244Q400 227 389 227Q381 227 377 244Q373 267 357 306Q342 328 304 328H227V24H388Q452 24 484 67Q507 99 525 181Q530 204 541 204Q553 204 553 177V35Z"  />
<glyph unicode="F" horiz-adv-x="564" d="M529 474Q529 457 517 457Q505 457 504 475Q501 528 476 569Q443 621 383 621H231V352H308Q346 352 362 377Q371 390 381 435Q385 452 393 452Q404 452 404 436V244Q404 227 393 227Q385 227 381 244Q377 267 361 306Q346 328 308 328H231V24H320V0H36V24H122V621H34V645H499Q529 645 529 618V474Z"  />
<glyph unicode="G" horiz-adv-x="689" d="M686 217H597V189Q597 86 523 31Q458 -18 350 -18Q224 -18 129 82T33 319Q33 456 127 556T353 656Q451 656 517 604L558 642Q568 651 576 651Q589 651 589 636V457Q589 444 578 444Q568 444 564 456Q504 630 353 630Q268 630 220 571Q168 507 168 379V263Q168 138 216 73T352 8Q482 8 482 132V217H371V241H686V217Z"  />
<glyph unicode="H" horiz-adv-x="706" d="M688 0H402V24H491V330H227V24H316V0H29V24H118V621H29V645H316V621H227V355H491V621H402V645H688V621H600V24H688V0Z"  />
<glyph unicode="I" horiz-adv-x="366" d="M326 0H40V24H128V621H40V645H326V621H237V24H326V0Z"  />
<glyph unicode="J" horiz-adv-x="381" d="M371 621H294V56Q294 -97 126 -97Q74 -97 39 -66Q8 -39 8 -8Q8 46 59 46Q81 46 94 32T107 -1Q107 -47 64 -53Q85 -71 119 -71Q156 -71 170 -51T185 20V621H90V645H371V621Z"  />
<glyph unicode="K" horiz-adv-x="692" d="M685 0H385V24H470L219 353L510 621H428V645H640V621H550L313 403L601 24H685V0ZM304 0H31V24H113V621H31V645H304V621H222V24H304V0Z"  />
<glyph unicode="L" horiz-adv-x="617" d="M596 35Q596 0 561 0H26V24H115V621H26V645H322V621H224V24H431Q495 24 526 67Q549 98 567 181Q572 204 583 204Q596 204 596 177V35Z"  />
<glyph unicode="M" horiz-adv-x="821" d="M793 0H520V24H602V589L380 0H360L138 585V24H221V0H31V24H113V621H31V645H229L415 167L595 645H793V621H711V24H793V0Z"  />
<glyph unicode="N" horiz-adv-x="677" d="M660 621H571V-8H529L137 583V24H226V0H23V24H112V621H23V645H233L546 175V621H457V645H660V621Z"  />
<glyph unicode="O" horiz-adv-x="712" d="M684 320Q684 187 589 86Q492 -18 360 -18Q228 -18 132 86Q37 187 37 320Q37 453 132 554T360 656Q492 656 588 555T684 320ZM549 272V367Q549 512 500 574Q455 630 360 630Q266 630 221 572Q172 508 172 367V272Q172 8 360 8Q549 8 549 272Z"  />
<glyph unicode="P" horiz-adv-x="558" d="M534 469Q534 390 476 342T325 293H223V24H311V0H25V24H114V621H25V645H315Q415 645 474 597T534 469ZM433 452V486Q433 621 315 621H223V317H325Q433 317 433 452Z"  />
<glyph unicode="Q" horiz-adv-x="701" d="M684 319Q684 205 611 110T429 -12V-29Q429 -197 589 -197Q603 -197 603 -208Q603 -218 589 -218Q446 -218 385 -188Q304 -148 294 -33L292 -12Q183 14 110 109T37 319Q37 452 132 554T360 656Q492 656 588 554T684 319ZM549 271V366Q549 511 500 574Q455 630 360 630Q266 630 221 571Q172 508 172 366V271Q172 6 360 6Q549 6 549 271Z"  />
<glyph unicode="R" horiz-adv-x="647" d="M645 34Q645 29 641 25Q630 14 597 3Q561 -8 528 -8Q476 -8 452 20Q430 44 424 97Q422 130 417 196Q402 325 307 325H226V24H315V0H28V24H117V621H28V645H323Q417 645 478 603Q543 559 543 484Q543 365 393 332Q489 307 519 251Q539 213 542 109Q543 60 548 47Q556 26 585 26Q609 26 629 39Q633 41 638 41Q645 41 645 34ZM436 467V501Q436 621 323 621H226V349H323Q436 349 436 467Z"  />
<glyph unicode="S" horiz-adv-x="558" d="M524 205Q524 110 456 46T287 -18Q194 -18 118 44L84 -1Q75 -13 67 -13Q53 -13 53 4V174Q53 191 65 191Q77 191 81 176Q102 98 162 53Q219 8 293 8Q360 8 407 47Q458 88 458 152Q458 220 401 245Q357 264 311 277Q214 305 209 307Q68 351 68 467Q68 546 126 599Q187 656 286 656Q362 656 434 618L461 650Q470 660 476 660Q487 660 487 646V477Q487 463 475 463Q463 463 461 476Q452 542 411 583Q364 630 286 630Q226 630 185 602Q139 571 139 518Q139 454 201 432Q228 422 385 380Q524 342 524 205Z"  />
<glyph unicode="T" horiz-adv-x="638" d="M617 455H586Q574 533 540 577T460 621H376V24H465V0H179V24H267V621H183Q138 621 104 577T57 455H27L43 625Q45 645 68 645H576Q599 645 601 625L617 455Z"  />
<glyph unicode="U" horiz-adv-x="657" d="M643 621H555V162Q555 74 499 28T343 -18Q248 -18 185 20Q107 68 107 162V621H18V645H304V621H216V162Q216 88 256 48T367 8Q437 8 483 49T529 162V621H440V645H643V621Z"  />
<glyph unicode="V" horiz-adv-x="651" d="M649 621H574L353 -10H329L97 621H7V645H294V621H203L378 149L543 621H456V645H649V621Z"  />
<glyph unicode="W" horiz-adv-x="926" d="M915 621H843L602 -10H582L470 277L361 -10H341L101 621H23V645H680V621H616L532 402L630 141L814 621H728V645H915V621ZM588 621H448L518 439L588 621ZM456 315L341 621H208L390 143L456 315Z"  />
<glyph unicode="X" horiz-adv-x="706" d="M689 0H404V24H484L324 283L148 24H247V0H22V24H114L308 309L115 621H24V645H329V621H239L375 401L523 621H427V645H652V621H558L392 375L608 24H689V0Z"  />
<glyph unicode="Y" horiz-adv-x="682" d="M673 621H588L420 340V24H518V0H212V24H311V316L113 621H28V645H325V621H234L398 367L550 621H454V645H673V621Z"  />
<glyph unicode="Z" horiz-adv-x="524" d="M502 0H31V30L383 621H192Q64 621 59 472H36V645H495V617L139 24H328Q398 24 434 62Q472 104 477 199H502V0Z"  />
<glyph unicode="[" horiz-adv-x="344" d="M252 -51H89V556H252V497H152V9H252V-51Z"  />
<glyph unicode="\" horiz-adv-x="255" d="M208 -10H153L67 519H123L208 -10Z"  />
<glyph unicode="]" horiz-adv-x="344" d="M248 -51H85V9H184V497H85V556H248V-51Z"  />
<glyph unicode="^" horiz-adv-x="381" d="M325 325L303 314L195 521L87 314L64 325L178 606H211L325 325Z"  />
<glyph unicode="_" horiz-adv-x="300" d="M311 -31H-4V-11H311V-31Z"  />
<glyph unicode="`" horiz-adv-x="266" d="M233 457L219 450L44 604H147L233 457Z"  />
<glyph unicode="a" horiz-adv-x="456" d="M453 54Q453 34 430 14Q401 -13 353 -13Q288 -13 274 34Q231 -13 158 -13Q42 -13 42 75Q42 138 108 176Q171 211 268 212V319Q268 369 204 369Q182 369 163 364T143 352Q145 350 152 344Q166 331 166 314Q166 277 123 277Q104 277 93 288T81 316Q81 347 116 367Q156 390 228 390Q366 390 366 301V74Q366 43 370 33Q375 20 390 20Q417 20 434 53Q439 63 445 63Q453 63 453 54ZM268 68V194Q203 190 172 173Q132 151 132 99Q132 20 193 20Q213 20 240 37T268 68Z"  />
<glyph unicode="b" horiz-adv-x="534" d="M510 192Q510 116 451 52T315 -12Q250 -12 204 40V0H28V24H107V621H28V645H204V346Q246 393 312 393Q383 393 444 336Q510 275 510 192ZM394 171V214Q394 309 369 343Q351 369 308 369Q246 369 204 303V83Q246 12 312 12Q394 12 394 171Z"  />
<glyph unicode="c" horiz-adv-x="422" d="M411 105Q411 103 410 100L409 96Q396 56 360 26Q312 -13 242 -13Q159 -13 97 41Q29 99 29 187Q29 274 97 334Q162 390 247 390Q296 390 339 369Q388 344 388 308Q388 264 338 264Q289 264 289 306Q289 324 298 336T307 349Q307 354 293 359Q275 366 245 366Q193 366 170 333Q146 297 146 208V167Q146 77 165 45Q186 10 245 10Q298 10 338 40Q372 66 385 105Q389 117 399 117Q411 117 411 105Z"  />
<glyph unicode="d" horiz-adv-x="534" d="M513 0H337V41Q291 -13 227 -13Q159 -13 97 48Q32 112 32 191Q32 266 93 329T230 393Q298 393 337 350V621H259V645H435V24H513V0ZM337 82V301Q295 369 234 369Q187 369 168 336T148 215V168Q148 79 169 43Q188 11 231 11Q291 11 337 82Z"  />
<glyph unicode="e" horiz-adv-x="447" d="M414 117Q414 110 411 102Q391 52 348 21Q298 -13 230 -13Q144 -13 84 49Q28 108 28 185Q28 262 85 324Q144 390 226 390Q315 390 367 327Q406 281 409 233Q410 216 388 216H145V124Q145 10 232 10Q341 10 390 116Q396 128 404 128Q414 128 414 117ZM303 279Q303 366 227 366Q145 366 145 273V240H293Q303 240 303 279Z"  />
<glyph unicode="f" horiz-adv-x="352" d="M340 585Q340 547 303 547Q263 547 263 583Q263 607 286 617Q286 628 244 628Q195 628 195 561V380H278V356H195V24H272V0H20V24H97V356H21V380H97V416Q97 524 118 569Q157 652 242 652Q284 652 312 632T340 585Z"  />
<glyph unicode="g" horiz-adv-x="439" d="M433 371Q433 339 398 339Q360 339 360 370Q360 372 361 377Q347 369 331 352Q377 312 377 255Q377 208 340 169Q292 119 207 119Q172 119 148 126Q68 106 68 66Q68 30 129 30H295Q354 30 388 1Q424 -31 424 -90Q424 -166 366 -209T220 -253Q31 -253 31 -144Q31 -75 109 -43Q33 -24 33 49Q33 114 114 139Q37 180 37 255Q37 310 81 348Q128 390 207 390Q277 390 312 366Q351 405 390 405Q433 405 433 371ZM275 238V270Q275 325 258 347Q243 366 207 366Q171 366 156 347Q139 325 139 270V238Q139 188 153 167Q168 143 207 143Q246 143 261 167Q275 188 275 238ZM377 -129Q377 -96 351 -72T278 -47H147Q130 -47 111 -69Q89 -94 89 -126Q89 -229 224 -229Q284 -229 327 -205Q377 -178 377 -129Z"  />
<glyph unicode="h" horiz-adv-x="555" d="M539 0H298V24H369V291Q369 360 312 360Q265 360 229 322Q196 288 196 256V24H268V0H26V24H99V621H26V645H196V325Q244 393 344 393Q467 393 467 302V24H539V0Z"  />
<glyph unicode="i" horiz-adv-x="303" d="M216 550Q216 528 199 513T158 497Q134 497 117 512T100 550Q100 573 117 588T158 604Q182 604 199 589T216 550ZM285 0H33V24H110V356H33V380H207V24H285V0Z"  />
<glyph unicode="j" horiz-adv-x="282" d="M228 550Q228 527 211 512T170 496Q146 496 129 511T112 550Q112 573 129 588T170 604Q194 604 211 589T228 550ZM225 -28Q225 -133 184 -192T70 -252Q33 -252 6 -234T-21 -187Q-21 -167 -8 -153T28 -138Q50 -138 62 -152T75 -184Q75 -212 53 -226Q57 -228 69 -228Q92 -228 109 -212T127 -164V355H44V379H225V-28Z"  />
<glyph unicode="k" horiz-adv-x="556" d="M549 0H291V24H359L223 202H207V24H280V0H27V24H110V621H27V645H207V226H230L373 356H292V380H494V356H410L294 249L475 24H549V0Z"  />
<glyph unicode="l" horiz-adv-x="294" d="M273 0H32V24H104V621H32V645H201V24H273V0Z"  />
<glyph unicode="m" horiz-adv-x="785" d="M766 0H536V24H601V287Q601 353 553 353Q510 353 476 314Q446 280 446 248V24H513V0H282V24H349V287Q349 316 344 328Q334 353 300 353Q262 353 226 315Q194 281 194 256V24H260V0H29V24H96V353H29V377H194V316Q244 385 344 385Q432 385 445 314Q493 385 596 385Q699 385 699 297V24H766V0Z"  />
<glyph unicode="n" horiz-adv-x="547" d="M528 0H286V24H358V287Q358 353 305 353Q268 353 235 319T202 252V24H274V0H33V24H105V353H33V376H202V316Q250 384 343 384Q456 384 456 293V24H528V0Z"  />
<glyph unicode="o" horiz-adv-x="460" d="M441 188Q441 117 385 55Q323 -13 234 -13Q145 -13 82 55Q25 117 25 188Q25 259 82 321Q145 390 234 390Q323 390 385 321Q441 259 441 188ZM325 168V209Q325 295 309 327Q289 366 234 366Q179 366 158 327Q141 294 141 209V168Q141 80 158 47Q178 10 234 10Q290 10 309 47Q325 79 325 168Z"  />
<glyph unicode="p" horiz-adv-x="515" d="M494 187Q494 105 433 44T295 -17Q228 -17 187 29V-233H254V-257H22V-233H89V352H22V377H187V336Q233 390 297 390Q370 390 432 329T494 187ZM378 167V210Q378 304 352 341Q333 366 296 366Q258 366 223 337T187 275V91Q187 64 220 37T293 9Q337 9 355 36Q378 70 378 167Z"  />
<glyph unicode="q" horiz-adv-x="524" d="M507 -257H276V-233H343V30Q300 -17 233 -17Q158 -17 96 45T34 187Q34 265 95 326T231 387Q299 387 343 335V376H507V352H440V-233H507V-257ZM343 106V266Q343 303 307 334T232 366Q150 366 150 245V141Q150 61 173 32Q192 8 235 8Q283 8 313 37T343 106Z"  />
<glyph unicode="r" horiz-adv-x="412" d="M402 313Q402 289 386 275T346 261Q321 261 305 274T289 310Q289 340 314 354Q317 355 317 357Q317 361 293 361Q257 361 223 333T188 276V24H260V0H18V24H90V353H18V377H188V332Q231 385 304 385Q344 385 370 369Q402 350 402 313Z"  />
<glyph unicode="s" horiz-adv-x="367" d="M343 119Q343 62 306 25Q266 -13 199 -13Q125 -13 83 24L64 -1Q59 -8 54 -8Q43 -8 43 4V105Q43 117 54 117Q63 117 66 105Q93 10 196 10Q234 10 264 27Q299 47 299 81Q299 122 238 144Q227 147 142 165Q50 184 50 266Q50 317 86 352Q126 390 191 390Q237 390 269 365L289 384L292 386Q296 390 300 390Q307 390 307 379V278Q307 268 299 268Q290 268 288 277Q282 312 258 337Q229 366 185 366Q148 366 124 348T99 306Q99 277 134 267Q178 257 246 239Q343 210 343 119Z"  />
<glyph unicode="t" horiz-adv-x="348" d="M338 83Q338 79 337 73Q321 -13 214 -13Q154 -13 122 18T89 104V355H19V379H89V485L187 530V379H287V355H187V102Q187 16 249 16Q303 16 314 81Q316 95 328 95Q338 95 338 83Z"  />
<glyph unicode="u" horiz-adv-x="556" d="M529 0H359V60Q306 -11 204 -11Q95 -11 95 95V353H23V376H193V89Q193 55 201 42Q212 25 245 25Q287 25 323 59T359 123V353H287V376H457V24H529V0Z"  />
<glyph unicode="v" horiz-adv-x="505" d="M488 353H425L269 -4H255L90 353H21V376H264V353H194L297 123L397 353H326V376H488V353Z"  />
<glyph unicode="w" horiz-adv-x="668" d="M654 353H582L457 -11H443L338 230L251 -11H236L92 353H23V376H257V353H191L278 135L363 376H377L482 134L556 353H472V376H654V353Z"  />
<glyph unicode="x" horiz-adv-x="518" d="M505 0H263V24H336L239 152L134 24H205V0H31V24H102L223 173L86 353H26V376H253V353H190L279 236L374 353H313V376H476V353H408L295 215L441 24H505V0Z"  />
<glyph unicode="y" horiz-adv-x="521" d="M511 352H442L231 -154Q191 -251 111 -251Q54 -251 54 -206Q54 -167 95 -167Q125 -167 139 -194Q145 -205 151 -205Q183 -205 207 -146L266 -3L96 352H26V376H277V352H201L313 110L414 352H340V376H511V352Z"  />
<glyph unicode="z" horiz-adv-x="414" d="M388 0H49V26L275 353H179Q100 353 89 255H68V376H377V348L155 24H267Q359 24 367 132H388V0Z"  />
<glyph unicode="{" horiz-adv-x="299" d="M234 -81L208 -82Q152 -84 130 -57T107 29V177Q107 208 87 221Q84 223 39 240V282Q107 294 107 339V479Q107 583 215 577L234 576V534Q168 535 168 467V352Q168 275 92 261V260Q135 251 153 225Q168 202 168 156V27Q168 -40 234 -39V-81Z"  />
<glyph unicode="|" horiz-adv-x="239" d="M129 -53H90V555H129V-53Z"  />
<glyph unicode="}" horiz-adv-x="299" d="M234 250Q188 233 186 232Q166 219 166 187V39Q166 -21 143 -48T62 -72L39 -71V-29Q105 -30 105 37V166Q105 212 121 236T181 270V271Q105 285 105 362V477Q105 545 39 544V586L63 587Q166 591 166 489V349Q166 304 234 292V250Z"  />
<glyph unicode="&#xA0;" horiz-adv-x="250" />
<glyph unicode="&#xA1;" horiz-adv-x="277" d="M206 453Q206 430 189 414T146 398Q121 398 104 414T86 453Q86 476 103 492T146 509Q171 509 188 493T206 453ZM208 -48Q208 -138 145 -138Q80 -138 80 -48Q80 -11 91 41Q101 84 111 128Q122 185 134 347H155Q159 296 162 244Q168 176 177 128Q183 105 195 50T208 -48Z"  />
<glyph unicode="&#xA2;" horiz-adv-x="354" d="M331 213Q331 210 330 206Q307 125 211 118L210 70H185V119Q123 124 79 167T35 271Q35 333 75 373T185 424V461H210L211 424Q250 423 281 405T312 361Q312 324 274 324Q258 324 248 334T237 359Q237 373 242 379T248 389Q248 403 211 405V140Q248 142 275 163T309 215Q311 224 320 224Q331 224 331 213ZM185 140V404Q150 397 138 374T125 291V250Q125 200 132 180Q145 145 185 140Z"  />
<glyph unicode="&#xA3;" horiz-adv-x="559" d="M535 187Q535 126 484 60Q429 -11 363 -11Q273 -11 217 48Q184 -5 107 -5Q63 -5 39 20T14 80Q14 129 59 160Q98 186 144 186Q162 186 182 182L131 324H35V350H120Q86 448 86 491Q86 581 169 624Q235 658 340 658Q402 658 448 628Q498 595 498 546Q498 465 426 465Q399 465 381 479T362 517Q362 573 430 573Q445 573 445 580Q445 598 412 616T340 634Q285 634 259 608Q228 578 228 506V350H309V324H228V170Q344 103 405 103Q443 103 468 127Q489 147 511 193Q515 201 523 201Q535 201 535 187ZM194 68Q138 132 89 132Q73 132 59 120Q42 105 42 80Q42 57 59 39T107 21Q171 21 194 68Z"  />
<glyph unicode="&#xA5;" horiz-adv-x="674" d="M665 621H579L411 340V324H511V300H411V261H511V237H411V24H510V0H204V24H302V237H201V261H302V300H201V324H297L105 621H20V645H317V621H226L390 367L542 621H446V645H665V621Z"  />
<glyph unicode="&#xA6;" horiz-adv-x="118" d="M80 357H43V647H80V357ZM80 0H43V265H80V0Z"  />
<glyph unicode="&#xA7;" horiz-adv-x="387" d="M367 335Q367 246 292 214Q364 181 364 93Q364 20 317 -24T190 -69Q130 -69 89 -37T48 37Q48 85 91 85Q130 85 130 46Q130 9 88 9Q83 9 83 8Q83 -3 112 -22Q148 -45 190 -45Q245 -45 277 -20T309 43Q309 95 238 119Q173 140 108 161Q37 197 37 279Q37 372 119 401Q36 429 36 518Q36 579 79 621Q124 667 195 667Q271 667 312 637Q345 614 345 581Q345 542 307 542Q264 542 264 577Q264 610 297 616Q260 643 195 643Q153 643 121 622T89 569Q89 513 190 499Q367 474 367 335ZM329 300Q329 332 268 359Q220 381 163 390Q90 375 90 323Q90 289 124 268Q163 243 259 225Q329 250 329 300Z"  />
<glyph unicode="&#xA8;" horiz-adv-x="432" d="M353 554Q353 535 338 522T300 509Q278 509 263 522T247 554Q247 573 262 586T300 599Q322 599 337 586T353 554ZM196 554Q196 535 181 522T143 509Q121 509 106 522T90 554Q90 573 105 586T143 599Q165 599 180 586T196 554Z"  />
<glyph unicode="&#xA9;" horiz-adv-x="637" d="M616 357Q616 247 532 169T327 91Q207 91 122 169T37 357Q37 467 122 545T327 623Q447 623 531 545T616 357ZM586 358Q586 456 511 525T328 594Q221 594 145 525T69 358Q69 260 145 191T328 122Q435 122 510 191T586 358ZM428 241Q428 234 420 234Q417 234 414 237L393 257Q363 230 324 230Q274 230 233 272T192 370Q192 423 231 466T327 510Q362 510 392 489L405 503Q408 507 415 507H417Q423 506 423 498V434Q423 424 415 424Q411 424 407 431Q386 491 327 491Q254 491 254 391V349Q254 248 324 248Q377 248 411 317Q413 325 421 325Q428 325 428 317V241Z"  />
<glyph unicode="&#xAA;" horiz-adv-x="354" d="M323 398Q323 385 309 373Q291 356 262 356Q223 356 213 383Q186 356 144 356Q73 356 73 411Q73 449 112 471T209 494V555Q209 582 172 582Q141 582 137 577L139 575Q140 575 142 573Q151 563 151 553Q151 529 123 529Q96 529 96 555Q96 573 119 586T186 600Q271 600 271 545V410Q271 380 283 380Q295 380 304 392T316 405Q323 405 323 398ZM323 284H44V322H323V284ZM209 408V480Q130 474 130 425Q130 380 165 380Q177 380 193 390T209 408Z"  />
<glyph unicode="&#xAB;" horiz-adv-x="438" d="M382 108H354L174 258L354 408H382L254 258L382 108ZM232 108H203L24 258L203 408H232L104 258L232 108Z"  />
<glyph unicode="&#xAC;" horiz-adv-x="564" d="M545 230H506V389H18V429H545V230Z"  />
<glyph unicode="&#xAE;" horiz-adv-x="448" d="M413 475Q413 402 357 351T219 299Q138 299 82 350T25 475Q25 549 82 600T219 652Q299 652 356 601T413 475ZM383 475Q383 536 335 579T220 622Q152 622 105 579T57 475Q57 414 104 371T220 328Q287 328 335 371T383 475ZM331 388Q331 380 329 378Q318 368 290 368Q271 368 265 376Q256 385 254 404Q253 419 252 434Q248 473 218 473H197V388H225V370H127V388H156V562H127V580H225Q257 580 277 566T298 526Q298 491 258 478Q283 470 291 450Q297 437 298 407Q299 384 309 384Q316 384 322 388H331ZM258 520V531Q258 562 225 562H197V491H225Q258 491 258 520Z"  />
<glyph unicode="&#xAF;" horiz-adv-x="454" d="M360 516H107V543H360V516Z"  />
<glyph unicode="&#xB0;" horiz-adv-x="231" d="M202 582Q202 552 178 531T121 510Q88 510 64 531T39 582Q39 612 63 633T121 654Q154 654 178 633T202 582ZM177 582Q177 603 161 617T121 631Q97 631 81 617T64 582Q64 562 80 548T121 533Q145 533 161 547T177 582Z"  />
<glyph unicode="&#xB1;" horiz-adv-x="410" d="M374 344H235V217H171V344H32V403H171V530H235V403H374V344ZM358 126H48V185H358V126Z"  />
<glyph unicode="&#xB2;" horiz-adv-x="306" d="M260 205H48V246Q79 274 119 306Q167 344 178 356Q206 387 206 426Q206 474 154 474Q95 474 95 411H49Q48 514 151 514Q256 514 256 424Q256 399 252 384Q242 339 172 286Q151 273 122 247L123 246H260V205Z"  />
<glyph unicode="&#xB3;" horiz-adv-x="306" d="M259 286Q259 202 155 202Q113 202 84 222Q50 245 50 285Q50 295 52 304H101Q100 297 100 291Q100 269 116 256T155 242Q209 242 209 293Q209 321 184 334Q163 346 134 343V384Q142 383 147 383Q209 383 209 433Q209 451 195 463T161 476Q106 476 109 415Q103 415 93 415T77 415Q64 415 58 415Q57 419 57 427Q57 517 162 517Q259 517 259 434Q259 392 226 373Q203 360 203 361Q206 358 209 356Q223 349 236 342Q259 326 259 286Z"  />
<glyph unicode="&#xB4;" horiz-adv-x="404" d="M371 622L196 468L183 477L268 622H371Z"  />
<glyph unicode="&#xB6;" horiz-adv-x="664" d="M625 621H536V-104H471V621H392V-104H328V291H263Q163 291 101 334Q34 381 34 468Q34 555 101 602Q163 645 263 645H625V621Z"  />
<glyph unicode="&#xB8;" horiz-adv-x="359" d="M266 -101Q266 -125 246 -140T194 -156Q151 -156 123 -117Q118 -110 118 -104Q118 -96 126 -96Q131 -96 146 -108T179 -121Q215 -121 215 -93Q215 -69 180 -56L194 0H228L217 -45Q266 -61 266 -101Z"  />
<glyph unicode="&#xB9;" horiz-adv-x="306" d="M220 206H171V441Q170 441 170 442Q168 441 154 431Q117 405 95 400V457Q105 461 125 469Q156 483 172 510H220V206Z"  />
<glyph unicode="&#xBA;" horiz-adv-x="327" d="M293 477Q293 434 259 396Q221 354 167 354Q113 354 75 396Q40 434 40 477Q40 520 75 557Q113 598 167 598Q221 598 259 557Q293 520 293 477ZM304 284H26V322H304V284ZM219 464V488Q219 533 214 549Q203 580 167 580Q131 580 120 549Q113 532 113 488V464Q113 419 119 402Q130 372 167 372Q203 372 214 403Q219 419 219 464Z"  />
<glyph unicode="&#xBB;" horiz-adv-x="426" d="M422 258L243 108H214L343 258L214 408H243L422 258ZM266 258L87 108H58L187 258L58 408H87L266 258Z"  />
<glyph unicode="&#xBC;" horiz-adv-x="581" d="M529 64H491V0H440V64H308V107L409 303H491V107H529V64ZM442 107V266L352 107H442ZM177 206H128V441Q127 441 127 442Q125 441 111 431Q74 405 52 400V457Q62 461 82 469Q113 483 129 510H177V206ZM373 621L202 -119H136L307 621H373Z"  />
<glyph unicode="&#xBD;" horiz-adv-x="581" d="M177 206H128V441Q127 441 127 442Q125 441 111 431Q74 405 52 400V457Q62 461 82 469Q113 483 129 510H177V206ZM529 0H317V40Q349 69 388 100Q437 139 448 150Q476 182 476 220Q476 269 423 269Q364 269 364 205H318Q317 309 420 309Q525 309 525 219Q525 194 521 178Q511 134 442 81Q420 68 391 41L392 40H529V0ZM370 621L199 -119H133L304 621H370Z"  />
<glyph unicode="&#xBE;" horiz-adv-x="581" d="M235 286Q235 202 131 202Q89 202 60 222Q27 245 27 285Q27 295 28 304H78Q76 297 76 291Q76 269 92 256T131 242Q186 242 186 293Q186 321 160 334Q139 346 110 343V384Q118 383 123 383Q186 383 186 433Q186 451 171 463T137 476Q82 476 85 415Q79 415 69 415T53 415Q40 415 34 415Q33 419 33 427Q33 517 138 517Q235 517 235 434Q235 392 202 373Q179 360 179 361Q182 358 186 356Q199 349 213 342Q235 326 235 286ZM554 64H516V0H466V64H333V107L434 303H516V107H554V64ZM467 107V266L377 107H467ZM414 621L243 -119H177L348 621H414Z"  />
<glyph unicode="&#xBF;" horiz-adv-x="415" d="M292 448Q292 425 275 409T232 393Q207 393 190 409T172 448Q172 471 189 487T232 504Q257 504 274 488T292 448ZM369 -38Q369 -77 325 -105Q277 -134 202 -134Q125 -134 82 -99T38 2Q38 47 64 85Q81 110 124 148L170 189Q221 235 221 256Q221 282 220 290Q218 306 218 310Q218 321 231 321Q241 321 243 311Q256 249 256 212Q256 174 246 152Q230 117 196 85Q143 34 138 28Q101 -15 101 -46Q101 -72 124 -90Q151 -110 200 -110Q247 -110 275 -98Q295 -90 295 -85Q295 -85 294 -87Q247 -78 247 -37Q247 -14 264 1T309 16Q335 16 352 1T369 -38Z"  />
<glyph unicode="&#xD7;" horiz-adv-x="581" d="M549 57L493 6L290 192L89 6L33 57L234 243L33 427L89 479L290 293L493 479L549 427L347 243L549 57Z"  />
<glyph unicode="&#xF7;" horiz-adv-x="382" d="M255 385Q255 362 238 346T195 330Q170 330 153 346T135 385Q135 408 152 424T195 440Q220 440 237 424T255 385ZM336 225H53V283H336V225ZM255 116Q255 93 238 77T195 61Q170 61 153 77T135 116Q135 139 152 155T195 171Q220 171 237 155T255 116Z"  />
<glyph unicode="&#x192;" horiz-adv-x="500" d="M488 623Q488 585 455 585Q424 585 424 612Q424 619 429 629T435 642Q435 655 417 655Q379 655 367 602Q351 530 335 427H422L414 395H329Q303 260 245 49Q200 -116 145 -170Q104 -210 61 -210Q36 -210 19 -197T1 -159Q1 -116 39 -116Q50 -116 60 -124T70 -143Q70 -148 61 -164Q59 -168 59 -171Q59 -181 71 -181Q96 -181 118 -145Q131 -124 147 -59Q151 -43 189 144Q192 161 249 395H163L170 427Q206 430 214 431Q240 436 251 450Q264 468 281 516Q306 590 327 621Q365 677 421 677Q448 677 468 663T488 623Z"  />
<glyph unicode="&#x3BC;" horiz-adv-x="576" d="M534 100Q526 -14 438 -14Q368 -14 360 79Q281 -14 207 -14Q182 -14 162 -3Q148 5 131 28Q131 28 131 5Q131 -36 147 -111Q154 -144 154 -162Q154 -184 142 -200T108 -216Q65 -216 65 -163Q65 -144 82 -74Q88 -47 90 -31Q96 23 96 56V447H176V187Q176 117 185 90Q200 46 245 46Q302 46 360 112V447H441V128Q441 79 445 64Q452 39 474 39Q505 39 514 100H534Z"  />
<glyph unicode="&#x5B0;" horiz-adv-x="0" d="M334 -127Q334 -165 294 -165Q253 -165 253 -127Q253 -90 294 -90Q310 -90 322 -100T334 -127ZM334 -242Q334 -280 294 -280Q253 -280 253 -242Q253 -205 294 -205Q310 -205 322 -215T334 -242Z"  />
<glyph unicode="&#x5B1;" horiz-adv-x="0" d="M412 -111Q412 -142 378 -142Q344 -142 344 -111Q344 -80 378 -80Q391 -80 401 -89T412 -111ZM322 -111Q322 -142 289 -142Q254 -142 254 -111Q254 -80 289 -80Q302 -80 312 -89T322 -111ZM412 -208Q412 -239 378 -239Q344 -239 344 -208Q344 -177 378 -177Q391 -177 401 -186T412 -208ZM232 -111Q232 -142 198 -142Q164 -142 164 -111Q164 -80 198 -80Q232 -80 232 -111ZM277 -208Q277 -240 243 -240Q209 -240 209 -208Q209 -177 243 -177Q256 -177 266 -186T277 -208Z"  />
<glyph unicode="&#x5B2;" horiz-adv-x="0" d="M418 -111Q418 -142 384 -142Q350 -142 350 -111Q350 -80 384 -80Q397 -80 407 -89T418 -111ZM418 -208Q418 -239 384 -239Q350 -239 350 -208Q350 -177 384 -177Q397 -177 407 -186T418 -208ZM322 -124H174V-85H322V-124Z"  />
<glyph unicode="&#x5B3;" horiz-adv-x="0" d="M418 -111Q418 -142 384 -142Q350 -142 350 -111Q350 -80 384 -80Q397 -80 407 -89T418 -111ZM418 -208Q418 -239 384 -239Q350 -239 350 -208Q350 -177 384 -177Q397 -177 407 -186T418 -208ZM322 -124H266Q271 -174 271 -214V-231H225V-216Q225 -171 231 -124H174V-85H322V-124Z"  />
<glyph unicode="&#x5B4;" horiz-adv-x="0" d="M334 -117Q334 -155 294 -155Q253 -155 253 -117Q253 -80 294 -80Q310 -80 322 -90T334 -117Z"  />
<glyph unicode="&#x5B5;" horiz-adv-x="0" d="M397 -117Q397 -155 357 -155Q316 -155 316 -117Q316 -80 357 -80Q373 -80 385 -90T397 -117ZM272 -117Q272 -155 232 -155Q191 -155 191 -117Q191 -80 232 -80Q248 -80 260 -90T272 -117Z"  />
<glyph unicode="&#x5B6;" horiz-adv-x="0" d="M397 -117Q397 -155 357 -155Q316 -155 316 -117Q316 -80 357 -80Q373 -80 385 -90T397 -117ZM272 -117Q272 -155 232 -155Q191 -155 191 -117Q191 -80 232 -80Q248 -80 260 -90T272 -117ZM334 -217Q334 -255 294 -255Q253 -255 253 -217Q253 -180 294 -180Q310 -180 322 -190T334 -217Z"  />
<glyph unicode="&#x5B7;" horiz-adv-x="0" d="M394 -139H194V-86H394V-139Z"  />
<glyph unicode="&#x5B8;" horiz-adv-x="0" d="M394 -139H318Q326 -190 326 -235Q326 -239 326 -247Q325 -254 325 -258H263Q263 -254 263 -247Q262 -239 262 -235Q262 -190 270 -139H194V-86H394V-139Z"  />
<glyph unicode="&#x5B9;" horiz-adv-x="0" d="M114 603Q114 586 101 575T71 563Q54 563 41 574T28 603Q28 620 41 631T71 643Q88 643 101 632T114 603Z"  />
<glyph unicode="&#x5BB;" horiz-adv-x="0" d="M232 -117Q232 -155 192 -155Q151 -155 151 -117Q151 -80 192 -80Q208 -80 220 -90T232 -117ZM284 -205Q284 -243 244 -243Q203 -243 203 -205Q203 -168 244 -168Q260 -168 272 -178T284 -205ZM340 -290Q340 -306 328 -317T298 -329Q259 -329 259 -290Q259 -254 300 -254Q340 -254 340 -290Z"  />
<glyph unicode="&#x5BC;" horiz-adv-x="0" d="M80 257Q80 240 67 229T37 217Q20 217 7 228T-6 257Q-6 274 7 285T37 297Q54 297 67 286T80 257Z"  />
<glyph unicode="&#x5BD;" horiz-adv-x="0" d="M28 -229H0V-102H28V-229Z"  />
<glyph unicode="&#x5BE;" horiz-adv-x="284" d="M219 438H57V505H219V438Z"  />
<glyph unicode="&#x5BF;" horiz-adv-x="0" d="M295 561H95V614H295V561Z"  />
<glyph unicode="&#x5C0;" horiz-adv-x="168" d="M108 -130H60V617H108V-130Z"  />
<glyph unicode="&#x5C1;" horiz-adv-x="0" d="M721 603Q721 586 708 575T678 563Q661 563 648 574T635 603Q635 620 648 631T678 643Q695 643 708 632T721 603Z"  />
<glyph unicode="&#x5C2;" horiz-adv-x="0" d="M237 603Q237 586 224 575T194 563Q177 563 164 574T151 603Q151 620 164 631T194 643Q211 643 224 632T237 603Z"  />
<glyph unicode="&#x5C3;" horiz-adv-x="275" d="M92 301H0V399H92V301ZM92 0H0V98H92V0Z"  />
<glyph unicode="&#x5D0;" horiz-adv-x="438" d="M394 0H302L158 276Q149 269 140 195Q133 132 133 103Q133 86 134 52T136 0H53Q52 30 52 91Q52 278 106 374L40 505H130L246 282Q255 289 271 327Q284 361 289 379Q296 407 296 505H379V502Q379 412 369 366Q360 325 339 278Q315 224 290 202L394 0Z"  />
<glyph unicode="&#x5D1;" horiz-adv-x="413" d="M354 0H48V67H157Q202 67 224 92Q242 113 249 161Q254 195 254 252Q254 356 241 392T183 435Q165 438 49 438V505H148Q223 505 259 485Q310 456 327 377Q336 334 336 244Q336 187 330 159Q319 111 285 90Q255 72 255 68Q255 65 258 65Q273 68 304 68Q313 68 329 68Q346 67 354 67V0Z"  />
<glyph unicode="&#x5D2;" horiz-adv-x="315" d="M278 0H201Q191 6 190 37Q188 64 180 64Q175 64 166 45Q154 21 143 10Q124 -9 95 -9Q58 -9 48 0V69Q69 61 88 61Q132 61 156 97Q177 129 177 175V389Q177 438 138 438H48V505H145Q220 505 243 464Q259 436 259 354V100Q259 50 278 0Z"  />
<glyph unicode="&#x5D3;" horiz-adv-x="411" d="M348 438H306V0H224V438H40V505H348V438Z"  />
<glyph unicode="&#x5D4;" horiz-adv-x="469" d="M409 0H327V346Q327 409 308 425Q292 438 226 438H51V505H244Q329 505 366 477Q409 445 409 363V0ZM134 0H51V320H134V0Z"  />
<glyph unicode="&#x5D5;" horiz-adv-x="209" d="M141 0H60Q60 12 61 35Q61 58 61 69V303Q61 463 51 505H130Q141 492 141 429V0Z"  />
<glyph unicode="&#x5D6;" horiz-adv-x="260" d="M211 438Q211 438 183 427Q166 420 166 401V0H84V354Q84 413 114 430Q122 434 122 436Q122 438 112 438H42V505H211V438Z"  />
<glyph unicode="&#x5D7;" horiz-adv-x="489" d="M416 0H334V349Q334 404 321 419Q306 438 253 438H126V0H44V505H262Q341 505 377 474Q416 440 416 363V0Z"  />
<glyph unicode="&#x5D8;" horiz-adv-x="487" d="M419 198Q419 101 372 47Q322 -10 226 -10Q111 -10 73 65Q47 116 47 244V505H129V189Q129 84 170 65Q187 57 226 57Q337 57 337 205V342Q337 448 264 448Q215 448 188 406H185V478Q185 482 194 491Q224 515 278 515Q361 515 394 461Q419 420 419 331V198Z"  />
<glyph unicode="&#x5D9;" horiz-adv-x="215" d="M141 218H59V416Q59 466 51 505H130Q141 482 141 439V218Z"  />
<glyph unicode="&#x5DA;" horiz-adv-x="323" d="M264 -191H182V360Q182 407 166 422T102 438H-10V505H118Q264 505 264 366V-191Z"  />
<glyph unicode="&#x5DB;" horiz-adv-x="374" d="M316 135Q316 0 164 0H41V67H171Q234 67 234 134V359Q234 413 211 428Q195 438 137 438H41V505H152Q237 505 274 477Q316 444 316 362V135Z"  />
<glyph unicode="&#x5DC;" horiz-adv-x="354" d="M313 424Q313 393 304 348Q297 311 289 273L242 0H157L229 369Q233 390 233 399Q233 438 182 438H84Q40 438 25 471Q15 492 15 542Q15 551 16 569Q16 587 16 596Q16 667 0 722H83Q97 685 97 620Q97 609 97 587Q96 564 96 553Q96 509 121 505Q121 505 133 505H242Q273 505 293 481T313 424Z"  />
<glyph unicode="&#x5DD;" horiz-adv-x="459" d="M401 0H30V505H251Q329 505 365 470T401 356V0ZM319 67V348Q319 404 303 421T230 438H112V67H319Z"  />
<glyph unicode="&#x5DE;" horiz-adv-x="514" d="M444 142Q444 85 420 42Q391 -10 338 -10H324Q266 -10 241 13V77Q270 59 300 59Q362 59 362 156V337Q362 448 277 448Q215 448 183 405Q155 367 155 303V0H73V378Q73 444 57 505H143Q156 476 156 434L160 432Q188 476 219 495T301 515Q382 515 415 470Q444 431 444 347V142Z"  />
<glyph unicode="&#x5DF;" horiz-adv-x="189" d="M120 -191H38V451Q38 486 30 505H110Q120 471 120 431V-191Z"  />
<glyph unicode="&#x5E0;" horiz-adv-x="284" d="M232 0H41V67H149L150 383Q150 423 137 432Q128 438 85 438H48V505H116Q177 505 204 481T232 396V0Z"  />
<glyph unicode="&#x5E1;" horiz-adv-x="459" d="M403 176Q403 0 228 0H63L34 505H403V176ZM321 181V438H119L141 67H186Q256 67 286 88Q321 113 321 181Z"  />
<glyph unicode="&#x5E2;" horiz-adv-x="469" d="M402 209Q402 111 354 57Q304 0 207 0H63V67H141L61 505H146L221 68Q272 69 299 118Q320 157 320 213V505H402V209Z"  />
<glyph unicode="&#x5E3;" horiz-adv-x="423" d="M355 -191H273V295Q272 377 263 401Q244 448 176 448Q83 448 83 331Q83 248 92 218H13Q0 270 0 328Q0 413 45 464T175 515Q274 515 316 466Q355 420 355 320V-191Z"  />
<glyph unicode="&#x5E4;" horiz-adv-x="435" d="M389 288Q389 142 361 86Q319 0 188 0H50V67H178Q307 67 307 214Q307 228 307 257Q306 285 306 300Q306 378 295 403Q276 448 209 448Q114 448 114 327Q114 267 125 217H52Q33 247 33 329Q33 410 82 462T213 515Q321 515 360 452Q389 404 389 288Z"  />
<glyph unicode="&#x5E5;" horiz-adv-x="388" d="M336 367Q336 187 189 126V-191H108V111L-38 505H52L168 205L177 207Q217 243 231 269Q249 300 249 348Q249 413 222 505H317Q336 434 336 367Z"  />
<glyph unicode="&#x5E6;" horiz-adv-x="477" d="M406 0H63V67H309V70Q126 287 51 505H150Q190 373 255 283Q307 367 320 505H406Q386 316 305 210L406 69V0Z"  />
<glyph unicode="&#x5E7;" horiz-adv-x="492" d="M418 239Q418 132 398 78Q365 -9 277 -9Q245 -9 194 8V76Q234 58 263 58Q336 58 336 201V438H48V505H418V239ZM143 -191H61V320H143V-191Z"  />
<glyph unicode="&#x5E8;" horiz-adv-x="395" d="M331 0H249V356Q249 438 151 438H35V505H181Q331 505 331 377V0Z"  />
<glyph unicode="&#x5E9;" horiz-adv-x="528" d="M299 135H217V505H299V135ZM460 209Q460 144 448 107Q413 0 235 0H82L53 505H135L158 67H218Q313 67 343 90Q378 118 378 210V505H460V209Z"  />
<glyph unicode="&#x5EA;" horiz-adv-x="519" d="M457 0H375V356Q375 406 359 422T291 438H172V68Q172 32 151 11T93 -10Q53 -10 42 0V66H46Q58 58 67 58Q90 58 90 118V505H304Q388 505 422 471T457 353V0Z"  />
<glyph unicode="&#x5F0;" horiz-adv-x="389" d="M321 0H240Q240 12 241 35Q241 58 241 69V303Q241 463 231 505H310Q321 492 321 429V0ZM141 0H60Q60 12 61 35Q61 58 61 69V303Q61 463 51 505H130Q141 492 141 429V0Z"  />
<glyph unicode="&#x5F1;" horiz-adv-x="389" d="M321 0H240Q240 12 241 35Q241 58 241 69V303Q241 463 231 505H310Q321 492 321 429V0ZM141 218H59V416Q59 466 51 505H130Q141 482 141 439V218Z"  />
<glyph unicode="&#x5F2;" horiz-adv-x="395" d="M321 218H239V416Q239 466 231 505H310Q321 482 321 439V218ZM141 218H59V416Q59 466 51 505H130Q141 482 141 439V218Z"  />
<glyph unicode="&#x5F3;" horiz-adv-x="283" d="M116 505L37 320H-23L15 505H116Z"  />
<glyph unicode="&#x5F4;" horiz-adv-x="425" d="M331 505L253 320H193L231 505H331ZM171 505L93 320H33L71 505H171Z"  />
<glyph unicode="&#xF25;" horiz-adv-x="354" d="M313 424Q313 393 304 348Q297 311 289 273L242 0H157L229 369Q233 390 233 399Q233 438 182 438H84Q40 438 25 471Q15 492 15 542Q15 551 16 569Q16 587 16 596Q16 667 0 722H83Q97 685 97 620Q97 609 97 587Q96 564 96 553Q96 509 121 505Q121 505 133 505H242Q273 505 293 481T313 424Z"  />
<glyph unicode="&#x200E;" horiz-adv-x="406" d="M375 448L211 296V404H141V0H55V490H211V600L375 448Z"  />
<glyph unicode="&#x200F;" horiz-adv-x="406" d="M351 0H265V404H195V296L31 448L195 600V490H351V0Z"  />
<glyph unicode="&#x2013;" horiz-adv-x="284" d="M219 438H57V505H219V438Z"  />
<glyph unicode="&#x2014;" horiz-adv-x="614" d="M549 211H57V275H549V211Z"  />
<glyph unicode="&#x2018;" horiz-adv-x="199" d="M177 320H117L38 505H139L177 320Z"  />
<glyph unicode="&#x2019;" horiz-adv-x="222" d="M139 505L60 320H0L38 505H139Z"  />
<glyph unicode="&#x201A;" horiz-adv-x="283" d="M104 46L25 -139H-35L3 46H104Z"  />
<glyph unicode="&#x201C;" horiz-adv-x="355" d="M327 320H267L189 505H289L327 320ZM167 320H107L29 505H129L167 320Z"  />
<glyph unicode="&#x201D;" horiz-adv-x="355" d="M323 505L245 320H185L223 505H323ZM163 505L85 320H25L63 505H163Z"  />
<glyph unicode="&#x201E;" horiz-adv-x="355" d="M331 105L253 -80H193L231 105H331ZM171 105L93 -80H33L71 105H171Z"  />
<glyph unicode="&#x2020;" horiz-adv-x="271" d="M222 423H155V66H119V423H53V456H119V520Q119 531 110 552T101 585Q101 597 108 618T120 664T137 689Q149 689 154 664T166 618T173 585Q173 573 164 552T155 520V456H222V423Z"  />
<glyph unicode="&#x2021;" horiz-adv-x="271" d="M221 174H154V110Q154 99 163 78T172 45Q172 33 165 12T153 -33Q147 -60 136 -60Q125 -60 119 -33Q114 -9 107 12T100 45Q100 57 109 78T118 110V174H52V207H118V422H52V456H118V520Q118 531 109 551T100 584Q100 597 107 618T119 664T136 689Q148 689 153 664T165 618T172 584Q172 572 163 552T154 520V456H221V422H154V207H221V174Z"  />
<glyph unicode="&#x2022;" horiz-adv-x="471" d="M405 227Q405 163 355 117T234 71Q163 71 113 117T62 227Q62 291 112 336T234 382Q305 382 355 337T405 227Z"  />
<glyph unicode="&#x2026;" horiz-adv-x="580" d="M495 0H402V98H495V0ZM325 0H232V98H325V0ZM155 0H62V98H155V0Z"  />
<glyph unicode="&#x2030;" horiz-adv-x="1138" d="M1096 179Q1096 101 1055 48Q1010 -11 930 -11Q847 -11 798 49Q755 102 755 179Q755 254 798 307Q845 365 926 365Q1007 365 1054 306Q1096 254 1096 179ZM736 179Q736 101 695 48Q650 -11 570 -11Q487 -11 438 49Q394 103 394 179Q394 254 437 307Q484 365 565 365Q647 365 694 306Q736 254 736 179ZM638 656L173 -4H126L591 656H638ZM372 469Q372 391 331 339Q286 280 206 280Q123 280 74 339Q31 393 31 469Q31 545 74 597Q121 656 202 656Q283 656 330 597Q372 544 372 469ZM1001 167V190Q1001 269 990 299Q975 344 926 344Q877 344 861 299Q850 269 850 190V167Q850 85 861 56Q877 11 930 11Q976 11 991 54Q1001 85 1001 167ZM640 167V190Q640 269 629 299Q614 344 565 344Q516 344 500 299Q490 269 490 190V167Q490 85 501 56Q517 11 570 11Q616 11 630 54Q640 84 640 167ZM277 458V481Q277 560 266 590Q251 634 202 634Q153 634 137 589Q126 559 126 481V458Q126 376 137 346Q153 301 206 301Q252 301 267 345Q277 375 277 458Z"  />
<glyph unicode="&#x2039;" horiz-adv-x="271" d="M238 108H208L29 258L208 408H238L109 258L238 108Z"  />
<glyph unicode="&#x203A;" horiz-adv-x="271" d="M243 258L63 108H35L164 258L35 408H63L243 258Z"  />
<glyph unicode="&#x20AA;" horiz-adv-x="648" d="M550 203Q550 86 488 40Q434 0 313 0H205L172 322H254L283 66H285Q379 66 415 84Q468 112 468 197V505H550V203ZM419 183H337L308 439H306Q212 439 176 421Q123 393 123 308V0H41V302Q41 419 103 465Q157 505 278 505H386L419 183Z"  />
<glyph unicode="&#x20AC;" horiz-adv-x="615" d="M589 52Q509 -16 403 -16Q307 -16 231 41T127 191H29L63 251H117Q116 271 116 271Q116 278 117 294H29L63 354H128Q157 445 232 501T403 558Q509 558 589 490L558 437Q493 498 403 498Q334 498 278 459T192 354H512L476 294H177Q176 282 176 271Q176 266 177 251H452L417 191H190Q218 124 275 84T403 44Q493 44 558 105L572 79Q575 74 589 52Z"  />
<glyph unicode="&#x2122;" horiz-adv-x="510" d="M467 464H371V480H399V596L351 464H339L286 589V480H315V464H238V480H266V628H238V645H301L353 522L399 645H467V628H440V480H467V464ZM216 600H199Q198 607 196 612Q190 628 169 628H147V480H175V464H78V480H105V628H82Q56 628 52 600H35L40 645H212L216 600Z"  />
<glyph unicode="&#x2153;" horiz-adv-x="581" d="M176 206H127V441Q126 441 126 442Q124 441 110 431Q73 405 51 400V457Q61 461 81 469Q112 483 128 510H176V206ZM530 78Q530 -6 426 -6Q385 -6 355 15Q322 38 322 77Q322 87 324 96H373Q371 90 371 83Q371 61 387 48T426 34Q481 34 481 85Q481 113 456 127Q435 138 405 136V176Q414 175 419 175Q481 175 481 225Q481 243 466 256T432 269Q377 269 380 207Q375 207 364 207Q353 208 348 208Q336 208 329 207Q329 211 329 220Q329 309 434 309Q530 309 530 227Q530 184 497 166Q474 153 474 153Q477 150 481 149Q494 142 508 134Q530 118 530 78ZM377 621L206 -119H140L311 621H377Z"  />
<glyph unicode="&#x2154;" horiz-adv-x="581" d="M224 205H13V246Q44 274 83 306Q132 344 143 356Q171 387 171 426Q171 474 118 474Q59 474 59 411H13Q12 514 115 514Q220 514 220 424Q220 399 217 384Q206 339 137 286Q115 273 86 247L88 246H224V205ZM568 78Q568 -6 465 -6Q423 -6 394 15Q360 38 360 77Q360 87 362 96H411Q409 90 409 83Q409 61 425 48T465 34Q519 34 519 85Q519 113 494 127Q473 138 444 136V176Q452 175 457 175Q519 175 519 225Q519 243 505 256T471 269Q415 269 418 207Q413 207 402 207Q392 208 387 208Q374 208 367 207Q367 211 367 220Q367 309 472 309Q568 309 568 227Q568 184 535 166Q513 153 513 153Q516 150 519 149Q533 142 546 134Q568 118 568 78ZM417 621L246 -119H180L351 621H417Z"  />
<glyph unicode="&#x2212;" horiz-adv-x="277" d="M277 231H4V262H277V231Z"  />
<glyph unicode="&#x2219;" horiz-adv-x="231" d="M172 309Q172 287 155 272T112 257Q87 257 70 272T52 309Q52 331 69 346T112 361Q137 361 154 346T172 309Z"  />
<glyph unicode="&#xE802;" horiz-adv-x="323" d="M264 -191H182V360Q182 407 166 422T102 438H-10V505H118Q264 505 264 366V-191ZM124 277Q124 239 84 239Q43 239 43 277Q43 314 84 314Q100 314 112 304T124 277ZM124 162Q124 124 84 124Q43 124 43 162Q43 199 84 199Q100 199 112 189T124 162Z"  />
<glyph unicode="&#xE803;" horiz-adv-x="323" d="M264 -191H182V360Q182 407 166 422T102 438H-10V505H118Q264 505 264 366V-191ZM163 246H87Q95 195 95 150Q95 146 95 138Q94 131 94 127H32Q32 131 32 138Q31 146 31 150Q31 195 39 246H-37V299H163V246Z"  />
<glyph unicode="&#xE804;" horiz-adv-x="354" d="M313 424Q313 393 304 348Q297 311 289 273L242 0H157L229 369Q233 390 233 399Q233 438 182 438H84Q40 438 25 471Q15 492 15 542Q15 551 16 569Q16 587 16 596Q16 667 0 722H83Q97 685 97 620Q97 609 97 587Q96 564 96 553Q96 509 121 505Q121 505 133 505H242Q273 505 293 481T313 424ZM-25 603Q-25 586 -38 575T-68 563Q-85 563 -98 574T-111 603Q-111 620 -98 631T-68 643Q-51 643 -38 632T-25 603Z"  />
<glyph unicode="&#xE805;" horiz-adv-x="354" d="M313 424Q313 393 304 348Q297 311 289 273L242 0H157L229 369Q233 390 233 399Q233 438 182 438H84Q40 438 25 471Q15 492 15 542Q15 551 16 569Q16 587 16 596Q16 667 0 722H83Q97 685 97 620Q97 609 97 587Q96 564 96 553Q96 509 121 505Q121 505 133 505H242Q273 505 293 481T313 424ZM-25 603Q-25 586 -38 575T-68 563Q-85 563 -98 574T-111 603Q-111 620 -98 631T-68 643Q-51 643 -38 632T-25 603ZM160 257Q160 240 147 229T117 217Q100 217 87 228T74 257Q74 274 87 285T117 297Q134 297 147 286T160 257Z"  />
<glyph unicode="&#xFB1F;" horiz-adv-x="385" d="M311 218H229V416Q229 466 221 505H300Q311 482 311 439V218ZM141 218H59V416Q59 466 51 505H130Q141 482 141 439V218ZM300 1H60V54H300V1Z"  />
<glyph unicode="&#xFB20;" horiz-adv-x="469" d="M402 209Q402 111 354 57Q304 0 207 0H63V67H141L61 505H146L221 68Q272 69 299 118Q320 157 320 213V505H402V209Z"  />
<glyph unicode="&#xFB21;" horiz-adv-x="469" d="M409 0H327V346Q327 409 308 425Q292 438 226 438H51V505H244Q329 505 366 477Q409 445 409 363V0ZM134 0H51V320H134V0Z"  />
<glyph unicode="&#xFB22;" horiz-adv-x="411" d="M348 438H306V0H224V438H40V505H348V438Z"  />
<glyph unicode="&#xFB24;" horiz-adv-x="374" d="M316 135Q316 0 164 0H41V67H171Q234 67 234 134V359Q234 413 211 428Q195 438 137 438H41V505H152Q237 505 274 477Q316 444 316 362V135Z"  />
<glyph unicode="&#xFB26;" horiz-adv-x="459" d="M401 0H30V505H251Q329 505 365 470T401 356V0ZM319 67V348Q319 404 303 421T230 438H112V67H319Z"  />
<glyph unicode="&#xFB27;" horiz-adv-x="395" d="M331 0H249V356Q249 438 151 438H35V505H181Q331 505 331 377V0Z"  />
<glyph unicode="&#xFB28;" horiz-adv-x="519" d="M457 0H375V356Q375 406 359 422T291 438H172V68Q172 32 151 11T93 -10Q53 -10 42 0V66H46Q58 58 67 58Q90 58 90 118V505H304Q388 505 422 471T457 353V0Z"  />
<glyph unicode="&#xFB2A;" horiz-adv-x="528" d="M299 135H217V505H299V135ZM460 209Q460 144 448 107Q413 0 235 0H82L53 505H135L158 67H218Q313 67 343 90Q378 118 378 210V505H460V209ZM464 603Q464 586 451 575T421 563Q404 563 391 574T378 603Q378 620 391 631T421 643Q438 643 451 632T464 603Z"  />
<glyph unicode="&#xFB2B;" horiz-adv-x="528" d="M299 135H217V505H299V135ZM460 209Q460 144 448 107Q413 0 235 0H82L53 505H135L158 67H218Q313 67 343 90Q378 118 378 210V505H460V209ZM134 603Q134 586 121 575T91 563Q74 563 61 574T48 603Q48 620 61 631T91 643Q108 643 121 632T134 603Z"  />
<glyph unicode="&#xFB2C;" horiz-adv-x="528" d="M299 135H217V505H299V135ZM460 209Q460 144 448 107Q413 0 235 0H82L53 505H135L158 67H218Q313 67 343 90Q378 118 378 210V505H460V209ZM464 603Q464 586 451 575T421 563Q404 563 391 574T378 603Q378 620 391 631T421 643Q438 643 451 632T464 603ZM373 261Q373 231 341 231Q309 231 309 261Q309 290 341 290Q373 290 373 261Z"  />
<glyph unicode="&#xFB2D;" horiz-adv-x="528" d="M299 135H217V505H299V135ZM460 209Q460 144 448 107Q413 0 235 0H82L53 505H135L158 67H218Q313 67 343 90Q378 118 378 210V505H460V209ZM134 603Q134 586 121 575T91 563Q74 563 61 574T48 603Q48 620 61 631T91 643Q108 643 121 632T134 603ZM373 261Q373 231 341 231Q309 231 309 261Q309 290 341 290Q373 290 373 261Z"  />
<glyph unicode="&#xFB2E;" horiz-adv-x="438" d="M394 0H302L158 276Q149 269 140 195Q133 132 133 103Q133 86 134 52T136 0H53Q52 30 52 91Q52 278 106 374L40 505H130L246 282Q255 289 271 327Q284 361 289 379Q296 407 296 505H379V502Q379 412 369 366Q360 325 339 278Q315 224 290 202L394 0ZM315 -139H115V-86H315V-139Z"  />
<glyph unicode="&#xFB2F;" horiz-adv-x="438" d="M394 0H302L158 276Q149 269 140 195Q133 132 133 103Q133 86 134 52T136 0H53Q52 30 52 91Q52 278 106 374L40 505H130L246 282Q255 289 271 327Q284 361 289 379Q296 407 296 505H379V502Q379 412 369 366Q360 325 339 278Q315 224 290 202L394 0ZM315 -139H239Q247 -190 247 -235Q247 -239 247 -247Q246 -254 246 -258H184Q184 -254 184 -247Q183 -239 183 -235Q183 -190 191 -139H115V-86H315V-139Z"  />
<glyph unicode="&#xFB30;" horiz-adv-x="438" d="M394 0H302L158 276Q149 269 140 195Q133 132 133 103Q133 86 134 52T136 0H53Q52 30 52 91Q52 278 106 374L40 505H130L246 282Q255 289 271 327Q284 361 289 379Q296 407 296 505H379V502Q379 412 369 366Q360 325 339 278Q315 224 290 202L394 0ZM245 -117Q245 -155 205 -155Q164 -155 164 -117Q164 -80 205 -80Q221 -80 233 -90T245 -117Z"  />
<glyph unicode="&#xFB31;" horiz-adv-x="413" d="M354 0H48V67H157Q202 67 224 92Q242 113 249 161Q254 195 254 252Q254 356 241 392T183 435Q165 438 49 438V505H148Q223 505 259 485Q310 456 327 377Q336 334 336 244Q336 187 330 159Q319 111 285 90Q255 72 255 68Q255 65 258 65Q273 68 304 68Q313 68 329 68Q346 67 354 67V0ZM180 257Q180 240 167 229T137 217Q120 217 107 228T94 257Q94 274 107 285T137 297Q154 297 167 286T180 257Z"  />
<glyph unicode="&#xFB32;" horiz-adv-x="315" d="M278 0H201Q191 6 190 37Q188 64 180 64Q175 64 166 45Q154 21 143 10Q124 -9 95 -9Q58 -9 48 0V69Q69 61 88 61Q132 61 156 97Q177 129 177 175V389Q177 438 138 438H48V505H145Q220 505 243 464Q259 436 259 354V100Q259 50 278 0ZM150 257Q150 240 137 229T107 217Q90 217 77 228T64 257Q64 274 77 285T107 297Q124 297 137 286T150 257Z"  />
<glyph unicode="&#xFB33;" horiz-adv-x="411" d="M348 438H306V0H224V438H40V505H348V438ZM180 257Q180 240 167 229T137 217Q120 217 107 228T94 257Q94 274 107 285T137 297Q154 297 167 286T180 257Z"  />
<glyph unicode="&#xFB34;" horiz-adv-x="469" d="M409 0H327V346Q327 409 308 425Q292 438 226 438H51V505H244Q329 505 366 477Q409 445 409 363V0ZM134 0H51V320H134V0ZM271 257Q271 240 258 229T228 217Q211 217 198 228T185 257Q185 274 198 285T228 297Q245 297 258 286T271 257Z"  />
<glyph unicode="&#xFB35;" horiz-adv-x="209" d="M141 0H60Q60 12 61 35Q61 58 61 69V303Q61 463 51 505H130Q141 492 141 429V0ZM31 257Q31 240 18 229T-12 217Q-29 217 -42 228T-55 257Q-55 274 -42 285T-12 297Q5 297 18 286T31 257Z"  />
<glyph unicode="&#xFB36;" horiz-adv-x="260" d="M211 438Q211 438 183 427Q166 420 166 401V0H84V354Q84 413 114 430Q122 434 122 436Q122 438 112 438H42V505H211V438ZM61 257Q61 240 48 229T18 217Q1 217 -12 228T-25 257Q-25 274 -12 285T18 297Q35 297 48 286T61 257Z"  />
<glyph unicode="&#xFB38;" horiz-adv-x="487" d="M419 198Q419 101 372 47Q322 -10 226 -10Q111 -10 73 65Q47 116 47 244V505H129V189Q129 84 170 65Q187 57 226 57Q337 57 337 205V342Q337 448 264 448Q215 448 188 406H185V478Q185 482 194 491Q224 515 278 515Q361 515 394 461Q419 420 419 331V198ZM280 257Q280 240 267 229T237 217Q220 217 207 228T194 257Q194 274 207 285T237 297Q254 297 267 286T280 257Z"  />
<glyph unicode="&#xFB39;" horiz-adv-x="215" d="M141 218H59V416Q59 466 51 505H130Q141 482 141 439V218ZM41 277Q41 260 28 249T-2 237Q-19 237 -32 248T-45 277Q-45 294 -32 305T-2 317Q15 317 28 306T41 277Z"  />
<glyph unicode="&#xFB3A;" horiz-adv-x="323" d="M264 -191H182V360Q182 407 166 422T102 438H-10V505H118Q264 505 264 366V-191ZM120 257Q120 240 107 229T77 217Q60 217 47 228T34 257Q34 274 47 285T77 297Q94 297 107 286T120 257Z"  />
<glyph unicode="&#xFB3B;" horiz-adv-x="374" d="M316 135Q316 0 164 0H41V67H171Q234 67 234 134V359Q234 413 211 428Q195 438 137 438H41V505H152Q237 505 274 477Q316 444 316 362V135ZM180 257Q180 240 167 229T137 217Q120 217 107 228T94 257Q94 274 107 285T137 297Q154 297 167 286T180 257Z"  />
<glyph unicode="&#xFB3C;" horiz-adv-x="354" d="M313 424Q313 393 304 348Q297 311 289 273L242 0H157L229 369Q233 390 233 399Q233 438 182 438H84Q40 438 25 471Q15 492 15 542Q15 551 16 569Q16 587 16 596Q16 667 0 722H83Q97 685 97 620Q97 609 97 587Q96 564 96 553Q96 509 121 505Q121 505 133 505H242Q273 505 293 481T313 424ZM160 257Q160 240 147 229T117 217Q100 217 87 228T74 257Q74 274 87 285T117 297Q134 297 147 286T160 257Z"  />
<glyph unicode="&#xFB3E;" horiz-adv-x="514" d="M444 142Q444 85 420 42Q391 -10 338 -10H324Q266 -10 241 13V77Q270 59 300 59Q362 59 362 156V337Q362 448 277 448Q215 448 183 405Q155 367 155 303V0H73V378Q73 444 57 505H143Q156 476 156 434L160 432Q188 476 219 495T301 515Q382 515 415 470Q444 431 444 347V142ZM300 257Q300 240 287 229T257 217Q240 217 227 228T214 257Q214 274 227 285T257 297Q274 297 287 286T300 257Z"  />
<glyph unicode="&#xFB40;" horiz-adv-x="284" d="M232 0H41V67H149L150 383Q150 423 137 432Q128 438 85 438H48V505H116Q177 505 204 481T232 396V0ZM120 257Q120 240 107 229T77 217Q60 217 47 228T34 257Q34 274 47 285T77 297Q94 297 107 286T120 257Z"  />
<glyph unicode="&#xFB41;" horiz-adv-x="459" d="M403 176Q403 0 228 0H63L34 505H403V176ZM321 181V438H119L141 67H186Q256 67 286 88Q321 113 321 181ZM266 257Q266 240 253 229T223 217Q206 217 193 228T180 257Q180 274 193 285T223 297Q240 297 253 286T266 257Z"  />
<glyph unicode="&#xFB44;" horiz-adv-x="435" d="M389 288Q389 142 361 86Q319 0 188 0H50V67H178Q307 67 307 214Q307 228 307 257Q306 285 306 300Q306 378 295 403Q276 448 209 448Q114 448 114 327Q114 267 125 217H52Q33 247 33 329Q33 410 82 462T213 515Q321 515 360 452Q389 404 389 288ZM259 257Q259 240 246 229T216 217Q199 217 186 228T173 257Q173 274 186 285T216 297Q233 297 246 286T259 257Z"  />
<glyph unicode="&#xFB46;" horiz-adv-x="477" d="M406 0H63V67H309V70Q126 287 51 505H150Q190 373 255 283Q307 367 320 505H406Q386 316 305 210L406 69V0ZM190 148Q190 131 177 120T147 108Q130 108 117 119T104 148Q104 165 117 176T147 188Q164 188 177 177T190 148Z"  />
<glyph unicode="&#xFB47;" horiz-adv-x="492" d="M418 239Q418 132 398 78Q365 -9 277 -9Q245 -9 194 8V76Q234 58 263 58Q336 58 336 201V438H48V505H418V239ZM143 -191H61V320H143V-191ZM280 257Q280 240 267 229T237 217Q220 217 207 228T194 257Q194 274 207 285T237 297Q254 297 267 286T280 257Z"  />
<glyph unicode="&#xFB48;" horiz-adv-x="395" d="M331 0H249V356Q249 438 151 438H35V505H181Q331 505 331 377V0ZM180 257Q180 240 167 229T137 217Q120 217 107 228T94 257Q94 274 107 285T137 297Q154 297 167 286T180 257Z"  />
<glyph unicode="&#xFB49;" horiz-adv-x="528" d="M299 135H217V505H299V135ZM460 209Q460 144 448 107Q413 0 235 0H82L53 505H135L158 67H218Q313 67 343 90Q378 118 378 210V505H460V209ZM373 261Q373 231 341 231Q309 231 309 261Q309 290 341 290Q373 290 373 261Z"  />
<glyph unicode="&#xFB4A;" horiz-adv-x="519" d="M457 0H375V356Q375 406 359 422T291 438H172V68Q172 32 151 11T93 -10Q53 -10 42 0V66H46Q58 58 67 58Q90 58 90 118V505H304Q388 505 422 471T457 353V0ZM320 257Q320 240 307 229T277 217Q260 217 247 228T234 257Q234 274 247 285T277 297Q294 297 307 286T320 257Z"  />
<glyph unicode="&#xFB4B;" horiz-adv-x="209" d="M141 0H60Q60 12 61 35Q61 58 61 69V303Q61 463 51 505H130Q141 492 141 429V0ZM134 603Q134 586 121 575T91 563Q74 563 61 574T48 603Q48 620 61 631T91 643Q108 643 121 632T134 603Z"  />
<glyph unicode="&#xFB4C;" horiz-adv-x="413" d="M354 0H48V67H157Q202 67 224 92Q242 113 249 161Q254 195 254 252Q254 356 241 392T183 435Q165 438 49 438V505H148Q223 505 259 485Q310 456 327 377Q336 334 336 244Q336 187 330 159Q319 111 285 90Q255 72 255 68Q255 65 258 65Q273 68 304 68Q313 68 329 68Q346 67 354 67V0ZM295 561H95V614H295V561Z"  />
<glyph unicode="&#xFB4D;" horiz-adv-x="374" d="M316 135Q316 0 164 0H41V67H171Q234 67 234 134V359Q234 413 211 428Q195 438 137 438H41V505H152Q237 505 274 477Q316 444 316 362V135ZM276 561H76V614H276V561Z"  />
<glyph unicode="&#xFB4E;" horiz-adv-x="435" d="M389 288Q389 142 361 86Q319 0 188 0H50V67H178Q307 67 307 214Q307 228 307 257Q306 285 306 300Q306 378 295 403Q276 448 209 448Q114 448 114 327Q114 267 125 217H52Q33 247 33 329Q33 410 82 462T213 515Q321 515 360 452Q389 404 389 288ZM325 561H125V614H325V561Z"  />
<glyph unicode="&#xFB4F;" horiz-adv-x="470" d="M435 62Q435 22 399 -8L181 254Q137 215 137 189Q137 174 162 133L201 69L182 0H62V33L99 45Q74 135 74 156Q74 217 159 281L100 352Q45 352 28 377Q14 396 14 455Q14 529 40 573Q36 579 7 597Q-14 611 -14 629Q-14 683 23 703V699Q23 686 70 665Q102 650 102 629Q102 620 82 576T62 503Q62 458 115 458H129L298 255Q300 275 356 356Q345 355 345 355Q276 355 276 440Q276 484 316 496Q324 458 347 458H383Q432 458 432 390Q432 383 427 357H396L354 287Q337 259 326 221L406 124Q435 89 435 62Z"  />


</font>
</defs>
</svg>
