<?xml  version="1.0" encoding="UTF-8"?>
<!DOCTYPE svg PUBLIC "-//W3C//DTD SVG 1.0//EN" "http://www.w3.org/TR/2001/REC-SVG-20010904/DTD/svg10.dtd" >
<svg xmlns="http://www.w3.org/2000/svg" >
<metadata>
<version>1.0</version>
<id><![CDATA[Oron W26 Condensed Light]]></id>
<vendor>Monotype Imaging Inc.</vendor>
<credits>
<name>Fonts.com WebFonts</name>
<URL>http://webfonts.fonts.com</URL>
<role>Home of the Web fonts</role>
</credits>
<license>
<URL>http://webfonts.fonts.com/Legal</URL>
</license>
<copyright><![CDATA[Masterfont Studio Rosenberg 2003 (C) version 1.0]]></copyright>
<trademark></trademark>
<licensee>
<name></name>
</licensee>
</metadata>
<defs >
<font horiz-adv-x="443" id="22544cf4-9679-4f0e-a8db-d8028ce1fcc9">
<font-face font-family="" panose-1="0 0 4 0 0 0 0 0 0 0" ascent="800" descent="-339" units-per-em="1000" alphabetic="0">
</font-face>
<missing-glyph horiz-adv-x="500" d="M63 0V800H438V0H63ZM125 63H375V738H125V63Z"  />

<glyph unicode="&#xA;" />
<glyph unicode="&#xD;" />
<glyph unicode=" " horiz-adv-x="278" />
<glyph unicode="!" horiz-adv-x="298" d="M134 643L124 169H79L69 643H134ZM139 0H65V76H139V0Z"  />
<glyph unicode="&quot;" horiz-adv-x="315" d="M261 505L196 294H152L188 505H261ZM135 505L70 294H26L62 505H135Z"  />
<glyph unicode="#" horiz-adv-x="569" d="M388 387L380 325H317L298 191H361L352 129H289L271 0H219L237 129H156L138 0H85L103 129H40L49 191H112L132 325H68L76 387H140L157 505H209L192 387H273L290 505H342L325 387H388ZM265 325H184L164 191H245L265 325Z"  />
<glyph unicode="$" horiz-adv-x="480" d="M399 152Q399 91 367 48Q333 2 275 -11V-79H212V-15Q145 -11 109 34T74 147H137Q142 51 239 51Q282 51 308 76T335 143Q335 197 271 221Q211 242 151 262Q87 297 87 377Q87 436 120 474T212 520V582H275V519Q328 510 358 467Q385 428 387 371H323Q317 454 232 454Q196 454 173 435T150 381Q150 336 215 314Q329 273 334 270Q399 232 399 152Z"  />
<glyph unicode="%" horiz-adv-x="709" d="M521 120Q521 -16 420 -16Q320 -16 320 120Q320 255 420 255Q521 255 521 120ZM447 565L140 -60H86L392 565H447ZM205 380Q205 245 105 245Q5 245 5 380Q5 516 105 516Q205 516 205 380ZM467 120Q467 210 420 210Q374 210 374 120Q374 30 420 30Q467 30 467 120ZM152 380Q152 471 105 471Q58 471 58 380Q58 291 105 291Q152 291 152 380Z"  />
<glyph unicode="&apos;" horiz-adv-x="197" d="M150 505L88 294H48L81 505H150Z"  />
<glyph unicode="(" horiz-adv-x="320" d="M197 -50H151Q92 106 92 254Q92 413 149 558H197Q152 453 152 254Q152 86 197 -50Z"  />
<glyph unicode=")" horiz-adv-x="320" d="M197 254Q197 106 138 -50H92Q137 86 137 254Q137 453 92 558H140Q197 413 197 254Z"  />
<glyph unicode="*" horiz-adv-x="425" d="M289 539Q281 535 195 496Q185 501 181 519Q189 528 259 601Q268 591 280 573Q284 564 289 539ZM189 652Q177 572 172 532Q166 526 158 526Q152 526 147 530Q139 585 129 652Q153 660 159 660Q165 660 189 652ZM288 434Q283 409 280 401T259 372Q241 390 182 453Q182 464 193 477Q218 467 288 434ZM136 519Q133 506 127 496Q120 497 28 538Q34 566 37 573T58 601Q84 574 136 519ZM189 321Q162 313 159 313Q149 313 129 321Q141 401 146 442Q150 445 159 445Q168 445 173 443Q173 437 178 401L189 321ZM137 453L59 372Q40 395 38 400T29 433Q38 438 125 479Q129 471 137 453Z"  />
<glyph unicode="+" horiz-adv-x="581" d="M380 219H245V52H189V219H55V285H189V452H245V285H380V219Z"  />
<glyph unicode="&#x2c;" horiz-adv-x="186" d="M125 76L65 -105H12L52 76H125Z"  />
<glyph unicode="-" horiz-adv-x="260" d="M182 221H21V277H182V221Z"  />
<glyph unicode="." horiz-adv-x="205" d="M125 0H51V76H125V0Z"  />
<glyph unicode="/" horiz-adv-x="342" d="M210 565L54 -60H2L158 565H210Z"  />
<glyph unicode="0" horiz-adv-x="422" d="M387 252Q387 151 350 80Q303 -10 211 -10Q119 -10 72 80Q34 152 34 253Q34 353 72 425Q120 515 211 515Q303 515 350 425Q387 353 387 252ZM327 251Q327 398 258 449Q234 467 211 467Q191 467 168 452Q94 403 94 252Q94 100 170 51Q192 37 211 37Q235 37 258 54Q324 102 327 251Z"  />
<glyph unicode="1" horiz-adv-x="422" d="M283 0H224V441Q205 417 157 396T77 373V425Q110 426 161 452T228 505H283V0Z"  />
<glyph unicode="2" horiz-adv-x="422" d="M361 365Q361 294 317 232Q284 187 215 134Q158 91 101 48H353V0H28V56Q151 147 154 149Q230 210 263 257Q300 310 300 365Q300 409 271 438T197 467Q150 467 120 438T90 362Q90 345 94 332H32Q29 347 29 361Q29 434 78 476Q124 515 198 515Q266 515 313 475Q361 432 361 365Z"  />
<glyph unicode="3" horiz-adv-x="422" d="M377 134Q377 62 318 23Q268 -10 192 -10Q65 -10 26 86Q13 118 13 148H80Q80 99 111 68T192 37Q312 37 312 141Q312 251 178 251V300Q216 300 252 319Q294 341 294 376Q294 467 192 467Q151 467 126 444T100 380Q100 361 105 349H43Q38 367 38 383Q38 448 84 483Q126 515 192 515Q353 515 353 378Q353 327 313 300Q292 287 270 275Q272 273 288 268Q377 239 377 134Z"  />
<glyph unicode="4" horiz-adv-x="422" d="M371 145H293V0H233V145H19V207L217 505H293V206H371V145ZM232 206V432L76 206H232Z"  />
<glyph unicode="5" horiz-adv-x="422" d="M369 171Q369 98 318 44T194 -10Q121 -10 73 28Q21 68 21 140H82Q82 94 116 65Q147 38 195 38Q242 38 276 82Q307 122 307 171Q307 227 278 265T194 304Q135 304 98 255Q89 243 89 234H26L40 505H345V456H98Q97 428 93 373T87 290Q94 316 133 335Q167 352 197 352Q279 352 324 303T369 171Z"  />
<glyph unicode="6" horiz-adv-x="422" d="M368 160Q368 87 326 40Q283 -10 211 -10Q115 -10 64 76Q22 148 22 251Q22 354 62 426Q111 515 206 515Q313 515 354 411Q368 375 368 344H308Q307 392 282 427Q254 467 208 467Q140 467 106 384Q80 324 78 242Q98 277 134 299T210 321Q273 321 320 272T368 160ZM309 157Q309 206 281 239T203 273Q154 273 125 239T96 155Q96 105 124 72T202 39Q251 39 280 73T309 157Z"  />
<glyph unicode="7" horiz-adv-x="422" d="M351 445L206 0H141L295 456H40V505H351V445Z"  />
<glyph unicode="8" horiz-adv-x="422" d="M159 301H239H159ZM159 253H233H159ZM377 140Q377 65 322 25Q273 -10 195 -10Q117 -10 68 26Q13 67 13 142Q13 241 116 276Q38 306 38 381Q38 447 85 483Q127 515 195 515Q263 515 305 483Q352 448 352 382Q352 305 273 276Q377 241 377 140ZM292 381Q292 421 264 444T195 467Q153 467 126 445T98 380Q98 346 130 323Q159 302 195 302Q231 302 261 324T292 381ZM311 135Q311 186 279 220T195 254Q146 254 113 220T79 136Q79 90 115 63Q148 38 195 38Q244 38 277 63T311 135Z"  />
<glyph unicode="9" horiz-adv-x="422" d="M368 254Q368 151 328 79Q279 -10 184 -10Q77 -10 36 94Q22 130 22 161H82Q83 113 108 78Q136 38 182 38Q250 38 285 121Q310 181 312 263Q292 228 256 206T180 184Q117 184 70 233T22 345Q22 418 64 466T179 515Q275 515 326 429Q368 357 368 254ZM294 350Q294 400 266 433T188 466Q139 466 110 432T81 348Q81 299 109 266T187 232Q236 232 265 266T294 350Z"  />
<glyph unicode=":" horiz-adv-x="206" d="M114 429H40V505H114V429ZM114 0H40V76H114V0Z"  />
<glyph unicode=";" horiz-adv-x="205" d="M126 429H52V505H126V429ZM131 76L71 -105H18L58 76H131Z"  />
<glyph unicode="&lt;" horiz-adv-x="631" d="M471 -16L64 223V284L471 509V431L146 252L471 64V-16Z"  />
<glyph unicode="=" horiz-adv-x="581" d="M379 293H55V351H379V293ZM379 149H55V211H379V149Z"  />
<glyph unicode="&gt;" horiz-adv-x="631" d="M470 223L63 -16V64L388 252L63 431V509L470 284V223Z"  />
<glyph unicode="?" horiz-adv-x="541" d="M369 464Q369 359 265 286Q226 259 220 249Q212 235 212 192V140H156V197Q156 240 163 260Q172 289 201 310Q266 357 278 371Q307 405 307 464Q307 607 197 607Q145 607 116 562Q92 524 92 469Q92 415 106 387H54Q30 412 30 467Q30 545 74 598Q121 655 197 655Q280 655 326 600Q369 548 369 464ZM221 0H147V76H221V0Z"  />
<glyph unicode="@" horiz-adv-x="759" d="M699 350Q699 258 647 201Q591 140 495 140Q404 140 390 195Q332 146 282 146Q242 146 217 172Q187 202 187 262Q187 349 234 419Q287 496 366 496Q422 496 450 462L456 484H533L470 229Q468 221 468 216Q468 178 517 178Q567 178 608 216Q661 265 661 351Q661 449 587 517Q508 590 383 590Q254 590 168 512T81 315Q81 200 167 123T382 45Q486 45 568 99Q577 103 581 103Q598 103 598 87Q598 77 589 70Q511 10 382 10Q235 10 139 96T43 315Q43 452 138 538T383 625Q524 625 613 543Q699 464 699 350ZM440 426Q425 462 377 462Q334 462 299 391Q265 324 265 250Q265 184 303 184Q354 184 388 234L440 426Z"  />
<glyph unicode="A" horiz-adv-x="681" d="M669 0H358V24H462L399 198H198L136 24H256V0H18V24H108L334 654H352L578 24H669V0ZM390 222L298 475L207 222H390Z"  />
<glyph unicode="B" horiz-adv-x="616" d="M568 176Q568 94 507 47T338 0H25V24H114V621H25V645H330Q418 645 479 606Q545 563 545 493Q545 383 406 350Q470 336 514 295Q568 246 568 176ZM437 485V501Q437 621 330 621H223V360H330Q382 360 408 385Q437 415 437 485ZM457 164V187Q457 336 330 336H223V24H330Q399 24 429 60Q457 93 457 164Z"  />
<glyph unicode="C" horiz-adv-x="631" d="M598 4Q598 -7 587 -7Q581 -7 575 -1L523 51Q453 -18 351 -18Q231 -18 135 82Q35 185 35 323Q35 451 126 551Q221 656 356 656Q450 656 518 607L555 642Q565 651 572 651Q584 651 584 632V478Q584 462 575 462Q568 462 565 470L563 475Q537 546 486 586Q431 630 356 630Q171 630 171 374V268Q171 8 351 8Q490 8 574 188Q580 201 588 201Q598 201 598 187V4Z"  />
<glyph unicode="D" horiz-adv-x="682" d="M664 330Q664 180 575 90T337 0H28V24H119V621H28V645H337Q481 645 572 558T664 330ZM541 306V354Q541 496 479 563Q426 621 335 621H228V24H335Q541 24 541 306Z"  />
<glyph unicode="E" horiz-adv-x="591" d="M553 35Q553 0 519 0H31V24H118V621H29V645H494Q525 645 525 618V474Q525 457 513 457Q501 457 500 475Q497 528 472 569Q439 621 379 621H227V352H304Q342 352 358 377Q367 390 377 435Q381 452 389 452Q400 452 400 436V244Q400 227 389 227Q381 227 377 244Q373 267 357 306Q342 328 304 328H227V24H388Q452 24 484 67Q507 99 525 181Q530 204 541 204Q553 204 553 177V35Z"  />
<glyph unicode="F" horiz-adv-x="564" d="M529 474Q529 457 517 457Q505 457 504 475Q501 528 476 569Q443 621 383 621H231V352H308Q346 352 362 377Q371 390 381 435Q385 452 393 452Q404 452 404 436V244Q404 227 393 227Q385 227 381 244Q377 267 361 306Q346 328 308 328H231V24H320V0H36V24H122V621H34V645H499Q529 645 529 618V474Z"  />
<glyph unicode="G" horiz-adv-x="689" d="M686 217H597V189Q597 86 523 31Q458 -18 350 -18Q224 -18 129 82T33 319Q33 456 127 556T353 656Q451 656 517 604L558 642Q568 651 576 651Q589 651 589 636V457Q589 444 578 444Q568 444 564 456Q504 630 353 630Q268 630 220 571Q168 507 168 379V263Q168 138 216 73T352 8Q482 8 482 132V217H371V241H686V217Z"  />
<glyph unicode="H" horiz-adv-x="706" d="M688 0H402V24H491V330H227V24H316V0H29V24H118V621H29V645H316V621H227V355H491V621H402V645H688V621H600V24H688V0Z"  />
<glyph unicode="I" horiz-adv-x="366" d="M326 0H40V24H128V621H40V645H326V621H237V24H326V0Z"  />
<glyph unicode="J" horiz-adv-x="381" d="M371 621H294V56Q294 -97 126 -97Q74 -97 39 -66Q8 -39 8 -8Q8 46 59 46Q81 46 94 32T107 -1Q107 -47 64 -53Q85 -71 119 -71Q156 -71 170 -51T185 20V621H90V645H371V621Z"  />
<glyph unicode="K" horiz-adv-x="692" d="M685 0H385V24H470L219 353L510 621H428V645H640V621H550L313 403L601 24H685V0ZM304 0H31V24H113V621H31V645H304V621H222V24H304V0Z"  />
<glyph unicode="L" horiz-adv-x="617" d="M596 35Q596 0 561 0H26V24H115V621H26V645H322V621H224V24H431Q495 24 526 67Q549 98 567 181Q572 204 583 204Q596 204 596 177V35Z"  />
<glyph unicode="M" horiz-adv-x="821" d="M793 0H520V24H602V589L380 0H360L138 585V24H221V0H31V24H113V621H31V645H229L415 167L595 645H793V621H711V24H793V0Z"  />
<glyph unicode="N" horiz-adv-x="677" d="M660 621H571V-8H529L137 583V24H226V0H23V24H112V621H23V645H233L546 175V621H457V645H660V621Z"  />
<glyph unicode="O" horiz-adv-x="712" d="M684 320Q684 187 589 86Q492 -18 360 -18Q228 -18 132 86Q37 187 37 320Q37 453 132 554T360 656Q492 656 588 555T684 320ZM549 272V367Q549 512 500 574Q455 630 360 630Q266 630 221 572Q172 508 172 367V272Q172 8 360 8Q549 8 549 272Z"  />
<glyph unicode="P" horiz-adv-x="558" d="M534 469Q534 390 476 342T325 293H223V24H311V0H25V24H114V621H25V645H315Q415 645 474 597T534 469ZM433 452V486Q433 621 315 621H223V317H325Q433 317 433 452Z"  />
<glyph unicode="Q" horiz-adv-x="701" d="M684 319Q684 205 611 110T429 -12V-29Q429 -197 589 -197Q603 -197 603 -208Q603 -218 589 -218Q446 -218 385 -188Q304 -148 294 -33L292 -12Q183 14 110 109T37 319Q37 452 132 554T360 656Q492 656 588 554T684 319ZM549 271V366Q549 511 500 574Q455 630 360 630Q266 630 221 571Q172 508 172 366V271Q172 6 360 6Q549 6 549 271Z"  />
<glyph unicode="R" horiz-adv-x="647" d="M645 34Q645 29 641 25Q630 14 597 3Q561 -8 528 -8Q476 -8 452 20Q430 44 424 97Q422 130 417 196Q402 325 307 325H226V24H315V0H28V24H117V621H28V645H323Q417 645 478 603Q543 559 543 484Q543 365 393 332Q489 307 519 251Q539 213 542 109Q543 60 548 47Q556 26 585 26Q609 26 629 39Q633 41 638 41Q645 41 645 34ZM436 467V501Q436 621 323 621H226V349H323Q436 349 436 467Z"  />
<glyph unicode="S" horiz-adv-x="558" d="M524 205Q524 110 456 46T287 -18Q194 -18 118 44L84 -1Q75 -13 67 -13Q53 -13 53 4V174Q53 191 65 191Q77 191 81 176Q102 98 162 53Q219 8 293 8Q360 8 407 47Q458 88 458 152Q458 220 401 245Q357 264 311 277Q214 305 209 307Q68 351 68 467Q68 546 126 599Q187 656 286 656Q362 656 434 618L461 650Q470 660 476 660Q487 660 487 646V477Q487 463 475 463Q463 463 461 476Q452 542 411 583Q364 630 286 630Q226 630 185 602Q139 571 139 518Q139 454 201 432Q228 422 385 380Q524 342 524 205Z"  />
<glyph unicode="T" horiz-adv-x="638" d="M617 455H586Q574 533 540 577T460 621H376V24H465V0H179V24H267V621H183Q138 621 104 577T57 455H27L43 625Q45 645 68 645H576Q599 645 601 625L617 455Z"  />
<glyph unicode="U" horiz-adv-x="657" d="M643 621H555V162Q555 74 499 28T343 -18Q248 -18 185 20Q107 68 107 162V621H18V645H304V621H216V162Q216 88 256 48T367 8Q437 8 483 49T529 162V621H440V645H643V621Z"  />
<glyph unicode="V" horiz-adv-x="651" d="M649 621H574L353 -10H329L97 621H7V645H294V621H203L378 149L543 621H456V645H649V621Z"  />
<glyph unicode="W" horiz-adv-x="926" d="M915 621H843L602 -10H582L470 277L361 -10H341L101 621H23V645H680V621H616L532 402L630 141L814 621H728V645H915V621ZM588 621H448L518 439L588 621ZM456 315L341 621H208L390 143L456 315Z"  />
<glyph unicode="X" horiz-adv-x="706" d="M689 0H404V24H484L324 283L148 24H247V0H22V24H114L308 309L115 621H24V645H329V621H239L375 401L523 621H427V645H652V621H558L392 375L608 24H689V0Z"  />
<glyph unicode="Y" horiz-adv-x="682" d="M673 621H588L420 340V24H518V0H212V24H311V316L113 621H28V645H325V621H234L398 367L550 621H454V645H673V621Z"  />
<glyph unicode="Z" horiz-adv-x="524" d="M502 0H31V30L383 621H192Q64 621 59 472H36V645H495V617L139 24H328Q398 24 434 62Q472 104 477 199H502V0Z"  />
<glyph unicode="[" horiz-adv-x="341" d="M197 -51H68V559H197V501H125V5H197V-51Z"  />
<glyph unicode="\" horiz-adv-x="255" d="M208 -10H153L67 519H123L208 -10Z"  />
<glyph unicode="]" horiz-adv-x="341" d="M193 -51H64V5H136V503H64V559H193V-51Z"  />
<glyph unicode="^" horiz-adv-x="381" d="M325 325L303 314L195 521L87 314L64 325L178 606H211L325 325Z"  />
<glyph unicode="_" horiz-adv-x="300" d="M311 -31H-4V-11H311V-31Z"  />
<glyph unicode="`" horiz-adv-x="266" d="M233 457L219 450L44 604H147L233 457Z"  />
<glyph unicode="a" horiz-adv-x="456" d="M453 54Q453 34 430 14Q401 -13 353 -13Q288 -13 274 34Q231 -13 158 -13Q42 -13 42 75Q42 138 108 176Q171 211 268 212V319Q268 369 204 369Q182 369 163 364T143 352Q145 350 152 344Q166 331 166 314Q166 277 123 277Q104 277 93 288T81 316Q81 347 116 367Q156 390 228 390Q366 390 366 301V74Q366 43 370 33Q375 20 390 20Q417 20 434 53Q439 63 445 63Q453 63 453 54ZM268 68V194Q203 190 172 173Q132 151 132 99Q132 20 193 20Q213 20 240 37T268 68Z"  />
<glyph unicode="b" horiz-adv-x="534" d="M510 192Q510 116 451 52T315 -12Q250 -12 204 40V0H28V24H107V621H28V645H204V346Q246 393 312 393Q383 393 444 336Q510 275 510 192ZM394 171V214Q394 309 369 343Q351 369 308 369Q246 369 204 303V83Q246 12 312 12Q394 12 394 171Z"  />
<glyph unicode="c" horiz-adv-x="422" d="M411 105Q411 103 410 100L409 96Q396 56 360 26Q312 -13 242 -13Q159 -13 97 41Q29 99 29 187Q29 274 97 334Q162 390 247 390Q296 390 339 369Q388 344 388 308Q388 264 338 264Q289 264 289 306Q289 324 298 336T307 349Q307 354 293 359Q275 366 245 366Q193 366 170 333Q146 297 146 208V167Q146 77 165 45Q186 10 245 10Q298 10 338 40Q372 66 385 105Q389 117 399 117Q411 117 411 105Z"  />
<glyph unicode="d" horiz-adv-x="534" d="M513 0H337V41Q291 -13 227 -13Q159 -13 97 48Q32 112 32 191Q32 266 93 329T230 393Q298 393 337 350V621H259V645H435V24H513V0ZM337 82V301Q295 369 234 369Q187 369 168 336T148 215V168Q148 79 169 43Q188 11 231 11Q291 11 337 82Z"  />
<glyph unicode="e" horiz-adv-x="447" d="M414 117Q414 110 411 102Q391 52 348 21Q298 -13 230 -13Q144 -13 84 49Q28 108 28 185Q28 262 85 324Q144 390 226 390Q315 390 367 327Q406 281 409 233Q410 216 388 216H145V124Q145 10 232 10Q341 10 390 116Q396 128 404 128Q414 128 414 117ZM303 279Q303 366 227 366Q145 366 145 273V240H293Q303 240 303 279Z"  />
<glyph unicode="f" horiz-adv-x="352" d="M340 585Q340 547 303 547Q263 547 263 583Q263 607 286 617Q286 628 244 628Q195 628 195 561V380H278V356H195V24H272V0H20V24H97V356H21V380H97V416Q97 524 118 569Q157 652 242 652Q284 652 312 632T340 585Z"  />
<glyph unicode="g" horiz-adv-x="439" d="M433 371Q433 339 398 339Q360 339 360 370Q360 372 361 377Q347 369 331 352Q377 312 377 255Q377 208 340 169Q292 119 207 119Q172 119 148 126Q68 106 68 66Q68 30 129 30H295Q354 30 388 1Q424 -31 424 -90Q424 -166 366 -209T220 -253Q31 -253 31 -144Q31 -75 109 -43Q33 -24 33 49Q33 114 114 139Q37 180 37 255Q37 310 81 348Q128 390 207 390Q277 390 312 366Q351 405 390 405Q433 405 433 371ZM275 238V270Q275 325 258 347Q243 366 207 366Q171 366 156 347Q139 325 139 270V238Q139 188 153 167Q168 143 207 143Q246 143 261 167Q275 188 275 238ZM377 -129Q377 -96 351 -72T278 -47H147Q130 -47 111 -69Q89 -94 89 -126Q89 -229 224 -229Q284 -229 327 -205Q377 -178 377 -129Z"  />
<glyph unicode="h" horiz-adv-x="555" d="M539 0H298V24H369V291Q369 360 312 360Q265 360 229 322Q196 288 196 256V24H268V0H26V24H99V621H26V645H196V325Q244 393 344 393Q467 393 467 302V24H539V0Z"  />
<glyph unicode="i" horiz-adv-x="303" d="M216 550Q216 528 199 513T158 497Q134 497 117 512T100 550Q100 573 117 588T158 604Q182 604 199 589T216 550ZM285 0H33V24H110V356H33V380H207V24H285V0Z"  />
<glyph unicode="j" horiz-adv-x="282" d="M228 550Q228 527 211 512T170 496Q146 496 129 511T112 550Q112 573 129 588T170 604Q194 604 211 589T228 550ZM225 -28Q225 -133 184 -192T70 -252Q33 -252 6 -234T-21 -187Q-21 -167 -8 -153T28 -138Q50 -138 62 -152T75 -184Q75 -212 53 -226Q57 -228 69 -228Q92 -228 109 -212T127 -164V355H44V379H225V-28Z"  />
<glyph unicode="k" horiz-adv-x="556" d="M549 0H291V24H359L223 202H207V24H280V0H27V24H110V621H27V645H207V226H230L373 356H292V380H494V356H410L294 249L475 24H549V0Z"  />
<glyph unicode="l" horiz-adv-x="294" d="M273 0H32V24H104V621H32V645H201V24H273V0Z"  />
<glyph unicode="m" horiz-adv-x="785" d="M766 0H536V24H601V287Q601 353 553 353Q510 353 476 314Q446 280 446 248V24H513V0H282V24H349V287Q349 316 344 328Q334 353 300 353Q262 353 226 315Q194 281 194 256V24H260V0H29V24H96V353H29V377H194V316Q244 385 344 385Q432 385 445 314Q493 385 596 385Q699 385 699 297V24H766V0Z"  />
<glyph unicode="n" horiz-adv-x="547" d="M528 0H286V24H358V287Q358 353 305 353Q268 353 235 319T202 252V24H274V0H33V24H105V353H33V376H202V316Q250 384 343 384Q456 384 456 293V24H528V0Z"  />
<glyph unicode="o" horiz-adv-x="460" d="M441 188Q441 117 385 55Q323 -13 234 -13Q145 -13 82 55Q25 117 25 188Q25 259 82 321Q145 390 234 390Q323 390 385 321Q441 259 441 188ZM325 168V209Q325 295 309 327Q289 366 234 366Q179 366 158 327Q141 294 141 209V168Q141 80 158 47Q178 10 234 10Q290 10 309 47Q325 79 325 168Z"  />
<glyph unicode="p" horiz-adv-x="515" d="M494 187Q494 105 433 44T295 -17Q228 -17 187 29V-233H254V-257H22V-233H89V352H22V377H187V336Q233 390 297 390Q370 390 432 329T494 187ZM378 167V210Q378 304 352 341Q333 366 296 366Q258 366 223 337T187 275V91Q187 64 220 37T293 9Q337 9 355 36Q378 70 378 167Z"  />
<glyph unicode="q" horiz-adv-x="524" d="M507 -257H276V-233H343V30Q300 -17 233 -17Q158 -17 96 45T34 187Q34 265 95 326T231 387Q299 387 343 335V376H507V352H440V-233H507V-257ZM343 106V266Q343 303 307 334T232 366Q150 366 150 245V141Q150 61 173 32Q192 8 235 8Q283 8 313 37T343 106Z"  />
<glyph unicode="r" horiz-adv-x="412" d="M402 313Q402 289 386 275T346 261Q321 261 305 274T289 310Q289 340 314 354Q317 355 317 357Q317 361 293 361Q257 361 223 333T188 276V24H260V0H18V24H90V353H18V377H188V332Q231 385 304 385Q344 385 370 369Q402 350 402 313Z"  />
<glyph unicode="s" horiz-adv-x="367" d="M343 119Q343 62 306 25Q266 -13 199 -13Q125 -13 83 24L64 -1Q59 -8 54 -8Q43 -8 43 4V105Q43 117 54 117Q63 117 66 105Q93 10 196 10Q234 10 264 27Q299 47 299 81Q299 122 238 144Q227 147 142 165Q50 184 50 266Q50 317 86 352Q126 390 191 390Q237 390 269 365L289 384L292 386Q296 390 300 390Q307 390 307 379V278Q307 268 299 268Q290 268 288 277Q282 312 258 337Q229 366 185 366Q148 366 124 348T99 306Q99 277 134 267Q178 257 246 239Q343 210 343 119Z"  />
<glyph unicode="t" horiz-adv-x="348" d="M338 83Q338 79 337 73Q321 -13 214 -13Q154 -13 122 18T89 104V355H19V379H89V485L187 530V379H287V355H187V102Q187 16 249 16Q303 16 314 81Q316 95 328 95Q338 95 338 83Z"  />
<glyph unicode="u" horiz-adv-x="556" d="M529 0H359V60Q306 -11 204 -11Q95 -11 95 95V353H23V376H193V89Q193 55 201 42Q212 25 245 25Q287 25 323 59T359 123V353H287V376H457V24H529V0Z"  />
<glyph unicode="v" horiz-adv-x="505" d="M488 353H425L269 -4H255L90 353H21V376H264V353H194L297 123L397 353H326V376H488V353Z"  />
<glyph unicode="w" horiz-adv-x="668" d="M654 353H582L457 -11H443L338 230L251 -11H236L92 353H23V376H257V353H191L278 135L363 376H377L482 134L556 353H472V376H654V353Z"  />
<glyph unicode="x" horiz-adv-x="518" d="M505 0H263V24H336L239 152L134 24H205V0H31V24H102L223 173L86 353H26V376H253V353H190L279 236L374 353H313V376H476V353H408L295 215L441 24H505V0Z"  />
<glyph unicode="y" horiz-adv-x="521" d="M511 352H442L231 -154Q191 -251 111 -251Q54 -251 54 -206Q54 -167 95 -167Q125 -167 139 -194Q145 -205 151 -205Q183 -205 207 -146L266 -3L96 352H26V376H277V352H201L313 110L414 352H340V376H511V352Z"  />
<glyph unicode="z" horiz-adv-x="414" d="M388 0H49V26L275 353H179Q100 353 89 255H68V376H377V348L155 24H267Q359 24 367 132H388V0Z"  />
<glyph unicode="{" horiz-adv-x="380" d="M261 -73Q208 -73 183 -57Q151 -37 151 13V168Q151 199 136 221T90 242V278Q120 278 135 300T151 353V498Q151 548 183 568Q208 584 261 584V548Q199 548 199 486V365Q199 321 188 300Q174 273 134 261V260Q174 253 188 228Q199 208 199 166V25Q199 -37 261 -37V-73Z"  />
<glyph unicode="|" horiz-adv-x="348" d="M188 -49H147V560H188V-49Z"  />
<glyph unicode="}" horiz-adv-x="380" d="M261 242Q231 243 216 221T200 168V13Q200 -37 168 -57Q143 -73 90 -73V-37Q152 -37 152 25V166Q152 208 163 228Q177 253 217 260V261Q177 273 163 300Q152 321 152 365V486Q152 548 90 548V584Q143 584 168 568Q200 548 200 498V353Q200 322 215 300T261 278V242Z"  />
<glyph unicode="&#xA0;" horiz-adv-x="250" />
<glyph unicode="&#xA1;" horiz-adv-x="277" d="M206 453Q206 430 189 414T146 398Q121 398 104 414T86 453Q86 476 103 492T146 509Q171 509 188 493T206 453ZM208 -48Q208 -138 145 -138Q80 -138 80 -48Q80 -11 91 41Q101 84 111 128Q122 185 134 347H155Q159 296 162 244Q168 176 177 128Q183 105 195 50T208 -48Z"  />
<glyph unicode="&#xA2;" horiz-adv-x="354" d="M331 213Q331 210 330 206Q307 125 211 118L210 70H185V119Q123 124 79 167T35 271Q35 333 75 373T185 424V461H210L211 424Q250 423 281 405T312 361Q312 324 274 324Q258 324 248 334T237 359Q237 373 242 379T248 389Q248 403 211 405V140Q248 142 275 163T309 215Q311 224 320 224Q331 224 331 213ZM185 140V404Q150 397 138 374T125 291V250Q125 200 132 180Q145 145 185 140Z"  />
<glyph unicode="&#xA3;" horiz-adv-x="559" d="M535 187Q535 126 484 60Q429 -11 363 -11Q273 -11 217 48Q184 -5 107 -5Q63 -5 39 20T14 80Q14 129 59 160Q98 186 144 186Q162 186 182 182L131 324H35V350H120Q86 448 86 491Q86 581 169 624Q235 658 340 658Q402 658 448 628Q498 595 498 546Q498 465 426 465Q399 465 381 479T362 517Q362 573 430 573Q445 573 445 580Q445 598 412 616T340 634Q285 634 259 608Q228 578 228 506V350H309V324H228V170Q344 103 405 103Q443 103 468 127Q489 147 511 193Q515 201 523 201Q535 201 535 187ZM194 68Q138 132 89 132Q73 132 59 120Q42 105 42 80Q42 57 59 39T107 21Q171 21 194 68Z"  />
<glyph unicode="&#xA5;" horiz-adv-x="674" d="M665 621H579L411 340V324H511V300H411V261H511V237H411V24H510V0H204V24H302V237H201V261H302V300H201V324H297L105 621H20V645H317V621H226L390 367L542 621H446V645H665V621Z"  />
<glyph unicode="&#xA6;" horiz-adv-x="118" d="M80 357H43V647H80V357ZM80 0H43V265H80V0Z"  />
<glyph unicode="&#xA7;" horiz-adv-x="387" d="M367 335Q367 246 292 214Q364 181 364 93Q364 20 317 -24T190 -69Q130 -69 89 -37T48 37Q48 85 91 85Q130 85 130 46Q130 9 88 9Q83 9 83 8Q83 -3 112 -22Q148 -45 190 -45Q245 -45 277 -20T309 43Q309 95 238 119Q173 140 108 161Q37 197 37 279Q37 372 119 401Q36 429 36 518Q36 579 79 621Q124 667 195 667Q271 667 312 637Q345 614 345 581Q345 542 307 542Q264 542 264 577Q264 610 297 616Q260 643 195 643Q153 643 121 622T89 569Q89 513 190 499Q367 474 367 335ZM329 300Q329 332 268 359Q220 381 163 390Q90 375 90 323Q90 289 124 268Q163 243 259 225Q329 250 329 300Z"  />
<glyph unicode="&#xA8;" horiz-adv-x="432" d="M353 554Q353 535 338 522T300 509Q278 509 263 522T247 554Q247 573 262 586T300 599Q322 599 337 586T353 554ZM196 554Q196 535 181 522T143 509Q121 509 106 522T90 554Q90 573 105 586T143 599Q165 599 180 586T196 554Z"  />
<glyph unicode="&#xA9;" horiz-adv-x="637" d="M616 357Q616 247 532 169T327 91Q207 91 122 169T37 357Q37 467 122 545T327 623Q447 623 531 545T616 357ZM586 358Q586 456 511 525T328 594Q221 594 145 525T69 358Q69 260 145 191T328 122Q435 122 510 191T586 358ZM428 241Q428 234 420 234Q417 234 414 237L393 257Q363 230 324 230Q274 230 233 272T192 370Q192 423 231 466T327 510Q362 510 392 489L405 503Q408 507 415 507H417Q423 506 423 498V434Q423 424 415 424Q411 424 407 431Q386 491 327 491Q254 491 254 391V349Q254 248 324 248Q377 248 411 317Q413 325 421 325Q428 325 428 317V241Z"  />
<glyph unicode="&#xAA;" horiz-adv-x="354" d="M323 398Q323 385 309 373Q291 356 262 356Q223 356 213 383Q186 356 144 356Q73 356 73 411Q73 449 112 471T209 494V555Q209 582 172 582Q141 582 137 577L139 575Q140 575 142 573Q151 563 151 553Q151 529 123 529Q96 529 96 555Q96 573 119 586T186 600Q271 600 271 545V410Q271 380 283 380Q295 380 304 392T316 405Q323 405 323 398ZM323 284H44V322H323V284ZM209 408V480Q130 474 130 425Q130 380 165 380Q177 380 193 390T209 408Z"  />
<glyph unicode="&#xAB;" horiz-adv-x="438" d="M382 108H354L174 258L354 408H382L254 258L382 108ZM232 108H203L24 258L203 408H232L104 258L232 108Z"  />
<glyph unicode="&#xAC;" horiz-adv-x="564" d="M545 230H506V389H18V429H545V230Z"  />
<glyph unicode="&#xAE;" horiz-adv-x="448" d="M413 475Q413 402 357 351T219 299Q138 299 82 350T25 475Q25 549 82 600T219 652Q299 652 356 601T413 475ZM383 475Q383 536 335 579T220 622Q152 622 105 579T57 475Q57 414 104 371T220 328Q287 328 335 371T383 475ZM331 388Q331 380 329 378Q318 368 290 368Q271 368 265 376Q256 385 254 404Q253 419 252 434Q248 473 218 473H197V388H225V370H127V388H156V562H127V580H225Q257 580 277 566T298 526Q298 491 258 478Q283 470 291 450Q297 437 298 407Q299 384 309 384Q316 384 322 388H331ZM258 520V531Q258 562 225 562H197V491H225Q258 491 258 520Z"  />
<glyph unicode="&#xAF;" horiz-adv-x="454" d="M360 516H107V543H360V516Z"  />
<glyph unicode="&#xB0;" horiz-adv-x="231" d="M202 582Q202 552 178 531T121 510Q88 510 64 531T39 582Q39 612 63 633T121 654Q154 654 178 633T202 582ZM177 582Q177 603 161 617T121 631Q97 631 81 617T64 582Q64 562 80 548T121 533Q145 533 161 547T177 582Z"  />
<glyph unicode="&#xB1;" horiz-adv-x="410" d="M374 344H235V217H171V344H32V403H171V530H235V403H374V344ZM358 126H48V185H358V126Z"  />
<glyph unicode="&#xB2;" horiz-adv-x="306" d="M252 424Q252 365 198 313Q147 274 96 234H247V205H52V239Q126 294 128 295Q174 331 193 360Q216 392 216 424Q216 451 198 468T154 486Q126 486 108 468T90 423Q90 413 92 405H55Q53 414 53 422Q53 466 81 490T154 514Q195 514 223 490T252 424Z"  />
<glyph unicode="&#xB3;" horiz-adv-x="306" d="M265 288Q265 245 229 222Q199 202 154 202Q78 202 54 259Q46 278 46 296H86Q86 267 105 249T154 230Q226 230 226 292Q226 358 145 358V388Q168 388 189 399Q215 412 215 433Q215 488 154 488Q98 488 98 436Q98 425 101 417H64Q61 428 61 437Q61 476 89 498Q114 517 154 517Q250 517 250 434Q250 404 226 387Q213 380 200 373Q201 372 211 368Q265 351 265 288Z"  />
<glyph unicode="&#xB4;" horiz-adv-x="404" d="M371 622L196 468L183 477L268 622H371Z"  />
<glyph unicode="&#xB6;" horiz-adv-x="664" d="M625 621H536V-104H471V621H392V-104H328V291H263Q163 291 101 334Q34 381 34 468Q34 555 101 602Q163 645 263 645H625V621Z"  />
<glyph unicode="&#xB8;" horiz-adv-x="359" d="M266 -101Q266 -125 246 -140T194 -156Q151 -156 123 -117Q118 -110 118 -104Q118 -96 126 -96Q131 -96 146 -108T179 -121Q215 -121 215 -93Q215 -69 180 -56L194 0H228L217 -45Q266 -61 266 -101Z"  />
<glyph unicode="&#xB9;" horiz-adv-x="306" d="M215 206H180V471Q169 457 140 444T92 430V462Q112 462 142 477T182 510H215V206Z"  />
<glyph unicode="&#xBA;" horiz-adv-x="327" d="M293 477Q293 434 259 396Q221 354 167 354Q113 354 75 396Q40 434 40 477Q40 520 75 557Q113 598 167 598Q221 598 259 557Q293 520 293 477ZM304 284H26V322H304V284ZM219 464V488Q219 533 214 549Q203 580 167 580Q131 580 120 549Q113 532 113 488V464Q113 419 119 402Q130 372 167 372Q203 372 214 403Q219 419 219 464Z"  />
<glyph unicode="&#xBB;" horiz-adv-x="426" d="M422 258L243 108H214L343 258L214 408H243L422 258ZM266 258L87 108H58L187 258L58 408H87L266 258Z"  />
<glyph unicode="&#xBC;" horiz-adv-x="564" d="M505 87H458V0H422V87H293V124L412 303H458V124H505V87ZM421 124V259L328 124H421ZM183 206H148V471Q136 457 108 444T59 430V462Q79 462 109 477T150 510H183V206ZM360 565L204 -60H152L308 565H360Z"  />
<glyph unicode="&#xBD;" horiz-adv-x="564" d="M174 206H138V471Q127 457 99 444T50 430V462Q70 462 100 477T141 510H174V206ZM514 219Q514 159 459 108Q408 68 358 29H509V0H314V34Q388 88 389 89Q435 126 455 154Q477 186 477 219Q477 245 460 262T415 280Q387 280 369 263T351 217Q351 207 354 199H316Q315 208 315 217Q315 261 343 285T416 309Q457 309 485 284T514 219ZM357 565L201 -60H149L305 565H357Z"  />
<glyph unicode="&#xBE;" horiz-adv-x="564" d="M239 288Q239 245 204 222Q174 202 128 202Q52 202 29 259Q21 278 21 296H61Q61 267 80 249T128 230Q200 230 200 292Q200 358 120 358V388Q143 388 164 399Q190 412 190 433Q190 488 128 488Q73 488 73 436Q73 425 76 417H39Q36 428 36 437Q36 476 64 498Q89 517 128 517Q225 517 225 434Q225 404 201 387Q188 380 175 373Q176 372 186 368Q239 351 239 288ZM543 87H496V0H460V87H332V124L451 303H496V124H543V87ZM460 124V259L366 124H460ZM397 565L241 -60H189L345 565H397Z"  />
<glyph unicode="&#xBF;" horiz-adv-x="415" d="M292 448Q292 425 275 409T232 393Q207 393 190 409T172 448Q172 471 189 487T232 504Q257 504 274 488T292 448ZM369 -38Q369 -77 325 -105Q277 -134 202 -134Q125 -134 82 -99T38 2Q38 47 64 85Q81 110 124 148L170 189Q221 235 221 256Q221 282 220 290Q218 306 218 310Q218 321 231 321Q241 321 243 311Q256 249 256 212Q256 174 246 152Q230 117 196 85Q143 34 138 28Q101 -15 101 -46Q101 -72 124 -90Q151 -110 200 -110Q247 -110 275 -98Q295 -90 295 -85Q295 -85 294 -87Q247 -78 247 -37Q247 -14 264 1T309 16Q335 16 352 1T369 -38Z"  />
<glyph unicode="&#xD7;" horiz-adv-x="581" d="M549 57L493 6L290 192L89 6L33 57L234 243L33 427L89 479L290 293L493 479L549 427L347 243L549 57Z"  />
<glyph unicode="&#xF7;" horiz-adv-x="382" d="M255 385Q255 362 238 346T195 330Q170 330 153 346T135 385Q135 408 152 424T195 440Q220 440 237 424T255 385ZM336 225H53V283H336V225ZM255 116Q255 93 238 77T195 61Q170 61 153 77T135 116Q135 139 152 155T195 171Q220 171 237 155T255 116Z"  />
<glyph unicode="&#x192;" horiz-adv-x="500" d="M488 623Q488 585 455 585Q424 585 424 612Q424 619 429 629T435 642Q435 655 417 655Q379 655 367 602Q351 530 335 427H422L414 395H329Q303 260 245 49Q200 -116 145 -170Q104 -210 61 -210Q36 -210 19 -197T1 -159Q1 -116 39 -116Q50 -116 60 -124T70 -143Q70 -148 61 -164Q59 -168 59 -171Q59 -181 71 -181Q96 -181 118 -145Q131 -124 147 -59Q151 -43 189 144Q192 161 249 395H163L170 427Q206 430 214 431Q240 436 251 450Q264 468 281 516Q306 590 327 621Q365 677 421 677Q448 677 468 663T488 623Z"  />
<glyph unicode="&#x3BC;" horiz-adv-x="576" d="M534 100Q526 -14 438 -14Q368 -14 360 79Q281 -14 207 -14Q182 -14 162 -3Q148 5 131 28Q131 28 131 5Q131 -36 147 -111Q154 -144 154 -162Q154 -184 142 -200T108 -216Q65 -216 65 -163Q65 -144 82 -74Q88 -47 90 -31Q96 23 96 56V447H176V187Q176 117 185 90Q200 46 245 46Q302 46 360 112V447H441V128Q441 79 445 64Q452 39 474 39Q505 39 514 100H534Z"  />
<glyph unicode="&#x5B0;" horiz-adv-x="0" d="M261 -122Q261 -164 228 -164Q195 -164 195 -122Q195 -80 228 -80Q261 -80 261 -122ZM261 -240Q261 -282 228 -282Q195 -282 195 -240Q195 -198 228 -198Q261 -198 261 -240Z"  />
<glyph unicode="&#x5B1;" horiz-adv-x="0" d="M324 -115Q324 -150 292 -150Q260 -150 260 -115Q260 -80 292 -80Q324 -80 324 -115ZM256 -115Q256 -150 224 -150Q191 -150 191 -115Q191 -80 224 -80Q238 -80 247 -91T256 -115ZM324 -206Q324 -241 292 -241Q260 -241 260 -206Q260 -171 292 -171Q324 -171 324 -206ZM187 -115Q187 -150 155 -150Q123 -150 123 -115Q123 -80 155 -80Q187 -80 187 -115ZM221 -206Q221 -241 189 -241Q157 -241 157 -206Q157 -171 189 -171Q221 -171 221 -206Z"  />
<glyph unicode="&#x5B2;" horiz-adv-x="0" d="M329 -115Q329 -150 297 -150Q265 -150 265 -115Q265 -80 297 -80Q329 -80 329 -115ZM329 -205Q329 -240 297 -240Q265 -240 265 -205Q265 -171 297 -171Q329 -171 329 -205ZM256 -134H131V-85H256V-134Z"  />
<glyph unicode="&#x5B3;" horiz-adv-x="0" d="M329 -115Q329 -150 297 -150Q265 -150 265 -115Q265 -80 297 -80Q329 -80 329 -115ZM329 -205Q329 -240 297 -240Q265 -240 265 -205Q265 -171 297 -171Q329 -171 329 -205ZM256 -134H214Q217 -173 217 -212V-233H170V-215Q170 -170 174 -134H131V-85H256V-134Z"  />
<glyph unicode="&#x5B4;" horiz-adv-x="0" d="M261 -118Q261 -156 228 -156Q195 -156 195 -118Q195 -80 228 -80Q261 -80 261 -118Z"  />
<glyph unicode="&#x5B5;" horiz-adv-x="0" d="M329 -118Q329 -134 319 -145T292 -156Q276 -156 265 -145T254 -118Q254 -80 292 -80Q308 -80 318 -91T329 -118ZM203 -118Q203 -156 166 -156Q150 -156 139 -145T128 -118Q128 -102 139 -91T166 -80Q182 -80 192 -91T203 -118Z"  />
<glyph unicode="&#x5B6;" horiz-adv-x="0" d="M329 -121Q329 -163 292 -163Q254 -163 254 -121Q254 -105 264 -93T292 -80Q308 -80 318 -92T329 -121ZM203 -121Q203 -163 166 -163Q149 -163 139 -151T128 -121Q128 -105 138 -93T166 -80Q182 -80 192 -92T203 -121ZM265 -215Q265 -257 228 -257Q191 -257 191 -215Q191 -198 201 -186T228 -174Q245 -174 255 -186T265 -215Z"  />
<glyph unicode="&#x5B7;" horiz-adv-x="0" d="M310 -140H147V-87H310V-140Z"  />
<glyph unicode="&#x5B8;" horiz-adv-x="0" d="M310 -148H253Q258 -184 258 -233V-260H199V-234Q199 -184 204 -148H147V-87H310V-148Z"  />
<glyph unicode="&#x5B9;" horiz-adv-x="0" d="M93 607Q93 591 83 579T58 566Q42 566 33 578T23 607Q23 622 32 634T58 647Q73 647 83 635T93 607Z"  />
<glyph unicode="&#x5BB;" horiz-adv-x="0" d="M187 -122Q187 -139 177 -151T150 -164Q112 -164 112 -122Q112 -105 122 -93T150 -80Q187 -80 187 -122ZM238 -208Q238 -250 200 -250Q163 -250 163 -208Q163 -167 200 -167Q217 -167 227 -179T238 -208ZM287 -296Q287 -313 277 -326T250 -339Q212 -339 212 -296Q212 -255 250 -255Q266 -255 276 -267T287 -296Z"  />
<glyph unicode="&#x5BC;" horiz-adv-x="0" d="M116 259Q116 243 107 231T81 218Q66 218 56 230T46 259Q46 274 56 286T81 299Q97 299 106 287T116 259Z"  />
<glyph unicode="&#x5BD;" horiz-adv-x="0" d="M28 -229H0V-102H28V-229Z"  />
<glyph unicode="&#x5BE;" horiz-adv-x="260" d="M182 449H21V505H182V449Z"  />
<glyph unicode="&#x5BF;" horiz-adv-x="0" d="M324 600H161V653H324V600Z"  />
<glyph unicode="&#x5C0;" horiz-adv-x="168" d="M108 -130H60V617H108V-130Z"  />
<glyph unicode="&#x5C1;" horiz-adv-x="0" d="M700 607Q700 591 690 579T665 566Q649 566 640 578T630 607Q630 622 639 634T665 647Q680 647 690 635T700 607Z"  />
<glyph unicode="&#x5C2;" horiz-adv-x="0" d="M216 607Q216 591 206 579T181 566Q165 566 156 578T146 607Q146 622 155 634T181 647Q196 647 206 635T216 607Z"  />
<glyph unicode="&#x5C3;" horiz-adv-x="275" d="M114 429H40V505H114V429ZM114 0H40V76H114V0Z"  />
<glyph unicode="&#x5D0;" horiz-adv-x="478" d="M400 0H330L162 300L99 0H42L122 373L44 505H113L271 222L334 505H394L312 156L400 0Z"  />
<glyph unicode="&#x5D1;" horiz-adv-x="479" d="M411 0H71V48H180Q258 48 299 114Q333 169 333 252Q333 354 304 399Q266 456 169 456H71V505H170Q294 505 346 439Q393 381 393 253Q393 127 317 52Q314 49 305 42L306 40Q343 49 354 49L411 48V0Z"  />
<glyph unicode="&#x5D2;" horiz-adv-x="379" d="M300 0H244Q234 8 229 41Q226 64 223 87Q220 96 216 96Q211 96 205 70Q201 54 197 38Q179 -10 122 -10Q87 -10 68 0V55Q98 40 119 40Q213 40 213 297Q213 378 201 407Q180 456 110 456H85V505H112Q209 505 245 449Q272 405 272 302Q272 283 272 246Q271 208 271 189Q271 52 300 0Z"  />
<glyph unicode="&#x5D3;" horiz-adv-x="455" d="M389 456H311V0H251V456H53V505H389V456Z"  />
<glyph unicode="&#x5D4;" horiz-adv-x="474" d="M408 0H348V291Q348 383 330 413Q304 456 218 456H82V505H221Q334 505 374 455Q408 412 408 295V0ZM142 0H82V314H142V0Z"  />
<glyph unicode="&#x5D5;" horiz-adv-x="195" d="M121 0H60V402Q60 437 46 505H109Q121 454 121 400V0Z"  />
<glyph unicode="&#x5D6;" horiz-adv-x="273" d="M227 456H209Q184 456 176 448Q160 433 160 327V0H100V353Q100 393 107 411Q117 438 146 454Q146 458 139 458Q135 458 128 457T117 456H47V505H227V456Z"  />
<glyph unicode="&#x5D7;" horiz-adv-x="462" d="M398 0H338V299Q338 389 320 417Q295 456 210 456H124V0H64V505H213Q322 505 362 459Q398 416 398 305V0Z"  />
<glyph unicode="&#x5D8;" horiz-adv-x="485" d="M420 190Q420 -10 236 -10Q153 -10 109 45Q68 96 68 181V505H128V200Q128 37 238 37Q360 37 360 196V328Q360 394 349 422Q330 467 274 467Q232 467 198 425V487Q231 515 277 515Q365 515 397 463Q420 425 420 330V190Z"  />
<glyph unicode="&#x5D9;" horiz-adv-x="195" d="M121 234H61V405Q61 467 46 505H109Q121 465 121 403V234Z"  />
<glyph unicode="&#x5DA;" horiz-adv-x="367" d="M273 -193H214V295Q214 382 194 414Q167 456 85 456H-8V505H87Q199 505 239 456Q273 413 273 297V-193Z"  />
<glyph unicode="&#x5DB;" horiz-adv-x="422" d="M372 249Q372 153 331 84Q282 0 193 0H69V48H193Q253 48 287 125Q313 185 313 254Q313 323 286 382Q252 456 191 456H69V505H191Q281 505 331 418Q372 346 372 249Z"  />
<glyph unicode="&#x5DC;" horiz-adv-x="406" d="M344 445Q344 437 338 404L263 0H200L264 364Q275 427 275 435Q275 457 245 457Q241 457 232 457Q224 456 219 456H146Q90 456 67 471Q48 484 45 518Q45 517 45 598Q45 681 22 722H85Q101 691 104 646Q105 632 105 566Q105 525 110 517Q117 505 153 505H285Q344 505 344 445Z"  />
<glyph unicode="&#x5DD;" horiz-adv-x="434" d="M361 0H3V505H187Q295 505 332 451Q361 407 361 294V0ZM301 48V304Q301 378 286 409Q264 456 197 456H63V48H301Z"  />
<glyph unicode="&#x5DE;" horiz-adv-x="488" d="M418 151Q418 81 387 38Q352 -11 285 -11Q247 -11 209 5V56Q237 36 272 36Q315 36 338 67Q358 95 358 140V356Q358 413 342 437Q322 467 268 467Q174 467 146 394Q130 354 130 241V0H70V392Q70 448 53 505H114Q130 466 130 412H133Q147 460 185 487T274 515Q358 515 391 463Q418 422 418 333V151Z"  />
<glyph unicode="&#x5DF;" horiz-adv-x="195" d="M130 -192H69V403Q69 450 54 505H118Q130 447 130 401V-192Z"  />
<glyph unicode="&#x5E0;" horiz-adv-x="307" d="M245 0H56V48H187V351Q187 438 154 452Q144 456 108 456H63V505H111Q161 505 186 495Q245 471 245 344V0Z"  />
<glyph unicode="&#x5E1;" horiz-adv-x="507" d="M432 182Q432 4 254 0Q254 0 202 0H118L60 505H432V182ZM372 157V456H127L173 48H258Q372 48 372 157Z"  />
<glyph unicode="&#x5E2;" horiz-adv-x="458" d="M401 193Q401 86 367 45Q330 0 224 0H77V48H215L73 505H139L276 52Q321 60 334 109Q341 133 341 196V505H401V193Z"  />
<glyph unicode="&#x5E3;" horiz-adv-x="424" d="M339 -194H279V241Q279 336 263 385Q236 467 161 467Q111 467 84 421Q62 384 62 330Q62 280 82 234H20Q-1 278 -1 328Q-1 403 42 457Q88 515 162 515Q269 515 310 424Q339 361 339 240V-194Z"  />
<glyph unicode="&#x5E4;" horiz-adv-x="489" d="M422 253Q422 150 382 82Q333 0 237 0H109L102 48H234Q301 48 336 120Q362 176 362 252Q362 467 240 467Q183 467 150 414Q122 368 122 307Q122 267 135 234H76Q62 265 62 311Q62 398 107 454Q156 515 241 515Q422 515 422 253Z"  />
<glyph unicode="&#x5E5;" horiz-adv-x="438" d="M374 378Q374 230 211 105V-201H151V90L-12 505H47Q67 457 186 154Q241 188 276 249T312 375Q312 437 282 505H348Q374 450 374 378Z"  />
<glyph unicode="&#x5E6;" horiz-adv-x="502" d="M419 505L312 209L415 47V0H78V48H345Q295 119 212 260Q133 394 73 505H146L273 268L353 505H419Z"  />
<glyph unicode="&#x5E7;" horiz-adv-x="469" d="M381 183Q381 -10 243 -10Q203 -10 185 8V49Q214 37 240 37Q321 37 321 182V456H46V505H381V183ZM122 -193H63V315H122V-193Z"  />
<glyph unicode="&#x5E8;" horiz-adv-x="408" d="M339 0H279V311Q279 391 255 421Q228 456 150 456H59V505H154Q264 505 304 454Q339 409 339 295V0Z"  />
<glyph unicode="&#x5E9;" horiz-adv-x="530" d="M289 143H229V505H289V143ZM451 162Q451 74 412 37T283 0H102L50 505H112L159 48H277Q391 48 391 159V505H451V162Z"  />
<glyph unicode="&#x5EA;" horiz-adv-x="549" d="M469 0H409V333Q409 400 383 428T289 456H185V119Q185 -10 80 -10Q52 -10 35 9V58Q55 38 79 38Q125 38 125 97V505H293Q398 505 437 452Q469 407 469 299V0Z"  />
<glyph unicode="&#x5F0;" horiz-adv-x="365" d="M291 0H230V402Q230 437 216 505H279Q291 454 291 400V0ZM121 0H60V402Q60 437 46 505H109Q121 454 121 400V0Z"  />
<glyph unicode="&#x5F1;" horiz-adv-x="365" d="M291 0H230V402Q230 437 216 505H279Q291 454 291 400V0ZM121 234H61V405Q61 467 46 505H109Q121 465 121 403V234Z"  />
<glyph unicode="&#x5F2;" horiz-adv-x="365" d="M291 234H231V405Q231 467 216 505H279Q291 465 291 403V234ZM121 234H61V405Q61 467 46 505H109Q121 465 121 403V234Z"  />
<glyph unicode="&#x5F3;" horiz-adv-x="283" d="M150 505L88 294H48L81 505H150Z"  />
<glyph unicode="&#x5F4;" horiz-adv-x="425" d="M261 505L196 294H152L188 505H261ZM135 505L70 294H26L62 505H135Z"  />
<glyph unicode="&#xF25;" horiz-adv-x="406" d="M344 445Q344 437 338 404L263 0H200L264 364Q275 427 275 435Q275 457 245 457Q241 457 232 457Q224 456 219 456H146Q90 456 67 471Q48 484 45 518Q45 517 45 598Q45 681 22 722H85Q101 691 104 646Q105 632 105 566Q105 525 110 517Q117 505 153 505H285Q344 505 344 445Z"  />
<glyph unicode="&#x200E;" horiz-adv-x="406" d="M375 448L211 296V404H141V0H55V490H211V600L375 448Z"  />
<glyph unicode="&#x200F;" horiz-adv-x="406" d="M351 0H265V404H195V296L31 448L195 600V490H351V0Z"  />
<glyph unicode="&#x2013;" horiz-adv-x="260" d="M182 449H21V505H182V449Z"  />
<glyph unicode="&#x2014;" horiz-adv-x="587" d="M509 221H21V277H509V221Z"  />
<glyph unicode="&#x2018;" horiz-adv-x="197" d="M144 294H104L42 505H111L144 294Z"  />
<glyph unicode="&#x2019;" horiz-adv-x="197" d="M150 505L88 294H48L81 505H150Z"  />
<glyph unicode="&#x201A;" horiz-adv-x="283" d="M138 46L76 -165H36L69 46H138Z"  />
<glyph unicode="&#x201C;" horiz-adv-x="315" d="M284 294H240L175 505H248L284 294ZM158 294H114L49 505H122L158 294Z"  />
<glyph unicode="&#x201D;" horiz-adv-x="315" d="M261 505L196 294H152L188 505H261ZM135 505L70 294H26L62 505H135Z"  />
<glyph unicode="&#x201E;" horiz-adv-x="315" d="M261 108L196 -103H152L188 108H261ZM135 108L70 -103H26L62 108H135Z"  />
<glyph unicode="&#x2020;" horiz-adv-x="271" d="M222 423H155V66H119V423H53V456H119V520Q119 531 110 552T101 585Q101 597 108 618T120 664T137 689Q149 689 154 664T166 618T173 585Q173 573 164 552T155 520V456H222V423Z"  />
<glyph unicode="&#x2021;" horiz-adv-x="271" d="M221 174H154V110Q154 99 163 78T172 45Q172 33 165 12T153 -33Q147 -60 136 -60Q125 -60 119 -33Q114 -9 107 12T100 45Q100 57 109 78T118 110V174H52V207H118V422H52V456H118V520Q118 531 109 551T100 584Q100 597 107 618T119 664T136 689Q148 689 153 664T165 618T172 584Q172 572 163 552T154 520V456H221V422H154V207H221V174Z"  />
<glyph unicode="&#x2022;" horiz-adv-x="471" d="M405 227Q405 163 355 117T234 71Q163 71 113 117T62 227Q62 291 112 336T234 382Q305 382 355 337T405 227Z"  />
<glyph unicode="&#x2026;" horiz-adv-x="605" d="M525 0H451V76H525V0ZM325 0H251V76H325V0ZM125 0H51V76H125V0Z"  />
<glyph unicode="&#x2030;" horiz-adv-x="1138" d="M1096 179Q1096 101 1055 48Q1010 -11 930 -11Q847 -11 798 49Q755 102 755 179Q755 254 798 307Q845 365 926 365Q1007 365 1054 306Q1096 254 1096 179ZM736 179Q736 101 695 48Q650 -11 570 -11Q487 -11 438 49Q394 103 394 179Q394 254 437 307Q484 365 565 365Q647 365 694 306Q736 254 736 179ZM638 656L173 -4H126L591 656H638ZM372 469Q372 391 331 339Q286 280 206 280Q123 280 74 339Q31 393 31 469Q31 545 74 597Q121 656 202 656Q283 656 330 597Q372 544 372 469ZM1001 167V190Q1001 269 990 299Q975 344 926 344Q877 344 861 299Q850 269 850 190V167Q850 85 861 56Q877 11 930 11Q976 11 991 54Q1001 85 1001 167ZM640 167V190Q640 269 629 299Q614 344 565 344Q516 344 500 299Q490 269 490 190V167Q490 85 501 56Q517 11 570 11Q616 11 630 54Q640 84 640 167ZM277 458V481Q277 560 266 590Q251 634 202 634Q153 634 137 589Q126 559 126 481V458Q126 376 137 346Q153 301 206 301Q252 301 267 345Q277 375 277 458Z"  />
<glyph unicode="&#x2039;" horiz-adv-x="271" d="M238 108H208L29 258L208 408H238L109 258L238 108Z"  />
<glyph unicode="&#x203A;" horiz-adv-x="271" d="M243 258L63 108H35L164 258L35 408H63L243 258Z"  />
<glyph unicode="&#x20AA;" horiz-adv-x="781" d="M599 181Q599 0 419 0H237L200 342H263L294 67H423Q539 67 539 178V505H599V181ZM444 162H383V290Q383 376 360 405Q334 438 250 438H127V0H66V505H253Q362 505 405 454Q444 407 444 296V162Z"  />
<glyph unicode="&#x20AC;" horiz-adv-x="615" d="M589 52Q509 -16 403 -16Q307 -16 231 41T127 191H29L63 251H117Q116 271 116 271Q116 278 117 294H29L63 354H128Q157 445 232 501T403 558Q509 558 589 490L558 437Q493 498 403 498Q334 498 278 459T192 354H512L476 294H177Q176 282 176 271Q176 266 177 251H452L417 191H190Q218 124 275 84T403 44Q493 44 558 105L572 79Q575 74 589 52Z"  />
<glyph unicode="&#x2122;" horiz-adv-x="510" d="M467 464H371V480H399V596L351 464H339L286 589V480H315V464H238V480H266V628H238V645H301L353 522L399 645H467V628H440V480H467V464ZM216 600H199Q198 607 196 612Q190 628 169 628H147V480H175V464H78V480H105V628H82Q56 628 52 600H35L40 645H212L216 600Z"  />
<glyph unicode="&#x2153;" horiz-adv-x="564" d="M169 206H134V471Q122 457 94 444T46 430V462Q66 462 96 477T136 510H169V206ZM518 80Q518 37 483 14Q453 -6 407 -6Q331 -6 308 52Q300 71 300 89H340Q340 59 359 41T407 22Q479 22 479 85Q479 151 399 151V180Q422 180 443 191Q469 205 469 226Q469 280 407 280Q352 280 352 228Q352 217 355 209H318Q315 220 315 230Q315 269 343 290Q368 309 407 309Q504 309 504 227Q504 196 480 180Q467 172 454 165Q455 164 465 161Q518 144 518 80ZM349 565L193 -60H141L297 565H349Z"  />
<glyph unicode="&#x2154;" horiz-adv-x="564" d="M211 424Q211 365 156 313Q105 274 55 234H206V205H11V239Q85 294 86 295Q132 331 153 361T174 424Q174 451 157 468T112 486Q84 486 66 468T48 423Q48 413 50 405H13Q11 414 11 422Q11 466 41 491Q68 514 113 514Q154 514 182 490T211 424ZM553 80Q553 37 518 14Q488 -6 442 -6Q366 -6 343 52Q335 71 335 89H375Q375 59 394 41T442 22Q514 22 514 85Q514 151 434 151V180Q457 180 478 191Q503 205 503 226Q503 280 442 280Q387 280 387 228Q387 217 390 209H353Q350 220 350 230Q350 269 378 290Q403 309 442 309Q539 309 539 227Q539 196 515 180Q502 172 489 165Q490 164 500 161Q553 144 553 80ZM382 565L226 -60H174L330 565H382Z"  />
<glyph unicode="&#x2212;" horiz-adv-x="277" d="M277 231H4V262H277V231Z"  />
<glyph unicode="&#x2219;" horiz-adv-x="231" d="M172 309Q172 287 155 272T112 257Q87 257 70 272T52 309Q52 331 69 346T112 361Q137 361 154 346T172 309Z"  />
<glyph unicode="&#xE802;" horiz-adv-x="367" d="M273 -193H214V295Q214 382 194 414Q167 456 85 456H-8V505H87Q199 505 239 456Q273 413 273 297V-193ZM130 257Q130 215 97 215Q64 215 64 257Q64 299 97 299Q130 299 130 257ZM130 139Q130 97 97 97Q64 97 64 139Q64 181 97 181Q130 181 130 139Z"  />
<glyph unicode="&#xE803;" horiz-adv-x="367" d="M273 -193H214V295Q214 382 194 414Q167 456 85 456H-8V505H87Q199 505 239 456Q273 413 273 297V-193ZM161 227H104Q109 191 109 142V115H50V141Q50 191 55 227H-2V288H161V227Z"  />
<glyph unicode="&#xE804;" horiz-adv-x="406" d="M344 445Q344 437 338 404L263 0H200L264 364Q275 427 275 435Q275 457 245 457Q241 457 232 457Q224 456 219 456H146Q90 456 67 471Q48 484 45 518Q45 517 45 598Q45 681 22 722H85Q101 691 104 646Q105 632 105 566Q105 525 110 517Q117 505 153 505H285Q344 505 344 445ZM14 607Q14 591 4 579T-21 566Q-37 566 -46 578T-56 607Q-56 622 -47 634T-21 647Q-6 647 4 635T14 607Z"  />
<glyph unicode="&#xE805;" horiz-adv-x="406" d="M344 445Q344 437 338 404L263 0H200L264 364Q275 427 275 435Q275 457 245 457Q241 457 232 457Q224 456 219 456H146Q90 456 67 471Q48 484 45 518Q45 517 45 598Q45 681 22 722H85Q101 691 104 646Q105 632 105 566Q105 525 110 517Q117 505 153 505H285Q344 505 344 445ZM14 607Q14 591 4 579T-21 566Q-37 566 -46 578T-56 607Q-56 622 -47 634T-21 647Q-6 647 4 635T14 607ZM186 259Q186 243 177 231T151 218Q136 218 126 230T116 259Q116 274 126 286T151 299Q167 299 176 287T186 259Z"  />
<glyph unicode="&#xFB1F;" horiz-adv-x="335" d="M261 234H201V405Q201 467 186 505H249Q261 465 261 403V234ZM121 234H61V405Q61 467 46 505H109Q121 465 121 403V234ZM256 0H63V53H256V0Z"  />
<glyph unicode="&#xFB20;" horiz-adv-x="458" d="M401 193Q401 86 367 45Q330 0 224 0H77V48H215L73 505H139L276 52Q321 60 334 109Q341 133 341 196V505H401V193Z"  />
<glyph unicode="&#xFB21;" horiz-adv-x="474" d="M408 0H348V291Q348 383 330 413Q304 456 218 456H82V505H221Q334 505 374 455Q408 412 408 295V0ZM142 0H82V314H142V0Z"  />
<glyph unicode="&#xFB22;" horiz-adv-x="455" d="M389 456H311V0H251V456H53V505H389V456Z"  />
<glyph unicode="&#xFB24;" horiz-adv-x="422" d="M372 249Q372 153 331 84Q282 0 193 0H69V48H193Q253 48 287 125Q313 185 313 254Q313 323 286 382Q252 456 191 456H69V505H191Q281 505 331 418Q372 346 372 249Z"  />
<glyph unicode="&#xFB26;" horiz-adv-x="434" d="M361 0H3V505H187Q295 505 332 451Q361 407 361 294V0ZM301 48V304Q301 378 286 409Q264 456 197 456H63V48H301Z"  />
<glyph unicode="&#xFB27;" horiz-adv-x="408" d="M339 0H279V311Q279 391 255 421Q228 456 150 456H59V505H154Q264 505 304 454Q339 409 339 295V0Z"  />
<glyph unicode="&#xFB28;" horiz-adv-x="549" d="M469 0H409V333Q409 400 383 428T289 456H185V119Q185 -10 80 -10Q52 -10 35 9V58Q55 38 79 38Q125 38 125 97V505H293Q398 505 437 452Q469 407 469 299V0Z"  />
<glyph unicode="&#xFB2A;" horiz-adv-x="530" d="M289 143H229V505H289V143ZM451 162Q451 74 412 37T283 0H102L50 505H112L159 48H277Q391 48 391 159V505H451V162ZM454 607Q454 591 444 579T419 566Q403 566 394 578T384 607Q384 622 393 634T419 647Q434 647 444 635T454 607Z"  />
<glyph unicode="&#xFB2B;" horiz-adv-x="530" d="M289 143H229V505H289V143ZM451 162Q451 74 412 37T283 0H102L50 505H112L159 48H277Q391 48 391 159V505H451V162ZM112 607Q112 591 102 579T77 566Q61 566 52 578T42 607Q42 622 51 634T77 647Q92 647 102 635T112 607Z"  />
<glyph unicode="&#xFB2C;" horiz-adv-x="530" d="M289 143H229V505H289V143ZM451 162Q451 74 412 37T283 0H102L50 505H112L159 48H277Q391 48 391 159V505H451V162ZM454 607Q454 591 444 579T419 566Q403 566 394 578T384 607Q384 622 393 634T419 647Q434 647 444 635T454 607ZM377 259Q377 243 368 231T342 218Q327 218 317 230T307 259Q307 274 317 286T342 299Q358 299 367 287T377 259Z"  />
<glyph unicode="&#xFB2D;" horiz-adv-x="530" d="M289 143H229V505H289V143ZM451 162Q451 74 412 37T283 0H102L50 505H112L159 48H277Q391 48 391 159V505H451V162ZM112 607Q112 591 102 579T77 566Q61 566 52 578T42 607Q42 622 51 634T77 647Q92 647 102 635T112 607ZM376 259Q376 243 367 231T341 218Q326 218 316 230T306 259Q306 274 316 286T341 299Q357 299 366 287T376 259Z"  />
<glyph unicode="&#xFB2E;" horiz-adv-x="478" d="M400 0H330L162 300L99 0H42L122 373L44 505H113L271 222L334 505H394L312 156L400 0ZM291 -140H128V-87H291V-140Z"  />
<glyph unicode="&#xFB2F;" horiz-adv-x="478" d="M400 0H330L162 300L99 0H42L122 373L44 505H113L271 222L334 505H394L312 156L400 0ZM291 -148H234Q239 -184 239 -233V-260H180V-234Q180 -184 185 -148H128V-87H291V-148Z"  />
<glyph unicode="&#xFB30;" horiz-adv-x="478" d="M400 0H330L162 300L99 0H42L122 373L44 505H113L271 222L334 505H394L312 156L400 0ZM242 -118Q242 -156 209 -156Q176 -156 176 -118Q176 -80 209 -80Q242 -80 242 -118Z"  />
<glyph unicode="&#xFB31;" horiz-adv-x="479" d="M411 0H71V48H180Q258 48 299 114Q333 169 333 252Q333 354 304 399Q266 456 169 456H71V505H170Q294 505 346 439Q393 381 393 253Q393 127 317 52Q314 49 305 42L306 40Q343 49 354 49L411 48V0ZM226 259Q226 243 217 231T191 218Q176 218 166 230T156 259Q156 274 166 286T191 299Q207 299 216 287T226 259Z"  />
<glyph unicode="&#xFB32;" horiz-adv-x="379" d="M300 0H244Q234 8 229 41Q226 64 223 87Q220 96 216 96Q211 96 205 70Q201 54 197 38Q179 -10 122 -10Q87 -10 68 0V55Q98 40 119 40Q213 40 213 297Q213 378 201 407Q180 456 110 456H85V505H112Q209 505 245 449Q272 405 272 302Q272 283 272 246Q271 208 271 189Q271 52 300 0ZM176 259Q176 243 167 231T141 218Q126 218 116 230T106 259Q106 274 116 286T141 299Q157 299 166 287T176 259Z"  />
<glyph unicode="&#xFB33;" horiz-adv-x="455" d="M389 456H311V0H251V456H53V505H389V456ZM196 259Q196 243 187 231T161 218Q146 218 136 230T126 259Q126 274 136 286T161 299Q177 299 186 287T196 259Z"  />
<glyph unicode="&#xFB34;" horiz-adv-x="474" d="M408 0H348V291Q348 383 330 413Q304 456 218 456H82V505H221Q334 505 374 455Q408 412 408 295V0ZM142 0H82V314H142V0ZM276 259Q276 243 267 231T241 218Q226 218 216 230T206 259Q206 274 216 286T241 299Q257 299 266 287T276 259Z"  />
<glyph unicode="&#xFB35;" horiz-adv-x="195" d="M121 0H60V402Q60 437 46 505H109Q121 454 121 400V0ZM37 259Q37 243 28 231T2 218Q-13 218 -23 230T-33 259Q-33 274 -23 286T2 299Q18 299 27 287T37 259Z"  />
<glyph unicode="&#xFB36;" horiz-adv-x="273" d="M227 456H209Q184 456 176 448Q160 433 160 327V0H100V353Q100 393 107 411Q117 438 146 454Q146 458 139 458Q135 458 128 457T117 456H47V505H227V456ZM77 259Q77 243 68 231T42 218Q27 218 17 230T7 259Q7 274 17 286T42 299Q58 299 67 287T77 259Z"  />
<glyph unicode="&#xFB38;" horiz-adv-x="485" d="M420 190Q420 -10 236 -10Q153 -10 109 45Q68 96 68 181V505H128V200Q128 37 238 37Q360 37 360 196V328Q360 394 349 422Q330 467 274 467Q232 467 198 425V487Q231 515 277 515Q365 515 397 463Q420 425 420 330V190ZM276 259Q276 243 267 231T241 218Q226 218 216 230T206 259Q206 274 216 286T241 299Q257 299 266 287T276 259Z"  />
<glyph unicode="&#xFB39;" horiz-adv-x="195" d="M121 234H61V405Q61 467 46 505H109Q121 465 121 403V234ZM37 279Q37 263 28 251T2 238Q-13 238 -23 250T-33 279Q-33 294 -23 306T2 319Q18 319 27 307T37 279Z"  />
<glyph unicode="&#xFB3A;" horiz-adv-x="367" d="M273 -193H214V295Q214 382 194 414Q167 456 85 456H-8V505H87Q199 505 239 456Q273 413 273 297V-193ZM136 259Q136 243 127 231T101 218Q86 218 76 230T66 259Q66 274 76 286T101 299Q117 299 126 287T136 259Z"  />
<glyph unicode="&#xFB3B;" horiz-adv-x="422" d="M372 249Q372 153 331 84Q282 0 193 0H69V48H193Q253 48 287 125Q313 185 313 254Q313 323 286 382Q252 456 191 456H69V505H191Q281 505 331 418Q372 346 372 249ZM216 259Q216 243 207 231T181 218Q166 218 156 230T146 259Q146 274 156 286T181 299Q197 299 206 287T216 259Z"  />
<glyph unicode="&#xFB3C;" horiz-adv-x="406" d="M344 445Q344 437 338 404L263 0H200L264 364Q275 427 275 435Q275 457 245 457Q241 457 232 457Q224 456 219 456H146Q90 456 67 471Q48 484 45 518Q45 517 45 598Q45 681 22 722H85Q101 691 104 646Q105 632 105 566Q105 525 110 517Q117 505 153 505H285Q344 505 344 445ZM186 259Q186 243 177 231T151 218Q136 218 126 230T116 259Q116 274 126 286T151 299Q167 299 176 287T186 259Z"  />
<glyph unicode="&#xFB3E;" horiz-adv-x="488" d="M418 151Q418 81 387 38Q352 -11 285 -11Q247 -11 209 5V56Q237 36 272 36Q315 36 338 67Q358 95 358 140V356Q358 413 342 437Q322 467 268 467Q174 467 146 394Q130 354 130 241V0H70V392Q70 448 53 505H114Q130 466 130 412H133Q147 460 185 487T274 515Q358 515 391 463Q418 422 418 333V151ZM276 259Q276 243 267 231T241 218Q226 218 216 230T206 259Q206 274 216 286T241 299Q257 299 266 287T276 259Z"  />
<glyph unicode="&#xFB40;" horiz-adv-x="307" d="M245 0H56V48H187V351Q187 438 154 452Q144 456 108 456H63V505H111Q161 505 186 495Q245 471 245 344V0ZM156 259Q156 243 147 231T121 218Q106 218 96 230T86 259Q86 274 96 286T121 299Q137 299 146 287T156 259Z"  />
<glyph unicode="&#xFB41;" horiz-adv-x="507" d="M432 182Q432 4 254 0Q254 0 202 0H118L60 505H432V182ZM372 157V456H127L173 48H258Q372 48 372 157ZM296 259Q296 243 287 231T261 218Q246 218 236 230T226 259Q226 274 236 286T261 299Q277 299 286 287T296 259Z"  />
<glyph unicode="&#xFB44;" horiz-adv-x="489" d="M422 253Q422 150 382 82Q333 0 237 0H109L102 48H234Q301 48 336 120Q362 176 362 252Q362 467 240 467Q183 467 150 414Q122 368 122 307Q122 267 135 234H76Q62 265 62 311Q62 398 107 454Q156 515 241 515Q422 515 422 253ZM276 259Q276 243 267 231T241 218Q226 218 216 230T206 259Q206 274 216 286T241 299Q257 299 266 287T276 259Z"  />
<glyph unicode="&#xFB46;" horiz-adv-x="502" d="M419 505L312 209L415 47V0H78V48H345Q295 119 212 260Q133 394 73 505H146L273 268L353 505H419ZM216 130Q216 114 207 102T181 89Q166 89 156 101T146 130Q146 145 156 157T181 170Q197 170 206 158T216 130Z"  />
<glyph unicode="&#xFB47;" horiz-adv-x="469" d="M381 183Q381 -10 243 -10Q203 -10 185 8V49Q214 37 240 37Q321 37 321 182V456H46V505H381V183ZM122 -193H63V315H122V-193ZM256 259Q256 243 247 231T221 218Q206 218 196 230T186 259Q186 274 196 286T221 299Q237 299 246 287T256 259Z"  />
<glyph unicode="&#xFB48;" horiz-adv-x="408" d="M339 0H279V311Q279 391 255 421Q228 456 150 456H59V505H154Q264 505 304 454Q339 409 339 295V0ZM206 259Q206 243 197 231T171 218Q156 218 146 230T136 259Q136 274 146 286T171 299Q187 299 196 287T206 259Z"  />
<glyph unicode="&#xFB49;" horiz-adv-x="530" d="M289 143H229V505H289V143ZM451 162Q451 74 412 37T283 0H102L50 505H112L159 48H277Q391 48 391 159V505H451V162ZM376 259Q376 243 367 231T341 218Q326 218 316 230T306 259Q306 274 316 286T341 299Q357 299 366 287T376 259Z"  />
<glyph unicode="&#xFB4A;" horiz-adv-x="549" d="M469 0H409V333Q409 400 383 428T289 456H185V119Q185 -10 80 -10Q52 -10 35 9V58Q55 38 79 38Q125 38 125 97V505H293Q398 505 437 452Q469 407 469 299V0ZM336 259Q336 243 327 231T301 218Q286 218 276 230T266 259Q266 274 276 286T301 299Q317 299 326 287T336 259Z"  />
<glyph unicode="&#xFB4B;" horiz-adv-x="195" d="M121 0H60V402Q60 437 46 505H109Q121 454 121 400V0ZM113 607Q113 591 103 579T78 566Q62 566 53 578T43 607Q43 622 52 634T78 647Q93 647 103 635T113 607Z"  />
<glyph unicode="&#xFB4C;" horiz-adv-x="479" d="M411 0H71V48H180Q258 48 299 114Q333 169 333 252Q333 354 304 399Q266 456 169 456H71V505H170Q294 505 346 439Q393 381 393 253Q393 127 317 52Q314 49 305 42L306 40Q343 49 354 49L411 48V0ZM295 600H132V653H295V600Z"  />
<glyph unicode="&#xFB4D;" horiz-adv-x="422" d="M372 249Q372 153 331 84Q282 0 193 0H69V48H193Q253 48 287 125Q313 185 313 254Q313 323 286 382Q252 456 191 456H69V505H191Q281 505 331 418Q372 346 372 249ZM265 600H102V653H265V600Z"  />
<glyph unicode="&#xFB4E;" horiz-adv-x="489" d="M422 253Q422 150 382 82Q333 0 237 0H109L102 48H234Q301 48 336 120Q362 176 362 252Q362 467 240 467Q183 467 150 414Q122 368 122 307Q122 267 135 234H76Q62 265 62 311Q62 398 107 454Q156 515 241 515Q422 515 422 253ZM334 600H171V653H334V600Z"  />
<glyph unicode="&#xFB4F;" horiz-adv-x="470" d="M435 62Q435 22 399 -8L181 254Q137 215 137 189Q137 174 162 133L201 69L182 0H62V33L99 45Q74 135 74 156Q74 217 159 281L100 352Q45 352 28 377Q14 396 14 455Q14 529 40 573Q36 579 7 597Q-14 611 -14 629Q-14 683 23 703V699Q23 686 70 665Q102 650 102 629Q102 620 82 576T62 503Q62 458 115 458H129L298 255Q300 275 356 356Q345 355 345 355Q276 355 276 440Q276 484 316 496Q324 458 347 458H383Q432 458 432 390Q432 383 427 357H396L354 287Q337 259 326 221L406 124Q435 89 435 62Z"  />


</font>
</defs>
</svg>
