<?xml  version="1.0" encoding="UTF-8"?>
<!DOCTYPE svg PUBLIC "-//W3C//DTD SVG 1.0//EN" "http://www.w3.org/TR/2001/REC-SVG-20010904/DTD/svg10.dtd" >
<svg xmlns="http://www.w3.org/2000/svg" >
<metadata>
<version>1.0</version>
<id><![CDATA[Oron W26 Light]]></id>
<vendor>Monotype Imaging Inc.</vendor>
<credits>
<name>Fonts.com WebFonts</name>
<URL>http://webfonts.fonts.com</URL>
<role>Home of the Web fonts</role>
</credits>
<license>
<URL>http://webfonts.fonts.com/Legal</URL>
</license>
<copyright><![CDATA[Copyright (c) 2008 by Masterfont Studio Rosenberg LTD.. All rights reserved.]]></copyright>
<trademark><![CDATA[MF OronLight is a trademark of Masterfont Studio Rosenberg LTD..]]></trademark>
<licensee>
<name></name>
</licensee>
</metadata>
<defs >
<font horiz-adv-x="500" id="2803e1ab-b756-46fb-977e-2749f3dec337">
<font-face font-family="" panose-1="1 0 5 3 0 0 0 2 0 3" ascent="906" descent="-213" units-per-em="1000" alphabetic="0">
</font-face>
<missing-glyph horiz-adv-x="0" d="M0 700H500V0H0V700ZM420 650H80L250 395L420 650ZM450 95V605L280 350L450 95ZM420 50L250 305L80 50H420ZM50 95L220 350L50 605V95Z"  />

<glyph unicode="&#xA;" />
<glyph unicode="&#xD;" />
<glyph unicode=" " horiz-adv-x="280" />
<glyph unicode="!" horiz-adv-x="177" d="M114 171H64L51 639H127L114 171ZM47 0V80H133V0H47Z"  />
<glyph unicode="&quot;" horiz-adv-x="361" d="M220 292H178L222 502H300L220 292ZM101 292H60L104 502H182L101 292Z"  />
<glyph unicode="#" horiz-adv-x="526" d="M468 332H387L360 182H441L432 132H351L328 0H278L301 132H181L158 0H108L131 132H50L59 182H140L167 332H86L94 382H175L197 503H247L225 382H345L367 503H417L395 382H476L468 332ZM217 332L190 182H310L337 332H217Z"  />
<glyph unicode="$" horiz-adv-x="518" d="M447 149Q447 123 440 102T422 65T397 36T368 16Q333 -4 289 -11V-79H224V-14Q174 -13 135 4Q118 11 103 22T75 49T55 86T47 137H112Q114 109 126 91T158 61T201 45T251 40Q275 40 298 46T340 64T370 95T382 140Q382 167 369 183T333 210T282 228T223 242Q193 249 165 257T114 281T78 319T64 377Q64 402 71 421T89 455T114 480T144 497Q179 513 224 516V579H289V515Q327 512 358 496Q384 482 406 455T431 378H366Q364 402 353 418T325 443T287 457T242 462Q221 462 201 458T165 444T139 419T129 381Q129 353 146 339T194 314T268 294T362 266Q401 252 424 221T447 149Z"  />
<glyph unicode="%" horiz-adv-x="657" d="M601 116Q601 89 595 65T574 23T537 -5T482 -15Q450 -15 427 -5T390 23T370 65T363 116Q363 143 369 167T390 209T427 237T482 247Q514 247 536 237T573 209T594 167T601 116ZM162 -60H112L492 562H543L162 -60ZM293 389Q293 362 287 338T266 296T229 268T174 258Q142 258 119 268T82 296T62 338T55 389Q55 416 61 440T82 482T119 510T174 520Q206 520 228 510T265 482T286 440T293 389ZM544 116Q544 130 542 146T532 177T513 200T482 210Q462 210 450 201T432 177T423 147T420 116Q420 102 422 86T431 55T450 32T482 23Q501 23 513 32T532 55T541 85T544 116ZM236 389Q236 403 234 419T224 450T205 473T174 483Q154 483 142 474T124 450T115 420T112 389Q112 375 114 359T123 328T142 305T174 295Q193 295 205 304T224 328T233 358T236 389Z"  />
<glyph unicode="&amp;" horiz-adv-x="680" d="M675 90Q675 61 625 19Q587 -13 540 -13Q464 -13 387 70Q286 -13 187 -13Q118 -13 78 24Q38 61 38 130Q38 200 96 257Q111 272 143 296Q158 307 176 318T214 340Q182 438 182 468Q182 526 221 567Q259 608 320 608Q372 608 407 579Q443 550 443 500Q443 443 398 403Q369 377 302 346Q327 295 356 250T421 160Q504 264 504 324Q504 348 486 357Q472 362 446 365V383H641V365Q609 360 596 353Q572 339 556 311L534 274Q529 264 523 254T509 233Q502 222 494 211T478 187L443 135Q459 103 500 78Q541 52 576 52Q606 52 626 64Q630 67 633 70T641 77L662 101L675 90ZM394 504Q394 536 375 558Q356 580 324 580Q254 580 254 502Q254 450 290 374Q394 433 394 504ZM364 94Q348 113 332 135T299 184Q264 238 227 310L205 294L185 279Q172 268 154 249Q121 211 121 162Q121 110 154 74Q189 36 238 36Q297 36 364 94Z"  />
<glyph unicode="&apos;" horiz-adv-x="244" d="M101 292H60L104 502H182L101 292Z"  />
<glyph unicode="(" horiz-adv-x="288" d="M157 -50Q139 -13 125 21T100 91T85 166T79 252Q79 326 95 400T155 555H204Q189 531 177 498T157 425T144 341T139 252Q139 207 142 170T153 97T174 27T205 -50H157Z"  />
<glyph unicode=")" horiz-adv-x="296" d="M211 252Q211 205 206 166T191 91T167 21T133 -50H86Q104 -9 117 26T137 97T148 169T152 252Q152 297 148 341T135 424T114 497T87 555H135Q179 474 195 400T211 252Z"  />
<glyph unicode="*" horiz-adv-x="390" d="M354 604Q351 602 333 597T295 583Q271 574 242 564Q240 565 237 570T233 578Q234 579 248 591T279 617Q298 634 324 655Q333 646 337 642T344 633T349 623T354 604ZM225 713Q224 711 221 692T214 652Q210 626 204 596Q202 594 196 594T187 596Q186 597 183 615T176 655L166 713Q178 716 184 717T196 719T207 718T225 713ZM353 489Q350 476 348 470T344 460T337 451T324 438Q322 440 308 452T277 478Q258 495 233 515Q233 517 236 522T242 529Q243 528 261 523T299 509L353 489ZM157 578Q156 575 154 570T149 563Q147 563 130 569T91 583Q66 592 36 604Q39 616 41 622T45 632T52 641T66 655Q68 653 82 641T113 615Q132 598 157 578ZM225 380Q213 377 207 376T195 374T184 375T166 380Q166 382 169 400T177 441L187 497Q189 499 195 499T205 497Q205 496 208 478T215 438L225 380ZM67 438Q58 447 53 451T46 460T42 470T37 488Q39 489 57 495T95 510Q119 519 148 530L157 514L67 438Z"  />
<glyph unicode="+" horiz-adv-x="535" d="M294 223V52H239V223H68V278H239V449H294V278H467V223H294Z"  />
<glyph unicode="&#x2c;" horiz-adv-x="228" d="M70 -123H28L72 86H150L70 -123Z"  />
<glyph unicode="-" horiz-adv-x="492" d="M92 251V308H396V251H92Z"  />
<glyph unicode="." horiz-adv-x="227" d="M60 0V80H145V0H60Z"  />
<glyph unicode="/" horiz-adv-x="261" d="M56 -60H5L205 562H256L56 -60Z"  />
<glyph unicode="0" horiz-adv-x="493" d="M471 250Q471 193 455 145T410 60T340 4T247 -16Q195 -16 154 4T83 61T38 146T22 252Q22 306 37 354T82 438T152 495T247 516Q300 516 342 495T412 438T456 354T471 250ZM404 250Q404 317 387 360T346 428T294 462T247 472Q227 472 200 463T149 428T108 360T91 250Q91 181 109 138T151 71T202 38T247 29Q267 29 294 38T345 73T387 141T404 250Z"  />
<glyph unicode="1" horiz-adv-x="493" d="M250 0V433Q233 417 210 403T165 377Q140 364 114 352V407Q149 422 178 438Q203 452 225 468T254 502H312V0H250Z"  />
<glyph unicode="2" horiz-adv-x="493" d="M73 0V67Q127 102 176 138Q218 169 262 204T335 271Q360 299 367 319T375 365Q375 398 364 418T337 449T301 464T266 468Q224 468 199 454T160 421T142 382T139 351H77Q77 362 81 389T105 444T162 495T268 517Q315 517 347 502T398 465T426 416T434 365Q434 328 417 294T380 239Q370 228 355 215T320 186T279 156T238 126Q190 92 136 55H442V0H73Z"  />
<glyph unicode="3" horiz-adv-x="493" d="M432 128Q432 89 416 62T372 18T310 -7T235 -15Q199 -15 172 -8T126 10T93 36T71 66Q52 102 51 148H112Q112 136 116 117T133 79T170 46T235 32Q302 32 336 60T370 141Q370 162 364 177T346 204T321 222T293 235Q260 246 217 245V289Q225 289 249 293T300 306T347 332T368 374Q368 409 352 428T315 455T271 465T236 467Q195 467 171 453T133 419T116 380T112 349H51Q56 396 77 433Q86 449 99 464T132 491T177 510T236 517Q270 517 304 510T367 487T412 443T430 376Q430 344 413 325T375 294T337 278T320 269Q320 267 337 262T376 243T414 201T432 128Z"  />
<glyph unicode="4" horiz-adv-x="493" d="M359 148V0H298V148H49V203L275 502H359V197H459V148H359ZM297 458L100 197H298L297 458Z"  />
<glyph unicode="5" horiz-adv-x="493" d="M445 168Q445 135 431 103T392 44T330 1T251 -15Q210 -15 174 -6T111 22T69 67T53 130H115Q115 82 152 59T252 35Q282 35 306 46T347 75T373 117T383 168Q383 193 377 218T356 264T316 297T251 310Q219 310 196 301T158 281T136 257T129 239H66L77 502H412V447H131Q128 403 126 370Q125 356 125 342T124 318T123 301T122 294Q126 300 136 310T163 331T203 350T254 358Q307 358 343 341T402 296T435 235T445 168Z"  />
<glyph unicode="6" horiz-adv-x="493" d="M453 167Q453 132 441 100T404 42T345 1T263 -15Q201 -15 161 8T96 68T63 153T53 250Q53 285 59 331T88 418T151 488T260 517Q311 517 346 499T402 457T432 409T442 373H388Q386 390 377 407T352 439T313 463T262 472Q224 472 199 458T157 421T132 371T120 318T116 270T115 237Q128 265 149 287Q167 306 195 321T262 337Q308 337 343 324T403 287T440 233T453 167ZM396 167Q396 183 390 204T368 245T328 279T264 293Q234 293 210 283T167 256T140 216T130 167Q130 137 139 112T166 68T208 39T264 28Q282 28 305 34T348 57T382 99T396 167Z"  />
<glyph unicode="7" horiz-adv-x="493" d="M252 0H185L359 447H68V503H412V429L252 0Z"  />
<glyph unicode="8" horiz-adv-x="493" d="M470 136Q470 107 459 77T421 23T352 -16T247 -32Q185 -32 142 -17T73 23T35 78T23 138Q23 181 45 207T93 248T141 267T163 276Q163 279 146 284T109 301T71 334T54 392Q54 427 68 453T109 497T170 523T247 532Q289 532 324 523T384 497T424 454T439 393Q439 357 422 335T384 301T346 284T329 276Q329 273 351 268T399 248T448 208T470 136ZM379 392Q379 419 367 438T335 468T293 485T247 490Q222 490 199 485T157 468T127 437T115 391Q115 367 130 350T167 322T210 305T247 300Q262 300 284 305T328 322T364 350T379 392ZM403 130Q403 161 391 183T357 219T308 241T247 248Q219 248 191 242T141 223T104 187T90 131Q90 104 103 83T137 46T187 24T247 16Q279 16 307 23T357 46T390 82T403 130Z"  />
<glyph unicode="9" horiz-adv-x="493" d="M445 253Q445 217 436 171T403 84T335 14T223 -15Q184 -15 156 -6T107 18T74 51T54 88T44 123T41 151H104Q104 142 107 122T122 81T159 45T226 29Q268 29 296 45T342 85T369 139T382 197T386 249T386 283Q373 254 351 231Q332 211 302 195T224 179Q184 179 151 192T93 227T55 277T41 335Q41 373 54 406T90 464T147 503T223 517Q273 517 309 503T370 465T409 413T432 354T442 298T445 253ZM328 436Q309 455 285 465T235 475T184 468T139 441Q119 423 109 400T97 353T105 306T132 263Q151 244 175 234T225 224T276 231T321 258Q341 276 352 299T363 346T356 393T328 436Z"  />
<glyph unicode=":" horiz-adv-x="245" d="M60 356V436H145V356H60ZM60 0V80H145V0H60Z"  />
<glyph unicode=";" horiz-adv-x="238" d="M66 356V437H151V356H66ZM70 -123H28L72 86H150L70 -123Z"  />
<glyph unicode="&lt;" horiz-adv-x="660" d="M79 225V279L579 501V437L158 251L579 55V-11L79 225Z"  />
<glyph unicode="=" horiz-adv-x="535" d="M68 301V349H466V301H68ZM68 148V201H466V148H68Z"  />
<glyph unicode="&gt;" horiz-adv-x="660" d="M78 -11V55L499 251L78 437V501L578 279V225L78 -11Z"  />
<glyph unicode="?" horiz-adv-x="495" d="M454 464Q454 426 441 398T407 348T365 313T324 289Q298 275 284 267T263 248T255 221T253 177V142H198V176Q198 199 199 217T205 251T221 279T252 302Q264 308 287 319T333 350T374 397T391 464Q391 495 382 521T355 566T309 596T242 607Q213 607 187 597T142 569T111 526T100 469Q100 451 103 437T109 413T113 398T113 392H63Q55 399 50 410Q45 419 41 433T37 467Q37 513 55 548T102 608T167 644T242 656Q285 656 323 644T391 608T437 548T454 464ZM185 0V80H271V0H185Z"  />
<glyph unicode="@" horiz-adv-x="968" d="M928 94Q861 -57 765 -130Q659 -212 497 -212Q298 -212 177 -82Q61 43 61 237Q61 434 196 565Q333 696 537 696Q687 696 783 597Q879 499 879 341Q879 202 802 92Q725 -16 627 -16Q530 -16 526 60Q525 82 534 129Q502 92 481 69T447 34Q388 -16 344 -16Q299 -16 274 21Q252 52 252 103Q252 213 338 338Q430 469 533 469Q563 469 583 444T608 384L628 449L710 459L616 142Q603 102 603 68Q603 18 639 18Q715 18 780 119Q845 223 845 345Q845 481 753 576Q663 668 539 668Q348 668 225 538Q105 412 105 227Q105 60 214 -58Q328 -182 503 -182Q784 -182 898 94H928ZM585 369Q585 397 563 419Q540 443 520 443Q444 443 378 321Q320 212 320 118Q320 48 375 48Q446 48 518 165Q585 274 585 369Z"  />
<glyph unicode="A" horiz-adv-x="750" d="M742 0H462V18Q536 18 536 61Q536 80 524 107L473 227H208L156 107Q144 80 144 62Q144 18 223 18V0H6V18Q65 18 103 107L356 696H380L629 107Q650 57 671 39Q695 18 742 18V0ZM454 265L341 539L223 265H454Z"  />
<glyph unicode="B" horiz-adv-x="672" d="M621 184Q621 104 561 52Q503 0 405 0H20V18Q74 18 95 36T116 108V572Q116 625 95 643T20 662V680H365Q465 680 526 634Q589 587 589 513Q589 456 565 422Q541 388 476 353V351Q543 340 582 296T621 184ZM483 503Q483 567 441 605Q394 646 305 646Q284 646 263 643T220 635V377Q244 370 351 370Q412 370 447 408T483 503ZM509 180Q509 249 468 290Q422 336 327 336Q301 336 275 335T220 329V50Q243 45 271 42T333 39Q419 39 466 81Q509 118 509 180Z"  />
<glyph unicode="C" horiz-adv-x="685" d="M652 159Q610 84 545 37Q468 -16 386 -16Q234 -16 133 85Q32 186 32 332Q32 483 138 589Q245 696 389 696Q442 696 481 684Q494 680 506 675T532 662Q554 650 564 650Q575 650 586 663T601 696H618L635 465H611Q601 547 541 604Q483 662 406 662Q293 662 222 567Q154 475 154 328Q154 188 232 104Q305 23 421 23Q540 23 635 169L652 159Z"  />
<glyph unicode="D" horiz-adv-x="737" d="M705 346Q705 197 612 101Q514 0 347 0H20V18Q74 18 95 36T116 108V572Q116 625 95 643T20 662V680H322Q512 680 600 598Q705 500 705 346ZM583 344Q583 471 511 558Q439 646 330 646Q283 646 220 629V50Q259 34 330 34Q438 34 509 117Q583 206 583 344Z"  />
<glyph unicode="E" horiz-adv-x="625" d="M607 191L546 0H20V18Q74 18 95 36T116 108V572Q116 625 95 643T20 662V680H542L550 518H532Q519 583 489 613Q456 646 392 646H220V388H367Q469 388 469 476H487V246H469Q469 354 369 354H220V76Q220 59 232 47T260 34H402Q534 34 583 191H607Z"  />
<glyph unicode="F" horiz-adv-x="552" d="M532 518H514Q501 583 471 613Q438 646 374 646H220V388H323Q425 388 425 476H443V246H425Q425 354 325 354H220V108Q220 55 241 37T316 18V0H20V18Q74 18 95 36T116 108V572Q116 625 95 643T20 662V680H524L532 518Z"  />
<glyph unicode="G" horiz-adv-x="758" d="M726 345Q687 345 672 327T657 260V50Q546 -16 386 -16Q234 -16 133 85Q32 186 32 332Q32 483 138 589Q245 696 389 696Q458 696 516 673Q574 650 576 650Q587 650 598 663T613 696H630L647 465H623Q573 662 406 662Q293 662 222 567Q154 475 154 328Q154 188 232 104Q305 23 421 23Q500 23 553 70V260Q553 284 549 300T534 327T505 341T458 345V363H726V345Z"  />
<glyph unicode="H" horiz-adv-x="751" d="M731 0H435V18Q489 18 510 36T531 108V336H220V108Q220 55 241 37T316 18V0H20V18Q74 18 95 36T116 108V572Q116 625 95 643T20 662V680H316V662Q262 662 241 644T220 572V370H531V572Q531 625 510 643T435 662V680H731V662Q677 662 656 644T635 572V108Q635 55 656 37T731 18V0Z"  />
<glyph unicode="I" horiz-adv-x="342" d="M319 0H23V18Q77 18 98 36T119 108V572Q119 625 98 643T23 662V680H319V662Q265 662 244 644T223 572V108Q223 55 244 37T319 18V0Z"  />
<glyph unicode="J" horiz-adv-x="397" d="M387 662Q333 662 312 644T291 572V218Q291 103 240 44T101 -16Q59 -16 34 3Q4 25 4 62Q4 83 21 97T59 112Q89 112 103 88L122 41Q133 18 153 18Q187 18 187 83V572Q187 625 166 643T91 662V680H387V662Z"  />
<glyph unicode="K" horiz-adv-x="752" d="M761 0H444V18Q492 18 492 54Q492 72 454 110L220 345V108Q220 55 241 37T316 18V0H20V18Q74 18 95 36T116 108V572Q116 625 95 643T20 662V680H316V662Q262 662 241 644T220 572V379L437 575Q483 617 483 638Q483 662 420 662V680H671V661Q648 661 628 657T589 644T550 620T506 583L304 394L580 119Q615 84 639 63T678 34Q706 18 761 18V0Z"  />
<glyph unicode="L" horiz-adv-x="628" d="M610 185L551 0H20V18Q74 18 95 36T116 108V572Q116 625 95 643T20 662V680H316V662Q262 662 241 644T220 572V85Q220 64 231 49T259 34H386Q540 34 590 190L610 185Z"  />
<glyph unicode="M" horiz-adv-x="926" d="M904 0H608V18Q662 18 683 36T704 108V557H700L447 0H426L169 553H162V108Q162 55 183 37T258 18V0H20V18Q74 18 95 36T116 108V572Q116 625 95 643T20 662V680H222L463 158H468L704 680H904V662Q850 662 829 644T808 572V108Q808 55 829 37T904 18V0Z"  />
<glyph unicode="N" horiz-adv-x="739" d="M722 662Q668 662 647 644T626 572V-16H602L163 537H159V108Q159 55 180 37T255 18V0H17V18Q71 18 92 36T113 108V566Q113 587 104 604T80 635T45 655T0 662V680H171L576 183H580V572Q580 625 559 643T484 662V680H722V662Z"  />
<glyph unicode="O" horiz-adv-x="746" d="M714 344Q714 195 615 89Q516 -16 373 -16Q230 -16 131 89Q32 195 32 344Q32 491 131 593Q230 696 373 696Q516 696 615 593Q714 491 714 344ZM592 344Q592 487 535 573Q476 662 373 662Q269 662 210 573Q154 487 154 344Q154 200 210 111Q268 18 373 18Q476 18 535 111Q592 199 592 344Z"  />
<glyph unicode="P" horiz-adv-x="576" d="M544 486Q544 397 480 348Q424 303 341 303Q266 303 220 315V108Q220 55 241 37T316 18V0H20V18Q74 18 95 36T116 108V572Q116 625 95 643T20 662V680H312Q411 680 476 630Q544 576 544 486ZM432 479Q432 549 392 595Q351 642 294 642Q249 642 220 632V353Q269 338 299 338Q363 338 399 379Q432 416 432 479Z"  />
<glyph unicode="Q" horiz-adv-x="738" d="M706 344Q706 223 634 123Q560 19 450 -6Q473 -80 542 -134Q615 -195 702 -195V-213Q576 -213 444 -141Q387 -110 344 -75T272 -2Q169 26 100 128Q32 232 32 344Q32 493 129 593Q226 696 369 696Q512 696 609 593Q706 493 706 344ZM588 344Q588 487 531 573Q472 662 369 662Q265 662 206 573Q150 487 150 344Q150 200 206 111Q264 18 369 18Q475 31 531 115T588 344Z"  />
<glyph unicode="R" horiz-adv-x="691" d="M702 0H508L293 320H220V108Q220 55 241 37T316 18V0H20V18Q74 18 95 36T116 108V572Q116 625 95 643T20 662V680H330Q436 680 498 630Q554 583 554 503Q554 440 513 394T403 330L548 117Q615 18 702 18V0ZM442 499Q442 563 405 603Q368 646 312 646Q252 646 220 633V354H280Q316 354 345 364T396 393T430 439T442 499Z"  />
<glyph unicode="S" horiz-adv-x="560" d="M510 179Q510 97 451 41Q388 -16 283 -16Q232 -16 177 4Q130 22 115 22Q89 22 83 -16H65V214H83Q90 125 153 72Q212 22 291 22Q344 22 381 53Q420 84 420 134Q420 202 326 260L152 360Q58 426 58 513Q58 591 114 644Q169 696 260 696Q296 696 345 680Q348 679 356 676T379 666Q401 658 410 658Q424 658 435 670T447 696H465V459H446Q437 553 389 605T260 658Q207 658 171 622Q138 590 138 549Q138 490 234 432L414 328Q510 260 510 179Z"  />
<glyph unicode="T" horiz-adv-x="590" d="M578 518H560Q547 583 517 613Q484 646 420 646H346V108Q346 55 367 37T442 18V0H146V18Q200 18 221 36T242 108V646H168Q104 646 73 615T28 518H10L18 680H570L578 518Z"  />
<glyph unicode="U" horiz-adv-x="752" d="M743 662Q689 662 668 644T647 572V239Q647 126 584 59Q512 -16 376 -16Q252 -16 180 60Q113 130 113 241V572Q113 625 92 643T17 662V680H313V662Q259 662 238 644T217 572V239Q217 151 270 89Q322 28 409 28Q496 28 550 90Q601 148 601 239V572Q601 625 580 643T505 662V680H743V662Z"  />
<glyph unicode="V" horiz-adv-x="724" d="M721 662Q660 662 614 547L386 -16H360L102 578Q82 624 59 643T0 662V680H278V662Q204 662 204 615Q204 598 218 562L401 139L569 555Q581 583 581 606Q581 662 511 662V680H721V662Z"  />
<glyph unicode="W" horiz-adv-x="946" d="M950 662Q908 662 889 635Q876 621 855 557L660 -16H636L479 415L326 -16H302L98 554Q75 617 60 636Q40 662 0 662V680H252V662Q185 662 185 625Q185 609 202 558L342 163L455 481L429 555Q407 616 392 634Q368 662 323 662V680H588V662Q520 662 520 624Q520 599 535 556L671 163L809 559Q820 595 820 612Q820 662 747 662L748 680H950V662Z"  />
<glyph unicode="X" horiz-adv-x="742" d="M734 0H439V17Q506 18 506 56Q506 76 486 108L360 298L217 114Q190 87 190 60Q190 18 252 18V0H0V18Q41 18 87 46Q132 71 158 107L335 338L168 579Q109 662 24 662V680H343V662Q271 662 271 624Q271 605 291 576L398 418L522 575Q548 610 548 628Q548 662 479 662V680H718V661Q679 662 650 645T587 586L421 377L613 108Q630 84 642 69T663 45Q694 18 734 18V0Z"  />
<glyph unicode="Y" horiz-adv-x="694" d="M695 662Q674 662 657 658T626 643T598 617T569 577L391 294V108Q391 55 412 37T487 18V0H191V18Q245 18 266 36T287 108V283L86 585Q60 624 44 640Q22 662 -16 662V680H280V662Q197 662 199 615Q199 596 217 568L364 332L517 578Q527 594 527 613Q527 662 456 662V680H695V662Z"  />
<glyph unicode="Z" horiz-adv-x="622" d="M598 178L566 0H10V17L448 641H238Q162 641 131 613Q100 586 89 509H71L86 680H597L146 39H421Q446 39 470 49T515 78T552 122T580 178H598Z"  />
<glyph unicode="[" horiz-adv-x="321" d="M84 -51V556H242V491H144V12H242V-51H84Z"  />
<glyph unicode="\" horiz-adv-x="275" d="M274 -16H227L-1 696H46L274 -16Z"  />
<glyph unicode="]" horiz-adv-x="321" d="M79 -51V12H177V491H79V556H237V-51H79Z"  />
<glyph unicode="^" horiz-adv-x="496" d="M484 328H421L247 620L72 328H12L232 696H264L484 328Z"  />
<glyph unicode="_" horiz-adv-x="550" d="M550 -146H0V-100H550V-146Z"  />
<glyph unicode="`" horiz-adv-x="201" d="M190 719H162L11 896H137L190 719Z"  />
<glyph unicode="a" horiz-adv-x="445" d="M439 58Q398 -10 332 -10Q307 -10 294 15Q282 34 282 63Q256 41 242 29T223 14Q185 -10 139 -10Q90 -10 61 22T32 105Q32 183 117 232Q150 251 282 298V326Q282 439 201 439Q133 439 133 369Q133 308 92 308Q73 308 61 323T48 362Q48 406 98 438Q147 469 217 469Q365 469 365 347V87Q365 52 388 52Q414 52 439 92V58ZM282 268Q115 209 115 129Q115 96 135 71T183 46Q220 46 282 96V268Z"  />
<glyph unicode="b" horiz-adv-x="506" d="M468 264Q468 153 400 70Q332 -10 235 -10Q135 -10 74 45V550Q74 598 70 607Q65 625 44 625Q35 625 3 617L-4 635L133 696H157V374Q167 393 182 410T219 441Q262 469 301 469Q373 469 420 409Q468 350 468 264ZM381 235Q381 303 345 351Q309 399 259 399Q231 399 202 383T157 343V75Q202 28 252 28Q309 28 345 86Q381 144 381 235Z"  />
<glyph unicode="c" horiz-adv-x="450" d="M421 174Q400 86 351 38T229 -10Q147 -10 89 56Q32 123 32 218Q32 321 95 395Q160 469 249 469Q321 469 364 438Q410 407 410 360Q410 339 393 324T355 309Q333 309 320 324T306 360Q306 435 236 435Q209 435 187 423T148 390T124 339T115 277Q115 184 155 123Q195 60 261 60Q354 60 402 180L421 174Z"  />
<glyph unicode="d" horiz-adv-x="510" d="M511 53L371 -10H347V45Q286 -10 209 -10Q136 -10 84 59Q32 129 32 224Q32 317 97 394Q163 469 252 469Q305 469 347 427V550Q347 598 343 607Q338 625 317 625Q308 625 276 617L269 635L406 696H430V136Q430 91 439 75T472 59Q487 59 505 67L511 53ZM347 314Q347 366 314 402Q282 435 243 435Q192 435 158 383Q124 331 124 250Q124 163 162 101Q201 40 256 40Q308 40 347 87V314Z"  />
<glyph unicode="e" horiz-adv-x="462" d="M435 161Q417 89 359 40Q300 -10 237 -10Q152 -10 92 55Q32 121 32 213Q32 325 89 397Q146 469 238 469Q318 469 371 415Q424 362 424 284H112Q112 189 154 125Q196 60 260 60Q313 60 360 90Q406 121 417 164L435 161ZM320 308Q320 360 288 398Q257 435 212 435Q174 435 145 397Q117 360 112 308H320Z"  />
<glyph unicode="f" horiz-adv-x="292" d="M409 615Q409 576 368 576Q337 576 315 619Q293 662 258 662Q245 662 233 655T211 636T195 609T189 576V459H301V425H189V107Q189 56 203 37T261 18V0H34V18Q78 18 93 39Q106 55 106 107V425H18V459H106V528Q106 597 151 647Q197 696 262 696Q409 696 409 615Z"  />
<glyph unicode="g" d="M474 -36Q474 -77 457 -109T408 -164T329 -199T226 -212Q20 -212 20 -118Q20 -83 51 -49Q58 -41 73 -26T113 11Q58 30 58 67Q58 81 64 96T82 124T109 149T143 168Q53 210 53 304Q53 372 106 420Q158 469 237 469Q322 469 355 436H474V398H395Q422 356 422 309Q422 238 368 193Q312 149 228 149Q196 149 167 159Q138 133 138 106Q138 76 191 74L346 67Q474 61 474 -36ZM332 286Q332 353 301 399Q270 445 227 445Q146 445 146 321Q146 289 153 262T173 216T203 185T242 173Q278 173 305 206Q332 239 332 286ZM436 -69Q436 -10 332 -10Q268 -10 220 -7T138 4Q100 -28 100 -74Q100 -107 140 -128Q183 -152 258 -152Q334 -152 389 -126Q436 -100 436 -69Z"  />
<glyph unicode="h" horiz-adv-x="520" d="M506 0H279V18Q323 18 338 39Q351 55 351 107V315Q351 407 284 407Q228 407 167 341V107Q167 56 181 37T239 18V0H12V18Q56 18 71 39Q84 55 84 107V550Q84 598 80 607Q75 625 54 625Q45 625 13 617L6 635L143 696H167V376Q242 469 329 469Q373 469 403 428Q434 388 434 330V107Q434 56 448 37T506 18V0Z"  />
<glyph unicode="i" horiz-adv-x="278" d="M192 650Q192 631 178 618T144 604Q124 604 110 617T96 650Q96 669 110 682T144 696Q164 696 178 683T192 650ZM258 0H31V18Q75 18 90 39Q103 55 103 107V323Q103 371 99 380Q94 398 73 398Q64 398 32 390L25 408L162 469H186V107Q186 56 200 37T258 18V0Z"  />
<glyph unicode="j" horiz-adv-x="278" d="M192 650Q192 631 178 618T144 604Q124 604 110 617T96 650Q96 669 110 682T144 696Q164 696 178 683T192 650ZM186 0Q186 -131 142 -178Q109 -212 19 -212Q-18 -212 -40 -196T-63 -157Q-63 -118 -20 -118Q-2 -118 18 -148Q39 -178 60 -178Q103 -178 103 -100V323Q103 371 99 380Q94 398 73 398Q64 398 32 390L25 408L162 469H186V0Z"  />
<glyph unicode="k" horiz-adv-x="510" d="M525 0H298V18Q328 18 328 41Q328 56 291 102L171 252V107Q171 56 185 37T243 18V0H16V18Q60 18 75 39Q88 55 88 107V550Q88 598 84 607Q79 625 58 625Q49 625 17 617L10 635L147 696H171V261L282 362Q300 379 318 396T336 425Q336 441 300 441V459H490V441Q447 441 414 427Q400 420 380 405T331 366L247 293L383 121Q432 60 460 38Q489 18 525 18V0Z"  />
<glyph unicode="l" horiz-adv-x="277" d="M253 0H26V18Q70 18 85 39Q98 55 98 107V550Q98 598 94 607Q89 625 68 625Q59 625 27 617L20 635L157 696H181V107Q181 56 195 37T253 18V0Z"  />
<glyph unicode="m" horiz-adv-x="805" d="M797 0H570V18Q614 18 629 39Q642 55 642 107V312Q642 351 620 379T567 407Q533 407 499 388T448 342V107Q448 56 462 37T520 18V0H293V18Q337 18 352 39Q365 55 365 107V312Q365 331 359 348T343 379T319 399T290 407Q259 407 225 388T171 342V107Q171 56 185 37T243 18V0H16V18Q60 18 75 39Q88 55 88 107V323Q88 371 84 380Q79 398 58 398Q49 398 17 390L10 408L147 469H171V374Q207 416 248 441Q294 469 331 469Q371 469 405 441Q439 412 447 372Q467 412 516 440Q566 469 611 469Q658 469 691 426Q725 386 725 325V107Q725 56 739 37T797 18V0Z"  />
<glyph unicode="n" horiz-adv-x="518" d="M510 0H283V18Q327 18 342 39Q355 55 355 107V315Q355 407 288 407Q232 407 171 341V107Q171 56 185 37T243 18V0H16V18Q60 18 75 39Q88 55 88 107V323Q88 371 84 380Q79 398 58 398Q49 398 17 390L10 408L147 469H171V376Q246 469 333 469Q377 469 407 428Q438 388 438 330V107Q438 56 452 37T510 18V0Z"  />
<glyph unicode="o" horiz-adv-x="506" d="M474 243Q474 136 411 63Q348 -10 253 -10Q158 -10 95 58Q32 125 32 224Q32 327 95 398Q158 469 253 469Q348 469 411 403Q474 338 474 243ZM381 196Q381 435 233 435Q190 435 157 385Q125 335 125 266Q125 163 163 95Q204 24 269 24Q317 24 349 74Q381 127 381 196Z"  />
<glyph unicode="p" horiz-adv-x="516" d="M484 253Q484 135 429 65Q373 -10 280 -10Q214 -10 168 24V-87Q168 -138 182 -157T240 -176V-194H13V-176Q57 -176 71 -157T85 -87V323Q85 371 81 380Q76 398 55 398Q46 398 14 390L7 408L144 469H168V366Q240 469 320 469Q393 469 438 406Q484 345 484 253ZM392 205Q392 305 361 357Q332 407 283 407Q218 407 168 333V124Q168 82 199 53T280 24Q327 24 359 74Q392 125 392 205Z"  />
<glyph unicode="q" horiz-adv-x="512" d="M503 -194H276V-176Q320 -176 334 -157T348 -87V72Q281 -10 199 -10Q130 -10 81 53Q32 117 32 207Q32 315 98 392Q166 469 260 469Q326 469 348 435L411 469H431V-87Q431 -138 445 -157T503 -176V-194ZM348 348Q348 381 323 406Q294 435 249 435Q195 435 157 382Q119 329 119 255Q119 174 155 117Q191 60 242 60Q278 60 309 79Q338 96 348 116V348Z"  />
<glyph unicode="r" horiz-adv-x="344" d="M353 414Q353 369 305 369Q285 369 267 384Q249 399 236 399Q209 399 169 327V107Q169 56 183 37T241 18V0H14V18Q58 18 73 39Q86 55 86 107V323Q86 371 82 380Q77 398 56 398Q47 398 15 390L8 408L145 469H169V373Q227 469 288 469Q315 469 334 453T353 414Z"  />
<glyph unicode="s" horiz-adv-x="402" d="M367 129Q367 68 325 29T207 -10Q180 -10 139 1Q101 13 93 13Q78 13 72 0H54V159H72Q79 103 120 63Q160 24 209 24Q241 24 263 43T285 90Q285 136 224 170Q168 202 111 231Q50 274 50 341Q50 398 87 433T185 469Q213 469 246 460Q280 451 289 451Q305 451 310 469H328V316H310Q307 369 273 403Q238 439 193 439Q157 439 135 421T112 378Q112 332 178 298Q209 283 239 268T301 237Q367 193 367 129Z"  />
<glyph unicode="t" horiz-adv-x="290" d="M290 97Q258 -10 162 -10Q80 -10 80 97V425H8V449Q55 449 91 497Q127 545 139 617H163V459H274V425H163V97Q163 77 176 63T208 48Q246 48 268 97H290Z"  />
<glyph unicode="u" horiz-adv-x="518" d="M518 53L378 -10H354V86Q331 46 290 18Q250 -10 212 -10Q157 -10 118 32Q80 76 80 133V362Q80 408 65 424T8 441V459H163V133Q163 98 190 74T255 50Q280 50 309 71T354 124V362Q354 408 339 424T282 441V459H437V136Q437 91 446 75T479 59Q494 59 512 67L518 53Z"  />
<glyph unicode="v" horiz-adv-x="494" d="M485 441Q447 441 422 381L259 -10H235L72 371Q54 413 40 427T0 441V459H208V441Q155 441 155 412Q155 393 170 356L270 112L374 366Q387 395 387 422Q387 441 330 441V459H485V441Z"  />
<glyph unicode="w" horiz-adv-x="753" d="M753 441Q709 441 685 416Q666 397 649 348L517 -10H493L374 298L255 -10H231L92 344Q79 378 69 398T52 426Q38 441 0 441V459H200V441Q161 441 161 416Q161 393 179 348L269 124L355 344L345 370Q337 392 316 414Q289 441 256 441V459H488V441Q425 441 425 408Q425 393 442 348L532 124L607 338Q627 398 627 410Q627 441 583 441V459H753V441Z"  />
<glyph unicode="x" horiz-adv-x="503" d="M497 0H272L273 18Q320 18 320 47Q320 58 291 102L225 203L136 88Q119 65 119 44Q119 18 161 18V0H12V18Q41 18 84 76L203 233L111 380Q74 441 8 441V459H224V441Q193 441 192 419Q191 409 211 375L256 304L296 360Q328 407 328 421Q328 441 288 441V459H448V441Q421 441 400 426Q374 408 334 354L275 275L402 87Q448 18 497 18V0Z"  />
<glyph unicode="y" horiz-adv-x="514" d="M497 441Q469 441 456 423Q446 411 426 362L241 -90Q219 -144 180 -178T100 -212Q73 -212 54 -198T33 -163Q31 -112 84 -112Q104 -112 119 -121T150 -130Q181 -130 216 -47L245 23L102 323Q47 441 0 441V459H211V441Q162 441 162 405Q162 393 197 317L286 129L381 363Q395 399 395 413Q395 441 348 441V459H497V441Z"  />
<glyph unicode="z" horiz-adv-x="463" d="M440 441L132 34H327Q367 34 387 49Q414 69 420 146H438L428 0H20V24L322 425H157Q117 425 100 408Q78 386 76 332H58V459H440V441Z"  />
<glyph unicode="{" horiz-adv-x="351" d="M290 -182Q260 -182 234 -179T187 -163T155 -129T143 -68V139Q143 154 139 171T126 203T101 228T61 238V286Q85 286 101 296T126 321T139 353T143 385V579Q143 617 155 639T187 674T233 689T290 693V645Q264 645 248 639T223 623T211 597T207 563V402Q207 376 205 355T193 316T167 286T120 263V261Q148 256 165 246T191 220T204 183T207 136V-52Q207 -71 210 -86T223 -111T248 -128T290 -134V-182H290Z"  />
<glyph unicode="|" horiz-adv-x="228" d="M140 -158H82V572H140V-158Z"  />
<glyph unicode="}" horiz-adv-x="351" d="M290 238Q266 238 250 228T225 203T212 171T208 139V-68Q208 -106 196 -128T164 -163T118 -178T61 -182V-134Q87 -134 103 -128T128 -112T140 -86T144 -52V136Q144 162 147 183T159 220T186 246T231 261V263Q201 272 184 285T158 316T147 354T144 402V563Q144 582 141 597T128 622T103 639T61 645V693Q91 693 117 690T164 674T196 640T208 579V385Q208 370 212 353T225 321T250 296T290 286V238H290Z"  />
<glyph unicode="~" horiz-adv-x="398" d="M360 380Q360 344 326 325Q301 309 261 309Q216 309 167 329L135 345Q115 354 103 354Q62 354 59 318H38Q38 332 45 345Q72 396 139 396Q175 396 226 374Q280 353 301 353Q336 353 338 380H360Z"  />
<glyph unicode="&#xA0;" horiz-adv-x="280" />
<glyph unicode="&#xA1;" horiz-adv-x="277" d="M206 453Q206 430 189 414T146 398Q121 398 104 414T86 453Q86 476 103 492T146 509Q171 509 188 493T206 453ZM208 -48Q208 -138 145 -138Q80 -138 80 -48Q80 -29 83 -7T91 41L111 128Q116 157 122 211T134 347H155Q157 321 158 296T162 244Q168 176 177 128Q183 105 195 50Q208 -1 208 -48Z"  />
<glyph unicode="&#xA2;" d="M445 175Q400 -10 257 -10Q215 -10 175 11L99 -194H59L142 32Q59 100 59 218Q59 322 123 395Q188 469 277 469Q285 469 291 469T303 468L382 680H422L341 461Q438 436 438 360Q438 339 421 324T383 309Q361 309 348 324T334 360Q334 394 323 411L208 100Q244 64 290 64Q383 64 431 183L445 175ZM290 432Q279 435 264 435Q237 435 215 423T176 390T152 339T143 277Q143 196 180 135L290 432Z"  />
<glyph unicode="&#xA3;" horiz-adv-x="530" d="M501 152Q493 82 457 37Q415 -16 347 -16Q257 -16 180 67Q145 -16 84 -16Q58 -16 39 3T20 51Q20 86 45 109T109 132Q117 132 131 130T151 127Q153 146 154 165T156 207Q156 238 153 272T145 345H42V379H140Q134 439 134 470Q134 565 182 627Q236 696 332 696Q392 696 430 661Q462 629 462 595Q462 579 450 566T422 552Q381 552 380 613Q379 665 317 665Q222 665 222 523Q222 498 225 463T233 379H369L370 345H236L235 297Q234 249 226 205T201 117Q288 76 370 76Q461 76 484 156L501 152ZM147 86Q124 100 101 100Q52 100 52 57Q52 15 85 15Q129 15 147 86Z"  />
<glyph unicode="&#xA4;" horiz-adv-x="530" d="M520 125L490 96L412 171Q354 119 265 119Q176 119 118 171L40 96L10 125L88 200Q33 255 33 341Q33 421 88 482L10 557L40 586L118 511Q176 563 265 563Q354 563 412 511L490 586L520 557L442 482Q497 424 497 341Q497 258 442 200L520 125ZM453 341Q453 416 397 469Q341 522 265 522Q188 522 132 469Q77 417 77 341Q77 264 132 212Q187 160 265 160Q342 160 397 212Q453 265 453 341Z"  />
<glyph unicode="&#xA5;" horiz-adv-x="607" d="M607 662Q518 662 479 577L454 522H552V484H437L391 384H552V346H374L351 295V108Q351 55 371 37T446 18V0H143V18Q171 18 190 22T219 36T234 63T239 108V283L212 346H44V384H195L152 484H44V522H136L108 587Q76 662 0 662V680H296V662Q219 662 219 623Q219 608 233 568L251 522H405L429 578Q438 599 438 616Q438 662 368 662V680H607V662ZM388 484H266L324 337L388 484Z"  />
<glyph unicode="&#xA6;" horiz-adv-x="164" d="M111 494H60V896H111V494ZM111 0H60V367H111V0Z"  />
<glyph unicode="&#xA7;" d="M434 237Q434 188 399 138Q369 93 318 67Q385 0 385 -57Q385 -119 341 -166Q298 -212 232 -212Q181 -212 141 -179Q101 -146 101 -98Q101 -81 113 -68T142 -54Q180 -54 180 -99Q180 -109 176 -126T172 -153Q172 -188 236 -188Q271 -188 299 -160Q329 -133 329 -102Q329 -48 259 10L130 115Q60 181 60 250Q60 358 176 423Q110 487 110 549Q110 611 153 653Q196 696 261 696Q316 696 353 665Q393 631 393 582Q393 565 381 552T352 538Q335 538 323 549T310 577Q310 585 314 601T318 626Q318 672 261 672Q222 672 194 648T166 588Q166 534 235 476L365 375Q434 310 434 237ZM380 190Q380 250 311 312L193 407Q114 364 114 294Q114 236 184 175L301 82Q380 124 380 190Z"  />
<glyph unicode="&#xA8;" horiz-adv-x="285" d="M107 800Q107 781 93 768T59 754Q39 754 25 767T11 800Q11 819 25 832T59 846Q79 846 93 833T107 800ZM283 800Q283 781 269 768T235 754Q215 754 201 767T187 800Q187 819 201 832T235 846Q255 846 269 833T283 800Z"  />
<glyph unicode="&#xA9;" horiz-adv-x="760" d="M737 341Q737 193 632 88Q528 -16 380 -16Q234 -16 127 88Q23 195 23 341Q23 488 127 592Q234 696 380 696Q528 696 632 592Q737 488 737 341ZM706 341Q706 475 610 570Q515 665 380 665Q247 665 149 570Q54 475 54 341Q54 206 150 110Q248 15 380 15Q516 15 610 109Q706 203 706 341ZM576 216Q506 113 380 113Q284 113 217 177Q149 242 149 335Q149 442 216 506Q284 571 391 571Q428 571 482 552Q500 547 500 547Q518 547 526 571H544L554 429H536Q522 484 482 515T385 547Q233 547 233 353Q233 147 401 147Q506 147 556 227L576 216Z"  />
<glyph unicode="&#xAA;" horiz-adv-x="320" d="M309 431Q260 394 231 394Q199 394 192 440Q128 394 80 394Q54 394 33 413T12 459Q12 533 192 592Q193 628 185 650Q173 677 136 677Q90 677 90 635Q90 594 58 594Q26 594 26 624Q26 663 69 681Q100 696 150 696Q265 696 265 601V461Q265 438 280 437Q280 437 309 454V431ZM192 569Q85 539 85 481Q85 463 98 450T131 437Q146 437 162 446T192 464V569Z"  />
<glyph unicode="&#xAB;" horiz-adv-x="528" d="M478 0H447L248 230L447 459H478L350 230L478 0ZM280 0H249L50 230L249 459H280L152 230L280 0Z"  />
<glyph unicode="&#xAC;" horiz-adv-x="605" d="M585 459V253H541V415H20V459H585Z"  />
<glyph unicode="&#xAE;" horiz-adv-x="760" d="M737 341Q737 193 632 88Q528 -16 380 -16Q234 -16 127 88Q23 195 23 341Q23 488 127 592Q234 696 380 696Q528 696 632 592Q737 488 737 341ZM706 341Q706 475 610 570Q515 665 380 665Q247 665 149 570Q54 475 54 341Q54 206 150 110Q248 15 380 15Q516 15 610 109Q706 203 706 341ZM612 127H511L356 330H316V213Q316 145 379 145V127H186V145Q241 145 241 213V487Q241 521 232 533T192 546V564H382Q454 564 501 538Q552 509 552 452Q552 366 435 339L537 200Q549 183 558 173T572 157Q585 145 612 145V127ZM466 445Q466 487 436 514T361 542Q338 542 316 534V353H326Q466 353 466 445Z"  />
<glyph unicode="&#xAF;" horiz-adv-x="454" d="M360 516H107V543H360V516Z"  />
<glyph unicode="&#xB0;" horiz-adv-x="400" d="M360 543Q360 480 313 433Q267 387 201 387Q131 387 85 433Q37 479 37 544Q37 607 84 651Q132 696 198 696Q264 696 312 651Q360 606 360 543ZM314 543Q314 589 279 622Q244 655 198 655Q151 655 117 622Q83 589 83 544Q83 496 117 462Q151 428 201 428Q250 428 281 462Q314 496 314 543Z"  />
<glyph unicode="&#xB1;" horiz-adv-x="568" d="M518 476H325V301H237V476H44V558H237V734H325V558H518V476ZM496 175H66V256H496V175Z"  />
<glyph unicode="&#xB2;" horiz-adv-x="308" d="M44 200V240Q76 261 106 283Q132 301 158 322T201 363Q216 380 220 392T225 419Q225 438 219 450T202 469T181 478T160 481Q135 481 120 473T96 453T85 430T83 411H46Q46 417 49 433T63 467T97 497T161 510Q189 510 208 501T238 479T255 449T260 419Q260 397 250 377T228 343Q216 330 192 311T143 275Q114 255 82 233H265V200H44Z"  />
<glyph unicode="&#xB3;" horiz-adv-x="294" d="M259 277Q259 253 250 237T224 211T186 196T141 191Q97 191 75 206T43 240Q32 261 31 289H67Q67 282 69 270T80 247T102 228T141 219Q181 219 201 236T222 285Q222 310 208 323T176 341Q156 347 130 347V373Q135 373 150 375T180 384T208 399T221 424Q221 445 212 456T189 473T163 479T142 480Q117 480 103 472T80 452T70 428T67 409H31Q34 437 46 459Q57 478 79 494T142 510Q162 510 183 506T220 492T247 466T258 426Q258 407 248 395T225 376T203 366T192 361Q192 360 202 357T225 345T248 320T259 277Z"  />
<glyph unicode="&#xB4;" horiz-adv-x="201" d="M190 896L39 719H11L64 896H190Z"  />
<glyph unicode="&#xB5;" horiz-adv-x="525" d="M519 101Q517 53 492 20Q463 -16 415 -16Q338 -16 332 80Q249 -16 166 -16Q115 -16 87 24H85Q85 -31 95 -81Q100 -110 103 -128T106 -155Q106 -212 64 -212Q19 -212 19 -154Q19 -145 22 -125T33 -72Q48 -8 48 68V459H131V178Q131 46 209 46Q273 46 332 114V459H415V122Q415 96 424 71Q434 38 453 38Q490 38 496 101H519Z"  />
<glyph unicode="&#xB6;" horiz-adv-x="539" d="M442 -194H404V668H306V-194H268V315Q215 315 172 325T97 357T48 415T30 503Q30 594 83 645T252 696H512V668H442V-194Z"  />
<glyph unicode="&#xB7;" horiz-adv-x="190" d="M137 238Q137 220 125 208T95 196Q78 196 66 208T53 238Q53 255 65 267T95 279Q113 279 125 267T137 238Z"  />
<glyph unicode="&#xB8;" horiz-adv-x="346" d="M262 -91Q262 -150 181 -150Q146 -150 98 -137L97 -106Q151 -118 180 -118Q215 -118 215 -93Q215 -61 156 -67V-6H181V-37Q262 -37 262 -91Z"  />
<glyph unicode="&#xB9;" horiz-adv-x="209" d="M122 200V460Q111 450 97 442T70 426Q55 418 40 411V444Q61 452 79 462Q94 470 107 480T124 501H159V200H122Z"  />
<glyph unicode="&#xBA;" horiz-adv-x="329" d="M318 547Q318 486 272 440Q226 394 164 394Q99 394 55 435Q12 475 12 539Q12 607 56 651Q99 696 170 696Q234 696 276 652Q318 608 318 547ZM245 515Q245 566 224 613Q197 671 150 671Q85 671 85 575Q85 524 104 480Q129 419 173 419Q245 419 245 515Z"  />
<glyph unicode="&#xBB;" horiz-adv-x="528" d="M478 230L279 0H248L376 230L248 459H279L478 230ZM280 230L81 0H50L178 230L50 459H81L280 230Z"  />
<glyph unicode="&#xBC;" horiz-adv-x="564" d="M169 -60H118L318 562H369L169 -60ZM114 250V510Q103 500 89 492T62 476Q47 468 32 461V494Q53 502 71 512Q86 520 99 530T116 551H151V250H114ZM476 89V0H440V89H290V122L426 301H476V118H536V89H476ZM439 275L321 118H440L439 275Z"  />
<glyph unicode="&#xBD;" horiz-adv-x="594" d="M179 -60H128L328 562H379L179 -60ZM136 250V510Q125 500 111 492T84 476Q69 468 54 461V494Q75 502 93 512Q108 520 121 530T138 551H173V250H136ZM319 0V40Q351 61 381 83Q407 101 433 122T476 163Q491 180 495 192T500 219Q500 238 494 250T477 269T456 278T435 281Q410 281 395 273T371 253T360 230T358 211H321Q321 217 324 233T338 267T372 297T436 310Q464 310 483 301T513 279T530 249T535 219Q535 197 525 177T503 143Q491 130 467 111T418 75Q389 55 357 33H540V0H319Z"  />
<glyph unicode="&#xBE;" horiz-adv-x="573" d="M175 -60H124L324 562H375L175 -60ZM136 250V510Q125 500 111 492T84 476Q69 468 54 461V494Q75 502 93 512Q108 520 121 530T138 551H173V250H136ZM538 77Q538 53 529 37T503 11T465 -4T420 -9Q376 -9 354 6T322 40Q311 61 310 89H346Q346 82 348 70T359 47T381 28T420 19Q460 19 480 36T501 85Q501 110 487 123T455 141Q435 147 409 147V173Q414 173 429 175T459 184T487 199T500 224Q500 245 491 256T468 273T442 279T421 280Q396 280 382 272T359 252T349 228T346 209H310Q313 237 325 259Q336 278 358 294T421 310Q441 310 462 306T499 292T526 266T537 226Q537 207 527 195T504 176T482 166T471 161Q471 160 481 157T504 145T527 120T538 77Z"  />
<glyph unicode="&#xBF;" horiz-adv-x="431" d="M259 642Q259 620 243 604T203 588Q180 588 164 604T147 642Q147 664 163 680T203 696Q226 696 242 680T259 642ZM406 146Q406 108 392 78T353 27T293 -5T215 -16Q144 -16 92 21Q32 63 32 137Q32 168 48 187T88 206Q125 206 127 164Q128 152 111 120Q95 95 95 78Q95 53 123 38T189 22Q302 22 302 153Q302 209 273 272L220 378Q191 448 191 521H215Q215 457 265 389L356 275Q406 207 406 146Z"  />
<glyph unicode="&#xC0;" horiz-adv-x="750" d="M742 0H462V18Q536 18 536 61Q536 80 524 107L473 227H208L156 107Q144 80 144 62Q144 18 223 18V0H6V18Q65 18 103 107L356 696H380L629 107Q650 57 671 39Q695 18 742 18V0ZM454 265L341 539L223 265H454ZM470 719H442L291 896H417L470 719Z"  />
<glyph unicode="&#xC1;" horiz-adv-x="750" d="M742 0H462V18Q536 18 536 61Q536 80 524 107L473 227H208L156 107Q144 80 144 62Q144 18 223 18V0H6V18Q65 18 103 107L356 696H380L629 107Q650 57 671 39Q695 18 742 18V0ZM454 265L341 539L223 265H454ZM440 896L289 719H261L314 896H440Z"  />
<glyph unicode="&#xC2;" horiz-adv-x="750" d="M516 739H499L368 846L237 739H220L320 906H416L516 739ZM742 0H462V18Q536 18 536 61Q536 80 524 107L473 227H208L156 107Q144 80 144 62Q144 18 223 18V0H6V18Q65 18 103 107L356 696H380L629 107Q650 57 671 39Q695 18 742 18V0ZM454 265L341 539L223 265H454Z"  />
<glyph unicode="&#xC3;" horiz-adv-x="750" d="M742 0H462V18Q536 18 536 61Q536 80 524 107L473 227H208L156 107Q144 80 144 62Q144 18 223 18V0H6V18Q65 18 103 107L356 696H380L629 107Q650 57 671 39Q695 18 742 18V0ZM454 265L341 539L223 265H454ZM536 830Q536 794 503 775Q475 759 437 759Q392 759 343 779Q335 783 328 787T312 795Q292 804 279 804Q238 804 235 768H214Q214 781 222 795Q249 846 315 846Q352 846 403 824Q457 803 477 803Q512 803 514 830H536Z"  />
<glyph unicode="&#xC4;" horiz-adv-x="750" d="M742 0H462V18Q536 18 536 61Q536 80 524 107L473 227H208L156 107Q144 80 144 62Q144 18 223 18V0H6V18Q65 18 103 107L356 696H380L629 107Q650 57 671 39Q695 18 742 18V0ZM454 265L341 539L223 265H454ZM325 800Q325 781 311 768T277 754Q257 754 243 767T229 800Q229 819 243 832T277 846Q297 846 311 833T325 800ZM501 800Q501 781 487 768T453 754Q433 754 419 767T405 800Q405 819 419 832T453 846Q473 846 487 833T501 800Z"  />
<glyph unicode="&#xC5;" horiz-adv-x="750" d="M742 0H462V18Q536 18 536 61Q536 80 524 107L473 227H208L156 107Q144 80 144 62Q144 18 223 18V0H6V18Q65 18 103 107L356 696H380L629 107Q650 57 671 39Q695 18 742 18V0ZM454 265L341 539L223 265H454ZM431 807Q431 781 413 763T369 745Q343 745 325 763T307 807Q307 832 325 850T369 868Q395 868 413 850T431 807ZM402 807Q402 820 392 830T369 840Q336 840 336 807Q336 774 369 774Q382 774 392 783T402 807Z"  />
<glyph unicode="&#xC6;" horiz-adv-x="1065" d="M1047 191L986 0H460V18Q514 18 535 36T556 108V227H268L176 107Q159 84 159 65Q159 18 243 18V0H6V18Q54 18 123 107L536 643Q517 662 460 662V680H982L990 518H972Q959 583 929 613Q896 646 832 646H660V388H807Q909 388 909 476H927V246H909Q909 354 809 354H660V76Q660 59 672 47T700 34H842Q974 34 1023 191H1047ZM556 265V572Q556 580 556 586T555 598L293 265H556Z"  />
<glyph unicode="&#xC7;" horiz-adv-x="685" d="M472 -91Q472 -150 391 -150Q356 -150 308 -137L307 -106Q361 -118 390 -118Q425 -118 425 -93Q425 -61 366 -67V-15Q227 -9 133 85Q32 186 32 332Q32 483 138 589Q245 696 389 696Q442 696 481 684Q494 680 506 675T532 662Q554 650 564 650Q575 650 586 663T601 696H618L635 465H611Q601 547 541 604Q483 662 406 662Q293 662 222 567Q154 475 154 328Q154 188 232 104Q305 23 421 23Q540 23 635 169L652 159Q610 84 545 37Q471 -14 391 -16V-37Q472 -37 472 -91Z"  />
<glyph unicode="&#xC8;" horiz-adv-x="625" d="M607 191L546 0H20V18Q74 18 95 36T116 108V572Q116 625 95 643T20 662V680H542L550 518H532Q519 583 489 613Q456 646 392 646H220V388H367Q469 388 469 476H487V246H469Q469 354 369 354H220V76Q220 59 232 47T260 34H402Q534 34 583 191H607ZM390 719H362L211 896H337L390 719Z"  />
<glyph unicode="&#xC9;" horiz-adv-x="625" d="M607 191L546 0H20V18Q74 18 95 36T116 108V572Q116 625 95 643T20 662V680H542L550 518H532Q519 583 489 613Q456 646 392 646H220V388H367Q469 388 469 476H487V246H469Q469 354 369 354H220V76Q220 59 232 47T260 34H402Q534 34 583 191H607ZM448 896L297 719H269L322 896H448Z"  />
<glyph unicode="&#xCA;" horiz-adv-x="625" d="M607 191L546 0H20V18Q74 18 95 36T116 108V572Q116 625 95 643T20 662V680H542L550 518H532Q519 583 489 613Q456 646 392 646H220V388H367Q469 388 469 476H487V246H469Q469 354 369 354H220V76Q220 59 232 47T260 34H402Q534 34 583 191H607ZM456 739H439L308 846L177 739H160L260 906H356L456 739Z"  />
<glyph unicode="&#xCB;" horiz-adv-x="625" d="M607 191L546 0H20V18Q74 18 95 36T116 108V572Q116 625 95 643T20 662V680H542L550 518H532Q519 583 489 613Q456 646 392 646H220V388H367Q469 388 469 476H487V246H469Q469 354 369 354H220V76Q220 59 232 47T260 34H402Q534 34 583 191H607ZM277 800Q277 781 263 768T229 754Q209 754 195 767T181 800Q181 819 195 832T229 846Q249 846 263 833T277 800ZM453 800Q453 781 439 768T405 754Q385 754 371 767T357 800Q357 819 371 832T405 846Q425 846 439 833T453 800Z"  />
<glyph unicode="&#xCC;" horiz-adv-x="342" d="M319 0H23V18Q77 18 98 36T119 108V572Q119 625 98 643T23 662V680H319V662Q265 662 244 644T223 572V108Q223 55 244 37T319 18V0ZM230 719H202L51 896H177L230 719Z"  />
<glyph unicode="&#xCD;" horiz-adv-x="342" d="M319 0H23V18Q77 18 98 36T119 108V572Q119 625 98 643T23 662V680H319V662Q265 662 244 644T223 572V108Q223 55 244 37T319 18V0ZM270 896L119 719H91L144 896H270Z"  />
<glyph unicode="&#xCE;" horiz-adv-x="342" d="M319 0H23V18Q77 18 98 36T119 108V572Q119 625 98 643T23 662V680H319V662Q265 662 244 644T223 572V108Q223 55 244 37T319 18V0ZM319 739H302L171 846L40 739H23L123 906H219L319 739Z"  />
<glyph unicode="&#xCF;" horiz-adv-x="342" d="M319 0H23V18Q77 18 98 36T119 108V572Q119 625 98 643T23 662V680H319V662Q265 662 244 644T223 572V108Q223 55 244 37T319 18V0ZM133 800Q133 781 119 768T85 754Q65 754 51 767T37 800Q37 819 51 832T85 846Q105 846 119 833T133 800ZM309 800Q309 781 295 768T261 754Q241 754 227 767T213 800Q213 819 227 832T261 846Q281 846 295 833T309 800Z"  />
<glyph unicode="&#xD1;" horiz-adv-x="739" d="M722 662Q668 662 647 644T626 572V-16H602L163 537H159V108Q159 55 180 37T255 18V0H17V18Q71 18 92 36T113 108V566Q113 587 104 604T80 635T45 655T0 662V680H171L576 183H580V572Q580 625 559 643T484 662V680H722V662ZM516 830Q516 794 483 775Q455 759 417 759Q372 759 323 779Q315 783 308 787T292 795Q272 804 259 804Q218 804 215 768H194Q194 781 202 795Q229 846 295 846Q332 846 383 824Q437 803 457 803Q492 803 494 830H516Z"  />
<glyph unicode="&#xD2;" horiz-adv-x="506" d="M474 243Q474 136 411 63Q348 -10 253 -10Q158 -10 95 58Q32 125 32 224Q32 327 95 398Q158 469 253 469Q348 469 411 403Q474 338 474 243ZM381 196Q381 435 233 435Q190 435 157 385Q125 335 125 266Q125 163 163 95Q204 24 269 24Q317 24 349 74Q381 127 381 196ZM330 524H302L151 701H277L330 524Z"  />
<glyph unicode="&#xD3;" horiz-adv-x="506" d="M474 243Q474 136 411 63Q348 -10 253 -10Q158 -10 95 58Q32 125 32 224Q32 327 95 398Q158 469 253 469Q348 469 411 403Q474 338 474 243ZM381 196Q381 435 233 435Q190 435 157 385Q125 335 125 266Q125 163 163 95Q204 24 269 24Q317 24 349 74Q381 127 381 196ZM330 701L179 524H151L204 701H330Z"  />
<glyph unicode="&#xD4;" horiz-adv-x="506" d="M474 243Q474 136 411 63Q348 -10 253 -10Q158 -10 95 58Q32 125 32 224Q32 327 95 398Q158 469 253 469Q348 469 411 403Q474 338 474 243ZM381 196Q381 435 233 435Q190 435 157 385Q125 335 125 266Q125 163 163 95Q204 24 269 24Q317 24 349 74Q381 127 381 196ZM406 544H389L258 651L127 544H110L210 711H306L406 544Z"  />
<glyph unicode="&#xD5;" horiz-adv-x="746" d="M714 344Q714 195 615 89Q516 -16 373 -16Q230 -16 131 89Q32 195 32 344Q32 491 131 593Q230 696 373 696Q516 696 615 593Q714 491 714 344ZM592 344Q592 487 535 573Q476 662 373 662Q269 662 210 573Q154 487 154 344Q154 200 210 111Q268 18 373 18Q476 18 535 111Q592 199 592 344ZM532 830Q532 794 499 775Q471 759 433 759Q388 759 339 779Q331 783 324 787T308 795Q288 804 275 804Q234 804 231 768H210Q210 781 218 795Q245 846 311 846Q348 846 399 824Q453 803 473 803Q508 803 510 830H532Z"  />
<glyph unicode="&#xD6;" horiz-adv-x="746" d="M714 344Q714 195 615 89Q516 -16 373 -16Q230 -16 131 89Q32 195 32 344Q32 491 131 593Q230 696 373 696Q516 696 615 593Q714 491 714 344ZM592 344Q592 487 535 573Q476 662 373 662Q269 662 210 573Q154 487 154 344Q154 200 210 111Q268 18 373 18Q476 18 535 111Q592 199 592 344ZM340 800Q340 781 326 768T292 754Q272 754 258 767T244 800Q244 819 258 832T292 846Q312 846 326 833T340 800ZM516 800Q516 781 502 768T468 754Q448 754 434 767T420 800Q420 819 434 832T468 846Q488 846 502 833T516 800Z"  />
<glyph unicode="&#xD7;" horiz-adv-x="581" d="M549 57L493 6L290 192L89 6L33 57L234 243L33 427L89 479L290 293L493 479L549 427L347 243L549 57Z"  />
<glyph unicode="&#xD8;" horiz-adv-x="746" d="M714 344Q714 195 615 89Q516 -16 373 -16Q301 -16 232 16L187 -84L161 -73L207 29Q127 76 79 160Q32 246 32 344Q32 491 131 593Q230 696 373 696Q438 696 494 674L540 776L565 765L520 663Q608 619 661 534Q714 448 714 344ZM592 344Q592 533 499 616L252 61Q301 18 373 18Q476 18 535 110Q592 198 592 344ZM476 633Q429 662 373 662Q268 662 209 573Q154 488 154 344Q154 170 230 82L476 633Z"  />
<glyph unicode="&#xD9;" horiz-adv-x="518" d="M518 53L378 -10H354V86Q331 46 290 18Q250 -10 212 -10Q157 -10 118 32Q80 76 80 133V362Q80 408 65 424T8 441V459H163V133Q163 98 190 74T255 50Q280 50 309 71T354 124V362Q354 408 339 424T282 441V459H437V136Q437 91 446 75T479 59Q494 59 512 67L518 53ZM300 524H272L121 701H247L300 524Z"  />
<glyph unicode="&#xDA;" horiz-adv-x="518" d="M518 53L378 -10H354V86Q331 46 290 18Q250 -10 212 -10Q157 -10 118 32Q80 76 80 133V362Q80 408 65 424T8 441V459H163V133Q163 98 190 74T255 50Q280 50 309 71T354 124V362Q354 408 339 424T282 441V459H437V136Q437 91 446 75T479 59Q494 59 512 67L518 53ZM323 701L172 524H144L197 701H323Z"  />
<glyph unicode="&#xDB;" horiz-adv-x="518" d="M518 53L378 -10H354V86Q331 46 290 18Q250 -10 212 -10Q157 -10 118 32Q80 76 80 133V362Q80 408 65 424T8 441V459H163V133Q163 98 190 74T255 50Q280 50 309 71T354 124V362Q354 408 339 424T282 441V459H437V136Q437 91 446 75T479 59Q494 59 512 67L518 53ZM396 544H379L248 651L117 544H100L200 711H296L396 544Z"  />
<glyph unicode="&#xDC;" horiz-adv-x="752" d="M743 662Q689 662 668 644T647 572V239Q647 126 584 59Q512 -16 376 -16Q252 -16 180 60Q113 130 113 241V572Q113 625 92 643T17 662V680H313V662Q259 662 238 644T217 572V239Q217 151 270 89Q322 28 409 28Q496 28 550 90Q601 148 601 239V572Q601 625 580 643T505 662V680H743V662ZM347 800Q347 781 333 768T299 754Q279 754 265 767T251 800Q251 819 265 832T299 846Q319 846 333 833T347 800ZM523 800Q523 781 509 768T475 754Q455 754 441 767T427 800Q427 819 441 832T475 846Q495 846 509 833T523 800Z"  />
<glyph unicode="&#xDF;" horiz-adv-x="590" d="M548 185Q548 107 498 48Q448 -11 371 -11Q333 -11 304 6Q272 27 272 64Q272 84 284 98T316 112Q334 112 345 101T361 50Q364 20 391 20Q454 20 454 163Q454 252 397 308Q354 350 275 356V385Q338 399 354 411Q395 441 395 516Q395 572 376 609Q350 657 302 657Q217 657 217 532V0H27V19Q75 19 92 31Q120 50 120 104V455Q120 512 156 592Q197 684 308 684Q382 684 429 648Q481 608 481 536Q481 476 444 435T346 378Q424 358 463 329Q548 265 548 185Z"  />
<glyph unicode="&#xE0;" horiz-adv-x="445" d="M439 58Q398 -10 332 -10Q307 -10 294 15Q282 34 282 63Q256 41 242 29T223 14Q185 -10 139 -10Q90 -10 61 22T32 105Q32 183 117 232Q150 251 282 298V326Q282 439 201 439Q133 439 133 369Q133 308 92 308Q73 308 61 323T48 362Q48 406 98 438Q147 469 217 469Q365 469 365 347V87Q365 52 388 52Q414 52 439 92V58ZM282 268Q115 209 115 129Q115 96 135 71T183 46Q220 46 282 96V268ZM260 524H232L81 701H207L260 524Z"  />
<glyph unicode="&#xE1;" horiz-adv-x="445" d="M439 58Q398 -10 332 -10Q307 -10 294 15Q282 34 282 63Q256 41 242 29T223 14Q185 -10 139 -10Q90 -10 61 22T32 105Q32 183 117 232Q150 251 282 298V326Q282 439 201 439Q133 439 133 369Q133 308 92 308Q73 308 61 323T48 362Q48 406 98 438Q147 469 217 469Q365 469 365 347V87Q365 52 388 52Q414 52 439 92V58ZM282 268Q115 209 115 129Q115 96 135 71T183 46Q220 46 282 96V268ZM310 701L159 524H131L184 701H310Z"  />
<glyph unicode="&#xE2;" horiz-adv-x="445" d="M439 58Q398 -10 332 -10Q307 -10 294 15Q282 34 282 63Q256 41 242 29T223 14Q185 -10 139 -10Q90 -10 61 22T32 105Q32 183 117 232Q150 251 282 298V326Q282 439 201 439Q133 439 133 369Q133 308 92 308Q73 308 61 323T48 362Q48 406 98 438Q147 469 217 469Q365 469 365 347V87Q365 52 388 52Q414 52 439 92V58ZM282 268Q115 209 115 129Q115 96 135 71T183 46Q220 46 282 96V268ZM366 544H349L218 651L87 544H70L170 711H266L366 544Z"  />
<glyph unicode="&#xE3;" horiz-adv-x="445" d="M439 58Q398 -10 332 -10Q307 -10 294 15Q282 34 282 63Q256 41 242 29T223 14Q185 -10 139 -10Q90 -10 61 22T32 105Q32 183 117 232Q150 251 282 298V326Q282 439 201 439Q133 439 133 369Q133 308 92 308Q73 308 61 323T48 362Q48 406 98 438Q147 469 217 469Q365 469 365 347V87Q365 52 388 52Q414 52 439 92V58ZM282 268Q115 209 115 129Q115 96 135 71T183 46Q220 46 282 96V268ZM386 635Q386 599 353 580Q325 564 287 564Q242 564 193 584Q185 588 178 592T162 600Q142 609 129 609Q88 609 85 573H64Q64 586 72 600Q99 651 165 651Q202 651 253 629Q307 608 327 608Q362 608 364 635H386Z"  />
<glyph unicode="&#xE4;" horiz-adv-x="445" d="M439 58Q398 -10 332 -10Q307 -10 294 15Q282 34 282 63Q256 41 242 29T223 14Q185 -10 139 -10Q90 -10 61 22T32 105Q32 183 117 232Q150 251 282 298V326Q282 439 201 439Q133 439 133 369Q133 308 92 308Q73 308 61 323T48 362Q48 406 98 438Q147 469 217 469Q365 469 365 347V87Q365 52 388 52Q414 52 439 92V58ZM282 268Q115 209 115 129Q115 96 135 71T183 46Q220 46 282 96V268ZM177 605Q177 586 163 573T129 559Q109 559 95 572T81 605Q81 624 95 637T129 651Q149 651 163 638T177 605ZM353 605Q353 586 339 573T305 559Q285 559 271 572T257 605Q257 624 271 637T305 651Q325 651 339 638T353 605Z"  />
<glyph unicode="&#xE5;" horiz-adv-x="445" d="M439 58Q398 -10 332 -10Q307 -10 294 15Q282 34 282 63Q256 41 242 29T223 14Q185 -10 139 -10Q90 -10 61 22T32 105Q32 183 117 232Q150 251 282 298V326Q282 439 201 439Q133 439 133 369Q133 308 92 308Q73 308 61 323T48 362Q48 406 98 438Q147 469 217 469Q365 469 365 347V87Q365 52 388 52Q414 52 439 92V58ZM282 268Q115 209 115 129Q115 96 135 71T183 46Q220 46 282 96V268ZM271 612Q271 586 253 568T209 550Q183 550 165 568T147 612Q147 637 165 655T209 673Q235 673 253 655T271 612ZM242 612Q242 625 232 635T209 645Q176 645 176 612Q176 579 209 579Q222 579 232 588T242 612Z"  />
<glyph unicode="&#xE6;" horiz-adv-x="712" d="M685 161Q667 89 609 40Q550 -10 487 -10Q430 -10 383 21T308 104Q301 90 295 80T282 63Q256 41 241 29T222 14Q184 -10 139 -10Q90 -10 61 22T32 105Q32 183 117 232Q150 251 282 298V326Q282 439 201 439Q133 439 133 369Q133 308 92 308Q73 308 61 323T48 362Q48 406 98 438Q147 469 217 469Q320 469 350 410Q406 469 488 469Q568 469 621 415Q674 362 674 284H362Q362 189 404 125Q446 60 510 60Q563 60 610 90Q656 121 667 164L685 161ZM570 308Q570 360 538 398Q507 435 462 435Q424 435 395 397Q367 360 362 308H570ZM282 268Q115 209 115 129Q115 96 135 71T183 46Q220 46 282 96V268Z"  />
<glyph unicode="&#xE7;" horiz-adv-x="450" d="M421 174Q378 -2 239 -10Q210 -37 210 -60Q210 -76 225 -79H254V-114H233Q178 -114 178 -73Q178 -43 219 -10Q141 -5 86 61Q32 127 32 218Q32 321 95 395Q160 469 249 469Q321 469 364 438Q410 407 410 360Q410 339 393 324T355 309Q333 309 320 324T306 360Q306 435 236 435Q209 435 187 423T148 390T124 339T115 277Q115 184 155 123Q195 60 261 60Q354 60 402 180L421 174Z"  />
<glyph unicode="&#xE8;" horiz-adv-x="462" d="M435 161Q417 89 359 40Q300 -10 237 -10Q152 -10 92 55Q32 121 32 213Q32 325 89 397Q146 469 238 469Q318 469 371 415Q424 362 424 284H112Q112 189 154 125Q196 60 260 60Q313 60 360 90Q406 121 417 164L435 161ZM320 308Q320 360 288 398Q257 435 212 435Q174 435 145 397Q117 360 112 308H320ZM292 524H264L113 701H239L292 524Z"  />
<glyph unicode="&#xE9;" horiz-adv-x="462" d="M435 161Q417 89 359 40Q300 -10 237 -10Q152 -10 92 55Q32 121 32 213Q32 325 89 397Q146 469 238 469Q318 469 371 415Q424 362 424 284H112Q112 189 154 125Q196 60 260 60Q313 60 360 90Q406 121 417 164L435 161ZM320 308Q320 360 288 398Q257 435 212 435Q174 435 145 397Q117 360 112 308H320ZM319 701L168 524H140L193 701H319Z"  />
<glyph unicode="&#xEA;" horiz-adv-x="462" d="M435 161Q417 89 359 40Q300 -10 237 -10Q152 -10 92 55Q32 121 32 213Q32 325 89 397Q146 469 238 469Q318 469 371 415Q424 362 424 284H112Q112 189 154 125Q196 60 260 60Q313 60 360 90Q406 121 417 164L435 161ZM320 308Q320 360 288 398Q257 435 212 435Q174 435 145 397Q117 360 112 308H320ZM376 544H359L228 651L97 544H80L180 711H276L376 544Z"  />
<glyph unicode="&#xEB;" horiz-adv-x="462" d="M435 161Q417 89 359 40Q300 -10 237 -10Q152 -10 92 55Q32 121 32 213Q32 325 89 397Q146 469 238 469Q318 469 371 415Q424 362 424 284H112Q112 189 154 125Q196 60 260 60Q313 60 360 90Q406 121 417 164L435 161ZM320 308Q320 360 288 398Q257 435 212 435Q174 435 145 397Q117 360 112 308H320ZM187 605Q187 586 173 573T139 559Q119 559 105 572T91 605Q91 624 105 637T139 651Q159 651 173 638T187 605ZM363 605Q363 586 349 573T315 559Q295 559 281 572T267 605Q267 624 281 637T315 651Q335 651 349 638T363 605Z"  />
<glyph unicode="&#xEC;" horiz-adv-x="278" d="M272 0H45V18Q89 18 104 39Q117 55 117 107V323Q117 371 113 380Q108 398 87 398Q78 398 46 390L39 408L176 469H200V107Q200 56 214 37T272 18V0ZM204 524H176L25 701H151L204 524Z"  />
<glyph unicode="&#xED;" horiz-adv-x="278" d="M258 0H31V18Q75 18 90 39Q103 55 103 107V323Q103 371 99 380Q94 398 73 398Q64 398 32 390L25 408L162 469H186V107Q186 56 200 37T258 18V0ZM231 701L80 524H52L105 701H231Z"  />
<glyph unicode="&#xEE;" horiz-adv-x="278" d="M291 0H64V18Q108 18 123 39Q136 55 136 107V323Q136 371 132 380Q127 398 106 398Q97 398 65 390L58 408L195 469H219V107Q219 56 233 37T291 18V0ZM321 544H304L173 651L42 544H25L125 711H221L321 544Z"  />
<glyph unicode="&#xEF;" horiz-adv-x="278" d="M283 0H56V18Q100 18 115 39Q128 55 128 107V323Q128 371 124 380Q119 398 98 398Q89 398 57 390L50 408L187 469H211V107Q211 56 225 37T283 18V0ZM121 605Q121 586 107 573T73 559Q53 559 39 572T25 605Q25 624 39 637T73 651Q93 651 107 638T121 605ZM297 605Q297 586 283 573T249 559Q229 559 215 572T201 605Q201 624 215 637T249 651Q269 651 283 638T297 605Z"  />
<glyph unicode="&#xF1;" horiz-adv-x="518" d="M510 0H283V18Q327 18 342 39Q355 55 355 107V315Q355 407 288 407Q232 407 171 341V107Q171 56 185 37T243 18V0H16V18Q60 18 75 39Q88 55 88 107V323Q88 371 84 380Q79 398 58 398Q49 398 17 390L10 408L147 469H171V376Q246 469 333 469Q377 469 407 428Q438 388 438 330V107Q438 56 452 37T510 18V0ZM396 635Q396 599 363 580Q335 564 297 564Q252 564 203 584Q195 588 188 592T172 600Q152 609 139 609Q98 609 95 573H74Q74 586 82 600Q109 651 175 651Q212 651 263 629Q317 608 337 608Q372 608 374 635H396Z"  />
<glyph unicode="&#xF2;" horiz-adv-x="506" d="M474 243Q474 136 411 63Q348 -10 253 -10Q158 -10 95 58Q32 125 32 224Q32 327 95 398Q158 469 253 469Q348 469 411 403Q474 338 474 243ZM381 196Q381 435 233 435Q190 435 157 385Q125 335 125 266Q125 163 163 95Q204 24 269 24Q317 24 349 74Q381 127 381 196ZM299 524H271L120 701H246L299 524Z"  />
<glyph unicode="&#xF3;" horiz-adv-x="506" d="M474 243Q474 136 411 63Q348 -10 253 -10Q158 -10 95 58Q32 125 32 224Q32 327 95 398Q158 469 253 469Q348 469 411 403Q474 338 474 243ZM381 196Q381 435 233 435Q190 435 157 385Q125 335 125 266Q125 163 163 95Q204 24 269 24Q317 24 349 74Q381 127 381 196ZM351 701L200 524H172L225 701H351Z"  />
<glyph unicode="&#xF4;" horiz-adv-x="506" d="M474 243Q474 136 411 63Q348 -10 253 -10Q158 -10 95 58Q32 125 32 224Q32 327 95 398Q158 469 253 469Q348 469 411 403Q474 338 474 243ZM381 196Q381 435 233 435Q190 435 157 385Q125 335 125 266Q125 163 163 95Q204 24 269 24Q317 24 349 74Q381 127 381 196ZM396 544H379L248 651L117 544H100L200 711H296L396 544Z"  />
<glyph unicode="&#xF5;" horiz-adv-x="506" d="M474 243Q474 136 411 63Q348 -10 253 -10Q158 -10 95 58Q32 125 32 224Q32 327 95 398Q158 469 253 469Q348 469 411 403Q474 338 474 243ZM381 196Q381 435 233 435Q190 435 157 385Q125 335 125 266Q125 163 163 95Q204 24 269 24Q317 24 349 74Q381 127 381 196ZM406 635Q406 599 373 580Q345 564 307 564Q262 564 213 584Q205 588 198 592T182 600Q162 609 149 609Q108 609 105 573H84Q84 586 92 600Q119 651 185 651Q222 651 273 629Q327 608 347 608Q382 608 384 635H406Z"  />
<glyph unicode="&#xF6;" horiz-adv-x="506" d="M474 243Q474 136 411 63Q348 -10 253 -10Q158 -10 95 58Q32 125 32 224Q32 327 95 398Q158 469 253 469Q348 469 411 403Q474 338 474 243ZM381 196Q381 435 233 435Q190 435 157 385Q125 335 125 266Q125 163 163 95Q204 24 269 24Q317 24 349 74Q381 127 381 196ZM207 605Q207 586 193 573T159 559Q139 559 125 572T111 605Q111 624 125 637T159 651Q179 651 193 638T207 605ZM383 605Q383 586 369 573T335 559Q315 559 301 572T287 605Q287 624 301 637T335 651Q355 651 369 638T383 605Z"  />
<glyph unicode="&#xF7;" horiz-adv-x="529" d="M353 533Q353 501 329 479T270 457Q235 457 211 479T187 533Q187 565 211 587T270 609Q305 609 329 587T353 533ZM465 312H73V392H465V312ZM353 161Q353 145 347 131T329 107T302 90T270 84Q253 84 238 90T212 106T194 131T187 161Q187 193 211 215T270 237Q305 237 329 215T353 161Z"  />
<glyph unicode="&#xF8;" horiz-adv-x="506" d="M474 243Q474 136 411 63Q348 -10 253 -10Q215 -10 181 2L161 -49L141 -42L161 10Q101 38 67 95T32 224Q32 327 95 398Q158 469 253 469Q292 469 332 455L350 503L370 495L352 447Q409 419 441 365T474 243ZM381 196Q381 329 331 391L199 50Q231 24 269 24Q317 24 349 74Q381 127 381 196ZM314 408Q281 435 233 435Q190 435 157 385Q125 335 125 266Q125 134 182 67L314 408Z"  />
<glyph unicode="&#xF9;" horiz-adv-x="518" d="M518 53L378 -10H354V86Q331 46 290 18Q250 -10 212 -10Q157 -10 118 32Q80 76 80 133V362Q80 408 65 424T8 441V459H163V133Q163 98 190 74T255 50Q280 50 309 71T354 124V362Q354 408 339 424T282 441V459H437V136Q437 91 446 75T479 59Q494 59 512 67L518 53ZM290 524H262L111 701H237L290 524Z"  />
<glyph unicode="&#xFA;" horiz-adv-x="518" d="M518 53L378 -10H354V86Q331 46 290 18Q250 -10 212 -10Q157 -10 118 32Q80 76 80 133V362Q80 408 65 424T8 441V459H163V133Q163 98 190 74T255 50Q280 50 309 71T354 124V362Q354 408 339 424T282 441V459H437V136Q437 91 446 75T479 59Q494 59 512 67L518 53ZM320 701L169 524H141L194 701H320Z"  />
<glyph unicode="&#xFB;" horiz-adv-x="518" d="M518 53L378 -10H354V86Q331 46 290 18Q250 -10 212 -10Q157 -10 118 32Q80 76 80 133V362Q80 408 65 424T8 441V459H163V133Q163 98 190 74T255 50Q280 50 309 71T354 124V362Q354 408 339 424T282 441V459H437V136Q437 91 446 75T479 59Q494 59 512 67L518 53ZM396 544H379L248 651L117 544H100L200 711H296L396 544Z"  />
<glyph unicode="&#xFC;" horiz-adv-x="518" d="M518 53L378 -10H354V86Q331 46 290 18Q250 -10 212 -10Q157 -10 118 32Q80 76 80 133V362Q80 408 65 424T8 441V459H163V133Q163 98 190 74T255 50Q280 50 309 71T354 124V362Q354 408 339 424T282 441V459H437V136Q437 91 446 75T479 59Q494 59 512 67L518 53ZM207 605Q207 586 193 573T159 559Q139 559 125 572T111 605Q111 624 125 637T159 651Q179 651 193 638T207 605ZM383 605Q383 586 369 573T335 559Q315 559 301 572T287 605Q287 624 301 637T335 651Q355 651 369 638T383 605Z"  />
<glyph unicode="&#xFF;" horiz-adv-x="514" d="M497 441Q469 441 456 423Q446 411 426 362L241 -90Q219 -144 180 -178T100 -212Q73 -212 54 -198T33 -163Q31 -112 84 -112Q104 -112 119 -121T150 -130Q181 -130 216 -47L245 23L102 323Q47 441 0 441V459H211V441Q162 441 162 405Q162 393 197 317L286 129L381 363Q395 399 395 413Q395 441 348 441V459H497V441ZM221 605Q221 586 207 573T173 559Q153 559 139 572T125 605Q125 624 139 637T173 651Q193 651 207 638T221 605ZM397 605Q397 586 383 573T349 559Q329 559 315 572T301 605Q301 624 315 637T349 651Q369 651 383 638T397 605Z"  />
<glyph unicode="&#x131;" horiz-adv-x="278" d="M258 0H31V18Q75 18 90 39Q103 55 103 107V323Q103 371 99 380Q94 398 73 398Q64 398 32 390L25 408L162 469H186V107Q186 56 200 37T258 18V0Z"  />
<glyph unicode="&#x141;" horiz-adv-x="628" d="M610 185L551 0H20V18Q74 18 95 36T116 108V280L51 224L32 246L116 320V572Q116 625 95 643T20 662V680H316V662Q262 662 241 644T220 572V410L279 461L299 439L220 370V85Q220 64 231 49T259 34H386Q540 34 590 190L610 185Z"  />
<glyph unicode="&#x142;" horiz-adv-x="342" d="M319 0H23V18Q77 18 98 36T119 108V282L51 224L32 246L119 322V572Q119 625 98 643T23 662V680H319V662Q265 662 244 644T223 572V413L279 461L299 439L223 373V108Q223 55 244 37T319 18V0Z"  />
<glyph unicode="&#x152;" horiz-adv-x="1175" d="M1157 191L1096 0H666V159Q620 78 545 32Q465 -16 373 -16Q230 -16 131 89Q32 195 32 344Q32 491 131 593Q230 696 373 696Q465 696 545 649Q621 604 666 526V680H1092L1100 518H1082Q1069 583 1039 613Q1006 646 942 646H770V388H917Q1019 388 1019 476H1037V246H1019Q1019 354 919 354H770V76Q770 59 782 47T810 34H952Q1084 34 1133 191H1157ZM592 344Q592 487 535 573Q476 662 373 662Q269 662 210 573Q154 487 154 344Q154 200 210 111Q268 18 373 18Q476 18 535 111Q592 199 592 344Z"  />
<glyph unicode="&#x153;" horiz-adv-x="828" d="M801 161Q783 89 725 40Q666 -10 603 -10Q493 -10 431 91Q366 -10 253 -10Q158 -10 95 58Q32 125 32 224Q32 327 95 398Q158 469 253 469Q372 469 437 371Q496 469 604 469Q684 469 737 415Q790 362 790 284H478Q478 189 520 125Q562 60 626 60Q679 60 726 90Q772 121 783 164L801 161ZM686 308Q686 360 654 398Q623 435 578 435Q540 435 511 397Q483 360 478 308H686ZM381 196Q381 435 233 435Q190 435 157 385Q125 335 125 266Q125 163 163 95Q204 24 269 24Q317 24 349 74Q381 127 381 196Z"  />
<glyph unicode="&#x160;" horiz-adv-x="560" d="M510 179Q510 97 451 41Q388 -16 283 -16Q232 -16 177 4Q130 22 115 22Q89 22 83 -16H65V214H83Q90 125 153 72Q212 22 291 22Q344 22 381 53Q420 84 420 134Q420 202 326 260L152 360Q58 426 58 513Q58 591 114 644Q169 696 260 696Q296 696 345 680Q348 679 356 676T379 666Q401 658 410 658Q424 658 435 670T447 696H465V459H446Q437 553 389 605T260 658Q207 658 171 622Q138 590 138 549Q138 490 234 432L414 328Q510 260 510 179ZM333 812L285 727H237L189 812H219L261 757L303 812H333Z"  />
<glyph unicode="&#x161;" horiz-adv-x="402" d="M367 129Q367 68 325 29T207 -10Q180 -10 139 1Q101 13 93 13Q78 13 72 0H54V159H72Q79 103 120 63Q160 24 209 24Q241 24 263 43T285 90Q285 136 224 170Q168 202 111 231Q50 274 50 341Q50 398 87 433T185 469Q213 469 246 460Q280 451 289 451Q305 451 310 469H328V316H310Q307 369 273 403Q238 439 193 439Q157 439 135 421T112 378Q112 332 178 298Q209 283 239 268T301 237Q367 193 367 129ZM264 602L216 517H168L120 602H149L192 547L234 602H264Z"  />
<glyph unicode="&#x17D;" horiz-adv-x="622" d="M383 812L335 727H287L239 812H269L311 757L353 812H383ZM598 178L566 0H10V17L448 641H238Q162 641 131 613Q100 586 89 509H71L86 680H597L146 39H421Q446 39 470 49T515 78T552 122T580 178H598Z"  />
<glyph unicode="&#x17E;" horiz-adv-x="463" d="M304 602L256 517H208L160 602H189L232 547L274 602H304ZM442 441L134 34H329Q368 34 389 49Q416 69 422 146H440L430 0H22V24L324 425H159Q119 425 102 408Q80 386 78 332H60V459H442V441Z"  />
<glyph unicode="&#x2C6;" horiz-adv-x="296" d="M296 739H279L148 846L17 739H0L100 906H196L296 739Z"  />
<glyph unicode="&#x2C7;" horiz-adv-x="328" d="M117 739L17 906H34L165 799L296 906H313L213 739H117Z"  />
<glyph unicode="&#x2DA;" horiz-adv-x="196" d="M161 807Q161 781 143 763T99 745Q73 745 55 763T37 807Q37 832 55 850T99 868Q125 868 143 850T161 807ZM132 807Q132 820 122 830T99 840Q66 840 66 807Q66 774 99 774Q112 774 122 783T132 807Z"  />
<glyph unicode="&#x2DB;" horiz-adv-x="346" d="M224 -150H195Q119 -150 119 -93Q119 -51 182 0H210Q163 -42 163 -75Q163 -97 185 -101H224V-150Z"  />
<glyph unicode="&#x2DC;" horiz-adv-x="404" d="M356 830Q356 794 323 775Q295 759 257 759Q212 759 163 779Q155 783 148 787T132 795Q112 804 99 804Q58 804 55 768H34Q34 781 42 795Q69 846 135 846Q172 846 223 824Q277 803 297 803Q332 803 334 830H356Z"  />
<glyph unicode="&#x2DD;" horiz-adv-x="341" d="M190 896L39 719H11L64 896H190ZM330 896L179 719H151L204 896H330Z"  />
<glyph unicode="&#x5B0;" horiz-adv-x="0" d="M42 -127Q42 -144 29 -155T-1 -167Q-18 -167 -31 -156T-44 -127Q-44 -110 -31 -99T-1 -87Q16 -87 29 -98T42 -127ZM44 -222Q44 -239 31 -250T1 -262Q-16 -262 -29 -251T-42 -222Q-42 -205 -29 -194T1 -182Q18 -182 31 -193T44 -222Z"  />
<glyph unicode="&#x5B1;" horiz-adv-x="0" d="M-70 -127Q-70 -144 -83 -155T-113 -167Q-130 -167 -143 -156T-156 -127Q-156 -110 -143 -99T-113 -87Q-96 -87 -83 -98T-70 -127ZM43 -126Q43 -143 30 -154T0 -166Q-17 -166 -30 -155T-43 -126Q-43 -109 -30 -98T0 -86Q17 -86 30 -97T43 -126ZM156 -224Q156 -241 143 -252T113 -264Q96 -264 83 -253T70 -224Q70 -207 83 -196T113 -184Q130 -184 143 -195T156 -224ZM154 -127Q154 -144 141 -155T111 -167Q94 -167 81 -156T68 -127Q68 -110 81 -99T111 -87Q128 -87 141 -98T154 -127ZM-13 -218Q-13 -235 -26 -246T-56 -258Q-73 -258 -86 -247T-99 -218Q-99 -201 -86 -190T-56 -178Q-39 -178 -26 -189T-13 -218Z"  />
<glyph unicode="&#x5B2;" horiz-adv-x="0" d="M-159 -139V-85H39V-139H-159ZM158 -127Q158 -144 145 -155T115 -167Q98 -167 85 -156T72 -127Q72 -110 85 -99T115 -87Q132 -87 145 -98T158 -127ZM160 -222Q160 -239 147 -250T117 -262Q100 -262 87 -251T74 -222Q74 -205 87 -194T117 -182Q134 -182 147 -193T160 -222Z"  />
<glyph unicode="&#x5B3;" horiz-adv-x="0" d="M-36 -139Q-33 -158 -31 -177Q-29 -194 -29 -215T-29 -258H-91Q-93 -236 -92 -215T-89 -177Q-87 -158 -84 -139H-160V-86H40V-139H-36ZM158 -128Q158 -145 145 -156T115 -168Q98 -168 85 -157T72 -128Q72 -111 85 -100T115 -88Q132 -88 145 -99T158 -128ZM160 -223Q160 -240 147 -251T117 -263Q100 -263 87 -252T74 -223Q74 -206 87 -195T117 -183Q134 -183 147 -194T160 -223Z"  />
<glyph unicode="&#x5B4;" horiz-adv-x="0" d="M43 -131Q43 -148 30 -159T0 -171Q-17 -171 -30 -160T-43 -131Q-43 -114 -30 -103T0 -91Q17 -91 30 -102T43 -131Z"  />
<glyph unicode="&#x5B5;" horiz-adv-x="0" d="M101 -128Q101 -145 88 -156T58 -168Q41 -168 28 -157T15 -128Q15 -111 28 -100T58 -88Q75 -88 88 -99T101 -128ZM-15 -128Q-15 -145 -28 -156T-58 -168Q-75 -168 -88 -157T-101 -128Q-101 -111 -88 -100T-58 -88Q-41 -88 -28 -99T-15 -128Z"  />
<glyph unicode="&#x5B6;" horiz-adv-x="0" d="M46 -221Q46 -238 33 -249T3 -261Q-14 -261 -27 -250T-40 -221Q-40 -204 -27 -193T3 -181Q20 -181 33 -192T46 -221ZM101 -128Q101 -145 88 -156T58 -168Q41 -168 28 -157T15 -128Q15 -111 28 -100T58 -88Q75 -88 88 -99T101 -128ZM-15 -128Q-15 -145 -28 -156T-58 -168Q-75 -168 -88 -157T-101 -128Q-101 -111 -88 -100T-58 -88Q-41 -88 -28 -99T-15 -128Z"  />
<glyph unicode="&#x5B7;" horiz-adv-x="0" d="M-99 -139V-85H99V-139H-99Z"  />
<glyph unicode="&#x5B8;" horiz-adv-x="0" d="M24 -139Q27 -158 29 -177Q31 -194 31 -215T31 -258H-31Q-33 -236 -32 -215T-29 -177Q-27 -158 -24 -139H-100V-86H100V-139H24Z"  />
<glyph unicode="&#x5B9;" horiz-adv-x="0" d="M43 624Q43 607 30 596T0 584Q-17 584 -30 595T-43 624Q-43 641 -30 652T0 664Q17 664 30 653T43 624Z"  />
<glyph unicode="&#x5BB;" horiz-adv-x="0" d="M-21 -129Q-21 -146 -34 -157T-64 -169Q-81 -169 -94 -158T-107 -129Q-107 -112 -94 -101T-64 -89Q-47 -89 -34 -100T-21 -129ZM43 -202Q43 -219 30 -230T0 -242Q-17 -242 -30 -231T-43 -202Q-43 -185 -30 -174T0 -162Q17 -162 30 -173T43 -202ZM108 -274Q108 -291 95 -302T65 -314Q48 -314 35 -303T22 -274Q22 -257 35 -246T65 -234Q82 -234 95 -245T108 -274Z"  />
<glyph unicode="&#x5BC;" horiz-adv-x="0" d="M43 257Q43 240 30 229T0 217Q-17 217 -30 228T-43 257Q-43 274 -30 285T0 297Q17 297 30 286T43 257Z"  />
<glyph unicode="&#x5BD;" horiz-adv-x="0" d="M-14 -229V-102H14V-229H-14Z"  />
<glyph unicode="&#x5BE;" horiz-adv-x="311" d="M57 447V504H255V447H57Z"  />
<glyph unicode="&#x5BF;" horiz-adv-x="0" d="M-100 561V614H100V561H-100Z"  />
<glyph unicode="&#x5C0;" horiz-adv-x="168" d="M60 -130V617H108V-130H60Z"  />
<glyph unicode="&#x5C1;" horiz-adv-x="0" d="M43 627Q43 610 30 599T0 587Q-17 587 -30 598T-43 627Q-43 644 -30 655T0 667Q17 667 30 656T43 627Z"  />
<glyph unicode="&#x5C2;" horiz-adv-x="0" d="M43 633Q43 616 30 605T0 593Q-17 593 -30 604T-43 633Q-43 650 -30 661T0 673Q17 673 30 662T43 633Z"  />
<glyph unicode="&#x5C3;" horiz-adv-x="275" d="M60 356V436H145V356H60ZM60 0V80H145V0H60Z"  />
<glyph unicode="&#x5C5;" horiz-adv-x="0" d="M-50 -348Q-50 -327 -36 -313T0 -298Q21 -298 35 -312T50 -348Q50 -369 36 -383T0 -398Q-21 -398 -35 -384T-50 -348Z"  />
<glyph unicode="&#x5C7;" horiz-adv-x="0" d="M24 -139Q27 -170 29 -201Q31 -227 31 -256T31 -307H-31Q-33 -285 -32 -256T-29 -201Q-27 -170 -24 -139H-100V-86H100V-139H24Z"  />
<glyph unicode="&#x5D0;" horiz-adv-x="495" d="M401 0L170 318L86 0H31L131 375L38 502H99L321 202L405 502H465L362 152L468 0H401Z"  />
<glyph unicode="&#x5D1;" horiz-adv-x="503" d="M36 0V55H167Q225 55 264 72T327 117T361 180T371 250Q371 289 361 324T329 387T276 430T200 447H36V502H201Q261 502 305 481T378 426T421 346T436 252Q436 198 418 162T377 104T337 70T318 54Q318 49 325 49T344 49T367 53T389 55H454V0H36Z"  />
<glyph unicode="&#x5D2;" horiz-adv-x="351" d="M243 0Q235 7 232 23T226 55T222 83T215 96Q207 96 203 79T186 41T150 3T78 -15Q57 -15 40 -8Q31 -4 24 0V55Q57 44 90 44T151 66T194 142T211 290Q211 375 183 411T84 447H45V502H86Q140 502 175 487T232 445T263 382T272 302V152Q272 110 276 75T299 0H243Z"  />
<glyph unicode="&#x5D3;" horiz-adv-x="449" d="M326 447V0H266V447H13V502H426V447H326Z"  />
<glyph unicode="&#x5D4;" horiz-adv-x="546" d="M407 0V290Q407 330 402 360T378 409T325 437T232 447H67V502H236Q292 502 335 494T407 464T452 401T467 294V0H407ZM67 0V307H127V0H67Z"  />
<glyph unicode="&#x5D5;" horiz-adv-x="241" d="M91 0V404Q91 430 84 459T72 502H135Q139 490 142 480T147 458T150 434T151 402V0H91Z"  />
<glyph unicode="&#x5D6;" horiz-adv-x="285" d="M251 447Q227 447 210 446T183 432T168 390T163 304V0H103V298Q103 335 103 359T105 400T118 425T145 441L146 442Q146 443 146 443T147 446Q147 450 143 450T134 450T124 448T116 447H20V502H251V447H251Z"  />
<glyph unicode="&#x5D7;" horiz-adv-x="571" d="M435 0V289Q435 330 430 360T406 409T353 438T260 447H141V0H81V502H264Q320 502 363 494T435 464T480 401T496 295V0H435Z"  />
<glyph unicode="&#x5D8;" horiz-adv-x="586" d="M511 187Q511 82 454 34T284 -15Q225 -15 185 2T121 47T87 109T76 178V502H137V197Q137 164 144 136T168 86T213 53T286 41Q326 41 357 48T408 72T438 119T449 193V313Q449 356 442 385T421 430T384 454T330 461Q308 461 292 456T264 443Q251 435 242 425V487Q252 495 266 502Q278 507 295 512T334 517Q372 517 404 508T460 478T497 420T511 330V187H511Z"  />
<glyph unicode="&#x5D9;" horiz-adv-x="215" d="M77 241V404Q77 419 75 434T71 462T65 486T59 502H124Q131 480 135 455T140 402V241H77Z"  />
<glyph unicode="&#x5DA;" horiz-adv-x="442" d="M305 -192V291Q305 331 300 360T276 408T224 437T131 447H19V502H133Q189 502 232 494T305 464T350 400T365 293V-192H305Z"  />
<glyph unicode="&#x5DB;" horiz-adv-x="471" d="M40 0V58H192Q246 58 282 87T337 159T355 252T337 346T282 418T190 447H40V502H190Q264 502 314 465T389 372T415 251T392 130T318 37T192 0H40Z"  />
<glyph unicode="&#x5DC;" horiz-adv-x="421" d="M354 404Q353 400 349 381T338 333T323 268T305 195Q285 108 259 0H196L280 355Q289 392 293 411T294 438T280 446T245 447H94Q70 447 52 449T21 460T2 484T-5 526V623Q-5 645 -8 663T-16 695Q-21 710 -27 722H36Q42 709 46 694Q50 681 53 663T56 624Q56 576 56 551T61 515T79 503T118 502H301Q331 502 343 489T358 458T358 424T354 404Z"  />
<glyph unicode="&#x5DD;" horiz-adv-x="596" d="M80 0V502H339Q429 502 474 449T520 293V0H80ZM460 296Q460 346 449 376T419 421T374 442T319 447H140V55H460V296Z"  />
<glyph unicode="&#x5DE;" horiz-adv-x="601" d="M522 143Q522 92 500 58T441 5T361 -14T271 -1V48Q288 37 320 34T383 41T438 76T461 147V337Q461 398 431 430T337 462Q280 462 245 443T189 392T162 320T155 239V0H93V393Q93 426 89 452T80 502H141Q150 485 152 464T154 421Q155 416 156 415T162 413Q166 413 175 429T205 464T259 500T347 517Q386 517 418 507T473 475T509 421T522 344V143H522Z"  />
<glyph unicode="&#x5DF;" horiz-adv-x="241" d="M91 -191V405Q91 434 84 462T72 502H137Q143 480 147 459T152 403V-191H91Z"  />
<glyph unicode="&#x5E0;" horiz-adv-x="337" d="M29 0V55H201V295Q201 337 192 366T167 413T131 439T87 447H39V502H88Q124 502 156 491T211 457T248 399T262 314V0H29Z"  />
<glyph unicode="&#x5E1;" horiz-adv-x="579" d="M503 179Q503 117 481 82T425 28T353 5T284 0Q254 -1 224 -1T171 0H119L47 502H503V179ZM443 447H120L174 55H290Q321 55 349 61T398 81T431 118T443 175V447Z"  />
<glyph unicode="&#x5E2;" horiz-adv-x="506" d="M430 180Q430 118 408 82T352 28T280 5T212 0H32V55H211L30 502H97L273 59Q313 67 333 85T361 126T370 172T370 214V502H430V180H430Z"  />
<glyph unicode="&#x5E3;" horiz-adv-x="545" d="M408 -193V241Q408 292 402 332T377 401T328 445T249 461Q199 461 168 439T124 383T114 312T136 241H73Q48 281 48 329T73 418T142 488T250 516Q315 516 357 496T425 439T460 352T470 240V-193H408Z"  />
<glyph unicode="&#x5E4;" horiz-adv-x="565" d="M499 251Q499 189 482 142T434 64T362 16T271 0H115L108 55H267Q297 55 327 65T382 98T421 158T436 250Q436 290 426 328T396 396T346 444T275 462Q220 462 185 439T132 381T115 309T129 242H66Q56 262 53 289T55 348T76 409T118 463T184 502T276 517Q321 517 361 500T432 450T481 367T499 251Z"  />
<glyph unicode="&#x5E5;" horiz-adv-x="541" d="M459 268Q445 233 415 204T355 153Q320 127 279 107V-195H218V90L14 502H79L220 232Q224 223 230 210T242 185T252 165T258 157Q259 157 278 167T322 197T371 244T409 307Q422 341 421 376T412 439Q404 472 389 502H456Q470 469 476 431Q481 399 480 357T459 268Z"  />
<glyph unicode="&#x5E6;" horiz-adv-x="496" d="M308 224L441 58V0H27V55H376Q352 83 325 117T268 188T210 262T154 335Q92 417 27 502H101L270 270L376 502H442L308 224Z"  />
<glyph unicode="&#x5E7;" horiz-adv-x="538" d="M462 182Q462 135 449 100T413 40T360 4T293 -8Q275 -8 263 -6T242 0Q232 4 227 8V50Q233 48 241 46Q248 44 258 43T282 42Q317 42 340 55T377 89T396 134T402 181V447H50V502H462V182ZM70 -192V310H131V-192H70Z"  />
<glyph unicode="&#x5E8;" horiz-adv-x="439" d="M305 0V291Q305 331 300 360T276 409T223 437T130 447H21V502H135Q190 502 233 494T305 464T350 401T365 294V0H305Z"  />
<glyph unicode="&#x5E9;" horiz-adv-x="617" d="M275 165V502H335V165H275ZM541 178Q541 116 519 81T463 27T391 5T322 0H113L48 502H110L170 55H327Q358 55 386 61T435 81T468 118T481 175V502H541V178Z"  />
<glyph unicode="&#x5EA;" horiz-adv-x="657" d="M521 0V314Q521 342 519 366T503 409T464 437T391 447H221V126Q221 117 220 94T207 47T170 5T96 -14Q74 -14 60 -7Q53 -3 48 1V52Q61 41 80 39T118 42T148 65T161 108V502H396Q464 502 501 487T556 444T577 379T581 299V0H521Z"  />
<glyph unicode="&#x5F0;" horiz-adv-x="399" d="M91 0V404Q91 430 84 459T72 502H135Q139 490 142 480T147 458T150 434T151 402V0H91ZM249 0V404Q249 430 242 459T230 502H293Q297 490 300 480T305 458T308 434T309 402V0H249Z"  />
<glyph unicode="&#x5F1;" horiz-adv-x="381" d="M231 0V404Q231 430 224 459T212 502H275Q279 490 282 480T287 458T290 434T291 402V0H231ZM90 241V404Q90 419 88 434T84 462T78 486T72 502H137Q144 480 148 455T153 402V241H90Z"  />
<glyph unicode="&#x5F2;" horiz-adv-x="383" d="M90 241V404Q90 419 88 434T84 462T78 486T72 502H137Q144 480 148 455T153 402V241H90ZM230 241V404Q230 419 228 434T224 462T218 486T212 502H277Q284 480 288 455T293 402V241H230Z"  />
<glyph unicode="&#x5F3;" horiz-adv-x="199" d="M151 501Q151 471 54 281H40Q76 384 76 441Q76 466 44 506L114 577Q150 532 151 501Z"  />
<glyph unicode="&#x5F4;" horiz-adv-x="399" d="M338 500Q338 467 241 280H227Q245 334 254 373T264 440Q264 461 232 505L301 576Q338 533 338 500ZM166 499Q166 470 68 279H55Q91 385 91 439Q91 461 60 504L129 575Q166 529 166 499Z"  />
<glyph unicode="&#x200C;" horiz-adv-x="21" d="M22 0H0V795H22V0Z"  />
<glyph unicode="&#x200D;" horiz-adv-x="21" d="M78 730L63 716L22 757V0H0V757L-40 716L-56 730L-2 783L-56 835L-40 850L11 797L63 850L78 835L26 783L78 730Z"  />
<glyph unicode="&#x200E;" horiz-adv-x="21" d="M148 783L81 716L66 731L108 773H22V0H0V795H106L66 835L81 850L148 783Z"  />
<glyph unicode="&#x200F;" horiz-adv-x="21" d="M23 0H1V773H-84L-42 731L-58 716L-125 783L-58 850L-42 835L-83 795H23V0Z"  />
<glyph unicode="&#x2013;" horiz-adv-x="311" d="M57 447V504H255V447H57Z"  />
<glyph unicode="&#x2014;" horiz-adv-x="546" d="M57 224V281H489V224H57Z"  />
<glyph unicode="&#x2018;" horiz-adv-x="244" d="M151 292L70 502H148L192 292H151Z"  />
<glyph unicode="&#x2019;" horiz-adv-x="244" d="M101 292H60L104 502H182L101 292Z"  />
<glyph unicode="&#x201A;" horiz-adv-x="183" d="M138 41Q138 11 41 -179H27Q63 -76 63 -19Q63 6 31 46L101 117Q137 72 138 41Z"  />
<glyph unicode="&#x201C;" horiz-adv-x="420" d="M151 292L70 502H148L192 292H151ZM302 292L221 502H299L343 292H302Z"  />
<glyph unicode="&#x201D;" horiz-adv-x="411" d="M101 292H60L104 502H182L101 292ZM254 292H213L257 502H335L254 292Z"  />
<glyph unicode="&#x201E;" horiz-adv-x="380" d="M338 120Q338 87 241 -100H227Q245 -46 254 -7T264 60Q264 81 232 125L301 196Q338 153 338 120ZM166 119Q166 90 68 -101H55Q91 5 91 59Q91 81 60 124L129 195Q166 149 166 119Z"  />
<glyph unicode="&#x2020;" horiz-adv-x="486" d="M456 449Q456 427 439 414T400 400Q378 400 327 420Q276 440 251 440Q251 360 303 320Q251 128 251 -212H231Q231 128 179 320Q231 360 231 440Q206 440 155 420Q104 400 82 400Q60 400 43 413T26 449Q26 471 43 484T82 497Q104 497 155 477Q206 457 231 457Q231 486 207 542Q183 597 183 629Q183 655 199 675T241 696Q267 696 283 676T299 629Q299 597 275 542Q251 486 251 457Q276 457 327 477Q378 497 400 497Q422 497 439 484T456 449Z"  />
<glyph unicode="&#x2021;" horiz-adv-x="432" d="M412 1Q412 -43 362 -43Q339 -43 296 -25Q251 -8 227 -8Q226 -33 248 -85Q270 -136 270 -156Q270 -179 255 -195T216 -212Q193 -212 178 -196T162 -156Q162 -136 184 -85Q206 -33 205 -8Q181 -8 136 -25Q92 -43 70 -43Q20 -43 20 1Q20 46 70 46Q92 46 136 28Q179 10 205 10Q200 67 155 96Q205 155 205 246Q205 329 155 388Q200 417 205 474Q179 474 136 456Q92 438 70 438Q20 438 20 483Q20 527 70 527Q92 527 136 509Q181 492 205 492Q203 518 183 568Q162 620 162 640Q162 663 177 679T216 696Q239 696 254 680T270 640Q270 620 248 569Q226 517 227 492Q251 492 296 509Q339 527 362 527Q412 527 412 483Q412 438 362 438Q339 438 296 456Q252 474 227 474Q232 417 277 388Q227 329 227 246Q227 155 277 96Q232 67 227 10Q252 10 296 28Q339 46 362 46Q412 46 412 1Z"  />
<glyph unicode="&#x2022;" horiz-adv-x="449" d="M430 297Q430 213 370 152Q310 92 226 92Q141 92 80 152Q20 212 20 297Q20 382 80 441Q142 500 226 500Q310 500 370 440Q430 381 430 297Z"  />
<glyph unicode="&#x2026;" horiz-adv-x="565" d="M547 52Q529 36 513 18T480 -17L413 52L482 120Q498 103 514 86T547 52ZM357 52Q339 36 323 18T290 -17L223 52L292 120Q308 103 324 86T357 52ZM167 52Q149 36 133 18T100 -17L33 52L102 120Q118 103 134 86T167 52Z"  />
<glyph unicode="&#x2030;" horiz-adv-x="1179" d="M1148 165Q1148 92 1111 40Q1070 -16 1004 -16Q939 -16 898 40Q861 92 861 165Q861 239 898 294Q939 353 1005 353Q1071 353 1112 294Q1148 240 1148 165ZM818 165Q818 92 781 40Q740 -16 674 -16Q609 -16 568 40Q531 92 531 165Q531 239 568 294Q609 353 675 353Q741 353 782 294Q818 240 818 165ZM691 696L203 -16H158L646 696H691ZM317 508Q317 435 280 383Q239 327 173 327Q108 327 67 383Q30 435 30 508Q30 582 67 637Q108 696 174 696Q240 696 281 637Q317 583 317 508ZM1069 165Q1069 218 1058 262Q1041 327 1006 327Q967 327 951 263Q940 219 940 165Q940 10 1004 10Q1069 10 1069 165ZM739 165Q739 218 728 262Q711 327 676 327Q637 327 621 263Q610 219 610 165Q610 10 674 10Q739 10 739 165ZM238 508Q238 561 227 605Q210 670 175 670Q136 670 120 606Q109 562 109 508Q109 353 173 353Q238 353 238 508Z"  />
<glyph unicode="&#x2039;" horiz-adv-x="330" d="M280 0H249L50 230L249 459H280L152 230L280 0Z"  />
<glyph unicode="&#x203A;" horiz-adv-x="330" d="M280 230L81 0H50L178 230L50 459H81L280 230Z"  />
<glyph unicode="&#x20A7;" horiz-adv-x="968" d="M21 662H272Q347 662 403 638T491 565Q512 535 517 481Q528 494 536 505T552 527Q563 546 579 588H595V446H679V418H595V118Q595 80 599 72Q603 61 611 55T628 49Q635 49 644 54T676 81V149H694Q703 102 718 75Q733 48 761 32T813 16Q845 16 866 36T888 86Q888 111 868 137Q858 149 837 164T783 198Q719 235 697 263Q675 291 675 330Q675 384 711 420Q747 457 800 457Q824 457 866 445Q884 440 887 440Q890 440 903 445H924V311H907Q896 375 867 402T797 430Q769 430 750 411T730 367Q730 341 753 318Q770 301 839 262Q906 223 932 191Q955 159 955 121Q955 64 915 25Q874 -13 813 -13Q790 -13 750 -1Q728 6 714 6Q705 6 698 0H676V42Q648 10 629 -1T589 -13Q558 -13 538 11T517 93V117V418H507Q482 362 442 333Q390 296 317 296Q298 296 272 301T212 317V101Q212 56 232 36T299 17V0H21V17Q48 19 64 23T89 36T102 63T108 108V566Q108 605 89 624T21 645V662ZM212 349Q248 331 278 331Q302 331 323 341T361 370T387 416T397 476Q397 545 360 584T262 624Q240 624 212 615V349Z"  />
<glyph unicode="&#x20AA;" horiz-adv-x="812" d="M737 178Q737 116 715 81T659 27T587 5T518 0H296L251 336H314L353 55H523Q554 55 582 61T631 81T664 118T677 175V502H737V178ZM480 165V289Q480 330 475 360T451 409T398 438T305 447H141V0H81V502H309Q365 502 408 494T480 464T525 401T541 295V165H480Z"  />
<glyph unicode="&#x20AC;" horiz-adv-x="615" d="M589 52Q551 20 504 2T403 -16Q354 -16 310 -1T230 42T168 108T127 191H29L63 251H117Q116 259 116 263T116 271Q116 276 116 281T117 294H29L63 354H128Q142 399 169 436T232 501T311 543T403 558Q457 558 504 540T589 490L558 437Q527 466 488 482T403 498Q333 498 277 459T192 354H512L476 294H177Q176 286 176 281T176 271Q176 267 176 263T177 251H452L417 191H190Q218 124 274 84T403 44Q448 44 487 60T558 105L572 79L589 52H589Z"  />
<glyph unicode="&#x2122;" horiz-adv-x="1034" d="M1006 275H803V293Q840 293 853 315Q863 331 863 371V605H861L708 275H691L538 600H536V371Q536 329 548 313Q562 293 596 293V275H445V293Q479 293 493 313Q505 329 505 371V585Q505 627 493 644T445 662V680H591L729 392L862 680H1006V662Q968 662 955 640Q946 625 946 585V371Q946 329 958 313Q972 293 1006 293V275ZM410 578H394Q383 622 354 637Q330 648 280 648H258V371Q258 331 267 315Q280 293 319 293V275H118V293Q155 293 167 316Q175 334 175 371V648H157Q102 648 82 638Q50 623 43 578H24L36 680H401L410 578Z"  />
<glyph unicode="&#x2212;" horiz-adv-x="488" d="M92 251V308H396V251H92Z"  />
<glyph unicode="&#xDB86;" horiz-adv-x="510" d="M336 202L420 502H480L377 152L483 0H416L86 455Q79 468 73 476T63 491T56 505T53 526V623Q53 645 50 663T42 695Q37 710 31 722H94Q100 709 104 694Q108 681 111 663T114 624Q114 576 114 551T116 509T127 481T153 449L336 202ZM360 -128Q360 -145 347 -156T317 -168Q300 -168 287 -157T274 -128Q274 -111 287 -100T317 -88Q334 -88 347 -99T360 -128ZM243 -128Q243 -145 230 -156T200 -168Q183 -168 170 -157T157 -128Q157 -111 170 -100T200 -88Q217 -88 230 -99T243 -128Z"  />
<glyph unicode="&#xDB87;" horiz-adv-x="510" d="M336 202L420 502H480L377 152L483 0H416L86 455Q79 468 73 476T63 491T56 505T53 526V623Q53 645 50 663T42 695Q37 710 31 722H94Q100 709 104 694Q108 681 111 663T114 624Q114 576 114 551T116 509T127 481T153 449L336 202ZM294 -222Q294 -239 281 -250T251 -262Q234 -262 221 -251T208 -222Q208 -205 221 -194T251 -182Q268 -182 281 -193T294 -222ZM349 -129Q349 -146 336 -157T306 -169Q289 -169 276 -158T263 -129Q263 -112 276 -101T306 -89Q323 -89 336 -100T349 -129ZM232 -129Q232 -146 219 -157T189 -169Q172 -169 159 -158T146 -129Q146 -112 159 -101T189 -89Q206 -89 219 -100T232 -129Z"  />
<glyph unicode="&#xDB88;" horiz-adv-x="510" d="M336 202L420 502H480L377 152L483 0H416L86 455Q79 468 73 476T63 491T56 505T53 526V623Q53 645 50 663T42 695Q37 710 31 722H94Q100 709 104 694Q108 681 111 663T114 624Q114 576 114 551T116 509T127 481T153 449L336 202ZM182 -128Q182 -145 169 -156T139 -168Q122 -168 109 -157T96 -128Q96 -111 109 -100T139 -88Q156 -88 169 -99T182 -128ZM296 -127Q296 -144 283 -155T253 -167Q236 -167 223 -156T210 -127Q210 -110 223 -99T253 -87Q270 -87 283 -98T296 -127ZM409 -225Q409 -242 396 -253T366 -265Q349 -265 336 -254T323 -225Q323 -208 336 -197T366 -185Q383 -185 396 -196T409 -225ZM407 -128Q407 -145 394 -156T364 -168Q347 -168 334 -157T321 -128Q321 -111 334 -100T364 -88Q381 -88 394 -99T407 -128ZM240 -219Q240 -236 227 -247T197 -259Q180 -259 167 -248T154 -219Q154 -202 167 -191T197 -179Q214 -179 227 -190T240 -219Z"  />
<glyph unicode="&#xDB8D;" horiz-adv-x="495" d="M401 0L170 318L86 0H31L131 375L38 502H99L321 202L405 502H465L362 152L468 0H401ZM243 104Q243 87 230 76T200 64Q183 64 170 75T157 104Q157 121 170 132T200 144Q217 144 230 133T243 104Z"  />
<glyph unicode="&#xDB8F;" horiz-adv-x="421" d="M354 404Q353 400 349 381T338 333T323 268T305 195Q285 108 259 0H196L280 355Q289 392 293 411T294 438T280 446T245 447H94Q70 447 52 449T21 460T2 484T-5 526V623Q-5 645 -8 663T-16 695Q-21 710 -27 722H36Q42 709 46 694Q50 681 53 663T56 624Q56 576 56 551T61 515T79 503T118 502H301Q331 502 343 489T358 458T358 424T354 404Z"  />
<glyph unicode="&#xDB90;" horiz-adv-x="0" d="M38 -229V-102H66V-229H38ZM-36 -224Q-36 -241 -49 -252T-79 -264Q-96 -264 -109 -253T-122 -224Q-122 -207 -109 -196T-79 -184Q-62 -184 -49 -195T-36 -224ZM19 -131Q19 -148 6 -159T-24 -171Q-41 -171 -54 -160T-67 -131Q-67 -114 -54 -103T-24 -91Q-7 -91 6 -102T19 -131ZM-98 -131Q-98 -148 -111 -159T-141 -171Q-158 -171 -171 -160T-184 -131Q-184 -114 -171 -103T-141 -91Q-124 -91 -111 -102T-98 -131ZM183 -129Q183 -146 170 -157T140 -169Q123 -169 110 -158T97 -129Q97 -112 110 -101T140 -89Q157 -89 170 -100T183 -129ZM185 -224Q185 -241 172 -252T142 -264Q125 -264 112 -253T99 -224Q99 -207 112 -196T142 -184Q159 -184 172 -195T185 -224Z"  />
<glyph unicode="&#xDB91;" horiz-adv-x="0" d="M-178 -139V-85H20V-139H-178ZM44 -224V-97H72V-224H44ZM177 -125Q177 -142 164 -153T134 -165Q117 -165 104 -154T91 -125Q91 -108 104 -97T134 -85Q151 -85 164 -96T177 -125ZM179 -220Q179 -237 166 -248T136 -260Q119 -260 106 -249T93 -220Q93 -203 106 -192T136 -180Q153 -180 166 -191T179 -220Z"  />
<glyph unicode="&#xDB92;" horiz-adv-x="0" d="M-55 -144Q-52 -163 -50 -182Q-48 -199 -48 -220T-48 -263H-110Q-112 -241 -111 -220T-108 -182Q-106 -163 -103 -144H-179V-91H21V-144H-55ZM45 -225V-98H73V-225H45ZM178 -130Q178 -147 165 -158T135 -170Q118 -170 105 -159T92 -130Q92 -113 105 -102T135 -90Q152 -90 165 -101T178 -130ZM180 -225Q180 -242 167 -253T137 -265Q120 -265 107 -254T94 -225Q94 -208 107 -197T137 -185Q154 -185 167 -196T180 -225Z"  />
<glyph unicode="&#xDB93;" horiz-adv-x="0" d="M-1 -86Q3 -86 11 -93T29 -108T44 -125T51 -137Q51 -140 44 -148T27 -166T9 -181T-2 -188Q-5 -188 -13 -182T-31 -166T-48 -149T-55 -137Q-55 -135 -48 -127T-32 -110T-13 -94T-1 -86ZM2 -226Q7 -226 16 -233T34 -250T49 -268T56 -280Q56 -284 48 -293T31 -311T12 -327T1 -334Q-2 -334 -11 -327T-29 -311T-46 -293T-54 -280Q-54 -278 -47 -270T-30 -251T-11 -234T2 -226Z"  />
<glyph unicode="&#xDB96;" horiz-adv-x="495" d="M266 107Q266 90 253 79T223 67Q206 67 193 78T180 107Q180 124 193 135T223 147Q240 147 253 136T266 107ZM401 0L170 318L86 0H31L131 375L38 502H99L321 202L405 502H465L362 152L468 0H401Z"  />
<glyph unicode="&#xDB97;" horiz-adv-x="714" d="M365 285Q365 268 352 257T322 245Q305 245 292 256T279 285Q279 302 292 313T322 325Q339 325 352 314T365 285ZM591 447V0H531V447H13V502H691V447H591Z"  />
<glyph unicode="&#xDB98;" horiz-adv-x="742" d="M438 226Q438 209 425 198T395 186Q378 186 365 197T352 226Q352 243 365 254T395 266Q412 266 425 255T438 226ZM603 0V290Q603 330 598 360T574 409T521 437T428 447H67V502H432Q488 502 531 494T603 464T648 401T663 294V0H603ZM67 0V307H127V0H67Z"  />
<glyph unicode="&#xDB99;" horiz-adv-x="640" d="M352 252Q352 235 339 224T309 212Q292 212 279 223T266 252Q266 269 279 280T309 292Q326 292 339 281T352 252ZM40 0V58H361Q415 58 451 87T506 159T524 252T506 346T451 418T359 447H40V502H359Q433 502 483 465T558 372T584 251T561 130T487 37T361 0H40Z"  />
<glyph unicode="&#xDB9A;" horiz-adv-x="588" d="M330 288Q330 271 317 260T287 248Q270 248 257 259T244 288Q244 305 257 316T287 328Q304 328 317 317T330 288ZM521 404Q520 400 516 381T505 333T490 268T472 195Q452 108 426 0H363L447 355Q456 392 460 411T461 438T447 446T412 447H94Q70 447 52 449T21 460T2 484T-5 526V623Q-5 645 -8 663T-16 695Q-21 710 -27 722H36Q42 709 46 694Q50 681 53 663T56 624Q56 576 56 551T61 515T79 503T118 502H468Q498 502 510 489T525 458T525 424T521 404Z"  />
<glyph unicode="&#xDB9B;" horiz-adv-x="658" d="M338 281Q338 264 325 253T295 241Q278 241 265 252T252 281Q252 298 265 309T295 321Q312 321 325 310T338 281ZM524 0V291Q524 331 519 360T495 409T442 437T349 447H21V502H354Q409 502 452 494T524 464T569 401T584 294V0H524Z"  />
<glyph unicode="&#xDB9C;" horiz-adv-x="899" d="M562 219Q562 202 549 191T519 179Q502 179 489 190T476 219Q476 236 489 247T519 259Q536 259 549 248T562 219ZM763 0V314Q763 342 761 366T745 409T706 437T633 447H221V126Q221 117 220 94T207 47T170 5T96 -14Q74 -14 60 -7Q53 -3 48 1V52Q61 41 80 39T118 42T148 65T161 108V502H638Q706 502 743 487T798 444T819 379T823 299V0H763Z"  />
<glyph unicode="&#xDB9D;" horiz-adv-x="495" d="M277 156Q275 168 287 166H360Q371 168 371 159V85Q374 73 360 75H286Q276 75 277 86V156ZM401 0L170 318L86 0H31L131 375L38 502H99L321 202L405 502H465L362 152L468 0H401Z"  />
<glyph unicode="&#xDB9E;" horiz-adv-x="714" d="M262 307Q260 319 272 317H345Q356 319 356 310V236Q359 224 345 226H271Q261 226 262 237V307ZM591 447V0H531V447H13V502H691V447H591Z"  />
<glyph unicode="&#xDB9F;" horiz-adv-x="640" d="M327 293Q325 305 337 303H410Q421 305 421 296V222Q424 210 410 212H336Q326 212 327 223V293ZM40 0V58H361Q415 58 451 87T506 159T524 252T506 346T451 418T359 447H40V502H359Q433 502 483 465T558 372T584 251T561 130T487 37T361 0H40Z"  />
<glyph unicode="&#xDBA0;" horiz-adv-x="495" d="M401 0L170 318L86 0H31L131 375L38 502H99L321 202L405 502H465L362 152L468 0H401ZM173 126Q171 138 183 136H256Q267 138 267 129V55Q270 43 256 45H182Q172 45 173 56V126Z"  />
<glyph unicode="&#xDBA1;" horiz-adv-x="503" d="M36 0V55H167Q225 55 264 72T327 117T361 180T371 250Q371 289 361 324T329 387T276 430T200 447H36V502H201Q261 502 305 481T378 426T421 346T436 252Q436 198 418 162T377 104T337 70T318 54Q318 49 325 49T344 49T367 53T389 55H454V0H36ZM165 287Q163 299 175 297H248Q259 299 259 290V216Q262 204 248 206H174Q164 206 165 217V287Z"  />
<glyph unicode="&#xDBA2;" horiz-adv-x="351" d="M243 0Q235 7 232 23T226 55T222 83T215 96Q207 96 203 79T186 41T150 3T78 -15Q57 -15 40 -8Q31 -4 24 0V55Q57 44 90 44T151 66T194 142T211 290Q211 375 183 411T84 447H45V502H86Q140 502 175 487T232 445T263 382T272 302V152Q272 110 276 75T299 0H243ZM66 290Q64 302 76 300H149Q160 302 160 293V219Q163 207 149 209H75Q65 209 66 220V290Z"  />
<glyph unicode="&#xDBA3;" horiz-adv-x="449" d="M326 447V0H266V447H13V502H426V447H326ZM109 331Q107 343 119 341H192Q203 343 203 334V260Q206 248 192 250H118Q108 250 109 261V331Z"  />
<glyph unicode="&#xDBA4;" horiz-adv-x="241" d="M91 0V404Q91 430 84 459T72 502H135Q139 490 142 480T147 458T150 434T151 402V0H91ZM-39 317Q-41 329 -29 327H44Q55 329 55 320V246Q58 234 44 236H-30Q-40 236 -39 247V317Z"  />
<glyph unicode="&#xDBA5;" horiz-adv-x="285" d="M251 447Q227 447 210 446T183 432T168 390T163 304V0H103V298Q103 335 103 359T105 400T118 425T145 441L146 442Q146 443 146 443T147 446Q147 450 143 450T134 450T124 448T116 447H20V502H251V447ZM-25 346Q-27 358 -15 356H58Q69 358 69 349V275Q72 263 58 265H-16Q-26 265 -25 276V346Z"  />
<glyph unicode="&#xDBA6;" horiz-adv-x="586" d="M511 187Q511 82 454 34T284 -15Q225 -15 185 2T121 47T87 109T76 178V502H137V197Q137 164 144 136T168 86T213 53T286 41Q326 41 357 48T408 72T438 119T449 193V313Q449 356 442 385T421 430T384 454T330 461Q308 461 292 456T264 443Q251 435 242 425V487Q252 495 266 502Q278 507 295 512T334 517Q372 517 404 508T460 478T497 420T511 330V187ZM251 274Q249 286 261 284H334Q345 286 345 277V203Q348 191 334 193H260Q250 193 251 204V274Z"  />
<glyph unicode="&#xDBA7;" horiz-adv-x="215" d="M77 241V404Q77 419 75 434T71 462T65 486T59 502H124Q131 480 135 455T140 402V241H77ZM-51 380Q-53 392 -41 390H32Q43 392 43 383V309Q46 297 32 299H-42Q-52 299 -51 310V380Z"  />
<glyph unicode="&#xDBA8;" horiz-adv-x="442" d="M305 -192V291Q305 331 300 360T276 408T224 437T131 447H19V502H133Q189 502 232 494T305 464T350 400T365 293V-192H305ZM115 327Q113 339 125 337H198Q209 339 209 330V256Q212 244 198 246H124Q114 246 115 257V327Z"  />
<glyph unicode="&#xDBA9;" horiz-adv-x="471" d="M40 0V58H192Q246 58 282 87T337 159T355 252T337 346T282 418T190 447H40V502H190Q264 502 314 465T389 372T415 251T392 130T318 37T192 0H40ZM167 298Q165 310 177 308H250Q261 310 261 301V227Q264 215 250 217H176Q166 217 167 228V298Z"  />
<glyph unicode="&#xDBAA;" horiz-adv-x="421" d="M354 404Q353 400 349 381T338 333T323 268T305 195Q285 108 259 0H196L280 355Q289 392 293 411T294 438T280 446T245 447H94Q70 447 52 449T21 460T2 484T-5 526V623Q-5 645 -8 663T-16 695Q-21 710 -27 722H36Q42 709 46 694Q50 681 53 663T56 624Q56 576 56 551T61 515T79 503T118 502H301Q331 502 343 489T358 458T358 424T354 404ZM108 360Q106 372 118 370H191Q202 372 202 363V289Q205 277 191 279H117Q107 279 108 290V360Z"  />
<glyph unicode="&#xDBAB;" horiz-adv-x="601" d="M522 143Q522 92 500 58T441 5T361 -14T271 -1V48Q288 37 320 34T383 41T438 76T461 147V337Q461 398 431 430T337 462Q280 462 245 443T189 392T162 320T155 239V0H93V393Q93 426 89 452T80 502H141Q150 485 152 464T154 421Q155 416 156 415T162 413Q166 413 175 429T205 464T259 500T347 517Q386 517 418 507T473 475T509 421T522 344V143ZM274 275Q272 287 284 285H357Q368 287 368 278V204Q371 192 357 194H283Q273 194 274 205V275Z"  />
<glyph unicode="&#xDBAC;" horiz-adv-x="337" d="M29 0V55H201V295Q201 337 192 366T167 413T131 439T87 447H39V502H88Q124 502 156 491T211 457T248 399T262 314V0H29ZM44 279Q42 291 54 289H127Q138 291 138 282V208Q141 196 127 198H53Q43 198 44 209V279Z"  />
<glyph unicode="&#xDBAD;" horiz-adv-x="579" d="M503 179Q503 117 481 82T425 28T353 5T284 0Q254 -1 224 -1T171 0H119L47 502H503V179ZM443 447H120L174 55H290Q321 55 349 61T398 81T431 118T443 175V447ZM255 298Q253 310 265 308H338Q349 310 349 301V227Q352 215 338 217H264Q254 217 255 228V298Z"  />
<glyph unicode="&#xDBAE;" horiz-adv-x="545" d="M408 -193V241Q408 292 402 332T377 401T328 445T249 461Q199 461 168 439T124 383T114 312T136 241H73Q48 281 48 329T73 418T142 488T250 516Q315 516 357 496T425 439T460 352T470 240V-193H408ZM240 296Q238 308 250 306H323Q334 308 334 299V225Q337 213 323 215H249Q239 215 240 226V296Z"  />
<glyph unicode="&#xDBAF;" horiz-adv-x="565" d="M499 251Q499 189 482 142T434 64T362 16T271 0H115L108 55H267Q297 55 327 65T382 98T421 158T436 250Q436 290 426 328T396 396T346 444T275 462Q220 462 185 439T132 381T115 309T129 242H66Q56 262 53 289T55 348T76 409T118 463T184 502T276 517Q321 517 361 500T432 450T481 367T499 251ZM253 293Q251 305 263 303H336Q347 305 347 296V222Q350 210 336 212H262Q252 212 253 223V293Z"  />
<glyph unicode="&#xDBB0;" horiz-adv-x="496" d="M308 224L441 58V0H27V55H376Q352 83 325 117T268 188T210 262T154 335Q92 417 27 502H101L270 270L376 502H442L308 224ZM86 205Q84 217 96 215H169Q180 217 180 208V134Q183 122 169 124H95Q85 124 86 135V205Z"  />
<glyph unicode="&#xDBB1;" horiz-adv-x="538" d="M462 182Q462 135 449 100T413 40T360 4T293 -8Q275 -8 263 -6T242 0Q232 4 227 8V50Q233 48 241 46Q248 44 258 43T282 42Q317 42 340 55T377 89T396 134T402 181V447H50V502H462V182ZM70 -192V310H131V-192H70ZM229 296Q227 308 239 306H312Q323 308 323 299V225Q326 213 312 215H238Q228 215 229 226V296Z"  />
<glyph unicode="&#xDBB2;" horiz-adv-x="439" d="M305 0V291Q305 331 300 360T276 409T223 437T130 447H21V502H135Q190 502 233 494T305 464T350 401T365 294V0H305ZM116 330Q114 342 126 340H199Q210 342 210 333V259Q213 247 199 249H125Q115 249 116 260V330Z"  />
<glyph unicode="&#xDBB3;" horiz-adv-x="643" d="M275 165V502H335V165H275ZM541 178Q541 116 519 81T463 27T391 5T322 0H113L48 502H110L170 55H327Q358 55 386 61T435 81T468 118T481 175V502H541V178ZM359 293Q357 305 369 303H442Q453 305 453 296V222Q456 210 442 212H368Q358 212 359 223V293Z"  />
<glyph unicode="&#xDBB4;" horiz-adv-x="657" d="M332 288Q330 300 342 298H415Q426 300 426 291V217Q429 205 415 207H341Q331 207 332 218V288ZM521 0V314Q521 342 519 366T503 409T464 437T391 447H221V126Q221 117 220 94T207 47T170 5T96 -14Q74 -14 60 -7Q53 -3 48 1V52Q61 41 80 39T118 42T148 65T161 108V502H396Q464 502 501 487T556 444T577 379T581 299V0H521Z"  />
<glyph unicode="&#xDBB5;" horiz-adv-x="421" d="M105 362Q103 374 115 372H188Q199 374 199 365V291Q202 279 188 281H114Q104 281 105 292V362ZM354 404Q353 400 349 381T338 333T323 268T305 195Q285 108 259 0H196L280 355Q289 392 293 411T294 438T280 446T245 447H94Q70 447 52 449T21 460T2 484T-5 526V623Q-5 645 -8 663T-16 695Q-21 710 -27 722H36Q42 709 46 694Q50 681 53 663T56 624Q56 576 56 551T61 515T79 503T118 502H301Q331 502 343 489T358 458T358 424T354 404ZM-30 623Q-30 606 -43 595T-73 583Q-90 583 -103 594T-116 623Q-116 640 -103 651T-73 663Q-56 663 -43 652T-30 623Z"  />
<glyph unicode="&#xDBB6;" horiz-adv-x="617" d="M360 302Q358 314 370 312H443Q454 314 454 305V231Q457 219 443 221H369Q359 221 360 232V302ZM275 165V502H335V165H275ZM541 178Q541 116 519 81T463 27T391 5T322 0H113L48 502H110L170 55H327Q358 55 386 61T435 81T468 118T481 175V502H541V178ZM550 603Q550 586 537 575T507 563Q490 563 477 574T464 603Q464 620 477 631T507 643Q524 643 537 632T550 603Z"  />
<glyph unicode="&#xDBB7;" horiz-adv-x="617" d="M370 340Q368 352 380 350H453Q464 352 464 343V269Q467 257 453 259H379Q369 259 370 270V340ZM285 165V502H345V165H285ZM551 178Q551 116 529 81T473 27T401 5T332 0H123L58 502H120L180 55H337Q368 55 396 61T445 81T478 118T491 175V502H551V178ZM134 612Q134 595 121 584T91 572Q74 572 61 583T48 612Q48 629 61 640T91 652Q108 652 121 641T134 612Z"  />
<glyph unicode="&#xDBB8;" horiz-adv-x="588" d="M263 314Q261 326 273 324H346Q357 326 357 317V243Q360 231 346 233H272Q262 233 263 244V314ZM521 404Q520 400 516 381T505 333T490 268T472 195Q452 108 426 0H363L447 355Q456 392 460 411T461 438T447 446T412 447H94Q70 447 52 449T21 460T2 484T-5 526V623Q-5 645 -8 663T-16 695Q-21 710 -27 722H36Q42 709 46 694Q50 681 53 663T56 624Q56 576 56 551T61 515T79 503T118 502H468Q498 502 510 489T525 458T525 424T521 404Z"  />
<glyph unicode="&#xDBB9;" horiz-adv-x="658" d="M281 286Q279 298 291 296H364Q375 298 375 289V215Q378 203 364 205H290Q280 205 281 216V286ZM524 0V291Q524 331 519 360T495 409T442 437T349 447H21V502H354Q409 502 452 494T524 464T569 401T584 294V0H524Z"  />
<glyph unicode="&#xDBBA;" horiz-adv-x="899" d="M378 273Q376 285 388 283H461Q472 285 472 276V202Q475 190 461 192H387Q377 192 378 203V273ZM763 0V314Q763 342 761 366T745 409T706 437T633 447H221V126Q221 117 220 94T207 47T170 5T96 -14Q74 -14 60 -7Q53 -3 48 1V52Q61 41 80 39T118 42T148 65T161 108V502H638Q706 502 743 487T798 444T819 379T823 299V0H763Z"  />
<glyph unicode="&#xDBBB;" horiz-adv-x="0" d="M210 240Q208 252 220 250H293Q304 252 304 243V169Q307 157 293 159H219Q209 159 210 170V240Z"  />
<glyph unicode="&#xE802;" horiz-adv-x="442" d="M305 -192V291Q305 331 300 360T276 408T224 437T131 447H19V502H133Q189 502 232 494T305 464T350 400T365 293V-192H305ZM255 248Q255 231 242 220T212 208Q195 208 182 219T169 248Q169 265 182 276T212 288Q229 288 242 277T255 248ZM257 154Q257 137 244 126T214 114Q197 114 184 125T171 154Q171 171 184 182T214 194Q231 194 244 183T257 154Z"  />
<glyph unicode="&#xE803;" horiz-adv-x="442" d="M305 -192V291Q305 331 300 360T276 408T224 437T131 447H19V502H133Q189 502 232 494T305 464T350 400T365 293V-192H305ZM191 238Q194 219 196 200Q198 183 198 162T198 119H136Q134 141 135 162T138 200Q140 219 143 238H67V291H267V238H191Z"  />
<glyph unicode="&#xE804;" horiz-adv-x="421" d="M354 404Q353 400 349 381T338 333T323 268T305 195Q285 108 259 0H196L280 355Q289 392 293 411T294 438T280 446T245 447H94Q70 447 52 449T21 460T2 484T-5 526V623Q-5 645 -8 663T-16 695Q-21 710 -27 722H36Q42 709 46 694Q50 681 53 663T56 624Q56 576 56 551T61 515T79 503T118 502H301Q331 502 343 489T358 458T358 424T354 404ZM-44 621Q-44 604 -57 593T-87 581Q-104 581 -117 592T-130 621Q-130 638 -117 649T-87 661Q-70 661 -57 650T-44 621Z"  />
<glyph unicode="&#xE805;" horiz-adv-x="421" d="M354 404Q353 400 349 381T338 333T323 268T305 195Q285 108 259 0H196L280 355Q289 392 293 411T294 438T280 446T245 447H94Q70 447 52 449T21 460T2 484T-5 526V623Q-5 645 -8 663T-16 695Q-21 710 -27 722H36Q42 709 46 694Q50 681 53 663T56 624Q56 576 56 551T61 515T79 503T118 502H301Q331 502 343 489T358 458T358 424T354 404ZM195 289Q195 272 182 261T152 249Q135 249 122 260T109 289Q109 306 122 317T152 329Q169 329 182 318T195 289ZM-40 628Q-40 611 -53 600T-83 588Q-100 588 -113 599T-126 628Q-126 645 -113 656T-83 668Q-66 668 -53 657T-40 628Z"  />
<glyph unicode="&#xE890;" horiz-adv-x="493" d="M471 250Q471 193 455 145T410 60T340 4T247 -16Q195 -16 154 4T83 61T38 146T22 252Q22 306 37 354T82 438T152 495T247 516Q300 516 342 495T412 438T456 354T471 250ZM404 250Q404 317 387 360T346 428T294 462T247 472Q227 472 200 463T149 428T108 360T91 250Q91 181 109 138T151 71T202 38T247 29Q267 29 294 38T345 73T387 141T404 250Z"  />
<glyph unicode="&#xE891;" horiz-adv-x="493" d="M158 0V433Q141 417 118 403T73 377Q48 364 22 352V407Q57 422 86 438Q111 452 133 468T162 502H220V0H158Z"  />
<glyph unicode="&#xE892;" horiz-adv-x="493" d="M22 0V67Q76 102 125 138Q167 169 211 204T284 271Q309 299 316 319T324 365Q324 398 313 418T286 449T250 464T215 468Q173 468 148 454T109 421T91 382T88 351H26Q26 362 30 389T54 444T111 495T217 517Q264 517 296 502T347 465T375 416T383 365Q383 328 366 294T329 239Q319 228 304 215T269 186T228 156T187 126Q139 92 85 55H391V0H22Z"  />
<glyph unicode="&#xE893;" horiz-adv-x="493" d="M404 128Q404 89 388 62T344 18T282 -7T207 -15Q171 -15 144 -8T98 10T65 36T43 66Q24 102 23 148H84Q84 136 88 117T105 79T142 46T207 32Q274 32 308 60T342 141Q342 162 336 177T318 204T293 222T265 235Q232 246 189 245V289Q197 289 221 293T272 306T319 332T340 374Q340 409 324 428T287 455T243 465T208 467Q167 467 143 453T105 419T88 380T84 349H23Q28 396 49 433Q58 449 71 464T104 491T149 510T208 517Q242 517 276 510T339 487T384 443T402 376Q402 344 385 325T347 294T309 278T292 269Q292 267 309 262T348 243T386 201T404 128Z"  />
<glyph unicode="&#xE894;" horiz-adv-x="493" d="M332 148V0H271V148H22V203L248 502H332V197H432V148H332ZM270 458L73 197H271L270 458Z"  />
<glyph unicode="&#xE895;" horiz-adv-x="493" d="M414 168Q414 135 400 103T361 44T299 1T220 -15Q179 -15 143 -6T80 22T38 67T22 130H84Q84 82 121 59T221 35Q251 35 275 46T316 75T342 117T352 168Q352 193 346 218T325 264T285 297T220 310Q188 310 165 301T127 281T105 257T98 239H35L46 502H381V447H100Q97 403 95 370Q94 356 94 342T93 318T92 301T91 294Q95 300 105 310T132 331T172 350T223 358Q276 358 312 341T371 296T404 235T414 168Z"  />
<glyph unicode="&#xE896;" horiz-adv-x="493" d="M422 167Q422 132 410 100T373 42T314 1T232 -15Q170 -15 130 8T65 68T32 153T22 250Q22 285 28 331T57 418T120 488T229 517Q280 517 315 499T371 457T401 409T411 373H357Q355 390 346 407T321 439T282 463T231 472Q193 472 168 458T126 421T101 371T89 318T85 270T84 237Q97 265 118 287Q136 306 164 321T231 337Q277 337 312 324T372 287T409 233T422 167ZM365 167Q365 183 359 204T337 245T297 279T233 293Q203 293 179 283T136 256T109 216T99 167Q99 137 108 112T135 68T177 39T233 28Q251 28 274 34T317 57T351 99T365 167Z"  />
<glyph unicode="&#xE897;" horiz-adv-x="493" d="M206 0H139L313 447H22V503H366V429L206 0Z"  />
<glyph unicode="&#xE898;" horiz-adv-x="493" d="M469 136Q469 107 458 77T420 23T351 -16T246 -32Q184 -32 141 -17T72 23T34 78T22 138Q22 181 44 207T92 248T140 267T162 276Q162 279 145 284T108 301T70 334T53 392Q53 427 67 453T108 497T169 523T246 532Q288 532 323 523T383 497T423 454T438 393Q438 357 421 335T383 301T345 284T328 276Q328 273 350 268T398 248T447 208T469 136ZM378 392Q378 419 366 438T334 468T292 485T246 490Q221 490 198 485T156 468T126 437T114 391Q114 367 129 350T166 322T209 305T246 300Q261 300 283 305T327 322T363 350T378 392ZM402 130Q402 161 390 183T356 219T307 241T246 248Q218 248 190 242T140 223T103 187T89 131Q89 104 102 83T136 46T186 24T246 16Q278 16 306 23T356 46T389 82T402 130Z"  />
<glyph unicode="&#xE899;" horiz-adv-x="493" d="M426 253Q426 217 417 171T384 84T316 14T204 -15Q165 -15 137 -6T88 18T55 51T35 88T25 123T22 151H85Q85 142 88 122T103 81T140 45T207 29Q249 29 277 45T323 85T350 139T363 197T367 249T367 283Q354 254 332 231Q313 211 283 195T205 179Q165 179 132 192T74 227T36 277T22 335Q22 373 35 406T71 464T128 503T204 517Q254 517 290 503T351 465T390 413T413 354T423 298T426 253ZM309 436Q290 455 266 465T216 475T165 468T120 441Q100 423 90 400T78 353T86 306T113 263Q132 244 156 234T206 224T257 231T302 258Q322 276 333 299T344 346T337 393T309 436Z"  />
<glyph unicode="&#xFB01;" horiz-adv-x="538" d="M518 0H34V18Q78 18 93 39Q106 55 106 107V425H18V459H106V528Q106 564 118 595T154 648T212 683T292 696Q363 696 402 677Q449 654 449 615Q449 576 408 576Q372 576 359 598L341 640Q326 662 288 662Q245 662 217 637T189 576V459H446V107Q446 56 460 37T518 18V0ZM363 353Q363 400 359 409Q355 425 333 425H189V107Q189 56 203 37T261 18H291Q335 18 350 39Q363 55 363 107V353Z"  />
<glyph unicode="&#xFB02;" horiz-adv-x="587" d="M563 0H336V18Q380 18 395 39Q408 55 408 107V550Q408 569 408 581T407 599Q398 576 368 576Q337 576 315 619Q293 662 258 662Q245 662 233 655T211 636T195 609T189 576V459H301V425H189V107Q189 56 203 37T261 18V0H34V18Q78 18 93 39Q106 55 106 107V425H18V459H106V528Q106 597 151 647Q197 696 262 696Q351 696 389 661L467 696H491V107Q491 56 505 37T563 18V0Z"  />
<glyph unicode="&#xFB1F;" horiz-adv-x="391" d="M101 -137V-83H299V-137H101ZM90 241V404Q90 419 88 434T84 462T78 486T72 502H137Q144 480 148 455T153 402V241H90ZM238 241V404Q238 419 236 434T232 462T226 486T220 502H285Q292 480 296 455T301 402V241H238Z"  />
<glyph unicode="&#xFB20;" horiz-adv-x="506" d="M430 180Q430 118 408 82T352 28T280 5T212 0H32V55H211L30 502H97L273 59Q313 67 333 85T361 126T370 172T370 214V502H430V180H430Z"  />
<glyph unicode="&#xFB21;" horiz-adv-x="495" d="M401 0L170 318L86 0H31L131 375L38 502H99L321 202L405 502H465L362 152L468 0H401Z"  />
<glyph unicode="&#xFB22;" horiz-adv-x="714" d="M591 447V0H531V447H13V502H691V447H591Z"  />
<glyph unicode="&#xFB23;" horiz-adv-x="742" d="M603 0V290Q603 330 598 360T574 409T521 437T428 447H67V502H432Q488 502 531 494T603 464T648 401T663 294V0H603ZM67 0V307H127V0H67Z"  />
<glyph unicode="&#xFB24;" horiz-adv-x="640" d="M40 0V58H361Q415 58 451 87T506 159T524 252T506 346T451 418T359 447H40V502H359Q433 502 483 465T558 372T584 251T561 130T487 37T361 0H40Z"  />
<glyph unicode="&#xFB25;" horiz-adv-x="588" d="M521 404Q520 400 516 381T505 333T490 268T472 195Q452 108 426 0H363L447 355Q456 392 460 411T461 438T447 446T412 447H94Q70 447 52 449T21 460T2 484T-5 526V623Q-5 645 -8 663T-16 695Q-21 710 -27 722H36Q42 709 46 694Q50 681 53 663T56 624Q56 576 56 551T61 515T79 503T118 502H468Q498 502 510 489T525 458T525 424T521 404Z"  />
<glyph unicode="&#xFB26;" horiz-adv-x="792" d="M80 0V502H535Q625 502 670 449T716 293V0H80ZM656 296Q656 346 645 376T615 421T570 442T515 447H140V55H656V296Z"  />
<glyph unicode="&#xFB27;" horiz-adv-x="658" d="M524 0V291Q524 331 519 360T495 409T442 437T349 447H21V502H354Q409 502 452 494T524 464T569 401T584 294V0H524Z"  />
<glyph unicode="&#xFB28;" horiz-adv-x="899" d="M763 0V314Q763 342 761 366T745 409T706 437T633 447H221V126Q221 117 220 94T207 47T170 5T96 -14Q74 -14 60 -7Q53 -3 48 1V52Q61 41 80 39T118 42T148 65T161 108V502H638Q706 502 743 487T798 444T819 379T823 299V0H763Z"  />
<glyph unicode="&#xFB29;" horiz-adv-x="460" d="M428 209H32V317H176V459H284V317H428V209Z"  />
<glyph unicode="&#xFB2A;" horiz-adv-x="617" d="M275 165V502H335V165H275ZM541 178Q541 116 519 81T463 27T391 5T322 0H113L48 502H110L170 55H327Q358 55 386 61T435 81T468 118T481 175V502H541V178ZM556 593Q556 576 543 565T513 553Q496 553 483 564T470 593Q470 610 483 621T513 633Q530 633 543 622T556 593Z"  />
<glyph unicode="&#xFB2B;" horiz-adv-x="617" d="M293 165V502H353V165H293ZM559 178Q559 116 537 81T481 27T409 5T340 0H131L66 502H128L188 55H345Q376 55 404 61T453 81T486 118T499 175V502H559V178ZM134 589Q134 572 121 561T91 549Q74 549 61 560T48 589Q48 606 61 617T91 629Q108 629 121 618T134 589Z"  />
<glyph unicode="&#xFB2C;" horiz-adv-x="617" d="M554 591Q554 574 541 563T511 551Q494 551 481 562T468 591Q468 608 481 619T511 631Q528 631 541 620T554 591ZM275 165V502H335V165H275ZM541 178Q541 116 519 81T463 27T391 5T322 0H113L48 502H110L170 55H327Q358 55 386 61T435 81T468 118T481 175V502H541V178ZM451 220Q451 203 438 192T408 180Q391 180 378 191T365 220Q365 237 378 248T408 260Q425 260 438 249T451 220Z"  />
<glyph unicode="&#xFB2D;" horiz-adv-x="617" d="M134 592Q134 575 121 564T91 552Q74 552 61 563T48 592Q48 609 61 620T91 632Q108 632 121 621T134 592ZM294 165V502H354V165H294ZM560 178Q560 116 538 81T482 27T410 5T341 0H132L67 502H129L189 55H346Q377 55 405 61T454 81T487 118T500 175V502H560V178ZM467 218Q467 201 454 190T424 178Q407 178 394 189T381 218Q381 235 394 246T424 258Q441 258 454 247T467 218Z"  />
<glyph unicode="&#xFB2E;" horiz-adv-x="495" d="M401 0L170 318L86 0H31L131 375L38 502H99L321 202L405 502H465L362 152L468 0H401ZM157 -139V-85H355V-139H157Z"  />
<glyph unicode="&#xFB2F;" horiz-adv-x="495" d="M401 0L170 318L86 0H31L131 375L38 502H99L321 202L405 502H465L362 152L468 0H401ZM283 -139Q286 -158 288 -177Q290 -194 290 -215T290 -258H228Q226 -236 227 -215T230 -177Q232 -158 235 -139H159V-86H359V-139H283Z"  />
<glyph unicode="&#xFB30;" horiz-adv-x="495" d="M401 0L170 318L86 0H31L131 375L38 502H99L321 202L405 502H465L362 152L468 0H401ZM292 -131Q292 -148 279 -159T249 -171Q232 -171 219 -160T206 -131Q206 -114 219 -103T249 -91Q266 -91 279 -102T292 -131Z"  />
<glyph unicode="&#xFB31;" horiz-adv-x="503" d="M36 0V55H167Q225 55 264 72T327 117T361 180T371 250Q371 289 361 324T329 387T276 430T200 447H36V502H201Q261 502 305 481T378 426T421 346T436 252Q436 198 418 162T377 104T337 70T318 54Q318 49 325 49T344 49T367 53T389 55H454V0H36ZM249 242Q249 225 236 214T206 202Q189 202 176 213T163 242Q163 259 176 270T206 282Q223 282 236 271T249 242Z"  />
<glyph unicode="&#xFB32;" horiz-adv-x="351" d="M243 0Q235 7 232 23T226 55T222 83T215 96Q207 96 203 79T186 41T150 3T78 -15Q57 -15 40 -8Q31 -4 24 0V55Q57 44 90 44T151 66T194 142T211 290Q211 375 183 411T84 447H45V502H86Q140 502 175 487T232 445T263 382T272 302V152Q272 110 276 75T299 0H243ZM144 245Q144 228 131 217T101 205Q84 205 71 216T58 245Q58 262 71 273T101 285Q118 285 131 274T144 245Z"  />
<glyph unicode="&#xFB33;" horiz-adv-x="449" d="M326 447V0H266V447H13V502H426V447H326ZM212 260Q212 243 199 232T169 220Q152 220 139 231T126 260Q126 277 139 288T169 300Q186 300 199 289T212 260Z"  />
<glyph unicode="&#xFB34;" horiz-adv-x="546" d="M407 0V290Q407 330 402 360T378 409T325 437T232 447H67V502H236Q292 502 335 494T407 464T452 401T467 294V0H407ZM67 0V307H127V0H67ZM306 240Q306 223 293 212T263 200Q246 200 233 211T220 240Q220 257 233 268T263 280Q280 280 293 269T306 240Z"  />
<glyph unicode="&#xFB35;" horiz-adv-x="241" d="M91 0V404Q91 430 84 459T72 502H135Q139 490 142 480T147 458T150 434T151 402V0H91ZM62 242Q62 225 49 214T19 202Q2 202 -11 213T-24 242Q-24 259 -11 270T19 282Q36 282 49 271T62 242Z"  />
<glyph unicode="&#xFB36;" horiz-adv-x="285" d="M251 447Q227 447 210 446T183 432T168 390T163 304V0H103V298Q103 335 103 359T105 400T118 425T145 441L146 442Q146 443 146 443T147 446Q147 450 143 450T134 450T124 448T116 447H20V502H251V447ZM72 296Q72 279 59 268T29 256Q12 256 -1 267T-14 296Q-14 313 -1 324T29 336Q46 336 59 325T72 296Z"  />
<glyph unicode="&#xFB38;" horiz-adv-x="586" d="M511 187Q511 82 454 34T284 -15Q225 -15 185 2T121 47T87 109T76 178V502H137V197Q137 164 144 136T168 86T213 53T286 41Q326 41 357 48T408 72T438 119T449 193V313Q449 356 442 385T421 430T384 454T330 461Q308 461 292 456T264 443Q251 435 242 425V487Q252 495 266 502Q278 507 295 512T334 517Q372 517 404 508T460 478T497 420T511 330V187ZM331 242Q331 225 318 214T288 202Q271 202 258 213T245 242Q245 259 258 270T288 282Q305 282 318 271T331 242Z"  />
<glyph unicode="&#xFB39;" horiz-adv-x="215" d="M77 241V404Q77 419 75 434T71 462T65 486T59 502H124Q131 480 135 455T140 402V241H77ZM48 291Q48 274 35 263T5 251Q-12 251 -25 262T-38 291Q-38 308 -25 319T5 331Q22 331 35 320T48 291Z"  />
<glyph unicode="&#xFB3A;" horiz-adv-x="442" d="M305 -192V291Q305 331 300 360T276 408T224 437T131 447H19V502H133Q189 502 232 494T305 464T350 400T365 293V-192H305ZM219 251Q219 234 206 223T176 211Q159 211 146 222T133 251Q133 268 146 279T176 291Q193 291 206 280T219 251Z"  />
<glyph unicode="&#xFB3B;" horiz-adv-x="471" d="M40 0V58H192Q246 58 282 87T337 159T355 252T337 346T282 418T190 447H40V502H190Q264 502 314 465T389 372T415 251T392 130T318 37T192 0H40ZM241 242Q241 225 228 214T198 202Q181 202 168 213T155 242Q155 259 168 270T198 282Q215 282 228 271T241 242Z"  />
<glyph unicode="&#xFB3C;" horiz-adv-x="421" d="M354 404Q353 400 349 381T338 333T323 268T305 195Q285 108 259 0H196L280 355Q289 392 293 411T294 438T280 446T245 447H94Q70 447 52 449T21 460T2 484T-5 526V623Q-5 645 -8 663T-16 695Q-21 710 -27 722H36Q42 709 46 694Q50 681 53 663T56 624Q56 576 56 551T61 515T79 503T118 502H301Q331 502 343 489T358 458T358 424T354 404ZM189 298Q189 281 176 270T146 258Q129 258 116 269T103 298Q103 315 116 326T146 338Q163 338 176 327T189 298Z"  />
<glyph unicode="&#xFB3E;" horiz-adv-x="601" d="M522 143Q522 92 500 58T441 5T361 -14T271 -1V48Q288 37 320 34T383 41T438 76T461 147V337Q461 398 431 430T337 462Q280 462 245 443T189 392T162 320T155 239V0H93V393Q93 426 89 452T80 502H141Q150 485 152 464T154 421Q155 416 156 415T162 413Q166 413 175 429T205 464T259 500T347 517Q386 517 418 507T473 475T509 421T522 344V143ZM362 228Q362 211 349 200T319 188Q302 188 289 199T276 228Q276 245 289 256T319 268Q336 268 349 257T362 228Z"  />
<glyph unicode="&#xFB40;" horiz-adv-x="337" d="M29 0V55H201V295Q201 337 192 366T167 413T131 439T87 447H39V502H88Q124 502 156 491T211 457T248 399T262 314V0H29ZM167 245Q167 228 154 217T124 205Q107 205 94 216T81 245Q81 262 94 273T124 285Q141 285 154 274T167 245Z"  />
<glyph unicode="&#xFB41;" horiz-adv-x="579" d="M503 179Q503 117 481 82T425 28T353 5T284 0Q254 -1 224 -1T171 0H119L47 502H503V179ZM443 447H120L174 55H290Q321 55 349 61T398 81T431 118T443 175V447ZM339 242Q339 225 326 214T296 202Q279 202 266 213T253 242Q253 259 266 270T296 282Q313 282 326 271T339 242Z"  />
<glyph unicode="&#xFB43;" horiz-adv-x="496" d="M380 -193V241Q380 292 374 332T349 401T300 445T221 461Q171 461 140 439T96 383T86 312T108 241H45Q20 281 20 329T45 418T114 488T222 516Q287 516 329 496T397 439T432 352T442 240V-193H380ZM275 287Q275 270 262 259T232 247Q215 247 202 258T189 287Q189 304 202 315T232 327Q249 327 262 316T275 287Z"  />
<glyph unicode="&#xFB44;" horiz-adv-x="565" d="M499 251Q499 189 482 142T434 64T362 16T271 0H115L108 55H267Q297 55 327 65T382 98T421 158T436 250Q436 290 426 328T396 396T346 444T275 462Q220 462 185 439T132 381T115 309T129 242H66Q56 262 53 289T55 348T76 409T118 463T184 502T276 517Q321 517 361 500T432 450T481 367T499 251ZM313 287Q313 270 300 259T270 247Q253 247 240 258T227 287Q227 304 240 315T270 327Q287 327 300 316T313 287Z"  />
<glyph unicode="&#xFB46;" horiz-adv-x="496" d="M308 224L441 58V0H27V55H376Q352 83 325 117T268 188T210 262T154 335Q92 417 27 502H101L270 270L376 502H442L308 224ZM209 154Q209 137 196 126T166 114Q149 114 136 125T123 154Q123 171 136 182T166 194Q183 194 196 183T209 154Z"  />
<glyph unicode="&#xFB47;" horiz-adv-x="538" d="M462 182Q462 135 449 100T413 40T360 4T293 -8Q275 -8 263 -6T242 0Q232 4 227 8V50Q233 48 241 46Q248 44 258 43T282 42Q317 42 340 55T377 89T396 134T402 181V447H50V502H462V182ZM70 -192V310H131V-192H70ZM317 247Q317 230 304 219T274 207Q257 207 244 218T231 247Q231 264 244 275T274 287Q291 287 304 276T317 247Z"  />
<glyph unicode="&#xFB48;" horiz-adv-x="439" d="M305 0V291Q305 331 300 360T276 409T223 437T130 447H21V502H135Q190 502 233 494T305 464T350 401T365 294V0H305ZM201 259Q201 242 188 231T158 219Q141 219 128 230T115 259Q115 276 128 287T158 299Q175 299 188 288T201 259Z"  />
<glyph unicode="&#xFB49;" horiz-adv-x="617" d="M275 165V502H335V165H275ZM541 178Q541 116 519 81T463 27T391 5T322 0H113L48 502H110L170 55H327Q358 55 386 61T435 81T468 118T481 175V502H541V178ZM453 231Q453 214 440 203T410 191Q393 191 380 202T367 231Q367 248 380 259T410 271Q427 271 440 260T453 231Z"  />
<glyph unicode="&#xFB4A;" horiz-adv-x="657" d="M521 0V314Q521 342 519 366T503 409T464 437T391 447H221V126Q221 117 220 94T207 47T170 5T96 -14Q74 -14 60 -7Q53 -3 48 1V52Q61 41 80 39T118 42T148 65T161 108V502H396Q464 502 501 487T556 444T577 379T581 299V0H521ZM420 241Q420 224 407 213T377 201Q360 201 347 212T334 241Q334 258 347 269T377 281Q394 281 407 270T420 241Z"  />
<glyph unicode="&#xFB4B;" horiz-adv-x="241" d="M119 0V404Q119 430 112 459T100 502H163Q167 490 170 480T175 458T178 434T179 402V0H119ZM158 590Q158 573 145 562T115 550Q98 550 85 561T72 590Q72 607 85 618T115 630Q132 630 145 619T158 590Z"  />
<glyph unicode="&#xFB4C;" horiz-adv-x="503" d="M36 0V55H167Q225 55 264 72T327 117T361 180T371 250Q371 289 361 324T329 387T276 430T200 447H36V502H201Q261 502 305 481T378 426T421 346T436 252Q436 198 418 162T377 104T337 70T318 54Q318 49 325 49T344 49T367 53T389 55H454V0H36ZM116 561V614H316V561H116Z"  />
<glyph unicode="&#xFB4D;" horiz-adv-x="471" d="M40 0V58H192Q246 58 282 87T337 159T355 252T337 346T282 418T190 447H40V502H190Q264 502 314 465T389 372T415 251T392 130T318 37T192 0H40ZM116 561V614H316V561H116Z"  />
<glyph unicode="&#xFB4E;" horiz-adv-x="565" d="M499 251Q499 189 482 142T434 64T362 16T271 0H115L108 55H267Q297 55 327 65T382 98T421 158T436 250Q436 290 426 328T396 396T346 444T275 462Q220 462 185 439T132 381T115 309T129 242H66Q56 262 53 289T55 348T76 409T118 463T184 502T276 517Q321 517 361 500T432 450T481 367T499 251ZM186 561V614H386V561H186Z"  />
<glyph unicode="&#xFB4F;" horiz-adv-x="495" d="M321 202L405 502H465L362 152L468 0H401L71 455Q64 468 58 476T48 491T41 505T38 526V623Q38 645 35 663T27 695Q22 710 16 722H79Q85 709 89 694Q93 681 96 663T99 624Q99 576 99 551T101 509T112 481T138 449L321 202Z"  />
<glyph unicode="&#xFFFC;" horiz-adv-x="1000" d="M1000 562H951L842 670V719H1000V562ZM719 670H562V719H719V670ZM1000 281H951V438H1000V281ZM870 298Q870 181 767 181Q725 181 700 203L735 241Q748 229 767 229Q813 229 813 296V532H870V298ZM438 670H281V719H438V670ZM1000 0H842V49L951 158H1000V0ZM695 289Q695 187 561 187H444V532H559Q680 532 680 441Q680 396 637 371Q695 349 695 289ZM158 670L49 562H0V719H158V670ZM719 0H562V49H719V0ZM417 359Q417 274 377 228T262 181Q187 181 148 227T109 359Q109 444 148 491T262 538Q337 538 377 491T417 359ZM49 281H0V438H49V281ZM438 0H281V49H438V0ZM158 0H0V158H49L158 49V0ZM624 436Q624 484 544 484H500V390H550Q624 390 624 436ZM638 289Q638 342 555 342H500V234H561Q638 234 638 289ZM360 359Q360 490 262 490Q166 490 166 359Q166 229 262 229Q360 229 360 359Z"  />

</font>
</defs>
</svg>
