<?xml  version="1.0" encoding="UTF-8"?>
<!DOCTYPE svg PUBLIC "-//W3C//DTD SVG 1.0//EN" "http://www.w3.org/TR/2001/REC-SVG-20010904/DTD/svg10.dtd" >
<svg xmlns="http://www.w3.org/2000/svg" >
<metadata>
<version>1.0</version>
<id><![CDATA[Oron W26 Black]]></id>
<vendor>Monotype Imaging Inc.</vendor>
<credits>
<name>Fonts.com WebFonts</name>
<URL>http://webfonts.fonts.com</URL>
<role>Home of the Web fonts</role>
</credits>
<license>
<URL>http://webfonts.fonts.com/Legal</URL>
</license>
<copyright><![CDATA[Masterfont Studio Rosenberg 2003 (C) version 1.0]]></copyright>
<trademark></trademark>
<licensee>
<name></name>
</licensee>
</metadata>
<defs >
<font horiz-adv-x="526" id="2d6ad37d-166b-4278-ad5a-52d6f50c29e8">
<font-face font-family="" panose-1="0 0 4 0 0 0 0 0 0 0" ascent="800" descent="-324" units-per-em="1000" alphabetic="0">
</font-face>
<missing-glyph horiz-adv-x="500" d="M63 0V800H438V0H63ZM125 63H375V738H125V63Z"  />

<glyph unicode="&#xA;" />
<glyph unicode="&#xD;" />
<glyph unicode=" " horiz-adv-x="239" />
<glyph unicode="!" horiz-adv-x="312" d="M228 641L201 178H51L24 641H228ZM222 0H31V140H222V0Z"  />
<glyph unicode="&quot;" horiz-adv-x="528" d="M489 502L393 260H265L307 502H489ZM270 502L174 260H47L89 502H270Z"  />
<glyph unicode="#" d="M483 388L472 326H391L367 188H448L437 126H356L334 0H272L294 126H186L164 0H102L124 126H43L54 188H135L159 326H78L89 388H170L191 503H253L232 388H340L361 503H423L402 388H483ZM329 326H221L197 188H305L329 326Z"  />
<glyph unicode="$" horiz-adv-x="625" d="M520 147Q520 87 472 42T355 -3V-75H201V-5Q155 -9 110 17Q37 59 37 163H216Q214 135 239 109Q251 96 280 96Q303 96 321 107T339 136Q339 176 262 198Q131 236 120 241Q43 278 43 355Q43 489 201 507V579H355V509Q396 509 441 480Q509 435 509 347H331Q331 371 325 381Q310 407 269 407Q223 407 223 357Q223 340 288 324Q406 295 419 291Q520 258 520 147Z"  />
<glyph unicode="%" horiz-adv-x="735" d="M716 123Q716 60 683 24Q648 -15 578 -15Q509 -15 474 24Q441 60 441 123Q441 186 475 223T578 261Q647 261 683 222Q716 186 716 123ZM557 502L307 0H197L447 502H557ZM313 379Q313 316 280 280Q245 241 175 241Q106 241 71 280Q38 316 38 379Q38 442 72 479T175 517Q244 517 280 478Q313 442 313 379ZM619 123Q619 194 578 194Q538 194 538 123Q538 52 578 52Q619 52 619 123ZM215 379Q215 450 175 450Q135 450 135 379Q135 308 175 308Q215 308 215 379Z"  />
<glyph unicode="&apos;" horiz-adv-x="308" d="M270 502L174 260H47L89 502H270Z"  />
<glyph unicode="(" horiz-adv-x="469" d="M334 -68H144Q99 17 82 86T65 252Q65 349 82 418T144 572H334Q296 484 282 416T267 252Q267 157 281 89T334 -68Z"  />
<glyph unicode=")" horiz-adv-x="469" d="M405 252Q405 157 388 88T326 -68H135Q173 20 187 88T202 252Q202 348 188 416T135 572H326Q371 487 388 418T405 252Z"  />
<glyph unicode="*" horiz-adv-x="379" d="M355 589L251 559Q240 573 230 595L307 672Q319 671 339 635T355 589ZM237 711L211 607Q199 605 190 605Q180 605 169 607L140 711Q148 721 190 721Q231 721 237 711ZM356 510Q360 498 340 462T308 426L230 501Q235 516 251 537L356 510ZM149 596Q142 576 128 559L23 586Q19 598 39 633T71 670Q93 650 149 596ZM239 385Q232 376 192 376Q149 376 143 385L169 489Q186 494 211 489L239 385ZM149 501L73 424Q60 426 40 461T25 507L128 537Q141 522 149 501Z"  />
<glyph unicode="+" horiz-adv-x="514" d="M458 191H316V50H196V191H54V311H196V452H316V311H458V191Z"  />
<glyph unicode="&#x2c;" horiz-adv-x="343" d="M291 143L195 -82H54L96 143H291Z"  />
<glyph unicode="-" horiz-adv-x="600" d="M471 190H100V314H471V190Z"  />
<glyph unicode="." horiz-adv-x="297" d="M226 0H46V150H226V0Z"  />
<glyph unicode="/" horiz-adv-x="340" d="M340 605L109 -102H0L231 605H340Z"  />
<glyph unicode="0" horiz-adv-x="567" d="M533 251Q533 -15 284 -15Q34 -15 34 251Q34 517 284 517Q533 517 533 251ZM364 251Q364 323 351 358Q333 407 284 407Q203 407 203 251Q203 96 284 96Q364 96 364 251Z"  />
<glyph unicode="1" horiz-adv-x="567" d="M426 0H233V330Q171 273 83 250V390Q182 418 255 502H426V0Z"  />
<glyph unicode="2" horiz-adv-x="567" d="M521 0H38Q35 112 38 120Q131 166 223 213Q356 285 356 351Q356 416 292 416Q215 416 215 340H44Q36 426 97 474T277 523Q520 523 520 340Q520 198 241 120Q381 120 521 120V0Z"  />
<glyph unicode="3" horiz-adv-x="567" d="M537 128Q537 56 460 18Q390 -17 278 -17Q171 -17 105 19Q18 67 18 169H187Q187 132 210 108T274 84Q308 84 335 98T363 139Q363 191 321 202Q309 205 227 205V299Q284 299 306 308Q340 320 340 359Q340 412 272 412Q243 412 224 397T204 370V341H34Q34 435 105 482Q168 523 275 523Q514 523 514 367Q514 276 399 254Q537 247 537 128Z"  />
<glyph unicode="4" horiz-adv-x="567" d="M553 113H457V0H272V113H16V214L220 502H457V226H553V113ZM274 226V400L151 226H274Z"  />
<glyph unicode="5" horiz-adv-x="567" d="M536 167Q536 -15 287 -15Q31 -15 31 130H220Q220 89 292 89Q361 89 361 166Q361 240 296 240Q227 240 227 201H41L59 502H501V382H227Q210 270 213 268Q230 293 243 301Q277 325 339 325Q536 325 536 167Z"  />
<glyph unicode="6" horiz-adv-x="567" d="M536 162Q536 69 462 23Q401 -15 300 -15Q40 -15 40 262Q40 392 115 457Q183 517 308 517Q439 517 494 449Q525 410 525 363H362Q362 410 307 410Q216 410 216 245Q237 285 248 293Q280 319 360 319Q435 319 482 283Q536 241 536 162ZM371 156Q371 188 353 210T300 232Q270 232 246 209T222 156Q222 123 243 100T300 77Q371 77 371 156Z"  />
<glyph unicode="7" horiz-adv-x="567" d="M510 381L343 0H147L325 382H57V502H510V381Z"  />
<glyph unicode="8" horiz-adv-x="567" d="M541 136Q541 61 455 20Q383 -15 280 -15Q179 -15 108 20Q26 61 26 136Q26 179 59 209Q82 229 121 243Q154 255 154 255Q154 255 127 268Q96 283 78 302Q51 330 51 365Q51 445 124 485Q184 517 280 517Q376 517 437 485Q511 445 511 365Q511 332 484 304Q465 285 433 269Q406 255 406 255Q406 256 441 244Q482 231 506 211Q541 181 541 136ZM352 364Q352 393 331 412T280 432Q251 432 230 413T208 364Q208 336 229 316T280 296Q310 296 331 316T352 364ZM382 147Q381 216 280 216Q179 216 178 147Q177 75 280 75Q383 75 382 147Z"  />
<glyph unicode="9" horiz-adv-x="567" d="M535 247Q535 107 465 43Q402 -15 273 -15Q146 -15 87 36Q41 76 41 139H209Q209 85 276 85Q321 85 342 126Q358 156 358 201Q358 236 352 239Q353 238 341 224Q327 207 305 196Q274 181 231 181Q134 181 88 222T41 355Q41 429 107 474Q169 517 262 517Q395 517 461 459Q535 393 535 247ZM347 342Q347 372 324 393T269 414Q238 414 215 393T192 342Q192 311 214 289T269 267Q301 267 324 289T347 342Z"  />
<glyph unicode=":" horiz-adv-x="321" d="M236 294H46V437H236V294ZM236 0H46V143H236V0Z"  />
<glyph unicode=";" horiz-adv-x="373" d="M277 283H72V437H277V283ZM287 155L184 -88H32L77 155H287Z"  />
<glyph unicode="&lt;" horiz-adv-x="660" d="M572 0L82 182V302L572 484V355L254 243L572 131V0Z"  />
<glyph unicode="=" horiz-adv-x="514" d="M461 289H56V409H461V289ZM461 93H56V213H461V93Z"  />
<glyph unicode="&gt;" horiz-adv-x="660" d="M578 182L88 0V131L405 243L88 355V484L578 302V182Z"  />
<glyph unicode="?" horiz-adv-x="566" d="M498 472Q498 406 453 367Q411 340 368 313Q323 283 323 238V194H169V250Q169 283 194 314Q194 314 232 352Q265 383 298 414Q325 442 325 473Q325 545 265 545Q231 545 212 526T193 475Q193 433 203 414H57Q27 444 27 487Q27 562 86 606Q150 653 270 653Q498 653 498 472ZM343 0H153V140H343V0Z"  />
<glyph unicode="@" horiz-adv-x="759" d="M699 350Q699 258 647 201Q591 140 495 140Q404 140 390 195Q332 146 282 146Q242 146 217 172Q187 202 187 262Q187 349 234 419Q287 496 366 496Q422 496 450 462L456 484H533L470 229Q468 221 468 216Q468 178 517 178Q567 178 608 216Q661 265 661 351Q661 449 587 517Q508 590 383 590Q254 590 168 512T81 315Q81 200 167 123T382 45Q486 45 568 99Q577 103 581 103Q598 103 598 87Q598 77 589 70Q511 10 382 10Q235 10 139 96T43 315Q43 452 138 538T383 625Q524 625 613 543Q699 464 699 350ZM440 426Q425 462 377 462Q334 462 299 391Q265 324 265 250Q265 184 303 184Q354 184 388 234L440 426Z"  />
<glyph unicode="A" horiz-adv-x="681" d="M669 0H358V24H462L399 198H198L136 24H256V0H18V24H108L334 654H352L578 24H669V0ZM390 222L298 475L207 222H390Z"  />
<glyph unicode="B" horiz-adv-x="616" d="M568 176Q568 94 507 47T338 0H25V24H114V621H25V645H330Q418 645 479 606Q545 563 545 493Q545 383 406 350Q470 336 514 295Q568 246 568 176ZM437 485V501Q437 621 330 621H223V360H330Q382 360 408 385Q437 415 437 485ZM457 164V187Q457 336 330 336H223V24H330Q399 24 429 60Q457 93 457 164Z"  />
<glyph unicode="C" horiz-adv-x="631" d="M598 4Q598 -7 587 -7Q581 -7 575 -1L523 51Q453 -18 351 -18Q231 -18 135 82Q35 185 35 323Q35 451 126 551Q221 656 356 656Q450 656 518 607L555 642Q565 651 572 651Q584 651 584 632V478Q584 462 575 462Q568 462 565 470L563 475Q537 546 486 586Q431 630 356 630Q171 630 171 374V268Q171 8 351 8Q490 8 574 188Q580 201 588 201Q598 201 598 187V4Z"  />
<glyph unicode="D" horiz-adv-x="682" d="M664 330Q664 180 575 90T337 0H28V24H119V621H28V645H337Q481 645 572 558T664 330ZM541 306V354Q541 496 479 563Q426 621 335 621H228V24H335Q541 24 541 306Z"  />
<glyph unicode="E" horiz-adv-x="591" d="M553 35Q553 0 519 0H31V24H118V621H29V645H494Q525 645 525 618V474Q525 457 513 457Q501 457 500 475Q497 528 472 569Q439 621 379 621H227V352H304Q342 352 358 377Q367 390 377 435Q381 452 389 452Q400 452 400 436V244Q400 227 389 227Q381 227 377 244Q373 267 357 306Q342 328 304 328H227V24H388Q452 24 484 67Q507 99 525 181Q530 204 541 204Q553 204 553 177V35Z"  />
<glyph unicode="F" horiz-adv-x="564" d="M529 474Q529 457 517 457Q505 457 504 475Q501 528 476 569Q443 621 383 621H231V352H308Q346 352 362 377Q371 390 381 435Q385 452 393 452Q404 452 404 436V244Q404 227 393 227Q385 227 381 244Q377 267 361 306Q346 328 308 328H231V24H320V0H36V24H122V621H34V645H499Q529 645 529 618V474Z"  />
<glyph unicode="G" horiz-adv-x="689" d="M686 217H597V189Q597 86 523 31Q458 -18 350 -18Q224 -18 129 82T33 319Q33 456 127 556T353 656Q451 656 517 604L558 642Q568 651 576 651Q589 651 589 636V457Q589 444 578 444Q568 444 564 456Q504 630 353 630Q268 630 220 571Q168 507 168 379V263Q168 138 216 73T352 8Q482 8 482 132V217H371V241H686V217Z"  />
<glyph unicode="H" horiz-adv-x="706" d="M688 0H402V24H491V330H227V24H316V0H29V24H118V621H29V645H316V621H227V355H491V621H402V645H688V621H600V24H688V0Z"  />
<glyph unicode="I" horiz-adv-x="366" d="M326 0H40V24H128V621H40V645H326V621H237V24H326V0Z"  />
<glyph unicode="J" horiz-adv-x="381" d="M371 621H294V56Q294 -97 126 -97Q74 -97 39 -66Q8 -39 8 -8Q8 46 59 46Q81 46 94 32T107 -1Q107 -47 64 -53Q85 -71 119 -71Q156 -71 170 -51T185 20V621H90V645H371V621Z"  />
<glyph unicode="K" horiz-adv-x="692" d="M685 0H385V24H470L219 353L510 621H428V645H640V621H550L313 403L601 24H685V0ZM304 0H31V24H113V621H31V645H304V621H222V24H304V0Z"  />
<glyph unicode="L" horiz-adv-x="617" d="M596 35Q596 0 561 0H26V24H115V621H26V645H322V621H224V24H431Q495 24 526 67Q549 98 567 181Q572 204 583 204Q596 204 596 177V35Z"  />
<glyph unicode="M" horiz-adv-x="821" d="M793 0H520V24H602V589L380 0H360L138 585V24H221V0H31V24H113V621H31V645H229L415 167L595 645H793V621H711V24H793V0Z"  />
<glyph unicode="N" horiz-adv-x="677" d="M660 621H571V-8H529L137 583V24H226V0H23V24H112V621H23V645H233L546 175V621H457V645H660V621Z"  />
<glyph unicode="O" horiz-adv-x="712" d="M684 320Q684 187 589 86Q492 -18 360 -18Q228 -18 132 86Q37 187 37 320Q37 453 132 554T360 656Q492 656 588 555T684 320ZM549 272V367Q549 512 500 574Q455 630 360 630Q266 630 221 572Q172 508 172 367V272Q172 8 360 8Q549 8 549 272Z"  />
<glyph unicode="P" horiz-adv-x="558" d="M534 469Q534 390 476 342T325 293H223V24H311V0H25V24H114V621H25V645H315Q415 645 474 597T534 469ZM433 452V486Q433 621 315 621H223V317H325Q433 317 433 452Z"  />
<glyph unicode="Q" horiz-adv-x="701" d="M684 319Q684 205 611 110T429 -12V-29Q429 -197 589 -197Q603 -197 603 -208Q603 -218 589 -218Q446 -218 385 -188Q304 -148 294 -33L292 -12Q183 14 110 109T37 319Q37 452 132 554T360 656Q492 656 588 554T684 319ZM549 271V366Q549 511 500 574Q455 630 360 630Q266 630 221 571Q172 508 172 366V271Q172 6 360 6Q549 6 549 271Z"  />
<glyph unicode="R" horiz-adv-x="647" d="M645 34Q645 29 641 25Q630 14 597 3Q561 -8 528 -8Q476 -8 452 20Q430 44 424 97Q422 130 417 196Q402 325 307 325H226V24H315V0H28V24H117V621H28V645H323Q417 645 478 603Q543 559 543 484Q543 365 393 332Q489 307 519 251Q539 213 542 109Q543 60 548 47Q556 26 585 26Q609 26 629 39Q633 41 638 41Q645 41 645 34ZM436 467V501Q436 621 323 621H226V349H323Q436 349 436 467Z"  />
<glyph unicode="S" horiz-adv-x="558" d="M524 205Q524 110 456 46T287 -18Q194 -18 118 44L84 -1Q75 -13 67 -13Q53 -13 53 4V174Q53 191 65 191Q77 191 81 176Q102 98 162 53Q219 8 293 8Q360 8 407 47Q458 88 458 152Q458 220 401 245Q357 264 311 277Q214 305 209 307Q68 351 68 467Q68 546 126 599Q187 656 286 656Q362 656 434 618L461 650Q470 660 476 660Q487 660 487 646V477Q487 463 475 463Q463 463 461 476Q452 542 411 583Q364 630 286 630Q226 630 185 602Q139 571 139 518Q139 454 201 432Q228 422 385 380Q524 342 524 205Z"  />
<glyph unicode="T" horiz-adv-x="638" d="M617 455H586Q574 533 540 577T460 621H376V24H465V0H179V24H267V621H183Q138 621 104 577T57 455H27L43 625Q45 645 68 645H576Q599 645 601 625L617 455Z"  />
<glyph unicode="U" horiz-adv-x="657" d="M643 621H555V162Q555 74 499 28T343 -18Q248 -18 185 20Q107 68 107 162V621H18V645H304V621H216V162Q216 88 256 48T367 8Q437 8 483 49T529 162V621H440V645H643V621Z"  />
<glyph unicode="V" horiz-adv-x="651" d="M649 621H574L353 -10H329L97 621H7V645H294V621H203L378 149L543 621H456V645H649V621Z"  />
<glyph unicode="W" horiz-adv-x="926" d="M915 621H843L602 -10H582L470 277L361 -10H341L101 621H23V645H680V621H616L532 402L630 141L814 621H728V645H915V621ZM588 621H448L518 439L588 621ZM456 315L341 621H208L390 143L456 315Z"  />
<glyph unicode="X" horiz-adv-x="706" d="M689 0H404V24H484L324 283L148 24H247V0H22V24H114L308 309L115 621H24V645H329V621H239L375 401L523 621H427V645H652V621H558L392 375L608 24H689V0Z"  />
<glyph unicode="Y" horiz-adv-x="682" d="M673 621H588L420 340V24H518V0H212V24H311V316L113 621H28V645H325V621H234L398 367L550 621H454V645H673V621Z"  />
<glyph unicode="Z" horiz-adv-x="524" d="M502 0H31V30L383 621H192Q64 621 59 472H36V645H495V617L139 24H328Q398 24 434 62Q472 104 477 199H502V0Z"  />
<glyph unicode="[" horiz-adv-x="410" d="M331 -103H74V605H331V502H218V0H331V-103Z"  />
<glyph unicode="\" horiz-adv-x="255" d="M208 -10H153L67 519H123L208 -10Z"  />
<glyph unicode="]" horiz-adv-x="410" d="M336 -103H78V0H192V502H78V605H336V-103Z"  />
<glyph unicode="^" horiz-adv-x="381" d="M325 325L303 314L195 521L87 314L64 325L178 606H211L325 325Z"  />
<glyph unicode="_" horiz-adv-x="300" d="M311 -31H-4V-11H311V-31Z"  />
<glyph unicode="`" horiz-adv-x="266" d="M233 457L219 450L44 604H147L233 457Z"  />
<glyph unicode="a" horiz-adv-x="456" d="M453 54Q453 34 430 14Q401 -13 353 -13Q288 -13 274 34Q231 -13 158 -13Q42 -13 42 75Q42 138 108 176Q171 211 268 212V319Q268 369 204 369Q182 369 163 364T143 352Q145 350 152 344Q166 331 166 314Q166 277 123 277Q104 277 93 288T81 316Q81 347 116 367Q156 390 228 390Q366 390 366 301V74Q366 43 370 33Q375 20 390 20Q417 20 434 53Q439 63 445 63Q453 63 453 54ZM268 68V194Q203 190 172 173Q132 151 132 99Q132 20 193 20Q213 20 240 37T268 68Z"  />
<glyph unicode="b" horiz-adv-x="534" d="M510 192Q510 116 451 52T315 -12Q250 -12 204 40V0H28V24H107V621H28V645H204V346Q246 393 312 393Q383 393 444 336Q510 275 510 192ZM394 171V214Q394 309 369 343Q351 369 308 369Q246 369 204 303V83Q246 12 312 12Q394 12 394 171Z"  />
<glyph unicode="c" horiz-adv-x="422" d="M411 105Q411 103 410 100L409 96Q396 56 360 26Q312 -13 242 -13Q159 -13 97 41Q29 99 29 187Q29 274 97 334Q162 390 247 390Q296 390 339 369Q388 344 388 308Q388 264 338 264Q289 264 289 306Q289 324 298 336T307 349Q307 354 293 359Q275 366 245 366Q193 366 170 333Q146 297 146 208V167Q146 77 165 45Q186 10 245 10Q298 10 338 40Q372 66 385 105Q389 117 399 117Q411 117 411 105Z"  />
<glyph unicode="d" horiz-adv-x="534" d="M513 0H337V41Q291 -13 227 -13Q159 -13 97 48Q32 112 32 191Q32 266 93 329T230 393Q298 393 337 350V621H259V645H435V24H513V0ZM337 82V301Q295 369 234 369Q187 369 168 336T148 215V168Q148 79 169 43Q188 11 231 11Q291 11 337 82Z"  />
<glyph unicode="e" horiz-adv-x="447" d="M414 117Q414 110 411 102Q391 52 348 21Q298 -13 230 -13Q144 -13 84 49Q28 108 28 185Q28 262 85 324Q144 390 226 390Q315 390 367 327Q406 281 409 233Q410 216 388 216H145V124Q145 10 232 10Q341 10 390 116Q396 128 404 128Q414 128 414 117ZM303 279Q303 366 227 366Q145 366 145 273V240H293Q303 240 303 279Z"  />
<glyph unicode="f" horiz-adv-x="352" d="M340 585Q340 547 303 547Q263 547 263 583Q263 607 286 617Q286 628 244 628Q195 628 195 561V380H278V356H195V24H272V0H20V24H97V356H21V380H97V416Q97 524 118 569Q157 652 242 652Q284 652 312 632T340 585Z"  />
<glyph unicode="g" horiz-adv-x="439" d="M433 371Q433 339 398 339Q360 339 360 370Q360 372 361 377Q347 369 331 352Q377 312 377 255Q377 208 340 169Q292 119 207 119Q172 119 148 126Q68 106 68 66Q68 30 129 30H295Q354 30 388 1Q424 -31 424 -90Q424 -166 366 -209T220 -253Q31 -253 31 -144Q31 -75 109 -43Q33 -24 33 49Q33 114 114 139Q37 180 37 255Q37 310 81 348Q128 390 207 390Q277 390 312 366Q351 405 390 405Q433 405 433 371ZM275 238V270Q275 325 258 347Q243 366 207 366Q171 366 156 347Q139 325 139 270V238Q139 188 153 167Q168 143 207 143Q246 143 261 167Q275 188 275 238ZM377 -129Q377 -96 351 -72T278 -47H147Q130 -47 111 -69Q89 -94 89 -126Q89 -229 224 -229Q284 -229 327 -205Q377 -178 377 -129Z"  />
<glyph unicode="h" horiz-adv-x="555" d="M539 0H298V24H369V291Q369 360 312 360Q265 360 229 322Q196 288 196 256V24H268V0H26V24H99V621H26V645H196V325Q244 393 344 393Q467 393 467 302V24H539V0Z"  />
<glyph unicode="i" horiz-adv-x="303" d="M216 550Q216 528 199 513T158 497Q134 497 117 512T100 550Q100 573 117 588T158 604Q182 604 199 589T216 550ZM285 0H33V24H110V356H33V380H207V24H285V0Z"  />
<glyph unicode="j" horiz-adv-x="282" d="M228 550Q228 527 211 512T170 496Q146 496 129 511T112 550Q112 573 129 588T170 604Q194 604 211 589T228 550ZM225 -28Q225 -133 184 -192T70 -252Q33 -252 6 -234T-21 -187Q-21 -167 -8 -153T28 -138Q50 -138 62 -152T75 -184Q75 -212 53 -226Q57 -228 69 -228Q92 -228 109 -212T127 -164V355H44V379H225V-28Z"  />
<glyph unicode="k" horiz-adv-x="556" d="M549 0H291V24H359L223 202H207V24H280V0H27V24H110V621H27V645H207V226H230L373 356H292V380H494V356H410L294 249L475 24H549V0Z"  />
<glyph unicode="l" horiz-adv-x="294" d="M273 0H32V24H104V621H32V645H201V24H273V0Z"  />
<glyph unicode="m" horiz-adv-x="785" d="M766 0H536V24H601V287Q601 353 553 353Q510 353 476 314Q446 280 446 248V24H513V0H282V24H349V287Q349 316 344 328Q334 353 300 353Q262 353 226 315Q194 281 194 256V24H260V0H29V24H96V353H29V377H194V316Q244 385 344 385Q432 385 445 314Q493 385 596 385Q699 385 699 297V24H766V0Z"  />
<glyph unicode="n" horiz-adv-x="547" d="M528 0H286V24H358V287Q358 353 305 353Q268 353 235 319T202 252V24H274V0H33V24H105V353H33V376H202V316Q250 384 343 384Q456 384 456 293V24H528V0Z"  />
<glyph unicode="o" horiz-adv-x="460" d="M441 188Q441 117 385 55Q323 -13 234 -13Q145 -13 82 55Q25 117 25 188Q25 259 82 321Q145 390 234 390Q323 390 385 321Q441 259 441 188ZM325 168V209Q325 295 309 327Q289 366 234 366Q179 366 158 327Q141 294 141 209V168Q141 80 158 47Q178 10 234 10Q290 10 309 47Q325 79 325 168Z"  />
<glyph unicode="p" horiz-adv-x="515" d="M494 187Q494 105 433 44T295 -17Q228 -17 187 29V-233H254V-257H22V-233H89V352H22V377H187V336Q233 390 297 390Q370 390 432 329T494 187ZM378 167V210Q378 304 352 341Q333 366 296 366Q258 366 223 337T187 275V91Q187 64 220 37T293 9Q337 9 355 36Q378 70 378 167Z"  />
<glyph unicode="q" horiz-adv-x="524" d="M507 -257H276V-233H343V30Q300 -17 233 -17Q158 -17 96 45T34 187Q34 265 95 326T231 387Q299 387 343 335V376H507V352H440V-233H507V-257ZM343 106V266Q343 303 307 334T232 366Q150 366 150 245V141Q150 61 173 32Q192 8 235 8Q283 8 313 37T343 106Z"  />
<glyph unicode="r" horiz-adv-x="412" d="M402 313Q402 289 386 275T346 261Q321 261 305 274T289 310Q289 340 314 354Q317 355 317 357Q317 361 293 361Q257 361 223 333T188 276V24H260V0H18V24H90V353H18V377H188V332Q231 385 304 385Q344 385 370 369Q402 350 402 313Z"  />
<glyph unicode="s" horiz-adv-x="367" d="M343 119Q343 62 306 25Q266 -13 199 -13Q125 -13 83 24L64 -1Q59 -8 54 -8Q43 -8 43 4V105Q43 117 54 117Q63 117 66 105Q93 10 196 10Q234 10 264 27Q299 47 299 81Q299 122 238 144Q227 147 142 165Q50 184 50 266Q50 317 86 352Q126 390 191 390Q237 390 269 365L289 384L292 386Q296 390 300 390Q307 390 307 379V278Q307 268 299 268Q290 268 288 277Q282 312 258 337Q229 366 185 366Q148 366 124 348T99 306Q99 277 134 267Q178 257 246 239Q343 210 343 119Z"  />
<glyph unicode="t" horiz-adv-x="348" d="M338 83Q338 79 337 73Q321 -13 214 -13Q154 -13 122 18T89 104V355H19V379H89V485L187 530V379H287V355H187V102Q187 16 249 16Q303 16 314 81Q316 95 328 95Q338 95 338 83Z"  />
<glyph unicode="u" horiz-adv-x="556" d="M529 0H359V60Q306 -11 204 -11Q95 -11 95 95V353H23V376H193V89Q193 55 201 42Q212 25 245 25Q287 25 323 59T359 123V353H287V376H457V24H529V0Z"  />
<glyph unicode="v" horiz-adv-x="505" d="M488 353H425L269 -4H255L90 353H21V376H264V353H194L297 123L397 353H326V376H488V353Z"  />
<glyph unicode="w" horiz-adv-x="668" d="M654 353H582L457 -11H443L338 230L251 -11H236L92 353H23V376H257V353H191L278 135L363 376H377L482 134L556 353H472V376H654V353Z"  />
<glyph unicode="x" horiz-adv-x="518" d="M505 0H263V24H336L239 152L134 24H205V0H31V24H102L223 173L86 353H26V376H253V353H190L279 236L374 353H313V376H476V353H408L295 215L441 24H505V0Z"  />
<glyph unicode="y" horiz-adv-x="521" d="M511 352H442L231 -154Q191 -251 111 -251Q54 -251 54 -206Q54 -167 95 -167Q125 -167 139 -194Q145 -205 151 -205Q183 -205 207 -146L266 -3L96 352H26V376H277V352H201L313 110L414 352H340V376H511V352Z"  />
<glyph unicode="z" horiz-adv-x="414" d="M388 0H49V26L275 353H179Q100 353 89 255H68V376H377V348L155 24H267Q359 24 367 132H388V0Z"  />
<glyph unicode="{" horiz-adv-x="292" d="M260 -153Q242 -156 227 -156Q159 -156 131 -111Q108 -75 108 -3Q108 17 109 56T111 114Q111 174 99 207Q81 256 31 264Q81 272 99 321Q111 354 111 414Q111 433 110 472T108 531Q108 604 130 639Q158 684 227 684Q242 684 260 681Q177 659 176 533Q176 510 178 466T180 399Q180 342 168 314Q150 271 103 264Q151 257 169 215Q180 189 180 129Q180 107 178 63T176 -5Q177 -131 260 -153Z"  />
<glyph unicode="|" horiz-adv-x="222" d="M140 -114H82V616H140V-114Z"  />
<glyph unicode="}" horiz-adv-x="292" d="M260 263Q211 255 193 206Q181 173 181 113Q181 94 182 55T184 -4Q184 -76 161 -112Q133 -157 65 -157Q50 -157 31 -154Q115 -132 116 -6Q116 17 114 61T112 128Q112 188 123 214Q141 256 189 263Q142 270 124 313Q112 341 112 398Q112 420 114 464T116 532Q115 658 31 680Q50 683 65 683Q134 683 162 638Q184 603 184 530Q184 510 183 471T181 413Q181 353 193 320Q211 271 260 263Z"  />
<glyph unicode="&#xA0;" horiz-adv-x="250" />
<glyph unicode="&#xA1;" horiz-adv-x="277" d="M206 453Q206 430 189 414T146 398Q121 398 104 414T86 453Q86 476 103 492T146 509Q171 509 188 493T206 453ZM208 -48Q208 -138 145 -138Q80 -138 80 -48Q80 -11 91 41Q101 84 111 128Q122 185 134 347H155Q159 296 162 244Q168 176 177 128Q183 105 195 50T208 -48Z"  />
<glyph unicode="&#xA2;" horiz-adv-x="354" d="M331 213Q331 210 330 206Q307 125 211 118L210 70H185V119Q123 124 79 167T35 271Q35 333 75 373T185 424V461H210L211 424Q250 423 281 405T312 361Q312 324 274 324Q258 324 248 334T237 359Q237 373 242 379T248 389Q248 403 211 405V140Q248 142 275 163T309 215Q311 224 320 224Q331 224 331 213ZM185 140V404Q150 397 138 374T125 291V250Q125 200 132 180Q145 145 185 140Z"  />
<glyph unicode="&#xA3;" horiz-adv-x="559" d="M535 187Q535 126 484 60Q429 -11 363 -11Q273 -11 217 48Q184 -5 107 -5Q63 -5 39 20T14 80Q14 129 59 160Q98 186 144 186Q162 186 182 182L131 324H35V350H120Q86 448 86 491Q86 581 169 624Q235 658 340 658Q402 658 448 628Q498 595 498 546Q498 465 426 465Q399 465 381 479T362 517Q362 573 430 573Q445 573 445 580Q445 598 412 616T340 634Q285 634 259 608Q228 578 228 506V350H309V324H228V170Q344 103 405 103Q443 103 468 127Q489 147 511 193Q515 201 523 201Q535 201 535 187ZM194 68Q138 132 89 132Q73 132 59 120Q42 105 42 80Q42 57 59 39T107 21Q171 21 194 68Z"  />
<glyph unicode="&#xA5;" horiz-adv-x="674" d="M665 621H579L411 340V324H511V300H411V261H511V237H411V24H510V0H204V24H302V237H201V261H302V300H201V324H297L105 621H20V645H317V621H226L390 367L542 621H446V645H665V621Z"  />
<glyph unicode="&#xA6;" horiz-adv-x="118" d="M80 357H43V647H80V357ZM80 0H43V265H80V0Z"  />
<glyph unicode="&#xA7;" horiz-adv-x="387" d="M367 335Q367 246 292 214Q364 181 364 93Q364 20 317 -24T190 -69Q130 -69 89 -37T48 37Q48 85 91 85Q130 85 130 46Q130 9 88 9Q83 9 83 8Q83 -3 112 -22Q148 -45 190 -45Q245 -45 277 -20T309 43Q309 95 238 119Q173 140 108 161Q37 197 37 279Q37 372 119 401Q36 429 36 518Q36 579 79 621Q124 667 195 667Q271 667 312 637Q345 614 345 581Q345 542 307 542Q264 542 264 577Q264 610 297 616Q260 643 195 643Q153 643 121 622T89 569Q89 513 190 499Q367 474 367 335ZM329 300Q329 332 268 359Q220 381 163 390Q90 375 90 323Q90 289 124 268Q163 243 259 225Q329 250 329 300Z"  />
<glyph unicode="&#xA8;" horiz-adv-x="432" d="M353 554Q353 535 338 522T300 509Q278 509 263 522T247 554Q247 573 262 586T300 599Q322 599 337 586T353 554ZM196 554Q196 535 181 522T143 509Q121 509 106 522T90 554Q90 573 105 586T143 599Q165 599 180 586T196 554Z"  />
<glyph unicode="&#xA9;" horiz-adv-x="637" d="M616 357Q616 247 532 169T327 91Q207 91 122 169T37 357Q37 467 122 545T327 623Q447 623 531 545T616 357ZM586 358Q586 456 511 525T328 594Q221 594 145 525T69 358Q69 260 145 191T328 122Q435 122 510 191T586 358ZM428 241Q428 234 420 234Q417 234 414 237L393 257Q363 230 324 230Q274 230 233 272T192 370Q192 423 231 466T327 510Q362 510 392 489L405 503Q408 507 415 507H417Q423 506 423 498V434Q423 424 415 424Q411 424 407 431Q386 491 327 491Q254 491 254 391V349Q254 248 324 248Q377 248 411 317Q413 325 421 325Q428 325 428 317V241Z"  />
<glyph unicode="&#xAA;" horiz-adv-x="354" d="M323 398Q323 385 309 373Q291 356 262 356Q223 356 213 383Q186 356 144 356Q73 356 73 411Q73 449 112 471T209 494V555Q209 582 172 582Q141 582 137 577L139 575Q140 575 142 573Q151 563 151 553Q151 529 123 529Q96 529 96 555Q96 573 119 586T186 600Q271 600 271 545V410Q271 380 283 380Q295 380 304 392T316 405Q323 405 323 398ZM323 284H44V322H323V284ZM209 408V480Q130 474 130 425Q130 380 165 380Q177 380 193 390T209 408Z"  />
<glyph unicode="&#xAB;" horiz-adv-x="438" d="M382 108H354L174 258L354 408H382L254 258L382 108ZM232 108H203L24 258L203 408H232L104 258L232 108Z"  />
<glyph unicode="&#xAC;" horiz-adv-x="564" d="M545 230H506V389H18V429H545V230Z"  />
<glyph unicode="&#xAE;" horiz-adv-x="448" d="M413 475Q413 402 357 351T219 299Q138 299 82 350T25 475Q25 549 82 600T219 652Q299 652 356 601T413 475ZM383 475Q383 536 335 579T220 622Q152 622 105 579T57 475Q57 414 104 371T220 328Q287 328 335 371T383 475ZM331 388Q331 380 329 378Q318 368 290 368Q271 368 265 376Q256 385 254 404Q253 419 252 434Q248 473 218 473H197V388H225V370H127V388H156V562H127V580H225Q257 580 277 566T298 526Q298 491 258 478Q283 470 291 450Q297 437 298 407Q299 384 309 384Q316 384 322 388H331ZM258 520V531Q258 562 225 562H197V491H225Q258 491 258 520Z"  />
<glyph unicode="&#xAF;" horiz-adv-x="454" d="M360 516H107V543H360V516Z"  />
<glyph unicode="&#xB0;" horiz-adv-x="231" d="M202 582Q202 552 178 531T121 510Q88 510 64 531T39 582Q39 612 63 633T121 654Q154 654 178 633T202 582ZM177 582Q177 603 161 617T121 631Q97 631 81 617T64 582Q64 562 80 548T121 533Q145 533 161 547T177 582Z"  />
<glyph unicode="&#xB1;" horiz-adv-x="410" d="M374 344H235V217H171V344H32V403H171V530H235V403H374V344ZM358 126H48V185H358V126Z"  />
<glyph unicode="&#xB2;" horiz-adv-x="306" d="M294 205H4Q3 272 4 277Q60 305 116 333Q195 376 195 416Q195 455 157 455Q111 455 111 409H8Q3 461 40 490T148 519Q294 519 294 409Q294 324 126 277Q210 277 294 277V205Z"  />
<glyph unicode="&#xB3;" horiz-adv-x="306" d="M306 284Q306 241 259 218Q218 197 150 197Q-6 197 -6 309H96Q96 287 110 273T148 258Q168 258 184 267T201 291Q201 322 176 329Q169 331 120 331V387Q154 387 167 392Q187 400 187 423Q187 455 147 455Q129 455 118 446T106 430V412H4Q4 521 148 521Q292 521 292 428Q292 373 223 360Q306 356 306 284Z"  />
<glyph unicode="&#xB4;" horiz-adv-x="404" d="M371 622L196 468L183 477L268 622H371Z"  />
<glyph unicode="&#xB6;" horiz-adv-x="664" d="M625 621H536V-104H471V621H392V-104H328V291H263Q163 291 101 334Q34 381 34 468Q34 555 101 602Q163 645 263 645H625V621Z"  />
<glyph unicode="&#xB8;" horiz-adv-x="359" d="M266 -101Q266 -125 246 -140T194 -156Q151 -156 123 -117Q118 -110 118 -104Q118 -96 126 -96Q131 -96 146 -108T179 -121Q215 -121 215 -93Q215 -69 180 -56L194 0H228L217 -45Q266 -61 266 -101Z"  />
<glyph unicode="&#xB9;" horiz-adv-x="306" d="M251 206H135V405Q98 370 45 357V441Q105 457 149 508H251V206Z"  />
<glyph unicode="&#xBA;" horiz-adv-x="327" d="M293 477Q293 434 259 396Q221 354 167 354Q113 354 75 396Q40 434 40 477Q40 520 75 557Q113 598 167 598Q221 598 259 557Q293 520 293 477ZM304 284H26V322H304V284ZM219 464V488Q219 533 214 549Q203 580 167 580Q131 580 120 549Q113 532 113 488V464Q113 419 119 402Q130 372 167 372Q203 372 214 403Q219 419 219 464Z"  />
<glyph unicode="&#xBB;" horiz-adv-x="426" d="M422 258L243 108H214L343 258L214 408H243L422 258ZM266 258L87 108H58L187 258L58 408H87L266 258Z"  />
<glyph unicode="&#xBC;" horiz-adv-x="780" d="M725 68H668V0H557V68H403V128L526 301H668V136H725V68ZM558 136V240L484 136H558ZM260 206H145V405Q107 370 55 357V441Q114 457 158 508H260V206ZM528 605L297 -102H188L419 605H528Z"  />
<glyph unicode="&#xBD;" horiz-adv-x="780" d="M257 206H141V405Q104 370 51 357V441Q111 457 155 508H257V206ZM729 0H439Q437 67 439 72Q494 100 550 128Q630 171 630 211Q630 250 591 250Q545 250 545 204H442Q437 255 474 284T582 314Q728 314 728 204Q728 119 561 72Q645 72 729 72V0ZM524 605L293 -102H184L415 605H524Z"  />
<glyph unicode="&#xBE;" horiz-adv-x="780" d="M330 284Q330 241 283 218Q242 197 174 197Q18 197 18 309H120Q120 287 134 273T172 258Q192 258 208 267T225 291Q225 322 200 329Q193 331 144 331V387Q178 387 191 392Q212 400 212 423Q212 455 171 455Q153 455 142 446T130 430V412H28Q28 521 173 521Q316 521 316 428Q316 373 247 360Q330 356 330 284ZM762 68H704V0H593V68H439V128L562 301H704V136H762V68ZM594 136V240L520 136H594ZM581 605L350 -102H241L472 605H581Z"  />
<glyph unicode="&#xBF;" horiz-adv-x="415" d="M292 448Q292 425 275 409T232 393Q207 393 190 409T172 448Q172 471 189 487T232 504Q257 504 274 488T292 448ZM369 -38Q369 -77 325 -105Q277 -134 202 -134Q125 -134 82 -99T38 2Q38 47 64 85Q81 110 124 148L170 189Q221 235 221 256Q221 282 220 290Q218 306 218 310Q218 321 231 321Q241 321 243 311Q256 249 256 212Q256 174 246 152Q230 117 196 85Q143 34 138 28Q101 -15 101 -46Q101 -72 124 -90Q151 -110 200 -110Q247 -110 275 -98Q295 -90 295 -85Q295 -85 294 -87Q247 -78 247 -37Q247 -14 264 1T309 16Q335 16 352 1T369 -38Z"  />
<glyph unicode="&#xD7;" horiz-adv-x="581" d="M549 57L493 6L290 192L89 6L33 57L234 243L33 427L89 479L290 293L493 479L549 427L347 243L549 57Z"  />
<glyph unicode="&#xF7;" horiz-adv-x="382" d="M255 385Q255 362 238 346T195 330Q170 330 153 346T135 385Q135 408 152 424T195 440Q220 440 237 424T255 385ZM336 225H53V283H336V225ZM255 116Q255 93 238 77T195 61Q170 61 153 77T135 116Q135 139 152 155T195 171Q220 171 237 155T255 116Z"  />
<glyph unicode="&#x192;" horiz-adv-x="500" d="M488 623Q488 585 455 585Q424 585 424 612Q424 619 429 629T435 642Q435 655 417 655Q379 655 367 602Q351 530 335 427H422L414 395H329Q303 260 245 49Q200 -116 145 -170Q104 -210 61 -210Q36 -210 19 -197T1 -159Q1 -116 39 -116Q50 -116 60 -124T70 -143Q70 -148 61 -164Q59 -168 59 -171Q59 -181 71 -181Q96 -181 118 -145Q131 -124 147 -59Q151 -43 189 144Q192 161 249 395H163L170 427Q206 430 214 431Q240 436 251 450Q264 468 281 516Q306 590 327 621Q365 677 421 677Q448 677 468 663T488 623Z"  />
<glyph unicode="&#x3BC;" horiz-adv-x="576" d="M534 100Q526 -14 438 -14Q368 -14 360 79Q281 -14 207 -14Q182 -14 162 -3Q148 5 131 28Q131 28 131 5Q131 -36 147 -111Q154 -144 154 -162Q154 -184 142 -200T108 -216Q65 -216 65 -163Q65 -144 82 -74Q88 -47 90 -31Q96 23 96 56V447H176V187Q176 117 185 90Q200 46 245 46Q302 46 360 112V447H441V128Q441 79 445 64Q452 39 474 39Q505 39 514 100H534Z"  />
<glyph unicode="&#x5B0;" horiz-adv-x="0" d="M364 -117Q364 -155 324 -155Q283 -155 283 -117Q283 -80 324 -80Q364 -80 364 -117ZM364 -242Q364 -280 324 -280Q283 -280 283 -242Q283 -205 324 -205Q364 -205 364 -242Z"  />
<glyph unicode="&#x5B1;" horiz-adv-x="0" d="M442 -111Q442 -142 408 -142Q374 -142 374 -111Q374 -80 408 -80Q442 -80 442 -111ZM352 -111Q352 -142 319 -142Q284 -142 284 -111Q284 -80 319 -80Q352 -80 352 -111ZM442 -208Q442 -239 408 -239Q374 -239 374 -208Q374 -177 408 -177Q442 -177 442 -208ZM262 -111Q262 -142 228 -142Q194 -142 194 -111Q194 -80 228 -80Q262 -80 262 -111ZM307 -208Q307 -240 273 -240Q239 -240 239 -208Q239 -177 273 -177Q307 -177 307 -208Z"  />
<glyph unicode="&#x5B2;" horiz-adv-x="0" d="M448 -111Q448 -142 414 -142Q380 -142 380 -111Q380 -80 414 -80Q448 -80 448 -111ZM448 -208Q448 -239 414 -239Q380 -239 380 -208Q380 -177 414 -177Q448 -177 448 -208ZM352 -124H204V-85H352V-124Z"  />
<glyph unicode="&#x5B3;" horiz-adv-x="0" d="M448 -111Q448 -142 414 -142Q380 -142 380 -111Q380 -80 414 -80Q448 -80 448 -111ZM448 -208Q448 -239 414 -239Q380 -239 380 -208Q380 -177 414 -177Q448 -177 448 -208ZM352 -124H296Q303 -191 301 -231H255Q253 -191 261 -124H204V-85H352V-124Z"  />
<glyph unicode="&#x5B4;" horiz-adv-x="0" d="M364 -117Q364 -155 324 -155Q283 -155 283 -117Q283 -80 324 -80Q364 -80 364 -117Z"  />
<glyph unicode="&#x5B5;" horiz-adv-x="0" d="M447 -117Q447 -155 407 -155Q366 -155 366 -117Q366 -80 407 -80Q447 -80 447 -117ZM282 -117Q282 -155 242 -155Q201 -155 201 -117Q201 -80 242 -80Q282 -80 282 -117Z"  />
<glyph unicode="&#x5B6;" horiz-adv-x="0" d="M447 -117Q447 -155 407 -155Q366 -155 366 -117Q366 -80 407 -80Q447 -80 447 -117ZM282 -117Q282 -155 242 -155Q201 -155 201 -117Q201 -80 242 -80Q282 -80 282 -117ZM364 -217Q364 -255 324 -255Q283 -255 283 -217Q283 -180 324 -180Q364 -180 364 -217Z"  />
<glyph unicode="&#x5B7;" horiz-adv-x="0" d="M424 -139H224V-86H424V-139Z"  />
<glyph unicode="&#x5B8;" horiz-adv-x="0" d="M424 -139H348Q358 -204 355 -258H293Q290 -204 300 -139H224V-86H424V-139Z"  />
<glyph unicode="&#x5B9;" horiz-adv-x="0" d="M86 603Q86 586 74 575T43 563Q25 563 13 574T0 603Q0 620 12 631T43 643Q61 643 73 632T86 603Z"  />
<glyph unicode="&#x5BB;" horiz-adv-x="0" d="M262 -117Q262 -155 222 -155Q181 -155 181 -117Q181 -80 222 -80Q262 -80 262 -117ZM309 -200Q309 -238 269 -238Q228 -238 228 -200Q228 -163 269 -163Q309 -163 309 -200ZM357 -285Q357 -302 346 -313T317 -324Q276 -324 276 -285Q276 -249 317 -249Q357 -249 357 -285Z"  />
<glyph unicode="&#x5BC;" horiz-adv-x="0" d="M149 257Q149 240 137 229T106 217Q88 217 76 228T63 257Q63 274 75 285T106 297Q124 297 136 286T149 257Z"  />
<glyph unicode="&#x5BD;" horiz-adv-x="0" d="M28 -229H0V-102H28V-229Z"  />
<glyph unicode="&#x5BE;" horiz-adv-x="600" d="M471 369H100V493H471V369Z"  />
<glyph unicode="&#x5BF;" horiz-adv-x="0" d="M335 614L313 571H112L135 614H335Z"  />
<glyph unicode="&#x5C0;" horiz-adv-x="168" d="M108 -130H60V617H108V-130Z"  />
<glyph unicode="&#x5C1;" horiz-adv-x="0" d="M693 603Q693 586 681 575T650 563Q632 563 620 574T607 603Q607 620 619 631T650 643Q668 643 680 632T693 603Z"  />
<glyph unicode="&#x5C2;" horiz-adv-x="0" d="M209 603Q209 586 197 575T166 563Q148 563 136 574T123 603Q123 620 135 631T166 643Q184 643 196 632T209 603Z"  />
<glyph unicode="&#x5C3;" horiz-adv-x="275" d="M236 294H46V437H236V294ZM236 0H46V143H236V0Z"  />
<glyph unicode="&#x5D0;" horiz-adv-x="603" d="M591 0H378L284 166Q252 223 239 224Q227 225 218 180L183 0H13L105 380L15 502H232Q342 308 355 308Q372 308 390 502H568L490 147L591 0Z"  />
<glyph unicode="&#x5D1;" horiz-adv-x="547" d="M523 0H21V120H183Q233 120 264 155T295 249Q295 306 264 344T183 382H24V502H283Q367 502 428 443T490 299Q490 228 458 185Q437 157 399 139Q369 124 370 120Q371 116 390 117Q421 120 423 120H523V0Z"  />
<glyph unicode="&#x5D2;" horiz-adv-x="444" d="M390 0H215Q203 14 199 52Q196 86 193 86Q190 86 180 60Q167 28 149 11Q122 -15 78 -15Q18 -15 9 0V131Q44 110 76 110Q126 110 157 156T188 265Q188 345 165 367Q150 382 103 382H51V502H203Q294 502 336 460T378 321V71Q378 54 390 0Z"  />
<glyph unicode="&#x5D3;" horiz-adv-x="539" d="M512 382H421V0H229V382H2V502H512V382Z"  />
<glyph unicode="&#x5D4;" horiz-adv-x="629" d="M568 0H376V281Q376 343 359 362T288 382H52V502H405Q479 502 523 455T568 321V0ZM244 0H52V280H244V0Z"  />
<glyph unicode="&#x5D5;" horiz-adv-x="339" d="M268 0H76V389Q76 461 56 502H248Q268 454 268 389V0Z"  />
<glyph unicode="&#x5D6;" horiz-adv-x="396" d="M366 382Q306 382 294 365T282 255V0H90V239Q90 294 94 309Q106 357 157 374Q157 382 144 382Q147 382 26 382V502H366V382Z"  />
<glyph unicode="&#x5D7;" horiz-adv-x="675" d="M614 0H422V290Q422 345 407 362Q389 382 330 382H258V0H66V502H441Q614 502 614 352V0Z"  />
<glyph unicode="&#x5D8;" horiz-adv-x="678" d="M620 269Q620 110 567 51Q507 -15 335 -15Q201 -15 131 39T60 193V502H252V212Q252 155 263 137Q280 109 339 109Q397 109 415 159Q425 188 425 269Q425 343 412 366T358 390Q320 390 315 382V491Q340 517 434 517Q533 517 576 460T620 269Z"  />
<glyph unicode="&#x5D9;" horiz-adv-x="304" d="M243 213H51V381Q51 462 30 502H222Q243 454 243 381V213Z"  />
<glyph unicode="&#x5DA;" horiz-adv-x="505" d="M442 -192H250V290Q250 346 237 362Q220 382 158 382H3V502H263Q383 502 416 449Q442 408 442 263V-192Z"  />
<glyph unicode="&#x5DB;" horiz-adv-x="540" d="M492 251Q492 0 269 0H26V120H185Q297 120 297 251Q297 328 265 358Q239 382 183 382H26V502H269Q365 502 423 447Q492 382 492 251Z"  />
<glyph unicode="&#x5DC;" horiz-adv-x="527" d="M473 324L387 0H187L265 288Q272 313 272 329Q272 382 210 382H68Q31 382 7 411Q-20 443 -20 502V624Q-20 691 -32 722H161Q172 698 172 624Q172 539 179 523Q189 502 234 502H374Q481 502 481 386Q481 353 473 324Z"  />
<glyph unicode="&#x5DD;" horiz-adv-x="687" d="M626 0H66V502H435Q550 502 590 456Q626 414 626 294V0ZM434 120V284Q434 344 418 363T338 382H258V120H434Z"  />
<glyph unicode="&#x5DE;" horiz-adv-x="692" d="M634 249Q634 116 605 62Q563 -15 442 -15Q398 -15 351 6V133Q367 118 395 118Q427 118 436 173Q439 193 439 253Q439 328 418 360Q398 389 356 389Q269 389 269 264V0H77V328Q77 457 57 502H238Q253 502 256 428Q257 420 262 420Q265 420 281 445Q301 475 330 492Q373 517 438 517Q536 517 580 467Q634 405 634 249Z"  />
<glyph unicode="&#x5DF;" horiz-adv-x="339" d="M268 -192H76V381Q76 462 55 502H247Q268 454 268 381V-192Z"  />
<glyph unicode="&#x5E0;" horiz-adv-x="439" d="M364 0H35V120H172V290Q172 339 162 357Q148 382 104 382H36V502H197Q296 502 335 456Q364 422 364 352V0Z"  />
<glyph unicode="&#x5E1;" horiz-adv-x="677" d="M618 502L617 207Q617 88 545 41Q483 0 342 0H101L36 502H618ZM424 213V382H240L270 120H326Q381 120 402 138T424 213Z"  />
<glyph unicode="&#x5E2;" horiz-adv-x="633" d="M579 205Q579 92 531 46T373 0H22V120H138L20 502H224L316 118Q346 118 361 129Q387 151 387 215V502H579V205Z"  />
<glyph unicode="&#x5E3;" horiz-adv-x="673" d="M611 -192H419V234Q419 342 401 377T323 413Q231 413 231 294Q231 224 253 190H95Q36 195 36 302Q36 413 118 468Q191 517 324 517Q482 517 548 449Q611 383 611 232V-192Z"  />
<glyph unicode="&#x5E4;" horiz-adv-x="631" d="M590 264Q590 153 521 80Q444 0 310 0H107L88 120H229Q330 120 366 161Q395 194 395 281Q395 397 302 397Q212 397 212 310Q212 257 225 210H57Q27 237 27 321Q27 403 92 457Q168 519 312 519Q590 519 590 264Z"  />
<glyph unicode="&#x5E5;" horiz-adv-x="587" d="M523 260Q500 190 381 98V-192H203V54L-5 502H193L264 330Q268 320 282 270Q294 230 297 230Q307 232 329 257Q358 290 371 335Q376 353 376 377Q376 433 348 502H516Q541 445 541 373Q541 315 523 260Z"  />
<glyph unicode="&#x5E6;" horiz-adv-x="588" d="M563 502L419 238Q526 120 545 120V0H28V120H318Q286 146 254 172Q191 225 164 264Q140 287 79 372Q13 465 0 502H215Q234 453 264 409Q300 340 310 340Q316 340 324 370Q337 415 340 423L371 502H563Z"  />
<glyph unicode="&#x5E7;" horiz-adv-x="660" d="M599 214Q599 110 541 44Q489 -15 420 -15Q338 -15 290 1V102Q307 97 326 97Q403 97 403 190V382H38V502H599V214ZM245 -192H53V276H245V-192Z"  />
<glyph unicode="&#x5E8;" horiz-adv-x="495" d="M441 0H249V290Q249 350 237 365Q222 382 157 382H5V502H269Q380 502 414 461Q441 427 441 326V0Z"  />
<glyph unicode="&#x5E9;" horiz-adv-x="802" d="M475 185H318V502H475V185ZM740 215Q740 85 681 37Q635 0 528 0H100L46 502H226L274 120H443Q511 120 531 138T551 226V502H740V215Z"  />
<glyph unicode="&#x5EA;" horiz-adv-x="688" d="M627 0H435V290Q435 345 421 362Q404 382 343 382H274V178Q274 59 244 22T111 -15Q9 -15 -2 5V121Q19 109 38 109Q82 109 82 178V502H436Q553 502 590 462T627 300V0Z"  />
<glyph unicode="&#x5F0;" horiz-adv-x="619" d="M548 0H356V389Q356 461 336 502H528Q548 454 548 389V0ZM268 0H76V389Q76 461 56 502H248Q268 454 268 389V0Z"  />
<glyph unicode="&#x5F1;" horiz-adv-x="599" d="M528 0H336V389Q336 461 316 502H508Q528 454 528 389V0ZM243 213H51V381Q51 462 30 502H222Q243 454 243 381V213Z"  />
<glyph unicode="&#x5F2;" horiz-adv-x="584" d="M523 213H331V381Q331 462 310 502H502Q523 454 523 381V213ZM243 213H51V381Q51 462 30 502H222Q243 454 243 381V213Z"  />
<glyph unicode="&#x5F3;" horiz-adv-x="283" d="M270 502L174 260H47L89 502H270Z"  />
<glyph unicode="&#x5F4;" horiz-adv-x="425" d="M489 502L393 260H265L307 502H489ZM270 502L174 260H47L89 502H270Z"  />
<glyph unicode="&#xF25;" horiz-adv-x="527" d="M473 324L387 0H187L265 288Q272 313 272 329Q272 382 210 382H68Q31 382 7 411Q-20 443 -20 502V624Q-20 691 -32 722H161Q172 698 172 624Q172 539 179 523Q189 502 234 502H374Q481 502 481 386Q481 353 473 324Z"  />
<glyph unicode="&#x200E;" horiz-adv-x="406" d="M375 448L211 296V404H141V0H55V490H211V600L375 448Z"  />
<glyph unicode="&#x200F;" horiz-adv-x="406" d="M351 0H265V404H195V296L31 448L195 600V490H351V0Z"  />
<glyph unicode="&#x2013;" horiz-adv-x="600" d="M471 369H100V493H471V369Z"  />
<glyph unicode="&#x2014;" horiz-adv-x="1000" d="M871 190H100V314H871V190Z"  />
<glyph unicode="&#x2018;" horiz-adv-x="308" d="M267 260H140L44 502H225L267 260Z"  />
<glyph unicode="&#x2019;" horiz-adv-x="308" d="M270 502L174 260H47L89 502H270Z"  />
<glyph unicode="&#x201A;" horiz-adv-x="283" d="M258 43L162 -199H35L77 43H258Z"  />
<glyph unicode="&#x201C;" horiz-adv-x="528" d="M479 260H352L256 502H437L479 260ZM261 260H133L37 502H219L261 260Z"  />
<glyph unicode="&#x201D;" horiz-adv-x="528" d="M489 502L393 260H265L307 502H489ZM270 502L174 260H47L89 502H270Z"  />
<glyph unicode="&#x201E;" horiz-adv-x="528" d="M489 112L393 -130H265L307 112H489ZM270 112L174 -130H47L89 112H270Z"  />
<glyph unicode="&#x2020;" horiz-adv-x="271" d="M222 423H155V66H119V423H53V456H119V520Q119 531 110 552T101 585Q101 597 108 618T120 664T137 689Q149 689 154 664T166 618T173 585Q173 573 164 552T155 520V456H222V423Z"  />
<glyph unicode="&#x2021;" horiz-adv-x="271" d="M221 174H154V110Q154 99 163 78T172 45Q172 33 165 12T153 -33Q147 -60 136 -60Q125 -60 119 -33Q114 -9 107 12T100 45Q100 57 109 78T118 110V174H52V207H118V422H52V456H118V520Q118 531 109 551T100 584Q100 597 107 618T119 664T136 689Q148 689 153 664T165 618T172 584Q172 572 163 552T154 520V456H221V422H154V207H221V174Z"  />
<glyph unicode="&#x2022;" horiz-adv-x="471" d="M405 227Q405 163 355 117T234 71Q163 71 113 117T62 227Q62 291 112 336T234 382Q305 382 355 337T405 227Z"  />
<glyph unicode="&#x2026;" horiz-adv-x="897" d="M826 0H646V150H826V0ZM526 0H346V150H526V0ZM226 0H46V150H226V0Z"  />
<glyph unicode="&#x2030;" horiz-adv-x="1138" d="M1096 179Q1096 101 1055 48Q1010 -11 930 -11Q847 -11 798 49Q755 102 755 179Q755 254 798 307Q845 365 926 365Q1007 365 1054 306Q1096 254 1096 179ZM736 179Q736 101 695 48Q650 -11 570 -11Q487 -11 438 49Q394 103 394 179Q394 254 437 307Q484 365 565 365Q647 365 694 306Q736 254 736 179ZM638 656L173 -4H126L591 656H638ZM372 469Q372 391 331 339Q286 280 206 280Q123 280 74 339Q31 393 31 469Q31 545 74 597Q121 656 202 656Q283 656 330 597Q372 544 372 469ZM1001 167V190Q1001 269 990 299Q975 344 926 344Q877 344 861 299Q850 269 850 190V167Q850 85 861 56Q877 11 930 11Q976 11 991 54Q1001 85 1001 167ZM640 167V190Q640 269 629 299Q614 344 565 344Q516 344 500 299Q490 269 490 190V167Q490 85 501 56Q517 11 570 11Q616 11 630 54Q640 84 640 167ZM277 458V481Q277 560 266 590Q251 634 202 634Q153 634 137 589Q126 559 126 481V458Q126 376 137 346Q153 301 206 301Q252 301 267 345Q277 375 277 458Z"  />
<glyph unicode="&#x2039;" horiz-adv-x="271" d="M238 108H208L29 258L208 408H238L109 258L238 108Z"  />
<glyph unicode="&#x203A;" horiz-adv-x="271" d="M243 258L63 108H35L164 258L35 408H63L243 258Z"  />
<glyph unicode="&#x20AA;" horiz-adv-x="1045" d="M983 204Q983 75 929 32Q887 -1 773 -1H341L310 305H467L487 106H720Q794 106 810 121T826 219V502H983V204ZM734 195H576V283Q576 357 563 376T495 395H224V0H67V502H562Q661 502 701 456Q734 417 734 335V195Z"  />
<glyph unicode="&#x20AC;" horiz-adv-x="615" d="M589 52Q509 -16 403 -16Q307 -16 231 41T127 191H29L63 251H117Q116 271 116 271Q116 278 117 294H29L63 354H128Q157 445 232 501T403 558Q509 558 589 490L558 437Q493 498 403 498Q334 498 278 459T192 354H512L476 294H177Q176 282 176 271Q176 266 177 251H452L417 191H190Q218 124 275 84T403 44Q493 44 558 105L572 79Q575 74 589 52Z"  />
<glyph unicode="&#x2122;" horiz-adv-x="510" d="M467 464H371V480H399V596L351 464H339L286 589V480H315V464H238V480H266V628H238V645H301L353 522L399 645H467V628H440V480H467V464ZM216 600H199Q198 607 196 612Q190 628 169 628H147V480H175V464H78V480H105V628H82Q56 628 52 600H35L40 645H212L216 600Z"  />
<glyph unicode="&#x2153;" horiz-adv-x="780" d="M251 206H136V405Q98 370 46 357V441Q105 457 149 508H251V206ZM734 77Q734 34 688 11Q646 -10 579 -10Q423 -10 423 101H524Q524 79 538 65T577 50Q597 50 613 59T630 83Q630 115 605 121Q597 123 548 123V179Q582 179 596 185Q616 192 616 215Q616 247 575 247Q558 247 547 238T535 222V205H433Q433 314 577 314Q721 314 721 220Q721 165 652 152Q734 148 734 77ZM525 605L294 -102H185L416 605H525Z"  />
<glyph unicode="&#x2154;" horiz-adv-x="780" d="M301 205H11Q9 272 11 277Q66 305 122 333Q202 376 202 416Q202 455 163 455Q117 455 117 409H15Q10 461 47 490T154 519Q300 519 300 409Q300 324 133 277Q217 277 301 277V205ZM769 77Q769 34 723 11Q681 -10 614 -10Q458 -10 458 101H559Q559 79 573 65T611 50Q632 50 648 59T665 83Q665 115 639 121Q632 123 583 123V179Q617 179 631 185Q651 192 651 215Q651 247 610 247Q592 247 581 238T569 222V205H467Q467 314 612 314Q755 314 755 220Q755 165 686 152Q769 148 769 77ZM567 605L336 -102H227L458 605H567Z"  />
<glyph unicode="&#x2212;" horiz-adv-x="277" d="M277 231H4V262H277V231Z"  />
<glyph unicode="&#x2219;" horiz-adv-x="231" d="M172 309Q172 287 155 272T112 257Q87 257 70 272T52 309Q52 331 69 346T112 361Q137 361 154 346T172 309Z"  />
<glyph unicode="&#xE802;" horiz-adv-x="505" d="M442 -192H250V290Q250 346 237 362Q220 382 158 382H3V502H263Q383 502 416 449Q442 408 442 263V-192ZM169 266Q169 228 129 228Q88 228 88 266Q88 303 129 303Q169 303 169 266ZM169 141Q169 103 129 103Q88 103 88 141Q88 178 129 178Q169 178 169 141Z"  />
<glyph unicode="&#xE803;" horiz-adv-x="505" d="M442 -192H250V290Q250 346 237 362Q220 382 158 382H3V502H263Q383 502 416 449Q442 408 442 263V-192ZM214 206H138Q148 141 145 87H83Q80 141 90 206H14V259H214V206Z"  />
<glyph unicode="&#xE804;" horiz-adv-x="527" d="M473 324L387 0H187L265 288Q272 313 272 329Q272 382 210 382H68Q31 382 7 411Q-20 443 -20 502V624Q-20 691 -32 722H161Q172 698 172 624Q172 539 179 523Q189 502 234 502H374Q481 502 481 386Q481 353 473 324ZM-63 603Q-63 586 -75 575T-106 563Q-124 563 -136 574T-149 603Q-149 620 -137 631T-106 643Q-88 643 -76 632T-63 603Z"  />
<glyph unicode="&#xE805;" horiz-adv-x="527" d="M473 324L387 0H187L265 288Q272 313 272 329Q272 382 210 382H68Q31 382 7 411Q-20 443 -20 502V624Q-20 691 -32 722H161Q172 698 172 624Q172 539 179 523Q189 502 234 502H374Q481 502 481 386Q481 353 473 324ZM-63 603Q-63 586 -75 575T-106 563Q-124 563 -136 574T-149 603Q-149 620 -137 631T-106 643Q-88 643 -76 632T-63 603ZM179 257Q179 240 167 229T136 217Q118 217 106 228T93 257Q93 274 105 285T136 297Q154 297 166 286T179 257Z"  />
<glyph unicode="&#xFB1F;" horiz-adv-x="604" d="M543 213H351V381Q351 462 330 502H522Q543 454 543 381V213ZM243 213H51V381Q51 462 30 502H222Q243 454 243 381V213ZM521 1H61V54H521V1Z"  />
<glyph unicode="&#xFB20;" horiz-adv-x="633" d="M579 205Q579 92 531 46T373 0H22V120H138L20 502H224L316 118Q346 118 361 129Q387 151 387 215V502H579V205Z"  />
<glyph unicode="&#xFB21;" horiz-adv-x="629" d="M568 0H376V281Q376 343 359 362T288 382H52V502H405Q479 502 523 455T568 321V0ZM244 0H52V280H244V0Z"  />
<glyph unicode="&#xFB22;" horiz-adv-x="539" d="M512 382H421V0H229V382H2V502H512V382Z"  />
<glyph unicode="&#xFB24;" horiz-adv-x="540" d="M492 251Q492 0 269 0H26V120H185Q297 120 297 251Q297 328 265 358Q239 382 183 382H26V502H269Q365 502 423 447Q492 382 492 251Z"  />
<glyph unicode="&#xFB26;" horiz-adv-x="687" d="M626 0H66V502H435Q550 502 590 456Q626 414 626 294V0ZM434 120V284Q434 344 418 363T338 382H258V120H434Z"  />
<glyph unicode="&#xFB27;" horiz-adv-x="495" d="M441 0H249V290Q249 350 237 365Q222 382 157 382H5V502H269Q380 502 414 461Q441 427 441 326V0Z"  />
<glyph unicode="&#xFB28;" horiz-adv-x="688" d="M627 0H435V290Q435 345 421 362Q404 382 343 382H274V178Q274 59 244 22T111 -15Q9 -15 -2 5V121Q19 109 38 109Q82 109 82 178V502H436Q553 502 590 462T627 300V0Z"  />
<glyph unicode="&#xFB2A;" horiz-adv-x="802" d="M475 185H318V502H475V185ZM740 215Q740 85 681 37Q635 0 528 0H100L46 502H226L274 120H443Q511 120 531 138T551 226V502H740V215ZM676 603Q676 586 664 575T633 563Q615 563 603 574T590 603Q590 620 602 631T633 643Q651 643 663 632T676 603Z"  />
<glyph unicode="&#xFB2B;" horiz-adv-x="802" d="M475 185H318V502H475V185ZM740 215Q740 85 681 37Q635 0 528 0H100L46 502H226L274 120H443Q511 120 531 138T551 226V502H740V215ZM166 603Q166 586 154 575T123 563Q105 563 93 574T80 603Q80 620 92 631T123 643Q141 643 153 632T166 603Z"  />
<glyph unicode="&#xFB2C;" horiz-adv-x="802" d="M475 185H318V502H475V185ZM740 215Q740 85 681 37Q635 0 528 0H100L46 502H226L274 120H443Q511 120 531 138T551 226V502H740V215ZM676 603Q676 586 664 575T633 563Q615 563 603 574T590 603Q590 620 602 631T633 643Q651 643 663 632T676 603ZM545 259Q545 231 515 231Q485 231 485 259Q485 287 515 287Q545 287 545 259Z"  />
<glyph unicode="&#xFB2D;" horiz-adv-x="802" d="M475 185H318V502H475V185ZM740 215Q740 85 681 37Q635 0 528 0H100L46 502H226L274 120H443Q511 120 531 138T551 226V502H740V215ZM166 603Q166 586 154 575T123 563Q105 563 93 574T80 603Q80 620 92 631T123 643Q141 643 153 632T166 603ZM545 259Q545 231 515 231Q485 231 485 259Q485 287 515 287Q545 287 545 259Z"  />
<glyph unicode="&#xFB2E;" horiz-adv-x="603" d="M591 0H378L284 166Q252 223 239 224Q227 225 218 180L183 0H13L105 380L15 502H232Q342 308 355 308Q372 308 390 502H568L490 147L591 0ZM385 -139H185V-86H385V-139Z"  />
<glyph unicode="&#xFB2F;" horiz-adv-x="603" d="M591 0H378L284 166Q252 223 239 224Q227 225 218 180L183 0H13L105 380L15 502H232Q342 308 355 308Q372 308 390 502H568L490 147L591 0ZM375 -139H299Q309 -204 306 -258H244Q241 -204 251 -139H175V-86H375V-139Z"  />
<glyph unicode="&#xFB30;" horiz-adv-x="603" d="M591 0H378L284 166Q252 223 239 224Q227 225 218 180L183 0H13L105 380L15 502H232Q342 308 355 308Q372 308 390 502H568L490 147L591 0ZM315 -117Q315 -155 275 -155Q234 -155 234 -117Q234 -80 275 -80Q315 -80 315 -117Z"  />
<glyph unicode="&#xFB31;" horiz-adv-x="547" d="M523 0H21V120H183Q233 120 264 155T295 249Q295 306 264 344T183 382H24V502H283Q367 502 428 443T490 299Q490 228 458 185Q437 157 399 139Q369 124 370 120Q371 116 390 117Q421 120 423 120H523V0ZM189 257Q189 240 177 229T146 217Q128 217 116 228T103 257Q103 274 115 285T146 297Q164 297 176 286T189 257Z"  />
<glyph unicode="&#xFB32;" horiz-adv-x="444" d="M390 0H215Q203 14 199 52Q196 86 193 86Q190 86 180 60Q167 28 149 11Q122 -15 78 -15Q18 -15 9 0V131Q44 110 76 110Q126 110 157 156T188 265Q188 345 165 367Q150 382 103 382H51V502H203Q294 502 336 460T378 321V71Q378 54 390 0ZM149 257Q149 240 137 229T106 217Q88 217 76 228T63 257Q63 274 75 285T106 297Q124 297 136 286T149 257Z"  />
<glyph unicode="&#xFB33;" horiz-adv-x="539" d="M512 382H421V0H229V382H2V502H512V382ZM159 257Q159 240 147 229T116 217Q98 217 86 228T73 257Q73 274 85 285T116 297Q134 297 146 286T159 257Z"  />
<glyph unicode="&#xFB34;" horiz-adv-x="629" d="M568 0H376V281Q376 343 359 362T288 382H52V502H405Q479 502 523 455T568 321V0ZM244 0H52V280H244V0ZM351 257Q351 240 339 229T308 217Q290 217 278 228T265 257Q265 274 277 285T308 297Q326 297 338 286T351 257Z"  />
<glyph unicode="&#xFB35;" horiz-adv-x="339" d="M268 0H76V389Q76 461 56 502H248Q268 454 268 389V0ZM50 257Q50 240 38 229T7 217Q-11 217 -23 228T-36 257Q-36 274 -24 285T7 297Q25 297 37 286T50 257Z"  />
<glyph unicode="&#xFB36;" horiz-adv-x="396" d="M366 382Q306 382 294 365T282 255V0H90V239Q90 294 94 309Q106 357 157 374Q157 382 144 382Q147 382 26 382V502H366V382ZM70 257Q70 240 58 229T27 217Q9 217 -3 228T-16 257Q-16 274 -4 285T27 297Q45 297 57 286T70 257Z"  />
<glyph unicode="&#xFB38;" horiz-adv-x="678" d="M620 269Q620 110 567 51Q507 -15 335 -15Q201 -15 131 39T60 193V502H252V212Q252 155 263 137Q280 109 339 109Q397 109 415 159Q425 188 425 269Q425 343 412 366T358 390Q320 390 315 382V491Q340 517 434 517Q533 517 576 460T620 269ZM385 257Q385 240 373 229T342 217Q324 217 312 228T299 257Q299 274 311 285T342 297Q360 297 372 286T385 257Z"  />
<glyph unicode="&#xFB39;" horiz-adv-x="304" d="M243 213H51V381Q51 462 30 502H222Q243 454 243 381V213ZM20 257Q20 240 8 229T-23 217Q-41 217 -53 228T-66 257Q-66 274 -54 285T-23 297Q-5 297 7 286T20 257Z"  />
<glyph unicode="&#xFB3A;" horiz-adv-x="505" d="M442 -192H250V290Q250 346 237 362Q220 382 158 382H3V502H263Q383 502 416 449Q442 408 442 263V-192ZM169 257Q169 240 157 229T126 217Q108 217 96 228T83 257Q83 274 95 285T126 297Q144 297 156 286T169 257Z"  />
<glyph unicode="&#xFB3B;" horiz-adv-x="540" d="M492 251Q492 0 269 0H26V120H185Q297 120 297 251Q297 328 265 358Q239 382 183 382H26V502H269Q365 502 423 447Q492 382 492 251ZM199 257Q199 240 187 229T156 217Q138 217 126 228T113 257Q113 274 125 285T156 297Q174 297 186 286T199 257Z"  />
<glyph unicode="&#xFB3C;" horiz-adv-x="527" d="M473 324L387 0H187L265 288Q272 313 272 329Q272 382 210 382H68Q31 382 7 411Q-20 443 -20 502V624Q-20 691 -32 722H161Q172 698 172 624Q172 539 179 523Q189 502 234 502H374Q481 502 481 386Q481 353 473 324ZM179 257Q179 240 167 229T136 217Q118 217 106 228T93 257Q93 274 105 285T136 297Q154 297 166 286T179 257Z"  />
<glyph unicode="&#xFB3E;" horiz-adv-x="692" d="M634 249Q634 116 605 62Q563 -15 442 -15Q398 -15 351 6V133Q367 118 395 118Q427 118 436 173Q439 193 439 253Q439 328 418 360Q398 389 356 389Q269 389 269 264V0H77V328Q77 457 57 502H238Q253 502 256 428Q257 420 262 420Q265 420 281 445Q301 475 330 492Q373 517 438 517Q536 517 580 467Q634 405 634 249ZM399 257Q399 240 387 229T356 217Q338 217 326 228T313 257Q313 274 325 285T356 297Q374 297 386 286T399 257Z"  />
<glyph unicode="&#xFB40;" horiz-adv-x="439" d="M364 0H35V120H172V290Q172 339 162 357Q148 382 104 382H36V502H197Q296 502 335 456Q364 422 364 352V0ZM140 257Q140 240 128 229T97 217Q79 217 67 228T54 257Q54 274 66 285T97 297Q115 297 127 286T140 257Z"  />
<glyph unicode="&#xFB41;" horiz-adv-x="677" d="M618 502L617 207Q617 88 545 41Q483 0 342 0H101L36 502H618ZM424 213V382H240L270 120H326Q381 120 402 138T424 213ZM389 257Q389 240 377 229T346 217Q328 217 316 228T303 257Q303 274 315 285T346 297Q364 297 376 286T389 257Z"  />
<glyph unicode="&#xFB44;" horiz-adv-x="631" d="M590 264Q590 153 521 80Q444 0 310 0H107L88 120H229Q330 120 366 161Q395 194 395 281Q395 397 302 397Q212 397 212 310Q212 257 225 210H57Q27 237 27 321Q27 403 92 457Q168 519 312 519Q590 519 590 264ZM349 257Q349 240 337 229T306 217Q288 217 276 228T263 257Q263 274 275 285T306 297Q324 297 336 286T349 257Z"  />
<glyph unicode="&#xFB46;" horiz-adv-x="588" d="M563 502L419 238Q526 120 545 120V0H28V120H318Q286 146 254 172Q191 225 164 264Q140 287 79 372Q13 465 0 502H215Q234 453 264 409Q300 340 310 340Q316 340 324 370Q337 415 340 423L371 502H563ZM149 188Q149 171 137 160T106 148Q88 148 76 159T63 188Q63 205 75 216T106 228Q124 228 136 217T149 188Z"  />
<glyph unicode="&#xFB47;" horiz-adv-x="660" d="M599 214Q599 110 541 44Q489 -15 420 -15Q338 -15 290 1V102Q307 97 326 97Q403 97 403 190V382H38V502H599V214ZM245 -192H53V276H245V-192ZM369 257Q369 240 357 229T326 217Q308 217 296 228T283 257Q283 274 295 285T326 297Q344 297 356 286T369 257Z"  />
<glyph unicode="&#xFB48;" horiz-adv-x="495" d="M441 0H249V290Q249 350 237 365Q222 382 157 382H5V502H269Q380 502 414 461Q441 427 441 326V0ZM169 257Q169 240 157 229T126 217Q108 217 96 228T83 257Q83 274 95 285T126 297Q144 297 156 286T169 257Z"  />
<glyph unicode="&#xFB49;" horiz-adv-x="802" d="M475 185H318V502H475V185ZM740 215Q740 85 681 37Q635 0 528 0H100L46 502H226L274 120H443Q511 120 531 138T551 226V502H740V215ZM545 259Q545 231 515 231Q485 231 485 259Q485 287 515 287Q545 287 545 259Z"  />
<glyph unicode="&#xFB4A;" horiz-adv-x="688" d="M627 0H435V290Q435 345 421 362Q404 382 343 382H274V178Q274 59 244 22T111 -15Q9 -15 -2 5V121Q19 109 38 109Q82 109 82 178V502H436Q553 502 590 462T627 300V0ZM399 257Q399 240 387 229T356 217Q338 217 326 228T313 257Q313 274 325 285T356 297Q374 297 386 286T399 257Z"  />
<glyph unicode="&#xFB4B;" horiz-adv-x="339" d="M268 0H76V389Q76 461 56 502H248Q268 454 268 389V0ZM196 603Q196 586 184 575T153 563Q135 563 123 574T110 603Q110 620 122 631T153 643Q171 643 183 632T196 603Z"  />
<glyph unicode="&#xFB4C;" horiz-adv-x="547" d="M523 0H21V120H183Q233 120 264 155T295 249Q295 306 264 344T183 382H24V502H283Q367 502 428 443T490 299Q490 228 458 185Q437 157 399 139Q369 124 370 120Q371 116 390 117Q421 120 423 120H523V0ZM335 614L313 571H112L135 614H335Z"  />
<glyph unicode="&#xFB4D;" horiz-adv-x="540" d="M492 251Q492 0 269 0H26V120H185Q297 120 297 251Q297 328 265 358Q239 382 183 382H26V502H269Q365 502 423 447Q492 382 492 251ZM335 614L313 571H112L135 614H335Z"  />
<glyph unicode="&#xFB4E;" horiz-adv-x="631" d="M590 264Q590 153 521 80Q444 0 310 0H107L88 120H229Q330 120 366 161Q395 194 395 281Q395 397 302 397Q212 397 212 310Q212 257 225 210H57Q27 237 27 321Q27 403 92 457Q168 519 312 519Q590 519 590 264ZM415 614L393 571H192L215 614H415Z"  />
<glyph unicode="&#xFB4F;" horiz-adv-x="470" d="M435 62Q435 22 399 -8L181 254Q137 215 137 189Q137 174 162 133L201 69L182 0H62V33L99 45Q74 135 74 156Q74 217 159 281L100 352Q45 352 28 377Q14 396 14 455Q14 529 40 573Q36 579 7 597Q-14 611 -14 629Q-14 683 23 703V699Q23 686 70 665Q102 650 102 629Q102 620 82 576T62 503Q62 458 115 458H129L298 255Q300 275 356 356Q345 355 345 355Q276 355 276 440Q276 484 316 496Q324 458 347 458H383Q432 458 432 390Q432 383 427 357H396L354 287Q337 259 326 221L406 124Q435 89 435 62Z"  />


</font>
</defs>
</svg>
