<?xml  version="1.0" encoding="UTF-8"?>
<!DOCTYPE svg PUBLIC "-//W3C//DTD SVG 1.0//EN" "http://www.w3.org/TR/2001/REC-SVG-20010904/DTD/svg10.dtd" >
<svg xmlns="http://www.w3.org/2000/svg" >
<metadata>
<version>1.0</version>
<id><![CDATA[Oron Yad W26 Bold]]></id>
<vendor>Monotype Imaging Inc.</vendor>
<credits>
<name>Fonts.com WebFonts</name>
<URL>http://webfonts.fonts.com</URL>
<role>Home of the Web fonts</role>
</credits>
<license>
<URL>http://webfonts.fonts.com/Legal</URL>
</license>
<copyright><![CDATA[Copyright (c) 2007 by Masterfont. All rights reserved.]]></copyright>
<trademark><![CDATA[OronYadMF Bold is a trademark of Masterfont.]]></trademark>
<licensee>
<name></name>
</licensee>
</metadata>
<defs >
<font horiz-adv-x="495" id="33ea1341-f2ee-44e6-818a-9f072db39676">
<font-face font-family="" panose-1="2 0 0 0 0 0 0 0 0 0" ascent="992" descent="-273" units-per-em="1000" alphabetic="0">
</font-face>
<missing-glyph horiz-adv-x="261" />

<glyph unicode="&#xA;" />
<glyph unicode="&#xD;" />
<glyph unicode=" " horiz-adv-x="405" />
<glyph unicode="!" horiz-adv-x="281" d="M198 622Q198 557 189 496L181 454Q177 422 177 390T173 325Q171 312 167 290T158 245T147 200T136 169Q133 164 132 158T129 145T123 135T111 130Q104 130 95 132T77 138T63 149T57 165Q57 166 57 167T58 170Q64 195 70 219T79 270Q88 339 92 402T111 535Q110 538 110 547Q110 563 111 578T113 610Q119 614 127 622T144 637T161 651T177 657Q190 657 194 645T198 622ZM118 35Q118 28 113 15T103 -3Q98 -8 85 -11T65 -15Q49 -15 36 -6T17 18H16Q12 27 12 35Q12 49 18 57T33 69T53 74T75 75Q87 75 94 71T102 54Q118 51 118 35Z"  />
<glyph unicode="&quot;" horiz-adv-x="329" d="M324 623Q324 606 316 594T295 572T268 553T243 534Q233 525 227 514T214 491T197 473T170 465Q159 465 149 468T127 477Q133 496 138 506T150 525T164 542T185 564Q192 573 199 586T215 611T234 633T259 644Q267 646 275 652T294 658Q309 658 316 648T324 623ZM184 623Q184 606 176 594T155 572T128 553T103 534Q93 525 87 514T74 491T57 473T30 465Q19 465 9 468T-13 477Q-7 496 -2 506T10 525T24 542T45 564Q52 573 59 586T75 611T94 633T119 644Q127 646 135 652T154 658Q169 658 176 648T184 623Z"  />
<glyph unicode="#" horiz-adv-x="500" d="M486 377Q486 370 474 364T445 354T414 346T394 342Q371 339 348 336T302 331Q299 316 294 301T286 271Q292 272 298 272T311 272Q319 272 331 270T344 257Q344 252 336 247T317 238T296 230T281 226Q277 200 272 182T260 146T243 113T219 75Q212 62 197 62Q179 62 179 78Q179 87 185 95T193 111Q201 138 208 166T221 222Q197 220 174 217T127 209Q122 189 121 168T113 127Q108 110 102 94T88 61Q81 62 76 68T66 82T60 99T58 114Q58 126 58 137T57 161Q57 185 61 200Q49 200 37 201T13 205Q12 210 12 215T11 226Q11 236 18 241T36 250T57 254T75 256L88 299Q79 296 70 295T51 294Q43 294 29 300T13 314Q15 317 27 322T54 334T82 344T101 351Q110 375 122 397T140 446Q143 460 148 474T160 501Q164 511 174 511Q182 511 192 499T203 479Q203 473 201 463T197 442T192 421T187 405Q184 396 181 387T175 369Q195 374 216 376T258 380Q262 394 269 405T281 430Q287 445 290 460T296 492Q305 503 317 503Q323 503 330 500T344 495Q341 467 337 440T321 387Q351 389 381 390T441 394Q445 394 448 394T455 395Q464 395 475 392T486 377ZM245 325Q222 322 200 319T155 311Q153 299 149 288T142 264Q164 267 185 271T230 275Q233 288 237 300T245 325Z"  />
<glyph unicode="$" horiz-adv-x="829" d="M807 587Q807 579 801 574T787 565T769 561T754 560Q718 560 679 571Q672 533 665 496T652 421Q650 406 647 391T644 360Q644 353 666 337T716 299T765 253T788 205Q788 195 788 181T786 151T783 121T778 99Q772 84 759 71T730 47T697 27T666 11Q660 8 645 6T615 1T588 -7T576 -19L561 -232H562L563 -234Q563 -245 554 -259T531 -273Q519 -273 513 -267T503 -250T500 -229T499 -210Q499 -181 500 -152T502 -94Q502 -84 502 -69T498 -38T487 -12T465 -1Q448 -1 440 -20T427 -68T419 -131T407 -193T383 -241T340 -261Q335 -261 332 -260T328 -252Q328 -244 331 -236T334 -220Q334 -188 344 -159T354 -97Q354 -77 359 -55T370 -13Q360 -2 344 10T312 22Q303 22 286 27T258 35Q222 45 186 56T118 85T60 128T19 191Q17 197 17 199Q17 207 23 218T38 240T57 258T76 266Q100 266 106 256T113 232T119 200T144 169Q162 156 185 144T233 119T282 98T328 81Q330 80 338 78T349 75Q355 75 362 83T376 103T388 126T393 143Q396 178 397 213T414 280Q416 286 416 287Q416 293 407 297T386 304T363 308T346 309Q323 312 291 317T230 335T181 367T160 419Q160 434 165 449T178 480T195 509T215 534Q242 563 271 581T331 612T396 634T466 656Q466 689 473 723T489 792T505 861T512 930Q512 956 531 974T576 992Q589 992 594 985T603 970T612 955T631 948Q641 948 645 953T653 965T660 976T673 982Q691 982 707 974T723 944Q723 892 719 841T708 739Q706 722 704 705T698 671Q696 663 694 656T692 641Q692 639 697 638T704 635Q713 633 730 630T764 622T794 609T807 587ZM628 822Q628 842 627 862T624 902Q623 899 620 897T612 892T604 888T600 884Q600 870 597 851T590 812T580 772T570 740Q562 720 558 698T548 655Q562 653 575 652T602 650Q608 663 613 686T621 734T626 783T628 822ZM540 572Q526 498 516 425Q515 417 514 408T512 391Q512 385 516 381T527 375T539 372T551 371Q555 371 560 376Q562 378 564 391T568 424T573 467T576 512T579 549T580 571L540 572ZM720 171Q720 180 710 193T687 218T659 242T638 260Q630 231 624 201T611 142Q609 128 606 112T602 82Q602 79 606 79Q624 79 644 85T681 104T709 133T720 171ZM444 540Q444 542 444 545T440 549Q429 549 419 547T397 542Q378 537 355 530T312 511T278 482T264 440Q264 422 274 412T299 397T330 390T361 389Q370 389 379 389T398 388Q401 388 412 388T424 394Q424 427 433 458T442 523Q442 528 443 531T444 540ZM548 282Q540 287 527 290T505 294Q500 294 497 286T491 268T488 247T486 233Q480 195 470 158T460 81Q460 75 470 74T485 72Q499 72 511 77T524 100Q524 146 530 191T548 282Z"  />
<glyph unicode="%" horiz-adv-x="577" d="M288 495Q288 487 287 484Q281 458 265 431T226 389Q220 386 210 382T188 374T166 368T148 365Q121 365 101 372T59 396Q37 413 33 439T28 491Q28 520 36 547T60 598Q65 605 74 614T93 630T115 643T136 648H138Q167 649 195 635T243 601Q247 597 253 590T265 575T275 560T279 546V547Q280 544 281 537T284 521T287 506T288 495ZM556 137Q556 114 541 94T510 58Q487 35 454 17T387 -2Q374 -2 356 0T327 9Q314 17 304 31T288 61T278 95T275 126Q275 140 277 155T287 182Q294 193 301 205T317 226Q326 235 339 242T368 253T398 260T426 263Q434 263 437 262Q444 261 454 257T476 248T496 238T511 228Q531 211 543 187T556 137ZM476 625Q476 610 471 593T458 557T442 522T428 491Q394 410 350 337T257 189Q239 161 215 125T162 54T103 -10T42 -55Q38 -55 35 -55T28 -56Q21 -56 14 -53T6 -41Q6 -34 13 -27T25 -14Q63 28 95 73T160 167Q214 246 264 327T348 499Q356 519 365 546T388 597T421 637T469 653Q474 653 475 642T476 625ZM227 490Q225 499 225 507T225 525Q225 531 220 539T208 556T192 571T178 579Q136 588 116 572T95 496Q95 462 103 444T150 426Q159 426 177 432T201 445Q209 454 216 466T227 490ZM489 146Q489 157 482 167T464 186T441 200T418 205Q383 205 360 184T337 128Q337 126 337 121T337 109T337 98T339 91Q344 85 347 79T354 66Q356 62 359 62T366 61Q372 61 378 61T391 62Q404 62 421 71T453 93T478 121T489 146Z"  />
<glyph unicode="&amp;" horiz-adv-x="680" d="M675 90Q675 61 625 19Q587 -13 540 -13Q464 -13 387 70Q286 -13 187 -13Q118 -13 78 24Q38 61 38 130Q38 200 96 257Q111 272 143 296Q158 307 176 318T214 340Q182 438 182 468Q182 526 221 567Q259 608 320 608Q372 608 407 579Q443 550 443 500Q443 443 398 403Q369 377 302 346Q327 295 356 250T421 160Q504 264 504 324Q504 348 486 357Q472 362 446 365V383H641V365Q609 360 596 353Q572 339 556 311L534 274Q529 264 523 254T509 233Q502 222 494 211T478 187L443 135Q459 103 500 78Q541 52 576 52Q606 52 626 64Q630 67 633 70T641 77L662 101L675 90ZM394 504Q394 536 375 558Q356 580 324 580Q254 580 254 502Q254 450 290 374Q394 433 394 504ZM364 94Q348 113 332 135T299 184Q264 238 227 310L205 294L185 279Q172 268 154 249Q121 211 121 162Q121 110 154 74Q189 36 238 36Q297 36 364 94Z"  />
<glyph unicode="&apos;" horiz-adv-x="189" d="M184 660Q184 643 176 631T154 608T127 590T102 571Q92 562 86 551T73 528T56 510T30 502Q19 502 9 505T-13 514Q-7 533 -2 543T9 562T24 579T44 601Q51 610 58 623T74 648T93 670T119 681Q127 683 134 689T153 695Q168 695 176 685T184 660Z"  />
<glyph unicode="(" horiz-adv-x="479" d="M463 695Q463 687 456 682T439 673T419 668T402 665Q327 651 265 624T152 537Q118 495 108 446T97 344Q97 304 105 270T133 200Q139 189 157 167T201 117T256 62T312 11T362 -23T395 -30Q403 -35 413 -41T432 -56T447 -73T454 -93Q454 -109 443 -111T421 -114Q403 -114 378 -105T325 -84T274 -57T233 -33Q113 39 48 139T-17 382Q-17 444 12 506T90 618T199 699T323 730Q340 730 356 731T390 733Q409 733 424 730T453 713Q456 710 459 705T463 695Z"  />
<glyph unicode=")" horiz-adv-x="463" d="M443 302Q443 277 438 259T423 224T402 192T378 157Q358 126 338 87Q315 42 274 10T188 -44Q178 -49 168 -53T148 -62Q135 -69 123 -80T97 -102T70 -121T41 -129Q33 -129 25 -125T16 -111Q16 -101 25 -88T48 -61T75 -37T97 -18Q119 2 152 31T217 92T275 156T309 216Q314 233 315 254T317 293Q317 306 316 324T314 360T309 396T302 426Q286 468 258 498T197 555T130 607T68 665Q67 666 67 669Q67 692 76 710T112 729Q131 729 152 721T190 705Q254 674 299 623T382 511Q396 489 405 471T420 435T430 398T438 353Q440 339 441 326T443 302Z"  />
<glyph unicode="*" horiz-adv-x="400" d="M389 533Q389 527 380 523T358 515T334 509T318 507Q304 505 291 505T263 506Q258 506 252 506T241 505Q255 491 265 475T287 443L308 416Q312 412 312 405Q312 397 309 389T301 374Q281 377 270 384T250 401T233 421T209 441Q195 449 189 458T171 479Q151 461 136 438T101 396Q97 385 85 380T64 370Q54 372 47 378T40 395Q40 403 42 408T50 418Q54 423 57 427T63 437Q74 453 85 469T109 499Q85 502 61 501T12 504Q11 510 11 515T11 527Q11 536 25 541T57 549T90 553T108 556Q101 566 96 575T84 595L60 631Q68 660 98 672Q113 658 125 646T149 615Q154 605 160 597T174 582Q182 589 189 599T203 618Q214 635 226 650T254 678Q265 672 278 665T291 642Q291 637 284 626T268 602T251 578T238 562Q243 561 247 561T257 561Q274 561 290 562T323 564Q330 564 341 563T363 558T381 548T389 533Z"  />
<glyph unicode="+" horiz-adv-x="419" d="M391 302Q391 288 384 278T363 267Q349 267 336 272T308 278Q291 278 274 274T240 269Q238 254 237 240T236 210Q236 202 230 191T221 171Q219 160 218 154T216 143T210 133T198 116Q194 117 186 119T170 124T156 130T150 139Q150 171 157 203T167 267Q140 265 114 260T60 255H50Q45 255 42 261T36 275T31 291T28 303Q43 313 52 319T79 327Q90 329 101 333T123 338Q128 338 132 338T142 337Q150 337 156 337T171 339Q172 350 173 361T174 384Q174 398 171 412T167 440Q167 458 177 468T207 479Q230 479 238 461T248 423Q249 404 249 385T249 347Q271 347 293 346T337 343Q355 341 373 333T391 302Z"  />
<glyph unicode="&#x2c;" horiz-adv-x="232" d="M140 118Q140 107 135 91T122 58T105 27T89 5Q87 3 79 -1T62 -11Q57 -14 52 -16T41 -26Q39 -28 34 -30T21 -36T8 -41T0 -43Q-11 -43 -17 -37T-23 -19L18 26Q22 32 29 42T42 63T54 83T59 98V107Q60 125 63 134T77 161V160Q80 165 85 165T96 165Q110 165 118 158T137 139Q140 130 140 118Z"  />
<glyph unicode="-" horiz-adv-x="419" d="M391 264Q391 242 373 234T337 223Q314 221 292 220T247 219Q221 219 196 224T144 229Q133 229 124 228T103 227Q83 227 64 239T28 263Q29 267 31 275T35 291T41 305T50 311H61Q96 311 130 304T199 298H214Q231 298 247 297T281 296Q292 296 302 296T322 300Q340 305 352 305Q370 305 380 294T391 264Z"  />
<glyph unicode="." horiz-adv-x="177" d="M118 96Q118 78 102 65T68 52Q62 52 53 55T35 63T20 74T13 87Q13 107 16 114T36 134Q41 138 48 142T61 147Q67 147 73 147T86 148Q104 148 114 138Q117 127 117 117T118 96Z"  />
<glyph unicode="/" horiz-adv-x="451" d="M453 620Q453 603 449 587T439 553Q406 455 353 366T244 189Q224 159 199 123T145 51T85 -13T21 -59L-4 -22Q33 34 73 88T152 198T227 309T294 427Q313 466 326 507T360 587Q374 613 393 633T445 653H448Q453 635 453 620Z"  />
<glyph unicode="0" horiz-adv-x="634" d="M589 328Q589 262 562 206T487 106Q476 96 463 85T436 63T406 44T376 31Q361 27 340 24T297 19T254 15T217 14Q173 14 141 31T87 76T56 142T45 220Q45 256 53 307T78 409T119 504T174 569Q217 600 270 600Q287 600 303 597T336 588Q375 575 419 550T501 491T564 416T589 328ZM507 302Q507 333 497 350T467 390Q452 406 429 425T379 462T326 490T277 502Q261 502 248 495Q237 489 230 480T217 461T206 439T195 418Q173 384 157 354T141 281V246Q141 227 141 207T145 167Q149 147 162 133T194 110T232 94T271 85Q274 84 283 84Q298 84 316 89T353 101T388 118T417 136Q457 165 482 208T507 302Z"  />
<glyph unicode="1" horiz-adv-x="634" d="M465 569Q465 537 462 506T453 444Q449 420 443 397T432 350Q422 299 417 248T411 144Q411 133 413 122T415 99Q415 90 413 77T407 51T394 29T375 20Q364 20 357 26T345 41T338 60T336 79L338 94Q341 112 343 130T345 167Q345 234 329 297Q320 282 302 254T261 196T215 146T174 124Q153 124 145 137T137 169Q137 188 141 203Q149 213 165 233T199 279T238 332T275 384T303 429T317 458Q321 482 327 502T341 542T356 581T370 624Q372 631 375 640T382 658T393 672T410 678Q429 678 440 666T456 637T463 601T465 569Z"  />
<glyph unicode="2" horiz-adv-x="634" d="M502 383Q502 357 496 337T477 293Q470 280 466 268T455 244T440 223T416 207Q432 168 440 127T466 46Q467 42 471 37T479 25T487 14T491 4Q491 -2 492 -8T496 -20Q487 -22 478 -24T459 -27Q444 -27 431 -20Q417 -1 406 19T385 61T365 102T341 142Q309 137 278 126T214 115Q178 115 150 136Q147 139 143 148T135 169T128 190T125 205V207Q131 245 158 274T219 320Q222 322 229 325T240 328Q264 328 295 323T346 301Q353 294 359 287T377 278Q378 287 384 295T398 312T411 331T417 353Q417 376 406 403T377 444Q360 458 340 464T297 471Q280 471 261 469T226 458Q221 455 216 450T203 444Q197 444 190 448Q182 460 180 470T178 494Q178 501 178 507T184 519Q194 533 209 544T241 562T276 574T311 578Q327 578 345 573Q384 565 410 552T467 513Q480 502 487 487T497 453T501 417T502 383ZM281 216Q281 225 269 234T248 243Q238 243 228 236T218 218Q218 207 227 203T245 198Q253 198 267 202T281 216Z"  />
<glyph unicode="3" horiz-adv-x="634" d="M576 182Q576 155 557 126T511 70T453 23T398 -5Q384 -10 370 -11T342 -13Q325 -13 308 -12T273 -10Q231 -10 189 -2T113 35Q81 61 64 99T47 180Q47 189 52 207T66 242T86 273T108 286Q120 286 131 280T147 261Q142 247 141 234T139 206Q139 170 151 143T183 97T232 68T294 56H296Q308 55 329 59T372 71T413 88T440 106Q455 120 471 142T487 187Q487 207 473 219T438 237T395 245T359 247Q341 247 327 243T300 233T275 223T251 218Q245 218 237 222T221 232T208 246T203 260Q203 279 214 292T242 314Q262 324 280 329T315 341T345 360T369 397Q374 411 379 428T385 459Q385 482 372 490T338 498Q321 498 306 493T277 480T248 468T218 462Q206 462 203 475T199 497Q199 508 204 523Q206 528 225 540T267 565T311 588T339 600Q344 601 350 601T361 601Q395 601 417 593T453 567T471 526T476 470Q476 437 465 402T434 339Q443 337 455 335T481 330T505 323T524 312Q534 303 543 287T560 252T571 214T576 182Z"  />
<glyph unicode="4" horiz-adv-x="634" d="M603 249Q603 233 591 220T562 207Q545 207 528 213T494 220Q481 220 473 214T461 197T454 175T452 153Q452 139 448 127T443 101Q443 93 445 86T448 71Q448 65 446 57T441 42T432 29T419 23Q412 23 405 29T391 45T380 65T376 81Q374 108 374 136T374 191Q374 212 379 237Q366 243 350 247T320 252Q309 252 300 251T279 250Q265 250 252 253T226 261T199 268T172 272Q151 272 131 269T89 265Q78 265 66 268T44 277T26 292T19 313Q19 325 21 336T34 356Q49 368 69 371T112 375T156 378T197 390Q248 419 284 464T354 555Q360 563 367 573T381 591T398 605T419 611Q431 611 443 603T464 582T480 555T486 530Q486 482 481 437T476 344Q476 318 490 302T531 285Q538 285 550 283T574 277T594 266T603 249ZM397 495Q387 481 373 468T346 442Q320 416 294 392T242 343Q265 340 289 337T336 334Q346 334 361 328T387 319L397 495Z"  />
<glyph unicode="5" horiz-adv-x="634" d="M580 256Q580 223 573 186T552 117Q544 99 534 86T511 62T485 41T456 20Q418 -8 379 -14T294 -21Q265 -21 230 -14T171 10Q150 25 130 48T94 99T69 156T59 211Q59 223 62 239T71 270T89 294T116 304Q132 304 144 290T156 260Q156 241 148 225T139 189Q139 176 148 166T165 146Q181 128 196 115T227 92T263 78T307 73Q336 73 369 84T431 114T479 161T498 221Q498 236 496 254T488 291T475 326T456 353Q438 370 413 377T364 384Q360 384 357 385T349 386Q345 386 341 383Q331 377 320 373T297 365T275 357T257 346Q243 333 231 324T198 315Q192 315 188 319T182 331T179 344T178 356Q178 374 183 390T195 423T209 455T221 488Q224 501 225 518T229 552T238 583T257 606Q261 608 266 610T276 613L506 624Q511 629 517 629Q524 629 530 624T542 610T550 594T553 579Q553 561 537 553T498 541T453 538T419 539Q409 539 392 537T357 530T326 516T313 494Q313 483 323 476T344 468Q358 468 370 473T397 478Q434 478 467 458T527 412Q541 398 551 379T567 339T577 297T580 256Z"  />
<glyph unicode="6" horiz-adv-x="634" d="M580 178Q580 130 549 100T474 53T380 29T295 23Q278 23 262 24T230 27Q191 33 158 55T100 110T61 180T47 257Q47 309 57 349T85 424T130 492T188 563Q205 582 228 600T277 631T331 653T385 662Q420 662 452 647T511 609Q511 604 511 599T512 589Q512 575 508 566T487 556Q470 556 456 565T431 574Q380 574 331 552T242 492T179 407T154 308Q154 297 157 283T164 255T174 227T184 203Q194 222 211 247T249 297T293 339T339 362Q346 364 352 364T366 364Q380 364 397 363T433 358T467 348T496 334Q507 326 517 313T535 288Q554 263 567 237T580 178ZM490 186Q479 197 469 211T448 238T423 259T391 268Q374 268 351 255T308 222T273 180T258 142Q258 131 270 125T298 116T330 111T354 110Q372 110 384 111T406 115T428 123T454 136Q473 146 482 154T490 186Z"  />
<glyph unicode="7" horiz-adv-x="634" d="M576 569Q576 563 575 557T573 544Q573 532 567 523T552 505T533 490T515 477Q505 469 495 463T471 456Q457 456 443 459T415 462Q393 462 386 454T371 427Q364 413 355 395T345 361Q345 347 350 340T365 329T384 326T406 325Q417 325 428 326T450 327Q457 327 467 324T486 316T501 304T507 287Q507 276 503 270T491 261T475 258T458 257Q391 257 333 241Q329 221 325 202T321 162Q321 139 320 115T314 69Q309 49 290 35T250 21Q244 21 239 23T233 34Q233 76 241 115T250 196Q250 209 250 222T252 248Q226 247 199 246T146 245Q134 245 120 246T95 252T76 266T68 292Q68 312 80 329T115 347Q126 347 137 346T159 342L251 330L259 352Q262 361 266 374T275 402T283 429T286 452Q286 457 289 462T292 474Q281 479 261 489T216 511T165 539T119 569T85 599T71 627Q71 634 75 643T85 660T99 673T115 679Q134 679 144 670T163 649T180 623T203 603Q212 598 226 591T257 576T287 563T311 557Q325 557 335 560T354 578Q364 595 374 610T397 638T426 657T465 664Q482 664 497 662T526 647Q532 641 540 632T557 611T570 589T576 569ZM513 569Q513 580 500 587T478 594Q471 594 459 589T435 576T415 559T406 542Q406 541 408 541L410 540Q421 536 433 535T457 533Q466 533 475 534T493 540T507 551T513 569Z"  />
<glyph unicode="8" horiz-adv-x="634" d="M572 118Q572 100 565 88T546 70T520 60T490 57Q462 57 435 55T381 47Q355 42 328 38T275 33Q249 33 222 35T169 37Q161 37 154 35T139 33Q129 33 117 39T93 56T74 78T66 101Q66 110 67 115T74 129Q79 137 91 146T117 165T145 184T168 200Q176 206 192 220T224 250T252 281T264 307Q264 311 261 316Q253 327 242 334T221 351Q202 368 185 385T149 420Q135 432 122 442T109 474Q109 494 118 510T139 542Q152 551 173 564T217 590T262 612T299 621Q301 621 309 624T328 632T349 639T365 643Q381 643 396 641T427 638Q449 638 464 629T489 605T502 571T506 533Q506 518 505 510T495 488Q485 472 481 455T470 421Q464 406 453 393T432 366T413 338T405 305L502 219Q511 211 523 199T546 173T564 145T572 118ZM412 526Q412 535 410 538T397 541Q376 541 352 537T304 524T259 502T225 472L338 380Q347 392 359 410T384 449T404 490T412 526ZM445 136Q442 142 426 159T390 196T352 230T330 245Q323 239 305 225T268 195T233 166T215 148Q213 143 212 139T210 129Q218 124 223 124Q231 124 237 126T251 129Q279 129 306 127T361 125Q381 125 403 127T445 136Z"  />
<glyph unicode="9" horiz-adv-x="634" d="M484 515Q484 495 481 471T464 429Q459 423 454 418T449 404Q449 395 450 386T451 368Q451 334 439 301T413 235T386 168T374 98Q374 87 370 73T359 47T342 27T318 18Q311 18 307 22T300 34T297 48T296 61Q296 73 298 85T300 110Q300 115 300 118T298 127L358 352Q340 363 311 364T249 368T185 382T132 425Q123 438 120 456T117 490Q117 513 120 533T136 573Q149 595 169 614T213 647T263 669T316 677Q341 677 372 670T424 647Q450 625 467 587T484 515ZM391 520Q391 536 383 548T363 568T335 581T306 586Q288 586 272 579T245 559T227 530T220 495Q220 483 236 473T273 457T314 447T345 443Q358 443 367 451T381 471T389 496T391 520Z"  />
<glyph unicode=":" horiz-adv-x="198" d="M161 387Q161 378 155 364T141 345Q135 340 122 333T101 325Q95 325 87 333T73 353T61 375T56 392Q56 401 61 409T75 423T93 433T111 437Q118 437 127 432T143 420T156 403T161 387ZM118 104Q118 85 103 69T68 52Q61 52 52 55T34 65T19 78T13 94Q13 106 13 113T16 125T23 136T36 150Q41 154 48 159T61 164Q67 164 73 164T86 165Q104 165 114 154Q117 142 117 130T118 104Z"  />
<glyph unicode=";" horiz-adv-x="187" d="M156 382Q156 374 150 360T139 342Q133 337 120 334T99 330Q82 330 68 339T47 364L48 363Q46 367 44 372T42 382Q42 405 56 412T90 420Q95 420 106 415T121 403Q123 403 125 404Q127 404 128 404T131 405Q142 405 149 399T156 382ZM126 118Q126 107 121 91T109 58T92 27T75 5Q73 3 65 -1T49 -11Q44 -14 39 -16T27 -26Q25 -28 20 -30T7 -36T-6 -41T-14 -43Q-25 -43 -31 -37T-37 -19L5 26Q9 32 15 42T28 63T40 83T45 98Q45 100 45 102T46 107Q48 125 50 134T63 161V160Q66 165 71 165T82 165Q96 165 104 158T123 139Q126 130 126 118Z"  />
<glyph unicode="&lt;" horiz-adv-x="421" d="M397 210Q397 202 392 197T378 188T361 183T346 181Q304 201 262 214T174 237Q156 241 139 244T104 255Q96 258 90 261T75 267Q67 270 59 272T43 277T30 285T25 302Q25 318 35 324T55 340L76 362Q101 386 130 404T185 446Q193 452 209 465T242 490T276 512T302 522Q310 522 316 518T322 505Q322 495 310 479T279 445T237 407T192 370T152 338T125 317Q157 309 188 301T251 283Q273 277 295 271T339 257Q345 255 354 250T373 239T390 225T397 210Z"  />
<glyph unicode="=" horiz-adv-x="404" d="M391 398Q391 385 370 378T322 368T269 363T234 362Q207 360 180 358T125 356Q104 356 83 358T41 364Q35 369 26 378T16 395Q16 406 24 411T42 416Q47 416 53 420T64 424Q73 424 81 426T99 430Q111 432 122 432T146 432Q164 432 182 431T219 430Q238 430 256 431T294 433Q306 433 318 433T343 432Q347 432 355 429T371 420T385 409T391 398ZM386 285Q386 281 383 272T374 254T363 237T354 228Q345 225 336 225T316 224Q296 219 277 212T238 200Q211 195 184 195T129 196T74 197T19 194Q17 201 15 208T13 223Q13 239 21 246T44 256Q75 262 106 262Q111 262 116 262T127 264Q169 274 209 284T291 299Q305 301 319 303T347 305Q351 305 357 304T370 300T381 293T386 285Z"  />
<glyph unicode="&gt;" horiz-adv-x="421" d="M396 302Q396 301 394 295Q388 278 378 276T353 267L326 252Q294 236 261 227T195 204Q186 200 169 193T133 180T97 168T71 163Q63 163 53 168T43 182Q43 186 49 193T64 207T80 219T93 227Q113 238 134 247T177 264Q206 276 235 287T294 310Q257 333 221 355T148 402Q140 407 127 416T101 436T79 460T70 482Q70 496 81 501T104 507Q114 507 129 502Q161 470 197 446T274 400Q290 392 305 383T335 362Q343 356 350 349T366 337Q376 331 386 323T396 302Z"  />
<glyph unicode="?" horiz-adv-x="346" d="M336 493Q336 464 326 431T297 375Q285 361 265 343T224 306T189 266T174 227V222Q194 221 213 218T243 195Q249 186 249 174Q249 154 235 147T204 140Q197 140 191 139T177 137Q162 137 145 141T113 154T89 176T79 208Q79 218 83 234T94 266T108 297T123 319Q135 332 146 345T170 370Q182 381 194 390T217 412Q228 426 236 444T244 481Q244 510 222 524T173 539L157 537Q140 534 132 531T118 511L107 476Q102 475 98 475T90 474Q66 474 53 488T40 525Q40 553 52 572T83 603T125 620T173 625Q205 625 234 618T286 596T322 555T336 493ZM188 35Q188 16 173 -1T138 -18Q131 -18 122 -14T104 -4T89 9T83 25Q83 37 83 44T86 57T93 68T106 82Q110 86 117 91T131 97Q137 97 143 97T156 98Q174 98 184 87Q187 74 187 61T188 35Z"  />
<glyph unicode="@" horiz-adv-x="968" d="M928 94Q861 -57 765 -130Q659 -212 497 -212Q298 -212 177 -82Q61 43 61 237Q61 434 196 565Q333 696 537 696Q687 696 783 597Q879 499 879 341Q879 202 802 92Q725 -16 627 -16Q530 -16 526 60Q525 82 534 129Q502 92 481 69T447 34Q388 -16 344 -16Q299 -16 274 21Q252 52 252 103Q252 213 338 338Q430 469 533 469Q563 469 583 444T608 384L628 449L710 459L616 142Q603 102 603 68Q603 18 639 18Q715 18 780 119Q845 223 845 345Q845 481 753 576Q663 668 539 668Q348 668 225 538Q105 412 105 227Q105 60 214 -58Q328 -182 503 -182Q784 -182 898 94H928ZM585 369Q585 397 563 419Q540 443 520 443Q444 443 378 321Q320 212 320 118Q320 48 375 48Q446 48 518 165Q585 274 585 369Z"  />
<glyph unicode="A" horiz-adv-x="750" d="M742 0H462V18Q536 18 536 61Q536 80 524 107L473 227H208L156 107Q144 80 144 62Q144 18 223 18V0H6V18Q65 18 103 107L356 696H380L629 107Q650 57 671 39Q695 18 742 18V0ZM454 265L341 539L223 265H454Z"  />
<glyph unicode="B" horiz-adv-x="672" d="M621 184Q621 104 561 52Q503 0 405 0H20V18Q74 18 95 36T116 108V572Q116 625 95 643T20 662V680H365Q465 680 526 634Q589 587 589 513Q589 456 565 422Q541 388 476 353V351Q543 340 582 296T621 184ZM483 503Q483 567 441 605Q394 646 305 646Q284 646 263 643T220 635V377Q244 370 351 370Q412 370 447 408T483 503ZM509 180Q509 249 468 290Q422 336 327 336Q301 336 275 335T220 329V50Q243 45 271 42T333 39Q419 39 466 81Q509 118 509 180Z"  />
<glyph unicode="C" horiz-adv-x="685" d="M652 159Q610 84 545 37Q468 -16 386 -16Q234 -16 133 85Q32 186 32 332Q32 483 138 589Q245 696 389 696Q442 696 481 684Q494 680 506 675T532 662Q554 650 564 650Q575 650 586 663T601 696H618L635 465H611Q601 547 541 604Q483 662 406 662Q293 662 222 567Q154 475 154 328Q154 188 232 104Q305 23 421 23Q540 23 635 169L652 159Z"  />
<glyph unicode="D" horiz-adv-x="737" d="M705 346Q705 197 612 101Q514 0 347 0H20V18Q74 18 95 36T116 108V572Q116 625 95 643T20 662V680H322Q512 680 600 598Q705 500 705 346ZM583 344Q583 471 511 558Q439 646 330 646Q283 646 220 629V50Q259 34 330 34Q438 34 509 117Q583 206 583 344Z"  />
<glyph unicode="E" horiz-adv-x="625" d="M607 191L546 0H20V18Q74 18 95 36T116 108V572Q116 625 95 643T20 662V680H542L550 518H532Q519 583 489 613Q456 646 392 646H220V388H367Q469 388 469 476H487V246H469Q469 354 369 354H220V76Q220 59 232 47T260 34H402Q534 34 583 191H607Z"  />
<glyph unicode="F" horiz-adv-x="552" d="M532 518H514Q501 583 471 613Q438 646 374 646H220V388H323Q425 388 425 476H443V246H425Q425 354 325 354H220V108Q220 55 241 37T316 18V0H20V18Q74 18 95 36T116 108V572Q116 625 95 643T20 662V680H524L532 518Z"  />
<glyph unicode="G" horiz-adv-x="758" d="M726 345Q687 345 672 327T657 260V50Q546 -16 386 -16Q234 -16 133 85Q32 186 32 332Q32 483 138 589Q245 696 389 696Q458 696 516 673Q574 650 576 650Q587 650 598 663T613 696H630L647 465H623Q573 662 406 662Q293 662 222 567Q154 475 154 328Q154 188 232 104Q305 23 421 23Q500 23 553 70V260Q553 284 549 300T534 327T505 341T458 345V363H726V345Z"  />
<glyph unicode="H" horiz-adv-x="751" d="M731 0H435V18Q489 18 510 36T531 108V336H220V108Q220 55 241 37T316 18V0H20V18Q74 18 95 36T116 108V572Q116 625 95 643T20 662V680H316V662Q262 662 241 644T220 572V370H531V572Q531 625 510 643T435 662V680H731V662Q677 662 656 644T635 572V108Q635 55 656 37T731 18V0Z"  />
<glyph unicode="I" horiz-adv-x="342" d="M319 0H23V18Q77 18 98 36T119 108V572Q119 625 98 643T23 662V680H319V662Q265 662 244 644T223 572V108Q223 55 244 37T319 18V0Z"  />
<glyph unicode="J" horiz-adv-x="397" d="M387 662Q333 662 312 644T291 572V218Q291 103 240 44T101 -16Q59 -16 34 3Q4 25 4 62Q4 83 21 97T59 112Q89 112 103 88L122 41Q133 18 153 18Q187 18 187 83V572Q187 625 166 643T91 662V680H387V662Z"  />
<glyph unicode="K" horiz-adv-x="752" d="M761 0H444V18Q492 18 492 54Q492 72 454 110L220 345V108Q220 55 241 37T316 18V0H20V18Q74 18 95 36T116 108V572Q116 625 95 643T20 662V680H316V662Q262 662 241 644T220 572V379L437 575Q483 617 483 638Q483 662 420 662V680H671V661Q648 661 628 657T589 644T550 620T506 583L304 394L580 119Q615 84 639 63T678 34Q706 18 761 18V0Z"  />
<glyph unicode="L" horiz-adv-x="628" d="M610 185L551 0H20V18Q74 18 95 36T116 108V572Q116 625 95 643T20 662V680H316V662Q262 662 241 644T220 572V85Q220 64 231 49T259 34H386Q540 34 590 190L610 185Z"  />
<glyph unicode="M" horiz-adv-x="926" d="M904 0H608V18Q662 18 683 36T704 108V557H700L447 0H426L169 553H162V108Q162 55 183 37T258 18V0H20V18Q74 18 95 36T116 108V572Q116 625 95 643T20 662V680H222L463 158H468L704 680H904V662Q850 662 829 644T808 572V108Q808 55 829 37T904 18V0Z"  />
<glyph unicode="N" horiz-adv-x="739" d="M722 662Q668 662 647 644T626 572V-16H602L163 537H159V108Q159 55 180 37T255 18V0H17V18Q71 18 92 36T113 108V566Q113 587 104 604T80 635T45 655T0 662V680H171L576 183H580V572Q580 625 559 643T484 662V680H722V662Z"  />
<glyph unicode="O" horiz-adv-x="746" d="M714 344Q714 195 615 89Q516 -16 373 -16Q230 -16 131 89Q32 195 32 344Q32 491 131 593Q230 696 373 696Q516 696 615 593Q714 491 714 344ZM592 344Q592 487 535 573Q476 662 373 662Q269 662 210 573Q154 487 154 344Q154 200 210 111Q268 18 373 18Q476 18 535 111Q592 199 592 344Z"  />
<glyph unicode="P" horiz-adv-x="576" d="M544 486Q544 397 480 348Q424 303 341 303Q266 303 220 315V108Q220 55 241 37T316 18V0H20V18Q74 18 95 36T116 108V572Q116 625 95 643T20 662V680H312Q411 680 476 630Q544 576 544 486ZM432 479Q432 549 392 595Q351 642 294 642Q249 642 220 632V353Q269 338 299 338Q363 338 399 379Q432 416 432 479Z"  />
<glyph unicode="Q" horiz-adv-x="738" d="M706 344Q706 223 634 123Q560 19 450 -6Q473 -80 542 -134Q615 -195 702 -195V-213Q576 -213 444 -141Q387 -110 344 -75T272 -2Q169 26 100 128Q32 232 32 344Q32 493 129 593Q226 696 369 696Q512 696 609 593Q706 493 706 344ZM588 344Q588 487 531 573Q472 662 369 662Q265 662 206 573Q150 487 150 344Q150 200 206 111Q264 18 369 18Q475 31 531 115T588 344Z"  />
<glyph unicode="R" horiz-adv-x="691" d="M702 0H508L293 320H220V108Q220 55 241 37T316 18V0H20V18Q74 18 95 36T116 108V572Q116 625 95 643T20 662V680H330Q436 680 498 630Q554 583 554 503Q554 440 513 394T403 330L548 117Q615 18 702 18V0ZM442 499Q442 563 405 603Q368 646 312 646Q252 646 220 633V354H280Q316 354 345 364T396 393T430 439T442 499Z"  />
<glyph unicode="S" horiz-adv-x="560" d="M510 179Q510 97 451 41Q388 -16 283 -16Q232 -16 177 4Q130 22 115 22Q89 22 83 -16H65V214H83Q90 125 153 72Q212 22 291 22Q344 22 381 53Q420 84 420 134Q420 202 326 260L152 360Q58 426 58 513Q58 591 114 644Q169 696 260 696Q296 696 345 680Q348 679 356 676T379 666Q401 658 410 658Q424 658 435 670T447 696H465V459H446Q437 553 389 605T260 658Q207 658 171 622Q138 590 138 549Q138 490 234 432L414 328Q510 260 510 179Z"  />
<glyph unicode="T" horiz-adv-x="590" d="M578 518H560Q547 583 517 613Q484 646 420 646H346V108Q346 55 367 37T442 18V0H146V18Q200 18 221 36T242 108V646H168Q104 646 73 615T28 518H10L18 680H570L578 518Z"  />
<glyph unicode="U" horiz-adv-x="752" d="M743 662Q689 662 668 644T647 572V239Q647 126 584 59Q512 -16 376 -16Q252 -16 180 60Q113 130 113 241V572Q113 625 92 643T17 662V680H313V662Q259 662 238 644T217 572V239Q217 151 270 89Q322 28 409 28Q496 28 550 90Q601 148 601 239V572Q601 625 580 643T505 662V680H743V662Z"  />
<glyph unicode="V" horiz-adv-x="724" d="M721 662Q660 662 614 547L386 -16H360L102 578Q82 624 59 643T0 662V680H278V662Q204 662 204 615Q204 598 218 562L401 139L569 555Q581 583 581 606Q581 662 511 662V680H721V662Z"  />
<glyph unicode="W" horiz-adv-x="946" d="M950 662Q908 662 889 635Q876 621 855 557L660 -16H636L479 415L326 -16H302L98 554Q75 617 60 636Q40 662 0 662V680H252V662Q185 662 185 625Q185 609 202 558L342 163L455 481L429 555Q407 616 392 634Q368 662 323 662V680H588V662Q520 662 520 624Q520 599 535 556L671 163L809 559Q820 595 820 612Q820 662 747 662L748 680H950V662Z"  />
<glyph unicode="X" horiz-adv-x="742" d="M734 0H439V17Q506 18 506 56Q506 76 486 108L360 298L217 114Q190 87 190 60Q190 18 252 18V0H0V18Q41 18 87 46Q132 71 158 107L335 338L168 579Q109 662 24 662V680H343V662Q271 662 271 624Q271 605 291 576L398 418L522 575Q548 610 548 628Q548 662 479 662V680H718V661Q679 662 650 645T587 586L421 377L613 108Q630 84 642 69T663 45Q694 18 734 18V0Z"  />
<glyph unicode="Y" horiz-adv-x="694" d="M695 662Q674 662 657 658T626 643T598 617T569 577L391 294V108Q391 55 412 37T487 18V0H191V18Q245 18 266 36T287 108V283L86 585Q60 624 44 640Q22 662 -16 662V680H280V662Q197 662 199 615Q199 596 217 568L364 332L517 578Q527 594 527 613Q527 662 456 662V680H695V662Z"  />
<glyph unicode="Z" horiz-adv-x="622" d="M598 178L566 0H10V17L448 641H238Q162 641 131 613Q100 586 89 509H71L86 680H597L146 39H421Q446 39 470 49T515 78T552 122T580 178H598Z"  />
<glyph unicode="[" horiz-adv-x="862" d="M516 -66H316V542H516V510H464V-33H516V-66Z"  />
<glyph unicode="\" horiz-adv-x="275" d="M274 -16H227L-1 696H46L274 -16Z"  />
<glyph unicode="]" horiz-adv-x="862" d="M516 -66H316V-33H368V510H316V542H516V-66Z"  />
<glyph unicode="^" horiz-adv-x="496" d="M484 328H421L247 620L72 328H12L232 696H264L484 328Z"  />
<glyph unicode="_" horiz-adv-x="550" d="M550 -146H0V-100H550V-146Z"  />
<glyph unicode="`" horiz-adv-x="201" d="M190 719H162L11 896H137L190 719Z"  />
<glyph unicode="a" horiz-adv-x="445" d="M439 58Q398 -10 332 -10Q307 -10 294 15Q282 34 282 63Q256 41 242 29T223 14Q185 -10 139 -10Q90 -10 61 22T32 105Q32 183 117 232Q150 251 282 298V326Q282 439 201 439Q133 439 133 369Q133 308 92 308Q73 308 61 323T48 362Q48 406 98 438Q147 469 217 469Q365 469 365 347V87Q365 52 388 52Q414 52 439 92V58ZM282 268Q115 209 115 129Q115 96 135 71T183 46Q220 46 282 96V268Z"  />
<glyph unicode="b" horiz-adv-x="506" d="M468 264Q468 153 400 70Q332 -10 235 -10Q135 -10 74 45V550Q74 598 70 607Q65 625 44 625Q35 625 3 617L-4 635L133 696H157V374Q167 393 182 410T219 441Q262 469 301 469Q373 469 420 409Q468 350 468 264ZM381 235Q381 303 345 351Q309 399 259 399Q231 399 202 383T157 343V75Q202 28 252 28Q309 28 345 86Q381 144 381 235Z"  />
<glyph unicode="c" horiz-adv-x="450" d="M421 174Q400 86 351 38T229 -10Q147 -10 89 56Q32 123 32 218Q32 321 95 395Q160 469 249 469Q321 469 364 438Q410 407 410 360Q410 339 393 324T355 309Q333 309 320 324T306 360Q306 435 236 435Q209 435 187 423T148 390T124 339T115 277Q115 184 155 123Q195 60 261 60Q354 60 402 180L421 174Z"  />
<glyph unicode="d" horiz-adv-x="510" d="M511 53L371 -10H347V45Q286 -10 209 -10Q136 -10 84 59Q32 129 32 224Q32 317 97 394Q163 469 252 469Q305 469 347 427V550Q347 598 343 607Q338 625 317 625Q308 625 276 617L269 635L406 696H430V136Q430 91 439 75T472 59Q487 59 505 67L511 53ZM347 314Q347 366 314 402Q282 435 243 435Q192 435 158 383Q124 331 124 250Q124 163 162 101Q201 40 256 40Q308 40 347 87V314Z"  />
<glyph unicode="e" horiz-adv-x="462" d="M435 161Q417 89 359 40Q300 -10 237 -10Q152 -10 92 55Q32 121 32 213Q32 325 89 397Q146 469 238 469Q318 469 371 415Q424 362 424 284H112Q112 189 154 125Q196 60 260 60Q313 60 360 90Q406 121 417 164L435 161ZM320 308Q320 360 288 398Q257 435 212 435Q174 435 145 397Q117 360 112 308H320Z"  />
<glyph unicode="f" horiz-adv-x="292" d="M409 615Q409 576 368 576Q337 576 315 619Q293 662 258 662Q245 662 233 655T211 636T195 609T189 576V459H301V425H189V107Q189 56 203 37T261 18V0H34V18Q78 18 93 39Q106 55 106 107V425H18V459H106V528Q106 597 151 647Q197 696 262 696Q409 696 409 615Z"  />
<glyph unicode="g" horiz-adv-x="500" d="M474 -36Q474 -77 457 -109T408 -164T329 -199T226 -212Q20 -212 20 -118Q20 -83 51 -49Q58 -41 73 -26T113 11Q58 30 58 67Q58 81 64 96T82 124T109 149T143 168Q53 210 53 304Q53 372 106 420Q158 469 237 469Q322 469 355 436H474V398H395Q422 356 422 309Q422 238 368 193Q312 149 228 149Q196 149 167 159Q138 133 138 106Q138 76 191 74L346 67Q474 61 474 -36ZM332 286Q332 353 301 399Q270 445 227 445Q146 445 146 321Q146 289 153 262T173 216T203 185T242 173Q278 173 305 206Q332 239 332 286ZM436 -69Q436 -10 332 -10Q268 -10 220 -7T138 4Q100 -28 100 -74Q100 -107 140 -128Q183 -152 258 -152Q334 -152 389 -126Q436 -100 436 -69Z"  />
<glyph unicode="h" horiz-adv-x="520" d="M506 0H279V18Q323 18 338 39Q351 55 351 107V315Q351 407 284 407Q228 407 167 341V107Q167 56 181 37T239 18V0H12V18Q56 18 71 39Q84 55 84 107V550Q84 598 80 607Q75 625 54 625Q45 625 13 617L6 635L143 696H167V376Q242 469 329 469Q373 469 403 428Q434 388 434 330V107Q434 56 448 37T506 18V0Z"  />
<glyph unicode="i" horiz-adv-x="278" d="M192 650Q192 631 178 618T144 604Q124 604 110 617T96 650Q96 669 110 682T144 696Q164 696 178 683T192 650ZM258 0H31V18Q75 18 90 39Q103 55 103 107V323Q103 371 99 380Q94 398 73 398Q64 398 32 390L25 408L162 469H186V107Q186 56 200 37T258 18V0Z"  />
<glyph unicode="j" horiz-adv-x="278" d="M192 650Q192 631 178 618T144 604Q124 604 110 617T96 650Q96 669 110 682T144 696Q164 696 178 683T192 650ZM186 0Q186 -131 142 -178Q109 -212 19 -212Q-18 -212 -40 -196T-63 -157Q-63 -118 -20 -118Q-2 -118 18 -148Q39 -178 60 -178Q103 -178 103 -100V323Q103 371 99 380Q94 398 73 398Q64 398 32 390L25 408L162 469H186V0Z"  />
<glyph unicode="k" horiz-adv-x="510" d="M525 0H298V18Q328 18 328 41Q328 56 291 102L171 252V107Q171 56 185 37T243 18V0H16V18Q60 18 75 39Q88 55 88 107V550Q88 598 84 607Q79 625 58 625Q49 625 17 617L10 635L147 696H171V261L282 362Q300 379 318 396T336 425Q336 441 300 441V459H490V441Q447 441 414 427Q400 420 380 405T331 366L247 293L383 121Q432 60 460 38Q489 18 525 18V0Z"  />
<glyph unicode="l" horiz-adv-x="277" d="M253 0H26V18Q70 18 85 39Q98 55 98 107V550Q98 598 94 607Q89 625 68 625Q59 625 27 617L20 635L157 696H181V107Q181 56 195 37T253 18V0Z"  />
<glyph unicode="m" horiz-adv-x="805" d="M797 0H570V18Q614 18 629 39Q642 55 642 107V312Q642 351 620 379T567 407Q533 407 499 388T448 342V107Q448 56 462 37T520 18V0H293V18Q337 18 352 39Q365 55 365 107V312Q365 331 359 348T343 379T319 399T290 407Q259 407 225 388T171 342V107Q171 56 185 37T243 18V0H16V18Q60 18 75 39Q88 55 88 107V323Q88 371 84 380Q79 398 58 398Q49 398 17 390L10 408L147 469H171V374Q207 416 248 441Q294 469 331 469Q371 469 405 441Q439 412 447 372Q467 412 516 440Q566 469 611 469Q658 469 691 426Q725 386 725 325V107Q725 56 739 37T797 18V0Z"  />
<glyph unicode="n" horiz-adv-x="518" d="M510 0H283V18Q327 18 342 39Q355 55 355 107V315Q355 407 288 407Q232 407 171 341V107Q171 56 185 37T243 18V0H16V18Q60 18 75 39Q88 55 88 107V323Q88 371 84 380Q79 398 58 398Q49 398 17 390L10 408L147 469H171V376Q246 469 333 469Q377 469 407 428Q438 388 438 330V107Q438 56 452 37T510 18V0Z"  />
<glyph unicode="o" horiz-adv-x="506" d="M474 243Q474 136 411 63Q348 -10 253 -10Q158 -10 95 58Q32 125 32 224Q32 327 95 398Q158 469 253 469Q348 469 411 403Q474 338 474 243ZM381 196Q381 435 233 435Q190 435 157 385Q125 335 125 266Q125 163 163 95Q204 24 269 24Q317 24 349 74Q381 127 381 196Z"  />
<glyph unicode="p" horiz-adv-x="516" d="M484 253Q484 135 429 65Q373 -10 280 -10Q214 -10 168 24V-87Q168 -138 182 -157T240 -176V-194H13V-176Q57 -176 71 -157T85 -87V323Q85 371 81 380Q76 398 55 398Q46 398 14 390L7 408L144 469H168V366Q240 469 320 469Q393 469 438 406Q484 345 484 253ZM392 205Q392 305 361 357Q332 407 283 407Q218 407 168 333V124Q168 82 199 53T280 24Q327 24 359 74Q392 125 392 205Z"  />
<glyph unicode="q" horiz-adv-x="512" d="M503 -194H276V-176Q320 -176 334 -157T348 -87V72Q281 -10 199 -10Q130 -10 81 53Q32 117 32 207Q32 315 98 392Q166 469 260 469Q326 469 348 435L411 469H431V-87Q431 -138 445 -157T503 -176V-194ZM348 348Q348 381 323 406Q294 435 249 435Q195 435 157 382Q119 329 119 255Q119 174 155 117Q191 60 242 60Q278 60 309 79Q338 96 348 116V348Z"  />
<glyph unicode="r" horiz-adv-x="344" d="M353 414Q353 369 305 369Q285 369 267 384Q249 399 236 399Q209 399 169 327V107Q169 56 183 37T241 18V0H14V18Q58 18 73 39Q86 55 86 107V323Q86 371 82 380Q77 398 56 398Q47 398 15 390L8 408L145 469H169V373Q227 469 288 469Q315 469 334 453T353 414Z"  />
<glyph unicode="s" horiz-adv-x="402" d="M367 129Q367 68 325 29T207 -10Q180 -10 139 1Q101 13 93 13Q78 13 72 0H54V159H72Q79 103 120 63Q160 24 209 24Q241 24 263 43T285 90Q285 136 224 170Q168 202 111 231Q50 274 50 341Q50 398 87 433T185 469Q213 469 246 460Q280 451 289 451Q305 451 310 469H328V316H310Q307 369 273 403Q238 439 193 439Q157 439 135 421T112 378Q112 332 178 298Q209 283 239 268T301 237Q367 193 367 129Z"  />
<glyph unicode="t" horiz-adv-x="290" d="M290 97Q258 -10 162 -10Q80 -10 80 97V425H8V449Q55 449 91 497Q127 545 139 617H163V459H274V425H163V97Q163 77 176 63T208 48Q246 48 268 97H290Z"  />
<glyph unicode="u" horiz-adv-x="518" d="M518 53L378 -10H354V86Q331 46 290 18Q250 -10 212 -10Q157 -10 118 32Q80 76 80 133V362Q80 408 65 424T8 441V459H163V133Q163 98 190 74T255 50Q280 50 309 71T354 124V362Q354 408 339 424T282 441V459H437V136Q437 91 446 75T479 59Q494 59 512 67L518 53Z"  />
<glyph unicode="v" horiz-adv-x="494" d="M485 441Q447 441 422 381L259 -10H235L72 371Q54 413 40 427T0 441V459H208V441Q155 441 155 412Q155 393 170 356L270 112L374 366Q387 395 387 422Q387 441 330 441V459H485V441Z"  />
<glyph unicode="w" horiz-adv-x="753" d="M753 441Q709 441 685 416Q666 397 649 348L517 -10H493L374 298L255 -10H231L92 344Q79 378 69 398T52 426Q38 441 0 441V459H200V441Q161 441 161 416Q161 393 179 348L269 124L355 344L345 370Q337 392 316 414Q289 441 256 441V459H488V441Q425 441 425 408Q425 393 442 348L532 124L607 338Q627 398 627 410Q627 441 583 441V459H753V441Z"  />
<glyph unicode="x" horiz-adv-x="503" d="M497 0H272L273 18Q320 18 320 47Q320 58 291 102L225 203L136 88Q119 65 119 44Q119 18 161 18V0H12V18Q41 18 84 76L203 233L111 380Q74 441 8 441V459H224V441Q193 441 192 419Q191 409 211 375L256 304L296 360Q328 407 328 421Q328 441 288 441V459H448V441Q421 441 400 426Q374 408 334 354L275 275L402 87Q448 18 497 18V0Z"  />
<glyph unicode="y" horiz-adv-x="514" d="M497 441Q469 441 456 423Q446 411 426 362L241 -90Q219 -144 180 -178T100 -212Q73 -212 54 -198T33 -163Q31 -112 84 -112Q104 -112 119 -121T150 -130Q181 -130 216 -47L245 23L102 323Q47 441 0 441V459H211V441Q162 441 162 405Q162 393 197 317L286 129L381 363Q395 399 395 413Q395 441 348 441V459H497V441Z"  />
<glyph unicode="z" horiz-adv-x="463" d="M440 441L132 34H327Q367 34 387 49Q414 69 420 146H438L428 0H20V24L322 425H157Q117 425 100 408Q78 386 76 332H58V459H440V441Z"  />
<glyph unicode="{" horiz-adv-x="259" d="M204 -118Q132 -118 107 -88Q83 -60 83 -2V181Q83 226 38 267Q83 306 83 356V536Q83 600 108 625Q135 652 204 652V620Q148 620 133 599Q119 573 119 536V356Q119 320 108 303Q102 295 95 287T79 267Q119 223 119 181V-2Q119 -47 134 -65Q149 -85 204 -85V-118Z"  />
<glyph unicode="|" horiz-adv-x="228" d="M140 -158H82V572H140V-158Z"  />
<glyph unicode="}" horiz-adv-x="259" d="M221 267Q178 221 178 179V-4Q178 -69 150 -94Q120 -118 57 -118V-85Q108 -85 125 -68Q140 -52 140 -4V179Q140 194 144 206T154 229Q158 236 164 245T182 267Q140 298 140 354V534Q140 556 137 572T125 600Q110 620 57 620V652Q129 652 154 621Q178 589 178 534V354Q178 300 221 267Z"  />
<glyph unicode="~" horiz-adv-x="398" d="M360 380Q360 344 326 325Q301 309 261 309Q216 309 167 329L135 345Q115 354 103 354Q62 354 59 318H38Q38 332 45 345Q72 396 139 396Q175 396 226 374Q280 353 301 353Q336 353 338 380H360Z"  />
<glyph unicode="&#xA1;" horiz-adv-x="277" d="M206 453Q206 430 189 414T146 398Q121 398 104 414T86 453Q86 476 103 492T146 509Q171 509 188 493T206 453ZM208 -48Q208 -138 145 -138Q80 -138 80 -48Q80 -29 83 -7T91 41L111 128Q116 157 122 211T134 347H155Q157 321 158 296T162 244Q168 176 177 128Q183 105 195 50Q208 -1 208 -48Z"  />
<glyph unicode="&#xA2;" horiz-adv-x="500" d="M445 175Q400 -10 257 -10Q215 -10 175 11L99 -194H59L142 32Q59 100 59 218Q59 322 123 395Q188 469 277 469Q285 469 291 469T303 468L382 680H422L341 461Q438 436 438 360Q438 339 421 324T383 309Q361 309 348 324T334 360Q334 394 323 411L208 100Q244 64 290 64Q383 64 431 183L445 175ZM290 432Q279 435 264 435Q237 435 215 423T176 390T152 339T143 277Q143 196 180 135L290 432Z"  />
<glyph unicode="&#xA3;" horiz-adv-x="530" d="M501 152Q493 82 457 37Q415 -16 347 -16Q257 -16 180 67Q145 -16 84 -16Q58 -16 39 3T20 51Q20 86 45 109T109 132Q117 132 131 130T151 127Q153 146 154 165T156 207Q156 238 153 272T145 345H42V379H140Q134 439 134 470Q134 565 182 627Q236 696 332 696Q392 696 430 661Q462 629 462 595Q462 579 450 566T422 552Q381 552 380 613Q379 665 317 665Q222 665 222 523Q222 498 225 463T233 379H369L370 345H236L235 297Q234 249 226 205T201 117Q288 76 370 76Q461 76 484 156L501 152ZM147 86Q124 100 101 100Q52 100 52 57Q52 15 85 15Q129 15 147 86Z"  />
<glyph unicode="&#xA4;" horiz-adv-x="530" d="M520 125L490 96L412 171Q354 119 265 119Q176 119 118 171L40 96L10 125L88 200Q33 255 33 341Q33 421 88 482L10 557L40 586L118 511Q176 563 265 563Q354 563 412 511L490 586L520 557L442 482Q497 424 497 341Q497 258 442 200L520 125ZM453 341Q453 416 397 469Q341 522 265 522Q188 522 132 469Q77 417 77 341Q77 264 132 212Q187 160 265 160Q342 160 397 212Q453 265 453 341Z"  />
<glyph unicode="&#xA5;" horiz-adv-x="607" d="M607 662Q518 662 479 577L454 522H552V484H437L391 384H552V346H374L351 295V108Q351 55 371 37T446 18V0H143V18Q171 18 190 22T219 36T234 63T239 108V283L212 346H44V384H195L152 484H44V522H136L108 587Q76 662 0 662V680H296V662Q219 662 219 623Q219 608 233 568L251 522H405L429 578Q438 599 438 616Q438 662 368 662V680H607V662ZM388 484H266L324 337L388 484Z"  />
<glyph unicode="&#xA6;" horiz-adv-x="164" d="M111 494H60V896H111V494ZM111 0H60V367H111V0Z"  />
<glyph unicode="&#xA7;" horiz-adv-x="500" d="M434 237Q434 188 399 138Q369 93 318 67Q385 0 385 -57Q385 -119 341 -166Q298 -212 232 -212Q181 -212 141 -179Q101 -146 101 -98Q101 -81 113 -68T142 -54Q180 -54 180 -99Q180 -109 176 -126T172 -153Q172 -188 236 -188Q271 -188 299 -160Q329 -133 329 -102Q329 -48 259 10L130 115Q60 181 60 250Q60 358 176 423Q110 487 110 549Q110 611 153 653Q196 696 261 696Q316 696 353 665Q393 631 393 582Q393 565 381 552T352 538Q335 538 323 549T310 577Q310 585 314 601T318 626Q318 672 261 672Q222 672 194 648T166 588Q166 534 235 476L365 375Q434 310 434 237ZM380 190Q380 250 311 312L193 407Q114 364 114 294Q114 236 184 175L301 82Q380 124 380 190Z"  />
<glyph unicode="&#xA8;" horiz-adv-x="285" d="M107 800Q107 781 93 768T59 754Q39 754 25 767T11 800Q11 819 25 832T59 846Q79 846 93 833T107 800ZM283 800Q283 781 269 768T235 754Q215 754 201 767T187 800Q187 819 201 832T235 846Q255 846 269 833T283 800Z"  />
<glyph unicode="&#xA9;" horiz-adv-x="760" d="M737 341Q737 193 632 88Q528 -16 380 -16Q234 -16 127 88Q23 195 23 341Q23 488 127 592Q234 696 380 696Q528 696 632 592Q737 488 737 341ZM706 341Q706 475 610 570Q515 665 380 665Q247 665 149 570Q54 475 54 341Q54 206 150 110Q248 15 380 15Q516 15 610 109Q706 203 706 341ZM576 216Q506 113 380 113Q284 113 217 177Q149 242 149 335Q149 442 216 506Q284 571 391 571Q428 571 482 552L500 547Q518 547 526 571H544L554 429H536Q522 484 482 515T385 547Q233 547 233 353Q233 147 401 147Q506 147 556 227L576 216Z"  />
<glyph unicode="&#xAA;" horiz-adv-x="320" d="M309 431Q260 394 231 394Q199 394 192 440Q128 394 80 394Q54 394 33 413T12 459Q12 533 192 592Q193 628 185 650Q173 677 136 677Q90 677 90 635Q90 594 58 594Q26 594 26 624Q26 663 69 681Q100 696 150 696Q265 696 265 601V461Q265 438 280 437Q280 437 309 454V431ZM192 569Q85 539 85 481Q85 463 98 450T131 437Q146 437 162 446T192 464V569Z"  />
<glyph unicode="&#xAB;" horiz-adv-x="528" d="M478 0H447L248 230L447 459H478L350 230L478 0ZM280 0H249L50 230L249 459H280L152 230L280 0Z"  />
<glyph unicode="&#xAC;" horiz-adv-x="605" d="M585 459V253H541V415H20V459H585Z"  />
<glyph unicode="&#xAE;" horiz-adv-x="760" d="M737 341Q737 193 632 88Q528 -16 380 -16Q234 -16 127 88Q23 195 23 341Q23 488 127 592Q234 696 380 696Q528 696 632 592Q737 488 737 341ZM706 341Q706 475 610 570Q515 665 380 665Q247 665 149 570Q54 475 54 341Q54 206 150 110Q248 15 380 15Q516 15 610 109Q706 203 706 341ZM612 127H511L356 330H316V213Q316 145 379 145V127H186V145Q241 145 241 213V487Q241 521 232 533T192 546V564H382Q454 564 501 538Q552 509 552 452Q552 366 435 339L537 200Q549 183 558 173T572 157Q585 145 612 145V127ZM466 445Q466 487 436 514T361 542Q338 542 316 534V353H326Q466 353 466 445Z"  />
<glyph unicode="&#xAF;" horiz-adv-x="454" d="M360 516H107V543H360V516Z"  />
<glyph unicode="&#xB0;" horiz-adv-x="400" d="M360 543Q360 480 313 433Q267 387 201 387Q131 387 85 433Q37 479 37 544Q37 607 84 651Q132 696 198 696Q264 696 312 651Q360 606 360 543ZM314 543Q314 589 279 622Q244 655 198 655Q151 655 117 622Q83 589 83 544Q83 496 117 462Q151 428 201 428Q250 428 281 462Q314 496 314 543Z"  />
<glyph unicode="&#xB1;" horiz-adv-x="568" d="M518 476H325V301H237V476H44V558H237V734H325V558H518V476ZM496 175H66V256H496V175Z"  />
<glyph unicode="&#xB2;" horiz-adv-x="306" d="M254 440Q254 425 251 414T240 390Q236 382 234 376T228 363T221 352T207 343Q216 321 220 299T234 254Q236 250 242 243T248 231Q248 228 248 225T251 218Q246 217 241 216T230 214Q222 214 215 218Q199 238 190 262T166 307Q148 304 131 298T96 292Q76 292 60 304Q57 307 52 321T47 342V343Q49 363 65 380T98 405Q100 406 104 407T110 409Q124 409 140 406T168 395Q172 391 175 387T185 382Q187 392 197 401T207 423Q207 435 201 450T185 473Q176 481 165 484T141 488Q132 488 122 487T102 481Q100 479 97 476T90 473L82 475Q78 482 77 487T76 501Q76 505 76 508T79 514Q90 529 110 538T149 547Q154 547 158 546T168 544Q189 540 203 533T235 511Q250 498 252 478T254 440ZM133 348Q133 352 126 357T114 363Q109 363 104 359T98 349Q98 343 103 341T113 338Q117 338 125 340T133 348Z"  />
<glyph unicode="&#xB3;" horiz-adv-x="306" d="M300 320Q300 305 290 289T264 259T232 233T202 217Q187 213 171 213Q162 213 152 214T133 215Q110 215 87 219T45 239Q9 270 9 319Q9 324 12 334T19 353T30 370T42 377Q49 377 55 374T64 364Q59 350 59 333Q59 294 84 274T145 251H146Q152 250 163 252T187 259T210 269T225 278Q233 286 242 298T251 323Q251 334 243 340T224 350T200 355T180 356Q161 356 148 348T121 340Q113 340 104 347T95 363Q95 373 101 380T116 393Q127 398 137 401T156 407T172 418T186 438Q189 446 192 455T195 472Q195 485 188 489T169 494Q151 494 136 484T103 474Q96 474 94 481T92 493Q92 500 95 508Q96 511 106 517T129 530T153 543T169 550Q172 551 175 551T182 551Q219 551 232 532T245 478Q245 460 239 441T222 406Q231 404 247 401T271 392Q277 387 282 378T291 359T297 338T300 320Z"  />
<glyph unicode="&#xB4;" horiz-adv-x="201" d="M190 896L39 719H11L64 896H190Z"  />
<glyph unicode="&#xB5;" horiz-adv-x="525" d="M519 101Q517 53 492 20Q463 -16 415 -16Q338 -16 332 80Q249 -16 166 -16Q115 -16 87 24H85Q85 -31 95 -81Q100 -110 103 -128T106 -155Q106 -212 64 -212Q19 -212 19 -154Q19 -145 22 -125T33 -72Q48 -8 48 68V459H131V178Q131 46 209 46Q273 46 332 114V459H415V122Q415 96 424 71Q434 38 453 38Q490 38 496 101H519Z"  />
<glyph unicode="&#xB6;" horiz-adv-x="539" d="M442 -194H404V668H306V-194H268V315Q215 315 172 325T97 357T48 415T30 503Q30 594 83 645T252 696H512V668H442V-194Z"  />
<glyph unicode="&#xB7;" horiz-adv-x="190" d="M137 238Q137 220 125 208T95 196Q78 196 66 208T53 238Q53 255 65 267T95 279Q113 279 125 267T137 238Z"  />
<glyph unicode="&#xB8;" horiz-adv-x="346" d="M262 -91Q262 -150 181 -150Q146 -150 98 -137L97 -106Q151 -118 180 -118Q215 -118 215 -93Q215 -61 156 -67V-6H181V-37Q262 -37 262 -91Z"  />
<glyph unicode="&#xB9;" horiz-adv-x="306" d="M228 526Q228 508 226 491T221 457Q219 444 216 432T210 405Q198 349 198 292Q198 286 199 280T200 267Q200 262 199 255T196 241T189 229T178 224Q166 224 162 235T157 256Q157 261 158 265Q162 282 162 305Q162 323 160 341T153 376Q148 368 138 353T115 321T90 293T68 281Q56 281 52 288T47 306Q47 310 47 315T50 325Q56 333 71 353T103 395T131 437T146 465Q152 491 160 511T175 556Q179 564 182 575T197 586Q207 586 213 580T223 564T227 544T228 526Z"  />
<glyph unicode="&#xBA;" horiz-adv-x="329" d="M318 547Q318 486 272 440Q226 394 164 394Q99 394 55 435Q12 475 12 539Q12 607 56 651Q99 696 170 696Q234 696 276 652Q318 608 318 547ZM245 515Q245 566 224 613Q197 671 150 671Q85 671 85 575Q85 524 104 480Q129 419 173 419Q245 419 245 515Z"  />
<glyph unicode="&#xBB;" horiz-adv-x="528" d="M478 230L279 0H248L376 230L248 459H279L478 230ZM280 230L81 0H50L178 230L50 459H81L280 230Z"  />
<glyph unicode="&#xBC;" horiz-adv-x="674" d="M655 137Q655 128 648 121T632 114Q623 114 614 117T595 121Q581 121 577 109T572 84Q572 76 570 70T567 56Q567 51 568 47T569 39Q569 33 565 23T553 13Q546 13 538 25T530 45Q529 59 529 74T529 105Q529 111 529 117T531 130Q524 134 516 136T499 139Q493 139 488 138T476 137Q462 137 447 143T418 150Q406 150 395 148T372 146Q361 146 347 152T333 172Q333 179 334 185T342 196Q350 202 361 203T384 206T408 208T431 214Q459 230 479 255T518 305Q524 315 532 325T553 336Q560 336 566 332T578 320T587 306T590 291Q590 266 588 241T585 189Q585 175 592 166T615 157Q619 157 626 156T639 153T650 146T655 137ZM541 272Q536 265 528 258T513 243Q484 214 456 189Q484 184 508 184Q513 184 521 181T536 175L541 272ZM189 526Q189 508 187 491T182 457Q180 444 177 432T171 405Q159 349 159 292Q159 286 160 280T161 267Q161 262 160 255T157 241T150 229T139 224Q127 224 123 235T118 256Q118 261 119 265Q123 282 123 305Q123 323 121 341T114 376Q109 368 99 353T76 321T51 293T29 281Q17 281 13 288T8 306Q8 310 8 315T11 325Q17 333 32 353T64 395T92 437T107 465Q113 491 121 511T136 556Q140 564 143 575T158 586Q168 586 174 580T184 564T188 544T189 526ZM500 620Q500 603 496 587T486 553Q453 455 400 366T291 189Q271 159 246 123T192 51T132 -13T68 -59L43 -22Q80 34 120 88T199 198T274 309T341 427Q360 466 373 507T407 587Q421 613 440 633T492 653H495Q500 635 500 620Z"  />
<glyph unicode="&#xBD;" horiz-adv-x="654" d="M635 211Q635 196 632 185T621 161Q617 153 615 147T609 134T602 123T588 114Q597 92 601 70T615 25Q617 21 623 14T629 2Q629 -1 629 -4T632 -11Q627 -12 622 -13T611 -15Q603 -15 596 -11Q580 9 571 33T547 78Q529 75 512 69T477 63Q457 63 441 75Q438 78 433 92T428 113V114Q430 134 446 151T479 176Q481 177 485 178T491 180Q505 180 521 177T549 166Q553 162 556 158T566 153Q568 163 578 172T588 194Q588 206 582 221T566 244Q557 252 546 255T522 259Q513 259 503 258T483 252Q481 250 478 247T471 244L463 246Q459 253 458 258T457 272Q457 276 457 279T460 285Q471 300 491 309T530 318Q535 318 539 317T549 315Q570 311 584 304T616 282Q631 269 633 249T635 211ZM514 119Q514 123 507 128T495 134Q490 134 485 130T479 120Q479 114 484 112T494 109Q498 109 506 111T514 119ZM526 620Q526 603 522 587T512 553Q479 455 426 366T317 189Q297 159 272 123T218 51T158 -13T94 -59L69 -22Q106 34 146 88T225 198T300 309T367 427Q386 466 399 507T433 587Q447 613 466 633T518 653H521Q526 635 526 620ZM189 526Q189 508 187 491T182 457Q180 444 177 432T171 405Q159 349 159 292Q159 286 160 280T161 267Q161 262 160 255T157 241T150 229T139 224Q127 224 123 235T118 256Q118 261 119 265Q123 282 123 305Q123 323 121 341T114 376Q109 368 99 353T76 321T51 293T29 281Q17 281 13 288T8 306Q8 310 8 315T11 325Q17 333 32 353T64 395T92 437T107 465Q113 491 121 511T136 556Q140 564 143 575T158 586Q168 586 174 580T184 564T188 544T189 526Z"  />
<glyph unicode="&#xBE;" horiz-adv-x="711" d="M692 137Q692 128 685 121T669 114Q660 114 651 117T632 121Q618 121 614 109T609 84Q609 76 607 70T604 56Q604 51 605 47T606 39Q606 33 602 23T590 13Q583 13 575 25T567 45Q566 59 566 74T566 105Q566 111 566 117T568 130Q561 134 553 136T536 139Q530 139 525 138T513 137Q499 137 484 143T455 150Q443 150 432 148T409 146Q398 146 384 152T370 172Q370 179 371 185T379 196Q387 202 398 203T421 206T445 208T468 214Q496 230 516 255T555 305Q561 315 569 325T590 336Q597 336 603 332T615 320T624 306T627 291Q627 266 625 241T622 189Q622 175 629 166T652 157Q656 157 663 156T676 153T687 146T692 137ZM578 272Q573 265 565 258T550 243Q521 214 493 189Q521 184 545 184Q550 184 558 181T573 175L578 272ZM557 620Q557 603 553 587T543 553Q510 455 457 366T348 189Q328 159 303 123T249 51T189 -13T125 -59L100 -22Q137 34 177 88T256 198T331 309T398 427Q417 466 430 507T464 587Q478 613 497 633T549 653H552Q557 635 557 620ZM299 320Q299 305 289 289T263 259T231 233T201 217Q186 213 170 213Q161 213 151 214T132 215Q109 215 86 219T44 239Q8 270 8 319Q8 324 11 334T18 353T29 370T41 377Q48 377 54 374T63 364Q58 350 58 333Q58 294 83 274T144 251H145Q151 250 162 252T186 259T209 269T224 278Q232 286 241 298T250 323Q250 334 242 340T223 350T199 355T179 356Q160 356 147 348T120 340Q112 340 103 347T94 363Q94 373 100 380T115 393Q126 398 136 401T155 407T171 418T185 438Q188 446 191 455T194 472Q194 485 187 489T168 494Q150 494 135 484T102 474Q95 474 93 481T91 493Q91 500 94 508Q95 511 105 517T128 530T152 543T168 550Q171 551 174 551T181 551Q218 551 231 532T244 478Q244 460 238 441T221 406Q230 404 246 401T270 392Q276 387 281 378T290 359T296 338T299 320Z"  />
<glyph unicode="&#xBF;" horiz-adv-x="431" d="M259 642Q259 620 243 604T203 588Q180 588 164 604T147 642Q147 664 163 680T203 696Q226 696 242 680T259 642ZM406 146Q406 108 392 78T353 27T293 -5T215 -16Q144 -16 92 21Q32 63 32 137Q32 168 48 187T88 206Q125 206 127 164Q128 152 111 120Q95 95 95 78Q95 53 123 38T189 22Q302 22 302 153Q302 209 273 272L220 378Q191 448 191 521H215Q215 457 265 389L356 275Q406 207 406 146Z"  />
<glyph unicode="&#xC0;" horiz-adv-x="750" d="M742 0H462V18Q536 18 536 61Q536 80 524 107L473 227H208L156 107Q144 80 144 62Q144 18 223 18V0H6V18Q65 18 103 107L356 696H380L629 107Q650 57 671 39Q695 18 742 18V0ZM454 265L341 539L223 265H454ZM470 719H442L291 896H417L470 719Z"  />
<glyph unicode="&#xC1;" horiz-adv-x="750" d="M742 0H462V18Q536 18 536 61Q536 80 524 107L473 227H208L156 107Q144 80 144 62Q144 18 223 18V0H6V18Q65 18 103 107L356 696H380L629 107Q650 57 671 39Q695 18 742 18V0ZM454 265L341 539L223 265H454ZM440 896L289 719H261L314 896H440Z"  />
<glyph unicode="&#xC2;" horiz-adv-x="750" d="M516 739H499L368 846L237 739H220L320 906H416L516 739ZM742 0H462V18Q536 18 536 61Q536 80 524 107L473 227H208L156 107Q144 80 144 62Q144 18 223 18V0H6V18Q65 18 103 107L356 696H380L629 107Q650 57 671 39Q695 18 742 18V0ZM454 265L341 539L223 265H454Z"  />
<glyph unicode="&#xC3;" horiz-adv-x="750" d="M742 0H462V18Q536 18 536 61Q536 80 524 107L473 227H208L156 107Q144 80 144 62Q144 18 223 18V0H6V18Q65 18 103 107L356 696H380L629 107Q650 57 671 39Q695 18 742 18V0ZM454 265L341 539L223 265H454ZM536 830Q536 794 503 775Q475 759 437 759Q392 759 343 779Q335 783 328 787T312 795Q292 804 279 804Q238 804 235 768H214Q214 781 222 795Q249 846 315 846Q352 846 403 824Q457 803 477 803Q512 803 514 830H536Z"  />
<glyph unicode="&#xC4;" horiz-adv-x="750" d="M742 0H462V18Q536 18 536 61Q536 80 524 107L473 227H208L156 107Q144 80 144 62Q144 18 223 18V0H6V18Q65 18 103 107L356 696H380L629 107Q650 57 671 39Q695 18 742 18V0ZM454 265L341 539L223 265H454ZM325 800Q325 781 311 768T277 754Q257 754 243 767T229 800Q229 819 243 832T277 846Q297 846 311 833T325 800ZM501 800Q501 781 487 768T453 754Q433 754 419 767T405 800Q405 819 419 832T453 846Q473 846 487 833T501 800Z"  />
<glyph unicode="&#xC5;" horiz-adv-x="750" d="M742 0H462V18Q536 18 536 61Q536 80 524 107L473 227H208L156 107Q144 80 144 62Q144 18 223 18V0H6V18Q65 18 103 107L356 696H380L629 107Q650 57 671 39Q695 18 742 18V0ZM454 265L341 539L223 265H454ZM431 807Q431 781 413 763T369 745Q343 745 325 763T307 807Q307 832 325 850T369 868Q395 868 413 850T431 807ZM402 807Q402 820 392 830T369 840Q336 840 336 807Q336 774 369 774Q382 774 392 783T402 807Z"  />
<glyph unicode="&#xC6;" horiz-adv-x="1065" d="M1047 191L986 0H460V18Q514 18 535 36T556 108V227H268L176 107Q159 84 159 65Q159 18 243 18V0H6V18Q54 18 123 107L536 643Q517 662 460 662V680H982L990 518H972Q959 583 929 613Q896 646 832 646H660V388H807Q909 388 909 476H927V246H909Q909 354 809 354H660V76Q660 59 672 47T700 34H842Q974 34 1023 191H1047ZM556 265V572Q556 580 556 586T555 598L293 265H556Z"  />
<glyph unicode="&#xC7;" horiz-adv-x="685" d="M652 159Q610 84 545 37Q468 -16 386 -16Q234 -16 133 85Q32 186 32 332Q32 483 138 589Q245 696 389 696Q442 696 481 684Q494 680 506 675T532 662Q554 650 564 650Q575 650 586 663T601 696H618L635 465H611Q601 547 541 604Q483 662 406 662Q293 662 222 567Q154 475 154 328Q154 188 232 104Q305 23 421 23Q540 23 635 169L652 159ZM472 -91Q472 -150 391 -150Q356 -150 308 -137L307 -106Q361 -118 390 -118Q425 -118 425 -93Q425 -61 366 -67V-6H391V-37Q472 -37 472 -91Z"  />
<glyph unicode="&#xC8;" horiz-adv-x="625" d="M607 191L546 0H20V18Q74 18 95 36T116 108V572Q116 625 95 643T20 662V680H542L550 518H532Q519 583 489 613Q456 646 392 646H220V388H367Q469 388 469 476H487V246H469Q469 354 369 354H220V76Q220 59 232 47T260 34H402Q534 34 583 191H607ZM390 719H362L211 896H337L390 719Z"  />
<glyph unicode="&#xC9;" horiz-adv-x="625" d="M607 191L546 0H20V18Q74 18 95 36T116 108V572Q116 625 95 643T20 662V680H542L550 518H532Q519 583 489 613Q456 646 392 646H220V388H367Q469 388 469 476H487V246H469Q469 354 369 354H220V76Q220 59 232 47T260 34H402Q534 34 583 191H607ZM448 896L297 719H269L322 896H448Z"  />
<glyph unicode="&#xCA;" horiz-adv-x="625" d="M607 191L546 0H20V18Q74 18 95 36T116 108V572Q116 625 95 643T20 662V680H542L550 518H532Q519 583 489 613Q456 646 392 646H220V388H367Q469 388 469 476H487V246H469Q469 354 369 354H220V76Q220 59 232 47T260 34H402Q534 34 583 191H607ZM456 739H439L308 846L177 739H160L260 906H356L456 739Z"  />
<glyph unicode="&#xCB;" horiz-adv-x="625" d="M607 191L546 0H20V18Q74 18 95 36T116 108V572Q116 625 95 643T20 662V680H542L550 518H532Q519 583 489 613Q456 646 392 646H220V388H367Q469 388 469 476H487V246H469Q469 354 369 354H220V76Q220 59 232 47T260 34H402Q534 34 583 191H607ZM277 800Q277 781 263 768T229 754Q209 754 195 767T181 800Q181 819 195 832T229 846Q249 846 263 833T277 800ZM453 800Q453 781 439 768T405 754Q385 754 371 767T357 800Q357 819 371 832T405 846Q425 846 439 833T453 800Z"  />
<glyph unicode="&#xCC;" horiz-adv-x="342" d="M319 0H23V18Q77 18 98 36T119 108V572Q119 625 98 643T23 662V680H319V662Q265 662 244 644T223 572V108Q223 55 244 37T319 18V0ZM230 719H202L51 896H177L230 719Z"  />
<glyph unicode="&#xCD;" horiz-adv-x="342" d="M319 0H23V18Q77 18 98 36T119 108V572Q119 625 98 643T23 662V680H319V662Q265 662 244 644T223 572V108Q223 55 244 37T319 18V0ZM270 896L119 719H91L144 896H270Z"  />
<glyph unicode="&#xCE;" horiz-adv-x="342" d="M319 0H23V18Q77 18 98 36T119 108V572Q119 625 98 643T23 662V680H319V662Q265 662 244 644T223 572V108Q223 55 244 37T319 18V0ZM319 739H302L171 846L40 739H23L123 906H219L319 739Z"  />
<glyph unicode="&#xCF;" horiz-adv-x="342" d="M319 0H23V18Q77 18 98 36T119 108V572Q119 625 98 643T23 662V680H319V662Q265 662 244 644T223 572V108Q223 55 244 37T319 18V0ZM133 800Q133 781 119 768T85 754Q65 754 51 767T37 800Q37 819 51 832T85 846Q105 846 119 833T133 800ZM309 800Q309 781 295 768T261 754Q241 754 227 767T213 800Q213 819 227 832T261 846Q281 846 295 833T309 800Z"  />
<glyph unicode="&#xD1;" horiz-adv-x="739" d="M722 662Q668 662 647 644T626 572V-16H602L163 537H159V108Q159 55 180 37T255 18V0H17V18Q71 18 92 36T113 108V566Q113 587 104 604T80 635T45 655T0 662V680H171L576 183H580V572Q580 625 559 643T484 662V680H722V662ZM516 830Q516 794 483 775Q455 759 417 759Q372 759 323 779Q315 783 308 787T292 795Q272 804 259 804Q218 804 215 768H194Q194 781 202 795Q229 846 295 846Q332 846 383 824Q437 803 457 803Q492 803 494 830H516Z"  />
<glyph unicode="&#xD2;" horiz-adv-x="506" d="M474 243Q474 136 411 63Q348 -10 253 -10Q158 -10 95 58Q32 125 32 224Q32 327 95 398Q158 469 253 469Q348 469 411 403Q474 338 474 243ZM381 196Q381 435 233 435Q190 435 157 385Q125 335 125 266Q125 163 163 95Q204 24 269 24Q317 24 349 74Q381 127 381 196ZM330 524H302L151 701H277L330 524Z"  />
<glyph unicode="&#xD3;" horiz-adv-x="506" d="M474 243Q474 136 411 63Q348 -10 253 -10Q158 -10 95 58Q32 125 32 224Q32 327 95 398Q158 469 253 469Q348 469 411 403Q474 338 474 243ZM381 196Q381 435 233 435Q190 435 157 385Q125 335 125 266Q125 163 163 95Q204 24 269 24Q317 24 349 74Q381 127 381 196ZM330 701L179 524H151L204 701H330Z"  />
<glyph unicode="&#xD4;" horiz-adv-x="506" d="M474 243Q474 136 411 63Q348 -10 253 -10Q158 -10 95 58Q32 125 32 224Q32 327 95 398Q158 469 253 469Q348 469 411 403Q474 338 474 243ZM381 196Q381 435 233 435Q190 435 157 385Q125 335 125 266Q125 163 163 95Q204 24 269 24Q317 24 349 74Q381 127 381 196ZM406 544H389L258 651L127 544H110L210 711H306L406 544Z"  />
<glyph unicode="&#xD5;" horiz-adv-x="746" d="M714 344Q714 195 615 89Q516 -16 373 -16Q230 -16 131 89Q32 195 32 344Q32 491 131 593Q230 696 373 696Q516 696 615 593Q714 491 714 344ZM592 344Q592 487 535 573Q476 662 373 662Q269 662 210 573Q154 487 154 344Q154 200 210 111Q268 18 373 18Q476 18 535 111Q592 199 592 344ZM532 830Q532 794 499 775Q471 759 433 759Q388 759 339 779Q331 783 324 787T308 795Q288 804 275 804Q234 804 231 768H210Q210 781 218 795Q245 846 311 846Q348 846 399 824Q453 803 473 803Q508 803 510 830H532Z"  />
<glyph unicode="&#xD6;" horiz-adv-x="746" d="M714 344Q714 195 615 89Q516 -16 373 -16Q230 -16 131 89Q32 195 32 344Q32 491 131 593Q230 696 373 696Q516 696 615 593Q714 491 714 344ZM592 344Q592 487 535 573Q476 662 373 662Q269 662 210 573Q154 487 154 344Q154 200 210 111Q268 18 373 18Q476 18 535 111Q592 199 592 344ZM340 800Q340 781 326 768T292 754Q272 754 258 767T244 800Q244 819 258 832T292 846Q312 846 326 833T340 800ZM516 800Q516 781 502 768T468 754Q448 754 434 767T420 800Q420 819 434 832T468 846Q488 846 502 833T516 800Z"  />
<glyph unicode="&#xD7;" horiz-adv-x="581" d="M549 57L493 6L290 192L89 6L33 57L234 243L33 427L89 479L290 293L493 479L549 427L347 243L549 57Z"  />
<glyph unicode="&#xD8;" horiz-adv-x="746" d="M714 344Q714 195 615 89Q516 -16 373 -16Q301 -16 232 16L187 -84L161 -73L207 29Q127 76 79 160Q32 246 32 344Q32 491 131 593Q230 696 373 696Q438 696 494 674L540 776L565 765L520 663Q608 619 661 534Q714 448 714 344ZM592 344Q592 533 499 616L252 61Q301 18 373 18Q476 18 535 110Q592 198 592 344ZM476 633Q429 662 373 662Q268 662 209 573Q154 488 154 344Q154 170 230 82L476 633Z"  />
<glyph unicode="&#xD9;" horiz-adv-x="518" d="M518 53L378 -10H354V86Q331 46 290 18Q250 -10 212 -10Q157 -10 118 32Q80 76 80 133V362Q80 408 65 424T8 441V459H163V133Q163 98 190 74T255 50Q280 50 309 71T354 124V362Q354 408 339 424T282 441V459H437V136Q437 91 446 75T479 59Q494 59 512 67L518 53ZM300 524H272L121 701H247L300 524Z"  />
<glyph unicode="&#xDA;" horiz-adv-x="518" d="M518 53L378 -10H354V86Q331 46 290 18Q250 -10 212 -10Q157 -10 118 32Q80 76 80 133V362Q80 408 65 424T8 441V459H163V133Q163 98 190 74T255 50Q280 50 309 71T354 124V362Q354 408 339 424T282 441V459H437V136Q437 91 446 75T479 59Q494 59 512 67L518 53ZM323 701L172 524H144L197 701H323Z"  />
<glyph unicode="&#xDB;" horiz-adv-x="518" d="M518 53L378 -10H354V86Q331 46 290 18Q250 -10 212 -10Q157 -10 118 32Q80 76 80 133V362Q80 408 65 424T8 441V459H163V133Q163 98 190 74T255 50Q280 50 309 71T354 124V362Q354 408 339 424T282 441V459H437V136Q437 91 446 75T479 59Q494 59 512 67L518 53ZM396 544H379L248 651L117 544H100L200 711H296L396 544Z"  />
<glyph unicode="&#xDC;" horiz-adv-x="752" d="M743 662Q689 662 668 644T647 572V239Q647 126 584 59Q512 -16 376 -16Q252 -16 180 60Q113 130 113 241V572Q113 625 92 643T17 662V680H313V662Q259 662 238 644T217 572V239Q217 151 270 89Q322 28 409 28Q496 28 550 90Q601 148 601 239V572Q601 625 580 643T505 662V680H743V662ZM347 800Q347 781 333 768T299 754Q279 754 265 767T251 800Q251 819 265 832T299 846Q319 846 333 833T347 800ZM523 800Q523 781 509 768T475 754Q455 754 441 767T427 800Q427 819 441 832T475 846Q495 846 509 833T523 800Z"  />
<glyph unicode="&#xDF;" horiz-adv-x="590" d="M548 185Q548 107 498 48Q448 -11 371 -11Q333 -11 304 6Q272 27 272 64Q272 84 284 98T316 112Q334 112 345 101T361 50Q364 20 391 20Q454 20 454 163Q454 252 397 308Q354 350 275 356V385Q338 399 354 411Q395 441 395 516Q395 572 376 609Q350 657 302 657Q217 657 217 532V0H27V19Q75 19 92 31Q120 50 120 104V455Q120 512 156 592Q197 684 308 684Q382 684 429 648Q481 608 481 536Q481 476 444 435T346 378Q424 358 463 329Q548 265 548 185Z"  />
<glyph unicode="&#xE0;" horiz-adv-x="445" d="M439 58Q398 -10 332 -10Q307 -10 294 15Q282 34 282 63Q256 41 242 29T223 14Q185 -10 139 -10Q90 -10 61 22T32 105Q32 183 117 232Q150 251 282 298V326Q282 439 201 439Q133 439 133 369Q133 308 92 308Q73 308 61 323T48 362Q48 406 98 438Q147 469 217 469Q365 469 365 347V87Q365 52 388 52Q414 52 439 92V58ZM282 268Q115 209 115 129Q115 96 135 71T183 46Q220 46 282 96V268ZM260 524H232L81 701H207L260 524Z"  />
<glyph unicode="&#xE1;" horiz-adv-x="445" d="M439 58Q398 -10 332 -10Q307 -10 294 15Q282 34 282 63Q256 41 242 29T223 14Q185 -10 139 -10Q90 -10 61 22T32 105Q32 183 117 232Q150 251 282 298V326Q282 439 201 439Q133 439 133 369Q133 308 92 308Q73 308 61 323T48 362Q48 406 98 438Q147 469 217 469Q365 469 365 347V87Q365 52 388 52Q414 52 439 92V58ZM282 268Q115 209 115 129Q115 96 135 71T183 46Q220 46 282 96V268ZM310 701L159 524H131L184 701H310Z"  />
<glyph unicode="&#xE2;" horiz-adv-x="445" d="M439 58Q398 -10 332 -10Q307 -10 294 15Q282 34 282 63Q256 41 242 29T223 14Q185 -10 139 -10Q90 -10 61 22T32 105Q32 183 117 232Q150 251 282 298V326Q282 439 201 439Q133 439 133 369Q133 308 92 308Q73 308 61 323T48 362Q48 406 98 438Q147 469 217 469Q365 469 365 347V87Q365 52 388 52Q414 52 439 92V58ZM282 268Q115 209 115 129Q115 96 135 71T183 46Q220 46 282 96V268ZM366 544H349L218 651L87 544H70L170 711H266L366 544Z"  />
<glyph unicode="&#xE3;" horiz-adv-x="445" d="M439 58Q398 -10 332 -10Q307 -10 294 15Q282 34 282 63Q256 41 242 29T223 14Q185 -10 139 -10Q90 -10 61 22T32 105Q32 183 117 232Q150 251 282 298V326Q282 439 201 439Q133 439 133 369Q133 308 92 308Q73 308 61 323T48 362Q48 406 98 438Q147 469 217 469Q365 469 365 347V87Q365 52 388 52Q414 52 439 92V58ZM282 268Q115 209 115 129Q115 96 135 71T183 46Q220 46 282 96V268ZM386 635Q386 599 353 580Q325 564 287 564Q242 564 193 584Q185 588 178 592T162 600Q142 609 129 609Q88 609 85 573H64Q64 586 72 600Q99 651 165 651Q202 651 253 629Q307 608 327 608Q362 608 364 635H386Z"  />
<glyph unicode="&#xE4;" horiz-adv-x="445" d="M439 58Q398 -10 332 -10Q307 -10 294 15Q282 34 282 63Q256 41 242 29T223 14Q185 -10 139 -10Q90 -10 61 22T32 105Q32 183 117 232Q150 251 282 298V326Q282 439 201 439Q133 439 133 369Q133 308 92 308Q73 308 61 323T48 362Q48 406 98 438Q147 469 217 469Q365 469 365 347V87Q365 52 388 52Q414 52 439 92V58ZM282 268Q115 209 115 129Q115 96 135 71T183 46Q220 46 282 96V268ZM177 605Q177 586 163 573T129 559Q109 559 95 572T81 605Q81 624 95 637T129 651Q149 651 163 638T177 605ZM353 605Q353 586 339 573T305 559Q285 559 271 572T257 605Q257 624 271 637T305 651Q325 651 339 638T353 605Z"  />
<glyph unicode="&#xE5;" horiz-adv-x="445" d="M439 58Q398 -10 332 -10Q307 -10 294 15Q282 34 282 63Q256 41 242 29T223 14Q185 -10 139 -10Q90 -10 61 22T32 105Q32 183 117 232Q150 251 282 298V326Q282 439 201 439Q133 439 133 369Q133 308 92 308Q73 308 61 323T48 362Q48 406 98 438Q147 469 217 469Q365 469 365 347V87Q365 52 388 52Q414 52 439 92V58ZM282 268Q115 209 115 129Q115 96 135 71T183 46Q220 46 282 96V268ZM271 612Q271 586 253 568T209 550Q183 550 165 568T147 612Q147 637 165 655T209 673Q235 673 253 655T271 612ZM242 612Q242 625 232 635T209 645Q176 645 176 612Q176 579 209 579Q222 579 232 588T242 612Z"  />
<glyph unicode="&#xE6;" horiz-adv-x="712" d="M685 161Q667 89 609 40Q550 -10 487 -10Q430 -10 383 21T308 104Q301 90 295 80T282 63Q256 41 241 29T222 14Q184 -10 139 -10Q90 -10 61 22T32 105Q32 183 117 232Q150 251 282 298V326Q282 439 201 439Q133 439 133 369Q133 308 92 308Q73 308 61 323T48 362Q48 406 98 438Q147 469 217 469Q320 469 350 410Q406 469 488 469Q568 469 621 415Q674 362 674 284H362Q362 189 404 125Q446 60 510 60Q563 60 610 90Q656 121 667 164L685 161ZM570 308Q570 360 538 398Q507 435 462 435Q424 435 395 397Q367 360 362 308H570ZM282 268Q115 209 115 129Q115 96 135 71T183 46Q220 46 282 96V268Z"  />
<glyph unicode="&#xE7;" horiz-adv-x="450" d="M421 174Q378 -2 239 -10Q210 -37 210 -60Q210 -76 225 -79H254V-114H233Q178 -114 178 -73Q178 -43 219 -10Q141 -5 86 61Q32 127 32 218Q32 321 95 395Q160 469 249 469Q321 469 364 438Q410 407 410 360Q410 339 393 324T355 309Q333 309 320 324T306 360Q306 435 236 435Q209 435 187 423T148 390T124 339T115 277Q115 184 155 123Q195 60 261 60Q354 60 402 180L421 174Z"  />
<glyph unicode="&#xE8;" horiz-adv-x="462" d="M435 161Q417 89 359 40Q300 -10 237 -10Q152 -10 92 55Q32 121 32 213Q32 325 89 397Q146 469 238 469Q318 469 371 415Q424 362 424 284H112Q112 189 154 125Q196 60 260 60Q313 60 360 90Q406 121 417 164L435 161ZM320 308Q320 360 288 398Q257 435 212 435Q174 435 145 397Q117 360 112 308H320ZM292 524H264L113 701H239L292 524Z"  />
<glyph unicode="&#xE9;" horiz-adv-x="462" d="M435 161Q417 89 359 40Q300 -10 237 -10Q152 -10 92 55Q32 121 32 213Q32 325 89 397Q146 469 238 469Q318 469 371 415Q424 362 424 284H112Q112 189 154 125Q196 60 260 60Q313 60 360 90Q406 121 417 164L435 161ZM320 308Q320 360 288 398Q257 435 212 435Q174 435 145 397Q117 360 112 308H320ZM319 701L168 524H140L193 701H319Z"  />
<glyph unicode="&#xEA;" horiz-adv-x="462" d="M435 161Q417 89 359 40Q300 -10 237 -10Q152 -10 92 55Q32 121 32 213Q32 325 89 397Q146 469 238 469Q318 469 371 415Q424 362 424 284H112Q112 189 154 125Q196 60 260 60Q313 60 360 90Q406 121 417 164L435 161ZM320 308Q320 360 288 398Q257 435 212 435Q174 435 145 397Q117 360 112 308H320ZM376 544H359L228 651L97 544H80L180 711H276L376 544Z"  />
<glyph unicode="&#xEB;" horiz-adv-x="462" d="M435 161Q417 89 359 40Q300 -10 237 -10Q152 -10 92 55Q32 121 32 213Q32 325 89 397Q146 469 238 469Q318 469 371 415Q424 362 424 284H112Q112 189 154 125Q196 60 260 60Q313 60 360 90Q406 121 417 164L435 161ZM320 308Q320 360 288 398Q257 435 212 435Q174 435 145 397Q117 360 112 308H320ZM187 605Q187 586 173 573T139 559Q119 559 105 572T91 605Q91 624 105 637T139 651Q159 651 173 638T187 605ZM363 605Q363 586 349 573T315 559Q295 559 281 572T267 605Q267 624 281 637T315 651Q335 651 349 638T363 605Z"  />
<glyph unicode="&#xEC;" horiz-adv-x="278" d="M272 0H45V18Q89 18 104 39Q117 55 117 107V323Q117 371 113 380Q108 398 87 398Q78 398 46 390L39 408L176 469H200V107Q200 56 214 37T272 18V0ZM204 524H176L25 701H151L204 524Z"  />
<glyph unicode="&#xED;" horiz-adv-x="278" d="M258 0H31V18Q75 18 90 39Q103 55 103 107V323Q103 371 99 380Q94 398 73 398Q64 398 32 390L25 408L162 469H186V107Q186 56 200 37T258 18V0ZM231 701L80 524H52L105 701H231Z"  />
<glyph unicode="&#xEE;" horiz-adv-x="278" d="M291 0H64V18Q108 18 123 39Q136 55 136 107V323Q136 371 132 380Q127 398 106 398Q97 398 65 390L58 408L195 469H219V107Q219 56 233 37T291 18V0ZM321 544H304L173 651L42 544H25L125 711H221L321 544Z"  />
<glyph unicode="&#xEF;" horiz-adv-x="278" d="M283 0H56V18Q100 18 115 39Q128 55 128 107V323Q128 371 124 380Q119 398 98 398Q89 398 57 390L50 408L187 469H211V107Q211 56 225 37T283 18V0ZM121 605Q121 586 107 573T73 559Q53 559 39 572T25 605Q25 624 39 637T73 651Q93 651 107 638T121 605ZM297 605Q297 586 283 573T249 559Q229 559 215 572T201 605Q201 624 215 637T249 651Q269 651 283 638T297 605Z"  />
<glyph unicode="&#xF1;" horiz-adv-x="518" d="M510 0H283V18Q327 18 342 39Q355 55 355 107V315Q355 407 288 407Q232 407 171 341V107Q171 56 185 37T243 18V0H16V18Q60 18 75 39Q88 55 88 107V323Q88 371 84 380Q79 398 58 398Q49 398 17 390L10 408L147 469H171V376Q246 469 333 469Q377 469 407 428Q438 388 438 330V107Q438 56 452 37T510 18V0ZM396 635Q396 599 363 580Q335 564 297 564Q252 564 203 584Q195 588 188 592T172 600Q152 609 139 609Q98 609 95 573H74Q74 586 82 600Q109 651 175 651Q212 651 263 629Q317 608 337 608Q372 608 374 635H396Z"  />
<glyph unicode="&#xF2;" horiz-adv-x="506" d="M474 243Q474 136 411 63Q348 -10 253 -10Q158 -10 95 58Q32 125 32 224Q32 327 95 398Q158 469 253 469Q348 469 411 403Q474 338 474 243ZM381 196Q381 435 233 435Q190 435 157 385Q125 335 125 266Q125 163 163 95Q204 24 269 24Q317 24 349 74Q381 127 381 196ZM299 524H271L120 701H246L299 524Z"  />
<glyph unicode="&#xF3;" horiz-adv-x="506" d="M474 243Q474 136 411 63Q348 -10 253 -10Q158 -10 95 58Q32 125 32 224Q32 327 95 398Q158 469 253 469Q348 469 411 403Q474 338 474 243ZM381 196Q381 435 233 435Q190 435 157 385Q125 335 125 266Q125 163 163 95Q204 24 269 24Q317 24 349 74Q381 127 381 196ZM351 701L200 524H172L225 701H351Z"  />
<glyph unicode="&#xF4;" horiz-adv-x="506" d="M474 243Q474 136 411 63Q348 -10 253 -10Q158 -10 95 58Q32 125 32 224Q32 327 95 398Q158 469 253 469Q348 469 411 403Q474 338 474 243ZM381 196Q381 435 233 435Q190 435 157 385Q125 335 125 266Q125 163 163 95Q204 24 269 24Q317 24 349 74Q381 127 381 196ZM396 544H379L248 651L117 544H100L200 711H296L396 544Z"  />
<glyph unicode="&#xF5;" horiz-adv-x="506" d="M474 243Q474 136 411 63Q348 -10 253 -10Q158 -10 95 58Q32 125 32 224Q32 327 95 398Q158 469 253 469Q348 469 411 403Q474 338 474 243ZM381 196Q381 435 233 435Q190 435 157 385Q125 335 125 266Q125 163 163 95Q204 24 269 24Q317 24 349 74Q381 127 381 196ZM406 635Q406 599 373 580Q345 564 307 564Q262 564 213 584Q205 588 198 592T182 600Q162 609 149 609Q108 609 105 573H84Q84 586 92 600Q119 651 185 651Q222 651 273 629Q327 608 347 608Q382 608 384 635H406Z"  />
<glyph unicode="&#xF6;" horiz-adv-x="506" d="M474 243Q474 136 411 63Q348 -10 253 -10Q158 -10 95 58Q32 125 32 224Q32 327 95 398Q158 469 253 469Q348 469 411 403Q474 338 474 243ZM381 196Q381 435 233 435Q190 435 157 385Q125 335 125 266Q125 163 163 95Q204 24 269 24Q317 24 349 74Q381 127 381 196ZM207 605Q207 586 193 573T159 559Q139 559 125 572T111 605Q111 624 125 637T159 651Q179 651 193 638T207 605ZM383 605Q383 586 369 573T335 559Q315 559 301 572T287 605Q287 624 301 637T335 651Q355 651 369 638T383 605Z"  />
<glyph unicode="&#xF7;" horiz-adv-x="529" d="M353 533Q353 501 329 479T270 457Q235 457 211 479T187 533Q187 565 211 587T270 609Q305 609 329 587T353 533ZM465 312H73V392H465V312ZM353 161Q353 145 347 131T329 107T302 90T270 84Q253 84 238 90T212 106T194 131T187 161Q187 193 211 215T270 237Q305 237 329 215T353 161Z"  />
<glyph unicode="&#xF8;" horiz-adv-x="506" d="M474 243Q474 136 411 63Q348 -10 253 -10Q215 -10 181 2L161 -49L141 -42L161 10Q101 38 67 95T32 224Q32 327 95 398Q158 469 253 469Q292 469 332 455L350 503L370 495L352 447Q409 419 441 365T474 243ZM381 196Q381 329 331 391L199 50Q231 24 269 24Q317 24 349 74Q381 127 381 196ZM314 408Q281 435 233 435Q190 435 157 385Q125 335 125 266Q125 134 182 67L314 408Z"  />
<glyph unicode="&#xF9;" horiz-adv-x="518" d="M518 53L378 -10H354V86Q331 46 290 18Q250 -10 212 -10Q157 -10 118 32Q80 76 80 133V362Q80 408 65 424T8 441V459H163V133Q163 98 190 74T255 50Q280 50 309 71T354 124V362Q354 408 339 424T282 441V459H437V136Q437 91 446 75T479 59Q494 59 512 67L518 53ZM290 524H262L111 701H237L290 524Z"  />
<glyph unicode="&#xFA;" horiz-adv-x="518" d="M518 53L378 -10H354V86Q331 46 290 18Q250 -10 212 -10Q157 -10 118 32Q80 76 80 133V362Q80 408 65 424T8 441V459H163V133Q163 98 190 74T255 50Q280 50 309 71T354 124V362Q354 408 339 424T282 441V459H437V136Q437 91 446 75T479 59Q494 59 512 67L518 53ZM320 701L169 524H141L194 701H320Z"  />
<glyph unicode="&#xFB;" horiz-adv-x="518" d="M518 53L378 -10H354V86Q331 46 290 18Q250 -10 212 -10Q157 -10 118 32Q80 76 80 133V362Q80 408 65 424T8 441V459H163V133Q163 98 190 74T255 50Q280 50 309 71T354 124V362Q354 408 339 424T282 441V459H437V136Q437 91 446 75T479 59Q494 59 512 67L518 53ZM396 544H379L248 651L117 544H100L200 711H296L396 544Z"  />
<glyph unicode="&#xFC;" horiz-adv-x="518" d="M518 53L378 -10H354V86Q331 46 290 18Q250 -10 212 -10Q157 -10 118 32Q80 76 80 133V362Q80 408 65 424T8 441V459H163V133Q163 98 190 74T255 50Q280 50 309 71T354 124V362Q354 408 339 424T282 441V459H437V136Q437 91 446 75T479 59Q494 59 512 67L518 53ZM207 605Q207 586 193 573T159 559Q139 559 125 572T111 605Q111 624 125 637T159 651Q179 651 193 638T207 605ZM383 605Q383 586 369 573T335 559Q315 559 301 572T287 605Q287 624 301 637T335 651Q355 651 369 638T383 605Z"  />
<glyph unicode="&#xFF;" horiz-adv-x="514" d="M497 441Q469 441 456 423Q446 411 426 362L241 -90Q219 -144 180 -178T100 -212Q73 -212 54 -198T33 -163Q31 -112 84 -112Q104 -112 119 -121T150 -130Q181 -130 216 -47L245 23L102 323Q47 441 0 441V459H211V441Q162 441 162 405Q162 393 197 317L286 129L381 363Q395 399 395 413Q395 441 348 441V459H497V441ZM221 605Q221 586 207 573T173 559Q153 559 139 572T125 605Q125 624 139 637T173 651Q193 651 207 638T221 605ZM397 605Q397 586 383 573T349 559Q329 559 315 572T301 605Q301 624 315 637T349 651Q369 651 383 638T397 605Z"  />
<glyph unicode="&#x131;" horiz-adv-x="278" d="M258 0H31V18Q75 18 90 39Q103 55 103 107V323Q103 371 99 380Q94 398 73 398Q64 398 32 390L25 408L162 469H186V107Q186 56 200 37T258 18V0Z"  />
<glyph unicode="&#x141;" horiz-adv-x="628" d="M610 185L551 0H20V18Q74 18 95 36T116 108V280L51 224L32 246L116 320V572Q116 625 95 643T20 662V680H316V662Q262 662 241 644T220 572V410L279 461L299 439L220 370V85Q220 64 231 49T259 34H386Q540 34 590 190L610 185Z"  />
<glyph unicode="&#x142;" horiz-adv-x="342" d="M319 0H23V18Q77 18 98 36T119 108V282L51 224L32 246L119 322V572Q119 625 98 643T23 662V680H319V662Q265 662 244 644T223 572V413L279 461L299 439L223 373V108Q223 55 244 37T319 18V0Z"  />
<glyph unicode="&#x152;" horiz-adv-x="1175" d="M1157 191L1096 0H666V159Q620 78 545 32Q465 -16 373 -16Q230 -16 131 89Q32 195 32 344Q32 491 131 593Q230 696 373 696Q465 696 545 649Q621 604 666 526V680H1092L1100 518H1082Q1069 583 1039 613Q1006 646 942 646H770V388H917Q1019 388 1019 476H1037V246H1019Q1019 354 919 354H770V76Q770 59 782 47T810 34H952Q1084 34 1133 191H1157ZM592 344Q592 487 535 573Q476 662 373 662Q269 662 210 573Q154 487 154 344Q154 200 210 111Q268 18 373 18Q476 18 535 111Q592 199 592 344Z"  />
<glyph unicode="&#x153;" horiz-adv-x="828" d="M801 161Q783 89 725 40Q666 -10 603 -10Q493 -10 431 91Q366 -10 253 -10Q158 -10 95 58Q32 125 32 224Q32 327 95 398Q158 469 253 469Q372 469 437 371Q496 469 604 469Q684 469 737 415Q790 362 790 284H478Q478 189 520 125Q562 60 626 60Q679 60 726 90Q772 121 783 164L801 161ZM686 308Q686 360 654 398Q623 435 578 435Q540 435 511 397Q483 360 478 308H686ZM381 196Q381 435 233 435Q190 435 157 385Q125 335 125 266Q125 163 163 95Q204 24 269 24Q317 24 349 74Q381 127 381 196Z"  />
<glyph unicode="&#x160;" horiz-adv-x="560" d="M510 179Q510 97 451 41Q388 -16 283 -16Q232 -16 177 4Q130 22 115 22Q89 22 83 -16H65V214H83Q90 125 153 72Q212 22 291 22Q344 22 381 53Q420 84 420 134Q420 202 326 260L152 360Q58 426 58 513Q58 591 114 644Q169 696 260 696Q296 696 345 680Q348 679 356 676T379 666Q401 658 410 658Q424 658 435 670T447 696H465V459H446Q437 553 389 605T260 658Q207 658 171 622Q138 590 138 549Q138 490 234 432L414 328Q510 260 510 179ZM333 812L285 727H237L189 812H219L261 757L303 812H333Z"  />
<glyph unicode="&#x161;" horiz-adv-x="402" d="M367 129Q367 68 325 29T207 -10Q180 -10 139 1Q101 13 93 13Q78 13 72 0H54V159H72Q79 103 120 63Q160 24 209 24Q241 24 263 43T285 90Q285 136 224 170Q168 202 111 231Q50 274 50 341Q50 398 87 433T185 469Q213 469 246 460Q280 451 289 451Q305 451 310 469H328V316H310Q307 369 273 403Q238 439 193 439Q157 439 135 421T112 378Q112 332 178 298Q209 283 239 268T301 237Q367 193 367 129ZM264 602L216 517H168L120 602H149L192 547L234 602H264Z"  />
<glyph unicode="&#x17D;" horiz-adv-x="622" d="M383 812L335 727H287L239 812H269L311 757L353 812H383ZM598 178L566 0H10V17L448 641H238Q162 641 131 613Q100 586 89 509H71L86 680H597L146 39H421Q446 39 470 49T515 78T552 122T580 178H598Z"  />
<glyph unicode="&#x17E;" horiz-adv-x="463" d="M304 602L256 517H208L160 602H189L232 547L274 602H304ZM442 441L134 34H329Q368 34 389 49Q416 69 422 146H440L430 0H22V24L324 425H159Q119 425 102 408Q80 386 78 332H60V459H442V441Z"  />
<glyph unicode="&#x2C6;" horiz-adv-x="296" d="M296 739H279L148 846L17 739H0L100 906H196L296 739Z"  />
<glyph unicode="&#x2C7;" horiz-adv-x="328" d="M117 739L17 906H34L165 799L296 906H313L213 739H117Z"  />
<glyph unicode="&#x2DA;" horiz-adv-x="196" d="M161 807Q161 781 143 763T99 745Q73 745 55 763T37 807Q37 832 55 850T99 868Q125 868 143 850T161 807ZM132 807Q132 820 122 830T99 840Q66 840 66 807Q66 774 99 774Q112 774 122 783T132 807Z"  />
<glyph unicode="&#x2DB;" horiz-adv-x="346" d="M224 -150H195Q119 -150 119 -93Q119 -51 182 0H210Q163 -42 163 -75Q163 -97 185 -101H224V-150Z"  />
<glyph unicode="&#x2DC;" horiz-adv-x="404" d="M356 830Q356 794 323 775Q295 759 257 759Q212 759 163 779Q155 783 148 787T132 795Q112 804 99 804Q58 804 55 768H34Q34 781 42 795Q69 846 135 846Q172 846 223 824Q277 803 297 803Q332 803 334 830H356Z"  />
<glyph unicode="&#x2DD;" horiz-adv-x="341" d="M190 896L39 719H11L64 896H190ZM330 896L179 719H151L204 896H330Z"  />
<glyph unicode="&#x2E0;" horiz-adv-x="372" d="M328 305Q328 245 319 211T291 153T244 106T179 45Q170 36 159 31T135 25Q124 25 115 32T106 51Q106 56 107 59T109 67Q109 81 113 94T134 112Q138 114 142 114T150 116Q166 123 180 137T204 168T221 205T228 241Q228 250 227 260T223 281Q220 294 211 308T190 334T163 353T134 361Q122 361 112 367T89 374Q29 374 29 433Q29 455 48 465T86 475Q103 475 119 471T152 466Q157 466 160 467T169 468Q185 468 200 456T230 435Q251 423 268 412T299 385T320 351T328 305ZM258 246Q258 228 242 215T208 202Q202 202 193 205T175 213T160 224T153 237Q153 257 156 264T176 284Q181 288 188 292T201 297Q207 297 213 297T226 298Q244 298 254 288Q257 277 257 267T258 246Z"  />
<glyph unicode="&#x2E4;" horiz-adv-x="555" d="M554 257Q554 218 544 185T499 129Q474 112 444 102T383 91Q338 91 297 108T218 146Q207 144 198 137T189 117Q177 95 169 69T149 21T119 -17T67 -32Q61 -32 53 -32T36 -29T22 -22T16 -8Q27 17 37 42T58 93Q62 103 70 124T88 170T110 221T135 268T161 303T187 317Q213 317 230 304T260 268Q268 254 279 239T303 210T333 189T367 180Q380 180 394 182T418 190T436 206T443 233Q443 246 439 261T427 292T411 320T394 345Q379 364 355 379T303 403T246 418T193 423Q161 423 134 418T77 400Q68 397 60 393T43 385Q41 384 36 384T29 383Q1 383 1 410Q1 425 10 439T32 465T61 487T89 502Q114 513 149 517T211 521Q275 521 335 502T449 449Q460 443 470 437T489 422Q495 416 500 409T511 395Q527 375 535 361T548 331T553 299T554 257ZM358 595H111V636H358V595Z"  />
<glyph unicode="&#x2E5;" horiz-adv-x="542" d="M512 271Q512 227 491 191T436 127T363 79T286 48Q249 37 212 33T136 26Q124 25 112 24T88 23Q73 23 58 25T30 33T10 51T2 83Q2 102 16 109T47 117Q67 117 85 109T123 100Q138 100 164 105T222 119T284 140T341 168T383 201T399 238Q399 248 391 263T372 291T347 314T323 324Q305 324 290 315T257 305Q240 305 231 318T222 347Q222 374 242 394T286 422Q300 427 315 428T346 429Q372 429 392 426T433 404Q438 400 447 390T467 368T487 345T499 329Q507 317 509 301T512 271ZM358 595H111V636H358V595Z"  />
<glyph unicode="&#x2E6;" horiz-adv-x="998" d="M934 230Q934 180 918 136T875 53T815 -22T748 -90Q731 -105 716 -121T681 -151Q666 -162 650 -169T618 -185Q530 -228 440 -258T250 -289Q224 -289 191 -285T123 -272T59 -251T7 -221Q-19 -200 -30 -169T-42 -106Q-42 -68 -32 -34T-10 36Q-8 44 -6 51T0 65Q7 79 17 91T38 115Q67 152 95 188T158 256Q182 279 207 304T260 352T317 394T379 424Q404 433 421 434T465 436Q490 436 516 433T567 422T614 400T652 365Q660 354 670 342T688 317T703 289T709 261Q709 241 698 219T671 176T636 138T601 111Q590 104 576 94T546 75T516 59T487 52Q473 52 473 64Q473 69 477 79T485 94Q490 101 498 107T514 118Q523 126 542 141T581 175T615 210T630 239Q630 261 613 279T572 310T522 330T478 338Q445 338 414 329T355 305T301 269T252 227Q226 203 205 176T160 121Q150 110 142 98T124 74Q119 69 115 63T105 51Q82 21 65 -22T48 -103Q48 -138 72 -165T128 -204Q155 -212 184 -215T242 -218Q312 -218 380 -200T512 -148T631 -71T734 24Q776 69 801 126T826 246Q826 284 813 320T780 389Q761 420 721 445T634 490T538 519T456 530Q432 530 408 526T360 521Q340 521 321 513T285 494T251 475T219 466Q208 466 197 474T185 495Q185 511 205 530T251 567T305 598T346 614Q375 622 406 625T467 628Q515 628 558 614T647 588Q685 578 725 566T797 530Q809 522 818 511T838 489Q860 465 877 434T907 369T927 299T934 230ZM358 595H111V636H358V595Z"  />
<glyph unicode="&#x5B0;" horiz-adv-x="0" />
<glyph unicode="&#x5B1;" horiz-adv-x="0" />
<glyph unicode="&#x5B2;" horiz-adv-x="0" />
<glyph unicode="&#x5B3;" horiz-adv-x="0" />
<glyph unicode="&#x5B4;" horiz-adv-x="0" />
<glyph unicode="&#x5B5;" horiz-adv-x="0" />
<glyph unicode="&#x5B6;" horiz-adv-x="0" />
<glyph unicode="&#x5B7;" horiz-adv-x="1" />
<glyph unicode="&#x5B8;" horiz-adv-x="1" />
<glyph unicode="&#x5B9;" horiz-adv-x="0" />
<glyph unicode="&#x5BB;" horiz-adv-x="0" />
<glyph unicode="&#x5BC;" horiz-adv-x="66" d="M88 246Q88 228 72 215T38 202Q32 202 23 205T5 213T-10 224T-17 237Q-17 257 -14 264T6 284Q11 288 18 292T31 297Q37 297 43 297T56 298Q74 298 84 288Q87 277 87 267T88 246Z"  />
<glyph unicode="&#x5BD;" horiz-adv-x="1" />
<glyph unicode="&#x5BE;" horiz-adv-x="419" d="M391 409Q391 387 373 379T337 368Q314 366 292 365T247 364Q221 364 197 368T146 373Q136 373 127 372T108 371Q85 371 66 383T28 407Q29 411 31 419T35 435T41 449T50 455H61Q96 455 130 449T199 443H214Q231 443 247 442T281 441Q292 441 302 441T322 445Q340 450 352 450Q370 450 380 439T391 409Z"  />
<glyph unicode="&#x5BF;" horiz-adv-x="1" d="M125 595H-122V636H125V595Z"  />
<glyph unicode="&#x5C0;" horiz-adv-x="168" d="M108 -130H60V617H108V-130Z"  />
<glyph unicode="&#x5C1;" horiz-adv-x="0" />
<glyph unicode="&#x5C2;" horiz-adv-x="0" />
<glyph unicode="&#x5C3;" horiz-adv-x="289" d="M212 411Q212 381 191 359T139 337Q108 337 87 358T65 411Q65 441 86 462T139 484Q169 484 190 463T212 411ZM212 56Q212 26 191 4T139 -18Q108 -18 87 3T65 56Q65 86 86 107T139 129Q169 129 190 108T212 56Z"  />
<glyph unicode="&#x5C4;" horiz-adv-x="1" d="M56 605H-55V716H56V605Z"  />
<glyph unicode="&#x5C7;" horiz-adv-x="1" d="M78 -158H15Q16 -166 17 -176T19 -196T21 -212T22 -219V-304H-22V-219L-19 -193Q-17 -182 -17 -173T-15 -158H-78V-115H78V-158Z"  />
<glyph unicode="&#x5D0;" horiz-adv-x="576" d="M583 59Q583 51 579 43T570 28Q538 13 500 8T427 3Q404 3 382 4T336 11Q318 15 295 25T251 50T211 82T185 116Q182 122 179 132T173 153T167 173T160 187Q159 167 154 128T138 48T110 -21T65 -51Q54 -51 44 -45T24 -28T8 -7T-4 13Q-7 17 -7 24Q-7 33 1 40T19 55T37 72T45 94Q45 113 43 131T41 169Q41 188 41 207T43 245Q41 252 40 264T39 289T38 315T38 335V404Q38 416 42 433T55 466T76 493T103 504Q114 504 127 502T153 495T173 481T181 458Q181 456 181 454T180 450Q176 428 174 406T171 361Q171 348 172 336T174 310Q174 282 168 257Q180 258 189 269T207 296T222 326T238 350Q269 378 306 402T387 426Q406 426 429 423T472 411T505 386T519 345Q519 339 510 336T490 330T467 327T452 325Q431 322 410 318T369 305T333 284T307 250Q300 237 296 221T291 190Q291 175 297 162Q316 144 332 130T366 106T403 91T452 86Q472 86 490 90T529 94Q547 94 565 88T583 59Z"  />
<glyph unicode="&#x5D1;" horiz-adv-x="555" d="M554 257Q554 218 544 185T499 129Q474 112 444 102T383 91Q338 91 297 108T218 146Q207 144 198 137T189 117Q177 95 169 69T149 21T119 -17T67 -32Q61 -32 53 -32T36 -29T22 -22T16 -8Q27 17 37 42T58 93Q62 103 70 124T88 170T110 221T135 268T161 303T187 317Q213 317 230 304T260 268Q268 254 279 239T303 210T333 189T367 180Q380 180 394 182T418 190T436 206T443 233Q443 246 439 261T427 292T411 320T394 345Q379 364 355 379T303 403T246 418T193 423Q161 423 134 418T77 400Q68 397 60 393T43 385Q41 384 36 384T29 383Q1 383 1 410Q1 425 10 439T32 465T61 487T89 502Q114 513 149 517T211 521Q275 521 335 502T449 449Q460 443 470 437T489 422Q495 416 500 409T511 395Q527 375 535 361T548 331T553 299T554 257Z"  />
<glyph unicode="&#x5D2;" horiz-adv-x="735" d="M748 191Q748 176 741 166Q679 125 631 101T537 64T438 43T313 28Q298 26 284 25T254 24Q228 24 197 27T135 36T75 54T26 83Q2 103 -11 132T-25 193Q-25 197 -22 203T-17 213Q-5 235 16 254T62 289T112 320T159 348Q124 375 102 414T80 499Q80 507 80 516T83 534Q89 557 109 568T152 580Q177 580 186 569T198 541T201 503T208 462T232 426T287 401Q303 398 322 398Q354 398 385 403T448 409Q461 409 479 405T515 391T545 369T557 340Q557 317 539 308T495 296T444 294T403 296Q397 296 392 296T380 295Q368 294 344 288T292 272T233 250T178 223T137 195T121 166Q121 152 133 143T157 128Q177 120 201 119T246 118Q254 118 263 117T280 116Q322 116 382 122T504 142T621 176T708 225Q712 228 715 231T724 234Q731 234 735 229T743 218T747 204T748 191Z"  />
<glyph unicode="&#x5D3;" horiz-adv-x="475" d="M443 442Q443 413 432 391T407 351T382 324T371 311Q371 307 378 298T395 274T411 242T419 204Q419 190 414 178T401 154Q390 139 371 109T330 48T285 -4T243 -27Q230 -27 219 -17T207 6Q207 25 225 50T265 101T305 154T323 201Q323 216 312 224T284 237T250 242T223 243Q214 243 205 243T187 242Q161 240 137 232T86 224Q84 224 79 226T71 229Q56 236 49 246T41 273L43 289Q47 308 68 321T116 341T170 352T213 355Q218 355 222 355T232 354Q243 354 263 355T302 361T336 375T351 401Q351 411 346 420T335 437Q315 441 295 444T255 447Q220 447 186 441T116 427Q99 424 83 421T50 418Q41 418 37 425T32 440Q32 455 38 472T55 500Q70 518 89 527T130 541T174 547T218 548Q236 548 260 548T309 544T358 535T401 517T431 487T443 442Z"  />
<glyph unicode="&#x5D4;" horiz-adv-x="518" d="M488 273Q488 227 478 185T438 107Q427 94 403 71T351 26T296 -13T253 -30Q239 -30 235 -21T231 0Q231 15 250 34T293 75T340 123T373 176Q380 200 380 230Q380 262 371 294T337 349Q328 358 314 368T283 386T251 400T222 406Q205 406 188 405T154 403Q145 403 131 403T104 408T82 419T72 440Q72 460 86 476T120 503T163 519T202 525Q249 525 299 505T392 450T461 369T488 273ZM294 251Q294 219 285 190T258 135T218 89T167 54Q153 46 136 38T100 21T63 8T28 3Q13 3 -4 11T-22 38Q-22 48 -13 54T8 65T33 70T53 72Q71 72 94 88T139 128T176 177T191 220Q191 238 177 246T146 260T114 273T100 295Q100 305 107 316T125 338T148 354T171 360Q188 360 209 350T249 324T281 289T294 251Z"  />
<glyph unicode="&#x5D5;" horiz-adv-x="289" d="M222 409Q222 385 216 359T203 306T190 252T184 197Q184 176 181 142T168 74T140 17T94 -7Q83 -7 77 2T67 24T64 50T63 71Q63 119 69 166T83 261Q86 283 89 305T93 350Q93 363 92 376T90 402Q90 432 108 452T157 472Q184 472 203 454T222 409Z"  />
<glyph unicode="&#x5D6;" horiz-adv-x="746" d="M723 163Q723 160 723 157T722 150Q714 111 692 87T639 49T574 29T505 18Q470 13 434 7T362 1Q324 1 287 3T213 14Q191 19 167 23T120 34T75 49T37 75Q22 90 12 109T1 151Q1 185 22 194T72 203Q81 203 94 200T108 184Q108 177 105 173T101 164Q101 153 111 143T130 126Q166 97 211 92T302 86Q332 86 362 88T422 92Q438 101 459 104T502 112T542 124T570 148Q572 150 574 155T576 162Q576 171 562 175T530 182T494 185T470 189Q452 193 431 201T390 221T359 251T346 290Q346 325 357 359T388 424T434 478T493 518Q506 524 520 526T549 528Q559 528 574 527T603 520T628 507T639 485Q639 472 627 461T595 439T554 417T512 394T481 369T468 338Q468 314 480 291T517 260Q538 254 573 250T641 237T698 211T723 163Z"  />
<glyph unicode="&#x5D7;" horiz-adv-x="531" d="M498 365Q498 314 484 267T440 177Q434 169 428 162T415 146Q408 138 400 129T383 111T363 98T340 92Q336 92 336 97T335 104Q335 117 338 133T347 166T358 198T369 226Q378 245 380 264T382 304Q382 321 384 338T387 372Q387 414 365 429T305 445Q288 445 272 440T247 419Q236 398 231 370T221 310T211 247T194 190Q173 140 143 96T89 4Q79 -3 65 -9T39 -15Q19 -15 18 4Q40 42 53 83T75 168Q87 232 93 297Q95 316 97 345T104 404T116 461T134 503Q141 512 147 517T164 526Q193 536 224 537T285 546Q302 550 319 554T354 559Q369 559 380 555Q410 546 432 526T469 480T491 424T498 365Z"  />
<glyph unicode="&#x5D8;" horiz-adv-x="538" d="M753 585Q753 579 743 572T720 557T694 546T675 540Q645 535 615 532T554 523Q507 514 456 499T356 463T263 413T186 348Q183 344 177 334T165 311T154 288T149 272Q149 255 162 231T193 185T233 147T273 131Q294 131 307 144T329 177T342 217T351 254Q358 276 366 294Q373 310 376 331T386 372T404 405T440 419Q449 419 459 416T479 406T494 390T500 371V365Q500 320 492 265T461 161T402 79T306 46Q285 46 259 50T206 63T155 81T113 105Q68 137 50 181T32 279Q32 291 35 306T43 332Q65 386 114 427T225 499T350 551T467 584Q521 596 574 604T681 614H687Q694 614 705 614T727 611T745 602T753 585Z"  />
<glyph unicode="&#x5D9;" horiz-adv-x="269" d="M224 391Q224 364 217 339T198 289T172 242T144 196Q136 182 130 168T114 141Q109 133 98 131T78 129Q68 129 55 133T42 150Q42 173 50 194T68 236T86 279T95 326Q95 338 96 356T102 393T115 426T136 446Q144 450 157 450Q185 450 204 435T224 391Z"  />
<glyph unicode="&#x5DA;" horiz-adv-x="443" d="M446 316Q446 296 435 277T410 244Q372 204 325 183T223 150Q211 147 199 145T173 141Q164 139 158 113T146 55T138 -8T134 -48Q130 -90 123 -130T109 -213Q106 -234 103 -262T96 -318T84 -373T66 -418Q52 -441 27 -441Q14 -441 9 -433T3 -414Q3 -379 9 -346T22 -278Q27 -253 29 -229T32 -179Q34 -116 41 -54T49 72Q49 118 43 163T36 254Q36 262 42 270T58 285T77 296T94 300Q118 300 134 288T167 260T201 233T248 220Q258 220 263 221T277 229Q282 233 285 237T293 245Q300 251 309 257T326 271T339 288T345 308Q345 329 322 343T267 366T205 381T158 390Q132 382 106 378T53 373Q47 373 39 373T23 376T10 384T5 398Q5 407 10 416T20 433Q44 468 82 477T160 487Q173 487 185 488T210 489Q233 489 253 482Q279 473 307 465T358 440Q372 430 387 417T416 387T437 353T446 316Z"  />
<glyph unicode="&#x5DB;" horiz-adv-x="542" d="M512 271Q512 227 491 191T436 127T363 79T286 48Q249 37 212 33T136 26Q124 25 112 24T88 23Q73 23 58 25T30 33T10 51T2 83Q2 102 16 109T47 117Q67 117 85 109T123 100Q138 100 164 105T222 119T284 140T341 168T383 201T399 238Q399 248 391 263T372 291T347 314T323 324Q305 324 290 315T257 305Q240 305 231 318T222 347Q222 374 242 394T286 422Q300 427 315 428T346 429Q372 429 392 426T433 404Q438 400 447 390T467 368T487 345T499 329Q507 317 509 301T512 271Z"  />
<glyph unicode="&#x5DC;" horiz-adv-x="349" d="M555 760Q555 749 550 742T537 732T520 727T502 725Q474 725 447 717T396 691Q350 656 328 614T295 525T280 428T267 328Q262 298 253 264T232 194T207 126T179 65Q168 44 153 33T120 16T82 9T41 8Q18 8 14 17T9 46Q9 67 12 78T22 96T40 109T66 124Q92 140 111 172T142 241T160 317T166 385Q166 408 173 430T185 474Q192 507 198 541T214 607T239 670T279 725Q295 741 322 757T371 781Q403 792 436 804T504 817Q514 817 523 812T540 798T551 780T555 760Z"  />
<glyph unicode="&#x5DD;" horiz-adv-x="515" d="M482 345Q482 332 478 324T467 304Q453 281 434 259T393 218T344 189T289 178Q253 178 217 179T146 190Q140 192 135 181T129 158Q129 153 125 147T118 135Q112 124 102 100T80 52T54 10T25 -8Q11 -8 3 3T-8 29T-12 61T-13 87Q-13 106 -6 125T11 165T28 208T36 257Q36 303 26 346T16 435Q16 448 22 455T37 467T58 473T79 475Q100 475 120 480T159 492T199 504T240 510Q256 510 271 505T301 495T331 486T363 485Q381 473 401 459T440 428T470 390T482 345ZM370 338Q370 360 345 375T287 399T221 413T170 417Q165 417 160 416T150 414L139 411L145 359Q147 339 148 320T149 293Q148 284 157 280T182 273T216 270T253 269Q268 269 288 272T326 283T357 304T370 338Z"  />
<glyph unicode="&#x5DE;" horiz-adv-x="505" d="M489 344Q489 321 484 299T472 256Q467 241 454 210T424 146T390 87T359 55Q349 56 336 57T313 62Q307 64 292 84T260 129T228 177T208 208Q200 179 184 138T145 60T91 -5T25 -32Q15 -32 5 -29T-6 -13Q-6 1 2 16T20 46T41 75T57 103Q75 155 81 211T95 321Q98 341 100 361T109 401Q115 418 135 427T172 437Q181 437 190 428T209 405T225 380T238 360Q261 326 286 295T338 233Q347 250 354 268T369 305Q374 318 379 334T393 366T413 391T442 401Q468 401 478 384T489 344Z"  />
<glyph unicode="&#x5DF;" horiz-adv-x="254" d="M228 323Q228 298 220 275T209 227Q202 170 194 116T170 7Q155 -47 137 -100T107 -210Q105 -223 104 -236T100 -262Q98 -276 94 -289T85 -315Q70 -366 56 -415T25 -515Q22 -523 14 -548T-5 -601T-27 -649T-46 -670Q-57 -670 -66 -661T-76 -640Q-76 -612 -71 -585T-58 -530Q-46 -479 -32 -431T-7 -332Q6 -269 21 -206T36 -77Q36 -65 32 -54T28 -30Q28 -28 28 -27T29 -23Q38 16 49 59T69 145T85 232T92 315Q92 331 100 343T121 363T149 375T178 379Q205 379 216 364T228 323Z"  />
<glyph unicode="&#x5E0;" horiz-adv-x="293" d="M244 371Q239 274 225 178T186 -13Q173 -61 161 -109T122 -201Q72 -280 15 -333T-110 -418T-255 -464T-424 -478Q-440 -478 -467 -470T-520 -449T-565 -419T-584 -382Q-584 -373 -579 -365T-565 -351T-548 -342T-531 -338Q-512 -338 -489 -349T-443 -372T-398 -396T-359 -407Q-341 -407 -311 -401T-248 -387T-186 -368T-141 -348Q-87 -317 -49 -271T15 -169T57 -54T81 64Q86 100 87 136T93 208Q96 230 104 251T120 293T134 335T141 379Q141 394 156 404T185 414Q193 414 203 411T223 403T238 391T244 373V371Z"  />
<glyph unicode="&#x5E1;" horiz-adv-x="674" d="M656 307Q656 300 655 287T651 258T645 230T640 209Q632 186 618 166T587 128T551 94T512 63Q464 26 402 4T279 -19Q244 -19 214 -11T153 13Q104 37 82 76T59 170Q59 190 57 210T55 250Q55 266 57 278T65 306Q71 321 73 333T78 356T87 377T107 398Q126 414 149 435T199 476T253 510T306 524Q341 524 372 524T434 521T495 508T557 482Q576 472 583 465T601 441Q622 411 639 378T656 307ZM555 299Q555 331 543 352T511 385T465 403T412 408Q384 408 355 405T299 393Q277 387 259 371T227 334T206 289T198 243Q198 222 190 202T182 161Q182 140 191 126T216 102T249 89T285 84Q296 84 306 84T327 83Q343 83 355 85T382 94Q411 108 441 128T497 175T539 232T555 299Z"  />
<glyph unicode="&#x5E2;" horiz-adv-x="413" d="M436 604Q436 584 434 564T419 527Q410 514 397 501T373 473T353 444T344 411Q344 402 356 388T383 354T410 306T422 245Q422 224 414 200Q402 164 380 134T330 81T268 40T198 14Q188 12 178 10T157 8Q135 8 119 16T91 39T73 73T67 112Q67 122 68 135T73 163T80 190T89 212L186 382Q181 402 164 413T125 430T76 438T25 442T-18 448T-46 462Q-52 469 -57 477T-62 495Q-62 507 -53 514T-31 526T-5 531T18 533Q32 533 44 531T70 526Q83 524 95 523T120 520Q155 513 190 502T257 474Q257 477 264 486T280 507T298 529T310 544Q321 560 331 576T351 611Q356 622 362 633T383 644Q400 644 418 634T436 604ZM298 200Q298 206 298 221T297 253T291 282T279 295Q268 295 252 274T220 226T193 173T182 135Q182 125 188 117T205 109Q217 109 231 118T258 139T282 166T298 190V200Z"  />
<glyph unicode="&#x5E3;" horiz-adv-x="239" d="M593 561Q575 566 559 566Q546 566 534 564T509 562Q458 562 410 566T311 571Q287 571 263 569T215 563Q214 550 210 538T206 512Q206 474 198 425T175 324Q168 299 159 270T138 209Q116 145 98 111Q89 98 83 87T70 66T55 47T34 29Q23 18 9 18Q-13 18 -26 26T-51 53Q-39 65 -31 74T-15 94T-3 115T9 143Q18 159 27 180T44 229Q53 257 58 279T68 319T75 353T81 388Q89 427 96 466T108 545Q85 540 64 530T18 519Q-2 519 -17 529T-45 553Q-41 571 -22 584T21 607T69 620T110 625Q118 625 124 628Q127 645 127 662T128 696Q128 727 133 757T143 819Q147 835 147 855Q147 906 156 956T181 1056Q186 1073 190 1089T202 1121Q215 1152 235 1181T281 1234T340 1272T408 1287Q416 1287 428 1287T449 1283Q454 1281 458 1278T468 1272Q510 1244 525 1207T540 1122Q540 1070 537 1033T524 964T496 899T447 824Q423 790 405 767T366 725T322 688T264 646Q289 646 313 650T362 655Q404 655 446 651T531 647Q554 647 569 629T593 592V561ZM466 1086Q466 1111 464 1128T455 1157T431 1174T387 1180Q369 1180 358 1177T334 1159Q327 1151 322 1142T312 1122Q288 1075 274 1024T251 918T237 810T225 705Q273 751 316 799T393 904Q406 925 419 946T442 990T459 1036T466 1086Z"  />
<glyph unicode="&#x5E4;" horiz-adv-x="998" d="M934 230Q934 180 918 136T875 53T815 -22T748 -90Q731 -105 716 -121T681 -151Q666 -162 650 -169T618 -185Q530 -228 440 -258T250 -289Q224 -289 191 -285T123 -272T59 -251T7 -221Q-19 -200 -30 -169T-42 -106Q-42 -68 -32 -34T-10 36Q-8 44 -6 51T0 65Q7 79 17 91T38 115Q67 152 95 188T158 256Q182 279 207 304T260 352T317 394T379 424Q404 433 421 434T465 436Q490 436 516 433T567 422T614 400T652 365Q660 354 670 342T688 317T703 289T709 261Q709 241 698 219T671 176T636 138T601 111Q590 104 576 94T546 75T516 59T487 52Q473 52 473 64Q473 69 477 79T485 94Q490 101 498 107T514 118Q523 126 542 141T581 175T615 210T630 239Q630 261 613 279T572 310T522 330T478 338Q445 338 414 329T355 305T301 269T252 227Q226 203 205 176T160 121Q150 110 142 98T124 74Q119 69 115 63T105 51Q82 21 65 -22T48 -103Q48 -138 72 -165T128 -204Q155 -212 184 -215T242 -218Q312 -218 380 -200T512 -148T631 -71T734 24Q776 69 801 126T826 246Q826 284 813 320T780 389Q761 420 721 445T634 490T538 519T456 530Q432 530 408 526T360 521Q340 521 321 513T285 494T251 475T219 466Q208 466 197 474T185 495Q185 511 205 530T251 567T305 598T346 614Q375 622 406 625T467 628Q515 628 558 614T647 588Q685 578 725 566T797 530Q809 522 818 511T838 489Q860 465 877 434T907 369T927 299T934 230Z"  />
<glyph unicode="&#x5E5;" horiz-adv-x="284" d="M447 1346Q447 1314 439 1284T420 1225T396 1168T373 1109Q366 1090 360 1063T348 1008T339 952T336 904Q336 886 329 870T322 835Q322 831 333 832T348 833Q375 833 399 827T442 798Q442 781 432 772T407 759T376 754T348 753Q337 753 328 759T314 765Q307 765 302 754T293 729T287 700T285 680Q285 639 279 599T262 519T241 440T221 360Q213 325 208 288T195 213T177 139T149 71Q137 49 122 41T82 33Q56 33 39 44T21 85Q21 111 33 133T53 179Q82 291 114 399T170 619Q176 649 189 678T202 738Q202 743 201 752T192 761Q177 761 153 746T99 708T38 659T-24 610T-82 572T-130 557Q-143 557 -154 551T-179 545Q-192 545 -203 549T-228 553Q-249 553 -258 565T-267 597Q-267 606 -265 619T-259 646T-251 672T-241 692Q-224 718 -184 741T-96 785T-2 822T75 851Q90 857 109 865T141 885Q162 903 182 930T220 989T247 1053T258 1114Q258 1144 262 1173T271 1233Q283 1333 283 1435Q283 1449 282 1461T280 1488Q280 1500 282 1514T290 1540T306 1560T331 1568Q371 1568 394 1545T429 1487T444 1414T447 1346ZM66 752L24 779L65 745L64 740Q57 740 50 744T36 749L32 747Q31 748 27 748Q19 748 8 740T-15 731Q-31 723 -47 717T-81 706Q-86 704 -92 703T-103 699Q-108 697 -118 689T-138 670T-155 650T-162 634Q-162 627 -160 627T-152 628Q-145 628 -138 627T-124 626Q-111 626 -101 632T-83 648T-67 668T-50 685Q-39 694 -28 702T-2 716Q4 718 13 722T33 731T51 742T64 753L66 752Z"  />
<glyph unicode="&#x5E6;" horiz-adv-x="613" d="M655 774Q655 704 633 654T559 557Q551 550 545 541T533 523T521 506T505 491Q500 488 493 485T480 479T469 470T464 458Q464 447 470 446T485 443T505 437T525 417Q536 398 544 373T558 321T566 268T569 219Q569 177 557 137T513 68Q480 38 436 15T346 -8Q294 -8 242 9T148 56Q138 63 129 71T111 88Q92 105 74 121T42 155T20 194T11 243Q11 249 12 258T16 275T24 289T38 295Q47 295 54 289T66 277Q85 257 103 236T143 196Q152 188 162 182T181 169Q196 158 218 144T266 118T315 97T358 88Q380 88 400 102T436 137T460 182T469 226Q469 246 467 273T455 325T430 367T387 384Q372 384 358 378T331 365T304 352T275 346Q255 346 238 361T221 398Q221 408 224 420T234 442T249 460T269 470Q290 475 311 478T352 489Q382 500 411 522T466 571T515 627T554 683Q565 702 565 723Q565 743 560 761T550 799Q538 816 521 826T484 841T443 847T403 849Q377 849 353 846T305 828Q283 814 262 802T214 789Q200 789 197 795T193 814Q193 820 196 828T203 845T211 862T218 877Q225 893 233 899T252 909T273 916T298 928Q315 940 330 943T365 947Q416 947 469 939T571 915Q585 911 595 901T613 879T627 853T642 828Q652 814 653 803T655 774Z"  />
<glyph unicode="&#x5E7;" horiz-adv-x="427" d="M430 314Q430 308 424 295T409 268T393 241T381 222Q357 189 330 169T276 132T225 100T181 62T151 6T140 -78Q140 -104 136 -129T127 -180Q124 -199 124 -217T122 -254Q111 -345 75 -432T-7 -599Q-13 -608 -30 -633T-66 -686T-104 -733T-131 -754Q-139 -754 -144 -749T-152 -737T-156 -721T-157 -707Q-157 -689 -149 -668T-130 -626T-106 -586T-84 -550Q-69 -521 -52 -492T-23 -431Q-9 -396 -2 -360T8 -286T14 -211T21 -137Q25 -102 31 -67T47 6Q55 39 65 58T88 92T120 120T162 153Q173 161 182 170T202 188Q210 195 225 203T256 220T282 239T294 262Q294 274 282 282T252 295T219 302T193 304Q178 304 163 300T134 292T104 284T74 280Q60 280 50 290T39 315Q39 339 57 360T95 391Q112 399 129 402T165 405Q195 405 224 401T284 397L347 368Q357 375 368 375Q388 375 403 357T426 323Q430 318 430 314Z"  />
<glyph unicode="&#x5E8;" horiz-adv-x="372" d="M328 305Q328 245 319 211T291 153T244 106T179 45Q170 36 159 31T135 25Q124 25 115 32T106 51Q106 56 107 59T109 67Q109 81 113 94T134 112Q138 114 142 114T150 116Q166 123 180 137T204 168T221 205T228 241Q228 250 227 260T223 281Q220 294 211 308T190 334T163 353T134 361Q122 361 112 367T89 374Q29 374 29 433Q29 455 48 465T86 475Q103 475 119 471T152 466Q157 466 160 467T169 468Q185 468 200 456T230 435Q251 423 268 412T299 385T320 351T328 305Z"  />
<glyph unicode="&#x5E9;" horiz-adv-x="696" d="M677 278Q677 254 672 231T660 184Q648 143 619 110T552 52T471 15T387 2Q345 2 302 14T221 45Q207 52 189 62T155 73Q142 73 133 67T116 53T100 39T83 32Q78 32 69 37T50 49T35 64T28 77Q28 107 38 117T61 131T84 135T95 148Q95 157 87 175T69 216T51 263T42 311Q42 334 44 357T46 403Q46 450 58 493T91 576T142 650T207 714Q219 725 230 733T252 748T277 757T308 760Q335 760 364 753T421 733T470 700T507 656Q513 645 518 627T528 589T534 550T537 519Q537 513 536 511Q526 464 511 425T474 349T426 281T364 216Q358 210 344 199T316 174T291 149T280 129Q280 120 296 114T333 103T373 98T401 96Q413 96 430 100T466 110T499 125T524 142Q545 163 552 194T567 254T589 305T637 326Q660 326 668 313T677 278ZM450 539Q450 590 424 625T344 661Q323 661 300 657T256 645T216 624T187 591Q168 559 154 521T139 445Q139 424 137 404T134 362Q134 311 151 264T200 179L299 237Q303 255 313 268T337 292T363 315T386 341Q400 360 411 384T431 435T445 488T450 539Z"  />
<glyph unicode="&#x5EA;" horiz-adv-x="479" d="M473 12Q473 6 464 -3T443 -20T420 -35T402 -42Q391 -42 380 -36T357 -22T335 -4T317 13Q311 18 302 31T282 59T263 84T248 95Q240 95 233 89T220 75T208 58T200 44Q195 36 189 29T175 13Q148 -16 115 -34T48 -69Q28 -79 13 -91T-25 -109Q-60 -117 -95 -127T-168 -138Q-182 -138 -194 -136T-219 -131Q-231 -128 -247 -126T-279 -117T-305 -101T-316 -72Q-316 -65 -313 -64T-304 -60Q-289 -56 -269 -55T-228 -53T-185 -52T-146 -48Q-128 -45 -111 -42T-76 -30Q-40 -14 -2 8T69 60T123 126T147 204V206Q148 222 144 237T135 268T126 299T121 331Q121 341 134 351T165 370T200 383T227 388Q238 388 247 379Q254 372 264 351T285 305T305 256T321 220Q340 181 352 155T379 106T415 63T471 15Q473 13 473 12Z"  />
<glyph unicode="&#x5F0;" horiz-adv-x="549" d="M482 409Q482 385 476 359T463 306T450 252T444 197Q444 176 441 142T428 74T400 17T354 -7Q343 -7 337 2T327 24T324 50T323 71Q323 119 329 166T343 261Q346 283 349 305T353 350Q353 363 352 376T350 402Q350 432 368 452T417 472Q444 472 463 454T482 409ZM222 409Q222 385 216 359T203 306T190 252T184 197Q184 176 181 142T168 74T140 17T94 -7Q83 -7 77 2T67 24T64 50T63 71Q63 119 69 166T83 261Q86 283 89 305T93 350Q93 363 92 376T90 402Q90 432 108 452T157 472Q184 472 203 454T222 409Z"  />
<glyph unicode="&#x5F1;" horiz-adv-x="603" d="M536 409Q536 385 530 359T517 306T504 252T498 197Q498 176 495 142T482 74T454 17T408 -7Q397 -7 391 2T381 24T378 50T377 71Q377 119 383 166T397 261Q400 283 403 305T407 350Q407 363 406 376T404 402Q404 432 422 452T471 472Q498 472 517 454T536 409ZM245 391Q245 364 238 339T219 289T193 242T165 196Q157 182 151 168T135 141Q130 133 119 131T99 129Q89 129 76 133T63 150Q63 173 71 194T89 236T107 279T116 326Q116 338 117 356T123 393T136 426T157 446Q165 450 178 450Q206 450 225 435T245 391Z"  />
<glyph unicode="&#x5F2;" horiz-adv-x="590" d="M503 391Q503 364 496 339T477 289T451 242T423 196Q415 182 409 168T393 141Q388 133 377 131T357 129Q347 129 334 133T321 150Q321 173 329 194T347 236T365 279T374 326Q374 338 375 356T381 393T394 426T415 446Q423 450 436 450Q464 450 483 435T503 391ZM224 391Q224 364 217 339T198 289T172 242T144 196Q136 182 130 168T114 141Q109 133 98 131T78 129Q68 129 55 133T42 150Q42 173 50 194T68 236T86 279T95 326Q95 338 96 356T102 393T115 426T136 446Q144 450 157 450Q185 450 204 435T224 391Z"  />
<glyph unicode="&#x5F3;" horiz-adv-x="189" d="M184 660Q184 643 176 631T154 608T127 590T102 571Q92 562 86 551T73 528T56 510T30 502Q19 502 9 505T-13 514Q-7 533 -2 543T9 562T24 579T44 601Q51 610 58 623T74 648T93 670T119 681Q127 683 134 689T153 695Q168 695 176 685T184 660Z"  />
<glyph unicode="&#x5F4;" horiz-adv-x="329" d="M324 623Q324 606 316 594T295 572T268 553T243 534Q233 525 227 514T214 491T197 473T170 465Q159 465 149 468T127 477Q133 496 138 506T150 525T164 542T185 564Q192 573 199 586T215 611T234 633T259 644Q267 646 275 652T294 658Q309 658 316 648T324 623ZM184 623Q184 606 176 594T155 572T128 553T103 534Q93 525 87 514T74 491T57 473T30 465Q19 465 9 468T-13 477Q-7 496 -2 506T10 525T24 542T45 564Q52 573 59 586T75 611T94 633T119 644Q127 646 135 652T154 658Q169 658 176 648T184 623Z"  />
<glyph unicode="&#x200C;" horiz-adv-x="21" d="M22 0H0V795H22V0Z"  />
<glyph unicode="&#x200D;" horiz-adv-x="21" d="M78 730L63 716L22 757V0H0V757L-40 716L-56 730L-2 783L-56 835L-40 850L11 797L63 850L78 835L26 783L78 730Z"  />
<glyph unicode="&#x200E;" horiz-adv-x="21" d="M148 783L81 716L66 731L108 773H22V0H0V795H106L66 835L81 850L148 783Z"  />
<glyph unicode="&#x200F;" horiz-adv-x="21" d="M23 0H1V773H-84L-42 731L-58 716L-125 783L-58 850L-42 835L-83 795H23V0Z"  />
<glyph unicode="&#x2013;" horiz-adv-x="419" d="M391 264Q391 242 373 234T337 223Q314 221 292 220T247 219Q221 219 196 224T144 229Q133 229 124 228T103 227Q83 227 64 239T28 263Q29 267 31 275T35 291T41 305T50 311H61Q96 311 130 304T199 298H214Q231 298 247 297T281 296Q292 296 302 296T322 300Q340 305 352 305Q370 305 380 294T391 264Z"  />
<glyph unicode="&#x2014;" horiz-adv-x="519" d="M491 264Q491 242 473 234T437 223Q392 220 350 220T262 219Q253 219 244 219T227 220Q206 222 186 225T144 229Q133 229 124 228T103 227Q83 227 64 239T28 263Q29 267 31 275T35 290T41 304T50 311H61Q96 311 130 304T199 298H214Q248 298 281 297T349 296Q366 296 385 296T422 300Q440 305 452 305Q470 305 480 294T491 264Z"  />
<glyph unicode="&#x2018;" horiz-adv-x="189" d="M3 660Q3 674 11 684T34 695Q45 695 52 689T68 681Q83 679 93 670T112 649T128 623T143 601Q155 587 163 579T177 563T189 544T200 514Q189 509 179 506T157 502Q140 502 131 509T114 528T101 550T85 571Q74 581 60 589T33 608T12 630T3 660Z"  />
<glyph unicode="&#x2019;" horiz-adv-x="189" d="M184 660Q184 643 176 631T154 608T127 590T102 571Q92 562 86 551T73 528T56 510T30 502Q19 502 9 505T-13 514Q-7 533 -2 543T9 562T24 579T44 601Q51 610 58 623T74 648T93 670T119 681Q127 683 134 689T153 695Q168 695 176 685T184 660Z"  />
<glyph unicode="&#x201A;" horiz-adv-x="180" d="M88 41Q88 11 -9 -179H-23Q13 -76 13 -19Q13 6 -19 46L51 117Q87 72 88 41Z"  />
<glyph unicode="&#x201C;" horiz-adv-x="329" d="M-13 623Q-13 637 -6 647T17 658Q28 658 36 652T52 644Q66 642 76 633T95 612T111 586T126 564Q138 550 146 542T161 526T172 507T184 477Q173 472 163 469T141 465Q124 465 114 472T97 491T84 513T68 534Q57 544 43 553T17 571T-4 593T-13 623ZM127 623Q127 637 134 647T157 658Q168 658 176 652T192 644Q206 642 216 633T235 612T251 586T266 564Q278 550 286 542T301 526T312 507T324 477Q313 472 303 469T281 465Q264 465 254 472T237 491T224 513T208 534Q197 544 183 553T157 571T136 593T127 623Z"  />
<glyph unicode="&#x201D;" horiz-adv-x="329" d="M324 623Q324 606 316 594T295 572T268 553T243 534Q233 525 227 514T214 491T197 473T170 465Q159 465 149 468T127 477Q133 496 138 506T150 525T164 542T185 564Q192 573 199 586T215 611T234 633T259 644Q267 646 275 652T294 658Q309 658 316 648T324 623ZM184 623Q184 606 176 594T155 572T128 553T103 534Q93 525 87 514T74 491T57 473T30 465Q19 465 9 468T-13 477Q-7 496 -2 506T10 525T24 542T45 564Q52 573 59 586T75 611T94 633T119 644Q127 646 135 652T154 658Q169 658 176 648T184 623Z"  />
<glyph unicode="&#x201E;" horiz-adv-x="329" d="M324 224Q324 207 316 195T295 173T268 154T243 135Q233 126 227 115T214 92T197 74T170 66Q159 66 149 69T127 78Q133 97 138 107T150 126T164 143T185 165Q192 174 199 187T215 212T234 234T259 245Q267 247 275 253T294 259Q309 259 316 249T324 224ZM184 224Q184 207 176 195T155 173T128 154T103 135Q93 126 87 115T74 92T57 74T30 66Q19 66 9 69T-13 78Q-7 97 -2 107T10 126T24 143T45 165Q52 174 59 187T75 212T94 234T119 245Q127 247 135 253T154 259Q169 259 176 249T184 224Z"  />
<glyph unicode="&#x2020;" horiz-adv-x="502" d="M443 449Q443 427 426 414T387 400Q365 400 314 420Q263 440 238 440Q238 360 290 320Q238 128 238 -212H218Q218 128 166 320Q218 360 218 440Q193 440 142 420Q91 400 69 400Q47 400 30 413T13 449Q13 471 30 484T69 497Q91 497 142 477Q193 457 218 457Q218 486 194 542Q170 597 170 629Q170 655 186 675T228 696Q254 696 270 676T286 629Q286 597 262 542Q238 486 238 457Q263 457 314 477Q365 497 387 497Q409 497 426 484T443 449Z"  />
<glyph unicode="&#x2021;" horiz-adv-x="432" d="M412 1Q412 -43 362 -43Q339 -43 296 -25Q251 -8 227 -8Q226 -33 248 -85Q270 -136 270 -156Q270 -179 255 -195T216 -212Q193 -212 178 -196T162 -156Q162 -136 184 -85Q206 -33 205 -8Q181 -8 136 -25Q92 -43 70 -43Q20 -43 20 1Q20 46 70 46Q92 46 136 28Q179 10 205 10Q200 67 155 96Q205 155 205 246Q205 329 155 388Q200 417 205 474Q179 474 136 456Q92 438 70 438Q20 438 20 483Q20 527 70 527Q92 527 136 509Q181 492 205 492Q203 518 183 568Q162 620 162 640Q162 663 177 679T216 696Q239 696 254 680T270 640Q270 620 248 569Q226 517 227 492Q251 492 296 509Q339 527 362 527Q412 527 412 483Q412 438 362 438Q339 438 296 456Q252 474 227 474Q232 417 277 388Q227 329 227 246Q227 155 277 96Q232 67 227 10Q252 10 296 28Q339 46 362 46Q412 46 412 1Z"  />
<glyph unicode="&#x2022;" horiz-adv-x="449" d="M430 297Q430 213 370 152Q310 92 226 92Q141 92 80 152Q20 212 20 297Q20 382 80 441Q142 500 226 500Q310 500 370 440Q430 381 430 297Z"  />
<glyph unicode="&#x2026;" horiz-adv-x="617" d="M338 96Q338 78 322 65T288 52Q282 52 273 55T255 63T240 74T233 87Q233 107 236 114T256 134Q261 138 268 142T281 147Q287 147 293 147T306 148Q324 148 334 138Q337 127 337 117T338 96ZM118 96Q118 78 102 65T68 52Q62 52 53 55T35 63T20 74T13 87Q13 107 16 114T36 134Q41 138 48 142T61 147Q67 147 73 147T86 148Q104 148 114 138Q117 127 117 117T118 96ZM558 96Q558 78 542 65T508 52Q502 52 493 55T475 63T460 74T453 87Q453 107 456 114T476 134Q481 138 488 142T501 147Q507 147 513 147T526 148Q544 148 554 138Q557 127 557 117T558 96Z"  />
<glyph unicode="&#x2030;" horiz-adv-x="1179" d="M1148 165Q1148 92 1111 40Q1070 -16 1004 -16Q939 -16 898 40Q861 92 861 165Q861 239 898 294Q939 353 1005 353Q1071 353 1112 294Q1148 240 1148 165ZM818 165Q818 92 781 40Q740 -16 674 -16Q609 -16 568 40Q531 92 531 165Q531 239 568 294Q609 353 675 353Q741 353 782 294Q818 240 818 165ZM691 696L203 -16H158L646 696H691ZM317 508Q317 435 280 383Q239 327 173 327Q108 327 67 383Q30 435 30 508Q30 582 67 637Q108 696 174 696Q240 696 281 637Q317 583 317 508ZM1069 165Q1069 218 1058 262Q1041 327 1006 327Q967 327 951 263Q940 219 940 165Q940 10 1004 10Q1069 10 1069 165ZM739 165Q739 218 728 262Q711 327 676 327Q637 327 621 263Q610 219 610 165Q610 10 674 10Q739 10 739 165ZM238 508Q238 561 227 605Q210 670 175 670Q136 670 120 606Q109 562 109 508Q109 353 173 353Q238 353 238 508Z"  />
<glyph unicode="&#x2039;" horiz-adv-x="330" d="M280 0H249L50 230L249 459H280L152 230L280 0Z"  />
<glyph unicode="&#x203A;" horiz-adv-x="330" d="M280 230L81 0H50L178 230L50 459H81L280 230Z"  />
<glyph unicode="&#x20A7;" horiz-adv-x="968" d="M21 662H272Q347 662 403 638T491 565Q512 535 517 481Q528 494 536 505T552 527Q563 546 579 588H595V446H679V418H595V118Q595 80 599 72Q603 61 611 55T628 49Q635 49 644 54T676 81V149H694Q703 102 718 75Q733 48 761 32T813 16Q845 16 866 36T888 86Q888 111 868 137Q858 149 837 164T783 198Q719 235 697 263Q675 291 675 330Q675 384 711 420Q747 457 800 457Q824 457 866 445Q884 440 887 440Q890 440 903 445H924V311H907Q896 375 867 402T797 430Q769 430 750 411T730 367Q730 341 753 318Q770 301 839 262Q906 223 932 191Q955 159 955 121Q955 64 915 25Q874 -13 813 -13Q790 -13 750 -1Q728 6 714 6Q705 6 698 0H676V42Q648 10 629 -1T589 -13Q558 -13 538 11T517 93V117V418H507Q482 362 442 333Q390 296 317 296Q298 296 272 301T212 317V101Q212 56 232 36T299 17V0H21V17Q48 19 64 23T89 36T102 63T108 108V566Q108 605 89 624T21 645V662ZM212 349Q248 331 278 331Q302 331 323 341T361 370T387 416T397 476Q397 545 360 584T262 624Q240 624 212 615V349Z"  />
<glyph unicode="&#x20AA;" horiz-adv-x="685" d="M347 549Q347 539 344 533T336 521Q334 517 333 513T335 499Q324 491 322 487T319 480L320 481Q318 470 312 460T287 445Q267 450 264 458T260 480Q265 485 265 489L262 500V499Q261 503 261 507T260 519Q260 524 261 527Q262 531 263 537T264 546Q264 556 267 569T290 604L301 593H303L322 592Q322 582 323 580L335 584Q340 575 343 566T347 549ZM625 347V344V347ZM645 365L632 329Q632 319 626 315L625 312Q625 299 617 291V290Q616 289 615 289H614Q614 278 609 274T596 262H597L589 255L588 254V253Q586 245 583 243Q559 207 519 176T437 125Q443 123 445 121Q450 116 458 111T472 102Q477 101 481 101T490 101Q496 101 501 101T512 103Q517 114 525 120T543 133Q548 138 555 145T567 168Q577 168 579 170T583 176Q588 182 592 186T604 191Q610 191 614 185T622 171T626 156T628 146Q628 131 618 110T598 77Q589 67 576 58T547 43T517 33T489 29Q477 29 468 30T448 34Q428 34 416 44T392 67Q384 75 377 81T349 87Q348 87 348 88L347 90Q346 90 338 90T327 91Q327 114 329 121T337 132Q323 160 317 190T311 250Q311 270 314 296T322 354L327 351V353Q328 363 329 371T335 389Q339 395 342 398L353 412L354 413L381 446L414 486Q415 486 418 486T425 485H424L425 486Q428 489 434 493T451 494Q451 494 456 492L471 499H477Q481 500 485 501T492 503Q495 503 499 502T505 500Q509 501 514 501T523 501Q540 501 556 495T586 474H592Q615 451 630 429T645 374V365ZM231 542Q231 525 228 507T221 470Q214 468 213 465T209 460H211Q209 453 207 446T198 432Q197 430 196 427T191 421L203 412L155 394L128 444H142Q142 451 145 459Q144 462 144 469Q144 483 151 501Q153 505 153 510T152 524Q157 529 158 534T160 544Q162 560 167 572T198 585Q216 585 220 579T222 561L229 562Q231 555 231 550T231 542ZM283 117Q281 93 270 67T231 23Q228 23 225 21T218 9Q197 19 194 25T190 34Q190 45 194 51T204 67L207 72Q209 77 210 84T211 98Q211 127 197 142T162 171Q160 173 158 174T153 177V170Q153 148 147 129T131 92Q125 78 120 64T112 32L103 22Q99 19 96 16T87 11T72 6T48 0L58 75L70 141Q71 141 72 141T74 140V143Q74 147 74 152T75 162L77 176Q77 183 70 197L80 213Q88 230 99 244T134 259Q137 259 144 258T157 255Q163 254 168 247L167 248L173 245H174Q171 247 177 244T188 239H186Q200 234 213 226T237 202Q244 199 252 192T262 172Q266 167 267 161T272 147L274 138Q275 136 275 133L283 117ZM402 164L400 166L402 164ZM407 164H402L412 162L408 164H407ZM449 195Q447 192 451 193T452 194L449 195ZM581 351L582 375Q574 369 569 360L581 351ZM587 431L556 425Q558 420 560 415T566 404V402Q587 415 587 427V431ZM567 344Q567 349 567 352T569 360L567 363Q575 374 575 378Q575 384 572 390T566 402L564 401Q548 419 532 425T498 432Q482 432 467 424T439 402T418 372T407 339Q405 325 400 310T389 279Q385 273 383 267T379 253L391 212Q394 198 397 185T408 164Q410 166 412 168T419 176Q423 180 427 183T448 197V196Q448 195 449 195Q451 203 454 209T472 216L490 236Q507 253 522 268T546 298L544 297L552 314L564 331L567 344Z"  />
<glyph unicode="&#x20AC;" horiz-adv-x="615" d="M589 52Q509 -16 403 -16Q307 -16 231 41Q156 98 127 191H29L63 251H117Q116 256 116 260T116 266V271Q116 275 116 280T117 294H29L63 354H128Q156 445 232 501Q308 558 403 558Q509 558 589 490L558 437Q494 498 403 498Q334 498 278 459T192 354H512L476 294H177Q176 288 176 282T176 271L177 251H452L417 191H190Q218 124 274 84T403 44Q494 44 558 105L572 79L589 52Z"  />
<glyph unicode="&#x2122;" horiz-adv-x="1034" d="M1006 275H803V293Q840 293 853 315Q863 331 863 371V605H861L708 275H691L538 600H536V371Q536 329 548 313Q562 293 596 293V275H445V293Q479 293 493 313Q505 329 505 371V585Q505 627 493 644T445 662V680H591L729 392L862 680H1006V662Q968 662 955 640Q946 625 946 585V371Q946 329 958 313Q972 293 1006 293V275ZM410 578H394Q383 622 354 637Q330 648 280 648H258V371Q258 331 267 315Q280 293 319 293V275H118V293Q155 293 167 316Q175 334 175 371V648H157Q102 648 82 638Q50 623 43 578H24L36 680H401L410 578Z"  />
<glyph unicode="&#x2212;" horiz-adv-x="419" d="M391 264Q391 242 373 234T337 223Q314 221 292 220T247 219Q221 219 196 224T144 229Q133 229 124 228T103 227Q83 227 64 239T28 263Q29 267 31 275T35 291T41 305T50 311H61Q96 311 130 304T199 298H214Q231 298 247 297T281 296Q292 296 302 296T322 300Q340 305 352 305Q370 305 380 294T391 264Z"  />
<glyph unicode="&#xDB85;" horiz-adv-x="213" d="M419 297Q419 213 359 152Q299 92 215 92Q130 92 69 152Q9 212 9 297Q9 382 69 441Q131 500 215 500Q299 500 359 440Q419 381 419 297Z"  />
<glyph unicode="&#xDB86;" horiz-adv-x="449" d="M430 297Q430 213 370 152Q310 92 226 92Q141 92 80 152Q20 212 20 297Q20 382 80 441Q142 500 226 500Q310 500 370 440Q430 381 430 297Z"  />
<glyph unicode="&#xDB87;" horiz-adv-x="449" d="M430 297Q430 213 370 152Q310 92 226 92Q141 92 80 152Q20 212 20 297Q20 382 80 441Q142 500 226 500Q310 500 370 440Q430 381 430 297Z"  />
<glyph unicode="&#xDB88;" horiz-adv-x="449" d="M430 297Q430 213 370 152Q310 92 226 92Q141 92 80 152Q20 212 20 297Q20 382 80 441Q142 500 226 500Q310 500 370 440Q430 381 430 297Z"  />
<glyph unicode="&#xDB8D;" horiz-adv-x="576" d="M583 59Q583 51 579 43T570 28Q538 13 500 8T427 3Q404 3 382 4T336 11Q318 15 295 25T251 50T211 82T185 116Q182 122 179 132T173 153T167 173T160 187Q159 167 154 128T138 48T110 -21T65 -51Q54 -51 44 -45T24 -28T8 -7T-4 13Q-7 17 -7 24Q-7 33 1 40T19 55T37 72T45 94Q45 113 43 131T41 169Q41 188 41 207T43 245Q41 252 40 264T39 289T38 315T38 335V404Q38 416 42 433T55 466T76 493T103 504Q114 504 127 502T153 495T173 481T181 458Q181 456 181 454T180 450Q176 428 174 406T171 361Q171 348 172 336T174 310Q174 282 168 257Q180 258 189 269T207 296T222 326T238 350Q269 378 306 402T387 426Q406 426 429 423T472 411T505 386T519 345Q519 339 510 336T490 330T467 327T452 325Q431 322 410 318T369 305T333 284T307 250Q300 237 296 221T291 190Q291 175 297 162Q316 144 332 130T366 106T403 91T452 86Q472 86 490 90T529 94Q547 94 565 88T583 59ZM254 202Q254 213 254 223T250 244Q240 254 222 254Q216 254 210 254T197 253Q191 253 184 249T172 240Q156 228 153 221T149 193Q149 186 155 180T171 169T189 161T204 158Q221 158 237 171T254 202Z"  />
<glyph unicode="&#xE802;" horiz-adv-x="443" d="M446 316Q446 296 435 277T410 244Q372 204 325 183T223 150Q211 147 199 145T173 141Q164 139 158 113T146 55T138 -8T134 -48Q130 -90 123 -130T109 -213Q106 -234 103 -262T96 -318T84 -373T66 -418Q52 -441 27 -441Q14 -441 9 -433T3 -414Q3 -379 9 -346T22 -278Q27 -253 29 -229T32 -179Q34 -116 41 -54T49 72Q49 118 43 163T36 254Q36 262 42 270T58 285T77 296T94 300Q118 300 134 288T167 260T201 233T248 220Q258 220 263 221T277 229Q282 233 285 237T293 245Q300 251 309 257T326 271T339 288T345 308Q345 329 322 343T267 366T205 381T158 390Q132 382 106 378T53 373Q47 373 39 373T23 376T10 384T5 398Q5 407 10 416T20 433Q44 468 82 477T160 487Q173 487 185 488T210 489Q233 489 253 482Q279 473 307 465T358 440Q372 430 387 417T416 387T437 353T446 316Z"  />
<glyph unicode="&#xE803;" horiz-adv-x="443" d="M446 316Q446 296 435 277T410 244Q372 204 325 183T223 150Q211 147 199 145T173 141Q164 139 158 113T146 55T138 -8T134 -48Q130 -90 123 -130T109 -213Q106 -234 103 -262T96 -318T84 -373T66 -418Q52 -441 27 -441Q14 -441 9 -433T3 -414Q3 -379 9 -346T22 -278Q27 -253 29 -229T32 -179Q34 -116 41 -54T49 72Q49 118 43 163T36 254Q36 262 42 270T58 285T77 296T94 300Q118 300 134 288T167 260T201 233T248 220Q258 220 263 221T277 229Q282 233 285 237T293 245Q300 251 309 257T326 271T339 288T345 308Q345 329 322 343T267 366T205 381T158 390Q132 382 106 378T53 373Q47 373 39 373T23 376T10 384T5 398Q5 407 10 416T20 433Q44 468 82 477T160 487Q173 487 185 488T210 489Q233 489 253 482Q279 473 307 465T358 440Q372 430 387 417T416 387T437 353T446 316Z"  />
<glyph unicode="&#xE804;" horiz-adv-x="349" d="M555 760Q555 749 550 742T537 732T520 727T502 725Q474 725 447 717T396 691Q350 656 328 614T295 525T280 428T267 328Q262 298 253 264T232 194T207 126T179 65Q168 44 153 33T120 16T82 9T41 8Q18 8 14 17T9 46Q9 67 12 78T22 96T40 109T66 124Q92 140 111 172T142 241T160 317T166 385Q166 408 173 430T185 474Q192 507 198 541T214 607T239 670T279 725Q295 741 322 757T371 781Q403 792 436 804T504 817Q514 817 523 812T540 798T551 780T555 760Z"  />
<glyph unicode="&#xE805;" horiz-adv-x="349" d="M555 760Q555 749 550 742T537 732T520 727T502 725Q474 725 447 717T396 691Q350 656 328 614T295 525T280 428T267 328Q262 298 253 264T232 194T207 126T179 65Q168 44 153 33T120 16T82 9T41 8Q18 8 14 17T9 46Q9 67 12 78T22 96T40 109T66 124Q92 140 111 172T142 241T160 317T166 385Q166 408 173 430T185 474Q192 507 198 541T214 607T239 670T279 725Q295 741 322 757T371 781Q403 792 436 804T504 817Q514 817 523 812T540 798T551 780T555 760ZM121 269Q121 251 105 238T71 225Q65 225 56 228T38 236T23 247T16 260Q16 280 19 287T39 307Q44 311 51 315T64 320Q70 320 76 320T89 321Q107 321 117 311Q120 300 120 290T121 269Z"  />
<glyph unicode="&#xE890;" horiz-adv-x="634" d="M589 328Q589 262 562 206T487 106Q476 96 463 85T436 63T406 44T376 31Q361 27 340 24T297 19T254 15T217 14Q173 14 141 31T87 76T56 142T45 220Q45 256 53 307T78 409T119 504T174 569Q217 600 270 600Q287 600 303 597T336 588Q375 575 419 550T501 491T564 416T589 328ZM507 302Q507 333 497 350T467 390Q452 406 429 425T379 462T326 490T277 502Q261 502 248 495Q237 489 230 480T217 461T206 439T195 418Q173 384 157 354T141 281V246Q141 227 141 207T145 167Q149 147 162 133T194 110T232 94T271 85Q274 84 283 84Q298 84 316 89T353 101T388 118T417 136Q457 165 482 208T507 302Z"  />
<glyph unicode="&#xE891;" horiz-adv-x="393" d="M353 569Q353 537 350 506T341 444Q337 420 331 397T320 350Q310 299 305 248T299 144Q299 133 301 122T303 99Q303 90 301 77T295 51T282 29T263 20Q252 20 245 26T233 41T226 60T224 79L226 94Q229 112 231 130T233 167Q233 234 217 297Q208 282 190 254T149 196T103 146T62 124Q41 124 33 137T25 169Q25 188 29 203Q37 213 53 233T87 279T126 332T163 384T191 429T205 458Q209 482 215 502T229 542T244 581T258 624Q260 631 263 640T270 658T281 672T298 678Q317 678 328 666T344 637T351 601T353 569Z"  />
<glyph unicode="&#xE892;" horiz-adv-x="438" d="M389 383Q389 357 383 337T364 293Q357 280 353 268T342 244T327 223T303 207Q319 168 327 127T353 46Q354 42 358 37T366 25T374 14T378 4Q378 -2 379 -8T383 -20Q374 -22 365 -24T346 -27Q331 -27 318 -20Q304 -1 293 19T272 61T252 102T228 142Q196 137 165 126T101 115Q65 115 37 136Q34 139 30 148T22 169T15 190T12 205V207Q18 245 45 274T106 320Q109 322 116 325T127 328Q151 328 182 323T233 301Q240 294 246 287T264 278Q265 287 271 295T285 312T298 331T304 353Q304 376 293 403T264 444Q247 458 227 464T184 471Q167 471 148 469T113 458Q108 455 103 450T90 444Q84 444 77 448Q69 460 67 470T65 494Q65 501 65 507T71 519Q81 533 96 544T128 562T163 574T198 578Q214 578 232 573Q271 565 297 552T354 513Q367 502 374 487T384 453T388 417T389 383ZM168 216Q168 225 156 234T135 243Q125 243 115 236T105 218Q105 207 114 203T132 198Q140 198 154 202T168 216Z"  />
<glyph unicode="&#xE893;" horiz-adv-x="541" d="M535 182Q535 155 516 126T470 70T412 23T357 -5Q343 -10 329 -11T301 -13Q284 -13 267 -12T232 -10Q190 -10 148 -2T72 35Q40 61 23 99T6 180Q6 189 11 207T25 242T45 273T67 286Q79 286 90 280T106 261Q101 247 100 234T98 206Q98 170 110 143T142 97T191 68T253 56H255Q267 55 288 59T331 71T372 88T399 106Q414 120 430 142T446 187Q446 207 432 219T397 237T354 245T318 247Q300 247 286 243T259 233T234 223T210 218Q204 218 196 222T180 232T167 246T162 260Q162 279 173 292T201 314Q221 324 239 329T274 341T304 360T328 397Q333 411 338 428T344 459Q344 482 331 490T297 498Q280 498 265 493T236 480T207 468T177 462Q165 462 162 475T158 497Q158 508 163 523Q165 528 184 540T226 565T270 588T298 600Q303 601 309 601T320 601Q354 601 376 593T412 567T430 526T435 470Q435 437 424 402T393 339Q402 337 414 335T440 330T464 323T483 312Q493 303 502 287T519 252T530 214T535 182Z"  />
<glyph unicode="&#xE894;" horiz-adv-x="580" d="M582 249Q582 233 570 220T541 207Q524 207 507 213T473 220Q460 220 452 214T440 197T433 175T431 153Q431 139 427 127T422 101Q422 93 424 86T427 71Q427 65 425 57T420 42T411 29T398 23Q391 23 384 29T370 45T359 65T355 81Q353 108 353 136T353 191Q353 212 358 237Q345 243 329 247T299 252Q288 252 279 251T258 250Q244 250 231 253T205 261T178 268T151 272Q130 272 110 269T68 265Q57 265 45 268T23 277T5 292T-2 313Q-2 325 0 336T13 356Q28 368 48 371T91 375T135 378T176 390Q227 419 263 464T333 555Q339 563 346 573T360 591T377 605T398 611Q410 611 422 603T443 582T459 555T465 530Q465 482 460 437T455 344Q455 318 469 302T510 285Q517 285 529 283T553 277T573 266T582 249ZM376 495Q366 481 352 468T325 442Q299 416 273 392T221 343Q244 340 268 337T315 334Q325 334 340 328T366 319L376 495Z"  />
<glyph unicode="&#xE895;" horiz-adv-x="557" d="M539 256Q539 223 532 186T511 117Q503 99 493 86T470 62T444 41T415 20Q377 -8 338 -14T253 -21Q224 -21 189 -14T130 10Q109 25 89 48T53 99T28 156T18 211Q18 223 21 239T30 270T48 294T75 304Q91 304 103 290T115 260Q115 241 107 225T98 189Q98 176 107 166T124 146Q140 128 155 115T186 92T222 78T266 73Q295 73 328 84T390 114T438 161T457 221Q457 236 455 254T447 291T434 326T415 353Q397 370 372 377T323 384Q319 384 316 385T308 386Q304 386 300 383Q290 377 279 373T256 365T234 357T216 346Q202 333 190 324T157 315Q151 315 147 319T141 331T138 344T137 356Q137 374 142 390T154 423T168 455T180 488Q183 501 184 518T188 552T197 583T216 606Q220 608 225 610T235 613L465 624Q470 629 476 629Q483 629 489 624T501 610T509 594T512 579Q512 561 496 553T457 541T412 538T378 539Q368 539 351 537T316 530T285 516T272 494Q272 483 282 476T303 468Q317 468 329 473T356 478Q393 478 426 458T486 412Q500 398 510 379T526 339T536 297T539 256Z"  />
<glyph unicode="&#xE896;" horiz-adv-x="565" d="M549 178Q549 130 518 100T443 53T349 29T264 23Q247 23 231 24T199 27Q160 33 127 55T69 110T30 180T16 257Q16 309 26 349T54 424T99 492T157 563Q174 582 197 600T246 631T300 653T354 662Q389 662 421 647T480 609Q480 604 480 599T481 589Q481 575 477 566T456 556Q439 556 425 565T400 574Q349 574 300 552T211 492T148 407T123 308Q123 297 126 283T133 255T143 227T153 203Q163 222 180 247T218 297T262 339T308 362Q315 364 321 364T335 364Q349 364 366 363T402 358T436 348T465 334Q476 326 486 313T504 288Q523 263 536 237T549 178ZM459 186Q448 197 438 211T417 238T392 259T360 268Q343 268 320 255T277 222T242 180T227 142Q227 131 239 125T267 116T299 111T323 110Q341 110 353 111T375 115T397 123T423 136Q442 146 451 154T459 186Z"  />
<glyph unicode="&#xE897;" horiz-adv-x="542" d="M525 569Q525 563 524 557T522 544Q522 532 516 523T501 505T482 490T464 477Q454 469 444 463T420 456Q406 456 392 459T364 462Q342 462 335 454T320 427Q313 413 304 395T294 361Q294 347 299 340T314 329T333 326T355 325Q366 325 377 326T399 327Q406 327 416 324T435 316T450 304T456 287Q456 276 452 270T440 261T424 258T407 257Q340 257 282 241Q278 221 274 202T270 162Q270 139 269 115T263 69Q258 49 239 35T199 21Q193 21 188 23T182 34Q182 76 190 115T199 196Q199 209 199 222T201 248Q175 247 148 246T95 245Q83 245 69 246T44 252T25 266T17 292Q17 312 29 329T64 347Q75 347 86 346T108 342L200 330L208 352Q211 361 215 374T224 402T232 429T235 452Q235 457 238 462T241 474Q230 479 210 489T165 511T114 539T68 569T34 599T20 627Q20 634 24 643T34 660T48 673T64 679Q83 679 93 670T112 649T129 623T152 603Q161 598 175 591T206 576T236 563T260 557Q274 557 284 560T303 578Q313 595 323 610T346 638T375 657T414 664Q431 664 446 662T475 647Q481 641 489 632T506 611T519 589T525 569ZM462 569Q462 580 449 587T427 594Q420 594 408 589T384 576T364 559T355 542Q355 541 357 541L359 540Q370 536 382 535T406 533Q415 533 424 534T442 540T456 551T462 569Z"  />
<glyph unicode="&#xE898;" horiz-adv-x="556" d="M531 118Q531 100 524 88T505 70T479 60T449 57Q421 57 394 55T340 47Q314 42 287 38T234 33Q208 33 181 35T128 37Q120 37 113 35T98 33Q88 33 76 39T52 56T33 78T25 101Q25 110 26 115T33 129Q38 137 50 146T76 165T104 184T127 200Q135 206 151 220T183 250T211 281T223 307Q223 311 220 316Q212 327 201 334T180 351Q161 368 144 385T108 420Q94 432 81 442T68 474Q68 494 77 510T98 542Q111 551 132 564T176 590T221 612T258 621Q260 621 268 624T287 632T308 639T324 643Q340 643 355 641T386 638Q408 638 423 629T448 605T461 571T465 533Q465 518 464 510T454 488Q444 472 440 455T429 421Q423 406 412 393T391 366T372 338T364 305L461 219Q470 211 482 199T505 173T523 145T531 118ZM371 526Q371 535 369 538T356 541Q335 541 311 537T263 524T218 502T184 472L297 380Q306 392 318 410T343 449T363 490T371 526ZM404 136Q401 142 385 159T349 196T311 230T289 245Q282 239 264 225T227 195T192 166T174 148Q172 143 171 139T169 129Q177 124 182 124Q190 124 196 126T210 129Q238 129 265 127T320 125Q340 125 362 127T404 136Z"  />
<glyph unicode="&#xE899;" horiz-adv-x="419" d="M393 515Q393 495 390 471T373 429Q368 423 363 418T358 404Q358 395 359 386T360 368Q360 334 348 301T322 235T295 168T283 98Q283 87 279 73T268 47T251 27T227 18Q220 18 216 22T209 34T206 48T205 61Q205 73 207 85T209 110Q209 115 209 118T207 127L267 352Q249 363 220 364T158 368T94 382T41 425Q32 438 29 456T26 490Q26 513 29 533T45 573Q58 595 78 614T122 647T172 669T225 677Q250 677 281 670T333 647Q359 625 376 587T393 515ZM300 520Q300 536 292 548T272 568T244 581T215 586Q197 586 181 579T154 559T136 530T129 495Q129 483 145 473T182 457T223 447T254 443Q267 443 276 451T290 471T298 496T300 520Z"  />
<glyph unicode="&#xFB01;" horiz-adv-x="538" d="M518 0H34V18Q78 18 93 39Q106 55 106 107V425H18V459H106V528Q106 564 118 595T154 648T212 683T292 696Q363 696 402 677Q449 654 449 615Q449 576 408 576Q372 576 359 598L341 640Q326 662 288 662Q245 662 217 637T189 576V459H446V107Q446 56 460 37T518 18V0ZM363 353Q363 400 359 409Q355 425 333 425H189V107Q189 56 203 37T261 18H291Q335 18 350 39Q363 55 363 107V353Z"  />
<glyph unicode="&#xFB02;" horiz-adv-x="587" d="M563 0H336V18Q380 18 395 39Q408 55 408 107V550Q408 569 408 581T407 599Q398 576 368 576Q337 576 315 619Q293 662 258 662Q245 662 233 655T211 636T195 609T189 576V459H301V425H189V107Q189 56 203 37T261 18V0H34V18Q78 18 93 39Q106 55 106 107V425H18V459H106V528Q106 597 151 647Q197 696 262 696Q351 696 389 661L467 696H491V107Q491 56 505 37T563 18V0Z"  />
<glyph unicode="&#xFB1F;" horiz-adv-x="548" d="M480 -13H103V28H480V-13ZM503 391Q503 364 496 339T477 289T451 242T423 196Q415 182 409 168T393 141Q388 133 377 131T357 129Q347 129 334 133T321 150Q321 173 329 194T347 236T365 279T374 326Q374 338 375 356T381 393T394 426T415 446Q423 450 436 450Q464 450 483 435T503 391ZM224 391Q224 364 217 339T198 289T172 242T144 196Q136 182 130 168T114 141Q109 133 98 131T78 129Q68 129 55 133T42 150Q42 173 50 194T68 236T86 279T95 326Q95 338 96 356T102 393T115 426T136 446Q144 450 157 450Q185 450 204 435T224 391Z"  />
<glyph unicode="&#xFB20;" horiz-adv-x="413" d="M436 604Q436 584 434 564T419 527Q410 514 397 501T373 473T353 444T344 411Q344 402 356 388T383 354T410 306T422 245Q422 224 414 200Q402 164 380 134T330 81T268 40T198 14Q188 12 178 10T157 8Q135 8 119 16T91 39T73 73T67 112Q67 122 68 135T73 163T80 190T89 212L186 382Q181 402 164 413T125 430T76 438T25 442T-18 448T-46 462Q-52 469 -57 477T-62 495Q-62 507 -53 514T-31 526T-5 531T18 533Q32 533 44 531T70 526Q83 524 95 523T120 520Q155 513 190 502T257 474Q257 477 264 486T280 507T298 529T310 544Q321 560 331 576T351 611Q356 622 362 633T383 644Q400 644 418 634T436 604ZM298 200Q298 206 298 221T297 253T291 282T279 295Q268 295 252 274T220 226T193 173T182 135Q182 125 188 117T205 109Q217 109 231 118T258 139T282 166T298 190V200Z"  />
<glyph unicode="&#xFB21;" horiz-adv-x="396" d="M403 297Q403 213 343 152Q283 92 199 92Q114 92 53 152Q-7 212 -7 297Q-7 382 53 441Q115 500 199 500Q283 500 343 440Q403 381 403 297Z"  />
<glyph unicode="&#xFB22;" horiz-adv-x="474" d="M442 297Q442 213 382 152Q322 92 238 92Q153 92 92 152Q32 212 32 297Q32 382 92 441Q154 500 238 500Q322 500 382 440Q442 381 442 297Z"  />
<glyph unicode="&#xFB23;" horiz-adv-x="418" d="M388 297Q388 213 328 152Q268 92 184 92Q99 92 38 152Q-22 212 -22 297Q-22 382 38 441Q100 500 184 500Q268 500 328 440Q388 381 388 297Z"  />
<glyph unicode="&#xFB24;" horiz-adv-x="442" d="M412 297Q412 213 352 152Q292 92 208 92Q123 92 62 152Q2 212 2 297Q2 382 62 441Q124 500 208 500Q292 500 352 440Q412 381 412 297Z"  />
<glyph unicode="&#xFB25;" horiz-adv-x="213" d="M419 297Q419 213 359 152Q299 92 215 92Q130 92 69 152Q9 212 9 297Q9 382 69 441Q131 500 215 500Q299 500 359 440Q419 381 419 297Z"  />
<glyph unicode="&#xFB26;" horiz-adv-x="449" d="M430 297Q430 213 370 152Q310 92 226 92Q141 92 80 152Q20 212 20 297Q20 382 80 441Q142 500 226 500Q310 500 370 440Q430 381 430 297Z"  />
<glyph unicode="&#xFB27;" horiz-adv-x="449" d="M430 297Q430 213 370 152Q310 92 226 92Q141 92 80 152Q20 212 20 297Q20 382 80 441Q142 500 226 500Q310 500 370 440Q430 381 430 297Z"  />
<glyph unicode="&#xFB28;" horiz-adv-x="449" d="M430 297Q430 213 370 152Q310 92 226 92Q141 92 80 152Q20 212 20 297Q20 382 80 441Q142 500 226 500Q310 500 370 440Q430 381 430 297Z"  />
<glyph unicode="&#xFB29;" horiz-adv-x="452" d="M424 209H28V317H172V459H280V317H424V209Z"  />
<glyph unicode="&#xFB2A;" horiz-adv-x="696" d="M677 278Q677 254 672 231T660 184Q648 143 619 110T552 52T471 15T387 2Q345 2 302 14T221 45Q207 52 189 62T155 73Q142 73 133 67T116 53T100 39T83 32Q78 32 69 37T50 49T35 64T28 77Q28 107 38 117T61 131T84 135T95 148Q95 157 87 175T69 216T51 263T42 311Q42 334 44 357T46 403Q46 450 58 493T91 576T142 650T207 714Q219 725 230 733T252 748T277 757T308 760Q335 760 364 753T421 733T470 700T507 656Q513 645 518 627T528 589T534 550T537 519Q537 513 536 511Q526 464 511 425T474 349T426 281T364 216Q358 210 344 199T316 174T291 149T280 129Q280 120 296 114T333 103T373 98T401 96Q413 96 430 100T466 110T499 125T524 142Q545 163 552 194T567 254T589 305T637 326Q660 326 668 313T677 278ZM450 539Q450 590 424 625T344 661Q323 661 300 657T256 645T216 624T187 591Q168 559 154 521T139 445Q139 424 137 404T134 362Q134 311 151 264T200 179L299 237Q303 255 313 268T337 292T363 315T386 341Q400 360 411 384T431 435T445 488T450 539Z"  />
<glyph unicode="&#xFB2B;" horiz-adv-x="696" d="M677 278Q677 254 672 231T660 184Q648 143 619 110T552 52T471 15T387 2Q345 2 302 14T221 45Q207 52 189 62T155 73Q142 73 133 67T116 53T100 39T83 32Q78 32 69 37T50 49T35 64T28 77Q28 107 38 117T61 131T84 135T95 148Q95 157 87 175T69 216T51 263T42 311Q42 334 44 357T46 403Q46 450 58 493T91 576T142 650T207 714Q219 725 230 733T252 748T277 757T308 760Q335 760 364 753T421 733T470 700T507 656Q513 645 518 627T528 589T534 550T537 519Q537 513 536 511Q526 464 511 425T474 349T426 281T364 216Q358 210 344 199T316 174T291 149T280 129Q280 120 296 114T333 103T373 98T401 96Q413 96 430 100T466 110T499 125T524 142Q545 163 552 194T567 254T589 305T637 326Q660 326 668 313T677 278ZM450 539Q450 590 424 625T344 661Q323 661 300 657T256 645T216 624T187 591Q168 559 154 521T139 445Q139 424 137 404T134 362Q134 311 151 264T200 179L299 237Q303 255 313 268T337 292T363 315T386 341Q400 360 411 384T431 435T445 488T450 539Z"  />
<glyph unicode="&#xFB2C;" horiz-adv-x="696" d="M677 278Q677 254 672 231T660 184Q648 143 619 110T552 52T471 15T387 2Q345 2 302 14T221 45Q207 52 189 62T155 73Q142 73 133 67T116 53T100 39T83 32Q78 32 69 37T50 49T35 64T28 77Q28 107 38 117T61 131T84 135T95 148Q95 157 87 175T69 216T51 263T42 311Q42 334 44 357T46 403Q46 450 58 493T91 576T142 650T207 714Q219 725 230 733T252 748T277 757T308 760Q335 760 364 753T421 733T470 700T507 656Q513 645 518 627T528 589T534 550T537 519Q537 513 536 511Q526 464 511 425T474 349T426 281T364 216Q358 210 344 199T316 174T291 149T280 129Q280 120 296 114T333 103T373 98T401 96Q413 96 430 100T466 110T499 125T524 142Q545 163 552 194T567 254T589 305T637 326Q660 326 668 313T677 278ZM450 539Q450 590 424 625T344 661Q323 661 300 657T256 645T216 624T187 591Q168 559 154 521T139 445Q139 424 137 404T134 362Q134 311 151 264T200 179L299 237Q303 255 313 268T337 292T363 315T386 341Q400 360 411 384T431 435T445 488T450 539ZM525 207Q525 189 509 176T475 163Q469 163 460 166T442 174T427 185T420 198Q420 218 423 225T443 245Q448 249 455 253T468 258Q474 258 480 258T493 259Q511 259 521 249Q524 238 524 228T525 207Z"  />
<glyph unicode="&#xFB2D;" horiz-adv-x="696" d="M677 278Q677 254 672 231T660 184Q648 143 619 110T552 52T471 15T387 2Q345 2 302 14T221 45Q207 52 189 62T155 73Q142 73 133 67T116 53T100 39T83 32Q78 32 69 37T50 49T35 64T28 77Q28 107 38 117T61 131T84 135T95 148Q95 157 87 175T69 216T51 263T42 311Q42 334 44 357T46 403Q46 450 58 493T91 576T142 650T207 714Q219 725 230 733T252 748T277 757T308 760Q335 760 364 753T421 733T470 700T507 656Q513 645 518 627T528 589T534 550T537 519Q537 513 536 511Q526 464 511 425T474 349T426 281T364 216Q358 210 344 199T316 174T291 149T280 129Q280 120 296 114T333 103T373 98T401 96Q413 96 430 100T466 110T499 125T524 142Q545 163 552 194T567 254T589 305T637 326Q660 326 668 313T677 278ZM450 539Q450 590 424 625T344 661Q323 661 300 657T256 645T216 624T187 591Q168 559 154 521T139 445Q139 424 137 404T134 362Q134 311 151 264T200 179L299 237Q303 255 313 268T337 292T363 315T386 341Q400 360 411 384T431 435T445 488T450 539ZM525 207Q525 189 509 176T475 163Q469 163 460 166T442 174T427 185T420 198Q420 218 423 225T443 245Q448 249 455 253T468 258Q474 258 480 258T493 259Q511 259 521 249Q524 238 524 228T525 207Z"  />
<glyph unicode="&#xFB2E;" horiz-adv-x="576" d="M356 -158H200V-115H356V-158ZM583 59Q583 51 579 43T570 28Q538 13 500 8T427 3Q404 3 382 4T336 11Q318 15 295 25T251 50T211 82T185 116Q182 122 179 132T173 153T167 173T160 187Q159 167 154 128T138 48T110 -21T65 -51Q54 -51 44 -45T24 -28T8 -7T-4 13Q-7 17 -7 24Q-7 33 1 40T19 55T37 72T45 94Q45 113 43 131T41 169Q41 188 41 207T43 245Q41 252 40 264T39 289T38 315T38 335V404Q38 416 42 433T55 466T76 493T103 504Q114 504 127 502T153 495T173 481T181 458Q181 456 181 454T180 450Q176 428 174 406T171 361Q171 348 172 336T174 310Q174 282 168 257Q180 258 189 269T207 296T222 326T238 350Q269 378 306 402T387 426Q406 426 429 423T472 411T505 386T519 345Q519 339 510 336T490 330T467 327T452 325Q431 322 410 318T369 305T333 284T307 250Q300 237 296 221T291 190Q291 175 297 162Q316 144 332 130T366 106T403 91T452 86Q472 86 490 90T529 94Q547 94 565 88T583 59Z"  />
<glyph unicode="&#xFB2F;" horiz-adv-x="576" d="M346 -158H283L288 -207Q288 -212 289 -215Q289 -218 290 -219V-264H246V-219L248 -207Q250 -199 250 -187T253 -158H190V-115H346V-158ZM583 59Q583 51 579 43T570 28Q538 13 500 8T427 3Q404 3 382 4T336 11Q318 15 295 25T251 50T211 82T185 116Q182 122 179 132T173 153T167 173T160 187Q159 167 154 128T138 48T110 -21T65 -51Q54 -51 44 -45T24 -28T8 -7T-4 13Q-7 17 -7 24Q-7 33 1 40T19 55T37 72T45 94Q45 113 43 131T41 169Q41 188 41 207T43 245Q41 252 40 264T39 289T38 315T38 335V404Q38 416 42 433T55 466T76 493T103 504Q114 504 127 502T153 495T173 481T181 458Q181 456 181 454T180 450Q176 428 174 406T171 361Q171 348 172 336T174 310Q174 282 168 257Q180 258 189 269T207 296T222 326T238 350Q269 378 306 402T387 426Q406 426 429 423T472 411T505 386T519 345Q519 339 510 336T490 330T467 327T452 325Q431 322 410 318T369 305T333 284T307 250Q300 237 296 221T291 190Q291 175 297 162Q316 144 332 130T366 106T403 91T452 86Q472 86 490 90T529 94Q547 94 565 88T583 59Z"  />
<glyph unicode="&#xFB30;" horiz-adv-x="576" d="M309 -137Q309 -151 300 -160T276 -170Q262 -170 253 -161T243 -137Q243 -123 252 -114T276 -104Q290 -104 299 -113T309 -137ZM583 59Q583 51 579 43T570 28Q538 13 500 8T427 3Q404 3 382 4T336 11Q318 15 295 25T251 50T211 82T185 116Q182 122 179 132T173 153T167 173T160 187Q159 167 154 128T138 48T110 -21T65 -51Q54 -51 44 -45T24 -28T8 -7T-4 13Q-7 17 -7 24Q-7 33 1 40T19 55T37 72T45 94Q45 113 43 131T41 169Q41 188 41 207T43 245Q41 252 40 264T39 289T38 315T38 335V404Q38 416 42 433T55 466T76 493T103 504Q114 504 127 502T153 495T173 481T181 458Q181 456 181 454T180 450Q176 428 174 406T171 361Q171 348 172 336T174 310Q174 282 168 257Q180 258 189 269T207 296T222 326T238 350Q269 378 306 402T387 426Q406 426 429 423T472 411T505 386T519 345Q519 339 510 336T490 330T467 327T452 325Q431 322 410 318T369 305T333 284T307 250Q300 237 296 221T291 190Q291 175 297 162Q316 144 332 130T366 106T403 91T452 86Q472 86 490 90T529 94Q547 94 565 88T583 59Z"  />
<glyph unicode="&#xFB31;" horiz-adv-x="555" d="M554 257Q554 218 544 185T499 129Q474 112 444 102T383 91Q338 91 297 108T218 146Q207 144 198 137T189 117Q177 95 169 69T149 21T119 -17T67 -32Q61 -32 53 -32T36 -29T22 -22T16 -8Q27 17 37 42T58 93Q62 103 70 124T88 170T110 221T135 268T161 303T187 317Q213 317 230 304T260 268Q268 254 279 239T303 210T333 189T367 180Q380 180 394 182T418 190T436 206T443 233Q443 246 439 261T427 292T411 320T394 345Q379 364 355 379T303 403T246 418T193 423Q161 423 134 418T77 400Q68 397 60 393T43 385Q41 384 36 384T29 383Q1 383 1 410Q1 425 10 439T32 465T61 487T89 502Q114 513 149 517T211 521Q275 521 335 502T449 449Q460 443 470 437T489 422Q495 416 500 409T511 395Q527 375 535 361T548 331T553 299T554 257ZM378 303Q378 285 362 272T328 259Q322 259 313 262T295 270T280 281T273 294Q273 314 276 321T296 341Q301 345 308 349T321 354Q327 354 333 354T346 355Q364 355 374 345Q377 334 377 324T378 303Z"  />
<glyph unicode="&#xFB32;" horiz-adv-x="735" d="M748 191Q748 176 741 166Q679 125 631 101T537 64T438 43T313 28Q298 26 284 25T254 24Q228 24 197 27T135 36T75 54T26 83Q2 103 -11 132T-25 193Q-25 197 -22 203T-17 213Q-5 235 16 254T62 289T112 320T159 348Q124 375 102 414T80 499Q80 507 80 516T83 534Q89 557 109 568T152 580Q177 580 186 569T198 541T201 503T208 462T232 426T287 401Q303 398 322 398Q354 398 385 403T448 409Q461 409 479 405T515 391T545 369T557 340Q557 317 539 308T495 296T444 294T403 296Q397 296 392 296T380 295Q368 294 344 288T292 272T233 250T178 223T137 195T121 166Q121 152 133 143T157 128Q177 120 201 119T246 118Q254 118 263 117T280 116Q322 116 382 122T504 142T621 176T708 225Q712 228 715 231T724 234Q731 234 735 229T743 218T747 204T748 191ZM399 198Q399 180 383 167T349 154Q343 154 334 157T316 165T301 176T294 189Q294 209 297 216T317 236Q322 240 329 244T342 249Q348 249 354 249T367 250Q385 250 395 240Q398 229 398 219T399 198Z"  />
<glyph unicode="&#xFB33;" horiz-adv-x="475" d="M443 442Q443 413 432 391T407 351T382 324T371 311Q371 307 378 298T395 274T411 242T419 204Q419 190 414 178T401 154Q390 139 371 109T330 48T285 -4T243 -27Q230 -27 219 -17T207 6Q207 25 225 50T265 101T305 154T323 201Q323 216 312 224T284 237T250 242T223 243Q214 243 205 243T187 242Q161 240 137 232T86 224Q84 224 79 226T71 229Q56 236 49 246T41 273L43 289Q47 308 68 321T116 341T170 352T213 355Q218 355 222 355T232 354Q243 354 263 355T302 361T336 375T351 401Q351 411 346 420T335 437Q315 441 295 444T255 447Q220 447 186 441T116 427Q99 424 83 421T50 418Q41 418 37 425T32 440Q32 455 38 472T55 500Q70 518 89 527T130 541T174 547T218 548Q236 548 260 548T309 544T358 535T401 517T431 487T443 442ZM245 156Q245 138 229 125T195 112Q189 112 180 115T162 123T147 134T140 147Q140 167 143 174T163 194Q168 198 175 202T188 207Q194 207 200 207T213 208Q231 208 241 198Q244 187 244 177T245 156Z"  />
<glyph unicode="&#xFB34;" horiz-adv-x="518" d="M488 273Q488 227 478 185T438 107Q427 94 403 71T351 26T296 -13T253 -30Q239 -30 235 -21T231 0Q231 15 250 34T293 75T340 123T373 176Q380 200 380 230Q380 262 371 294T337 349Q328 358 314 368T283 386T251 400T222 406Q205 406 188 405T154 403Q145 403 131 403T104 408T82 419T72 440Q72 460 86 476T120 503T163 519T202 525Q249 525 299 505T392 450T461 369T488 273ZM294 251Q294 219 285 190T258 135T218 89T167 54Q153 46 136 38T100 21T63 8T28 3Q13 3 -4 11T-22 38Q-22 48 -13 54T8 65T33 70T53 72Q71 72 94 88T139 128T176 177T191 220Q191 238 177 246T146 260T114 273T100 295Q100 305 107 316T125 338T148 354T171 360Q188 360 209 350T249 324T281 289T294 251ZM138 189Q138 171 122 158T88 145Q82 145 73 148T55 156T40 167T33 180Q33 200 36 207T56 227Q61 231 68 235T81 240Q87 240 93 240T106 241Q124 241 134 231Q137 220 137 210T138 189Z"  />
<glyph unicode="&#xFB35;" horiz-adv-x="310" d="M243 409Q243 385 237 359T224 306T211 252T205 197Q205 176 202 142T189 74T161 17T115 -7Q104 -7 98 2T88 24T85 50T84 71Q84 119 90 166T104 261Q107 283 110 305T114 350Q114 363 113 376T111 402Q111 432 129 452T178 472Q205 472 224 454T243 409ZM72 246Q72 228 56 215T22 202Q16 202 7 205T-11 213T-26 224T-33 237Q-33 257 -30 264T-10 284Q-5 288 2 292T15 297Q21 297 27 297T40 298Q58 298 68 288Q71 277 71 267T72 246Z"  />
<glyph unicode="&#xFB36;" horiz-adv-x="746" d="M723 163Q723 160 723 157T722 150Q714 111 692 87T639 49T574 29T505 18Q470 13 434 7T362 1Q324 1 287 3T213 14Q191 19 167 23T120 34T75 49T37 75Q22 90 12 109T1 151Q1 185 22 194T72 203Q81 203 94 200T108 184Q108 177 105 173T101 164Q101 153 111 143T130 126Q166 97 211 92T302 86Q332 86 362 88T422 92Q438 101 459 104T502 112T542 124T570 148Q572 150 574 155T576 162Q576 171 562 175T530 182T494 185T470 189Q452 193 431 201T390 221T359 251T346 290Q346 325 357 359T388 424T434 478T493 518Q506 524 520 526T549 528Q559 528 574 527T603 520T628 507T639 485Q639 472 627 461T595 439T554 417T512 394T481 369T468 338Q468 314 480 291T517 260Q538 254 573 250T641 237T698 211T723 163ZM369 162Q369 144 353 131T319 118Q313 118 304 121T286 129T271 140T264 153Q264 173 267 180T287 200Q292 204 299 208T312 213Q318 213 324 213T337 214Q355 214 365 204Q368 193 368 183T369 162Z"  />
<glyph unicode="&#xFB38;" horiz-adv-x="538" d="M753 585Q753 579 743 572T720 557T694 546T675 540Q645 535 615 532T554 523Q507 514 456 499T356 463T263 413T186 348Q183 344 177 334T165 311T154 288T149 272Q149 255 162 231T193 185T233 147T273 131Q294 131 307 144T329 177T342 217T351 254Q358 276 366 294Q373 310 376 331T386 372T404 405T440 419Q449 419 459 416T479 406T494 390T500 371V365Q500 320 492 265T461 161T402 79T306 46Q285 46 259 50T206 63T155 81T113 105Q68 137 50 181T32 279Q32 291 35 306T43 332Q65 386 114 427T225 499T350 551T467 584Q521 596 574 604T681 614H687Q694 614 705 614T727 611T745 602T753 585ZM313 274Q313 256 297 243T263 230Q257 230 248 233T230 241T215 252T208 265Q208 285 211 292T231 312Q236 316 243 320T256 325Q262 325 268 325T281 326Q299 326 309 316Q312 305 312 295T313 274Z"  />
<glyph unicode="&#xFB39;" horiz-adv-x="323" d="M278 391Q278 364 271 339T252 289T226 242T198 196Q190 182 184 168T168 141Q163 133 152 131T132 129Q122 129 109 133T96 150Q96 173 104 194T122 236T140 279T149 326Q149 338 150 356T156 393T169 426T190 446Q198 450 211 450Q239 450 258 435T278 391ZM107 292Q107 274 91 261T57 248Q51 248 42 251T24 259T9 270T2 283Q2 303 5 310T25 330Q30 334 37 338T50 343Q56 343 62 343T75 344Q93 344 103 334Q106 323 106 313T107 292Z"  />
<glyph unicode="&#xFB3A;" horiz-adv-x="443" d="M446 316Q446 296 435 277T410 244Q372 204 325 183T223 150Q211 147 199 145T173 141Q164 139 158 113T146 55T138 -8T134 -48Q130 -90 123 -130T109 -213Q106 -234 103 -262T96 -318T84 -373T66 -418Q52 -441 27 -441Q14 -441 9 -433T3 -414Q3 -379 9 -346T22 -278Q27 -253 29 -229T32 -179Q34 -116 41 -54T49 72Q49 118 43 163T36 254Q36 262 42 270T58 285T77 296T94 300Q118 300 134 288T167 260T201 233T248 220Q258 220 263 221T277 229Q282 233 285 237T293 245Q300 251 309 257T326 271T339 288T345 308Q345 329 322 343T267 366T205 381T158 390Q132 382 106 378T53 373Q47 373 39 373T23 376T10 384T5 398Q5 407 10 416T20 433Q44 468 82 477T160 487Q173 487 185 488T210 489Q233 489 253 482Q279 473 307 465T358 440Q372 430 387 417T416 387T437 353T446 316ZM267 301Q267 283 251 270T217 257Q211 257 202 260T184 268T169 279T162 292Q162 312 165 319T185 339Q190 343 197 347T210 352Q216 352 222 352T235 353Q253 353 263 343Q266 332 266 322T267 301Z"  />
<glyph unicode="&#xFB3B;" horiz-adv-x="542" d="M512 271Q512 227 491 191T436 127T363 79T286 48Q249 37 212 33T136 26Q124 25 112 24T88 23Q73 23 58 25T30 33T10 51T2 83Q2 102 16 109T47 117Q67 117 85 109T123 100Q138 100 164 105T222 119T284 140T341 168T383 201T399 238Q399 248 391 263T372 291T347 314T323 324Q305 324 290 315T257 305Q240 305 231 318T222 347Q222 374 242 394T286 422Q300 427 315 428T346 429Q372 429 392 426T433 404Q438 400 447 390T467 368T487 345T499 329Q507 317 509 301T512 271ZM287 214Q287 196 271 183T237 170Q231 170 222 173T204 181T189 192T182 205Q182 225 185 232T205 252Q210 256 217 260T230 265Q236 265 242 265T255 266Q273 266 283 256Q286 245 286 235T287 214Z"  />
<glyph unicode="&#xFB3C;" horiz-adv-x="349" d="M555 760Q555 749 550 742T537 732T520 727T502 725Q474 725 447 717T396 691Q350 656 328 614T295 525T280 428T267 328Q262 298 253 264T232 194T207 126T179 65Q168 44 153 33T120 16T82 9T41 8Q18 8 14 17T9 46Q9 67 12 78T22 96T40 109T66 124Q92 140 111 172T142 241T160 317T166 385Q166 408 173 430T185 474Q192 507 198 541T214 607T239 670T279 725Q295 741 322 757T371 781Q403 792 436 804T504 817Q514 817 523 812T540 798T551 780T555 760ZM121 269Q121 251 105 238T71 225Q65 225 56 228T38 236T23 247T16 260Q16 280 19 287T39 307Q44 311 51 315T64 320Q70 320 76 320T89 321Q107 321 117 311Q120 300 120 290T121 269Z"  />
<glyph unicode="&#xFB3E;" horiz-adv-x="505" d="M489 344Q489 321 484 299T472 256Q467 241 454 210T424 146T390 87T359 55Q349 56 336 57T313 62Q307 64 292 84T260 129T228 177T208 208Q200 179 184 138T145 60T91 -5T25 -32Q15 -32 5 -29T-6 -13Q-6 1 2 16T20 46T41 75T57 103Q75 155 81 211T95 321Q98 341 100 361T109 401Q115 418 135 427T172 437Q181 437 190 428T209 405T225 380T238 360Q261 326 286 295T338 233Q347 250 354 268T369 305Q374 318 379 334T393 366T413 391T442 401Q468 401 478 384T489 344ZM366 374Q366 356 350 343T316 330Q310 330 301 333T283 341T268 352T261 365Q261 385 264 392T284 412Q289 416 296 420T309 425Q315 425 321 425T334 426Q352 426 362 416Q365 405 365 395T366 374Z"  />
<glyph unicode="&#xFB40;" horiz-adv-x="293" d="M244 371Q239 274 225 178T186 -13Q173 -61 161 -109T122 -201Q72 -280 15 -333T-110 -418T-255 -464T-424 -478Q-440 -478 -467 -470T-520 -449T-565 -419T-584 -382Q-584 -373 -579 -365T-565 -351T-548 -342T-531 -338Q-512 -338 -489 -349T-443 -372T-398 -396T-359 -407Q-341 -407 -311 -401T-248 -387T-186 -368T-141 -348Q-87 -317 -49 -271T15 -169T57 -54T81 64Q86 100 87 136T93 208Q96 230 104 251T120 293T134 335T141 379Q141 394 156 404T185 414Q193 414 203 411T223 403T238 391T244 373V371ZM57 137Q57 119 41 106T7 93Q1 93 -8 96T-26 104T-41 115T-48 128Q-48 148 -45 155T-25 175Q-20 179 -13 183T0 188Q6 188 12 188T25 189Q43 189 53 179Q56 168 56 158T57 137Z"  />
<glyph unicode="&#xFB41;" horiz-adv-x="674" d="M656 307Q656 300 655 287T651 258T645 230T640 209Q632 186 618 166T587 128T551 94T512 63Q464 26 402 4T279 -19Q244 -19 214 -11T153 13Q104 37 82 76T59 170Q59 190 57 210T55 250Q55 266 57 278T65 306Q71 321 73 333T78 356T87 377T107 398Q126 414 149 435T199 476T253 510T306 524Q341 524 372 524T434 521T495 508T557 482Q576 472 583 465T601 441Q622 411 639 378T656 307ZM555 299Q555 331 543 352T511 385T465 403T412 408Q384 408 355 405T299 393Q277 387 259 371T227 334T206 289T198 243Q198 222 190 202T182 161Q182 140 191 126T216 102T249 89T285 84Q296 84 306 84T327 83Q343 83 355 85T382 94Q411 108 441 128T497 175T539 232T555 299ZM423 240Q423 222 407 209T373 196Q367 196 358 199T340 207T325 218T318 231Q318 251 321 258T341 278Q346 282 353 286T366 291Q372 291 378 291T391 292Q409 292 419 282Q422 271 422 261T423 240Z"  />
<glyph unicode="&#xFB43;" horiz-adv-x="439" d="M593 561Q575 566 559 566Q546 566 534 564T509 562Q458 562 410 566T311 571Q287 571 263 569T215 563Q214 550 210 538T206 512Q206 474 198 425T175 324Q168 299 159 270T138 209Q116 145 98 111Q89 98 83 87T70 66T55 47T34 29Q23 18 9 18Q-13 18 -26 26T-51 53Q-39 65 -31 74T-15 94T-3 115T9 143Q18 159 27 180T44 229Q53 257 58 279T68 319T75 353T81 388Q89 427 96 466T108 545Q85 540 64 530T18 519Q-2 519 -17 529T-45 553Q-41 571 -22 584T21 607T69 620T110 625Q118 625 124 628Q127 645 127 662T128 696Q128 727 133 757T143 819Q147 835 147 855Q147 906 156 956T181 1056Q186 1073 190 1089T202 1121Q215 1152 235 1181T281 1234T340 1272T408 1287Q416 1287 428 1287T449 1283Q454 1281 458 1278T468 1272Q510 1244 525 1207T540 1122Q540 1070 537 1033T524 964T496 899T447 824Q423 790 405 767T366 725T322 688T264 646Q289 646 313 650T362 655Q404 655 446 651T531 647Q554 647 569 629T593 592V561ZM466 1086Q466 1111 464 1128T455 1157T431 1174T387 1180Q369 1180 358 1177T334 1159Q327 1151 322 1142T312 1122Q288 1075 274 1024T251 918T237 810T225 705Q273 751 316 799T393 904Q406 925 419 946T442 990T459 1036T466 1086ZM26 251Q26 233 10 220T-24 207Q-30 207 -39 210T-57 218T-72 229T-79 242Q-79 262 -76 269T-56 289Q-51 293 -44 297T-31 302Q-25 302 -19 302T-6 303Q12 303 22 293Q25 282 25 272T26 251Z"  />
<glyph unicode="&#xFB44;" horiz-adv-x="998" d="M934 230Q934 180 918 136T875 53T815 -22T748 -90Q731 -105 716 -121T681 -151Q666 -162 650 -169T618 -185Q530 -228 440 -258T250 -289Q224 -289 191 -285T123 -272T59 -251T7 -221Q-19 -200 -30 -169T-42 -106Q-42 -68 -32 -34T-10 36Q-8 44 -6 51T0 65Q7 79 17 91T38 115Q67 152 95 188T158 256Q182 279 207 304T260 352T317 394T379 424Q404 433 421 434T465 436Q490 436 516 433T567 422T614 400T652 365Q660 354 670 342T688 317T703 289T709 261Q709 241 698 219T671 176T636 138T601 111Q590 104 576 94T546 75T516 59T487 52Q473 52 473 64Q473 69 477 79T485 94Q490 101 498 107T514 118Q523 126 542 141T581 175T615 210T630 239Q630 261 613 279T572 310T522 330T478 338Q445 338 414 329T355 305T301 269T252 227Q226 203 205 176T160 121Q150 110 142 98T124 74Q119 69 115 63T105 51Q82 21 65 -22T48 -103Q48 -138 72 -165T128 -204Q155 -212 184 -215T242 -218Q312 -218 380 -200T512 -148T631 -71T734 24Q776 69 801 126T826 246Q826 284 813 320T780 389Q761 420 721 445T634 490T538 519T456 530Q432 530 408 526T360 521Q340 521 321 513T285 494T251 475T219 466Q208 466 197 474T185 495Q185 511 205 530T251 567T305 598T346 614Q375 622 406 625T467 628Q515 628 558 614T647 588Q685 578 725 566T797 530Q809 522 818 511T838 489Q860 465 877 434T907 369T927 299T934 230ZM336 4Q336 -14 320 -27T286 -40Q280 -40 271 -37T253 -29T238 -18T231 -5Q231 15 234 22T254 42Q259 46 266 50T279 55Q285 55 291 55T304 56Q322 56 332 46Q335 35 335 25T336 4Z"  />
<glyph unicode="&#xFB46;" horiz-adv-x="613" d="M655 774Q655 704 633 654T559 557Q551 550 545 541T533 523T521 506T505 491Q500 488 493 485T480 479T469 470T464 458Q464 447 470 446T485 443T505 437T525 417Q536 398 544 373T558 321T566 268T569 219Q569 177 557 137T513 68Q480 38 436 15T346 -8Q294 -8 242 9T148 56Q138 63 129 71T111 88Q92 105 74 121T42 155T20 194T11 243Q11 249 12 258T16 275T24 289T38 295Q47 295 54 289T66 277Q85 257 103 236T143 196Q152 188 162 182T181 169Q196 158 218 144T266 118T315 97T358 88Q380 88 400 102T436 137T460 182T469 226Q469 246 467 273T455 325T430 367T387 384Q372 384 358 378T331 365T304 352T275 346Q255 346 238 361T221 398Q221 408 224 420T234 442T249 460T269 470Q290 475 311 478T352 489Q382 500 411 522T466 571T515 627T554 683Q565 702 565 723Q565 743 560 761T550 799Q538 816 521 826T484 841T443 847T403 849Q377 849 353 846T305 828Q283 814 262 802T214 789Q200 789 197 795T193 814Q193 820 196 828T203 845T211 862T218 877Q225 893 233 899T252 909T273 916T298 928Q315 940 330 943T365 947Q416 947 469 939T571 915Q585 911 595 901T613 879T627 853T642 828Q652 814 653 803T655 774ZM384 224Q384 206 368 193T334 180Q328 180 319 183T301 191T286 202T279 215Q279 235 282 242T302 262Q307 266 314 270T327 275Q333 275 339 275T352 276Q370 276 380 266Q383 255 383 245T384 224Z"  />
<glyph unicode="&#xFB47;" horiz-adv-x="427" d="M430 314Q430 308 424 295T409 268T393 241T381 222Q357 189 330 169T276 132T225 100T181 62T151 6T140 -78Q140 -104 136 -129T127 -180Q124 -199 124 -217T122 -254Q111 -345 75 -432T-7 -599Q-13 -608 -30 -633T-66 -686T-104 -733T-131 -754Q-139 -754 -144 -749T-152 -737T-156 -721T-157 -707Q-157 -689 -149 -668T-130 -626T-106 -586T-84 -550Q-69 -521 -52 -492T-23 -431Q-9 -396 -2 -360T8 -286T14 -211T21 -137Q25 -102 31 -67T47 6Q55 39 65 58T88 92T120 120T162 153Q173 161 182 170T202 188Q210 195 225 203T256 220T282 239T294 262Q294 274 282 282T252 295T219 302T193 304Q178 304 163 300T134 292T104 284T74 280Q60 280 50 290T39 315Q39 339 57 360T95 391Q112 399 129 402T165 405Q195 405 224 401T284 397L347 368Q357 375 368 375Q388 375 403 357T426 323Q430 318 430 314ZM160 198Q160 180 144 167T110 154Q104 154 95 157T77 165T62 176T55 189Q55 209 58 216T78 236Q83 240 90 244T103 249Q109 249 115 249T128 250Q146 250 156 240Q159 229 159 219T160 198Z"  />
<glyph unicode="&#xFB49;" horiz-adv-x="696" d="M677 278Q677 254 672 231T660 184Q648 143 619 110T552 52T471 15T387 2Q345 2 302 14T221 45Q207 52 189 62T155 73Q142 73 133 67T116 53T100 39T83 32Q78 32 69 37T50 49T35 64T28 77Q28 107 38 117T61 131T84 135T95 148Q95 157 87 175T69 216T51 263T42 311Q42 334 44 357T46 403Q46 450 58 493T91 576T142 650T207 714Q219 725 230 733T252 748T277 757T308 760Q335 760 364 753T421 733T470 700T507 656Q513 645 518 627T528 589T534 550T537 519Q537 513 536 511Q526 464 511 425T474 349T426 281T364 216Q358 210 344 199T316 174T291 149T280 129Q280 120 296 114T333 103T373 98T401 96Q413 96 430 100T466 110T499 125T524 142Q545 163 552 194T567 254T589 305T637 326Q660 326 668 313T677 278ZM450 539Q450 590 424 625T344 661Q323 661 300 657T256 645T216 624T187 591Q168 559 154 521T139 445Q139 424 137 404T134 362Q134 311 151 264T200 179L299 237Q303 255 313 268T337 292T363 315T386 341Q400 360 411 384T431 435T445 488T450 539ZM525 207Q525 189 509 176T475 163Q469 163 460 166T442 174T427 185T420 198Q420 218 423 225T443 245Q448 249 455 253T468 258Q474 258 480 258T493 259Q511 259 521 249Q524 238 524 228T525 207Z"  />
<glyph unicode="&#xFB4A;" horiz-adv-x="479" d="M473 12Q473 6 464 -3T443 -20T420 -35T402 -42Q391 -42 380 -36T357 -22T335 -4T317 13Q311 18 302 31T282 59T263 84T248 95Q240 95 233 89T220 75T208 58T200 44Q195 36 189 29T175 13Q148 -16 115 -34T48 -69Q28 -79 13 -91T-25 -109Q-60 -117 -95 -127T-168 -138Q-182 -138 -194 -136T-219 -131Q-231 -128 -247 -126T-279 -117T-305 -101T-316 -72Q-316 -65 -313 -64T-304 -60Q-289 -56 -269 -55T-228 -53T-185 -52T-146 -48Q-128 -45 -111 -42T-76 -30Q-40 -14 -2 8T69 60T123 126T147 204V206Q148 222 144 237T135 268T126 299T121 331Q121 341 134 351T165 370T200 383T227 388Q238 388 247 379Q254 372 264 351T285 305T305 256T321 220Q340 181 352 155T379 106T415 63T471 15Q473 13 473 12ZM302 -22Q302 -40 286 -53T252 -66Q246 -66 237 -63T219 -55T204 -44T197 -31Q197 -11 200 -4T220 16Q225 20 232 24T245 29Q251 29 257 29T270 30Q288 30 298 20Q301 9 301 -1T302 -22Z"  />
<glyph unicode="&#xFB4B;" horiz-adv-x="289" d="M222 409Q222 385 216 359T203 306T190 252T184 197Q184 176 181 142T168 74T140 17T94 -7Q83 -7 77 2T67 24T64 50T63 71Q63 119 69 166T83 261Q86 283 89 305T93 350Q93 363 92 376T90 402Q90 432 108 452T157 472Q184 472 203 454T222 409Z"  />
<glyph unicode="&#xFB4F;" horiz-adv-x="449" d="M430 297Q430 213 370 152Q310 92 226 92Q141 92 80 152Q20 212 20 297Q20 382 80 441Q142 500 226 500Q310 500 370 440Q430 381 430 297Z"  />
<glyph unicode="&#xFFFC;" horiz-adv-x="1000" d="M1000 562H951L842 670V719H1000V562ZM719 670H562V719H719V670ZM1000 281H951V438H1000V281ZM870 298Q870 181 767 181Q725 181 700 203L735 241Q748 229 767 229Q813 229 813 296V532H870V298ZM438 670H281V719H438V670ZM1000 0H842V49L951 158H1000V0ZM695 289Q695 187 561 187H444V532H559Q680 532 680 441Q680 396 637 371Q695 349 695 289ZM158 670L49 562H0V719H158V670ZM719 0H562V49H719V0ZM417 359Q417 274 377 228T262 181Q187 181 148 227T109 359Q109 444 148 491T262 538Q337 538 377 491T417 359ZM49 281H0V438H49V281ZM438 0H281V49H438V0ZM158 0H0V158H49L158 49V0ZM624 436Q624 484 544 484H500V390H550Q624 390 624 436ZM638 289Q638 342 555 342H500V234H561Q638 234 638 289ZM360 359Q360 490 262 490Q166 490 166 359Q166 229 262 229Q360 229 360 359Z"  />

</font>
</defs>
</svg>
