<?xml  version="1.0" encoding="UTF-8"?>
<!DOCTYPE svg PUBLIC "-//W3C//DTD SVG 1.0//EN" "http://www.w3.org/TR/2001/REC-SVG-20010904/DTD/svg10.dtd" >
<svg xmlns="http://www.w3.org/2000/svg" >
<metadata>
<version>1.0</version>
<id><![CDATA[Oron W26 Italic]]></id>
<vendor>Monotype Imaging Inc.</vendor>
<credits>
<name>Fonts.com WebFonts</name>
<URL>http://webfonts.fonts.com</URL>
<role>Home of the Web fonts</role>
</credits>
<license>
<URL>http://webfonts.fonts.com/Legal</URL>
</license>
<copyright><![CDATA[Masterfont Studio Rosenberg 2003 (C) version 1.0]]></copyright>
<trademark></trademark>
<licensee>
<name></name>
</licensee>
</metadata>
<defs >
<font horiz-adv-x="493" id="77b7238e-94fe-43a0-9c28-41009a3b9974">
<font-face font-family="" panose-1="0 0 4 0 0 0 0 0 0 0" ascent="800" descent="-319" units-per-em="1000" alphabetic="0">
</font-face>
<missing-glyph horiz-adv-x="500" d="M63 0V800H438V0H63ZM125 63H375V738H125V63Z"  />

<glyph unicode="&#xA;" />
<glyph unicode="&#xD;" />
<glyph unicode=" " horiz-adv-x="250" />
<glyph unicode="!" horiz-adv-x="200" d="M142 149L92 182Q64 347 9 550L103 501Q142 262 142 149ZM192 54Q179 20 148 -13L79 40Q105 65 122 107L192 54Z"  />
<glyph unicode="&quot;" horiz-adv-x="434" d="M336 292H268L215 502H330L336 292ZM174 292H105L53 502H168L174 292Z"  />
<glyph unicode="#" horiz-adv-x="537" d="M454 332H373L372 182H453V132H372V0H322V132H202V0H152V132H71V182H152L153 332H72L71 382H152L153 503H203L202 382H322L323 503H373L372 382H453L454 332ZM323 332H203L202 182H322L323 332Z"  />
<glyph unicode="$" horiz-adv-x="536" d="M479 117Q479 59 434 25Q397 -4 335 -12L347 -79H267L256 -15Q182 -10 128 33Q70 78 61 149H161Q170 105 202 80T280 54Q379 54 379 124Q379 181 301 201T146 240Q55 275 33 365Q31 373 31 389Q31 441 72 476Q108 507 162 514L151 579H231L242 515Q312 510 362 471Q418 429 425 363H325Q315 448 210 448Q131 448 131 385Q131 374 132 368Q143 332 188 316Q227 306 267 297Q365 272 398 254Q462 218 476 146Q479 131 479 117Z"  />
<glyph unicode="%" horiz-adv-x="669" d="M642 82Q642 -15 537 -15Q466 -15 426 32T386 151Q386 247 491 247Q561 247 603 199Q642 153 642 82ZM488 562L217 -60H167L437 562H488ZM270 355Q270 258 165 258Q94 258 54 305T13 424Q13 520 119 520Q189 520 231 472Q270 426 270 355ZM581 88Q581 132 562 164Q539 203 498 203Q446 203 446 145Q446 100 465 68Q487 29 529 29Q581 29 581 88ZM209 361Q209 405 190 437Q167 476 126 476Q73 476 73 417Q73 373 93 340Q116 302 157 302Q209 302 209 361Z"  />
<glyph unicode="&apos;" horiz-adv-x="286" d="M195 502L142 292H74L80 502H195Z"  />
<glyph unicode="(" horiz-adv-x="392" d="M290 -50H206Q65 160 65 366Q65 465 98 555H183Q158 497 158 396Q158 327 171 252Q197 100 290 -50Z"  />
<glyph unicode=")" horiz-adv-x="391" d="M321 140Q321 56 285 -50H201Q227 39 227 119Q227 225 192 347Q155 480 96 555H181Q321 360 321 140Z"  />
<glyph unicode="*" horiz-adv-x="436" d="M352 511Q333 502 302 494Q250 481 250 481Q240 489 234 502Q278 554 300 579Q336 550 352 511ZM207 612Q208 594 204 567Q198 523 198 521Q195 520 188 520Q179 520 175 521Q170 533 159 558L128 627Q154 635 167 635Q182 635 206 627L207 612ZM370 413Q366 373 342 344Q327 355 250 422Q249 433 258 442Q266 441 293 434L370 413ZM145 501Q144 492 136 481Q125 484 102 490L25 510Q27 548 52 579L145 501ZM267 296Q237 289 227 289Q213 289 187 295V304Q187 304 196 403Q200 404 207 404Q216 404 220 403Q220 402 234 371Q234 371 267 296ZM159 422Q150 409 94 345Q60 374 42 413Q110 433 144 442Q151 436 159 422Z"  />
<glyph unicode="+" horiz-adv-x="548" d="M474 218H307L336 51H271L242 218H75L63 283H230L201 450H266L295 283H462L474 218Z"  />
<glyph unicode="&#x2c;" horiz-adv-x="250" d="M164 127L112 -86H43L48 127H164Z"  />
<glyph unicode="-" horiz-adv-x="310" d="M257 218H59L47 284H245L257 218Z"  />
<glyph unicode="." horiz-adv-x="249" d="M172 0H65L47 100H154L172 0Z"  />
<glyph unicode="/" horiz-adv-x="311" d="M239 621L132 -119H66L173 621H239Z"  />
<glyph unicode="0" horiz-adv-x="527" d="M492 173Q492 -15 306 -15Q191 -15 120 60Q55 128 34 246Q26 291 26 326Q26 517 212 517Q328 517 400 440Q464 371 485 251Q492 211 492 173ZM400 177Q400 212 393 251Q357 451 224 451Q121 451 121 326Q121 292 128 251Q162 51 294 51Q400 51 400 177Z"  />
<glyph unicode="1" horiz-adv-x="527" d="M369 0H276L208 385Q167 343 104 329L89 413Q183 453 193 502H281L369 0Z"  />
<glyph unicode="2" horiz-adv-x="527" d="M493 0H104L87 93Q174 145 239 199Q337 283 337 341Q337 392 304 422T218 452Q135 452 135 377Q135 365 142 325H47Q41 363 41 382Q41 519 203 519Q304 519 356 484Q414 445 431 350Q433 339 433 325Q433 283 399 239Q354 180 188 67L481 66L493 0Z"  />
<glyph unicode="3" horiz-adv-x="527" d="M482 102Q482 -15 293 -15Q122 -15 68 95Q55 122 53 150H147Q156 101 195 75Q231 51 283 51Q385 51 385 118Q385 174 333 201Q291 222 230 220L218 284Q327 284 327 349Q327 352 327 356Q326 361 326 363Q308 450 213 450Q126 450 126 375Q126 366 128 348H37Q29 368 29 396Q29 520 210 520Q301 520 350 488Q407 451 422 366Q424 355 424 346Q424 292 360 266Q351 263 336 253Q344 252 360 249Q393 243 412 232Q482 192 482 102Z"  />
<glyph unicode="4" horiz-adv-x="527" d="M489 131H413L436 0H341L318 131H74L61 203L239 502H348L402 197H478L489 131ZM307 197L271 400L151 197H307Z"  />
<glyph unicode="5" horiz-adv-x="527" d="M481 131Q481 58 425 19Q376 -15 301 -15Q220 -15 162 11Q88 45 76 114H174Q180 78 222 61Q253 47 296 47Q337 47 361 70T386 133Q386 192 353 230T262 268Q190 268 162 227Q151 211 154 202H68L34 502H388L400 436H136L151 287Q170 330 259 330Q346 330 403 288Q464 243 479 159Q481 148 481 131Z"  />
<glyph unicode="6" horiz-adv-x="527" d="M498 135Q498 62 444 22Q396 -14 321 -14Q193 -14 125 56Q63 119 40 250Q34 284 34 322Q34 518 227 518Q311 518 367 491Q439 456 451 383H354Q343 452 236 452Q128 452 128 323Q128 289 134 256Q140 297 180 319Q213 337 258 337Q357 337 424 287Q498 231 498 135ZM403 143Q403 198 363 237T269 277Q161 277 161 192Q161 129 203 90T308 51Q348 51 375 77T403 143Z"  />
<glyph unicode="7" horiz-adv-x="527" d="M400 422L323 0H223L301 436H26L15 503H386L400 422Z"  />
<glyph unicode="8" horiz-adv-x="527" d="M495 115Q495 -15 299 -15Q93 -15 64 145Q62 156 62 165Q62 231 160 263Q164 264 169 267Q152 271 131 276Q30 304 30 401Q30 465 89 495Q135 519 205 519Q406 519 434 376Q436 366 436 357Q436 303 377 281Q362 277 330 268Q345 264 364 259Q495 224 495 115ZM353 364Q353 411 305 441Q264 466 214 466Q176 466 147 448Q113 426 113 390Q113 347 159 321Q197 299 244 299Q282 299 313 313Q353 331 353 364ZM403 123Q403 176 354 208Q311 236 255 236Q214 236 186 217Q154 194 154 155Q154 105 197 73Q236 44 289 44Q334 44 364 61Q403 82 403 123Z"  />
<glyph unicode="9" horiz-adv-x="527" d="M483 177Q483 -15 289 -15Q161 -15 104 69Q90 89 84 114H182Q188 83 219 66Q246 51 280 51Q391 51 391 168Q391 200 382 247Q366 211 332 189T258 166Q164 166 95 219Q18 277 18 367Q18 440 71 481Q119 517 195 517Q322 517 391 447Q453 384 476 253Q483 213 483 177ZM355 310Q355 373 313 412T208 452Q168 452 141 426T113 359Q113 307 156 267T252 226Q355 226 355 310Z"  />
<glyph unicode=":" horiz-adv-x="263" d="M141 336H35L18 436H124L141 336ZM200 0H94L77 100H183L200 0Z"  />
<glyph unicode=";" horiz-adv-x="272" d="M145 336H38L20 436H127L145 336ZM192 127L139 -86H70L76 127H192Z"  />
<glyph unicode="&lt;" horiz-adv-x="595" d="M577 0L52 207L40 278L491 483L505 404L139 243L562 80L577 0Z"  />
<glyph unicode="=" horiz-adv-x="548" d="M460 298H60L48 368H448L460 298ZM490 128H90L78 198H478L490 128Z"  />
<glyph unicode="&gt;" horiz-adv-x="595" d="M544 207L92 0L77 80L444 243L20 404L6 483L532 278L544 207Z"  />
<glyph unicode="?" horiz-adv-x="556" d="M447 438Q447 336 343 292Q311 279 305 274Q284 261 284 240Q284 226 296 166H220Q207 231 207 256Q207 291 232 311Q259 326 286 341Q353 379 353 442Q353 501 308 546T204 591Q155 591 127 563T98 486Q98 444 121 409H34Q6 436 6 498Q6 569 64 615Q118 657 191 657Q286 657 364 596Q447 531 447 438ZM342 0H234L216 100H324L342 0Z"  />
<glyph unicode="@" horiz-adv-x="759" d="M699 350Q699 258 647 201Q591 140 495 140Q404 140 390 195Q332 146 282 146Q242 146 217 172Q187 202 187 262Q187 349 234 419Q287 496 366 496Q422 496 450 462L456 484H533L470 229Q468 221 468 216Q468 178 517 178Q567 178 608 216Q661 265 661 351Q661 449 587 517Q508 590 383 590Q254 590 168 512T81 315Q81 200 167 123T382 45Q486 45 568 99Q577 103 581 103Q598 103 598 87Q598 77 589 70Q511 10 382 10Q235 10 139 96T43 315Q43 452 138 538T383 625Q524 625 613 543Q699 464 699 350ZM440 426Q425 462 377 462Q334 462 299 391Q265 324 265 250Q265 184 303 184Q354 184 388 234L440 426Z"  />
<glyph unicode="A" horiz-adv-x="681" d="M669 0H358V24H462L399 198H198L136 24H256V0H18V24H108L334 654H352L578 24H669V0ZM390 222L298 475L207 222H390Z"  />
<glyph unicode="B" horiz-adv-x="616" d="M568 176Q568 94 507 47T338 0H25V24H114V621H25V645H330Q418 645 479 606Q545 563 545 493Q545 383 406 350Q470 336 514 295Q568 246 568 176ZM437 485V501Q437 621 330 621H223V360H330Q382 360 408 385Q437 415 437 485ZM457 164V187Q457 336 330 336H223V24H330Q399 24 429 60Q457 93 457 164Z"  />
<glyph unicode="C" horiz-adv-x="631" d="M598 4Q598 -7 587 -7Q581 -7 575 -1L523 51Q453 -18 351 -18Q231 -18 135 82Q35 185 35 323Q35 451 126 551Q221 656 356 656Q450 656 518 607L555 642Q565 651 572 651Q584 651 584 632V478Q584 462 575 462Q568 462 565 470L563 475Q537 546 486 586Q431 630 356 630Q171 630 171 374V268Q171 8 351 8Q490 8 574 188Q580 201 588 201Q598 201 598 187V4Z"  />
<glyph unicode="D" horiz-adv-x="682" d="M664 330Q664 180 575 90T337 0H28V24H119V621H28V645H337Q481 645 572 558T664 330ZM541 306V354Q541 496 479 563Q426 621 335 621H228V24H335Q541 24 541 306Z"  />
<glyph unicode="E" horiz-adv-x="591" d="M553 35Q553 0 519 0H31V24H118V621H29V645H494Q525 645 525 618V474Q525 457 513 457Q501 457 500 475Q497 528 472 569Q439 621 379 621H227V352H304Q342 352 358 377Q367 390 377 435Q381 452 389 452Q400 452 400 436V244Q400 227 389 227Q381 227 377 244Q373 267 357 306Q342 328 304 328H227V24H388Q452 24 484 67Q507 99 525 181Q530 204 541 204Q553 204 553 177V35Z"  />
<glyph unicode="F" horiz-adv-x="564" d="M529 474Q529 457 517 457Q505 457 504 475Q501 528 476 569Q443 621 383 621H231V352H308Q346 352 362 377Q371 390 381 435Q385 452 393 452Q404 452 404 436V244Q404 227 393 227Q385 227 381 244Q377 267 361 306Q346 328 308 328H231V24H320V0H36V24H122V621H34V645H499Q529 645 529 618V474Z"  />
<glyph unicode="G" horiz-adv-x="689" d="M686 217H597V189Q597 86 523 31Q458 -18 350 -18Q224 -18 129 82T33 319Q33 456 127 556T353 656Q451 656 517 604L558 642Q568 651 576 651Q589 651 589 636V457Q589 444 578 444Q568 444 564 456Q504 630 353 630Q268 630 220 571Q168 507 168 379V263Q168 138 216 73T352 8Q482 8 482 132V217H371V241H686V217Z"  />
<glyph unicode="H" horiz-adv-x="706" d="M688 0H402V24H491V330H227V24H316V0H29V24H118V621H29V645H316V621H227V355H491V621H402V645H688V621H600V24H688V0Z"  />
<glyph unicode="I" horiz-adv-x="366" d="M326 0H40V24H128V621H40V645H326V621H237V24H326V0Z"  />
<glyph unicode="J" horiz-adv-x="381" d="M371 621H294V56Q294 -97 126 -97Q74 -97 39 -66Q8 -39 8 -8Q8 46 59 46Q81 46 94 32T107 -1Q107 -47 64 -53Q85 -71 119 -71Q156 -71 170 -51T185 20V621H90V645H371V621Z"  />
<glyph unicode="K" horiz-adv-x="692" d="M685 0H385V24H470L219 353L510 621H428V645H640V621H550L313 403L601 24H685V0ZM304 0H31V24H113V621H31V645H304V621H222V24H304V0Z"  />
<glyph unicode="L" horiz-adv-x="617" d="M596 35Q596 0 561 0H26V24H115V621H26V645H322V621H224V24H431Q495 24 526 67Q549 98 567 181Q572 204 583 204Q596 204 596 177V35Z"  />
<glyph unicode="M" horiz-adv-x="821" d="M793 0H520V24H602V589L380 0H360L138 585V24H221V0H31V24H113V621H31V645H229L415 167L595 645H793V621H711V24H793V0Z"  />
<glyph unicode="N" horiz-adv-x="677" d="M660 621H571V-8H529L137 583V24H226V0H23V24H112V621H23V645H233L546 175V621H457V645H660V621Z"  />
<glyph unicode="O" horiz-adv-x="712" d="M684 320Q684 187 589 86Q492 -18 360 -18Q228 -18 132 86Q37 187 37 320Q37 453 132 554T360 656Q492 656 588 555T684 320ZM549 272V367Q549 512 500 574Q455 630 360 630Q266 630 221 572Q172 508 172 367V272Q172 8 360 8Q549 8 549 272Z"  />
<glyph unicode="P" horiz-adv-x="558" d="M534 469Q534 390 476 342T325 293H223V24H311V0H25V24H114V621H25V645H315Q415 645 474 597T534 469ZM433 452V486Q433 621 315 621H223V317H325Q433 317 433 452Z"  />
<glyph unicode="Q" horiz-adv-x="701" d="M684 319Q684 205 611 110T429 -12V-29Q429 -197 589 -197Q603 -197 603 -208Q603 -218 589 -218Q446 -218 385 -188Q304 -148 294 -33L292 -12Q183 14 110 109T37 319Q37 452 132 554T360 656Q492 656 588 554T684 319ZM549 271V366Q549 511 500 574Q455 630 360 630Q266 630 221 571Q172 508 172 366V271Q172 6 360 6Q549 6 549 271Z"  />
<glyph unicode="R" horiz-adv-x="647" d="M645 34Q645 29 641 25Q630 14 597 3Q561 -8 528 -8Q476 -8 452 20Q430 44 424 97Q422 130 417 196Q402 325 307 325H226V24H315V0H28V24H117V621H28V645H323Q417 645 478 603Q543 559 543 484Q543 365 393 332Q489 307 519 251Q539 213 542 109Q543 60 548 47Q556 26 585 26Q609 26 629 39Q633 41 638 41Q645 41 645 34ZM436 467V501Q436 621 323 621H226V349H323Q436 349 436 467Z"  />
<glyph unicode="S" horiz-adv-x="558" d="M524 205Q524 110 456 46T287 -18Q194 -18 118 44L84 -1Q75 -13 67 -13Q53 -13 53 4V174Q53 191 65 191Q77 191 81 176Q102 98 162 53Q219 8 293 8Q360 8 407 47Q458 88 458 152Q458 220 401 245Q357 264 311 277Q214 305 209 307Q68 351 68 467Q68 546 126 599Q187 656 286 656Q362 656 434 618L461 650Q470 660 476 660Q487 660 487 646V477Q487 463 475 463Q463 463 461 476Q452 542 411 583Q364 630 286 630Q226 630 185 602Q139 571 139 518Q139 454 201 432Q228 422 385 380Q524 342 524 205Z"  />
<glyph unicode="T" horiz-adv-x="638" d="M617 455H586Q574 533 540 577T460 621H376V24H465V0H179V24H267V621H183Q138 621 104 577T57 455H27L43 625Q45 645 68 645H576Q599 645 601 625L617 455Z"  />
<glyph unicode="U" horiz-adv-x="657" d="M643 621H555V162Q555 74 499 28T343 -18Q248 -18 185 20Q107 68 107 162V621H18V645H304V621H216V162Q216 88 256 48T367 8Q437 8 483 49T529 162V621H440V645H643V621Z"  />
<glyph unicode="V" horiz-adv-x="651" d="M649 621H574L353 -10H329L97 621H7V645H294V621H203L378 149L543 621H456V645H649V621Z"  />
<glyph unicode="W" horiz-adv-x="926" d="M915 621H843L602 -10H582L470 277L361 -10H341L101 621H23V645H680V621H616L532 402L630 141L814 621H728V645H915V621ZM588 621H448L518 439L588 621ZM456 315L341 621H208L390 143L456 315Z"  />
<glyph unicode="X" horiz-adv-x="706" d="M689 0H404V24H484L324 283L148 24H247V0H22V24H114L308 309L115 621H24V645H329V621H239L375 401L523 621H427V645H652V621H558L392 375L608 24H689V0Z"  />
<glyph unicode="Y" horiz-adv-x="682" d="M673 621H588L420 340V24H518V0H212V24H311V316L113 621H28V645H325V621H234L398 367L550 621H454V645H673V621Z"  />
<glyph unicode="Z" horiz-adv-x="524" d="M502 0H31V30L383 621H192Q64 621 59 472H36V645H495V617L139 24H328Q398 24 434 62Q472 104 477 199H502V0Z"  />
<glyph unicode="[" horiz-adv-x="355" d="M313 -51H134L26 556H205L217 492H119L203 13H301L313 -51Z"  />
<glyph unicode="\" horiz-adv-x="255" d="M208 -10H153L67 519H123L208 -10Z"  />
<glyph unicode="]" horiz-adv-x="356" d="M322 -51H143L131 12H229L145 491H47L35 556H214L322 -51Z"  />
<glyph unicode="^" horiz-adv-x="381" d="M325 325L303 314L195 521L87 314L64 325L178 606H211L325 325Z"  />
<glyph unicode="_" horiz-adv-x="300" d="M311 -31H-4V-11H311V-31Z"  />
<glyph unicode="`" horiz-adv-x="266" d="M233 457L219 450L44 604H147L233 457Z"  />
<glyph unicode="a" horiz-adv-x="456" d="M453 54Q453 34 430 14Q401 -13 353 -13Q288 -13 274 34Q231 -13 158 -13Q42 -13 42 75Q42 138 108 176Q171 211 268 212V319Q268 369 204 369Q182 369 163 364T143 352Q145 350 152 344Q166 331 166 314Q166 277 123 277Q104 277 93 288T81 316Q81 347 116 367Q156 390 228 390Q366 390 366 301V74Q366 43 370 33Q375 20 390 20Q417 20 434 53Q439 63 445 63Q453 63 453 54ZM268 68V194Q203 190 172 173Q132 151 132 99Q132 20 193 20Q213 20 240 37T268 68Z"  />
<glyph unicode="b" horiz-adv-x="534" d="M510 192Q510 116 451 52T315 -12Q250 -12 204 40V0H28V24H107V621H28V645H204V346Q246 393 312 393Q383 393 444 336Q510 275 510 192ZM394 171V214Q394 309 369 343Q351 369 308 369Q246 369 204 303V83Q246 12 312 12Q394 12 394 171Z"  />
<glyph unicode="c" horiz-adv-x="422" d="M411 105Q411 103 410 100L409 96Q396 56 360 26Q312 -13 242 -13Q159 -13 97 41Q29 99 29 187Q29 274 97 334Q162 390 247 390Q296 390 339 369Q388 344 388 308Q388 264 338 264Q289 264 289 306Q289 324 298 336T307 349Q307 354 293 359Q275 366 245 366Q193 366 170 333Q146 297 146 208V167Q146 77 165 45Q186 10 245 10Q298 10 338 40Q372 66 385 105Q389 117 399 117Q411 117 411 105Z"  />
<glyph unicode="d" horiz-adv-x="534" d="M513 0H337V41Q291 -13 227 -13Q159 -13 97 48Q32 112 32 191Q32 266 93 329T230 393Q298 393 337 350V621H259V645H435V24H513V0ZM337 82V301Q295 369 234 369Q187 369 168 336T148 215V168Q148 79 169 43Q188 11 231 11Q291 11 337 82Z"  />
<glyph unicode="e" horiz-adv-x="447" d="M414 117Q414 110 411 102Q391 52 348 21Q298 -13 230 -13Q144 -13 84 49Q28 108 28 185Q28 262 85 324Q144 390 226 390Q315 390 367 327Q406 281 409 233Q410 216 388 216H145V124Q145 10 232 10Q341 10 390 116Q396 128 404 128Q414 128 414 117ZM303 279Q303 366 227 366Q145 366 145 273V240H293Q303 240 303 279Z"  />
<glyph unicode="f" horiz-adv-x="352" d="M340 585Q340 547 303 547Q263 547 263 583Q263 607 286 617Q286 628 244 628Q195 628 195 561V380H278V356H195V24H272V0H20V24H97V356H21V380H97V416Q97 524 118 569Q157 652 242 652Q284 652 312 632T340 585Z"  />
<glyph unicode="g" horiz-adv-x="439" d="M433 371Q433 339 398 339Q360 339 360 370Q360 372 361 377Q347 369 331 352Q377 312 377 255Q377 208 340 169Q292 119 207 119Q172 119 148 126Q68 106 68 66Q68 30 129 30H295Q354 30 388 1Q424 -31 424 -90Q424 -166 366 -209T220 -253Q31 -253 31 -144Q31 -75 109 -43Q33 -24 33 49Q33 114 114 139Q37 180 37 255Q37 310 81 348Q128 390 207 390Q277 390 312 366Q351 405 390 405Q433 405 433 371ZM275 238V270Q275 325 258 347Q243 366 207 366Q171 366 156 347Q139 325 139 270V238Q139 188 153 167Q168 143 207 143Q246 143 261 167Q275 188 275 238ZM377 -129Q377 -96 351 -72T278 -47H147Q130 -47 111 -69Q89 -94 89 -126Q89 -229 224 -229Q284 -229 327 -205Q377 -178 377 -129Z"  />
<glyph unicode="h" horiz-adv-x="555" d="M539 0H298V24H369V291Q369 360 312 360Q265 360 229 322Q196 288 196 256V24H268V0H26V24H99V621H26V645H196V325Q244 393 344 393Q467 393 467 302V24H539V0Z"  />
<glyph unicode="i" horiz-adv-x="303" d="M216 550Q216 528 199 513T158 497Q134 497 117 512T100 550Q100 573 117 588T158 604Q182 604 199 589T216 550ZM285 0H33V24H110V356H33V380H207V24H285V0Z"  />
<glyph unicode="j" horiz-adv-x="282" d="M228 550Q228 527 211 512T170 496Q146 496 129 511T112 550Q112 573 129 588T170 604Q194 604 211 589T228 550ZM225 -28Q225 -133 184 -192T70 -252Q33 -252 6 -234T-21 -187Q-21 -167 -8 -153T28 -138Q50 -138 62 -152T75 -184Q75 -212 53 -226Q57 -228 69 -228Q92 -228 109 -212T127 -164V355H44V379H225V-28Z"  />
<glyph unicode="k" horiz-adv-x="556" d="M549 0H291V24H359L223 202H207V24H280V0H27V24H110V621H27V645H207V226H230L373 356H292V380H494V356H410L294 249L475 24H549V0Z"  />
<glyph unicode="l" horiz-adv-x="294" d="M273 0H32V24H104V621H32V645H201V24H273V0Z"  />
<glyph unicode="m" horiz-adv-x="785" d="M766 0H536V24H601V287Q601 353 553 353Q510 353 476 314Q446 280 446 248V24H513V0H282V24H349V287Q349 316 344 328Q334 353 300 353Q262 353 226 315Q194 281 194 256V24H260V0H29V24H96V353H29V377H194V316Q244 385 344 385Q432 385 445 314Q493 385 596 385Q699 385 699 297V24H766V0Z"  />
<glyph unicode="n" horiz-adv-x="547" d="M528 0H286V24H358V287Q358 353 305 353Q268 353 235 319T202 252V24H274V0H33V24H105V353H33V376H202V316Q250 384 343 384Q456 384 456 293V24H528V0Z"  />
<glyph unicode="o" horiz-adv-x="460" d="M441 188Q441 117 385 55Q323 -13 234 -13Q145 -13 82 55Q25 117 25 188Q25 259 82 321Q145 390 234 390Q323 390 385 321Q441 259 441 188ZM325 168V209Q325 295 309 327Q289 366 234 366Q179 366 158 327Q141 294 141 209V168Q141 80 158 47Q178 10 234 10Q290 10 309 47Q325 79 325 168Z"  />
<glyph unicode="p" horiz-adv-x="515" d="M494 187Q494 105 433 44T295 -17Q228 -17 187 29V-233H254V-257H22V-233H89V352H22V377H187V336Q233 390 297 390Q370 390 432 329T494 187ZM378 167V210Q378 304 352 341Q333 366 296 366Q258 366 223 337T187 275V91Q187 64 220 37T293 9Q337 9 355 36Q378 70 378 167Z"  />
<glyph unicode="q" horiz-adv-x="524" d="M507 -257H276V-233H343V30Q300 -17 233 -17Q158 -17 96 45T34 187Q34 265 95 326T231 387Q299 387 343 335V376H507V352H440V-233H507V-257ZM343 106V266Q343 303 307 334T232 366Q150 366 150 245V141Q150 61 173 32Q192 8 235 8Q283 8 313 37T343 106Z"  />
<glyph unicode="r" horiz-adv-x="412" d="M402 313Q402 289 386 275T346 261Q321 261 305 274T289 310Q289 340 314 354Q317 355 317 357Q317 361 293 361Q257 361 223 333T188 276V24H260V0H18V24H90V353H18V377H188V332Q231 385 304 385Q344 385 370 369Q402 350 402 313Z"  />
<glyph unicode="s" horiz-adv-x="367" d="M343 119Q343 62 306 25Q266 -13 199 -13Q125 -13 83 24L64 -1Q59 -8 54 -8Q43 -8 43 4V105Q43 117 54 117Q63 117 66 105Q93 10 196 10Q234 10 264 27Q299 47 299 81Q299 122 238 144Q227 147 142 165Q50 184 50 266Q50 317 86 352Q126 390 191 390Q237 390 269 365L289 384L292 386Q296 390 300 390Q307 390 307 379V278Q307 268 299 268Q290 268 288 277Q282 312 258 337Q229 366 185 366Q148 366 124 348T99 306Q99 277 134 267Q178 257 246 239Q343 210 343 119Z"  />
<glyph unicode="t" horiz-adv-x="348" d="M338 83Q338 79 337 73Q321 -13 214 -13Q154 -13 122 18T89 104V355H19V379H89V485L187 530V379H287V355H187V102Q187 16 249 16Q303 16 314 81Q316 95 328 95Q338 95 338 83Z"  />
<glyph unicode="u" horiz-adv-x="556" d="M529 0H359V60Q306 -11 204 -11Q95 -11 95 95V353H23V376H193V89Q193 55 201 42Q212 25 245 25Q287 25 323 59T359 123V353H287V376H457V24H529V0Z"  />
<glyph unicode="v" horiz-adv-x="505" d="M488 353H425L269 -4H255L90 353H21V376H264V353H194L297 123L397 353H326V376H488V353Z"  />
<glyph unicode="w" horiz-adv-x="668" d="M654 353H582L457 -11H443L338 230L251 -11H236L92 353H23V376H257V353H191L278 135L363 376H377L482 134L556 353H472V376H654V353Z"  />
<glyph unicode="x" horiz-adv-x="518" d="M505 0H263V24H336L239 152L134 24H205V0H31V24H102L223 173L86 353H26V376H253V353H190L279 236L374 353H313V376H476V353H408L295 215L441 24H505V0Z"  />
<glyph unicode="y" horiz-adv-x="521" d="M511 352H442L231 -154Q191 -251 111 -251Q54 -251 54 -206Q54 -167 95 -167Q125 -167 139 -194Q145 -205 151 -205Q183 -205 207 -146L266 -3L96 352H26V376H277V352H201L313 110L414 352H340V376H511V352Z"  />
<glyph unicode="z" horiz-adv-x="414" d="M388 0H49V26L275 353H179Q100 353 89 255H68V376H377V348L155 24H267Q359 24 367 132H388V0Z"  />
<glyph unicode="{" horiz-adv-x="341" d="M377 -156H316Q272 -156 233 -124T187 -47L163 96Q153 154 133 180Q108 212 53 217L41 288Q113 294 113 359Q113 376 107 409L81 553Q79 564 79 572Q79 609 106 635T172 662H233L245 596H227Q164 596 164 549Q164 544 166 532L190 394Q193 377 193 363Q193 296 135 252Q223 205 240 111L264 -26Q274 -84 325 -90Q325 -90 365 -90L377 -156Z"  />
<glyph unicode="|" horiz-adv-x="207" d="M208 -165H158L-4 749H46L208 -165Z"  />
<glyph unicode="}" horiz-adv-x="341" d="M293 218Q221 212 221 147Q221 130 227 97L253 -47Q255 -58 255 -66Q255 -103 228 -129T162 -156H101L89 -90H107Q170 -90 170 -43Q170 -38 168 -26L144 112Q141 129 141 143Q141 210 199 254Q111 301 94 395L70 532Q60 590 9 596Q9 596 -31 596L-43 662H18Q62 662 101 630T147 553L171 410Q181 352 201 326Q226 294 281 289L293 218Z"  />
<glyph unicode="&#xA0;" horiz-adv-x="250" />
<glyph unicode="&#xA1;" horiz-adv-x="277" d="M206 453Q206 430 189 414T146 398Q121 398 104 414T86 453Q86 476 103 492T146 509Q171 509 188 493T206 453ZM208 -48Q208 -138 145 -138Q80 -138 80 -48Q80 -11 91 41Q101 84 111 128Q122 185 134 347H155Q159 296 162 244Q168 176 177 128Q183 105 195 50T208 -48Z"  />
<glyph unicode="&#xA2;" horiz-adv-x="354" d="M331 213Q331 210 330 206Q307 125 211 118L210 70H185V119Q123 124 79 167T35 271Q35 333 75 373T185 424V461H210L211 424Q250 423 281 405T312 361Q312 324 274 324Q258 324 248 334T237 359Q237 373 242 379T248 389Q248 403 211 405V140Q248 142 275 163T309 215Q311 224 320 224Q331 224 331 213ZM185 140V404Q150 397 138 374T125 291V250Q125 200 132 180Q145 145 185 140Z"  />
<glyph unicode="&#xA3;" horiz-adv-x="559" d="M535 187Q535 126 484 60Q429 -11 363 -11Q273 -11 217 48Q184 -5 107 -5Q63 -5 39 20T14 80Q14 129 59 160Q98 186 144 186Q162 186 182 182L131 324H35V350H120Q86 448 86 491Q86 581 169 624Q235 658 340 658Q402 658 448 628Q498 595 498 546Q498 465 426 465Q399 465 381 479T362 517Q362 573 430 573Q445 573 445 580Q445 598 412 616T340 634Q285 634 259 608Q228 578 228 506V350H309V324H228V170Q344 103 405 103Q443 103 468 127Q489 147 511 193Q515 201 523 201Q535 201 535 187ZM194 68Q138 132 89 132Q73 132 59 120Q42 105 42 80Q42 57 59 39T107 21Q171 21 194 68Z"  />
<glyph unicode="&#xA5;" horiz-adv-x="674" d="M665 621H579L411 340V324H511V300H411V261H511V237H411V24H510V0H204V24H302V237H201V261H302V300H201V324H297L105 621H20V645H317V621H226L390 367L542 621H446V645H665V621Z"  />
<glyph unicode="&#xA6;" horiz-adv-x="118" d="M80 357H43V647H80V357ZM80 0H43V265H80V0Z"  />
<glyph unicode="&#xA7;" horiz-adv-x="387" d="M367 335Q367 246 292 214Q364 181 364 93Q364 20 317 -24T190 -69Q130 -69 89 -37T48 37Q48 85 91 85Q130 85 130 46Q130 9 88 9Q83 9 83 8Q83 -3 112 -22Q148 -45 190 -45Q245 -45 277 -20T309 43Q309 95 238 119Q173 140 108 161Q37 197 37 279Q37 372 119 401Q36 429 36 518Q36 579 79 621Q124 667 195 667Q271 667 312 637Q345 614 345 581Q345 542 307 542Q264 542 264 577Q264 610 297 616Q260 643 195 643Q153 643 121 622T89 569Q89 513 190 499Q367 474 367 335ZM329 300Q329 332 268 359Q220 381 163 390Q90 375 90 323Q90 289 124 268Q163 243 259 225Q329 250 329 300Z"  />
<glyph unicode="&#xA8;" horiz-adv-x="432" d="M353 554Q353 535 338 522T300 509Q278 509 263 522T247 554Q247 573 262 586T300 599Q322 599 337 586T353 554ZM196 554Q196 535 181 522T143 509Q121 509 106 522T90 554Q90 573 105 586T143 599Q165 599 180 586T196 554Z"  />
<glyph unicode="&#xA9;" horiz-adv-x="637" d="M616 357Q616 247 532 169T327 91Q207 91 122 169T37 357Q37 467 122 545T327 623Q447 623 531 545T616 357ZM586 358Q586 456 511 525T328 594Q221 594 145 525T69 358Q69 260 145 191T328 122Q435 122 510 191T586 358ZM428 241Q428 234 420 234Q417 234 414 237L393 257Q363 230 324 230Q274 230 233 272T192 370Q192 423 231 466T327 510Q362 510 392 489L405 503Q408 507 415 507H417Q423 506 423 498V434Q423 424 415 424Q411 424 407 431Q386 491 327 491Q254 491 254 391V349Q254 248 324 248Q377 248 411 317Q413 325 421 325Q428 325 428 317V241Z"  />
<glyph unicode="&#xAA;" horiz-adv-x="354" d="M323 398Q323 385 309 373Q291 356 262 356Q223 356 213 383Q186 356 144 356Q73 356 73 411Q73 449 112 471T209 494V555Q209 582 172 582Q141 582 137 577L139 575Q140 575 142 573Q151 563 151 553Q151 529 123 529Q96 529 96 555Q96 573 119 586T186 600Q271 600 271 545V410Q271 380 283 380Q295 380 304 392T316 405Q323 405 323 398ZM323 284H44V322H323V284ZM209 408V480Q130 474 130 425Q130 380 165 380Q177 380 193 390T209 408Z"  />
<glyph unicode="&#xAB;" horiz-adv-x="438" d="M382 108H354L174 258L354 408H382L254 258L382 108ZM232 108H203L24 258L203 408H232L104 258L232 108Z"  />
<glyph unicode="&#xAC;" horiz-adv-x="564" d="M545 230H506V389H18V429H545V230Z"  />
<glyph unicode="&#xAE;" horiz-adv-x="448" d="M413 475Q413 402 357 351T219 299Q138 299 82 350T25 475Q25 549 82 600T219 652Q299 652 356 601T413 475ZM383 475Q383 536 335 579T220 622Q152 622 105 579T57 475Q57 414 104 371T220 328Q287 328 335 371T383 475ZM331 388Q331 380 329 378Q318 368 290 368Q271 368 265 376Q256 385 254 404Q253 419 252 434Q248 473 218 473H197V388H225V370H127V388H156V562H127V580H225Q257 580 277 566T298 526Q298 491 258 478Q283 470 291 450Q297 437 298 407Q299 384 309 384Q316 384 322 388H331ZM258 520V531Q258 562 225 562H197V491H225Q258 491 258 520Z"  />
<glyph unicode="&#xAF;" horiz-adv-x="454" d="M360 516H107V543H360V516Z"  />
<glyph unicode="&#xB0;" horiz-adv-x="231" d="M202 582Q202 552 178 531T121 510Q88 510 64 531T39 582Q39 612 63 633T121 654Q154 654 178 633T202 582ZM177 582Q177 603 161 617T121 631Q97 631 81 617T64 582Q64 562 80 548T121 533Q145 533 161 547T177 582Z"  />
<glyph unicode="&#xB1;" horiz-adv-x="410" d="M374 344H235V217H171V344H32V403H171V530H235V403H374V344ZM358 126H48V185H358V126Z"  />
<glyph unicode="&#xB2;" horiz-adv-x="306" d="M287 205H54L44 261Q194 350 194 410Q194 441 174 459T122 477Q73 477 73 432Q73 424 77 400H20Q16 423 16 435Q16 517 113 517Q174 517 205 496Q240 472 250 415Q251 409 251 400Q251 375 231 349Q204 314 104 246L280 245L287 205Z"  />
<glyph unicode="&#xB3;" horiz-adv-x="306" d="M293 269Q293 199 179 199Q77 199 44 265Q36 281 35 298H92Q102 238 173 238Q234 238 234 278Q234 342 141 340L134 378Q200 378 200 417Q200 419 199 421Q199 424 199 425Q188 478 131 478Q79 478 79 433Q79 427 80 416H26Q21 428 21 445Q21 520 129 520Q185 520 218 496Q258 469 258 415Q258 383 219 367Q214 365 205 359Q220 357 251 347Q293 323 293 269Z"  />
<glyph unicode="&#xB4;" horiz-adv-x="404" d="M371 622L196 468L183 477L268 622H371Z"  />
<glyph unicode="&#xB6;" horiz-adv-x="664" d="M625 621H536V-104H471V621H392V-104H328V291H263Q163 291 101 334Q34 381 34 468Q34 555 101 602Q163 645 263 645H625V621Z"  />
<glyph unicode="&#xB8;" horiz-adv-x="359" d="M266 -101Q266 -125 246 -140T194 -156Q151 -156 123 -117Q118 -110 118 -104Q118 -96 126 -96Q131 -96 146 -108T179 -121Q215 -121 215 -93Q215 -69 180 -56L194 0H228L217 -45Q266 -61 266 -101Z"  />
<glyph unicode="&#xB9;" horiz-adv-x="306" d="M237 206H181L140 438Q116 412 78 404L69 454Q126 479 131 508H184L237 206Z"  />
<glyph unicode="&#xBA;" horiz-adv-x="327" d="M293 477Q293 434 259 396Q221 354 167 354Q113 354 75 396Q40 434 40 477Q40 520 75 557Q113 598 167 598Q221 598 259 557Q293 520 293 477ZM304 284H26V322H304V284ZM219 464V488Q219 533 214 549Q203 580 167 580Q131 580 120 549Q113 532 113 488V464Q113 419 119 402Q130 372 167 372Q203 372 214 403Q219 419 219 464Z"  />
<glyph unicode="&#xBB;" horiz-adv-x="426" d="M422 258L243 108H214L343 258L214 408H243L422 258ZM266 258L87 108H58L187 258L58 408H87L266 258Z"  />
<glyph unicode="&#xBC;" horiz-adv-x="697" d="M624 79H579L593 0H536L522 79H375L368 122L474 301H540L572 118H618L624 79ZM515 118L494 240L422 118H515ZM241 206H185L144 438Q119 412 82 404L73 454Q129 479 135 508H188L241 206ZM401 621L294 -119H228L335 621H401Z"  />
<glyph unicode="&#xBD;" horiz-adv-x="697" d="M223 206H167L126 438Q102 412 64 404L55 454Q111 479 117 508H170L223 206ZM642 0H409L399 56Q549 145 549 205Q549 235 529 253T477 271Q428 271 428 226Q428 219 432 195H375Q371 218 371 229Q371 311 468 311Q529 311 560 291Q595 267 605 210Q606 203 606 195Q606 170 586 143Q559 108 459 40H635L642 0ZM383 621L276 -119H210L317 621H383Z"  />
<glyph unicode="&#xBE;" horiz-adv-x="697" d="M306 269Q306 199 192 199Q90 199 57 265Q49 282 48 298H105Q115 239 186 239Q248 239 248 279Q248 343 155 340L147 379Q213 379 213 418Q213 419 213 422Q212 424 212 426Q202 478 144 478Q92 478 92 433Q92 428 93 417H39Q34 429 34 446Q34 520 143 520Q198 520 232 497Q271 469 271 416Q271 383 233 368Q227 366 218 360Q234 358 264 347Q306 324 306 269ZM663 79H617L631 0H574L560 79H414L406 122L513 301H578L611 118H656L663 79ZM554 118L532 240L460 118H554ZM446 621L339 -119H273L380 621H446Z"  />
<glyph unicode="&#xBF;" horiz-adv-x="415" d="M292 448Q292 425 275 409T232 393Q207 393 190 409T172 448Q172 471 189 487T232 504Q257 504 274 488T292 448ZM369 -38Q369 -77 325 -105Q277 -134 202 -134Q125 -134 82 -99T38 2Q38 47 64 85Q81 110 124 148L170 189Q221 235 221 256Q221 282 220 290Q218 306 218 310Q218 321 231 321Q241 321 243 311Q256 249 256 212Q256 174 246 152Q230 117 196 85Q143 34 138 28Q101 -15 101 -46Q101 -72 124 -90Q151 -110 200 -110Q247 -110 275 -98Q295 -90 295 -85Q295 -85 294 -87Q247 -78 247 -37Q247 -14 264 1T309 16Q335 16 352 1T369 -38Z"  />
<glyph unicode="&#xD7;" horiz-adv-x="581" d="M549 57L493 6L290 192L89 6L33 57L234 243L33 427L89 479L290 293L493 479L549 427L347 243L549 57Z"  />
<glyph unicode="&#xF7;" horiz-adv-x="382" d="M255 385Q255 362 238 346T195 330Q170 330 153 346T135 385Q135 408 152 424T195 440Q220 440 237 424T255 385ZM336 225H53V283H336V225ZM255 116Q255 93 238 77T195 61Q170 61 153 77T135 116Q135 139 152 155T195 171Q220 171 237 155T255 116Z"  />
<glyph unicode="&#x192;" horiz-adv-x="500" d="M488 623Q488 585 455 585Q424 585 424 612Q424 619 429 629T435 642Q435 655 417 655Q379 655 367 602Q351 530 335 427H422L414 395H329Q303 260 245 49Q200 -116 145 -170Q104 -210 61 -210Q36 -210 19 -197T1 -159Q1 -116 39 -116Q50 -116 60 -124T70 -143Q70 -148 61 -164Q59 -168 59 -171Q59 -181 71 -181Q96 -181 118 -145Q131 -124 147 -59Q151 -43 189 144Q192 161 249 395H163L170 427Q206 430 214 431Q240 436 251 450Q264 468 281 516Q306 590 327 621Q365 677 421 677Q448 677 468 663T488 623Z"  />
<glyph unicode="&#x3BC;" horiz-adv-x="576" d="M534 100Q526 -14 438 -14Q368 -14 360 79Q281 -14 207 -14Q182 -14 162 -3Q148 5 131 28Q131 28 131 5Q131 -36 147 -111Q154 -144 154 -162Q154 -184 142 -200T108 -216Q65 -216 65 -163Q65 -144 82 -74Q88 -47 90 -31Q96 23 96 56V447H176V187Q176 117 185 90Q200 46 245 46Q302 46 360 112V447H441V128Q441 79 445 64Q452 39 474 39Q505 39 514 100H534Z"  />
<glyph unicode="&#x5B0;" horiz-adv-x="0" d="M126 -122Q126 -152 93 -152Q76 -152 62 -140T47 -110Q47 -80 80 -80Q97 -80 111 -92T126 -122ZM150 -217Q150 -247 117 -247Q100 -247 86 -235T71 -205Q71 -175 104 -175Q121 -175 135 -187T150 -217Z"  />
<glyph unicode="&#x5B1;" horiz-adv-x="0" d="M326 -122Q326 -152 293 -152Q276 -152 262 -140T247 -110Q247 -80 280 -80Q297 -80 311 -92T326 -122ZM350 -217Q350 -247 317 -247Q300 -247 286 -235T271 -205Q271 -175 304 -175Q321 -175 335 -187T350 -217ZM212 -122Q212 -152 179 -152Q162 -152 148 -140T133 -110Q133 -80 166 -80Q183 -80 197 -92T212 -122ZM94 -122Q94 -152 61 -152Q44 -152 30 -140T15 -110Q15 -80 48 -80Q65 -80 79 -92T94 -122ZM170 -213Q170 -243 137 -243Q120 -243 106 -231T91 -201Q91 -171 124 -171Q141 -171 155 -183T170 -213Z"  />
<glyph unicode="&#x5B2;" horiz-adv-x="0" d="M364 -122Q364 -152 331 -152Q314 -152 300 -140T285 -110Q285 -80 318 -80Q335 -80 349 -92T364 -122ZM388 -217Q388 -247 355 -247Q338 -247 324 -235T309 -205Q309 -175 342 -175Q359 -175 373 -187T388 -217ZM257 -143H31L18 -79H243L257 -143Z"  />
<glyph unicode="&#x5B3;" horiz-adv-x="0" d="M453 -122Q453 -152 420 -152Q403 -152 389 -140T374 -110Q374 -80 407 -80Q424 -80 438 -92T453 -122ZM477 -217Q477 -247 444 -247Q427 -247 413 -235T398 -205Q398 -175 431 -175Q448 -175 462 -187T477 -217ZM352 -142H270L293 -240H223L200 -142H126L112 -78H339L352 -142Z"  />
<glyph unicode="&#x5B4;" horiz-adv-x="0" d="M373 -122Q373 -152 340 -152Q323 -152 309 -140T294 -110Q294 -80 327 -80Q344 -80 358 -92T373 -122Z"  />
<glyph unicode="&#x5B5;" horiz-adv-x="0" d="M417 -122Q417 -152 384 -152Q367 -152 353 -140T338 -110Q338 -80 371 -80Q388 -80 402 -92T417 -122ZM299 -122Q299 -152 266 -152Q249 -152 235 -140T220 -110Q220 -80 253 -80Q270 -80 284 -92T299 -122Z"  />
<glyph unicode="&#x5B6;" horiz-adv-x="0" d="M427 -122Q427 -152 394 -152Q377 -152 363 -140T348 -110Q348 -80 381 -80Q398 -80 412 -92T427 -122ZM309 -122Q309 -152 276 -152Q259 -152 245 -140T230 -110Q230 -80 263 -80Q280 -80 294 -92T309 -122ZM385 -213Q385 -243 352 -243Q335 -243 321 -231T306 -201Q306 -171 339 -171Q356 -171 370 -183T385 -213Z"  />
<glyph unicode="&#x5B7;" horiz-adv-x="0" d="M461 -143H236L222 -79H448L461 -143Z"  />
<glyph unicode="&#x5B8;" horiz-adv-x="0" d="M451 -142H369L392 -240H322L299 -142H225L211 -78H438L451 -142Z"  />
<glyph unicode="&#x5B9;" horiz-adv-x="0" d="M40 596Q40 563 3 563Q-16 563 -31 577T-47 610Q-47 643 -11 643Q8 643 24 629T40 596Z"  />
<glyph unicode="&#x5BB;" horiz-adv-x="0" d="M94 -122Q94 -152 61 -152Q44 -152 30 -140T15 -110Q15 -80 48 -80Q65 -80 79 -92T94 -122ZM139 -207Q139 -237 106 -237Q89 -237 75 -225T60 -195Q60 -165 93 -165Q110 -165 124 -177T139 -207ZM186 -289Q186 -319 153 -319Q136 -319 122 -307T107 -277Q107 -247 140 -247Q157 -247 171 -259T186 -289Z"  />
<glyph unicode="&#x5BC;" horiz-adv-x="0" d="M73 250Q73 217 36 217Q17 217 1 231T-15 264Q-15 297 22 297Q41 297 57 283T73 250Z"  />
<glyph unicode="&#x5BD;" horiz-adv-x="0" d="M28 -229H0V-102H28V-229Z"  />
<glyph unicode="&#x5BE;" horiz-adv-x="310" d="M257 436H59L47 502H245L257 436Z"  />
<glyph unicode="&#x5BF;" horiz-adv-x="0" d="M254 567H77V608H254V567Z"  />
<glyph unicode="&#x5C0;" horiz-adv-x="168" d="M108 -130H60V617H108V-130Z"  />
<glyph unicode="&#x5C1;" horiz-adv-x="0" d="M647 596Q647 563 610 563Q591 563 576 577T560 610Q560 643 596 643Q615 643 631 629T647 596Z"  />
<glyph unicode="&#x5C2;" horiz-adv-x="0" d="M163 596Q163 563 126 563Q107 563 92 577T76 610Q76 643 112 643Q131 643 147 629T163 596Z"  />
<glyph unicode="&#x5C3;" horiz-adv-x="275" d="M141 336H35L18 436H124L141 336ZM200 0H94L77 100H183L200 0Z"  />
<glyph unicode="&#x5D0;" horiz-adv-x="562" d="M574 0H466L195 298L189 0H93L116 381L6 502H121L353 240L368 502H467L427 160L574 0Z"  />
<glyph unicode="&#x5D1;" horiz-adv-x="581" d="M558 0H112L100 66H237Q366 66 366 198Q366 301 318 365Q264 436 165 436H41L29 502H154Q286 502 359 446Q436 388 461 261Q466 236 466 202Q466 141 438 107Q430 97 418 89Q391 70 391 67Q391 62 405 62Q414 62 432 64T459 66H546L558 0Z"  />
<glyph unicode="&#x5D2;" horiz-adv-x="445" d="M429 0H342Q328 10 314 50Q303 85 289 85Q283 85 278 69Q276 58 274 47Q266 18 245 2Q221 -15 181 -15Q120 -15 105 0L91 79Q125 63 159 63Q215 63 245 104Q271 141 271 199Q271 236 257 306Q238 401 183 424Q154 436 40 436L28 502H142Q311 502 350 306Q363 227 376 147Q395 47 429 0Z"  />
<glyph unicode="&#x5D3;" horiz-adv-x="554" d="M477 436H360L436 0H341L265 436H29L17 502H465L477 436Z"  />
<glyph unicode="&#x5D4;" horiz-adv-x="586" d="M562 0H467Q451 98 416 291Q399 377 369 405Q336 436 250 436H37L26 502H243Q374 502 429 461T510 294Q517 257 562 0ZM210 0H114L62 296H158L210 0Z"  />
<glyph unicode="&#x5D5;" horiz-adv-x="220" d="M208 0H113L42 404Q39 423 27 456T4 502H101Q125 472 137 402L208 0Z"  />
<glyph unicode="&#x5D6;" horiz-adv-x="346" d="M278 436Q238 436 223 424Q205 410 205 372Q205 341 212 302L266 0H172L124 267Q114 323 114 354Q114 420 165 433H168Q168 439 160 439Q150 439 130 438T100 436H12L0 502H266L278 436Z"  />
<glyph unicode="&#x5D7;" horiz-adv-x="595" d="M580 0H485L434 289Q420 371 395 399Q364 436 287 436H139L216 0H121L33 502Q75 502 158 503Q241 503 282 503Q400 503 452 460T527 302Q547 197 580 0Z"  />
<glyph unicode="&#x5D8;" horiz-adv-x="622" d="M557 166Q557 -15 357 -15Q188 -15 110 124Q83 171 75 220L26 502H121L171 216Q182 150 232 102T347 54Q458 54 458 179Q458 203 453 235Q438 328 418 370Q382 444 312 444Q272 444 253 433Q249 429 239 421L227 488Q227 493 236 499Q265 517 307 517Q389 517 437 485T515 377Q537 321 551 236Q557 200 557 166Z"  />
<glyph unicode="&#x5D9;" horiz-adv-x="217" d="M179 211H84L50 404Q47 423 35 456T12 502H109Q134 470 146 402L179 211Z"  />
<glyph unicode="&#x5DA;" horiz-adv-x="488" d="M463 -193H368L283 290Q269 371 245 399Q215 436 138 436H-35L-46 502H162Q341 502 370 336L463 -193Z"  />
<glyph unicode="&#x5DB;" horiz-adv-x="481" d="M438 194Q438 106 390 53T253 0H101L90 67H242Q292 67 317 110Q338 145 338 199Q338 279 297 351Q249 436 175 436H25L13 502H163Q280 502 361 405Q438 313 438 194Z"  />
<glyph unicode="&#x5DC;" horiz-adv-x="492" d="M420 0H323Q322 113 322 339Q322 393 302 414T228 436H119Q23 436 3 529Q-6 579 -15 629Q-27 687 -54 722H48Q69 691 80 631Q92 568 93 563Q105 515 123 508Q137 502 167 502H283Q359 502 391 466Q420 432 420 355V0Z"  />
<glyph unicode="&#x5DD;" horiz-adv-x="591" d="M594 0H120L32 502H318Q423 502 469 467T536 330Q542 300 594 0ZM488 66L443 319Q428 398 394 419Q368 436 282 436H138L204 66H488Z"  />
<glyph unicode="&#x5DE;" horiz-adv-x="617" d="M570 107Q570 -14 430 -14Q388 -14 332 0L319 69Q361 58 390 58Q472 58 472 129Q472 137 469 154L441 313Q429 380 403 411Q371 450 308 450Q246 450 208 400Q174 354 174 289Q174 267 176 256L222 0H127L57 393Q44 466 26 502H115Q135 468 146 398Q150 394 152 394Q156 394 157 397Q158 414 169 436Q210 519 313 519Q468 519 518 393Q527 369 537 315L567 147Q570 130 570 107Z"  />
<glyph unicode="&#x5DF;" horiz-adv-x="224" d="M260 -192H165L60 404Q57 423 45 456T22 502H119Q143 472 155 402L260 -192Z"  />
<glyph unicode="&#x5E0;" horiz-adv-x="403" d="M380 0H102L91 67H275Q260 153 235 289Q221 363 202 392Q173 436 108 436H33L21 502H127Q287 502 323 327Q323 327 380 0Z"  />
<glyph unicode="&#x5E1;" horiz-adv-x="597" d="M559 129Q559 0 392 0H164L9 502H497L554 179Q559 151 559 129ZM463 143Q463 157 460 174L414 436H126L238 66H387Q463 66 463 143Z"  />
<glyph unicode="&#x5E2;" horiz-adv-x="602" d="M532 151Q532 0 363 0H101L89 66H247L12 502H113L344 66Q436 66 436 167Q436 186 431 214L380 502H475L526 212Q532 178 532 151Z"  />
<glyph unicode="&#x5E3;" horiz-adv-x="552" d="M568 -192H476L410 179Q395 262 383 305Q363 375 333 408Q295 451 229 451Q174 451 146 417T117 326Q117 245 158 208H64Q20 266 20 340Q20 425 78 473Q131 517 218 517Q364 517 430 414Q472 349 502 179L568 -192Z"  />
<glyph unicode="&#x5E4;" horiz-adv-x="566" d="M518 186Q518 0 285 0H150L138 66H256Q418 66 418 199Q418 218 413 250Q381 450 246 450Q192 450 162 414T131 321Q131 258 167 208H78Q33 259 33 335Q33 422 92 471Q146 517 234 517Q466 517 511 251Q518 209 518 186Z"  />
<glyph unicode="&#x5E5;" horiz-adv-x="628" d="M522 341Q522 273 484 216T383 126L440 -195H346L292 110L12 502H118L337 193Q376 218 403 260T431 346Q431 418 379 502H473Q522 432 522 341Z"  />
<glyph unicode="&#x5E6;" horiz-adv-x="559" d="M542 0H96L84 67H421Q320 153 194 287Q74 414 1 502H119L304 289L359 502H467L378 216L530 67L542 0Z"  />
<glyph unicode="&#x5E7;" horiz-adv-x="592" d="M539 136Q539 -14 389 -14Q340 -14 312 2L301 69Q326 53 373 53Q443 53 443 144Q443 171 439 194L396 436H28L16 502H479L534 192Q539 164 539 136ZM258 -192H163L78 288H173L258 -192Z"  />
<glyph unicode="&#x5E8;" horiz-adv-x="502" d="M482 0H387Q369 107 330 319Q314 398 282 419Q256 436 171 436H20L8 502H206Q312 502 357 467T423 330Q443 220 482 0Z"  />
<glyph unicode="&#x5E9;" horiz-adv-x="682" d="M408 165H314L255 502H349L408 165ZM632 145Q632 56 566 23Q520 0 421 0H149L9 502H103L227 66H383Q452 66 485 80Q536 101 536 159Q536 180 533 197L479 502H574L626 204Q632 170 632 145Z"  />
<glyph unicode="&#x5EA;" horiz-adv-x="642" d="M616 0H521L464 321Q451 396 420 418Q393 436 314 436H188L242 126Q247 97 247 76Q247 27 222 8T147 -11Q118 -11 76 10L64 75Q87 59 110 59Q149 59 149 105Q149 118 148 124L81 502H306Q449 502 491 471Q539 435 563 299L616 0Z"  />
<glyph unicode="&#x5F0;" horiz-adv-x="420" d="M408 0H313L242 404Q239 423 227 456T204 502H301Q325 472 337 402L408 0ZM208 0H113L42 404Q39 423 27 456T4 502H101Q125 472 137 402L208 0Z"  />
<glyph unicode="&#x5F1;" horiz-adv-x="420" d="M408 0H313L242 404Q239 423 227 456T204 502H301Q325 472 337 402L408 0ZM179 211H84L50 404Q47 423 35 456T12 502H109Q134 470 146 402L179 211Z"  />
<glyph unicode="&#x5F2;" horiz-adv-x="417" d="M379 211H284L250 404Q247 423 235 456T212 502H309Q334 470 346 402L379 211ZM179 211H84L50 404Q47 423 35 456T12 502H109Q134 470 146 402L179 211Z"  />
<glyph unicode="&#x5F3;" horiz-adv-x="283" d="M195 502L142 292H74L80 502H195Z"  />
<glyph unicode="&#x5F4;" horiz-adv-x="425" d="M336 292H268L215 502H330L336 292ZM174 292H105L53 502H168L174 292Z"  />
<glyph unicode="&#xF25;" horiz-adv-x="492" d="M420 0H323Q322 113 322 339Q322 393 302 414T228 436H119Q23 436 3 529Q-6 579 -15 629Q-27 687 -54 722H48Q69 691 80 631Q92 568 93 563Q105 515 123 508Q137 502 167 502H283Q359 502 391 466Q420 432 420 355V0Z"  />
<glyph unicode="&#x200E;" horiz-adv-x="406" d="M375 448L211 296V404H141V0H55V490H211V600L375 448Z"  />
<glyph unicode="&#x200F;" horiz-adv-x="406" d="M351 0H265V404H195V296L31 448L195 600V490H351V0Z"  />
<glyph unicode="&#x2013;" horiz-adv-x="310" d="M257 436H59L47 502H245L257 436Z"  />
<glyph unicode="&#x2014;" horiz-adv-x="710" d="M657 218H59L47 284H645L657 218Z"  />
<glyph unicode="&#x2018;" horiz-adv-x="286" d="M176 292H108L55 502H170L176 292Z"  />
<glyph unicode="&#x2019;" horiz-adv-x="286" d="M195 502L142 292H74L80 502H195Z"  />
<glyph unicode="&#x201A;" horiz-adv-x="283" d="M183 43L130 -167H62L68 43H183Z"  />
<glyph unicode="&#x201C;" horiz-adv-x="434" d="M368 292H300L247 502H362L368 292ZM206 292H137L85 502H200L206 292Z"  />
<glyph unicode="&#x201D;" horiz-adv-x="434" d="M357 502L305 292H236L242 502H357ZM195 502L142 292H74L80 502H195Z"  />
<glyph unicode="&#x201E;" horiz-adv-x="434" d="M357 102L305 -108H236L242 102H357ZM195 102L142 -108H74L80 102H195Z"  />
<glyph unicode="&#x2020;" horiz-adv-x="271" d="M222 423H155V66H119V423H53V456H119V520Q119 531 110 552T101 585Q101 597 108 618T120 664T137 689Q149 689 154 664T166 618T173 585Q173 573 164 552T155 520V456H222V423Z"  />
<glyph unicode="&#x2021;" horiz-adv-x="271" d="M221 174H154V110Q154 99 163 78T172 45Q172 33 165 12T153 -33Q147 -60 136 -60Q125 -60 119 -33Q114 -9 107 12T100 45Q100 57 109 78T118 110V174H52V207H118V422H52V456H118V520Q118 531 109 551T100 584Q100 597 107 618T119 664T136 689Q148 689 153 664T165 618T172 584Q172 572 163 552T154 520V456H221V422H154V207H221V174Z"  />
<glyph unicode="&#x2022;" horiz-adv-x="471" d="M405 227Q405 163 355 117T234 71Q163 71 113 117T62 227Q62 291 112 336T234 382Q305 382 355 337T405 227Z"  />
<glyph unicode="&#x2026;" horiz-adv-x="609" d="M532 0H425L407 100H514L532 0ZM352 0H245L227 100H334L352 0ZM172 0H65L47 100H154L172 0Z"  />
<glyph unicode="&#x2030;" horiz-adv-x="1138" d="M1096 179Q1096 101 1055 48Q1010 -11 930 -11Q847 -11 798 49Q755 102 755 179Q755 254 798 307Q845 365 926 365Q1007 365 1054 306Q1096 254 1096 179ZM736 179Q736 101 695 48Q650 -11 570 -11Q487 -11 438 49Q394 103 394 179Q394 254 437 307Q484 365 565 365Q647 365 694 306Q736 254 736 179ZM638 656L173 -4H126L591 656H638ZM372 469Q372 391 331 339Q286 280 206 280Q123 280 74 339Q31 393 31 469Q31 545 74 597Q121 656 202 656Q283 656 330 597Q372 544 372 469ZM1001 167V190Q1001 269 990 299Q975 344 926 344Q877 344 861 299Q850 269 850 190V167Q850 85 861 56Q877 11 930 11Q976 11 991 54Q1001 85 1001 167ZM640 167V190Q640 269 629 299Q614 344 565 344Q516 344 500 299Q490 269 490 190V167Q490 85 501 56Q517 11 570 11Q616 11 630 54Q640 84 640 167ZM277 458V481Q277 560 266 590Q251 634 202 634Q153 634 137 589Q126 559 126 481V458Q126 376 137 346Q153 301 206 301Q252 301 267 345Q277 375 277 458Z"  />
<glyph unicode="&#x2039;" horiz-adv-x="271" d="M238 108H208L29 258L208 408H238L109 258L238 108Z"  />
<glyph unicode="&#x203A;" horiz-adv-x="271" d="M243 258L63 108H35L164 258L35 408H63L243 258Z"  />
<glyph unicode="&#x20AA;" horiz-adv-x="908" d="M806 145Q806 57 740 23Q693 0 594 0H354L265 322H360L434 66H560Q627 66 660 79Q710 100 710 158Q710 180 707 197L653 502H748L801 203Q806 175 806 145ZM597 179H501L481 289Q466 372 446 398Q417 436 341 436H155L232 0H137L49 503H333Q452 503 502 461T575 302Q583 259 597 179Z"  />
<glyph unicode="&#x20AC;" horiz-adv-x="615" d="M589 52Q509 -16 403 -16Q307 -16 231 41T127 191H29L63 251H117Q116 271 116 271Q116 278 117 294H29L63 354H128Q157 445 232 501T403 558Q509 558 589 490L558 437Q493 498 403 498Q334 498 278 459T192 354H512L476 294H177Q176 282 176 271Q176 266 177 251H452L417 191H190Q218 124 275 84T403 44Q493 44 558 105L572 79Q575 74 589 52Z"  />
<glyph unicode="&#x2122;" horiz-adv-x="510" d="M467 464H371V480H399V596L351 464H339L286 589V480H315V464H238V480H266V628H238V645H301L353 522L399 645H467V628H440V480H467V464ZM216 600H199Q198 607 196 612Q190 628 169 628H147V480H175V464H78V480H105V628H82Q56 628 52 600H35L40 645H212L216 600Z"  />
<glyph unicode="&#x2153;" horiz-adv-x="697" d="M228 206H172L131 438Q107 412 69 404L60 454Q116 479 122 508H175L228 206ZM637 61Q637 -9 524 -9Q421 -9 389 57Q381 73 380 90H436Q447 31 518 31Q579 31 579 71Q579 135 486 132L479 170Q544 170 544 209Q544 211 544 213T544 218Q533 270 476 270Q424 270 424 225Q424 220 425 209H370Q366 221 366 238Q366 312 474 312Q529 312 563 288Q603 261 603 208Q603 175 564 160Q558 158 550 152Q565 150 595 139Q637 115 637 61ZM385 621L278 -119H212L319 621H385Z"  />
<glyph unicode="&#x2154;" horiz-adv-x="697" d="M284 205H50L40 261Q190 350 190 410Q190 441 170 459T119 477Q69 477 69 432Q69 424 73 400H16Q12 423 12 435Q12 517 110 517Q170 517 201 496Q236 472 246 415Q248 409 248 400Q248 375 227 349Q200 314 101 246L276 245L284 205ZM685 61Q685 -9 571 -9Q469 -9 436 57Q428 73 427 90H484Q494 31 565 31Q626 31 626 71Q626 135 533 132L526 170Q592 170 592 209Q592 211 591 214Q591 216 591 218Q580 270 523 270Q471 270 471 225Q471 220 472 209H418Q413 221 413 238Q413 312 521 312Q577 312 610 288Q650 261 650 208Q650 175 611 160Q606 158 597 152Q612 150 643 139Q685 115 685 61ZM436 621L329 -119H263L370 621H436Z"  />
<glyph unicode="&#x2212;" horiz-adv-x="277" d="M277 231H4V262H277V231Z"  />
<glyph unicode="&#x2219;" horiz-adv-x="231" d="M172 309Q172 287 155 272T112 257Q87 257 70 272T52 309Q52 331 69 346T112 361Q137 361 154 346T172 309Z"  />
<glyph unicode="&#xE802;" horiz-adv-x="488" d="M463 -193H368L283 290Q269 371 245 399Q215 436 138 436H-35L-46 502H162Q341 502 370 336L463 -193ZM162 253Q162 223 129 223Q112 223 98 235T83 265Q83 295 116 295Q133 295 147 283T162 253ZM186 158Q186 128 153 128Q136 128 122 140T107 170Q107 200 140 200Q157 200 171 188T186 158Z"  />
<glyph unicode="&#xE803;" horiz-adv-x="488" d="M463 -193H368L283 290Q269 371 245 399Q215 436 138 436H-35L-46 502H162Q341 502 370 336L463 -193ZM240 223H158L181 125H111L88 223H14L0 287H227L240 223Z"  />
<glyph unicode="&#xE804;" horiz-adv-x="492" d="M420 0H323Q322 113 322 339Q322 393 302 414T228 436H119Q23 436 3 529Q-6 579 -15 629Q-27 687 -54 722H48Q69 691 80 631Q92 568 93 563Q105 515 123 508Q137 502 167 502H283Q359 502 391 466Q420 432 420 355V0ZM-49 596Q-49 563 -86 563Q-105 563 -120 577T-136 610Q-136 643 -100 643Q-81 643 -65 629T-49 596Z"  />
<glyph unicode="&#xE805;" horiz-adv-x="492" d="M420 0H323Q322 113 322 339Q322 393 302 414T228 436H119Q23 436 3 529Q-6 579 -15 629Q-27 687 -54 722H48Q69 691 80 631Q92 568 93 563Q105 515 123 508Q137 502 167 502H283Q359 502 391 466Q420 432 420 355V0ZM-49 596Q-49 563 -86 563Q-105 563 -120 577T-136 610Q-136 643 -100 643Q-81 643 -65 629T-49 596ZM233 250Q233 217 196 217Q177 217 161 231T145 264Q145 297 182 297Q201 297 217 283T233 250Z"  />
<glyph unicode="&#xFB1F;" horiz-adv-x="423" d="M359 211H264L230 404Q227 423 215 456T192 502H289Q314 470 326 402L359 211ZM179 211H84L50 404Q47 423 35 456T12 502H109Q134 470 146 402L179 211ZM385 0H111L98 63H371L385 0Z"  />
<glyph unicode="&#xFB20;" horiz-adv-x="602" d="M532 151Q532 0 363 0H101L89 66H247L12 502H113L344 66Q436 66 436 167Q436 186 431 214L380 502H475L526 212Q532 178 532 151Z"  />
<glyph unicode="&#xFB21;" horiz-adv-x="586" d="M562 0H467Q451 98 416 291Q399 377 369 405Q336 436 250 436H37L26 502H243Q374 502 429 461T510 294Q517 257 562 0ZM210 0H114L62 296H158L210 0Z"  />
<glyph unicode="&#xFB22;" horiz-adv-x="554" d="M477 436H360L436 0H341L265 436H29L17 502H465L477 436Z"  />
<glyph unicode="&#xFB24;" horiz-adv-x="481" d="M438 194Q438 106 390 53T253 0H101L90 67H242Q292 67 317 110Q338 145 338 199Q338 279 297 351Q249 436 175 436H25L13 502H163Q280 502 361 405Q438 313 438 194Z"  />
<glyph unicode="&#xFB26;" horiz-adv-x="591" d="M594 0H120L32 502H318Q423 502 469 467T536 330Q542 300 594 0ZM488 66L443 319Q428 398 394 419Q368 436 282 436H138L204 66H488Z"  />
<glyph unicode="&#xFB27;" horiz-adv-x="502" d="M482 0H387Q369 107 330 319Q314 398 282 419Q256 436 171 436H20L8 502H206Q312 502 357 467T423 330Q443 220 482 0Z"  />
<glyph unicode="&#xFB28;" horiz-adv-x="642" d="M616 0H521L464 321Q451 396 420 418Q393 436 314 436H188L242 126Q247 97 247 76Q247 27 222 8T147 -11Q118 -11 76 10L64 75Q87 59 110 59Q149 59 149 105Q149 118 148 124L81 502H306Q449 502 491 471Q539 435 563 299L616 0Z"  />
<glyph unicode="&#xFB2A;" horiz-adv-x="682" d="M408 165H314L255 502H349L408 165ZM632 145Q632 56 566 23Q520 0 421 0H149L9 502H103L227 66H383Q452 66 485 80Q536 101 536 159Q536 180 533 197L479 502H574L626 204Q632 170 632 145ZM550 596Q550 563 513 563Q494 563 479 577T463 610Q463 643 499 643Q518 643 534 629T550 596Z"  />
<glyph unicode="&#xFB2B;" horiz-adv-x="682" d="M408 165H314L255 502H349L408 165ZM632 145Q632 56 566 23Q520 0 421 0H149L9 502H103L227 66H383Q452 66 485 80Q536 101 536 159Q536 180 533 197L479 502H574L626 204Q632 170 632 145ZM78 596Q78 563 41 563Q22 563 7 577T-9 610Q-9 643 27 643Q46 643 62 629T78 596Z"  />
<glyph unicode="&#xFB2C;" horiz-adv-x="682" d="M408 165H314L255 502H349L408 165ZM632 145Q632 56 566 23Q520 0 421 0H149L9 502H103L227 66H383Q452 66 485 80Q536 101 536 159Q536 180 533 197L479 502H574L626 204Q632 170 632 145ZM550 596Q550 563 513 563Q494 563 479 577T463 610Q463 643 499 643Q518 643 534 629T550 596ZM503 250Q503 217 466 217Q447 217 431 231T415 264Q415 297 452 297Q471 297 487 283T503 250Z"  />
<glyph unicode="&#xFB2D;" horiz-adv-x="682" d="M408 165H314L255 502H349L408 165ZM632 145Q632 56 566 23Q520 0 421 0H149L9 502H103L227 66H383Q452 66 485 80Q536 101 536 159Q536 180 533 197L479 502H574L626 204Q632 170 632 145ZM78 596Q78 563 41 563Q22 563 7 577T-9 610Q-9 643 27 643Q46 643 62 629T78 596ZM503 250Q503 217 466 217Q447 217 431 231T415 264Q415 297 452 297Q471 297 487 283T503 250Z"  />
<glyph unicode="&#xFB2E;" horiz-adv-x="562" d="M574 0H466L195 298L189 0H93L116 381L6 502H121L353 240L368 502H467L427 160L574 0ZM461 -143H236L222 -79H448L461 -143Z"  />
<glyph unicode="&#xFB2F;" horiz-adv-x="562" d="M574 0H466L195 298L189 0H93L116 381L6 502H121L353 240L368 502H467L427 160L574 0ZM451 -142H369L392 -240H322L299 -142H225L211 -78H438L451 -142Z"  />
<glyph unicode="&#xFB30;" horiz-adv-x="562" d="M574 0H466L195 298L189 0H93L116 381L6 502H121L353 240L368 502H467L427 160L574 0ZM364 -122Q364 -152 331 -152Q314 -152 300 -140T285 -110Q285 -80 318 -80Q335 -80 349 -92T364 -122Z"  />
<glyph unicode="&#xFB31;" horiz-adv-x="581" d="M558 0H112L100 66H237Q366 66 366 198Q366 301 318 365Q264 436 165 436H41L29 502H154Q286 502 359 446Q436 388 461 261Q466 236 466 202Q466 141 438 107Q430 97 418 89Q391 70 391 67Q391 62 405 62Q414 62 432 64T459 66H546L558 0ZM253 250Q253 217 216 217Q197 217 181 231T165 264Q165 297 202 297Q221 297 237 283T253 250Z"  />
<glyph unicode="&#xFB32;" horiz-adv-x="445" d="M429 0H342Q328 10 314 50Q303 85 289 85Q283 85 278 69Q276 58 274 47Q266 18 245 2Q221 -15 181 -15Q120 -15 105 0L91 79Q125 63 159 63Q215 63 245 104Q271 141 271 199Q271 236 257 306Q238 401 183 424Q154 436 40 436L28 502H142Q311 502 350 306Q363 227 376 147Q395 47 429 0ZM213 250Q213 217 176 217Q157 217 141 231T125 264Q125 297 162 297Q181 297 197 283T213 250Z"  />
<glyph unicode="&#xFB33;" horiz-adv-x="554" d="M477 436H360L436 0H341L265 436H29L17 502H465L477 436ZM223 250Q223 217 186 217Q167 217 151 231T135 264Q135 297 172 297Q191 297 207 283T223 250Z"  />
<glyph unicode="&#xFB34;" horiz-adv-x="586" d="M562 0H467Q451 98 416 291Q399 377 369 405Q336 436 250 436H37L26 502H243Q374 502 429 461T510 294Q517 257 562 0ZM210 0H114L62 296H158L210 0ZM333 250Q333 217 296 217Q277 217 261 231T245 264Q245 297 282 297Q301 297 317 283T333 250Z"  />
<glyph unicode="&#xFB35;" horiz-adv-x="220" d="M208 0H113L42 404Q39 423 27 456T4 502H101Q125 472 137 402L208 0ZM44 250Q44 217 7 217Q-12 217 -28 231T-44 264Q-44 297 -7 297Q12 297 28 283T44 250Z"  />
<glyph unicode="&#xFB36;" horiz-adv-x="346" d="M278 436Q238 436 223 424Q205 410 205 372Q205 341 212 302L266 0H172L124 267Q114 323 114 354Q114 420 165 433H168Q168 439 160 439Q150 439 130 438T100 436H12L0 502H266L278 436ZM103 250Q103 217 66 217Q47 217 31 231T15 264Q15 297 52 297Q71 297 87 283T103 250Z"  />
<glyph unicode="&#xFB38;" horiz-adv-x="622" d="M557 166Q557 -15 357 -15Q188 -15 110 124Q83 171 75 220L26 502H121L171 216Q182 150 232 102T347 54Q458 54 458 179Q458 203 453 235Q438 328 418 370Q382 444 312 444Q272 444 253 433Q249 429 239 421L227 488Q227 493 236 499Q265 517 307 517Q389 517 437 485T515 377Q537 321 551 236Q557 200 557 166ZM353 250Q353 217 316 217Q297 217 281 231T265 264Q265 297 302 297Q321 297 337 283T353 250Z"  />
<glyph unicode="&#xFB39;" horiz-adv-x="217" d="M179 211H84L50 404Q47 423 35 456T12 502H109Q134 470 146 402L179 211ZM54 260Q54 227 17 227Q-2 227 -18 241T-34 274Q-34 307 3 307Q22 307 38 293T54 260Z"  />
<glyph unicode="&#xFB3A;" horiz-adv-x="488" d="M463 -193H368L283 290Q269 371 245 399Q215 436 138 436H-35L-46 502H162Q341 502 370 336L463 -193ZM173 250Q173 217 136 217Q117 217 101 231T85 264Q85 297 122 297Q141 297 157 283T173 250Z"  />
<glyph unicode="&#xFB3B;" horiz-adv-x="481" d="M438 194Q438 106 390 53T253 0H101L90 67H242Q292 67 317 110Q338 145 338 199Q338 279 297 351Q249 436 175 436H25L13 502H163Q280 502 361 405Q438 313 438 194ZM223 250Q223 217 186 217Q167 217 151 231T135 264Q135 297 172 297Q191 297 207 283T223 250Z"  />
<glyph unicode="&#xFB3C;" horiz-adv-x="492" d="M420 0H323Q322 113 322 339Q322 393 302 414T228 436H119Q23 436 3 529Q-6 579 -15 629Q-27 687 -54 722H48Q69 691 80 631Q92 568 93 563Q105 515 123 508Q137 502 167 502H283Q359 502 391 466Q420 432 420 355V0ZM233 250Q233 217 196 217Q177 217 161 231T145 264Q145 297 182 297Q201 297 217 283T233 250Z"  />
<glyph unicode="&#xFB3E;" horiz-adv-x="617" d="M570 107Q570 -14 430 -14Q388 -14 332 0L319 69Q361 58 390 58Q472 58 472 129Q472 137 469 154L441 313Q429 380 403 411Q371 450 308 450Q246 450 208 400Q174 354 174 289Q174 267 176 256L222 0H127L57 393Q44 466 26 502H115Q135 468 146 398Q150 394 152 394Q156 394 157 397Q158 414 169 436Q210 519 313 519Q468 519 518 393Q527 369 537 315L567 147Q570 130 570 107ZM363 250Q363 217 326 217Q307 217 291 231T275 264Q275 297 312 297Q331 297 347 283T363 250Z"  />
<glyph unicode="&#xFB40;" horiz-adv-x="403" d="M380 0H102L91 67H275Q260 153 235 289Q221 363 202 392Q173 436 108 436H33L21 502H127Q287 502 323 327Q323 327 380 0ZM193 250Q193 217 156 217Q137 217 121 231T105 264Q105 297 142 297Q161 297 177 283T193 250Z"  />
<glyph unicode="&#xFB41;" horiz-adv-x="597" d="M559 129Q559 0 392 0H164L9 502H497L554 179Q559 151 559 129ZM463 143Q463 157 460 174L414 436H126L238 66H387Q463 66 463 143ZM363 250Q363 217 326 217Q307 217 291 231T275 264Q275 297 312 297Q331 297 347 283T363 250Z"  />
<glyph unicode="&#xFB44;" horiz-adv-x="566" d="M518 186Q518 0 285 0H150L138 66H256Q418 66 418 199Q418 218 413 250Q381 450 246 450Q192 450 162 414T131 321Q131 258 167 208H78Q33 259 33 335Q33 422 92 471Q146 517 234 517Q466 517 511 251Q518 209 518 186ZM323 250Q323 217 286 217Q267 217 251 231T235 264Q235 297 272 297Q291 297 307 283T323 250Z"  />
<glyph unicode="&#xFB46;" horiz-adv-x="559" d="M542 0H96L84 67H421Q320 153 194 287Q74 414 1 502H119L304 289L359 502H467L378 216L530 67L542 0ZM233 141Q233 108 196 108Q177 108 161 122T145 155Q145 188 182 188Q201 188 217 174T233 141Z"  />
<glyph unicode="&#xFB47;" horiz-adv-x="592" d="M539 136Q539 -14 389 -14Q340 -14 312 2L301 69Q326 53 373 53Q443 53 443 144Q443 171 439 194L396 436H28L16 502H479L534 192Q539 164 539 136ZM258 -192H163L78 288H173L258 -192ZM343 250Q343 217 306 217Q287 217 271 231T255 264Q255 297 292 297Q311 297 327 283T343 250Z"  />
<glyph unicode="&#xFB48;" horiz-adv-x="502" d="M482 0H387Q369 107 330 319Q314 398 282 419Q256 436 171 436H20L8 502H206Q312 502 357 467T423 330Q443 220 482 0ZM233 250Q233 217 196 217Q177 217 161 231T145 264Q145 297 182 297Q201 297 217 283T233 250Z"  />
<glyph unicode="&#xFB49;" horiz-adv-x="682" d="M408 165H314L255 502H349L408 165ZM632 145Q632 56 566 23Q520 0 421 0H149L9 502H103L227 66H383Q452 66 485 80Q536 101 536 159Q536 180 533 197L479 502H574L626 204Q632 170 632 145ZM503 250Q503 217 466 217Q447 217 431 231T415 264Q415 297 452 297Q471 297 487 283T503 250Z"  />
<glyph unicode="&#xFB4A;" horiz-adv-x="642" d="M616 0H521L464 321Q451 396 420 418Q393 436 314 436H188L242 126Q247 97 247 76Q247 27 222 8T147 -11Q118 -11 76 10L64 75Q87 59 110 59Q149 59 149 105Q149 118 148 124L81 502H306Q449 502 491 471Q539 435 563 299L616 0ZM393 250Q393 217 356 217Q337 217 321 231T305 264Q305 297 342 297Q361 297 377 283T393 250Z"  />
<glyph unicode="&#xFB4B;" horiz-adv-x="220" d="M208 0H113L42 404Q39 423 27 456T4 502H101Q125 472 137 402L208 0ZM80 596Q80 563 43 563Q24 563 9 577T-7 610Q-7 643 29 643Q48 643 64 629T80 596Z"  />
<glyph unicode="&#xFB4C;" horiz-adv-x="581" d="M558 0H112L100 66H237Q366 66 366 198Q366 301 318 365Q264 436 165 436H41L29 502H154Q286 502 359 446Q436 388 461 261Q466 236 466 202Q466 141 438 107Q430 97 418 89Q391 70 391 67Q391 62 405 62Q414 62 432 64T459 66H546L558 0ZM254 567H77V608H254V567Z"  />
<glyph unicode="&#xFB4D;" horiz-adv-x="481" d="M438 194Q438 106 390 53T253 0H101L90 67H242Q292 67 317 110Q338 145 338 199Q338 279 297 351Q249 436 175 436H25L13 502H163Q280 502 361 405Q438 313 438 194ZM254 567H77V608H254V567Z"  />
<glyph unicode="&#xFB4E;" horiz-adv-x="566" d="M518 186Q518 0 285 0H150L138 66H256Q418 66 418 199Q418 218 413 250Q381 450 246 450Q192 450 162 414T131 321Q131 258 167 208H78Q33 259 33 335Q33 422 92 471Q146 517 234 517Q466 517 511 251Q518 209 518 186ZM304 567H127V608H304V567Z"  />
<glyph unicode="&#xFB4F;" horiz-adv-x="470" d="M435 62Q435 22 399 -8L181 254Q137 215 137 189Q137 174 162 133L201 69L182 0H62V33L99 45Q74 135 74 156Q74 217 159 281L100 352Q45 352 28 377Q14 396 14 455Q14 529 40 573Q36 579 7 597Q-14 611 -14 629Q-14 683 23 703V699Q23 686 70 665Q102 650 102 629Q102 620 82 576T62 503Q62 458 115 458H129L298 255Q300 275 356 356Q345 355 345 355Q276 355 276 440Q276 484 316 496Q324 458 347 458H383Q432 458 432 390Q432 383 427 357H396L354 287Q337 259 326 221L406 124Q435 89 435 62Z"  />


</font>
</defs>
</svg>
