<?xml  version="1.0" encoding="UTF-8"?>
<!DOCTYPE svg PUBLIC "-//W3C//DTD SVG 1.0//EN" "http://www.w3.org/TR/2001/REC-SVG-20010904/DTD/svg10.dtd" >
<svg xmlns="http://www.w3.org/2000/svg" >
<metadata>
<version>1.0</version>
<id><![CDATA[Francker W02 Condensed Bold]]></id>
<vendor>Monotype Imaging Inc.</vendor>
<credits>
<name>Fonts.com WebFonts</name>
<URL>http://webfonts.fonts.com</URL>
<role>Home of the Web fonts</role>
</credits>
<license>
<URL>http://webfonts.fonts.com/Legal</URL>
</license>
<copyright><![CDATA[Copyright © 2011 Linotype Corp., www.linotype.com. All rights reserved. This font software may not be reproduced, modified, disclosed or transferred without the express written approval of Linotype Corp. Francker is a trademark of Linotype Corp. registered in the U.S. Patent and Trademark Office and may be registered in certain other jurisdictions in the name of Linotype Corp. or its licensee Linotype GmbH. This typeface is original artwork of Anders Francker. The design may be protected in certain jurisdictions.]]></copyright>
<trademark><![CDATA[Francker is a trademark of Linotype Corp. registered in the U.S. Patent and Trademark Office and may be registered in certain other jurisdictions in the name of Linotype Corp. or its licensee Linotype GmbH.]]></trademark>
<licensee>
<name></name>
</licensee>
</metadata>
<defs >
<font horiz-adv-x="609" id="7893089c-cfdd-4a12-bfc6-9a83a1efdacd">
<font-face font-family="" panose-1="2 11 8 6 4 7 4 4 2 3" ascent="961" descent="-324" units-per-em="1000" alphabetic="0">
</font-face>
<missing-glyph horiz-adv-x="0" />

<glyph unicode="&#xA;" />
<glyph unicode="&#xD;" horiz-adv-x="0" />
<glyph unicode=" " horiz-adv-x="253" />
<glyph unicode="!" horiz-adv-x="303" d="M63 0V151H239V0H63ZM72 227V680H231V227H72Z"  />
<glyph unicode="&quot;" horiz-adv-x="452" d="M269 434V726H403V434H269ZM49 434V726H183V434H49Z"  />
<glyph unicode="#" horiz-adv-x="613" d="M259 407L238 273H354L374 407H259ZM471 407L451 273H534V185H437L407 0H310L340 185H224L194 0H98L127 185H44V273H141L163 407H78V495H177L206 680H302L273 495H389L419 680H516L485 495H569V407H471Z"  />
<glyph unicode="$" horiz-adv-x="664" d="M283 -140V-12Q235 -10 197 -7T133 0Q102 4 79 9V120Q101 117 130 115Q155 113 189 112T269 111Q315 111 342 112T383 120T401 144T406 191Q406 213 406 227T401 249T387 262T362 269L226 295Q172 305 143 323T100 366T84 423T81 495Q81 557 96 595T138 654T202 682T283 692V813H381V692Q426 690 461 687T521 680Q550 676 571 672V560Q550 562 524 564Q501 566 469 567T397 569Q355 569 331 568T293 560T275 539T271 498Q271 478 271 466T276 447T289 435T315 427L451 401Q505 390 534 373T576 331T592 271T595 193Q595 127 583 87T544 26T478 -3T381 -12V-140H283Z"  />
<glyph unicode="%" horiz-adv-x="995" d="M846 209Q846 259 845 286T838 326T822 341T792 343H787Q768 343 757 341T741 327T734 287T732 209V203Q732 156 733 131T739 94T755 80T787 78H792Q812 78 823 80T839 93T845 130T846 203V209ZM967 206Q967 134 962 92T938 27T884 -1T790 -8Q731 -8 696 -2T641 27T617 91T611 206Q611 281 618 325T644 393T699 422T790 429Q845 429 879 423T933 393T960 326T967 206ZM263 468Q263 518 262 545T255 585T239 600T208 602H203Q184 602 173 600T157 586T151 546T149 468V464Q149 417 150 392T156 354T172 340T203 338H208Q228 338 239 340T255 354T262 391T263 464V468ZM384 465Q384 393 379 351T354 287T300 259T206 252Q147 252 112 258T58 286T34 350T28 465Q28 540 35 584T61 652T115 681T206 688Q261 688 296 682T350 652T377 585T384 465ZM368 0H273L627 680H722L368 0Z"  />
<glyph unicode="&amp;" horiz-adv-x="738" d="M458 288H329Q303 288 287 287T262 278T250 254T247 207Q247 173 250 155T265 129T297 119T352 117Q403 117 430 120Q446 121 458 123V288ZM651 288V9Q616 2 570 -2Q531 -7 475 -10T349 -13Q274 -13 218 -8T124 17T67 78T48 190Q48 249 59 280T85 326Q101 343 122 346V348Q102 350 87 365Q73 378 63 404T52 481Q52 556 72 598T128 662T211 688T314 693Q374 693 422 690T505 682Q545 678 575 672V555Q552 557 524 559Q499 561 465 562T387 563Q342 563 315 562T274 552T255 525T251 473Q251 448 254 435T265 415T289 407T331 406H458V472H651V406H715V288H651Z"  />
<glyph unicode="&apos;" horiz-adv-x="232" d="M49 434V726H183V434H49Z"  />
<glyph unicode="(" horiz-adv-x="418" d="M374 -217Q356 -224 331 -229Q310 -234 281 -237T214 -240Q154 -240 122 -212T74 -124T57 27T54 245Q54 374 57 467T75 621T123 710T214 739Q251 739 280 736T331 727Q356 722 374 716V602L350 605Q338 606 321 607T284 608Q270 608 260 607T243 595T231 563T224 501T220 398T219 245Q219 156 220 96T223 -4T230 -65T242 -97T259 -108T284 -110Q326 -110 350 -107Q364 -105 374 -103V-217Z"  />
<glyph unicode=")" horiz-adv-x="418" d="M364 245Q364 119 362 28T344 -123T296 -211T203 -240Q166 -240 137 -237T87 -229Q62 -224 44 -217V-103Q54 -105 68 -107Q90 -110 134 -110Q148 -110 158 -109T176 -97T187 -66T194 -5T198 95T199 245Q199 336 198 398T195 500T188 562T176 594T159 606T134 608Q113 608 96 607T68 605L44 602V716Q62 722 87 727Q107 732 136 735T203 739Q262 739 294 711T342 622T361 468T364 245Z"  />
<glyph unicode="*" horiz-adv-x="497" d="M313 476L404 344L333 287L248 423L163 287L93 344L183 476L40 523L67 615L208 560L204 726H293L289 560L429 615L456 523L313 476Z"  />
<glyph unicode="+" horiz-adv-x="572" d="M338 242V17H234V242H44V347H234V572H338V347H530V242H338Z"  />
<glyph unicode="&#x2c;" horiz-adv-x="274" d="M150 -146H28L96 0H49V168H225V0L150 -146Z"  />
<glyph unicode="-" horiz-adv-x="407" d="M44 230V360H364V230H44Z"  />
<glyph unicode="." horiz-adv-x="274" d="M49 0V168H225V0H49Z"  />
<glyph unicode="/" horiz-adv-x="399" d="M156 -36H7L242 703H392L156 -36Z"  />
<glyph unicode="0" horiz-adv-x="664" d="M429 338Q429 421 427 466T415 531T388 555T336 559H328Q296 559 278 556T250 532T238 466T235 338V329Q235 251 236 209T247 148T275 125T328 122H336Q370 122 389 125T417 147T427 209T429 329V338ZM619 333Q619 255 616 200T601 106T571 44T519 8T441 -9T332 -13Q268 -13 223 -9T145 7T94 43T64 105T50 199T46 333Q46 455 57 526T100 635T187 682T332 693Q421 693 477 683T564 635T607 527T619 333Z"  />
<glyph unicode="1" horiz-adv-x="664" d="M296 0V543L105 469V596L296 680H480V0H296Z"  />
<glyph unicode="2" horiz-adv-x="664" d="M77 0V124L351 411Q364 424 371 432T381 448T385 462T386 481Q386 514 382 531T363 557T324 567T259 569Q217 569 185 568T130 564Q104 562 83 560V672Q111 678 149 682Q181 686 226 689T330 693Q375 693 419 688T499 662T555 599T577 481Q577 458 576 441T569 405T548 367T507 319L324 124H585V0H77Z"  />
<glyph unicode="3" horiz-adv-x="664" d="M584 190Q584 119 564 78T509 17T429 -8T333 -13Q274 -13 227 -10T148 -2Q109 2 81 9V120Q102 117 130 115Q153 113 187 112T263 111Q306 111 332 112T372 123T390 151T395 207Q395 238 392 255T380 280T357 289T321 291H138V403H319Q340 403 353 404T375 412T387 434T390 476Q390 511 386 530T367 557T328 567T263 569Q222 569 190 568T134 564Q107 562 87 560V672Q115 678 153 682Q185 686 230 689T333 693Q379 693 423 688T503 662T559 599T581 481Q581 430 570 404T545 365Q529 350 509 348V346Q529 343 546 326Q560 311 572 280T584 190Z"  />
<glyph unicode="4" horiz-adv-x="664" d="M365 556L203 289H365V556ZM549 165V0H365V165H38V289L276 680H549V289H626V165H549Z"  />
<glyph unicode="5" horiz-adv-x="664" d="M595 213Q595 133 580 88T533 21T452 -7T333 -13Q272 -13 224 -10T142 -2Q102 2 71 9V120Q93 117 123 115Q149 113 185 112T266 111Q315 111 343 112T384 123T401 154T405 213Q405 242 403 258T394 281T374 290T338 291H77V680H554V556H260V403H401Q443 403 478 400T540 379T580 323T595 213Z"  />
<glyph unicode="6" horiz-adv-x="664" d="M428 213Q428 249 426 269T415 298T386 308T332 310Q309 310 292 310T261 308Q246 307 235 307V268Q235 209 237 177T250 131T279 114T332 111Q362 111 381 112T410 123T424 154T428 213ZM619 213Q619 133 600 88T543 21T453 -7T332 -13Q268 -13 223 -9T145 7T94 43T64 105T50 199T46 333Q46 455 57 526T98 635T179 682T311 693Q373 693 422 690T506 682Q546 677 578 671V560Q547 562 514 564Q485 566 451 567T382 569Q350 569 324 568T280 561Q267 557 259 550T245 527T238 486T236 420Q246 421 261 422Q273 423 291 423T332 424Q424 424 480 419T567 393T608 330T619 213Z"  />
<glyph unicode="7" horiz-adv-x="664" d="M353 0H143L394 545H75V680H589V545L353 0Z"  />
<glyph unicode="8" horiz-adv-x="664" d="M429 207Q429 242 425 261T411 288T381 298T332 300Q302 300 283 299T254 289T239 261T235 207Q235 171 239 152T253 123T283 113T332 111Q362 111 381 112T410 123T425 151T429 207ZM425 476Q425 511 421 530T406 557T377 567T332 569Q305 569 287 568T259 558T244 530T240 476Q240 445 243 429T257 405T285 396T332 394Q361 394 379 395T408 404T421 428T425 476ZM619 190Q619 119 599 78T542 17T451 -8T332 -13Q266 -13 214 -8T124 17T66 78T46 190Q46 249 57 280T83 326Q100 343 121 346V348Q101 350 85 365Q71 378 60 404T49 481Q49 556 70 598T129 662T219 688T332 693Q393 693 445 688T535 662T594 599T615 481Q615 430 604 404T579 365Q563 350 543 348V346Q564 343 581 326Q595 311 607 280T619 190Z"  />
<glyph unicode="9" horiz-adv-x="664" d="M429 373Q429 446 427 486T414 544T385 566T332 569Q302 569 283 568T254 556T239 525T235 464Q235 428 237 409T249 381T278 371T332 369Q355 369 372 369T403 371Q418 372 429 373ZM619 333Q619 216 610 148T573 44T492 -2T352 -13Q290 -13 242 -10T158 -2Q118 2 86 9V120Q131 117 176 115Q214 113 258 112T339 113Q369 114 386 117T413 134T425 177T428 260Q417 259 402 258Q389 257 372 257T332 256Q240 256 184 261T97 287T56 349T46 464Q46 545 67 591T126 659T216 687T332 693Q421 693 477 683T564 635T607 527T619 333Z"  />
<glyph unicode=":" horiz-adv-x="274" d="M49 0V168H225V0H49ZM49 331V499H225V331H49Z"  />
<glyph unicode=";" horiz-adv-x="274" d="M150 -146H28L96 0H49V168H225V0L150 -146ZM49 331V499H225V331H49Z"  />
<glyph unicode="&lt;" horiz-adv-x="572" d="M44 242V347L530 577V464L166 294L530 125V13L44 242Z"  />
<glyph unicode="=" horiz-adv-x="572" d="M44 142V247H530V142H44ZM44 343V447H530V343H44Z"  />
<glyph unicode="&gt;" horiz-adv-x="572" d="M44 13V125L406 294L44 464V577L530 347V242L44 13Z"  />
<glyph unicode="?" horiz-adv-x="560" d="M179 0V151H355V0H179ZM517 505Q517 445 512 410T493 356T459 329T407 313L347 298V227H188V396L310 425Q324 428 332 432T344 444T350 466T351 505Q351 535 348 551T331 575T292 584T223 586Q181 586 148 585T92 581Q65 578 44 576V672Q72 678 108 682Q139 686 182 689T281 693Q330 693 373 688T448 665T498 609T517 505Z"  />
<glyph unicode="@" horiz-adv-x="844" d="M486 246H404Q388 246 377 245T360 239T351 223T348 190Q348 167 352 155T364 138T385 131T417 130H486V246ZM799 268Q799 212 796 174T781 111T744 73T676 53T570 46T415 45Q374 45 337 47T272 63T228 106T211 190Q211 240 221 267T251 306T298 321T360 323H486V348Q486 373 483 387T472 409T451 418T415 420Q374 421 341 420T283 417Q255 415 232 412V487Q254 492 284 496Q310 499 345 502T426 505Q474 505 510 501T570 481T607 434T620 348V132Q654 133 673 136T700 152T710 192T712 268Q712 351 709 408T696 503T667 562T615 593T536 606T423 608Q357 608 310 606T230 594T179 562T149 503T136 408T133 268Q133 189 135 134T145 43T172 -14T222 -44T304 -56T423 -58Q507 -58 573 -56T686 -52Q741 -49 782 -46V-120Q741 -127 686 -132Q639 -137 573 -140T423 -143Q338 -143 278 -138T175 -118T108 -74T69 -1T51 111T46 268Q46 362 52 430T73 546T116 622T185 667T285 688T423 693Q502 693 560 688T660 667T729 622T771 546T793 431T799 268Z"  />
<glyph unicode="A" horiz-adv-x="733" d="M365 549L287 290H444L365 549ZM526 0L477 161H253L204 0H7L228 680H505L726 0H526Z"  />
<glyph unicode="B" horiz-adv-x="700" d="M452 207Q452 237 449 253T437 277T412 286T370 288H256V130H372Q396 130 411 131T436 139T448 162T452 207ZM449 473Q449 502 445 518T432 541T406 550T366 551H256V406H368Q393 406 409 407T434 414T446 434T449 473ZM651 190Q651 119 633 81T583 24T510 3T425 0H63V680H418Q458 680 499 677T573 655T626 596T647 481Q647 430 636 404T612 365Q597 350 578 348V346Q598 343 614 326Q628 311 639 280T651 190Z"  />
<glyph unicode="C" horiz-adv-x="616" d="M586 9Q554 2 514 -2Q479 -7 431 -10T320 -13Q225 -13 172 1T92 54T60 158T54 329Q54 441 62 512T98 623T178 678T317 693Q378 693 426 690T510 682Q550 678 581 672V543Q538 546 497 549Q462 551 421 552T347 551Q315 549 296 545T267 519T255 454T252 326Q252 254 254 215T265 158T293 136T348 130Q382 128 423 129T501 132Q543 134 586 137V9Z"  />
<glyph unicode="D" horiz-adv-x="720" d="M467 326Q467 406 464 449T452 513T426 536T381 540H256V140H386Q413 140 429 143T454 163T464 218T467 326ZM667 329Q667 223 659 159T627 59T558 12T441 0H63V680H433Q502 680 547 668T618 619T656 513T667 329Z"  />
<glyph unicode="E" horiz-adv-x="630" d="M63 0V680H581V551H256V406H553V288H256V130H586V0H63Z"  />
<glyph unicode="F" horiz-adv-x="610" d="M256 551V393H553V275H256V0H63V680H581V551H256Z"  />
<glyph unicode="G" horiz-adv-x="714" d="M657 9Q622 2 576 -2Q537 -7 481 -10T355 -13Q284 -13 235 -9T152 8T99 44T69 106T57 199T54 329Q54 449 63 521T104 631T194 681T352 693Q421 693 476 690T571 682Q617 678 651 672V555Q598 558 546 560Q501 562 452 563T364 562Q324 560 302 556T268 530T255 460T252 326Q252 248 254 206T266 144T298 121T358 117Q409 117 436 120Q452 121 464 123V288H360V406H657V9Z"  />
<glyph unicode="H" horiz-adv-x="720" d="M464 0V277H256V0H63V680H256V417H464V680H657V0H464Z"  />
<glyph unicode="I" horiz-adv-x="320" d="M63 0V680H256V0H63Z"  />
<glyph unicode="J" horiz-adv-x="531" d="M467 227Q467 167 463 122T436 47T370 2T245 -13Q193 -13 153 -10T83 -2Q50 2 23 9V136Q40 134 62 132Q81 130 107 129T168 128Q201 128 222 130T254 142T270 172T274 227V680H467V227Z"  />
<glyph unicode="K" horiz-adv-x="723" d="M483 0L329 277H256V0H63V680H256V417H329L477 680H695L499 347L705 0H483Z"  />
<glyph unicode="L" horiz-adv-x="584" d="M63 0V680H256V140H561V0H63Z"  />
<glyph unicode="M" horiz-adv-x="922" d="M681 0V492L551 0H369L238 492V0H63V680H329L461 186L593 680H857V0H681Z"  />
<glyph unicode="N" horiz-adv-x="768" d="M440 0L238 494V0H63V680H328L530 187V680H704V0H440Z"  />
<glyph unicode="O" horiz-adv-x="720" d="M467 338Q467 419 465 462T452 526T421 549T364 553H356Q320 553 299 550T268 526T255 463T252 338V329Q252 254 254 213T266 153T297 131T356 128H364Q402 128 423 131T453 153T465 213T467 329V338ZM667 333Q667 255 664 200T651 106T620 44T566 8T482 -9T360 -13Q289 -13 239 -9T154 7T100 43T70 105T57 199T54 333Q54 455 64 526T107 635T200 682T360 693Q459 693 519 683T613 635T656 527T667 333Z"  />
<glyph unicode="P" horiz-adv-x="684" d="M452 455Q452 491 449 510T437 539T412 549T368 551H256V368H371Q398 368 414 369T438 379T449 404T452 455ZM651 452Q651 377 638 334T597 270T526 244T424 238H256V0H63V680H418Q473 680 516 675T589 647T635 578T651 452Z"  />
<glyph unicode="Q" horiz-adv-x="720" d="M467 338Q467 419 465 462T452 526T421 549T364 553H356Q320 553 299 550T268 526T255 463T252 338V329Q252 254 254 213T266 153T297 131T356 128H364Q402 128 423 131T453 153T465 213T467 329V338ZM667 333Q667 238 662 175T639 74T586 17T491 -7L577 -192H385L312 -12Q222 -10 171 3T93 53T61 156T54 333Q54 455 64 526T107 635T200 682T360 693Q459 693 519 683T613 635T656 527T667 333Z"  />
<glyph unicode="R" horiz-adv-x="709" d="M452 463Q452 496 449 514T437 540T412 549T368 551H256V383H371Q398 383 414 384T438 392T449 416T452 463ZM465 0L390 253H256V0H63V680H418Q473 680 516 675T589 647T635 581T651 460Q651 374 632 331T573 270L675 0H465Z"  />
<glyph unicode="S" horiz-adv-x="622" d="M588 193Q588 121 572 80T523 18T438 -8T314 -13Q250 -13 199 -10T113 -2Q71 2 39 9V125Q62 123 93 121Q119 119 156 118T242 117Q291 117 320 118T364 126T384 148T389 191Q389 213 388 226T383 246T369 258T341 266L197 293Q138 303 107 321T61 364T44 422T41 495Q41 564 61 604T117 663T200 688T303 693Q363 693 411 690T493 682Q533 678 563 672V555Q541 557 512 559Q487 561 453 562T375 563Q330 563 304 562T263 555T244 536T240 498Q240 479 241 468T246 449T261 438T289 431L432 404Q490 393 522 375T568 331T585 271T588 193Z"  />
<glyph unicode="T" horiz-adv-x="611" d="M402 540V0H209V540H23V680H588V540H402Z"  />
<glyph unicode="U" horiz-adv-x="720" d="M657 227Q657 178 654 141T641 78T612 34T559 6T478 -9T360 -13Q291 -13 243 -9T161 5T109 33T79 77T66 141T63 227V680H256V227Q256 190 259 170T273 141T304 130T360 128Q394 128 415 129T446 140T460 170T464 227V680H657V227Z"  />
<glyph unicode="V" horiz-adv-x="691" d="M495 0H196L7 680H207L347 142L487 680H685L495 0Z"  />
<glyph unicode="W" horiz-adv-x="987" d="M847 0H581L493 494L406 0H139L15 680H199L292 143L386 680H604L697 143L791 680H972L847 0Z"  />
<glyph unicode="X" horiz-adv-x="713" d="M486 0L355 276L224 0H18L192 347L26 680H231L358 418L484 680H687L520 347L695 0H486Z"  />
<glyph unicode="Y" horiz-adv-x="673" d="M469 263H433V0H240V263H203L7 680H211L337 404L464 680H666L469 263Z"  />
<glyph unicode="Z" horiz-adv-x="615" d="M39 0V140L337 540H46V680H565V540L268 140H581V0H39Z"  />
<glyph unicode="[" horiz-adv-x="418" d="M63 -227V726H374V596H223V-97H374V-227H63Z"  />
<glyph unicode="\" horiz-adv-x="399" d="M242 -36L7 703H156L392 -36H242Z"  />
<glyph unicode="]" horiz-adv-x="418" d="M44 -227V-97H194V596H44V726H354V-227H44Z"  />
<glyph unicode="^" horiz-adv-x="572" d="M402 311L286 565L170 311H66L232 680H341L506 311H402Z"  />
<glyph unicode="_" horiz-adv-x="449" d="M0 -149V-59H450V-149H0Z"  />
<glyph unicode="`" horiz-adv-x="836" d="M372 580L262 748H391L496 580H372Z"  />
<glyph unicode="a" horiz-adv-x="603" d="M379 215H282Q265 215 253 214T234 207T223 189T220 152Q220 127 224 114T238 94T263 86T300 85Q318 85 332 85T357 87Q369 88 379 90V215ZM554 9Q525 2 485 -2Q451 -7 404 -10T296 -13Q244 -13 198 -11T116 7T60 56T39 152Q39 210 52 241T89 286T147 303T223 306H379V333Q379 360 376 376T363 399T338 409T297 412Q246 414 204 412T131 408Q95 405 66 402V490Q94 496 131 501Q163 505 207 508T309 512Q370 512 415 508T492 485T538 431T554 333V9Z"  />
<glyph unicode="b" horiz-adv-x="603" d="M383 250Q383 308 381 339T371 385T347 402T302 405Q284 405 270 405T245 403Q234 402 225 402V98Q234 97 245 96Q255 95 269 95T302 94Q332 94 348 96T372 112T381 156T383 241V250ZM564 245Q564 161 557 111T524 33T447 -4T307 -13Q247 -13 200 -10T118 -2Q78 2 49 9V726H225V507Q235 508 248 509Q259 510 274 511T307 512Q390 512 440 503T518 466T555 385T564 245Z"  />
<glyph unicode="c" horiz-adv-x="532" d="M506 9Q478 2 443 -2Q413 -7 370 -10T272 -13Q192 -13 146 -3T76 36T46 115T39 245Q39 328 47 380T80 461T150 501T270 512Q324 512 366 509T439 501Q474 496 501 490V396Q464 399 428 401Q397 403 362 404T298 403Q271 401 256 398T232 380T222 333T220 242Q220 188 221 159T230 117T254 100T300 96Q328 94 363 95T431 98Q468 100 506 103V9Z"  />
<glyph unicode="d" horiz-adv-x="603" d="M379 402Q369 402 358 403Q348 404 334 404T302 405Q273 405 257 403T233 386T222 340T220 250V241Q220 186 221 156T231 113T255 97T302 94Q319 94 333 94T358 96Q369 97 379 98V402ZM554 9Q525 2 485 -2Q451 -7 404 -10T296 -13Q207 -13 156 -4T79 32T46 110T39 245Q39 332 48 384T84 465T162 503T296 512Q314 512 329 511T355 509Q368 508 379 507V726H554V9Z"  />
<glyph unicode="e" horiz-adv-x="603" d="M383 294Q383 338 381 362T371 397T346 410T302 412Q274 412 258 410T234 397T223 362T221 294H383ZM221 204Q221 162 222 139T232 104T257 90T306 86Q360 85 404 87T480 91Q518 94 548 97V9Q518 2 479 -2Q446 -7 400 -10T294 -13Q207 -13 156 -4T79 32T46 110T39 245Q39 332 48 384T85 465T164 503T302 512Q387 512 439 503T518 466T555 385T564 245V204H221Z"  />
<glyph unicode="f" horiz-adv-x="472" d="M467 624Q455 626 438 628Q424 630 404 631T358 632Q329 632 313 630T290 621T281 599T279 559V499H442V392H279V0H104V392H18V499H104V559Q104 612 115 646T149 701T206 730T285 739Q327 739 361 736T418 727Q445 722 467 716V624Z"  />
<glyph unicode="g" horiz-adv-x="603" d="M379 400Q369 401 358 402Q348 403 334 404T302 405Q273 405 257 403T233 388T222 345T220 263V254Q220 204 221 177T231 138T255 123T302 121Q319 121 333 121T358 123Q369 124 379 125V400ZM554 -60Q554 -123 540 -159T495 -213T419 -235T309 -240Q252 -240 208 -237T131 -229Q94 -224 66 -217V-123Q95 -126 131 -128Q162 -130 204 -131T297 -132Q324 -132 340 -130T364 -120T376 -98T379 -60V19Q368 18 355 17Q344 16 329 16T296 15Q213 15 163 21T85 53T48 126T39 258Q39 345 50 395T91 472T170 505T296 512Q356 512 403 509T485 501Q525 496 554 490V-60Z"  />
<glyph unicode="h" horiz-adv-x="603" d="M379 0V333Q379 360 375 374T361 396T338 404T302 405Q284 405 270 404T245 402Q234 401 225 400V0H49V726H225V507Q234 508 245 509Q255 510 269 511T302 512Q366 512 413 508T492 485T539 431T554 333V0H379Z"  />
<glyph unicode="i" horiz-adv-x="274" d="M49 580V726H225V580H49ZM49 0V499H225V0H49Z"  />
<glyph unicode="j" horiz-adv-x="359" d="M134 580V726H309V580H134ZM309 -60Q309 -113 299 -148T269 -203T216 -232T140 -240Q101 -240 70 -237T16 -229Q-10 -224 -29 -217V-128Q-17 -130 -3 -131Q9 -132 26 -132T65 -133Q86 -133 99 -131T120 -120T131 -98T134 -60V499H309V-60Z"  />
<glyph unicode="k" horiz-adv-x="603" d="M389 0L278 201H225V0H49V726H225V307H278L386 499H581L438 254L588 0H389Z"  />
<glyph unicode="l" horiz-adv-x="274" d="M49 0V726H225V0H49Z"  />
<glyph unicode="m" horiz-adv-x="904" d="M679 0V333Q679 360 675 374T662 396T640 404T609 405Q592 405 579 404T554 402Q542 400 531 399Q533 393 535 383Q537 375 538 363T540 333V0H364V333Q364 360 360 374T347 396T325 404T294 405Q278 405 266 404T244 402Q233 401 225 400V0H49V490Q78 496 115 501Q147 505 192 508T294 512Q350 512 383 507T436 499Q457 501 501 506T609 512Q671 512 717 508T794 485T840 431T855 333V0H679Z"  />
<glyph unicode="n" horiz-adv-x="603" d="M379 0V333Q379 360 375 374T361 396T338 404T302 405Q284 405 270 404T245 402Q234 401 225 400V0H49V490Q78 496 117 501Q150 505 196 508T302 512Q366 512 413 508T492 485T539 431T554 333V0H379Z"  />
<glyph unicode="o" horiz-adv-x="603" d="M383 250Q383 308 381 339T371 385T348 402T306 405H297Q270 405 255 403T232 386T222 340T220 250V241Q220 186 221 156T230 113T253 97T297 94H306Q334 94 349 96T372 112T381 156T383 241V250ZM564 245Q564 161 557 111T524 33T445 -4T302 -13Q211 -13 159 -4T80 32T46 110T39 245Q39 332 48 384T85 465T164 503T302 512Q387 512 439 503T518 466T555 385T564 245Z"  />
<glyph unicode="p" horiz-adv-x="603" d="M383 250Q383 308 381 339T371 385T347 402T302 405Q284 405 270 404T245 402Q234 401 225 400V97Q234 96 245 95Q255 94 269 94T302 94Q332 94 348 96T372 112T381 156T383 241V250ZM564 245Q564 161 557 111T524 33T447 -4T307 -13Q289 -13 274 -13T248 -11Q235 -10 225 -8V-227H49V490Q78 496 118 501Q152 505 199 508T307 512Q390 512 440 503T518 466T555 385T564 245Z"  />
<glyph unicode="q" horiz-adv-x="603" d="M379 400Q369 401 358 402Q348 403 334 404T302 405Q273 405 257 403T233 386T222 340T220 250V241Q220 186 221 156T231 113T255 97T302 94Q319 94 333 94T358 95Q369 96 379 97V400ZM379 -227V-8Q368 -10 355 -11Q344 -12 329 -12T296 -13Q207 -13 156 -4T79 32T46 110T39 245Q39 332 48 384T84 465T162 503T296 512Q356 512 403 509T485 501Q525 496 554 490V-227H379Z"  />
<glyph unicode="r" horiz-adv-x="440" d="M425 398Q412 399 394 401Q379 403 358 404T309 405Q289 405 274 404T247 402Q235 401 225 400V0H49V490Q71 496 100 501Q125 505 159 508T238 512Q281 512 316 509T375 501Q403 496 425 490V398Z"  />
<glyph unicode="s" horiz-adv-x="544" d="M513 141Q513 88 500 58T459 11T385 -9T274 -13Q218 -13 175 -10T100 -2Q64 2 36 9V95Q56 92 82 90Q105 88 136 87T208 85Q249 85 273 86T311 92T328 107T332 138Q332 154 332 163T328 179T316 187T294 192L172 209Q122 216 95 229T55 262T40 307T38 362Q38 413 55 443T104 488T175 508T263 512Q315 512 357 509T428 501Q462 496 488 490V404Q469 406 445 408Q425 410 396 411T331 412Q294 412 272 412T238 407T223 393T219 366Q219 352 219 344T223 330T235 323T257 318L379 300Q429 293 456 281T496 249T511 204T513 141Z"  />
<glyph unicode="t" horiz-adv-x="487" d="M467 9Q445 2 418 -2Q395 -7 361 -10T285 -13Q236 -13 202 -5T146 23T114 77T104 166V392H18V499H104V669H279V499H442V392H279V166Q279 142 280 128T289 106T313 96T358 94Q409 94 438 97Q455 99 467 101V9Z"  />
<glyph unicode="u" horiz-adv-x="603" d="M554 9Q525 2 486 -2Q453 -7 407 -10T302 -13Q225 -13 176 -8T99 17T60 71T49 166V499H225V166Q225 139 228 125T241 103T265 95T302 94Q319 94 333 94T358 96Q369 97 379 98V499H554V9Z"  />
<glyph unicode="v" horiz-adv-x="581" d="M433 0H149L8 499H190L292 109L393 499H573L433 0Z"  />
<glyph unicode="w" horiz-adv-x="869" d="M753 0H503L434 358L366 0H114L15 499H183L255 109L329 499H543L615 109L687 499H853L753 0Z"  />
<glyph unicode="x" horiz-adv-x="592" d="M389 0L294 200L200 0H15L144 254L20 499H205L297 308L388 499H570L448 254L577 0H389Z"  />
<glyph unicode="y" horiz-adv-x="583" d="M416 -67Q399 -126 381 -160T341 -212T293 -235T236 -240Q194 -240 161 -237T104 -229Q77 -224 56 -217V-125Q69 -127 87 -129Q102 -131 124 -132T173 -133Q192 -133 204 -132T225 -122T240 -97T256 -49L270 0H150L11 499H193L294 109L396 499H575L416 -67Z"  />
<glyph unicode="z" horiz-adv-x="540" d="M36 0V107L277 392H42V499H493V392L252 107H508V0H36Z"  />
<glyph unicode="{" horiz-adv-x="494" d="M451 -217Q433 -224 408 -229Q387 -234 358 -237T291 -240Q250 -240 220 -227T171 -177T141 -76T131 89Q131 125 126 144T110 173T86 183T54 185H21V314H54Q71 314 85 315T110 326T125 354T131 410Q131 511 142 575T173 675T223 725T291 739Q328 739 357 736T408 727Q433 722 451 716V602L427 605Q415 606 398 607T361 608Q343 608 331 604T310 576T299 500T295 350Q295 313 287 293T268 264Q256 253 241 252V248Q256 247 268 236Q278 227 286 207T295 149Q295 52 298 0T308 -77T329 -106T361 -110Q403 -110 427 -107Q441 -105 451 -103V-217Z"  />
<glyph unicode="|" horiz-adv-x="287" d="M63 -227V726H223V-227H63Z"  />
<glyph unicode="}" horiz-adv-x="494" d="M440 185Q423 185 409 184T384 173T369 145T363 89Q363 -12 353 -76T324 -176T274 -226T203 -240Q166 -240 137 -237T87 -229Q62 -224 44 -217V-103Q54 -105 68 -107Q90 -110 134 -110Q153 -110 165 -106T185 -78T196 -1T199 149Q199 186 207 206T226 236Q238 247 254 248V252Q238 253 226 264Q215 273 207 293T199 350Q199 447 196 499T184 576T164 604T134 608Q113 608 96 607T68 605L44 602V716Q62 722 87 727Q107 732 136 735T203 739Q241 739 271 726T321 676T352 575T363 410Q363 374 368 355T384 326T408 316T440 314H473V185H440Z"  />
<glyph unicode="~" horiz-adv-x="572" d="M530 275Q515 256 497 242Q481 230 459 220T407 210Q379 210 349 220T287 242T224 265T165 275Q136 275 114 265T76 242Q58 227 44 209V314Q58 332 76 347Q92 359 114 369T165 380Q193 380 224 370T286 347T348 325T407 314Q436 314 458 324T497 347Q515 362 530 381V275Z"  />
<glyph unicode="&#xA0;" horiz-adv-x="253" />
<glyph unicode="&#xA1;" horiz-adv-x="303" d="M72 -181V272H231V-181H72ZM63 347V499H239V347H63Z"  />
<glyph unicode="&#xA2;" horiz-adv-x="664" d="M283 -138V-12Q218 -9 181 3T125 45T100 122T95 245Q95 322 101 372T128 452T186 495T283 511V633H381V511Q422 509 454 506T509 499Q535 495 556 490V396Q519 399 483 401Q452 403 417 404T354 403Q327 401 311 398T288 380T278 333T276 242Q276 188 277 159T286 117T310 100T356 96Q384 94 419 95T487 98Q524 100 562 103V9Q540 4 513 0Q490 -4 457 -7T381 -12V-138H283Z"  />
<glyph unicode="&#xA3;" horiz-adv-x="664" d="M66 0V135H128V293H66V397H128V453Q128 513 135 558T165 633T229 678T337 693Q385 693 423 690T489 682Q521 678 546 672V551Q530 553 510 555Q493 557 468 558T411 559Q377 559 358 557T328 544T314 512T311 453V397H520V293H311V135H598V0H66Z"  />
<glyph unicode="&#xA4;" horiz-adv-x="664" d="M436 340Q436 364 428 385T406 422T372 447T332 456Q310 456 291 447T258 422T236 385T228 340Q228 316 236 295T258 258T291 233T332 224Q353 224 372 233T405 258T428 295T436 340ZM502 455Q516 430 523 401T531 340Q531 308 524 279T502 224L582 137L515 62L435 150Q387 119 332 119Q275 119 229 150L149 62L82 137L162 225Q133 275 133 340Q133 404 162 454L82 543L149 618L229 529Q252 544 277 552T332 561Q360 561 386 553T435 530L515 618L582 543L502 455Z"  />
<glyph unicode="&#xA5;" horiz-adv-x="664" d="M424 118V0H240V118H77V189H240V250H77V320H181L19 680H212L333 401L455 680H645L482 320H587V250H424V189H587V118H424Z"  />
<glyph unicode="&#xA6;" horiz-adv-x="287" d="M63 -227V173H223V-227H63ZM63 327V726H223V327H63Z"  />
<glyph unicode="&#xA7;" horiz-adv-x="664" d="M255 363Q253 340 252 313T251 254Q251 224 253 206T260 178T275 164T302 156L409 135Q411 158 412 185T413 245Q413 275 411 293T404 321T389 335T362 343L255 363ZM574 -56Q574 -120 557 -157T510 -212T436 -235T338 -240Q283 -240 240 -237T165 -229Q129 -224 102 -217V-123Q122 -126 148 -128Q170 -130 201 -131T272 -133Q310 -133 334 -132T371 -124T388 -101T393 -56Q393 -33 392 -19T387 3T374 15T350 22L216 49Q186 55 160 65T113 98T82 158T70 254Q70 307 82 347T119 414Q101 434 96 467T90 555Q90 619 111 656T165 711T238 734T318 739Q371 739 413 736T484 727Q518 722 545 716V621Q526 623 502 626Q481 628 452 630T386 632Q350 632 328 631T293 623T276 600T271 555Q271 532 272 518T277 496T289 484T313 477L449 450Q479 444 505 434T552 401T583 342T595 245Q595 191 582 151T544 85Q563 65 568 32T574 -56Z"  />
<glyph unicode="&#xA8;" horiz-adv-x="836" d="M460 580V707H604V580H460ZM232 580V707H376V580H232Z"  />
<glyph unicode="&#xA9;" horiz-adv-x="713" d="M497 153Q479 149 456 146Q436 144 409 142T347 140Q294 140 264 148T220 178T202 237T198 333Q198 397 202 437T222 500T267 531T346 540Q380 540 407 538T454 533Q476 530 493 527V454Q469 456 446 458Q426 460 404 460T362 459Q344 458 334 456T317 442T310 405T308 332Q308 291 309 270T315 238T331 225T363 221Q382 220 405 220T449 223Q473 224 497 226V153ZM599 334Q599 404 597 452T586 532T562 581T519 607T453 618T357 620Q301 620 262 618T195 608T152 582T128 532T117 452T114 334Q114 267 115 221T124 145T147 98T189 73T257 63T357 61Q416 61 457 62T525 72T567 97T589 144T597 221T599 334ZM674 334Q674 257 670 202T655 108T622 46T566 9T479 -8T357 -13Q250 -13 187 -2T91 45T48 150T38 334Q38 414 43 471T61 569T97 633T155 671T240 688T357 693Q457 693 519 682T615 634T662 525T674 334Z"  />
<glyph unicode="&#xAA;" horiz-adv-x="386" d="M239 503H181Q161 503 154 499T146 466Q146 451 148 444T156 432T170 428T192 427Q202 427 210 427T225 428Q232 428 239 429V503ZM350 376Q332 372 307 369Q286 367 257 365T190 363Q158 363 129 364T78 376T43 406T30 466Q30 502 38 521T61 549T97 559T145 561H239V577Q239 609 230 616T191 623Q160 623 134 622T88 620Q65 619 46 618V674Q64 677 87 681Q107 683 135 685T198 688Q235 688 263 685T311 671T340 638T350 577V376ZM32 247V315H354V247H32Z"  />
<glyph unicode="&#xAB;" horiz-adv-x="590" d="M416 22L287 250L416 477H569L445 250L569 22H416ZM150 22L21 250L150 477H303L179 250L303 22H150Z"  />
<glyph unicode="&#xAC;" horiz-adv-x="572" d="M425 142V343H44V447H530V142H425Z"  />
<glyph unicode="&#xAD;" horiz-adv-x="407" d="M44 230V360H364V230H44Z"  />
<glyph unicode="&#xAE;" horiz-adv-x="441" d="M250 517Q250 538 245 541T223 545H187V492H224Q241 492 245 495T250 517ZM255 354L228 442H187V354H116V595H240Q259 595 274 593T300 584T316 561T322 517Q322 487 316 471T296 449L332 354H255ZM365 471Q365 535 362 569T344 620T300 639T220 642Q169 642 140 639T97 620T79 570T75 471Q75 410 77 377T93 328T136 310T220 307Q274 307 303 309T346 327T362 376T365 471ZM417 471Q417 400 411 358T385 293T326 263T220 256Q154 256 115 263T56 292T29 357T23 471Q23 545 30 589T59 656T119 686T220 693Q282 693 320 686T380 656T409 589T417 471Z"  />
<glyph unicode="&#xAF;" horiz-adv-x="836" d="M257 580V670H579V580H257Z"  />
<glyph unicode="&#xB0;" horiz-adv-x="374" d="M255 530Q255 561 235 583T188 606Q159 606 140 584T120 530Q120 499 139 477T188 454Q215 454 235 476T255 530ZM331 530Q331 497 320 468T290 418T244 384T188 371Q158 371 132 383T86 417T55 468T44 530Q44 563 55 592T85 642T131 676T188 689Q218 689 244 677T289 643T320 592T331 530Z"  />
<glyph unicode="&#xB1;" horiz-adv-x="572" d="M44 14V118H530V14H44ZM338 318V164H234V318H44V423H234V576H338V423H530V318H338Z"  />
<glyph unicode="&#xB2;" horiz-adv-x="412" d="M47 426V505L216 682Q231 697 234 704T237 723Q237 742 235 753T224 768T200 774T161 775Q135 775 115 774T81 772Q64 771 51 770V841Q69 844 93 848Q113 850 141 852T204 855Q232 855 260 852T309 836T344 796T358 723Q358 709 357 698T352 675T338 651T314 622L205 506H363V426H47Z"  />
<glyph unicode="&#xB3;" horiz-adv-x="412" d="M363 545Q363 500 351 475T316 438T266 422T206 419Q170 419 141 421T92 426Q68 429 50 433V504Q63 502 81 501Q111 498 163 498Q189 498 204 499T228 505T239 522T242 555Q242 574 240 584T233 598T220 604T199 605H85V677H197Q222 677 231 682T240 720Q240 741 237 752T226 768T203 774T163 775Q138 775 118 774T84 772Q67 771 54 770V841Q71 844 95 848Q115 850 143 852T207 855Q235 855 262 852T311 836T346 796T360 723Q360 692 354 676T339 652Q330 643 319 642V640Q331 639 341 628Q349 619 356 600T363 545Z"  />
<glyph unicode="&#xB4;" horiz-adv-x="836" d="M464 580H340L445 748H575L464 580Z"  />
<glyph unicode="&#xB5;" horiz-adv-x="603" d="M554 9Q525 2 486 -2Q453 -7 407 -10T302 -13Q284 -13 270 -13T245 -11Q234 -10 225 -8V-227H49V499H225V98Q234 97 245 96Q255 95 269 95T302 94Q319 94 333 94T358 96Q369 97 379 98V499H554V9Z"  />
<glyph unicode="&#xB6;" horiz-adv-x="713" d="M304 621H236Q211 621 197 619T175 606T166 570T164 499Q164 453 166 429T175 393T196 379T236 377H304V621ZM555 -227V621H420V-227H304V272H234Q183 272 147 275T88 300T55 368T44 499Q44 584 56 630T92 697T151 722T234 726H670V-227H555Z"  />
<glyph unicode="&#xB7;" horiz-adv-x="253" d="M58 211V379H194V211H58Z"  />
<glyph unicode="&#xB8;" horiz-adv-x="836" d="M552 -142Q552 -169 547 -186T529 -214T494 -228T438 -232Q411 -232 390 -229T353 -222Q335 -218 322 -211V-162Q331 -164 344 -165Q365 -168 406 -168Q424 -168 433 -168T448 -165T454 -157T455 -142Q455 -123 453 -120T434 -117H360V3H448V-52H471Q492 -52 507 -55T533 -68T547 -96T552 -142Z"  />
<glyph unicode="&#xB9;" horiz-adv-x="412" d="M182 426V759L64 713V795L183 847H298V426H182Z"  />
<glyph unicode="&#xBA;" horiz-adv-x="386" d="M242 526Q242 561 241 580T235 608T221 618T196 620H191Q175 620 166 619T153 608T147 580T146 526V520Q146 487 147 469T152 443T165 434T191 432H196Q212 432 221 433T235 443T241 469T242 520V526ZM357 523Q357 472 353 441T332 392T283 369T193 363Q137 363 105 368T56 391T35 440T30 523Q30 577 35 609T58 659T108 682T193 688Q246 688 278 683T327 660T351 610T357 523ZM32 247V315H354V247H32Z"  />
<glyph unicode="&#xBB;" horiz-adv-x="590" d="M440 22H287L411 250L287 477H440L569 250L440 22ZM174 22H21L145 250L21 477H174L303 250L174 22Z"  />
<glyph unicode="&#xBC;" horiz-adv-x="995" d="M808 337L713 181H808V337ZM924 100V0H808V100H607V179L753 421H924V181H972V100H924ZM182 259V592L64 546V628L183 680H298V259H182ZM368 0H273L627 680H722L368 0Z"  />
<glyph unicode="&#xBD;" horiz-adv-x="995" d="M631 0V78L800 255Q815 270 818 277T821 297Q821 316 818 326T807 341T784 347T744 348Q718 348 698 348T664 346Q647 345 634 344V415Q652 418 676 422Q696 424 724 426T788 429Q816 429 843 426T892 410T927 370T941 297Q941 283 940 271T935 248T922 224T898 195L789 80H947V0H631ZM182 259V592L64 546V628L183 680H298V259H182ZM368 0H273L627 680H722L368 0Z"  />
<glyph unicode="&#xBE;" horiz-adv-x="995" d="M808 337L713 181H808V337ZM924 100V0H808V100H607V179L753 421H924V181H972V100H924ZM363 378Q363 333 351 308T316 271T266 255T206 252Q170 252 141 254T92 259Q68 262 50 266V337Q63 335 81 334Q111 331 163 331Q189 331 204 332T228 338T239 355T242 388Q242 407 240 417T233 431T220 437T199 438H85V510H197Q222 510 231 515T240 553Q240 574 237 585T226 601T203 607T163 608Q138 608 118 607T84 605Q67 604 54 603V674Q71 677 95 681Q115 683 143 685T207 688Q235 688 262 685T311 669T346 629T360 556Q360 525 354 509T339 485Q330 476 319 475V473Q331 472 341 461Q349 452 356 433T363 378ZM368 0H273L627 680H722L368 0Z"  />
<glyph unicode="&#xBF;" horiz-adv-x="560" d="M517 -173Q489 -180 453 -184Q422 -188 379 -191T281 -194Q231 -194 188 -190T113 -166T63 -110T44 -7Q44 54 49 89T68 143T102 170T153 186L214 201V272H373V103L250 74Q236 71 228 67T216 55T211 32T209 -7Q209 -37 212 -53T229 -77T268 -86T337 -87Q379 -87 412 -86T469 -82Q496 -80 517 -77V-173ZM205 347V499H381V347H205Z"  />
<glyph unicode="&#xC0;" horiz-adv-x="733" d="M365 549L287 290H444L365 549ZM526 0L477 161H253L204 0H7L228 680H505L726 0H526ZM322 753L212 921H341L446 753H322Z"  />
<glyph unicode="&#xC1;" horiz-adv-x="733" d="M365 549L287 290H444L365 549ZM526 0L477 161H253L204 0H7L228 680H505L726 0H526ZM414 753H290L395 921H525L414 753Z"  />
<glyph unicode="&#xC2;" horiz-adv-x="733" d="M365 549L287 290H444L365 549ZM526 0L477 161H253L204 0H7L228 680H505L726 0H526ZM436 753L368 857L299 753H186L291 921H445L550 753H436Z"  />
<glyph unicode="&#xC3;" horiz-adv-x="733" d="M365 549L287 290H444L365 549ZM526 0L477 161H253L204 0H7L228 680H505L726 0H526ZM568 913Q568 827 539 788T449 748Q419 748 396 760T353 788T318 815T287 828Q281 828 275 826T263 817T254 794T250 753H167Q167 839 197 878T287 918Q317 918 340 906T382 878T417 851T449 838Q455 838 461 840T472 849T481 872T485 913H568Z"  />
<glyph unicode="&#xC4;" horiz-adv-x="733" d="M365 549L287 290H444L365 549ZM526 0L477 161H253L204 0H7L228 680H505L726 0H526ZM410 753V880H554V753H410ZM182 753V880H326V753H182Z"  />
<glyph unicode="&#xC5;" horiz-adv-x="733" d="M365 549L287 290H444L365 549ZM526 0L477 161H253L204 0H7L228 680H505L726 0H526ZM412 846Q412 861 412 868T407 880T393 884T368 885Q351 885 343 885T330 880T325 869T324 846Q324 833 324 826T329 816T342 812T368 811Q384 811 393 811T406 815T411 826T412 846ZM495 846Q495 814 491 795T474 766T436 752T368 748Q326 748 301 751T262 765T244 795T240 846Q240 879 245 899T265 930T304 944T368 948Q407 948 431 945T470 930T490 899T495 846Z"  />
<glyph unicode="&#xC6;" horiz-adv-x="988" d="M446 551H396L305 290H446V551ZM446 0V161H264L207 0H7L256 680H939V551H639V406H911V288H639V130H945V0H446Z"  />
<glyph unicode="&#xC7;" horiz-adv-x="616" d="M457 -142Q457 -169 452 -186T434 -214T399 -228T343 -232Q316 -232 295 -229T259 -222Q241 -218 228 -211V-162Q238 -164 250 -165Q271 -168 311 -168Q329 -168 339 -168T353 -165T359 -157T360 -142Q360 -123 358 -120T339 -117H265V-12Q190 -8 148 9T85 66T59 169T54 329Q54 441 62 512T98 623T178 678T317 693Q378 693 426 690T510 682Q550 678 581 672V543Q538 546 497 549Q462 551 421 552T347 551Q315 549 296 545T267 519T255 454T252 326Q252 254 254 215T265 158T293 136T348 130Q382 128 423 129T501 132Q543 134 586 137V9Q558 3 523 -1Q493 -5 450 -8T353 -13V-52H376Q397 -52 412 -55T438 -68T452 -96T457 -142Z"  />
<glyph unicode="&#xC8;" horiz-adv-x="630" d="M63 0V680H581V551H256V406H553V288H256V130H586V0H63ZM278 753L168 921H297L402 753H278Z"  />
<glyph unicode="&#xC9;" horiz-adv-x="630" d="M63 0V680H581V551H256V406H553V288H256V130H586V0H63ZM370 753H246L351 921H481L370 753Z"  />
<glyph unicode="&#xCA;" horiz-adv-x="630" d="M63 0V680H581V551H256V406H553V288H256V130H586V0H63ZM392 753L324 857L255 753H142L247 921H401L506 753H392Z"  />
<glyph unicode="&#xCB;" horiz-adv-x="630" d="M63 0V680H581V551H256V406H553V288H256V130H586V0H63ZM366 753V880H510V753H366ZM138 753V880H282V753H138Z"  />
<glyph unicode="&#xCC;" horiz-adv-x="320" d="M63 0V680H256V0H63ZM116 753L6 921H135L240 753H116Z"  />
<glyph unicode="&#xCD;" horiz-adv-x="320" d="M63 0V680H256V0H63ZM207 753H83L188 921H318L207 753Z"  />
<glyph unicode="&#xCE;" horiz-adv-x="320" d="M63 0V680H256V0H63ZM229 753L161 857L92 753H-21L84 921H238L343 753H229Z"  />
<glyph unicode="&#xCF;" horiz-adv-x="320" d="M63 0V680H256V0H63ZM203 753V880H347V753H203ZM-25 753V880H119V753H-25Z"  />
<glyph unicode="&#xD0;" horiz-adv-x="735" d="M482 326Q482 406 479 449T467 513T441 536T396 540H271V384H383V301H271V140H401Q428 140 444 143T469 163T479 218T482 326ZM682 329Q682 223 674 159T641 59T573 12T456 0H78V301H4V384H78V680H448Q517 680 562 668T633 619T671 513T682 329Z"  />
<glyph unicode="&#xD1;" horiz-adv-x="768" d="M440 0L238 494V0H63V680H328L530 187V680H704V0H440ZM586 913Q586 827 557 788T467 748Q437 748 414 760T371 788T336 815T305 828Q299 828 293 826T281 817T272 794T268 753H185Q185 839 215 878T305 918Q335 918 358 906T400 878T435 851T467 838Q473 838 479 840T490 849T499 872T503 913H586Z"  />
<glyph unicode="&#xD2;" horiz-adv-x="720" d="M467 338Q467 419 465 462T452 526T421 549T364 553H356Q320 553 299 550T268 526T255 463T252 338V329Q252 254 254 213T266 153T297 131T356 128H364Q402 128 423 131T453 153T465 213T467 329V338ZM667 333Q667 255 664 200T651 106T620 44T566 8T482 -9T360 -13Q289 -13 239 -9T154 7T100 43T70 105T57 199T54 333Q54 455 64 526T107 635T200 682T360 693Q459 693 519 683T613 635T656 527T667 333ZM315 753L205 921H334L439 753H315Z"  />
<glyph unicode="&#xD3;" horiz-adv-x="720" d="M467 338Q467 419 465 462T452 526T421 549T364 553H356Q320 553 299 550T268 526T255 463T252 338V329Q252 254 254 213T266 153T297 131T356 128H364Q402 128 423 131T453 153T465 213T467 329V338ZM667 333Q667 255 664 200T651 106T620 44T566 8T482 -9T360 -13Q289 -13 239 -9T154 7T100 43T70 105T57 199T54 333Q54 455 64 526T107 635T200 682T360 693Q459 693 519 683T613 635T656 527T667 333ZM407 753H283L388 921H518L407 753Z"  />
<glyph unicode="&#xD4;" horiz-adv-x="720" d="M467 338Q467 419 465 462T452 526T421 549T364 553H356Q320 553 299 550T268 526T255 463T252 338V329Q252 254 254 213T266 153T297 131T356 128H364Q402 128 423 131T453 153T465 213T467 329V338ZM667 333Q667 255 664 200T651 106T620 44T566 8T482 -9T360 -13Q289 -13 239 -9T154 7T100 43T70 105T57 199T54 333Q54 455 64 526T107 635T200 682T360 693Q459 693 519 683T613 635T656 527T667 333ZM429 753L361 857L292 753H179L284 921H438L543 753H429Z"  />
<glyph unicode="&#xD5;" horiz-adv-x="720" d="M467 338Q467 419 465 462T452 526T421 549T364 553H356Q320 553 299 550T268 526T255 463T252 338V329Q252 254 254 213T266 153T297 131T356 128H364Q402 128 423 131T453 153T465 213T467 329V338ZM667 333Q667 255 664 200T651 106T620 44T566 8T482 -9T360 -13Q289 -13 239 -9T154 7T100 43T70 105T57 199T54 333Q54 455 64 526T107 635T200 682T360 693Q459 693 519 683T613 635T656 527T667 333ZM561 913Q561 827 532 788T442 748Q412 748 389 760T346 788T311 815T280 828Q274 828 268 826T256 817T247 794T243 753H160Q160 839 190 878T280 918Q310 918 333 906T375 878T410 851T442 838Q448 838 454 840T465 849T474 872T478 913H561Z"  />
<glyph unicode="&#xD6;" horiz-adv-x="720" d="M467 338Q467 419 465 462T452 526T421 549T364 553H356Q320 553 299 550T268 526T255 463T252 338V329Q252 254 254 213T266 153T297 131T356 128H364Q402 128 423 131T453 153T465 213T467 329V338ZM667 333Q667 255 664 200T651 106T620 44T566 8T482 -9T360 -13Q289 -13 239 -9T154 7T100 43T70 105T57 199T54 333Q54 455 64 526T107 635T200 682T360 693Q459 693 519 683T613 635T656 527T667 333ZM403 753V880H547V753H403ZM175 753V880H319V753H175Z"  />
<glyph unicode="&#xD7;" horiz-adv-x="572" d="M425 62L286 217L147 62L77 139L216 294L77 450L147 528L286 373L425 528L496 450L356 294L496 139L425 62Z"  />
<glyph unicode="&#xD8;" horiz-adv-x="720" d="M467 338Q467 371 467 397T465 445L293 132Q304 129 319 129T356 128H364Q402 128 423 131T453 153T465 213T467 329V338ZM252 329Q252 296 252 270T253 224L430 546Q419 551 403 552T364 553H356Q320 553 299 550T268 526T255 463T252 338V329ZM667 333Q667 255 664 200T651 106T620 44T566 8T482 -9T360 -13Q274 -13 216 -7L173 -86H82L137 15Q109 29 93 53T68 115T57 206T54 333Q54 455 64 526T107 635T200 682T360 693Q405 693 441 692T506 685L547 758H638L583 660Q609 644 625 619T651 554T663 460T667 333Z"  />
<glyph unicode="&#xD9;" horiz-adv-x="720" d="M657 227Q657 178 654 141T641 78T612 34T559 6T478 -9T360 -13Q291 -13 243 -9T161 5T109 33T79 77T66 141T63 227V680H256V227Q256 190 259 170T273 141T304 130T360 128Q394 128 415 129T446 140T460 170T464 227V680H657V227ZM315 753L205 921H334L439 753H315Z"  />
<glyph unicode="&#xDA;" horiz-adv-x="720" d="M657 227Q657 178 654 141T641 78T612 34T559 6T478 -9T360 -13Q291 -13 243 -9T161 5T109 33T79 77T66 141T63 227V680H256V227Q256 190 259 170T273 141T304 130T360 128Q394 128 415 129T446 140T460 170T464 227V680H657V227ZM407 753H283L388 921H518L407 753Z"  />
<glyph unicode="&#xDB;" horiz-adv-x="720" d="M657 227Q657 178 654 141T641 78T612 34T559 6T478 -9T360 -13Q291 -13 243 -9T161 5T109 33T79 77T66 141T63 227V680H256V227Q256 190 259 170T273 141T304 130T360 128Q394 128 415 129T446 140T460 170T464 227V680H657V227ZM429 753L361 857L292 753H179L284 921H438L543 753H429Z"  />
<glyph unicode="&#xDC;" horiz-adv-x="720" d="M657 227Q657 178 654 141T641 78T612 34T559 6T478 -9T360 -13Q291 -13 243 -9T161 5T109 33T79 77T66 141T63 227V680H256V227Q256 190 259 170T273 141T304 130T360 128Q394 128 415 129T446 140T460 170T464 227V680H657V227ZM403 753V880H547V753H403ZM175 753V880H319V753H175Z"  />
<glyph unicode="&#xDD;" horiz-adv-x="673" d="M469 263H433V0H240V263H203L7 680H211L337 404L464 680H666L469 263ZM384 753H260L365 921H495L384 753Z"  />
<glyph unicode="&#xDE;" horiz-adv-x="684" d="M452 344Q452 379 449 398T437 426T412 436T368 438H256V255H371Q398 255 414 256T438 266T449 292T452 344ZM651 341Q651 266 638 223T597 158T526 131T424 125H256V0H63V680H256V569H418Q473 569 516 564T589 536T635 467T651 341Z"  />
<glyph unicode="&#xDF;" horiz-adv-x="616" d="M577 200Q577 125 564 83T530 19T480 -8T420 -13Q383 -13 354 -10T305 -2Q281 2 263 9V92Q272 90 283 88Q302 85 337 85Q355 85 366 88T384 103T393 141T395 211Q395 258 393 283T385 320T368 334T337 336H272V435H329Q348 435 358 436T374 446T381 473T383 526Q383 568 380 591T367 624T342 637T302 639Q280 639 266 638T242 630T229 608T225 565V0H49V559Q49 622 63 658T109 712T189 734T307 739Q364 739 411 734T492 708T545 646T564 531Q564 477 556 448T538 405Q527 389 512 387V384Q530 381 544 361Q556 344 566 307T577 200Z"  />
<glyph unicode="&#xE0;" horiz-adv-x="603" d="M379 215H282Q265 215 253 214T234 207T223 189T220 152Q220 127 224 114T238 94T263 86T300 85Q318 85 332 85T357 87Q369 88 379 90V215ZM554 9Q525 2 485 -2Q451 -7 404 -10T296 -13Q244 -13 198 -11T116 7T60 56T39 152Q39 210 52 241T89 286T147 303T223 306H379V333Q379 360 376 376T363 399T338 409T297 412Q246 414 204 412T131 408Q95 405 66 402V490Q94 496 131 501Q163 505 207 508T309 512Q370 512 415 508T492 485T538 431T554 333V9ZM257 580L147 748H276L381 580H257Z"  />
<glyph unicode="&#xE1;" horiz-adv-x="603" d="M379 215H282Q265 215 253 214T234 207T223 189T220 152Q220 127 224 114T238 94T263 86T300 85Q318 85 332 85T357 87Q369 88 379 90V215ZM554 9Q525 2 485 -2Q451 -7 404 -10T296 -13Q244 -13 198 -11T116 7T60 56T39 152Q39 210 52 241T89 286T147 303T223 306H379V333Q379 360 376 376T363 399T338 409T297 412Q246 414 204 412T131 408Q95 405 66 402V490Q94 496 131 501Q163 505 207 508T309 512Q370 512 415 508T492 485T538 431T554 333V9ZM349 580H225L330 748H460L349 580Z"  />
<glyph unicode="&#xE2;" horiz-adv-x="603" d="M379 215H282Q265 215 253 214T234 207T223 189T220 152Q220 127 224 114T238 94T263 86T300 85Q318 85 332 85T357 87Q369 88 379 90V215ZM554 9Q525 2 485 -2Q451 -7 404 -10T296 -13Q244 -13 198 -11T116 7T60 56T39 152Q39 210 52 241T89 286T147 303T223 306H379V333Q379 360 376 376T363 399T338 409T297 412Q246 414 204 412T131 408Q95 405 66 402V490Q94 496 131 501Q163 505 207 508T309 512Q370 512 415 508T492 485T538 431T554 333V9ZM371 580L303 684L234 580H121L226 748H380L485 580H371Z"  />
<glyph unicode="&#xE3;" horiz-adv-x="603" d="M379 215H282Q265 215 253 214T234 207T223 189T220 152Q220 127 224 114T238 94T263 86T300 85Q318 85 332 85T357 87Q369 88 379 90V215ZM554 9Q525 2 485 -2Q451 -7 404 -10T296 -13Q244 -13 198 -11T116 7T60 56T39 152Q39 210 52 241T89 286T147 303T223 306H379V333Q379 360 376 376T363 399T338 409T297 412Q246 414 204 412T131 408Q95 405 66 402V490Q94 496 131 501Q163 505 207 508T309 512Q370 512 415 508T492 485T538 431T554 333V9ZM503 740Q503 654 474 615T384 575Q354 575 331 587T288 615T253 642T222 655Q216 655 210 653T198 644T189 621T185 580H102Q102 666 132 705T222 745Q252 745 275 733T317 705T352 678T384 665Q390 665 396 667T407 676T416 699T420 740H503Z"  />
<glyph unicode="&#xE4;" horiz-adv-x="603" d="M379 215H282Q265 215 253 214T234 207T223 189T220 152Q220 127 224 114T238 94T263 86T300 85Q318 85 332 85T357 87Q369 88 379 90V215ZM554 9Q525 2 485 -2Q451 -7 404 -10T296 -13Q244 -13 198 -11T116 7T60 56T39 152Q39 210 52 241T89 286T147 303T223 306H379V333Q379 360 376 376T363 399T338 409T297 412Q246 414 204 412T131 408Q95 405 66 402V490Q94 496 131 501Q163 505 207 508T309 512Q370 512 415 508T492 485T538 431T554 333V9ZM345 580V707H489V580H345ZM117 580V707H261V580H117Z"  />
<glyph unicode="&#xE5;" horiz-adv-x="603" d="M379 215H282Q265 215 253 214T234 207T223 189T220 152Q220 127 224 114T238 94T263 86T300 85Q318 85 332 85T357 87Q369 88 379 90V215ZM554 9Q525 2 485 -2Q451 -7 404 -10T296 -13Q244 -13 198 -11T116 7T60 56T39 152Q39 210 52 241T89 286T147 303T223 306H379V333Q379 360 376 376T363 399T338 409T297 412Q246 414 204 412T131 408Q95 405 66 402V490Q94 496 131 501Q163 505 207 508T309 512Q370 512 415 508T492 485T538 431T554 333V9ZM347 673Q347 688 347 695T342 707T328 711T303 712Q286 712 278 712T265 707T260 696T259 673Q259 660 259 653T264 643T277 639T303 638Q319 638 328 638T341 642T346 653T347 673ZM430 673Q430 641 426 622T409 593T371 579T303 575Q261 575 236 578T197 592T179 622T175 673Q175 706 180 726T200 757T239 771T303 775Q342 775 366 772T405 757T425 726T430 673Z"  />
<glyph unicode="&#xE6;" horiz-adv-x="924" d="M703 294Q703 338 701 362T691 397T668 410T625 412Q598 412 583 410T559 397T549 362T547 294H703ZM373 215H280Q264 215 253 214T234 207T224 189T220 152Q220 127 224 114T238 94T261 86T296 85Q320 85 335 86T358 95T370 119T373 166V215ZM547 204Q547 162 548 139T558 104T583 90T630 86Q683 85 726 87T802 91Q839 94 869 97V9Q840 2 801 -2Q768 -7 722 -10T617 -13Q563 -13 527 -9T464 9Q436 -5 394 -9T294 -13Q243 -13 197 -11T116 7T60 56T39 152Q39 210 52 241T88 286T145 303T220 306H373V333Q373 360 370 376T358 399T334 409T294 412Q243 414 202 412T130 408Q95 405 66 402V490Q94 496 131 501Q163 505 206 508T307 512Q356 512 395 508T464 486Q490 501 529 506T625 512Q709 512 760 503T838 466T875 385T884 245V204H547Z"  />
<glyph unicode="&#xE7;" horiz-adv-x="532" d="M411 -142Q411 -169 406 -186T387 -214T352 -228T296 -232Q270 -232 249 -229T212 -222Q194 -218 181 -211V-162Q190 -164 203 -165Q224 -168 265 -168Q283 -168 292 -168T307 -165T313 -157T314 -142Q314 -123 312 -120T293 -117H218V-11Q156 -8 121 5T67 47T44 124T39 245Q39 328 47 380T80 461T150 501T270 512Q324 512 366 509T439 501Q474 496 501 490V396Q464 399 428 401Q397 403 362 404T298 403Q271 401 256 398T232 380T222 333T220 242Q220 188 221 159T230 117T254 100T300 96Q328 94 363 95T431 98Q468 100 506 103V9Q483 4 453 0Q427 -4 390 -7T307 -12V-52H330Q351 -52 366 -55T391 -68T406 -96T411 -142Z"  />
<glyph unicode="&#xE8;" horiz-adv-x="603" d="M383 294Q383 338 381 362T371 397T346 410T302 412Q274 412 258 410T234 397T223 362T221 294H383ZM221 204Q221 162 222 139T232 104T257 90T306 86Q360 85 404 87T480 91Q518 94 548 97V9Q518 2 479 -2Q446 -7 400 -10T294 -13Q207 -13 156 -4T79 32T46 110T39 245Q39 332 48 384T85 465T164 503T302 512Q387 512 439 503T518 466T555 385T564 245V204H221ZM257 580L147 748H276L381 580H257Z"  />
<glyph unicode="&#xE9;" horiz-adv-x="603" d="M383 294Q383 338 381 362T371 397T346 410T302 412Q274 412 258 410T234 397T223 362T221 294H383ZM221 204Q221 162 222 139T232 104T257 90T306 86Q360 85 404 87T480 91Q518 94 548 97V9Q518 2 479 -2Q446 -7 400 -10T294 -13Q207 -13 156 -4T79 32T46 110T39 245Q39 332 48 384T85 465T164 503T302 512Q387 512 439 503T518 466T555 385T564 245V204H221ZM349 580H225L330 748H460L349 580Z"  />
<glyph unicode="&#xEA;" horiz-adv-x="603" d="M383 294Q383 338 381 362T371 397T346 410T302 412Q274 412 258 410T234 397T223 362T221 294H383ZM221 204Q221 162 222 139T232 104T257 90T306 86Q360 85 404 87T480 91Q518 94 548 97V9Q518 2 479 -2Q446 -7 400 -10T294 -13Q207 -13 156 -4T79 32T46 110T39 245Q39 332 48 384T85 465T164 503T302 512Q387 512 439 503T518 466T555 385T564 245V204H221ZM371 580L303 684L234 580H121L226 748H380L485 580H371Z"  />
<glyph unicode="&#xEB;" horiz-adv-x="603" d="M383 294Q383 338 381 362T371 397T346 410T302 412Q274 412 258 410T234 397T223 362T221 294H383ZM221 204Q221 162 222 139T232 104T257 90T306 86Q360 85 404 87T480 91Q518 94 548 97V9Q518 2 479 -2Q446 -7 400 -10T294 -13Q207 -13 156 -4T79 32T46 110T39 245Q39 332 48 384T85 465T164 503T302 512Q387 512 439 503T518 466T555 385T564 245V204H221ZM345 580V707H489V580H345ZM117 580V707H261V580H117Z"  />
<glyph unicode="&#xEC;" horiz-adv-x="274" d="M49 0V499H225V0H49ZM92 580L-18 748H111L216 580H92Z"  />
<glyph unicode="&#xED;" horiz-adv-x="274" d="M49 0V499H225V0H49ZM184 580H60L165 748H295L184 580Z"  />
<glyph unicode="&#xEE;" horiz-adv-x="274" d="M49 0V499H225V0H49ZM206 580L138 684L69 580H-44L61 748H215L320 580H206Z"  />
<glyph unicode="&#xEF;" horiz-adv-x="274" d="M49 0V499H225V0H49ZM180 580V707H324V580H180ZM-48 580V707H96V580H-48Z"  />
<glyph unicode="&#xF0;" horiz-adv-x="612" d="M383 231Q383 286 381 315T371 358T348 374T306 377H297Q271 377 256 375T232 359T222 316T220 231Q220 180 221 152T230 111T253 96T297 94H306Q334 94 349 96T372 111T381 152T383 231ZM517 582Q535 520 549 433T564 231Q564 153 557 105T522 31T443 -4T302 -13Q213 -13 161 -5T81 30T47 105T39 231Q39 313 48 362T86 439T166 475T302 484Q319 484 331 484T353 482Q364 481 371 480Q370 499 368 519T361 560L257 546V618L346 630Q341 650 336 667T326 698Q321 713 317 726H462Q467 718 472 707Q477 697 482 683T495 650L608 666V595L517 582Z"  />
<glyph unicode="&#xF1;" horiz-adv-x="603" d="M379 0V333Q379 360 375 374T361 396T338 404T302 405Q284 405 270 404T245 402Q234 401 225 400V0H49V490Q78 496 117 501Q150 505 196 508T302 512Q366 512 413 508T492 485T539 431T554 333V0H379ZM503 740Q503 654 474 615T384 575Q354 575 331 587T288 615T253 642T222 655Q216 655 210 653T198 644T189 621T185 580H102Q102 666 132 705T222 745Q252 745 275 733T317 705T352 678T384 665Q390 665 396 667T407 676T416 699T420 740H503Z"  />
<glyph unicode="&#xF2;" horiz-adv-x="603" d="M383 250Q383 308 381 339T371 385T348 402T306 405H297Q270 405 255 403T232 386T222 340T220 250V241Q220 186 221 156T230 113T253 97T297 94H306Q334 94 349 96T372 112T381 156T383 241V250ZM564 245Q564 161 557 111T524 33T445 -4T302 -13Q211 -13 159 -4T80 32T46 110T39 245Q39 332 48 384T85 465T164 503T302 512Q387 512 439 503T518 466T555 385T564 245ZM257 580L147 748H276L381 580H257Z"  />
<glyph unicode="&#xF3;" horiz-adv-x="603" d="M383 250Q383 308 381 339T371 385T348 402T306 405H297Q270 405 255 403T232 386T222 340T220 250V241Q220 186 221 156T230 113T253 97T297 94H306Q334 94 349 96T372 112T381 156T383 241V250ZM564 245Q564 161 557 111T524 33T445 -4T302 -13Q211 -13 159 -4T80 32T46 110T39 245Q39 332 48 384T85 465T164 503T302 512Q387 512 439 503T518 466T555 385T564 245ZM349 580H225L330 748H460L349 580Z"  />
<glyph unicode="&#xF4;" horiz-adv-x="603" d="M383 250Q383 308 381 339T371 385T348 402T306 405H297Q270 405 255 403T232 386T222 340T220 250V241Q220 186 221 156T230 113T253 97T297 94H306Q334 94 349 96T372 112T381 156T383 241V250ZM564 245Q564 161 557 111T524 33T445 -4T302 -13Q211 -13 159 -4T80 32T46 110T39 245Q39 332 48 384T85 465T164 503T302 512Q387 512 439 503T518 466T555 385T564 245ZM371 580L303 684L234 580H121L226 748H380L485 580H371Z"  />
<glyph unicode="&#xF5;" horiz-adv-x="603" d="M383 250Q383 308 381 339T371 385T348 402T306 405H297Q270 405 255 403T232 386T222 340T220 250V241Q220 186 221 156T230 113T253 97T297 94H306Q334 94 349 96T372 112T381 156T383 241V250ZM564 245Q564 161 557 111T524 33T445 -4T302 -13Q211 -13 159 -4T80 32T46 110T39 245Q39 332 48 384T85 465T164 503T302 512Q387 512 439 503T518 466T555 385T564 245ZM503 740Q503 654 474 615T384 575Q354 575 331 587T288 615T253 642T222 655Q216 655 210 653T198 644T189 621T185 580H102Q102 666 132 705T222 745Q252 745 275 733T317 705T352 678T384 665Q390 665 396 667T407 676T416 699T420 740H503Z"  />
<glyph unicode="&#xF6;" horiz-adv-x="603" d="M383 250Q383 308 381 339T371 385T348 402T306 405H297Q270 405 255 403T232 386T222 340T220 250V241Q220 186 221 156T230 113T253 97T297 94H306Q334 94 349 96T372 112T381 156T383 241V250ZM564 245Q564 161 557 111T524 33T445 -4T302 -13Q211 -13 159 -4T80 32T46 110T39 245Q39 332 48 384T85 465T164 503T302 512Q387 512 439 503T518 466T555 385T564 245ZM345 580V707H489V580H345ZM117 580V707H261V580H117Z"  />
<glyph unicode="&#xF7;" horiz-adv-x="572" d="M225 17V171H347V17H225ZM225 419V572H347V419H225ZM44 242V347H530V242H44Z"  />
<glyph unicode="&#xF8;" horiz-adv-x="603" d="M383 250Q383 270 383 287T382 318L252 97Q260 95 271 95T297 94H306Q334 94 349 96T372 112T381 156T383 241V250ZM220 175L353 400Q345 404 334 404T306 405H297Q270 405 255 403T232 386T222 340T220 250V175ZM564 245Q564 161 557 111T524 33T445 -4T302 -13Q268 -13 241 -12T190 -8L146 -85H68L122 6Q94 16 78 34T53 80T42 149T39 245Q39 332 48 384T85 465T164 503T302 512Q370 512 415 506L458 579H535L482 490Q507 478 523 459T548 411T560 341T564 245Z"  />
<glyph unicode="&#xF9;" horiz-adv-x="603" d="M554 9Q525 2 486 -2Q453 -7 407 -10T302 -13Q225 -13 176 -8T99 17T60 71T49 166V499H225V166Q225 139 228 125T241 103T265 95T302 94Q319 94 333 94T358 96Q369 97 379 98V499H554V9ZM257 580L147 748H276L381 580H257Z"  />
<glyph unicode="&#xFA;" horiz-adv-x="603" d="M554 9Q525 2 486 -2Q453 -7 407 -10T302 -13Q225 -13 176 -8T99 17T60 71T49 166V499H225V166Q225 139 228 125T241 103T265 95T302 94Q319 94 333 94T358 96Q369 97 379 98V499H554V9ZM349 580H225L330 748H460L349 580Z"  />
<glyph unicode="&#xFB;" horiz-adv-x="603" d="M554 9Q525 2 486 -2Q453 -7 407 -10T302 -13Q225 -13 176 -8T99 17T60 71T49 166V499H225V166Q225 139 228 125T241 103T265 95T302 94Q319 94 333 94T358 96Q369 97 379 98V499H554V9ZM371 580L303 684L234 580H121L226 748H380L485 580H371Z"  />
<glyph unicode="&#xFC;" horiz-adv-x="603" d="M554 9Q525 2 486 -2Q453 -7 407 -10T302 -13Q225 -13 176 -8T99 17T60 71T49 166V499H225V166Q225 139 228 125T241 103T265 95T302 94Q319 94 333 94T358 96Q369 97 379 98V499H554V9ZM345 580V707H489V580H345ZM117 580V707H261V580H117Z"  />
<glyph unicode="&#xFD;" horiz-adv-x="583" d="M416 -67Q399 -126 381 -160T341 -212T293 -235T236 -240Q194 -240 161 -237T104 -229Q77 -224 56 -217V-125Q69 -127 87 -129Q102 -131 124 -132T173 -133Q192 -133 204 -132T225 -122T240 -97T256 -49L270 0H150L11 499H193L294 109L396 499H575L416 -67ZM341 580H217L322 748H452L341 580Z"  />
<glyph unicode="&#xFE;" horiz-adv-x="603" d="M383 250Q383 308 381 339T371 385T347 402T302 405Q284 405 270 405T245 403Q234 402 225 402V97Q234 96 245 95Q255 94 269 94T302 94Q332 94 348 96T372 112T381 156T383 241V250ZM564 245Q564 161 557 111T524 33T447 -4T307 -13Q289 -13 274 -13T248 -11Q235 -10 225 -8V-227H49V726H225V507Q235 508 248 509Q259 510 274 511T307 512Q390 512 440 503T518 466T555 385T564 245Z"  />
<glyph unicode="&#xFF;" horiz-adv-x="583" d="M416 -67Q399 -126 381 -160T341 -212T293 -235T236 -240Q194 -240 161 -237T104 -229Q77 -224 56 -217V-125Q69 -127 87 -129Q102 -131 124 -132T173 -133Q192 -133 204 -132T225 -122T240 -97T256 -49L270 0H150L11 499H193L294 109L396 499H575L416 -67ZM337 580V707H481V580H337ZM109 580V707H253V580H109Z"  />
<glyph unicode="&#x100;" horiz-adv-x="733" d="M365 549L287 290H444L365 549ZM526 0L477 161H253L204 0H7L228 680H505L726 0H526ZM207 753V843H529V753H207Z"  />
<glyph unicode="&#x101;" horiz-adv-x="603" d="M379 215H282Q265 215 253 214T234 207T223 189T220 152Q220 127 224 114T238 94T263 86T300 85Q318 85 332 85T357 87Q369 88 379 90V215ZM554 9Q525 2 485 -2Q451 -7 404 -10T296 -13Q244 -13 198 -11T116 7T60 56T39 152Q39 210 52 241T89 286T147 303T223 306H379V333Q379 360 376 376T363 399T338 409T297 412Q246 414 204 412T131 408Q95 405 66 402V490Q94 496 131 501Q163 505 207 508T309 512Q370 512 415 508T492 485T538 431T554 333V9ZM142 580V670H464V580H142Z"  />
<glyph unicode="&#x102;" horiz-adv-x="733" d="M365 549L287 290H444L365 549ZM526 0L477 161H253L204 0H7L228 680H505L726 0H526ZM527 921Q527 883 525 852T507 797T460 761T368 748Q308 748 276 761T229 797T212 851T209 921H292Q292 892 294 876T303 851T326 840T368 837Q394 837 409 839T432 850T442 875T444 921H527Z"  />
<glyph unicode="&#x103;" horiz-adv-x="603" d="M379 215H282Q265 215 253 214T234 207T223 189T220 152Q220 127 224 114T238 94T263 86T300 85Q318 85 332 85T357 87Q369 88 379 90V215ZM554 9Q525 2 485 -2Q451 -7 404 -10T296 -13Q244 -13 198 -11T116 7T60 56T39 152Q39 210 52 241T89 286T147 303T223 306H379V333Q379 360 376 376T363 399T338 409T297 412Q246 414 204 412T131 408Q95 405 66 402V490Q94 496 131 501Q163 505 207 508T309 512Q370 512 415 508T492 485T538 431T554 333V9ZM462 748Q462 710 460 679T442 624T395 588T303 575Q243 575 211 588T164 624T147 678T144 748H227Q227 719 229 703T238 678T261 667T303 664Q329 664 344 666T367 677T377 702T379 748H462Z"  />
<glyph unicode="&#x104;" horiz-adv-x="733" d="M365 549L287 290H444L365 549ZM726 -186Q714 -193 698 -197Q684 -202 665 -205T622 -208Q562 -208 539 -184T515 -108Q515 -61 527 -34T545 0H526L477 161H253L204 0H7L228 680H505L726 0H634Q630 -5 621 -23T611 -77Q611 -93 612 -102T619 -117T632 -124T654 -126Q686 -126 706 -123Q717 -122 726 -120V-186Z"  />
<glyph unicode="&#x105;" horiz-adv-x="603" d="M379 215H282Q265 215 253 214T234 207T223 189T220 152Q220 127 224 114T238 94T263 86T300 85Q318 85 332 85T357 87Q369 88 379 90V215ZM542 -186Q530 -193 514 -197Q500 -202 481 -205T438 -208Q377 -208 354 -184T330 -108Q330 -73 337 -49T353 -12Q339 -12 326 -12T296 -13Q244 -13 198 -11T116 7T60 56T39 152Q39 210 52 241T89 286T147 303T223 306H379V333Q379 360 376 376T363 399T338 409T297 412Q246 414 204 412T131 408Q95 405 66 402V490Q94 496 131 501Q163 505 207 508T309 512Q370 512 415 508T492 485T538 431T554 333V9Q541 7 524 4Q510 2 490 -1T444 -7Q439 -15 433 -32T426 -77Q426 -93 427 -102T434 -117T447 -124T469 -126Q502 -126 522 -123Q533 -122 542 -120V-186Z"  />
<glyph unicode="&#x106;" horiz-adv-x="616" d="M586 9Q554 2 514 -2Q479 -7 431 -10T320 -13Q225 -13 172 1T92 54T60 158T54 329Q54 441 62 512T98 623T178 678T317 693Q378 693 426 690T510 682Q550 678 581 672V543Q538 546 497 549Q462 551 421 552T347 551Q315 549 296 545T267 519T255 454T252 326Q252 254 254 215T265 158T293 136T348 130Q382 128 423 129T501 132Q543 134 586 137V9ZM370 753H246L351 921H481L370 753Z"  />
<glyph unicode="&#x107;" horiz-adv-x="532" d="M506 9Q478 2 443 -2Q413 -7 370 -10T272 -13Q192 -13 146 -3T76 36T46 115T39 245Q39 328 47 380T80 461T150 501T270 512Q324 512 366 509T439 501Q474 496 501 490V396Q464 399 428 401Q397 403 362 404T298 403Q271 401 256 398T232 380T222 333T220 242Q220 188 221 159T230 117T254 100T300 96Q328 94 363 95T431 98Q468 100 506 103V9ZM324 580H200L305 748H435L324 580Z"  />
<glyph unicode="&#x108;" horiz-adv-x="616" d="M586 9Q554 2 514 -2Q479 -7 431 -10T320 -13Q225 -13 172 1T92 54T60 158T54 329Q54 441 62 512T98 623T178 678T317 693Q378 693 426 690T510 682Q550 678 581 672V543Q538 546 497 549Q462 551 421 552T347 551Q315 549 296 545T267 519T255 454T252 326Q252 254 254 215T265 158T293 136T348 130Q382 128 423 129T501 132Q543 134 586 137V9ZM392 753L324 857L255 753H142L247 921H401L506 753H392Z"  />
<glyph unicode="&#x109;" horiz-adv-x="532" d="M506 9Q478 2 443 -2Q413 -7 370 -10T272 -13Q192 -13 146 -3T76 36T46 115T39 245Q39 328 47 380T80 461T150 501T270 512Q324 512 366 509T439 501Q474 496 501 490V396Q464 399 428 401Q397 403 362 404T298 403Q271 401 256 398T232 380T222 333T220 242Q220 188 221 159T230 117T254 100T300 96Q328 94 363 95T431 98Q468 100 506 103V9ZM346 580L278 684L209 580H96L201 748H355L460 580H346Z"  />
<glyph unicode="&#x10A;" horiz-adv-x="616" d="M586 9Q554 2 514 -2Q479 -7 431 -10T320 -13Q225 -13 172 1T92 54T60 158T54 329Q54 441 62 512T98 623T178 678T317 693Q378 693 426 690T510 682Q550 678 581 672V543Q538 546 497 549Q462 551 421 552T347 551Q315 549 296 545T267 519T255 454T252 326Q252 254 254 215T265 158T293 136T348 130Q382 128 423 129T501 132Q543 134 586 137V9ZM236 753V899H411V753H236Z"  />
<glyph unicode="&#x10B;" horiz-adv-x="532" d="M506 9Q478 2 443 -2Q413 -7 370 -10T272 -13Q192 -13 146 -3T76 36T46 115T39 245Q39 328 47 380T80 461T150 501T270 512Q324 512 366 509T439 501Q474 496 501 490V396Q464 399 428 401Q397 403 362 404T298 403Q271 401 256 398T232 380T222 333T220 242Q220 188 221 159T230 117T254 100T300 96Q328 94 363 95T431 98Q468 100 506 103V9ZM190 580V726H365V580H190Z"  />
<glyph unicode="&#x10C;" horiz-adv-x="616" d="M586 9Q554 2 514 -2Q479 -7 431 -10T320 -13Q225 -13 172 1T92 54T60 158T54 329Q54 441 62 512T98 623T178 678T317 693Q378 693 426 690T510 682Q550 678 581 672V543Q538 546 497 549Q462 551 421 552T347 551Q315 549 296 545T267 519T255 454T252 326Q252 254 254 215T265 158T293 136T348 130Q382 128 423 129T501 132Q543 134 586 137V9ZM401 753H247L142 921H255L324 816L392 921H506L401 753Z"  />
<glyph unicode="&#x10D;" horiz-adv-x="532" d="M506 9Q478 2 443 -2Q413 -7 370 -10T272 -13Q192 -13 146 -3T76 36T46 115T39 245Q39 328 47 380T80 461T150 501T270 512Q324 512 366 509T439 501Q474 496 501 490V396Q464 399 428 401Q397 403 362 404T298 403Q271 401 256 398T232 380T222 333T220 242Q220 188 221 159T230 117T254 100T300 96Q328 94 363 95T431 98Q468 100 506 103V9ZM355 580H201L96 748H209L278 643L346 748H460L355 580Z"  />
<glyph unicode="&#x10E;" horiz-adv-x="720" d="M467 326Q467 406 464 449T452 513T426 536T381 540H256V140H386Q413 140 429 143T454 163T464 218T467 326ZM667 329Q667 223 659 159T627 59T558 12T441 0H63V680H433Q502 680 547 668T618 619T656 513T667 329ZM438 753H284L179 921H292L361 816L429 921H543L438 753Z"  />
<glyph unicode="&#x10F;" horiz-adv-x="755" d="M379 402Q369 402 358 403Q348 404 334 404T302 405Q273 405 257 403T233 386T222 340T220 250V241Q220 186 221 156T231 113T255 97T302 94Q319 94 333 94T358 96Q369 97 379 98V402ZM554 9Q525 2 485 -2Q451 -7 404 -10T296 -13Q207 -13 156 -4T79 32T46 110T39 245Q39 332 48 384T84 465T162 503T296 512Q314 512 329 511T355 509Q368 508 379 507V726H554V9ZM693 482H602L654 595H622V725H751V595L693 482Z"  />
<glyph unicode="&#x110;" horiz-adv-x="735" d="M482 326Q482 406 479 449T467 513T441 536T396 540H271V384H383V301H271V140H401Q428 140 444 143T469 163T479 218T482 326ZM682 329Q682 223 674 159T641 59T573 12T456 0H78V301H4V384H78V680H448Q517 680 562 668T633 619T671 513T682 329Z"  />
<glyph unicode="&#x111;" horiz-adv-x="638" d="M379 402Q369 402 358 403Q348 404 334 404T302 405Q273 405 257 403T233 386T222 340T220 250V241Q220 186 221 156T231 113T255 97T302 94Q319 94 333 94T358 96Q369 97 379 98V402ZM554 9Q525 2 485 -2Q451 -7 404 -10T296 -13Q207 -13 156 -4T79 32T46 110T39 245Q39 332 48 384T84 465T162 503T296 512Q314 512 329 511T355 509Q368 508 379 507V579H250V649H379V726H554V649H634V579H554V9Z"  />
<glyph unicode="&#x112;" horiz-adv-x="630" d="M63 0V680H581V551H256V406H553V288H256V130H586V0H63ZM163 753V843H485V753H163Z"  />
<glyph unicode="&#x113;" horiz-adv-x="603" d="M383 294Q383 338 381 362T371 397T346 410T302 412Q274 412 258 410T234 397T223 362T221 294H383ZM221 204Q221 162 222 139T232 104T257 90T306 86Q360 85 404 87T480 91Q518 94 548 97V9Q518 2 479 -2Q446 -7 400 -10T294 -13Q207 -13 156 -4T79 32T46 110T39 245Q39 332 48 384T85 465T164 503T302 512Q387 512 439 503T518 466T555 385T564 245V204H221ZM142 580V670H464V580H142Z"  />
<glyph unicode="&#x114;" horiz-adv-x="630" d="M63 0V680H581V551H256V406H553V288H256V130H586V0H63ZM483 921Q483 883 481 852T463 797T416 761T324 748Q264 748 232 761T185 797T168 851T165 921H248Q248 892 250 876T259 851T282 840T324 837Q350 837 365 839T388 850T398 875T400 921H483Z"  />
<glyph unicode="&#x115;" horiz-adv-x="603" d="M383 294Q383 338 381 362T371 397T346 410T302 412Q274 412 258 410T234 397T223 362T221 294H383ZM221 204Q221 162 222 139T232 104T257 90T306 86Q360 85 404 87T480 91Q518 94 548 97V9Q518 2 479 -2Q446 -7 400 -10T294 -13Q207 -13 156 -4T79 32T46 110T39 245Q39 332 48 384T85 465T164 503T302 512Q387 512 439 503T518 466T555 385T564 245V204H221ZM462 748Q462 710 460 679T442 624T395 588T303 575Q243 575 211 588T164 624T147 678T144 748H227Q227 719 229 703T238 678T261 667T303 664Q329 664 344 666T367 677T377 702T379 748H462Z"  />
<glyph unicode="&#x116;" horiz-adv-x="630" d="M63 0V680H581V551H256V406H553V288H256V130H586V0H63ZM236 753V899H411V753H236Z"  />
<glyph unicode="&#x117;" horiz-adv-x="603" d="M383 294Q383 338 381 362T371 397T346 410T302 412Q274 412 258 410T234 397T223 362T221 294H383ZM221 204Q221 162 222 139T232 104T257 90T306 86Q360 85 404 87T480 91Q518 94 548 97V9Q518 2 479 -2Q446 -7 400 -10T294 -13Q207 -13 156 -4T79 32T46 110T39 245Q39 332 48 384T85 465T164 503T302 512Q387 512 439 503T518 466T555 385T564 245V204H221ZM215 580V726H390V580H215Z"  />
<glyph unicode="&#x118;" horiz-adv-x="630" d="M572 -186Q560 -193 544 -197Q530 -202 511 -205T468 -208Q407 -208 384 -184T360 -108Q360 -85 364 -67T373 -35T383 -12T391 0H63V680H581V551H256V406H553V288H256V130H586V0H479Q476 -5 467 -23T457 -77Q457 -93 458 -102T465 -117T478 -124T500 -126Q532 -126 552 -123Q563 -122 572 -120V-186Z"  />
<glyph unicode="&#x119;" horiz-adv-x="603" d="M383 294Q383 338 381 362T371 397T346 410T302 412Q274 412 258 410T234 397T223 362T221 294H383ZM536 -186Q524 -193 508 -197Q494 -202 475 -205T432 -208Q371 -208 348 -184T324 -108Q324 -73 331 -49T347 -12Q334 -12 321 -12T294 -13Q207 -13 156 -4T79 32T46 110T39 245Q39 332 48 384T85 465T164 503T302 512Q387 512 439 503T518 466T555 385T564 245V204H221Q221 162 222 139T232 104T257 90T306 86Q360 85 404 87T480 91Q518 94 548 97V9Q535 7 518 4Q504 2 484 -1T438 -7Q433 -15 427 -32T421 -77Q421 -93 422 -102T428 -117T441 -124T464 -126Q496 -126 516 -123Q527 -122 536 -120V-186Z"  />
<glyph unicode="&#x11A;" horiz-adv-x="630" d="M63 0V680H581V551H256V406H553V288H256V130H586V0H63ZM401 753H247L142 921H255L324 816L392 921H506L401 753Z"  />
<glyph unicode="&#x11B;" horiz-adv-x="603" d="M383 294Q383 338 381 362T371 397T346 410T302 412Q274 412 258 410T234 397T223 362T221 294H383ZM221 204Q221 162 222 139T232 104T257 90T306 86Q360 85 404 87T480 91Q518 94 548 97V9Q518 2 479 -2Q446 -7 400 -10T294 -13Q207 -13 156 -4T79 32T46 110T39 245Q39 332 48 384T85 465T164 503T302 512Q387 512 439 503T518 466T555 385T564 245V204H221ZM380 580H226L121 748H234L303 643L371 748H485L380 580Z"  />
<glyph unicode="&#x11C;" horiz-adv-x="714" d="M657 9Q622 2 576 -2Q537 -7 481 -10T355 -13Q284 -13 235 -9T152 8T99 44T69 106T57 199T54 329Q54 449 63 521T104 631T194 681T352 693Q421 693 476 690T571 682Q617 678 651 672V555Q598 558 546 560Q501 562 452 563T364 562Q324 560 302 556T268 530T255 460T252 326Q252 248 254 206T266 144T298 121T358 117Q409 117 436 120Q452 121 464 123V288H360V406H657V9ZM429 753L361 857L292 753H179L284 921H438L543 753H429Z"  />
<glyph unicode="&#x11D;" horiz-adv-x="603" d="M379 400Q369 401 358 402Q348 403 334 404T302 405Q273 405 257 403T233 388T222 345T220 263V254Q220 204 221 177T231 138T255 123T302 121Q319 121 333 121T358 123Q369 124 379 125V400ZM554 -60Q554 -123 540 -159T495 -213T419 -235T309 -240Q252 -240 208 -237T131 -229Q94 -224 66 -217V-123Q95 -126 131 -128Q162 -130 204 -131T297 -132Q324 -132 340 -130T364 -120T376 -98T379 -60V19Q368 18 355 17Q344 16 329 16T296 15Q213 15 163 21T85 53T48 126T39 258Q39 345 50 395T91 472T170 505T296 512Q356 512 403 509T485 501Q525 496 554 490V-60ZM371 580L303 684L234 580H121L226 748H380L485 580H371Z"  />
<glyph unicode="&#x11E;" horiz-adv-x="714" d="M657 9Q622 2 576 -2Q537 -7 481 -10T355 -13Q284 -13 235 -9T152 8T99 44T69 106T57 199T54 329Q54 449 63 521T104 631T194 681T352 693Q421 693 476 690T571 682Q617 678 651 672V555Q598 558 546 560Q501 562 452 563T364 562Q324 560 302 556T268 530T255 460T252 326Q252 248 254 206T266 144T298 121T358 117Q409 117 436 120Q452 121 464 123V288H360V406H657V9ZM520 921Q520 883 518 852T500 797T453 761T361 748Q301 748 269 761T222 797T205 851T202 921H285Q285 892 287 876T296 851T319 840T361 837Q387 837 402 839T425 850T435 875T437 921H520Z"  />
<glyph unicode="&#x11F;" horiz-adv-x="603" d="M379 400Q369 401 358 402Q348 403 334 404T302 405Q273 405 257 403T233 388T222 345T220 263V254Q220 204 221 177T231 138T255 123T302 121Q319 121 333 121T358 123Q369 124 379 125V400ZM554 -60Q554 -123 540 -159T495 -213T419 -235T309 -240Q252 -240 208 -237T131 -229Q94 -224 66 -217V-123Q95 -126 131 -128Q162 -130 204 -131T297 -132Q324 -132 340 -130T364 -120T376 -98T379 -60V19Q368 18 355 17Q344 16 329 16T296 15Q213 15 163 21T85 53T48 126T39 258Q39 345 50 395T91 472T170 505T296 512Q356 512 403 509T485 501Q525 496 554 490V-60ZM462 748Q462 710 460 679T442 624T395 588T303 575Q243 575 211 588T164 624T147 678T144 748H227Q227 719 229 703T238 678T261 667T303 664Q329 664 344 666T367 677T377 702T379 748H462Z"  />
<glyph unicode="&#x120;" horiz-adv-x="714" d="M657 9Q622 2 576 -2Q537 -7 481 -10T355 -13Q284 -13 235 -9T152 8T99 44T69 106T57 199T54 329Q54 449 63 521T104 631T194 681T352 693Q421 693 476 690T571 682Q617 678 651 672V555Q598 558 546 560Q501 562 452 563T364 562Q324 560 302 556T268 530T255 460T252 326Q252 248 254 206T266 144T298 121T358 117Q409 117 436 120Q452 121 464 123V288H360V406H657V9ZM273 753V899H448V753H273Z"  />
<glyph unicode="&#x121;" horiz-adv-x="603" d="M379 400Q369 401 358 402Q348 403 334 404T302 405Q273 405 257 403T233 388T222 345T220 263V254Q220 204 221 177T231 138T255 123T302 121Q319 121 333 121T358 123Q369 124 379 125V400ZM554 -60Q554 -123 540 -159T495 -213T419 -235T309 -240Q252 -240 208 -237T131 -229Q94 -224 66 -217V-123Q95 -126 131 -128Q162 -130 204 -131T297 -132Q324 -132 340 -130T364 -120T376 -98T379 -60V19Q368 18 355 17Q344 16 329 16T296 15Q213 15 163 21T85 53T48 126T39 258Q39 345 50 395T91 472T170 505T296 512Q356 512 403 509T485 501Q525 496 554 490V-60ZM215 580V726H390V580H215Z"  />
<glyph unicode="&#x122;" horiz-adv-x="714" d="M657 9Q622 2 576 -2Q537 -7 481 -10T355 -13Q284 -13 235 -9T152 8T99 44T69 106T57 199T54 329Q54 449 63 521T104 631T194 681T352 693Q421 693 476 690T571 682Q617 678 651 672V555Q598 558 546 560Q501 562 452 563T364 562Q324 560 302 556T268 530T255 460T252 326Q252 248 254 206T266 144T298 121T358 117Q409 117 436 120Q452 121 464 123V288H360V406H657V9ZM368 -324H277L329 -211H297V-81H426V-211L368 -324Z"  />
<glyph unicode="&#x123;" horiz-adv-x="603" d="M379 400Q369 401 358 402Q348 403 334 404T302 405Q273 405 257 403T233 388T222 345T220 263V254Q220 204 221 177T231 138T255 123T302 121Q319 121 333 121T358 123Q369 124 379 125V400ZM554 -60Q554 -123 540 -159T495 -213T419 -235T309 -240Q252 -240 208 -237T131 -229Q94 -224 66 -217V-123Q95 -126 131 -128Q162 -130 204 -131T297 -132Q324 -132 340 -130T364 -120T376 -98T379 -60V19Q368 18 355 17Q344 16 329 16T296 15Q213 15 163 21T85 53T48 126T39 258Q39 345 50 395T91 472T170 505T296 512Q356 512 403 509T485 501Q525 496 554 490V-60ZM296 823H387L335 710H367V580H238V710L296 823Z"  />
<glyph unicode="&#x124;" horiz-adv-x="720" d="M464 0V277H256V0H63V680H256V417H464V680H657V0H464ZM429 753L361 857L292 753H179L284 921H438L543 753H429Z"  />
<glyph unicode="&#x125;" horiz-adv-x="603" d="M379 0V333Q379 360 375 374T361 396T338 404T302 405Q284 405 270 404T245 402Q234 401 225 400V0H49V726H225V507Q234 508 245 509Q255 510 269 511T302 512Q366 512 413 508T492 485T539 431T554 333V0H379ZM371 793L303 897L234 793H121L226 961H380L485 793H371Z"  />
<glyph unicode="&#x126;" horiz-adv-x="750" d="M478 417V502H271V417H478ZM478 0V277H271V0H78V502H4V583H78V680H271V583H478V680H672V583H746V502H672V0H478Z"  />
<glyph unicode="&#x127;" horiz-adv-x="638" d="M412 0V333Q412 360 408 374T394 396T371 404T335 405Q317 405 303 404T278 402Q267 401 258 400V0H83V579H4V649H83V726H258V649H387V579H258V507Q267 508 278 509Q288 510 302 511T335 512Q399 512 446 508T525 485T572 431T587 333V0H412Z"  />
<glyph unicode="&#x128;" horiz-adv-x="320" d="M63 0V680H256V0H63ZM361 913Q361 827 332 788T242 748Q212 748 189 760T146 788T111 815T80 828Q74 828 68 826T56 817T47 794T43 753H-40Q-40 839 -10 878T80 918Q110 918 133 906T175 878T210 851T242 838Q248 838 254 840T265 849T274 872T278 913H361Z"  />
<glyph unicode="&#x129;" horiz-adv-x="274" d="M49 0V499H225V0H49ZM338 740Q338 654 309 615T219 575Q189 575 166 587T123 615T88 642T57 655Q51 655 45 653T33 644T24 621T20 580H-63Q-63 666 -33 705T57 745Q87 745 110 733T152 705T187 678T219 665Q225 665 231 667T242 676T251 699T255 740H338Z"  />
<glyph unicode="&#x12A;" horiz-adv-x="320" d="M63 0V680H256V0H63ZM0 753V843H322V753H0Z"  />
<glyph unicode="&#x12B;" horiz-adv-x="274" d="M49 0V499H225V0H49ZM-23 580V670H299V580H-23Z"  />
<glyph unicode="&#x12E;" horiz-adv-x="320" d="M260 -186Q248 -193 232 -197Q218 -202 199 -205T156 -208Q95 -208 72 -184T48 -108Q48 -85 52 -67T61 -35T71 -12T79 0H63V680H256V0H167Q164 -5 155 -23T145 -77Q145 -93 146 -102T152 -117T165 -124T188 -126Q220 -126 240 -123Q251 -122 260 -120V-186Z"  />
<glyph unicode="&#x12F;" horiz-adv-x="274" d="M49 580V726H225V580H49ZM238 -186Q226 -193 210 -197Q196 -202 177 -205T134 -208Q73 -208 50 -184T26 -108Q26 -61 38 -34T57 0H49V499H225V0H145Q141 -5 132 -23T123 -77Q123 -93 124 -102T130 -117T143 -124T165 -126Q198 -126 218 -123Q229 -122 238 -120V-186Z"  />
<glyph unicode="&#x130;" horiz-adv-x="320" d="M63 0V680H256V0H63ZM73 753V899H248V753H73Z"  />
<glyph unicode="&#x131;" horiz-adv-x="274" d="M49 0V499H225V0H49Z"  />
<glyph unicode="&#x132;" horiz-adv-x="839" d="M775 227Q775 167 771 122T744 47T678 2T553 -13Q501 -13 461 -10T391 -2Q358 2 331 9V136Q348 134 370 132Q389 130 415 129T476 128Q509 128 530 130T562 142T578 172T582 227V680H775V227ZM63 0V680H256V0H63Z"  />
<glyph unicode="&#x133;" horiz-adv-x="583" d="M359 580V726H534V580H359ZM534 -60Q534 -113 524 -148T494 -203T441 -232T365 -240Q326 -240 295 -237T241 -229Q215 -224 196 -217V-128Q208 -130 222 -131Q234 -132 251 -132T290 -133Q311 -133 324 -131T345 -120T356 -98T359 -60V499H534V-60ZM49 580V726H225V580H49ZM49 0V499H225V0H49Z"  />
<glyph unicode="&#x134;" horiz-adv-x="531" d="M467 227Q467 167 463 122T436 47T370 2T245 -13Q193 -13 153 -10T83 -2Q50 2 23 9V136Q40 134 62 132Q81 130 107 129T168 128Q201 128 222 130T254 142T270 172T274 227V680H467V227ZM440 753L372 857L303 753H190L295 921H449L554 753H440Z"  />
<glyph unicode="&#x135;" horiz-adv-x="359" d="M309 -60Q309 -113 299 -148T269 -203T216 -232T140 -240Q101 -240 70 -237T16 -229Q-10 -224 -29 -217V-128Q-17 -130 -3 -131Q9 -132 26 -132T65 -133Q86 -133 99 -131T120 -120T131 -98T134 -60V499H309V-60ZM291 580L223 684L154 580H41L146 748H300L405 580H291Z"  />
<glyph unicode="&#x136;" horiz-adv-x="723" d="M483 0L329 277H256V0H63V680H256V417H329L477 680H695L499 347L705 0H483ZM368 -324H277L329 -211H297V-81H426V-211L368 -324Z"  />
<glyph unicode="&#x137;" horiz-adv-x="603" d="M389 0L278 201H225V0H49V726H225V307H278L386 499H581L438 254L588 0H389ZM310 -324H219L271 -211H239V-81H368V-211L310 -324Z"  />
<glyph unicode="&#x139;" horiz-adv-x="584" d="M63 0V680H256V140H561V0H63ZM207 753H83L188 921H318L207 753Z"  />
<glyph unicode="&#x13A;" horiz-adv-x="274" d="M49 0V726H225V0H49ZM184 793H60L165 961H295L184 793Z"  />
<glyph unicode="&#x13B;" horiz-adv-x="584" d="M63 0V680H256V140H561V0H63ZM321 -324H230L282 -211H250V-81H379V-211L321 -324Z"  />
<glyph unicode="&#x13C;" horiz-adv-x="274" d="M49 0V726H225V0H49ZM145 -324H54L106 -211H74V-81H203V-211L145 -324Z"  />
<glyph unicode="&#x13D;" horiz-adv-x="584" d="M63 0V680H256V140H561V0H63ZM419 438H328L380 551H348V681H477V551L419 438Z"  />
<glyph unicode="&#x13E;" horiz-adv-x="426" d="M49 0V726H225V0H49ZM366 482H275L327 595H295V725H424V595L366 482Z"  />
<glyph unicode="&#x13F;" horiz-adv-x="584" d="M63 0V680H256V140H561V0H63ZM379 280V426H554V280H379Z"  />
<glyph unicode="&#x140;" horiz-adv-x="430" d="M49 0V726H225V0H49ZM280 280V426H455V280H280Z"  />
<glyph unicode="&#x141;" horiz-adv-x="617" d="M94 0V245L4 208V297L94 334V680H287V415L477 495V405L287 326V140H592V0H94Z"  />
<glyph unicode="&#x142;" horiz-adv-x="366" d="M92 0V298L4 264V345L92 379V726H268V448L361 485V404L268 367V0H92Z"  />
<glyph unicode="&#x143;" horiz-adv-x="768" d="M440 0L238 494V0H63V680H328L530 187V680H704V0H440ZM432 753H308L413 921H543L432 753Z"  />
<glyph unicode="&#x144;" horiz-adv-x="603" d="M379 0V333Q379 360 375 374T361 396T338 404T302 405Q284 405 270 404T245 402Q234 401 225 400V0H49V490Q78 496 117 501Q150 505 196 508T302 512Q366 512 413 508T492 485T539 431T554 333V0H379ZM349 580H225L330 748H460L349 580Z"  />
<glyph unicode="&#x145;" horiz-adv-x="768" d="M440 0L238 494V0H63V680H328L530 187V680H704V0H440ZM393 -324H302L354 -211H322V-81H451V-211L393 -324Z"  />
<glyph unicode="&#x146;" horiz-adv-x="603" d="M379 0V333Q379 360 375 374T361 396T338 404T302 405Q284 405 270 404T245 402Q234 401 225 400V0H49V490Q78 496 117 501Q150 505 196 508T302 512Q366 512 413 508T492 485T539 431T554 333V0H379ZM310 -324H219L271 -211H239V-81H368V-211L310 -324Z"  />
<glyph unicode="&#x147;" horiz-adv-x="768" d="M440 0L238 494V0H63V680H328L530 187V680H704V0H440ZM463 753H309L204 921H317L386 816L454 921H568L463 753Z"  />
<glyph unicode="&#x148;" horiz-adv-x="603" d="M379 0V333Q379 360 375 374T361 396T338 404T302 405Q284 405 270 404T245 402Q234 401 225 400V0H49V490Q78 496 117 501Q150 505 196 508T302 512Q366 512 413 508T492 485T539 431T554 333V0H379ZM380 580H226L121 748H234L303 643L371 748H485L380 580Z"  />
<glyph unicode="&#x149;" horiz-adv-x="778" d="M379 0V333Q379 360 375 374T361 396T338 404T302 405Q284 405 270 404T245 402Q234 401 225 400V0H49V490Q78 496 117 501Q150 505 196 508T302 512Q366 512 413 508T492 485T539 431T554 333V0H379ZM113 435H22L74 548H42V678H171V548L113 435Z"  />
<glyph unicode="&#x14C;" horiz-adv-x="720" d="M467 338Q467 419 465 462T452 526T421 549T364 553H356Q320 553 299 550T268 526T255 463T252 338V329Q252 254 254 213T266 153T297 131T356 128H364Q402 128 423 131T453 153T465 213T467 329V338ZM667 333Q667 255 664 200T651 106T620 44T566 8T482 -9T360 -13Q289 -13 239 -9T154 7T100 43T70 105T57 199T54 333Q54 455 64 526T107 635T200 682T360 693Q459 693 519 683T613 635T656 527T667 333ZM200 753V843H522V753H200Z"  />
<glyph unicode="&#x14D;" horiz-adv-x="603" d="M383 250Q383 308 381 339T371 385T348 402T306 405H297Q270 405 255 403T232 386T222 340T220 250V241Q220 186 221 156T230 113T253 97T297 94H306Q334 94 349 96T372 112T381 156T383 241V250ZM564 245Q564 161 557 111T524 33T445 -4T302 -13Q211 -13 159 -4T80 32T46 110T39 245Q39 332 48 384T85 465T164 503T302 512Q387 512 439 503T518 466T555 385T564 245ZM142 580V670H464V580H142Z"  />
<glyph unicode="&#x14E;" horiz-adv-x="720" d="M467 338Q467 419 465 462T452 526T421 549T364 553H356Q320 553 299 550T268 526T255 463T252 338V329Q252 254 254 213T266 153T297 131T356 128H364Q402 128 423 131T453 153T465 213T467 329V338ZM667 333Q667 255 664 200T651 106T620 44T566 8T482 -9T360 -13Q289 -13 239 -9T154 7T100 43T70 105T57 199T54 333Q54 455 64 526T107 635T200 682T360 693Q459 693 519 683T613 635T656 527T667 333ZM520 921Q520 883 518 852T500 797T453 761T361 748Q301 748 269 761T222 797T205 851T202 921H285Q285 892 287 876T296 851T319 840T361 837Q387 837 402 839T425 850T435 875T437 921H520Z"  />
<glyph unicode="&#x14F;" horiz-adv-x="603" d="M383 250Q383 308 381 339T371 385T348 402T306 405H297Q270 405 255 403T232 386T222 340T220 250V241Q220 186 221 156T230 113T253 97T297 94H306Q334 94 349 96T372 112T381 156T383 241V250ZM564 245Q564 161 557 111T524 33T445 -4T302 -13Q211 -13 159 -4T80 32T46 110T39 245Q39 332 48 384T85 465T164 503T302 512Q387 512 439 503T518 466T555 385T564 245ZM462 748Q462 710 460 679T442 624T395 588T303 575Q243 575 211 588T164 624T147 678T144 748H227Q227 719 229 703T238 678T261 667T303 664Q329 664 344 666T367 677T377 702T379 748H462Z"  />
<glyph unicode="&#x150;" horiz-adv-x="720" d="M467 338Q467 419 465 462T452 526T421 549T364 553H356Q320 553 299 550T268 526T255 463T252 338V329Q252 254 254 213T266 153T297 131T356 128H364Q402 128 423 131T453 153T465 213T467 329V338ZM667 333Q667 255 664 200T651 106T620 44T566 8T482 -9T360 -13Q289 -13 239 -9T154 7T100 43T70 105T57 199T54 333Q54 455 64 526T107 635T200 682T360 693Q459 693 519 683T613 635T656 527T667 333ZM503 753H389L494 921H614L503 753ZM294 753H181L286 921H406L294 753Z"  />
<glyph unicode="&#x151;" horiz-adv-x="603" d="M383 250Q383 308 381 339T371 385T348 402T306 405H297Q270 405 255 403T232 386T222 340T220 250V241Q220 186 221 156T230 113T253 97T297 94H306Q334 94 349 96T372 112T381 156T383 241V250ZM564 245Q564 161 557 111T524 33T445 -4T302 -13Q211 -13 159 -4T80 32T46 110T39 245Q39 332 48 384T85 465T164 503T302 512Q387 512 439 503T518 466T555 385T564 245ZM445 580H331L436 748H556L445 580ZM236 580H123L228 748H348L236 580Z"  />
<glyph unicode="&#x152;" horiz-adv-x="974" d="M433 540H340Q311 540 294 537T268 513T255 450T252 326Q252 256 254 219T265 164T290 143T334 140H433V540ZM279 0Q207 0 163 11T94 58T62 158T54 329Q54 444 64 513T101 619T173 668T287 680H925V551H625V406H897V288H625V130H931V0H279Z"  />
<glyph unicode="&#x153;" horiz-adv-x="928" d="M707 294Q707 338 705 362T695 397T672 410T629 412Q602 412 587 410T563 397T553 362T551 294H707ZM376 250Q376 308 374 339T365 385T343 402T303 405H294Q269 405 254 403T232 386T222 340T220 250V241Q220 186 221 156T230 113T252 97T294 94H303Q329 94 344 96T366 112T374 156T376 241V250ZM551 204Q551 162 552 139T562 104T587 90T634 86Q687 85 730 87T805 91Q842 94 871 97V9Q842 2 804 -2Q772 -7 726 -10T621 -13Q565 -13 528 -8T464 11Q436 -3 397 -8T299 -13Q209 -13 158 -4T80 32T46 110T39 245Q39 332 48 384T84 465T163 503T299 512Q356 512 396 507T464 484Q491 501 531 506T629 512Q713 512 764 503T842 466T879 385T888 245V204H551Z"  />
<glyph unicode="&#x154;" horiz-adv-x="709" d="M452 463Q452 496 449 514T437 540T412 549T368 551H256V383H371Q398 383 414 384T438 392T449 416T452 463ZM465 0L390 253H256V0H63V680H418Q473 680 516 675T589 647T635 581T651 460Q651 374 632 331T573 270L675 0H465ZM400 753H276L381 921H511L400 753Z"  />
<glyph unicode="&#x155;" horiz-adv-x="440" d="M425 398Q412 399 394 401Q379 403 358 404T309 405Q289 405 274 404T247 402Q235 401 225 400V0H49V490Q71 496 100 501Q125 505 159 508T238 512Q281 512 316 509T375 501Q403 496 425 490V398ZM285 580H161L266 748H396L285 580Z"  />
<glyph unicode="&#x156;" horiz-adv-x="709" d="M452 463Q452 496 449 514T437 540T412 549T368 551H256V383H371Q398 383 414 384T438 392T449 416T452 463ZM465 0L390 253H256V0H63V680H418Q473 680 516 675T589 647T635 581T651 460Q651 374 632 331T573 270L675 0H465ZM361 -324H270L322 -211H290V-81H419V-211L361 -324Z"  />
<glyph unicode="&#x157;" horiz-adv-x="440" d="M425 398Q412 399 394 401Q379 403 358 404T309 405Q289 405 274 404T247 402Q235 401 225 400V0H49V490Q71 496 100 501Q125 505 159 508T238 512Q281 512 316 509T375 501Q403 496 425 490V398ZM145 -324H54L106 -211H74V-81H203V-211L145 -324Z"  />
<glyph unicode="&#x158;" horiz-adv-x="709" d="M452 463Q452 496 449 514T437 540T412 549T368 551H256V383H371Q398 383 414 384T438 392T449 416T452 463ZM465 0L390 253H256V0H63V680H418Q473 680 516 675T589 647T635 581T651 460Q651 374 632 331T573 270L675 0H465ZM431 753H277L172 921H285L354 816L422 921H536L431 753Z"  />
<glyph unicode="&#x159;" horiz-adv-x="440" d="M425 398Q412 399 394 401Q379 403 358 404T309 405Q289 405 274 404T247 402Q235 401 225 400V0H49V490Q71 496 100 501Q125 505 159 508T238 512Q281 512 316 509T375 501Q403 496 425 490V398ZM316 580H162L57 748H170L239 643L307 748H421L316 580Z"  />
<glyph unicode="&#x15A;" horiz-adv-x="622" d="M588 193Q588 121 572 80T523 18T438 -8T314 -13Q250 -13 199 -10T113 -2Q71 2 39 9V125Q62 123 93 121Q119 119 156 118T242 117Q291 117 320 118T364 126T384 148T389 191Q389 213 388 226T383 246T369 258T341 266L197 293Q138 303 107 321T61 364T44 422T41 495Q41 564 61 604T117 663T200 688T303 693Q363 693 411 690T493 682Q533 678 563 672V555Q541 557 512 559Q487 561 453 562T375 563Q330 563 304 562T263 555T244 536T240 498Q240 479 241 468T246 449T261 438T289 431L432 404Q490 393 522 375T568 331T585 271T588 193ZM355 753H231L336 921H466L355 753Z"  />
<glyph unicode="&#x15B;" horiz-adv-x="544" d="M513 141Q513 88 500 58T459 11T385 -9T274 -13Q218 -13 175 -10T100 -2Q64 2 36 9V95Q56 92 82 90Q105 88 136 87T208 85Q249 85 273 86T311 92T328 107T332 138Q332 154 332 163T328 179T316 187T294 192L172 209Q122 216 95 229T55 262T40 307T38 362Q38 413 55 443T104 488T175 508T263 512Q315 512 357 509T428 501Q462 496 488 490V404Q469 406 445 408Q425 410 396 411T331 412Q294 412 272 412T238 407T223 393T219 366Q219 352 219 344T223 330T235 323T257 318L379 300Q429 293 456 281T496 249T511 204T513 141ZM315 580H191L296 748H426L315 580Z"  />
<glyph unicode="&#x15C;" horiz-adv-x="622" d="M588 193Q588 121 572 80T523 18T438 -8T314 -13Q250 -13 199 -10T113 -2Q71 2 39 9V125Q62 123 93 121Q119 119 156 118T242 117Q291 117 320 118T364 126T384 148T389 191Q389 213 388 226T383 246T369 258T341 266L197 293Q138 303 107 321T61 364T44 422T41 495Q41 564 61 604T117 663T200 688T303 693Q363 693 411 690T493 682Q533 678 563 672V555Q541 557 512 559Q487 561 453 562T375 563Q330 563 304 562T263 555T244 536T240 498Q240 479 241 468T246 449T261 438T289 431L432 404Q490 393 522 375T568 331T585 271T588 193ZM377 753L309 857L240 753H127L232 921H386L491 753H377Z"  />
<glyph unicode="&#x15D;" horiz-adv-x="544" d="M513 141Q513 88 500 58T459 11T385 -9T274 -13Q218 -13 175 -10T100 -2Q64 2 36 9V95Q56 92 82 90Q105 88 136 87T208 85Q249 85 273 86T311 92T328 107T332 138Q332 154 332 163T328 179T316 187T294 192L172 209Q122 216 95 229T55 262T40 307T38 362Q38 413 55 443T104 488T175 508T263 512Q315 512 357 509T428 501Q462 496 488 490V404Q469 406 445 408Q425 410 396 411T331 412Q294 412 272 412T238 407T223 393T219 366Q219 352 219 344T223 330T235 323T257 318L379 300Q429 293 456 281T496 249T511 204T513 141ZM337 580L269 684L200 580H87L192 748H346L451 580H337Z"  />
<glyph unicode="&#x15E;" horiz-adv-x="622" d="M442 -142Q442 -169 437 -186T419 -214T384 -228T328 -232Q301 -232 280 -229T244 -222Q226 -218 213 -211V-162Q223 -164 235 -165Q256 -168 296 -168Q314 -168 324 -168T339 -165T345 -157T346 -142Q346 -123 344 -120T324 -117H250V-12Q200 -10 161 -7T95 0Q63 4 39 9V125Q62 123 93 121Q119 119 156 118T242 117Q291 117 320 118T364 126T384 148T389 191Q389 213 388 226T383 246T369 258T341 266L197 293Q138 303 107 321T61 364T44 422T41 495Q41 564 61 604T117 663T200 688T303 693Q363 693 411 690T493 682Q533 678 563 672V555Q541 557 512 559Q487 561 453 562T375 563Q330 563 304 562T263 555T244 536T240 498Q240 479 241 468T246 449T261 438T289 431L432 404Q490 393 522 375T568 331T585 271T588 193Q588 124 574 83T529 21T451 -6T338 -13V-52H361Q382 -52 397 -55T423 -68T437 -96T442 -142Z"  />
<glyph unicode="&#x15F;" horiz-adv-x="544" d="M402 -142Q402 -169 397 -186T379 -214T344 -228T288 -232Q261 -232 240 -229T204 -222Q186 -218 173 -211V-162Q183 -164 195 -165Q216 -168 256 -168Q274 -168 284 -168T299 -165T305 -157T306 -142Q306 -123 304 -120T284 -117H210V-11Q168 -9 137 -7T82 0Q56 4 36 9V95Q56 92 82 90Q105 88 136 87T208 85Q249 85 273 86T311 92T328 107T332 138Q332 154 332 163T328 179T316 187T294 192L172 209Q122 216 95 229T55 262T40 307T38 362Q38 413 55 443T104 488T175 508T263 512Q315 512 357 509T428 501Q462 496 488 490V404Q469 406 445 408Q425 410 396 411T331 412Q294 412 272 412T238 407T223 393T219 366Q219 352 219 344T223 330T235 323T257 318L379 300Q429 293 456 281T496 249T511 204T513 141Q513 91 501 61T464 15T397 -7T298 -13V-52H321Q342 -52 357 -55T383 -68T397 -96T402 -142Z"  />
<glyph unicode="&#x160;" horiz-adv-x="622" d="M588 193Q588 121 572 80T523 18T438 -8T314 -13Q250 -13 199 -10T113 -2Q71 2 39 9V125Q62 123 93 121Q119 119 156 118T242 117Q291 117 320 118T364 126T384 148T389 191Q389 213 388 226T383 246T369 258T341 266L197 293Q138 303 107 321T61 364T44 422T41 495Q41 564 61 604T117 663T200 688T303 693Q363 693 411 690T493 682Q533 678 563 672V555Q541 557 512 559Q487 561 453 562T375 563Q330 563 304 562T263 555T244 536T240 498Q240 479 241 468T246 449T261 438T289 431L432 404Q490 393 522 375T568 331T585 271T588 193ZM386 753H232L127 921H240L309 816L377 921H491L386 753Z"  />
<glyph unicode="&#x161;" horiz-adv-x="544" d="M513 141Q513 88 500 58T459 11T385 -9T274 -13Q218 -13 175 -10T100 -2Q64 2 36 9V95Q56 92 82 90Q105 88 136 87T208 85Q249 85 273 86T311 92T328 107T332 138Q332 154 332 163T328 179T316 187T294 192L172 209Q122 216 95 229T55 262T40 307T38 362Q38 413 55 443T104 488T175 508T263 512Q315 512 357 509T428 501Q462 496 488 490V404Q469 406 445 408Q425 410 396 411T331 412Q294 412 272 412T238 407T223 393T219 366Q219 352 219 344T223 330T235 323T257 318L379 300Q429 293 456 281T496 249T511 204T513 141ZM346 580H192L87 748H200L269 643L337 748H451L346 580Z"  />
<glyph unicode="&#x162;" horiz-adv-x="611" d="M313 -324H222L274 -211H242V-81H371V-211L313 -324ZM402 540V0H209V540H23V680H588V540H402Z"  />
<glyph unicode="&#x163;" horiz-adv-x="487" d="M292 -324H201L253 -211H221V-81H350V-211L292 -324ZM467 9Q445 2 418 -2Q395 -7 361 -10T285 -13Q236 -13 202 -5T146 23T114 77T104 166V392H18V499H104V669H279V499H442V392H279V166Q279 142 280 128T289 106T313 96T358 94Q409 94 438 97Q455 99 467 101V9Z"  />
<glyph unicode="&#x164;" horiz-adv-x="611" d="M402 540V0H209V540H23V680H588V540H402ZM384 753H230L125 921H238L307 816L375 921H489L384 753Z"  />
<glyph unicode="&#x165;" horiz-adv-x="627" d="M467 9Q445 2 418 -2Q395 -7 361 -10T285 -13Q236 -13 202 -5T146 23T114 77T104 166V392H18V499H104V669H279V499H442V392H279V166Q279 142 280 128T289 106T313 96T358 94Q409 94 438 97Q455 99 467 101V9ZM565 482H474L526 595H494V725H623V595L565 482Z"  />
<glyph unicode="&#x166;" horiz-adv-x="611" d="M402 540V358H533V275H402V0H209V275H77V358H209V540H23V680H588V540H402Z"  />
<glyph unicode="&#x167;" horiz-adv-x="487" d="M467 9Q445 2 418 -2Q395 -7 361 -10T285 -13Q236 -13 202 -5T146 23T114 77T104 166V217H24V288H104V392H18V499H104V669H279V499H442V392H279V288H407V217H279V166Q279 142 280 128T289 106T313 96T358 94Q409 94 438 97Q455 99 467 101V9Z"  />
<glyph unicode="&#x168;" horiz-adv-x="720" d="M657 227Q657 178 654 141T641 78T612 34T559 6T478 -9T360 -13Q291 -13 243 -9T161 5T109 33T79 77T66 141T63 227V680H256V227Q256 190 259 170T273 141T304 130T360 128Q394 128 415 129T446 140T460 170T464 227V680H657V227ZM561 913Q561 827 532 788T442 748Q412 748 389 760T346 788T311 815T280 828Q274 828 268 826T256 817T247 794T243 753H160Q160 839 190 878T280 918Q310 918 333 906T375 878T410 851T442 838Q448 838 454 840T465 849T474 872T478 913H561Z"  />
<glyph unicode="&#x169;" horiz-adv-x="603" d="M554 9Q525 2 486 -2Q453 -7 407 -10T302 -13Q225 -13 176 -8T99 17T60 71T49 166V499H225V166Q225 139 228 125T241 103T265 95T302 94Q319 94 333 94T358 96Q369 97 379 98V499H554V9ZM503 740Q503 654 474 615T384 575Q354 575 331 587T288 615T253 642T222 655Q216 655 210 653T198 644T189 621T185 580H102Q102 666 132 705T222 745Q252 745 275 733T317 705T352 678T384 665Q390 665 396 667T407 676T416 699T420 740H503Z"  />
<glyph unicode="&#x16A;" horiz-adv-x="720" d="M657 227Q657 178 654 141T641 78T612 34T559 6T478 -9T360 -13Q291 -13 243 -9T161 5T109 33T79 77T66 141T63 227V680H256V227Q256 190 259 170T273 141T304 130T360 128Q394 128 415 129T446 140T460 170T464 227V680H657V227ZM200 753V843H522V753H200Z"  />
<glyph unicode="&#x16B;" horiz-adv-x="603" d="M554 9Q525 2 486 -2Q453 -7 407 -10T302 -13Q225 -13 176 -8T99 17T60 71T49 166V499H225V166Q225 139 228 125T241 103T265 95T302 94Q319 94 333 94T358 96Q369 97 379 98V499H554V9ZM142 580V670H464V580H142Z"  />
<glyph unicode="&#x16C;" horiz-adv-x="720" d="M657 227Q657 178 654 141T641 78T612 34T559 6T478 -9T360 -13Q291 -13 243 -9T161 5T109 33T79 77T66 141T63 227V680H256V227Q256 190 259 170T273 141T304 130T360 128Q394 128 415 129T446 140T460 170T464 227V680H657V227ZM520 921Q520 883 518 852T500 797T453 761T361 748Q301 748 269 761T222 797T205 851T202 921H285Q285 892 287 876T296 851T319 840T361 837Q387 837 402 839T425 850T435 875T437 921H520Z"  />
<glyph unicode="&#x16D;" horiz-adv-x="603" d="M554 9Q525 2 486 -2Q453 -7 407 -10T302 -13Q225 -13 176 -8T99 17T60 71T49 166V499H225V166Q225 139 228 125T241 103T265 95T302 94Q319 94 333 94T358 96Q369 97 379 98V499H554V9ZM462 748Q462 710 460 679T442 624T395 588T303 575Q243 575 211 588T164 624T147 678T144 748H227Q227 719 229 703T238 678T261 667T303 664Q329 664 344 666T367 677T377 702T379 748H462Z"  />
<glyph unicode="&#x16E;" horiz-adv-x="720" d="M657 227Q657 178 654 141T641 78T612 34T559 6T478 -9T360 -13Q291 -13 243 -9T161 5T109 33T79 77T66 141T63 227V680H256V227Q256 190 259 170T273 141T304 130T360 128Q394 128 415 129T446 140T460 170T464 227V680H657V227ZM405 846Q405 861 405 868T400 880T386 884T361 885Q344 885 336 885T323 880T318 869T317 846Q317 833 317 826T322 816T335 812T361 811Q377 811 386 811T399 815T404 826T405 846ZM488 846Q488 814 484 795T467 766T429 752T361 748Q319 748 294 751T255 765T237 795T233 846Q233 879 238 899T258 930T297 944T361 948Q400 948 424 945T463 930T483 899T488 846Z"  />
<glyph unicode="&#x16F;" horiz-adv-x="603" d="M554 9Q525 2 486 -2Q453 -7 407 -10T302 -13Q225 -13 176 -8T99 17T60 71T49 166V499H225V166Q225 139 228 125T241 103T265 95T302 94Q319 94 333 94T358 96Q369 97 379 98V499H554V9ZM347 673Q347 688 347 695T342 707T328 711T303 712Q286 712 278 712T265 707T260 696T259 673Q259 660 259 653T264 643T277 639T303 638Q319 638 328 638T341 642T346 653T347 673ZM430 673Q430 641 426 622T409 593T371 579T303 575Q261 575 236 578T197 592T179 622T175 673Q175 706 180 726T200 757T239 771T303 775Q342 775 366 772T405 757T425 726T430 673Z"  />
<glyph unicode="&#x170;" horiz-adv-x="720" d="M657 227Q657 178 654 141T641 78T612 34T559 6T478 -9T360 -13Q291 -13 243 -9T161 5T109 33T79 77T66 141T63 227V680H256V227Q256 190 259 170T273 141T304 130T360 128Q394 128 415 129T446 140T460 170T464 227V680H657V227ZM503 753H389L494 921H614L503 753ZM294 753H181L286 921H406L294 753Z"  />
<glyph unicode="&#x171;" horiz-adv-x="603" d="M554 9Q525 2 486 -2Q453 -7 407 -10T302 -13Q225 -13 176 -8T99 17T60 71T49 166V499H225V166Q225 139 228 125T241 103T265 95T302 94Q319 94 333 94T358 96Q369 97 379 98V499H554V9ZM445 580H331L436 748H556L445 580ZM236 580H123L228 748H348L236 580Z"  />
<glyph unicode="&#x172;" horiz-adv-x="720" d="M464 -186Q452 -193 436 -197Q422 -202 403 -205T360 -208Q300 -208 277 -184T253 -108Q253 -72 261 -48T276 -11Q202 -7 160 6T96 46T69 117T63 227V680H256V227Q256 190 259 170T273 141T304 130T360 128Q394 128 415 129T446 140T460 170T464 227V680H657V227Q657 153 650 107T612 34T524 -3T363 -13Q358 -23 354 -38T349 -77Q349 -93 350 -102T357 -117T370 -124T392 -126Q424 -126 444 -123Q455 -122 464 -120V-186Z"  />
<glyph unicode="&#x173;" horiz-adv-x="603" d="M542 -186Q530 -193 514 -197Q500 -202 481 -205T438 -208Q377 -208 354 -184T330 -108Q330 -73 337 -49T353 -12Q340 -12 328 -12T302 -13Q225 -13 176 -8T99 17T60 71T49 166V499H225V166Q225 139 228 125T241 103T265 95T302 94Q319 94 333 94T358 96Q369 97 379 98V499H554V9Q541 7 524 4Q510 2 490 -1T444 -7Q439 -15 433 -32T426 -77Q426 -93 427 -102T434 -117T447 -124T469 -126Q502 -126 522 -123Q533 -122 542 -120V-186Z"  />
<glyph unicode="&#x174;" horiz-adv-x="987" d="M847 0H581L493 494L406 0H139L15 680H199L292 143L386 680H604L697 143L791 680H972L847 0ZM561 753L493 857L424 753H311L416 921H570L675 753H561Z"  />
<glyph unicode="&#x175;" horiz-adv-x="869" d="M753 0H503L434 358L366 0H114L15 499H183L255 109L329 499H543L615 109L687 499H853L753 0ZM502 580L434 684L365 580H252L357 748H511L616 580H502Z"  />
<glyph unicode="&#x176;" horiz-adv-x="673" d="M469 263H433V0H240V263H203L7 680H211L337 404L464 680H666L469 263ZM406 753L338 857L269 753H156L261 921H415L520 753H406Z"  />
<glyph unicode="&#x177;" horiz-adv-x="583" d="M416 -67Q399 -126 381 -160T341 -212T293 -235T236 -240Q194 -240 161 -237T104 -229Q77 -224 56 -217V-125Q69 -127 87 -129Q102 -131 124 -132T173 -133Q192 -133 204 -132T225 -122T240 -97T256 -49L270 0H150L11 499H193L294 109L396 499H575L416 -67ZM363 580L295 684L226 580H113L218 748H372L477 580H363Z"  />
<glyph unicode="&#x178;" horiz-adv-x="673" d="M469 263H433V0H240V263H203L7 680H211L337 404L464 680H666L469 263ZM380 753V880H524V753H380ZM152 753V880H296V753H152Z"  />
<glyph unicode="&#x179;" horiz-adv-x="615" d="M39 0V140L337 540H46V680H565V540L268 140H581V0H39ZM354 753H230L335 921H465L354 753Z"  />
<glyph unicode="&#x17A;" horiz-adv-x="540" d="M36 0V107L277 392H42V499H493V392L252 107H508V0H36ZM316 580H192L297 748H427L316 580Z"  />
<glyph unicode="&#x17B;" horiz-adv-x="615" d="M39 0V140L337 540H46V680H565V540L268 140H581V0H39ZM220 753V899H395V753H220Z"  />
<glyph unicode="&#x17C;" horiz-adv-x="540" d="M36 0V107L277 392H42V499H493V392L252 107H508V0H36ZM182 580V726H357V580H182Z"  />
<glyph unicode="&#x17D;" horiz-adv-x="615" d="M39 0V140L337 540H46V680H565V540L268 140H581V0H39ZM385 753H231L126 921H239L308 816L376 921H490L385 753Z"  />
<glyph unicode="&#x17E;" horiz-adv-x="540" d="M36 0V107L277 392H42V499H493V392L252 107H508V0H36ZM347 580H193L88 748H201L270 643L338 748H452L347 580Z"  />
<glyph unicode="&#x192;" horiz-adv-x="664" d="M638 625Q626 626 611 628Q598 630 580 631T538 632Q518 632 506 630T485 619T473 597T464 559L438 397H583V293H422L366 -60Q358 -113 344 -148T310 -203T261 -232T196 -240Q156 -240 125 -237T72 -229Q46 -224 26 -217V-126Q37 -128 51 -130Q75 -133 120 -133Q137 -133 148 -131T167 -120T180 -98T189 -60L244 293H118V397H261L287 559Q295 612 310 646T347 701T398 730T463 739Q504 739 536 736T591 727Q617 722 638 716V625Z"  />
<glyph unicode="&#x218;" horiz-adv-x="622" d="M588 193Q588 121 572 80T523 18T438 -8T314 -13Q250 -13 199 -10T113 -2Q71 2 39 9V125Q62 123 93 121Q119 119 156 118T242 117Q291 117 320 118T364 126T384 148T389 191Q389 213 388 226T383 246T369 258T341 266L197 293Q138 303 107 321T61 364T44 422T41 495Q41 564 61 604T117 663T200 688T303 693Q363 693 411 690T493 682Q533 678 563 672V555Q541 557 512 559Q487 561 453 562T375 563Q330 563 304 562T263 555T244 536T240 498Q240 479 241 468T246 449T261 438T289 431L432 404Q490 393 522 375T568 331T585 271T588 193ZM316 -324H225L277 -211H245V-81H374V-211L316 -324Z"  />
<glyph unicode="&#x219;" horiz-adv-x="544" d="M513 141Q513 88 500 58T459 11T385 -9T274 -13Q218 -13 175 -10T100 -2Q64 2 36 9V95Q56 92 82 90Q105 88 136 87T208 85Q249 85 273 86T311 92T328 107T332 138Q332 154 332 163T328 179T316 187T294 192L172 209Q122 216 95 229T55 262T40 307T38 362Q38 413 55 443T104 488T175 508T263 512Q315 512 357 509T428 501Q462 496 488 490V404Q469 406 445 408Q425 410 396 411T331 412Q294 412 272 412T238 407T223 393T219 366Q219 352 219 344T223 330T235 323T257 318L379 300Q429 293 456 281T496 249T511 204T513 141ZM276 -324H185L237 -211H205V-81H334V-211L276 -324Z"  />
<glyph unicode="&#x21A;" horiz-adv-x="611" d="M402 540V0H209V540H23V680H588V540H402ZM314 -324H223L275 -211H243V-81H372V-211L314 -324Z"  />
<glyph unicode="&#x21B;" horiz-adv-x="487" d="M467 9Q445 2 418 -2Q395 -7 361 -10T285 -13Q236 -13 202 -5T146 23T114 77T104 166V392H18V499H104V669H279V499H442V392H279V166Q279 142 280 128T289 106T313 96T358 94Q409 94 438 97Q455 99 467 101V9ZM293 -324H202L254 -211H222V-81H351V-211L293 -324Z"  />
<glyph unicode="&#x237;" horiz-adv-x="359" d="M309 -60Q309 -113 299 -148T269 -203T216 -232T140 -240Q101 -240 70 -237T16 -229Q-10 -224 -29 -217V-128Q-17 -130 -3 -131Q9 -132 26 -132T65 -133Q86 -133 99 -131T120 -120T131 -98T134 -60V499H309V-60Z"  />
<glyph unicode="&#x2C6;" horiz-adv-x="836" d="M486 580L418 684L349 580H236L341 748H495L600 580H486Z"  />
<glyph unicode="&#x2C7;" horiz-adv-x="836" d="M495 580H341L236 748H349L418 643L486 748H600L495 580Z"  />
<glyph unicode="&#x2C9;" horiz-adv-x="836" d="M257 580V670H579V580H257Z"  />
<glyph unicode="&#x2D8;" horiz-adv-x="836" d="M577 748Q577 710 575 679T557 624T510 588T418 575Q358 575 326 588T279 624T262 678T259 748H342Q342 719 344 703T353 678T376 667T418 664Q444 664 459 666T482 677T492 702T494 748H577Z"  />
<glyph unicode="&#x2D9;" horiz-adv-x="836" d="M330 580V726H505V580H330Z"  />
<glyph unicode="&#x2DA;" horiz-adv-x="836" d="M462 673Q462 688 462 695T457 707T443 711T418 712Q401 712 393 712T380 707T375 696T374 673Q374 660 374 653T379 643T392 639T418 638Q434 638 443 638T456 642T461 653T462 673ZM545 673Q545 641 541 622T524 593T486 579T418 575Q376 575 351 578T312 592T294 622T290 673Q290 706 295 726T315 757T354 771T418 775Q457 775 481 772T520 757T540 726T545 673Z"  />
<glyph unicode="&#x2DB;" horiz-adv-x="836" d="M522 -186Q510 -193 494 -197Q480 -202 461 -205T418 -208Q357 -208 334 -184T310 -108Q310 -80 315 -60T327 -25Q334 -9 344 3H432Q424 -6 419 -17Q414 -27 411 -42T407 -77Q407 -93 408 -102T414 -117T427 -124T450 -126Q482 -126 502 -123Q513 -122 522 -120V-186Z"  />
<glyph unicode="&#x2DC;" horiz-adv-x="836" d="M618 740Q618 654 589 615T499 575Q469 575 446 587T403 615T368 642T337 655Q331 655 325 653T313 644T304 621T300 580H217Q217 666 247 705T337 745Q367 745 390 733T432 705T467 678T499 665Q505 665 511 667T522 676T531 699T535 740H618Z"  />
<glyph unicode="&#x2DD;" horiz-adv-x="836" d="M560 580H446L551 748H671L560 580ZM351 580H238L343 748H463L351 580Z"  />
<glyph unicode="&#x394;" horiz-adv-x="733" d="M366 549L238 130H492L366 549ZM7 0L228 680H505L726 0H7Z"  />
<glyph unicode="&#x3A9;" horiz-adv-x="757" d="M412 0V130L468 223Q478 240 483 254T491 288T494 333T495 402Q495 462 492 495T477 543T443 560T383 563H374Q336 563 314 561T281 543T267 495T263 402Q263 360 263 333T266 287T274 254T289 223L345 130V0H63V130H155L114 197Q95 228 85 251T70 299T64 354T63 431Q63 524 76 577T125 655T222 687T379 693Q475 693 536 687T632 656T680 577T694 431Q694 385 693 355T688 300T673 252T643 197L602 130H694V0H412Z"  />
<glyph unicode="&#x3BC;" horiz-adv-x="603" d="M554 9Q525 2 486 -2Q453 -7 407 -10T302 -13Q284 -13 270 -13T245 -11Q234 -10 225 -8V-227H49V499H225V98Q234 97 245 96Q255 95 269 95T302 94Q319 94 333 94T358 96Q369 97 379 98V499H554V9Z"  />
<glyph unicode="&#x3C0;" horiz-adv-x="740" d="M622 392V0H447V392H294V0H118V392H18V499H723V392H622Z"  />
<glyph unicode="&#x2013;" horiz-adv-x="450" d="M0 242V347H450V242H0Z"  />
<glyph unicode="&#x2014;" horiz-adv-x="900" d="M180 242V347H720V242H180Z"  />
<glyph unicode="&#x2018;" horiz-adv-x="260" d="M169 590H211V434H49V590L119 726H231L169 590Z"  />
<glyph unicode="&#x2019;" horiz-adv-x="260" d="M141 434H30L92 569H49V726H211V569L141 434Z"  />
<glyph unicode="&#x201A;" horiz-adv-x="260" d="M141 -136H30L92 0H49V156H211V0L141 -136Z"  />
<glyph unicode="&#x201C;" horiz-adv-x="506" d="M415 590H457V434H295V590L365 726H477L415 590ZM169 590H211V434H49V590L119 726H231L169 590Z"  />
<glyph unicode="&#x201D;" horiz-adv-x="506" d="M387 434H276L338 569H295V726H457V569L387 434ZM141 434H30L92 569H49V726H211V569L141 434Z"  />
<glyph unicode="&#x201E;" horiz-adv-x="506" d="M387 -136H276L338 0H295V156H457V0L387 -136ZM141 -136H30L92 0H49V156H211V0L141 -136Z"  />
<glyph unicode="&#x2020;" horiz-adv-x="563" d="M361 369V-227H202V369H43V499H202V726H361V499H519V369H361Z"  />
<glyph unicode="&#x2021;" horiz-adv-x="563" d="M361 0V-227H202V0H43V129H202V369H43V499H202V726H361V499H519V369H361V129H519V0H361Z"  />
<glyph unicode="&#x2022;" horiz-adv-x="360" d="M316 340Q316 309 306 282T276 234T232 202T179 190Q151 190 127 202T84 234T55 281T44 340Q44 371 54 398T83 446T126 478T179 490Q207 490 232 479T276 447T305 399T316 340Z"  />
<glyph unicode="&#x2026;" horiz-adv-x="900" d="M662 0V168H838V0H662ZM362 0V168H538V0H362ZM62 0V168H238V0H62Z"  />
<glyph unicode="&#x2030;" horiz-adv-x="1407" d="M1259 209Q1259 259 1258 286T1251 326T1234 341T1204 343H1199Q1179 343 1168 341T1152 327T1146 287T1144 209V203Q1144 156 1145 131T1151 94T1167 80T1199 78H1204Q1224 78 1235 80T1251 93T1258 130T1259 203V209ZM1379 206Q1379 134 1374 92T1349 27T1295 -1T1201 -8Q1142 -8 1107 -2T1054 27T1030 91T1024 206Q1024 281 1031 325T1057 393T1110 422T1201 429Q1256 429 1291 423T1345 393T1372 326T1379 206ZM846 209Q846 259 845 286T838 326T822 341T792 343H787Q768 343 757 341T741 327T734 287T732 209V203Q732 156 733 131T739 94T755 80T787 78H792Q812 78 823 80T839 93T845 130T846 203V209ZM967 206Q967 134 962 92T938 27T884 -1T790 -8Q731 -8 696 -2T641 27T617 91T611 206Q611 281 618 325T644 393T699 422T790 429Q845 429 879 423T933 393T960 326T967 206ZM263 468Q263 518 262 545T255 585T239 600T208 602H203Q184 602 173 600T157 586T151 546T149 468V464Q149 417 150 392T156 354T172 340T203 338H208Q228 338 239 340T255 354T262 391T263 464V468ZM384 465Q384 393 379 351T354 287T300 259T206 252Q147 252 112 258T58 286T34 350T28 465Q28 540 35 584T61 652T115 681T206 688Q261 688 296 682T350 652T377 585T384 465ZM368 0H273L627 680H722L368 0Z"  />
<glyph unicode="&#x2039;" horiz-adv-x="324" d="M150 22L21 250L150 477H303L179 250L303 22H150Z"  />
<glyph unicode="&#x203A;" horiz-adv-x="324" d="M174 22H21L145 250L21 477H174L303 250L174 22Z"  />
<glyph unicode="&#x2044;" horiz-adv-x="172" d="M-44 0H-138L216 680H309L-44 0Z"  />
<glyph unicode="&#x20AC;" horiz-adv-x="664" d="M605 9Q575 2 537 -2Q504 -7 458 -10T353 -13Q277 -13 230 -2T155 37T116 115T102 239H39V309H101V371H39V441H103Q107 517 120 566T162 643T235 682T350 693Q407 693 453 690T532 682Q570 678 600 672V560Q560 563 521 565Q488 567 450 568T382 568Q356 566 339 564T312 549T298 512T293 441H573V371H292V309H573V239H293Q293 193 296 169T309 132T337 117T384 113Q414 111 452 112T525 115Q565 117 605 120V9Z"  />
<glyph unicode="&#x2113;" horiz-adv-x="405" d="M387 9Q367 2 341 -2Q319 -7 288 -10T218 -13Q174 -13 142 -5T90 23T59 78T49 166V726H225V166Q225 143 228 129T238 107T259 97T293 94Q314 94 331 94T361 96Q375 97 387 98V9Z"  />
<glyph unicode="&#x2122;" horiz-adv-x="684" d="M571 373V577L518 373H434L381 577V373H298V680H422L477 468L532 680H656V373H571ZM183 612V373H92V612H10V680H266V612H183Z"  />
<glyph unicode="&#x2126;" horiz-adv-x="757" d="M412 0V130L468 223Q478 240 483 254T491 288T494 333T495 402Q495 462 492 495T477 543T443 560T383 563H374Q336 563 314 561T281 543T267 495T263 402Q263 360 263 333T266 287T274 254T289 223L345 130V0H63V130H155L114 197Q95 228 85 251T70 299T64 354T63 431Q63 524 76 577T125 655T222 687T379 693Q475 693 536 687T632 656T680 577T694 431Q694 385 693 355T688 300T673 252T643 197L602 130H694V0H412Z"  />
<glyph unicode="&#x212E;" horiz-adv-x="788" d="M590 558Q568 583 538 603Q512 620 476 634T394 648Q347 648 311 634T249 603Q219 583 198 558V363H590V558ZM747 340Q747 335 747 331T746 324V318H198V122Q219 96 249 77Q274 60 310 46T394 32Q440 32 476 46T538 77Q568 96 590 122H672Q643 84 602 54Q567 28 515 7T394 -14Q321 -14 257 14T144 90T69 202T41 340Q41 413 68 477T144 590T256 666T394 694Q467 694 531 666T644 590T719 478T747 340Z"  />
<glyph unicode="&#x2202;" horiz-adv-x="531" d="M357 236Q357 290 355 319T344 361T318 377T269 380H261Q231 380 214 378T187 362T176 319T174 236V227Q174 176 175 149T185 109T211 94T261 92H269Q301 92 319 94T345 109T355 149T357 227V236ZM491 231Q491 153 484 105T454 31T386 -4T266 -13Q190 -13 145 -5T77 30T46 105T39 231Q39 313 48 362T82 439T151 475T266 484Q284 484 298 484T322 482Q333 481 342 480Q340 520 332 563T313 643Q302 685 288 726H388Q416 673 439 600Q459 537 475 445T491 231Z"  />
<glyph unicode="&#x2206;" horiz-adv-x="653" d="M326 552L196 127H456L326 552ZM13 0L234 680H418L639 0H13Z"  />
<glyph unicode="&#x220F;" horiz-adv-x="670" d="M471 -91V543H199V-91H63V680H606V-91H471Z"  />
<glyph unicode="&#x2211;" horiz-adv-x="633" d="M54 -91V36L264 298L59 554V680H573V553H241L446 298L235 37H580V-91H54Z"  />
<glyph unicode="&#x2212;" horiz-adv-x="572" d="M44 242V347H530V242H44Z"  />
<glyph unicode="&#x2215;" horiz-adv-x="358" d="M115 -36H7L242 703H351L115 -36Z"  />
<glyph unicode="&#x2219;" horiz-adv-x="266" d="M64 211V379H200V211H64Z"  />
<glyph unicode="&#x221A;" horiz-adv-x="632" d="M595 786L387 -74H211L135 242H44V347H231L300 60L501 890H686V786H595Z"  />
<glyph unicode="&#x221E;" horiz-adv-x="779" d="M633 294Q633 339 611 365T550 391Q521 391 501 376T466 342Q450 321 440 294Q450 267 466 246Q480 228 500 214T550 199Q588 199 610 224T633 294ZM339 294Q329 321 313 342Q299 360 279 375T229 391Q190 391 169 365T148 294Q148 249 169 224T229 199Q258 199 278 213T313 246Q329 267 339 294ZM736 294Q736 249 723 212T687 149T630 109T556 94Q512 94 481 109T429 143Q405 164 389 192Q374 164 350 143Q330 124 299 109T225 94Q184 94 151 108T94 149T57 212T44 294Q44 386 93 440T225 495Q268 495 299 480T350 446Q374 425 389 398Q405 425 429 446Q449 464 480 479T556 495Q596 495 629 481T686 440T723 377T736 294Z"  />
<glyph unicode="&#x222B;" horiz-adv-x="479" d="M436 656Q427 657 416 659Q406 660 392 661T361 662Q346 662 336 661T319 652T310 629T307 587V2Q307 -89 279 -133T175 -177Q144 -177 120 -174T79 -166Q59 -162 44 -155V-66Q53 -68 64 -69Q83 -72 118 -72Q134 -72 144 -71T161 -62T169 -39T172 2V587Q172 679 200 723T304 767Q335 767 359 764T401 756Q421 751 436 745V656Z"  />
<glyph unicode="&#x2248;" horiz-adv-x="572" d="M530 175Q515 156 497 142Q481 130 459 120T407 110Q379 110 349 120T287 142T224 165T165 175Q136 175 114 165T76 142Q58 127 44 109V214Q58 232 76 247Q92 259 114 269T165 280Q193 280 224 270T286 247T348 225T407 214Q436 214 458 224T497 247Q515 262 530 281V175ZM530 375Q515 356 497 342Q481 330 459 320T407 310Q379 310 349 320T287 342T224 365T165 375Q136 375 114 365T76 342Q58 327 44 309V414Q58 432 76 447Q92 459 114 469T165 480Q193 480 224 470T286 447T348 425T407 414Q436 414 458 424T497 447Q515 462 530 481V375Z"  />
<glyph unicode="&#x2260;" horiz-adv-x="572" d="M285 142L249 17H160L196 142H44V247H228L255 343H44V447H286L323 572H412L375 447H530V343H345L317 247H530V142H285Z"  />
<glyph unicode="&#x2264;" horiz-adv-x="572" d="M44 14V118H530V14H44ZM44 318V423L530 581V468L236 370L530 271V161L44 318Z"  />
<glyph unicode="&#x2265;" horiz-adv-x="572" d="M44 14V118H530V14H44ZM44 161V271L336 370L44 468V581L530 423V318L44 161Z"  />
<glyph unicode="&#x25CA;" horiz-adv-x="572" d="M286 569L116 294L286 20L457 294L286 569ZM286 -129L22 294L286 718L550 294L286 -129Z"  />
<glyph unicode="&#xF6C3;" horiz-adv-x="836" d="M425 -324H334L386 -211H354V-81H483V-211L425 -324Z"  />
<glyph unicode="&#xFB01;" horiz-adv-x="746" d="M520 580V726H696V580H520ZM520 0V499H696V0H520ZM467 624Q455 626 438 628Q424 630 404 631T358 632Q329 632 313 630T290 621T281 599T279 559V499H442V392H279V0H104V392H18V499H104V559Q104 612 115 646T149 701T206 730T285 739Q327 739 361 736T418 727Q445 722 467 716V624Z"  />
<glyph unicode="&#xFB02;" horiz-adv-x="746" d="M520 0V726H696V0H520ZM467 624Q455 626 438 628Q424 630 404 631T358 632Q329 632 313 630T290 621T281 599T279 559V499H442V392H279V0H104V392H18V499H104V559Q104 612 115 646T149 701T206 730T285 739Q327 739 361 736T418 727Q445 722 467 716V624Z"  />

</font>
</defs>
</svg>
