<?xml  version="1.0" encoding="UTF-8"?>
<!DOCTYPE svg PUBLIC "-//W3C//DTD SVG 1.0//EN" "http://www.w3.org/TR/2001/REC-SVG-20010904/DTD/svg10.dtd" >
<svg xmlns="http://www.w3.org/2000/svg" >
<metadata>
<version>1.0</version>
<id><![CDATA[Oron W26 Text Light]]></id>
<vendor>Monotype Imaging Inc.</vendor>
<credits>
<name>Fonts.com WebFonts</name>
<URL>http://webfonts.fonts.com</URL>
<role>Home of the Web fonts</role>
</credits>
<license>
<URL>http://webfonts.fonts.com/Legal</URL>
</license>
<copyright><![CDATA[Masterfont Studio Rosenberg 2003 (C) version 1.0]]></copyright>
<trademark></trademark>
<licensee>
<name></name>
</licensee>
</metadata>
<defs >
<font horiz-adv-x="460" id="8f9db1e5-c342-4fec-aa01-042cc2e7e05d">
<font-face font-family="" panose-1="0 0 4 0 0 0 0 0 0 0" ascent="800" descent="-293" units-per-em="1000" alphabetic="0">
</font-face>
<missing-glyph horiz-adv-x="500" d="M63 0V800H438V0H63ZM125 63H375V738H125V63Z"  />

<glyph unicode="&#xA;" />
<glyph unicode="&#xD;" />
<glyph unicode=" " horiz-adv-x="282" />
<glyph unicode="!" horiz-adv-x="261" d="M171 566Q171 521 161 432T151 298Q151 292 152 281Q152 269 152 263Q152 202 125 202Q97 202 97 263Q97 269 98 281Q98 292 98 298Q98 356 80 537Q78 557 78 566Q78 590 90 610T125 631Q171 631 171 566ZM179 58Q179 32 157 14T108 -5Q91 -5 80 9T68 41Q68 65 87 83T132 101Q150 101 164 89T179 58Z"  />
<glyph unicode="&quot;" horiz-adv-x="356" d="M302 519Q302 473 260 417Q227 373 204 373Q195 373 195 382Q195 391 213 414T232 454Q232 467 214 484T196 515Q196 540 214 559T257 578Q278 578 290 560T302 519ZM162 519Q162 473 120 417Q87 373 64 373Q54 373 54 382Q54 390 73 413T92 454Q92 467 74 484T56 515Q56 539 74 558T116 578Q137 578 149 560T162 519Z"  />
<glyph unicode="#" horiz-adv-x="531" d="M459 364Q459 333 437 333H372L338 152H407Q418 152 418 140Q418 108 397 108H330L314 29Q311 12 283 12Q270 12 270 22Q270 40 276 65Q282 87 287 108H160L144 29Q141 12 113 12Q99 12 99 22Q99 40 105 65Q116 108 116 108H54Q43 108 43 120Q43 152 65 152H124L157 333H93Q83 333 83 344Q83 376 105 376H165L181 455Q184 472 211 472Q226 472 226 461Q226 444 219 418Q209 381 208 376H335L352 455Q356 473 381 473Q397 473 397 461Q397 444 391 418Q380 378 380 376H448Q459 376 459 364ZM327 333H200L168 152H295L327 333Z"  />
<glyph unicode="$" horiz-adv-x="533" d="M457 93Q457 34 398 -6Q346 -42 284 -42Q285 -49 285 -55Q285 -92 267 -92Q248 -92 248 -57Q248 -54 249 -42Q183 -42 128 -8Q64 30 64 92Q64 110 75 126T103 142Q139 142 139 88Q139 55 178 28Q213 4 248 3V209Q161 243 133 263Q73 305 73 368Q73 427 133 467Q186 502 249 502Q248 548 248 552Q248 589 266 589Q286 589 286 547Q286 528 284 501Q345 501 395 467Q450 428 450 370Q450 320 415 320Q381 320 381 375Q381 406 350 430T285 455V250Q376 213 399 197Q457 157 457 93ZM248 272V456Q210 456 180 430T149 367Q149 306 248 272ZM378 94Q378 128 347 156Q321 179 284 191V5Q319 6 348 32T378 94Z"  />
<glyph unicode="%" horiz-adv-x="682" d="M547 582Q547 579 545 575L181 -68Q175 -79 151 -79Q134 -79 134 -69Q134 -66 136 -62L500 581Q506 592 527 592H528Q547 592 547 582ZM598 95Q598 44 568 4Q535 -41 486 -41Q435 -41 405 -4T374 85Q374 136 404 176Q436 220 485 220Q536 220 567 184T598 95ZM292 400Q292 349 262 309Q229 264 180 264Q129 264 98 302Q68 337 68 389Q68 440 98 480Q131 525 180 525Q231 525 261 489T292 400ZM572 98Q572 130 546 152T486 175Q451 175 425 147T399 82Q399 50 425 27T485 4Q520 4 546 33T572 98ZM267 403Q267 435 241 457T181 480Q146 480 120 452T93 387Q93 354 120 332T180 309Q215 309 241 338T267 403Z"  />
<glyph unicode="&apos;" horiz-adv-x="212" d="M162 520Q162 474 120 418Q87 374 64 374Q54 374 54 383Q54 391 73 414T92 455Q92 468 74 485T56 516Q56 540 74 559T116 579Q137 579 149 561T162 520Z"  />
<glyph unicode="(" horiz-adv-x="290" d="M250 -69Q250 -92 224 -92Q189 -92 160 -73Q135 -57 105 10Q81 64 70 108Q48 194 48 315Q48 430 95 542Q110 579 140 627Q179 692 198 692Q214 692 214 672Q214 654 185 617Q91 496 91 315Q91 228 119 144Q150 54 204 -6Q250 -57 250 -69Z"  />
<glyph unicode=")" horiz-adv-x="293" d="M245 273Q245 158 198 46Q183 9 153 -39Q114 -104 95 -104Q79 -104 79 -84Q79 -66 108 -29Q202 92 202 273Q202 360 174 444Q143 534 89 594Q43 645 43 657Q43 680 69 680Q104 680 133 661Q158 645 188 578Q212 524 223 480Q245 394 245 273Z"  />
<glyph unicode="*" horiz-adv-x="403" d="M303 506Q303 484 275 469Q251 455 228 455Q217 455 217 461Q217 465 229 470Q237 472 245 476T260 504Q265 525 284 525Q303 525 303 506ZM205 533Q205 520 200 501Q194 477 186 477Q181 477 181 483Q181 487 182 496T184 509Q184 519 171 532T158 555Q158 577 178 577Q205 577 205 533ZM311 387Q311 367 286 367Q269 367 244 384T218 418Q218 423 223 423Q230 423 239 413T256 403Q261 403 271 406T286 410Q311 410 311 387ZM154 461Q154 456 149 456Q142 456 133 466T115 476Q110 476 100 473T85 469Q60 469 60 492Q60 512 85 512Q102 512 128 495T154 461ZM214 324Q214 302 194 302Q166 302 166 346Q166 358 171 378Q178 402 186 402Q190 402 190 396Q190 392 189 383T187 370Q187 360 200 347T214 324ZM154 418Q154 413 145 410T127 402T112 374Q106 354 88 354Q68 354 68 373Q68 394 96 410Q120 424 143 424Q154 424 154 418Z"  />
<glyph unicode="+" horiz-adv-x="380" d="M321 259Q321 220 295 220H215V140Q215 128 202 121T174 114Q164 114 164 125V220H72Q60 220 60 231Q60 270 86 270H164L165 348Q165 375 204 375Q215 375 215 363V270H310Q321 270 321 259Z"  />
<glyph unicode="&#x2c;" horiz-adv-x="212" d="M162 11Q162 -35 120 -91Q87 -135 64 -135Q54 -135 54 -126Q54 -118 73 -95T92 -54Q92 -41 74 -24T56 7Q56 31 74 50T116 70Q137 70 149 52T162 11Z"  />
<glyph unicode="-" horiz-adv-x="380" d="M321 259Q321 220 295 220H72Q60 220 60 231Q60 270 86 270H310Q321 270 321 259Z"  />
<glyph unicode="." horiz-adv-x="215" d="M165 57Q165 31 143 13T94 -6Q77 -6 66 8T54 40Q54 64 73 82T118 100Q136 100 150 88T165 57Z"  />
<glyph unicode="/" horiz-adv-x="418" d="M350 687Q350 658 328 593Q312 546 295 498L141 -1Q135 -28 117 -80Q107 -103 87 -103Q68 -103 68 -91Q68 -86 73 -72Q138 114 277 589Q284 616 301 669Q308 688 313 692T337 697Q350 697 350 687Z"  />
<glyph unicode="0" horiz-adv-x="476" d="M425 242Q425 144 381 74Q330 -9 238 -9Q147 -9 94 85Q51 163 51 262Q51 360 95 430Q146 513 238 513Q329 513 382 419Q425 341 425 242ZM394 235Q394 306 352 363Q305 425 237 425Q167 425 125 382T82 269Q82 195 122 140Q167 79 239 79Q308 79 351 122T394 235Z"  />
<glyph unicode="1" horiz-adv-x="476" d="M368 53Q368 34 357 17T328 0H139Q108 0 108 25Q108 35 113 49Q124 79 142 79H218V362Q218 397 198 397Q184 397 167 375T136 352Q123 352 123 375Q123 407 159 454T225 502Q276 502 276 396Q276 388 276 376Q275 364 275 360V79H337Q368 79 368 53Z"  />
<glyph unicode="2" horiz-adv-x="476" d="M402 354Q402 275 331 229Q265 198 199 167Q128 132 129 79H366Q396 79 396 54Q396 36 388 20Q379 0 362 0H111Q73 0 73 58Q73 64 74 76Q74 87 74 93Q74 147 146 191Q213 224 281 258Q353 297 353 342Q353 389 311 413Q277 434 227 434Q193 434 160 413Q137 399 114 375Q95 354 95 354Q80 354 80 377Q80 397 93 422Q112 458 148 480T226 502Q297 502 347 465Q402 423 402 354Z"  />
<glyph unicode="3" horiz-adv-x="476" d="M420 141Q420 62 353 7Q290 -44 209 -44Q162 -44 115 -25Q56 -2 56 38Q56 66 95 66Q119 66 164 46T235 26Q285 26 325 56T366 136Q366 179 321 205Q284 226 237 226Q228 226 210 223T182 220Q159 220 159 233Q159 243 201 262Q260 289 280 303Q322 331 322 364Q322 400 289 421Q260 438 222 438Q190 438 154 416Q129 402 101 376Q77 354 76 354Q64 354 64 377Q64 398 78 422Q99 459 139 480T223 502Q282 502 327 473Q378 439 378 383Q378 347 354 317T294 274Q345 273 382 233T420 141Z"  />
<glyph unicode="4" horiz-adv-x="476" d="M423 159Q423 112 368 112Q365 112 354 113Q354 113 354 14V12Q354 -39 338 -39Q311 -39 311 -5Q311 11 316 114H78Q53 114 53 174Q53 296 141 400Q175 440 222 468Q275 500 321 500Q335 500 345 491T355 467V189H369H371Q423 189 423 159ZM311 189V390Q311 413 288 413Q202 413 150 342Q103 278 103 189H311Z"  />
<glyph unicode="5" horiz-adv-x="476" d="M421 136Q421 59 353 6Q290 -43 211 -43Q167 -43 117 -23Q55 2 55 38Q55 66 98 66Q110 66 145 49Q193 26 239 26Q290 26 328 55T367 134Q367 189 322 222Q282 252 225 252Q206 252 171 242T116 232Q103 232 103 248Q103 249 105 262Q109 287 109 329V331Q109 384 102 413Q93 451 93 457Q93 484 136 484H383Q414 484 414 459Q414 441 406 425Q396 406 380 406H147Q149 386 149 342Q149 302 145 281Q188 305 241 305Q315 305 368 257T421 136Z"  />
<glyph unicode="6" horiz-adv-x="476" d="M440 138Q440 63 383 13T250 -38Q36 -38 36 233Q36 335 106 416Q179 501 280 501Q362 501 362 456Q362 420 307 420Q301 420 289 421T270 422Q189 422 132 370Q72 317 72 237Q72 147 116 98Q162 45 250 45Q307 45 352 67Q409 95 409 146Q409 193 361 221Q321 244 270 244Q213 244 141 172Q126 174 126 189Q126 201 139 222Q194 308 276 308Q352 308 396 261T440 138Z"  />
<glyph unicode="7" horiz-adv-x="476" d="M428 458Q428 417 393 373Q361 338 329 303Q251 209 243 86Q242 63 240 41Q237 15 225 -1Q216 -13 198 -25T168 -38Q151 -38 151 -14Q151 67 226 207Q289 323 358 406H79Q48 406 48 431Q48 449 57 466T83 484H388Q428 484 428 458Z"  />
<glyph unicode="8" horiz-adv-x="476" d="M447 125Q447 47 380 1Q321 -39 239 -39Q159 -39 98 0Q29 45 29 121Q29 165 58 203T131 241Q147 241 147 225Q147 224 123 196T99 129V119Q99 66 141 33T237 0Q293 0 332 32Q375 66 375 121Q375 195 295 235Q221 264 147 292Q67 328 67 393Q67 447 128 477Q176 500 237 500Q300 500 347 478Q409 450 409 394Q409 364 385 339T330 314Q316 314 316 328Q316 337 331 356T347 390Q347 463 237 463Q198 463 169 447Q133 428 133 392Q133 342 251 295Q349 256 378 237Q447 191 447 125Z"  />
<glyph unicode="9" horiz-adv-x="476" d="M440 230Q440 128 370 47Q297 -38 196 -38Q114 -38 114 7Q114 43 169 43Q175 43 187 42T206 41Q287 41 345 93T404 226Q404 310 351 364T214 418Q160 418 118 395Q67 367 67 317Q67 269 115 242Q154 219 206 219Q263 219 335 291Q350 289 350 274Q350 261 337 241Q282 155 200 155Q122 155 78 206Q36 254 36 333Q36 405 89 453T214 501Q328 501 388 420Q440 349 440 230Z"  />
<glyph unicode=":" horiz-adv-x="228" d="M154 321Q154 295 132 277T83 258Q66 258 55 272T43 304Q43 328 62 346T107 364Q125 364 139 352T154 321ZM154 83Q154 57 132 39T83 20Q66 20 55 34T43 66Q43 90 62 108T107 126Q125 126 139 114T154 83Z"  />
<glyph unicode=";" horiz-adv-x="229" d="M154 321Q154 295 132 277T83 258Q66 258 55 272T43 304Q43 329 62 347T107 365Q125 365 139 352T154 321ZM155 50Q155 6 112 -51Q79 -95 57 -95Q47 -95 47 -86Q47 -78 65 -55T84 -14Q84 -1 66 16T48 47Q48 72 66 91T109 110Q130 110 142 91T155 50Z"  />
<glyph unicode="&lt;" horiz-adv-x="383" d="M333 129Q333 120 324 113T304 105Q299 105 295 107L62 230Q56 233 56 240Q56 244 61 249T183 316T305 377Q314 377 323 369T333 352Q333 346 327 343L130 242L327 138Q333 135 333 129Z"  />
<glyph unicode="=" horiz-adv-x="380" d="M309 315Q309 276 283 276H82Q71 276 71 287Q71 326 97 326H298Q309 326 309 315ZM309 197Q309 157 283 157H82Q71 157 71 168Q71 207 97 207H298Q309 207 309 197Z"  />
<glyph unicode="&gt;" horiz-adv-x="383" d="M327 242Q327 238 323 234Q316 227 200 166T78 105Q69 105 60 113T50 130Q50 136 56 139L254 240L56 344Q50 347 50 353Q50 362 60 369T80 377Q85 377 89 375L321 252Q327 249 327 242Z"  />
<glyph unicode="?" horiz-adv-x="531" d="M453 502Q453 448 403 405Q389 392 310 344Q260 313 260 288Q260 283 261 272Q261 260 261 255Q261 202 234 202Q216 202 206 225Q199 242 199 263Q199 324 244 362Q285 390 326 417Q371 449 371 496Q371 535 327 559Q290 580 247 580Q213 580 171 561Q122 538 122 508Q122 486 113 469Q103 448 83 448Q66 448 54 463T42 495Q42 563 115 601Q174 632 249 632Q317 632 378 601Q453 563 453 502ZM291 62Q291 36 270 18T221 -1Q204 -1 193 13T181 45Q181 69 200 87T244 105Q262 105 276 93T291 62Z"  />
<glyph unicode="@" horiz-adv-x="759" d="M699 350Q699 258 647 201Q591 140 495 140Q404 140 390 195Q332 146 282 146Q242 146 217 172Q187 202 187 262Q187 349 234 419Q287 496 366 496Q422 496 450 462L456 484H533L470 229Q468 221 468 216Q468 178 517 178Q567 178 608 216Q661 265 661 351Q661 449 587 517Q508 590 383 590Q254 590 168 512T81 315Q81 200 167 123T382 45Q486 45 568 99Q577 103 581 103Q598 103 598 87Q598 77 589 70Q511 10 382 10Q235 10 139 96T43 315Q43 452 138 538T383 625Q524 625 613 543Q699 464 699 350ZM440 426Q425 462 377 462Q334 462 299 391Q265 324 265 250Q265 184 303 184Q354 184 388 234L440 426Z"  />
<glyph unicode="A" horiz-adv-x="681" d="M669 0H358V24H462L399 198H198L136 24H256V0H18V24H108L334 654H352L578 24H669V0ZM390 222L298 475L207 222H390Z"  />
<glyph unicode="B" horiz-adv-x="616" d="M568 176Q568 94 507 47T338 0H25V24H114V621H25V645H330Q418 645 479 606Q545 563 545 493Q545 383 406 350Q470 336 514 295Q568 246 568 176ZM437 485V501Q437 621 330 621H223V360H330Q382 360 408 385Q437 415 437 485ZM457 164V187Q457 336 330 336H223V24H330Q399 24 429 60Q457 93 457 164Z"  />
<glyph unicode="C" horiz-adv-x="631" d="M598 4Q598 -7 587 -7Q581 -7 575 -1L523 51Q453 -18 351 -18Q231 -18 135 82Q35 185 35 323Q35 451 126 551Q221 656 356 656Q450 656 518 607L555 642Q565 651 572 651Q584 651 584 632V478Q584 462 575 462Q568 462 565 470L563 475Q537 546 486 586Q431 630 356 630Q171 630 171 374V268Q171 8 351 8Q490 8 574 188Q580 201 588 201Q598 201 598 187V4Z"  />
<glyph unicode="D" horiz-adv-x="682" d="M664 330Q664 180 575 90T337 0H28V24H119V621H28V645H337Q481 645 572 558T664 330ZM541 306V354Q541 496 479 563Q426 621 335 621H228V24H335Q541 24 541 306Z"  />
<glyph unicode="E" horiz-adv-x="591" d="M553 35Q553 0 519 0H31V24H118V621H29V645H494Q525 645 525 618V474Q525 457 513 457Q501 457 500 475Q497 528 472 569Q439 621 379 621H227V352H304Q342 352 358 377Q367 390 377 435Q381 452 389 452Q400 452 400 436V244Q400 227 389 227Q381 227 377 244Q373 267 357 306Q342 328 304 328H227V24H388Q452 24 484 67Q507 99 525 181Q530 204 541 204Q553 204 553 177V35Z"  />
<glyph unicode="F" horiz-adv-x="564" d="M529 474Q529 457 517 457Q505 457 504 475Q501 528 476 569Q443 621 383 621H231V352H308Q346 352 362 377Q371 390 381 435Q385 452 393 452Q404 452 404 436V244Q404 227 393 227Q385 227 381 244Q377 267 361 306Q346 328 308 328H231V24H320V0H36V24H122V621H34V645H499Q529 645 529 618V474Z"  />
<glyph unicode="G" horiz-adv-x="689" d="M686 217H597V189Q597 86 523 31Q458 -18 350 -18Q224 -18 129 82T33 319Q33 456 127 556T353 656Q451 656 517 604L558 642Q568 651 576 651Q589 651 589 636V457Q589 444 578 444Q568 444 564 456Q504 630 353 630Q268 630 220 571Q168 507 168 379V263Q168 138 216 73T352 8Q482 8 482 132V217H371V241H686V217Z"  />
<glyph unicode="H" horiz-adv-x="706" d="M688 0H402V24H491V330H227V24H316V0H29V24H118V621H29V645H316V621H227V355H491V621H402V645H688V621H600V24H688V0Z"  />
<glyph unicode="I" horiz-adv-x="366" d="M326 0H40V24H128V621H40V645H326V621H237V24H326V0Z"  />
<glyph unicode="J" horiz-adv-x="381" d="M371 621H294V56Q294 -97 126 -97Q74 -97 39 -66Q8 -39 8 -8Q8 46 59 46Q81 46 94 32T107 -1Q107 -47 64 -53Q85 -71 119 -71Q156 -71 170 -51T185 20V621H90V645H371V621Z"  />
<glyph unicode="K" horiz-adv-x="692" d="M685 0H385V24H470L219 353L510 621H428V645H640V621H550L313 403L601 24H685V0ZM304 0H31V24H113V621H31V645H304V621H222V24H304V0Z"  />
<glyph unicode="L" horiz-adv-x="617" d="M596 35Q596 0 561 0H26V24H115V621H26V645H322V621H224V24H431Q495 24 526 67Q549 98 567 181Q572 204 583 204Q596 204 596 177V35Z"  />
<glyph unicode="M" horiz-adv-x="821" d="M793 0H520V24H602V589L380 0H360L138 585V24H221V0H31V24H113V621H31V645H229L415 167L595 645H793V621H711V24H793V0Z"  />
<glyph unicode="N" horiz-adv-x="677" d="M660 621H571V-8H529L137 583V24H226V0H23V24H112V621H23V645H233L546 175V621H457V645H660V621Z"  />
<glyph unicode="O" horiz-adv-x="712" d="M684 320Q684 187 589 86Q492 -18 360 -18Q228 -18 132 86Q37 187 37 320Q37 453 132 554T360 656Q492 656 588 555T684 320ZM549 272V367Q549 512 500 574Q455 630 360 630Q266 630 221 572Q172 508 172 367V272Q172 8 360 8Q549 8 549 272Z"  />
<glyph unicode="P" horiz-adv-x="558" d="M534 469Q534 390 476 342T325 293H223V24H311V0H25V24H114V621H25V645H315Q415 645 474 597T534 469ZM433 452V486Q433 621 315 621H223V317H325Q433 317 433 452Z"  />
<glyph unicode="Q" horiz-adv-x="701" d="M684 319Q684 205 611 110T429 -12V-29Q429 -197 589 -197Q603 -197 603 -208Q603 -218 589 -218Q446 -218 385 -188Q304 -148 294 -33L292 -12Q183 14 110 109T37 319Q37 452 132 554T360 656Q492 656 588 554T684 319ZM549 271V366Q549 511 500 574Q455 630 360 630Q266 630 221 571Q172 508 172 366V271Q172 6 360 6Q549 6 549 271Z"  />
<glyph unicode="R" horiz-adv-x="647" d="M645 34Q645 29 641 25Q630 14 597 3Q561 -8 528 -8Q476 -8 452 20Q430 44 424 97Q422 130 417 196Q402 325 307 325H226V24H315V0H28V24H117V621H28V645H323Q417 645 478 603Q543 559 543 484Q543 365 393 332Q489 307 519 251Q539 213 542 109Q543 60 548 47Q556 26 585 26Q609 26 629 39Q633 41 638 41Q645 41 645 34ZM436 467V501Q436 621 323 621H226V349H323Q436 349 436 467Z"  />
<glyph unicode="S" horiz-adv-x="558" d="M524 205Q524 110 456 46T287 -18Q194 -18 118 44L84 -1Q75 -13 67 -13Q53 -13 53 4V174Q53 191 65 191Q77 191 81 176Q102 98 162 53Q219 8 293 8Q360 8 407 47Q458 88 458 152Q458 220 401 245Q357 264 311 277Q214 305 209 307Q68 351 68 467Q68 546 126 599Q187 656 286 656Q362 656 434 618L461 650Q470 660 476 660Q487 660 487 646V477Q487 463 475 463Q463 463 461 476Q452 542 411 583Q364 630 286 630Q226 630 185 602Q139 571 139 518Q139 454 201 432Q228 422 385 380Q524 342 524 205Z"  />
<glyph unicode="T" horiz-adv-x="638" d="M617 455H586Q574 533 540 577T460 621H376V24H465V0H179V24H267V621H183Q138 621 104 577T57 455H27L43 625Q45 645 68 645H576Q599 645 601 625L617 455Z"  />
<glyph unicode="U" horiz-adv-x="657" d="M643 621H555V162Q555 74 499 28T343 -18Q248 -18 185 20Q107 68 107 162V621H18V645H304V621H216V162Q216 88 256 48T367 8Q437 8 483 49T529 162V621H440V645H643V621Z"  />
<glyph unicode="V" horiz-adv-x="651" d="M649 621H574L353 -10H329L97 621H7V645H294V621H203L378 149L543 621H456V645H649V621Z"  />
<glyph unicode="W" horiz-adv-x="926" d="M915 621H843L602 -10H582L470 277L361 -10H341L101 621H23V645H680V621H616L532 402L630 141L814 621H728V645H915V621ZM588 621H448L518 439L588 621ZM456 315L341 621H208L390 143L456 315Z"  />
<glyph unicode="X" horiz-adv-x="706" d="M689 0H404V24H484L324 283L148 24H247V0H22V24H114L308 309L115 621H24V645H329V621H239L375 401L523 621H427V645H652V621H558L392 375L608 24H689V0Z"  />
<glyph unicode="Y" horiz-adv-x="682" d="M673 621H588L420 340V24H518V0H212V24H311V316L113 621H28V645H325V621H234L398 367L550 621H454V645H673V621Z"  />
<glyph unicode="Z" horiz-adv-x="524" d="M502 0H31V30L383 621H192Q64 621 59 472H36V645H495V617L139 24H328Q398 24 434 62Q472 104 477 199H502V0Z"  />
<glyph unicode="[" horiz-adv-x="273" d="M198 -120Q198 -135 180 -135H94Q76 -135 76 -117V648Q76 666 94 666H165Q182 666 190 637T198 599Q198 584 173 584Q169 584 162 585Q154 585 150 585Q124 585 124 566V-41Q124 -53 133 -53H165Q183 -53 191 -83Q198 -108 198 -120Z"  />
<glyph unicode="\" horiz-adv-x="255" d="M208 -10H153L67 519H123L208 -10Z"  />
<glyph unicode="]" horiz-adv-x="273" d="M198 -117Q198 -135 180 -135H94Q76 -135 76 -120Q76 -112 84 -83T109 -53H142Q151 -53 151 -41V566Q151 585 122 585Q118 585 111 585Q103 584 99 584Q76 584 76 599Q76 607 84 636T109 666H180Q198 666 198 648V-117Z"  />
<glyph unicode="^" horiz-adv-x="381" d="M325 325L303 314L195 521L87 314L64 325L178 606H211L325 325Z"  />
<glyph unicode="_" horiz-adv-x="300" d="M311 -31H-4V-11H311V-31Z"  />
<glyph unicode="`" horiz-adv-x="266" d="M233 457L219 450L44 604H147L233 457Z"  />
<glyph unicode="a" horiz-adv-x="456" d="M453 54Q453 34 430 14Q401 -13 353 -13Q288 -13 274 34Q231 -13 158 -13Q42 -13 42 75Q42 138 108 176Q171 211 268 212V319Q268 369 204 369Q182 369 163 364T143 352Q145 350 152 344Q166 331 166 314Q166 277 123 277Q104 277 93 288T81 316Q81 347 116 367Q156 390 228 390Q366 390 366 301V74Q366 43 370 33Q375 20 390 20Q417 20 434 53Q439 63 445 63Q453 63 453 54ZM268 68V194Q203 190 172 173Q132 151 132 99Q132 20 193 20Q213 20 240 37T268 68Z"  />
<glyph unicode="b" horiz-adv-x="534" d="M510 192Q510 116 451 52T315 -12Q250 -12 204 40V0H28V24H107V621H28V645H204V346Q246 393 312 393Q383 393 444 336Q510 275 510 192ZM394 171V214Q394 309 369 343Q351 369 308 369Q246 369 204 303V83Q246 12 312 12Q394 12 394 171Z"  />
<glyph unicode="c" horiz-adv-x="422" d="M411 105Q411 103 410 100L409 96Q396 56 360 26Q312 -13 242 -13Q159 -13 97 41Q29 99 29 187Q29 274 97 334Q162 390 247 390Q296 390 339 369Q388 344 388 308Q388 264 338 264Q289 264 289 306Q289 324 298 336T307 349Q307 354 293 359Q275 366 245 366Q193 366 170 333Q146 297 146 208V167Q146 77 165 45Q186 10 245 10Q298 10 338 40Q372 66 385 105Q389 117 399 117Q411 117 411 105Z"  />
<glyph unicode="d" horiz-adv-x="534" d="M513 0H337V41Q291 -13 227 -13Q159 -13 97 48Q32 112 32 191Q32 266 93 329T230 393Q298 393 337 350V621H259V645H435V24H513V0ZM337 82V301Q295 369 234 369Q187 369 168 336T148 215V168Q148 79 169 43Q188 11 231 11Q291 11 337 82Z"  />
<glyph unicode="e" horiz-adv-x="447" d="M414 117Q414 110 411 102Q391 52 348 21Q298 -13 230 -13Q144 -13 84 49Q28 108 28 185Q28 262 85 324Q144 390 226 390Q315 390 367 327Q406 281 409 233Q410 216 388 216H145V124Q145 10 232 10Q341 10 390 116Q396 128 404 128Q414 128 414 117ZM303 279Q303 366 227 366Q145 366 145 273V240H293Q303 240 303 279Z"  />
<glyph unicode="f" horiz-adv-x="352" d="M340 585Q340 547 303 547Q263 547 263 583Q263 607 286 617Q286 628 244 628Q195 628 195 561V380H278V356H195V24H272V0H20V24H97V356H21V380H97V416Q97 524 118 569Q157 652 242 652Q284 652 312 632T340 585Z"  />
<glyph unicode="g" horiz-adv-x="439" d="M433 371Q433 339 398 339Q360 339 360 370Q360 372 361 377Q347 369 331 352Q377 312 377 255Q377 208 340 169Q292 119 207 119Q172 119 148 126Q68 106 68 66Q68 30 129 30H295Q354 30 388 1Q424 -31 424 -90Q424 -166 366 -209T220 -253Q31 -253 31 -144Q31 -75 109 -43Q33 -24 33 49Q33 114 114 139Q37 180 37 255Q37 310 81 348Q128 390 207 390Q277 390 312 366Q351 405 390 405Q433 405 433 371ZM275 238V270Q275 325 258 347Q243 366 207 366Q171 366 156 347Q139 325 139 270V238Q139 188 153 167Q168 143 207 143Q246 143 261 167Q275 188 275 238ZM377 -129Q377 -96 351 -72T278 -47H147Q130 -47 111 -69Q89 -94 89 -126Q89 -229 224 -229Q284 -229 327 -205Q377 -178 377 -129Z"  />
<glyph unicode="h" horiz-adv-x="555" d="M539 0H298V24H369V291Q369 360 312 360Q265 360 229 322Q196 288 196 256V24H268V0H26V24H99V621H26V645H196V325Q244 393 344 393Q467 393 467 302V24H539V0Z"  />
<glyph unicode="i" horiz-adv-x="303" d="M216 550Q216 528 199 513T158 497Q134 497 117 512T100 550Q100 573 117 588T158 604Q182 604 199 589T216 550ZM285 0H33V24H110V356H33V380H207V24H285V0Z"  />
<glyph unicode="j" horiz-adv-x="282" d="M228 550Q228 527 211 512T170 496Q146 496 129 511T112 550Q112 573 129 588T170 604Q194 604 211 589T228 550ZM225 -28Q225 -133 184 -192T70 -252Q33 -252 6 -234T-21 -187Q-21 -167 -8 -153T28 -138Q50 -138 62 -152T75 -184Q75 -212 53 -226Q57 -228 69 -228Q92 -228 109 -212T127 -164V355H44V379H225V-28Z"  />
<glyph unicode="k" horiz-adv-x="556" d="M549 0H291V24H359L223 202H207V24H280V0H27V24H110V621H27V645H207V226H230L373 356H292V380H494V356H410L294 249L475 24H549V0Z"  />
<glyph unicode="l" horiz-adv-x="294" d="M273 0H32V24H104V621H32V645H201V24H273V0Z"  />
<glyph unicode="m" horiz-adv-x="785" d="M766 0H536V24H601V287Q601 353 553 353Q510 353 476 314Q446 280 446 248V24H513V0H282V24H349V287Q349 316 344 328Q334 353 300 353Q262 353 226 315Q194 281 194 256V24H260V0H29V24H96V353H29V377H194V316Q244 385 344 385Q432 385 445 314Q493 385 596 385Q699 385 699 297V24H766V0Z"  />
<glyph unicode="n" horiz-adv-x="547" d="M528 0H286V24H358V287Q358 353 305 353Q268 353 235 319T202 252V24H274V0H33V24H105V353H33V376H202V316Q250 384 343 384Q456 384 456 293V24H528V0Z"  />
<glyph unicode="o" d="M441 188Q441 117 385 55Q323 -13 234 -13Q145 -13 82 55Q25 117 25 188Q25 259 82 321Q145 390 234 390Q323 390 385 321Q441 259 441 188ZM325 168V209Q325 295 309 327Q289 366 234 366Q179 366 158 327Q141 294 141 209V168Q141 80 158 47Q178 10 234 10Q290 10 309 47Q325 79 325 168Z"  />
<glyph unicode="p" horiz-adv-x="515" d="M494 187Q494 105 433 44T295 -17Q228 -17 187 29V-233H254V-257H22V-233H89V352H22V377H187V336Q233 390 297 390Q370 390 432 329T494 187ZM378 167V210Q378 304 352 341Q333 366 296 366Q258 366 223 337T187 275V91Q187 64 220 37T293 9Q337 9 355 36Q378 70 378 167Z"  />
<glyph unicode="q" horiz-adv-x="524" d="M507 -257H276V-233H343V30Q300 -17 233 -17Q158 -17 96 45T34 187Q34 265 95 326T231 387Q299 387 343 335V376H507V352H440V-233H507V-257ZM343 106V266Q343 303 307 334T232 366Q150 366 150 245V141Q150 61 173 32Q192 8 235 8Q283 8 313 37T343 106Z"  />
<glyph unicode="r" horiz-adv-x="412" d="M402 313Q402 289 386 275T346 261Q321 261 305 274T289 310Q289 340 314 354Q317 355 317 357Q317 361 293 361Q257 361 223 333T188 276V24H260V0H18V24H90V353H18V377H188V332Q231 385 304 385Q344 385 370 369Q402 350 402 313Z"  />
<glyph unicode="s" horiz-adv-x="367" d="M343 119Q343 62 306 25Q266 -13 199 -13Q125 -13 83 24L64 -1Q59 -8 54 -8Q43 -8 43 4V105Q43 117 54 117Q63 117 66 105Q93 10 196 10Q234 10 264 27Q299 47 299 81Q299 122 238 144Q227 147 142 165Q50 184 50 266Q50 317 86 352Q126 390 191 390Q237 390 269 365L289 384L292 386Q296 390 300 390Q307 390 307 379V278Q307 268 299 268Q290 268 288 277Q282 312 258 337Q229 366 185 366Q148 366 124 348T99 306Q99 277 134 267Q178 257 246 239Q343 210 343 119Z"  />
<glyph unicode="t" horiz-adv-x="348" d="M338 83Q338 79 337 73Q321 -13 214 -13Q154 -13 122 18T89 104V355H19V379H89V485L187 530V379H287V355H187V102Q187 16 249 16Q303 16 314 81Q316 95 328 95Q338 95 338 83Z"  />
<glyph unicode="u" horiz-adv-x="556" d="M529 0H359V60Q306 -11 204 -11Q95 -11 95 95V353H23V376H193V89Q193 55 201 42Q212 25 245 25Q287 25 323 59T359 123V353H287V376H457V24H529V0Z"  />
<glyph unicode="v" horiz-adv-x="505" d="M488 353H425L269 -4H255L90 353H21V376H264V353H194L297 123L397 353H326V376H488V353Z"  />
<glyph unicode="w" horiz-adv-x="668" d="M654 353H582L457 -11H443L338 230L251 -11H236L92 353H23V376H257V353H191L278 135L363 376H377L482 134L556 353H472V376H654V353Z"  />
<glyph unicode="x" horiz-adv-x="518" d="M505 0H263V24H336L239 152L134 24H205V0H31V24H102L223 173L86 353H26V376H253V353H190L279 236L374 353H313V376H476V353H408L295 215L441 24H505V0Z"  />
<glyph unicode="y" horiz-adv-x="521" d="M511 352H442L231 -154Q191 -251 111 -251Q54 -251 54 -206Q54 -167 95 -167Q125 -167 139 -194Q145 -205 151 -205Q183 -205 207 -146L266 -3L96 352H26V376H277V352H201L313 110L414 352H340V376H511V352Z"  />
<glyph unicode="z" horiz-adv-x="414" d="M388 0H49V26L275 353H179Q100 353 89 255H68V376H377V348L155 24H267Q359 24 367 132H388V0Z"  />
<glyph unicode="{" horiz-adv-x="295" d="M245 -118Q245 -135 233 -135H142Q124 -135 124 -117V170Q124 200 115 215T70 246Q51 254 51 256V271Q51 272 72 281Q105 295 116 316Q124 332 124 364V648Q124 666 142 666H215Q244 666 244 617Q244 601 223 601Q218 601 210 602T196 603Q171 603 171 584V380Q171 335 156 304Q137 264 97 263Q137 262 157 222Q172 192 172 147V146L171 -59Q171 -71 180 -71H218Q231 -71 238 -90T245 -118Z"  />
<glyph unicode="|" horiz-adv-x="417" d="M232 -204Q232 -216 220 -223T194 -230Q186 -230 186 -219V744Q186 756 200 763Q211 770 224 770Q232 770 232 759V-204Z"  />
<glyph unicode="}" horiz-adv-x="295" d="M245 256Q245 254 225 246Q194 233 183 218T172 170V-117Q172 -135 154 -135H63Q51 -135 51 -118Q51 -111 57 -91T77 -71H115Q124 -71 124 -60V146Q124 191 139 222Q159 262 199 263Q159 264 140 304Q124 336 124 380V584Q124 603 100 603Q95 603 87 602T73 601Q52 601 52 617Q52 666 81 666H154Q172 666 172 648V360Q172 303 223 281Q245 272 245 271V256Z"  />
<glyph unicode="&#xA0;" horiz-adv-x="250" />
<glyph unicode="&#xA1;" horiz-adv-x="277" d="M206 453Q206 430 189 414T146 398Q121 398 104 414T86 453Q86 476 103 492T146 509Q171 509 188 493T206 453ZM208 -48Q208 -138 145 -138Q80 -138 80 -48Q80 -11 91 41Q101 84 111 128Q122 185 134 347H155Q159 296 162 244Q168 176 177 128Q183 105 195 50T208 -48Z"  />
<glyph unicode="&#xA2;" horiz-adv-x="354" d="M331 213Q331 210 330 206Q307 125 211 118L210 70H185V119Q123 124 79 167T35 271Q35 333 75 373T185 424V461H210L211 424Q250 423 281 405T312 361Q312 324 274 324Q258 324 248 334T237 359Q237 373 242 379T248 389Q248 403 211 405V140Q248 142 275 163T309 215Q311 224 320 224Q331 224 331 213ZM185 140V404Q150 397 138 374T125 291V250Q125 200 132 180Q145 145 185 140Z"  />
<glyph unicode="&#xA3;" horiz-adv-x="559" d="M535 187Q535 126 484 60Q429 -11 363 -11Q273 -11 217 48Q184 -5 107 -5Q63 -5 39 20T14 80Q14 129 59 160Q98 186 144 186Q162 186 182 182L131 324H35V350H120Q86 448 86 491Q86 581 169 624Q235 658 340 658Q402 658 448 628Q498 595 498 546Q498 465 426 465Q399 465 381 479T362 517Q362 573 430 573Q445 573 445 580Q445 598 412 616T340 634Q285 634 259 608Q228 578 228 506V350H309V324H228V170Q344 103 405 103Q443 103 468 127Q489 147 511 193Q515 201 523 201Q535 201 535 187ZM194 68Q138 132 89 132Q73 132 59 120Q42 105 42 80Q42 57 59 39T107 21Q171 21 194 68Z"  />
<glyph unicode="&#xA5;" horiz-adv-x="674" d="M665 621H579L411 340V324H511V300H411V261H511V237H411V24H510V0H204V24H302V237H201V261H302V300H201V324H297L105 621H20V645H317V621H226L390 367L542 621H446V645H665V621Z"  />
<glyph unicode="&#xA6;" horiz-adv-x="118" d="M80 357H43V647H80V357ZM80 0H43V265H80V0Z"  />
<glyph unicode="&#xA7;" horiz-adv-x="387" d="M367 335Q367 246 292 214Q364 181 364 93Q364 20 317 -24T190 -69Q130 -69 89 -37T48 37Q48 85 91 85Q130 85 130 46Q130 9 88 9Q83 9 83 8Q83 -3 112 -22Q148 -45 190 -45Q245 -45 277 -20T309 43Q309 95 238 119Q173 140 108 161Q37 197 37 279Q37 372 119 401Q36 429 36 518Q36 579 79 621Q124 667 195 667Q271 667 312 637Q345 614 345 581Q345 542 307 542Q264 542 264 577Q264 610 297 616Q260 643 195 643Q153 643 121 622T89 569Q89 513 190 499Q367 474 367 335ZM329 300Q329 332 268 359Q220 381 163 390Q90 375 90 323Q90 289 124 268Q163 243 259 225Q329 250 329 300Z"  />
<glyph unicode="&#xA8;" horiz-adv-x="432" d="M353 554Q353 535 338 522T300 509Q278 509 263 522T247 554Q247 573 262 586T300 599Q322 599 337 586T353 554ZM196 554Q196 535 181 522T143 509Q121 509 106 522T90 554Q90 573 105 586T143 599Q165 599 180 586T196 554Z"  />
<glyph unicode="&#xA9;" horiz-adv-x="637" d="M616 357Q616 247 532 169T327 91Q207 91 122 169T37 357Q37 467 122 545T327 623Q447 623 531 545T616 357ZM586 358Q586 456 511 525T328 594Q221 594 145 525T69 358Q69 260 145 191T328 122Q435 122 510 191T586 358ZM428 241Q428 234 420 234Q417 234 414 237L393 257Q363 230 324 230Q274 230 233 272T192 370Q192 423 231 466T327 510Q362 510 392 489L405 503Q408 507 415 507H417Q423 506 423 498V434Q423 424 415 424Q411 424 407 431Q386 491 327 491Q254 491 254 391V349Q254 248 324 248Q377 248 411 317Q413 325 421 325Q428 325 428 317V241Z"  />
<glyph unicode="&#xAA;" horiz-adv-x="354" d="M323 398Q323 385 309 373Q291 356 262 356Q223 356 213 383Q186 356 144 356Q73 356 73 411Q73 449 112 471T209 494V555Q209 582 172 582Q141 582 137 577L139 575Q140 575 142 573Q151 563 151 553Q151 529 123 529Q96 529 96 555Q96 573 119 586T186 600Q271 600 271 545V410Q271 380 283 380Q295 380 304 392T316 405Q323 405 323 398ZM323 284H44V322H323V284ZM209 408V480Q130 474 130 425Q130 380 165 380Q177 380 193 390T209 408Z"  />
<glyph unicode="&#xAB;" horiz-adv-x="438" d="M382 108H354L174 258L354 408H382L254 258L382 108ZM232 108H203L24 258L203 408H232L104 258L232 108Z"  />
<glyph unicode="&#xAC;" horiz-adv-x="564" d="M545 230H506V389H18V429H545V230Z"  />
<glyph unicode="&#xAE;" horiz-adv-x="448" d="M413 475Q413 402 357 351T219 299Q138 299 82 350T25 475Q25 549 82 600T219 652Q299 652 356 601T413 475ZM383 475Q383 536 335 579T220 622Q152 622 105 579T57 475Q57 414 104 371T220 328Q287 328 335 371T383 475ZM331 388Q331 380 329 378Q318 368 290 368Q271 368 265 376Q256 385 254 404Q253 419 252 434Q248 473 218 473H197V388H225V370H127V388H156V562H127V580H225Q257 580 277 566T298 526Q298 491 258 478Q283 470 291 450Q297 437 298 407Q299 384 309 384Q316 384 322 388H331ZM258 520V531Q258 562 225 562H197V491H225Q258 491 258 520Z"  />
<glyph unicode="&#xAF;" horiz-adv-x="454" d="M360 516H107V543H360V516Z"  />
<glyph unicode="&#xB0;" horiz-adv-x="231" d="M202 582Q202 552 178 531T121 510Q88 510 64 531T39 582Q39 612 63 633T121 654Q154 654 178 633T202 582ZM177 582Q177 603 161 617T121 631Q97 631 81 617T64 582Q64 562 80 548T121 533Q145 533 161 547T177 582Z"  />
<glyph unicode="&#xB1;" horiz-adv-x="410" d="M374 344H235V217H171V344H32V403H171V530H235V403H374V344ZM358 126H48V185H358V126Z"  />
<glyph unicode="&#xB2;" horiz-adv-x="306" d="M253 418Q253 370 210 343Q170 324 131 305Q88 284 89 253H231Q249 253 249 238Q249 205 229 205H78Q55 205 55 240Q55 244 56 251Q56 258 56 261Q56 294 99 320Q140 340 180 360Q223 384 223 411Q223 439 198 453Q178 466 148 466Q119 466 92 442T69 418Q60 418 60 432Q60 443 67 459Q92 507 147 507Q190 507 221 483T253 418Z"  />
<glyph unicode="&#xB3;" horiz-adv-x="306" d="M265 292Q265 245 226 213T139 181Q110 181 83 192Q47 207 47 230Q47 247 70 247Q85 247 112 235T154 223Q185 223 209 241T233 289Q233 315 206 331Q184 343 156 343Q150 343 139 342T123 340Q109 340 109 347Q109 352 158 376T207 426Q207 448 189 459T147 470Q120 470 88 445T59 420Q52 420 52 434Q52 446 60 461Q88 509 147 509Q183 509 209 491Q240 471 240 437Q240 390 190 372Q220 372 242 348T265 292Z"  />
<glyph unicode="&#xB4;" horiz-adv-x="404" d="M371 622L196 468L183 477L268 622H371Z"  />
<glyph unicode="&#xB6;" horiz-adv-x="664" d="M625 621H536V-104H471V621H392V-104H328V291H263Q163 291 101 334Q34 381 34 468Q34 555 101 602Q163 645 263 645H625V621Z"  />
<glyph unicode="&#xB8;" horiz-adv-x="359" d="M266 -101Q266 -125 246 -140T194 -156Q151 -156 123 -117Q118 -110 118 -104Q118 -96 126 -96Q131 -96 146 -108T179 -121Q215 -121 215 -93Q215 -69 180 -56L194 0H228L217 -45Q266 -61 266 -101Z"  />
<glyph unicode="&#xB9;" horiz-adv-x="306" d="M236 238Q236 206 212 206H99Q80 206 80 221Q80 227 83 236Q90 254 101 254H146V424Q146 445 134 445Q126 445 116 432T97 418Q89 418 89 432Q89 451 110 479T151 508Q181 508 181 444Q181 439 181 432T181 423V254H218Q236 254 236 238Z"  />
<glyph unicode="&#xBA;" horiz-adv-x="327" d="M293 477Q293 434 259 396Q221 354 167 354Q113 354 75 396Q40 434 40 477Q40 520 75 557Q113 598 167 598Q221 598 259 557Q293 520 293 477ZM304 284H26V322H304V284ZM219 464V488Q219 533 214 549Q203 580 167 580Q131 580 120 549Q113 532 113 488V464Q113 419 119 402Q130 372 167 372Q203 372 214 403Q219 419 219 464Z"  />
<glyph unicode="&#xBB;" horiz-adv-x="426" d="M422 258L243 108H214L343 258L214 408H243L422 258ZM266 258L87 108H58L187 258L58 408H87L266 258Z"  />
<glyph unicode="&#xBC;" horiz-adv-x="561" d="M519 95Q519 67 486 67Q484 67 478 68Q478 68 478 7Q478 -23 468 -23Q452 -23 452 -3Q452 7 455 68H312Q297 68 297 104Q297 177 350 240Q401 300 458 300Q478 300 478 280V113H487H488Q519 113 519 95ZM452 113V234Q452 248 438 248Q386 248 355 205Q327 167 327 113H452ZM198 238Q198 206 174 206H60Q42 206 42 221Q42 227 45 236Q51 254 62 254H108V424Q108 445 96 445Q87 445 77 432T59 418Q51 418 51 432Q51 451 72 479T112 508Q143 508 143 444Q143 439 142 432Q142 425 142 423V254H179Q198 254 198 238ZM415 687Q415 658 393 593Q377 546 360 498L206 -1Q200 -28 182 -80Q172 -103 152 -103Q133 -103 133 -91Q133 -86 138 -72Q203 114 342 589Q349 616 366 669Q373 688 378 692T402 697Q415 697 415 687Z"  />
<glyph unicode="&#xBD;" horiz-adv-x="561" d="M200 238Q200 206 176 206H63Q44 206 44 221Q44 227 47 236Q53 254 65 254H110V424Q110 445 98 445Q90 445 80 432T61 418Q53 418 53 432Q53 451 74 479T114 508Q145 508 145 444Q145 439 145 432Q144 425 144 423V254H182Q200 254 200 238ZM517 212Q517 165 474 137Q434 119 395 100Q352 79 353 47H495Q513 47 513 32Q513 0 493 0H342Q319 0 319 35Q319 38 320 45Q320 52 320 56Q320 88 363 114Q404 134 445 156T487 205Q487 233 463 248Q442 260 412 260Q384 260 357 236T333 212Q324 212 324 226Q324 238 331 253Q356 301 411 301Q454 301 484 279Q517 254 517 212ZM411 687Q411 658 389 593Q373 546 356 498L202 -1Q196 -28 178 -80Q168 -103 148 -103Q129 -103 129 -91Q129 -86 134 -72Q199 114 338 589Q345 616 362 669Q369 688 374 692T398 697Q411 697 411 687Z"  />
<glyph unicode="&#xBE;" horiz-adv-x="561" d="M236 292Q236 245 197 213T109 181Q81 181 53 192Q17 207 17 230Q17 247 41 247Q55 247 82 235T125 223Q155 223 179 241T203 289Q203 315 177 331Q154 343 126 343Q121 343 110 342T93 340Q79 340 79 347Q79 352 128 376T177 426Q177 448 159 459T117 470Q91 470 59 445T29 420Q22 420 22 434Q22 446 31 461Q58 509 118 509Q153 509 180 491Q211 471 211 437Q211 390 160 372Q191 372 213 348T236 292ZM544 95Q544 67 511 67Q509 67 502 68Q502 68 502 7Q502 -23 493 -23Q476 -23 476 -3Q476 7 479 68H337Q322 68 322 104Q322 177 374 240Q425 300 482 300Q503 300 503 280V113H511H512Q544 113 544 95ZM476 113V234Q476 248 463 248Q411 248 380 205Q352 167 352 113H476ZM433 687Q433 658 412 593Q395 546 378 498L224 -1Q218 -28 200 -80Q190 -103 170 -103Q151 -103 151 -91Q151 -86 156 -72Q222 114 360 589Q368 616 384 669Q391 688 396 692T420 697Q433 697 433 687Z"  />
<glyph unicode="&#xBF;" horiz-adv-x="415" d="M292 448Q292 425 275 409T232 393Q207 393 190 409T172 448Q172 471 189 487T232 504Q257 504 274 488T292 448ZM369 -38Q369 -77 325 -105Q277 -134 202 -134Q125 -134 82 -99T38 2Q38 47 64 85Q81 110 124 148L170 189Q221 235 221 256Q221 282 220 290Q218 306 218 310Q218 321 231 321Q241 321 243 311Q256 249 256 212Q256 174 246 152Q230 117 196 85Q143 34 138 28Q101 -15 101 -46Q101 -72 124 -90Q151 -110 200 -110Q247 -110 275 -98Q295 -90 295 -85Q295 -85 294 -87Q247 -78 247 -37Q247 -14 264 1T309 16Q335 16 352 1T369 -38Z"  />
<glyph unicode="&#xD7;" horiz-adv-x="581" d="M549 57L493 6L290 192L89 6L33 57L234 243L33 427L89 479L290 293L493 479L549 427L347 243L549 57Z"  />
<glyph unicode="&#xF7;" horiz-adv-x="382" d="M255 385Q255 362 238 346T195 330Q170 330 153 346T135 385Q135 408 152 424T195 440Q220 440 237 424T255 385ZM336 225H53V283H336V225ZM255 116Q255 93 238 77T195 61Q170 61 153 77T135 116Q135 139 152 155T195 171Q220 171 237 155T255 116Z"  />
<glyph unicode="&#x192;" horiz-adv-x="500" d="M488 623Q488 585 455 585Q424 585 424 612Q424 619 429 629T435 642Q435 655 417 655Q379 655 367 602Q351 530 335 427H422L414 395H329Q303 260 245 49Q200 -116 145 -170Q104 -210 61 -210Q36 -210 19 -197T1 -159Q1 -116 39 -116Q50 -116 60 -124T70 -143Q70 -148 61 -164Q59 -168 59 -171Q59 -181 71 -181Q96 -181 118 -145Q131 -124 147 -59Q151 -43 189 144Q192 161 249 395H163L170 427Q206 430 214 431Q240 436 251 450Q264 468 281 516Q306 590 327 621Q365 677 421 677Q448 677 468 663T488 623Z"  />
<glyph unicode="&#x3BC;" horiz-adv-x="576" d="M534 100Q526 -14 438 -14Q368 -14 360 79Q281 -14 207 -14Q182 -14 162 -3Q148 5 131 28Q131 28 131 5Q131 -36 147 -111Q154 -144 154 -162Q154 -184 142 -200T108 -216Q65 -216 65 -163Q65 -144 82 -74Q88 -47 90 -31Q96 23 96 56V447H176V187Q176 117 185 90Q200 46 245 46Q302 46 360 112V447H441V128Q441 79 445 64Q452 39 474 39Q505 39 514 100H534Z"  />
<glyph unicode="&#x5B0;" horiz-adv-x="0" d="M312 -108Q312 -124 299 -135T270 -146Q246 -146 246 -118Q246 -104 257 -93T283 -82Q312 -82 312 -108ZM312 -193Q312 -209 299 -220T270 -231Q246 -231 246 -204Q246 -190 257 -179T283 -168Q312 -168 312 -193Z"  />
<glyph unicode="&#x5B1;" horiz-adv-x="0" d="M392 -108Q392 -124 379 -135T350 -146Q326 -146 326 -118Q326 -104 337 -93T363 -82Q392 -82 392 -108ZM392 -193Q392 -209 379 -220T350 -231Q326 -231 326 -204Q326 -190 337 -179T363 -168Q392 -168 392 -193ZM302 -108Q302 -124 289 -135T260 -146Q236 -146 236 -118Q236 -104 247 -93T273 -82Q302 -82 302 -108ZM212 -108Q212 -124 199 -135T170 -146Q146 -146 146 -118Q146 -103 157 -93T184 -82Q212 -82 212 -108ZM248 -193Q248 -209 235 -220T206 -231Q182 -231 182 -204Q182 -189 193 -179T220 -168Q248 -168 248 -193Z"  />
<glyph unicode="&#x5B2;" horiz-adv-x="0" d="M413 -108Q413 -124 400 -135T370 -146Q346 -146 346 -118Q346 -103 357 -93T384 -82Q413 -82 413 -108ZM413 -193Q413 -209 400 -220T370 -231Q346 -231 346 -204Q346 -189 357 -179T384 -168Q413 -168 413 -193ZM322 -102Q322 -137 298 -137H186Q175 -137 175 -128Q175 -92 199 -92H312Q322 -92 322 -102Z"  />
<glyph unicode="&#x5B3;" horiz-adv-x="0" d="M393 -108Q393 -124 380 -135T350 -146Q326 -146 326 -118Q326 -103 337 -93T364 -82Q393 -82 393 -108ZM393 -193Q393 -209 380 -220T350 -231Q326 -231 326 -204Q326 -189 337 -179T364 -168Q393 -168 393 -193ZM302 -102Q302 -137 278 -137H251V-191Q251 -215 216 -215Q206 -215 206 -205V-137H165Q155 -137 155 -128Q155 -92 188 -92H286Q302 -92 302 -102Z"  />
<glyph unicode="&#x5B4;" horiz-adv-x="0" d="M310 -108Q310 -124 297 -134T268 -145Q244 -145 244 -118Q244 -104 255 -93T281 -82Q310 -82 310 -108Z"  />
<glyph unicode="&#x5B5;" horiz-adv-x="0" d="M355 -108Q355 -124 342 -134T313 -145Q289 -145 289 -118Q289 -103 300 -93T327 -82Q355 -82 355 -108ZM256 -108Q256 -124 243 -134T214 -145Q190 -145 190 -118Q190 -103 201 -93T228 -82Q256 -82 256 -108Z"  />
<glyph unicode="&#x5B6;" horiz-adv-x="0" d="M374 -109Q374 -125 361 -135T332 -146Q307 -146 307 -119Q307 -104 318 -94T345 -83Q374 -83 374 -109ZM248 -109Q248 -125 235 -135T206 -146Q181 -146 181 -119Q181 -104 192 -94T219 -83Q248 -83 248 -109ZM311 -199Q311 -215 298 -225T269 -236Q244 -236 244 -209Q244 -194 255 -184T282 -173Q311 -173 311 -199Z"  />
<glyph unicode="&#x5B7;" horiz-adv-x="0" d="M365 -103Q365 -138 339 -138H214Q202 -138 202 -129Q202 -93 228 -93H354Q365 -93 365 -103Z"  />
<glyph unicode="&#x5B8;" horiz-adv-x="0" d="M365 -103Q365 -138 327 -138H306V-192Q306 -216 270 -216Q261 -216 261 -206V-138H212Q202 -138 202 -129Q202 -93 226 -93H355Q365 -93 365 -103Z"  />
<glyph unicode="&#x5B9;" horiz-adv-x="0" d="M99 602Q99 587 86 577T57 566Q33 566 33 593Q33 607 44 617T70 628Q99 628 99 602Z"  />
<glyph unicode="&#x5BB;" horiz-adv-x="0" d="M287 -112Q287 -128 274 -138T245 -149Q221 -149 221 -122Q221 -107 232 -97T259 -86Q287 -86 287 -112ZM324 -184Q324 -200 311 -210T282 -221Q258 -221 258 -194Q258 -180 269 -169T295 -158Q324 -158 324 -184ZM363 -256Q363 -272 350 -282T321 -293Q297 -293 297 -266Q297 -252 308 -241T334 -230Q363 -230 363 -256Z"  />
<glyph unicode="&#x5BC;" horiz-adv-x="0" d="M169 252Q169 236 156 226T127 216Q103 216 103 242Q103 257 114 267T140 278Q169 278 169 252Z"  />
<glyph unicode="&#x5BD;" horiz-adv-x="0" d="M28 -229H0V-102H28V-229Z"  />
<glyph unicode="&#x5BE;" horiz-adv-x="380" d="M321 473Q321 434 295 434H72Q60 434 60 445Q60 484 86 484H310Q321 484 321 473Z"  />
<glyph unicode="&#x5BF;" horiz-adv-x="600" d="M437 637Q437 602 411 602H176Q164 602 164 611Q164 647 190 647H426Q437 647 437 637Z"  />
<glyph unicode="&#x5C0;" horiz-adv-x="168" d="M108 -130H60V617H108V-130Z"  />
<glyph unicode="&#x5C1;" horiz-adv-x="0" d="M706 602Q706 587 693 577T664 566Q640 566 640 593Q640 607 651 617T677 628Q706 628 706 602Z"  />
<glyph unicode="&#x5C2;" horiz-adv-x="0" d="M222 602Q222 587 209 577T180 566Q156 566 156 593Q156 607 167 617T193 628Q222 628 222 602Z"  />
<glyph unicode="&#x5C3;" horiz-adv-x="275" d="M154 321Q154 295 132 277T83 258Q66 258 55 272T43 304Q43 328 62 346T107 364Q125 364 139 352T154 321ZM154 83Q154 57 132 39T83 20Q66 20 55 34T43 66Q43 90 62 108T107 126Q125 126 139 114T154 83Z"  />
<glyph unicode="&#x5D0;" horiz-adv-x="465" d="M427 588Q427 548 362 480Q286 399 275 376Q411 329 411 177Q411 94 365 28Q339 -9 309 -9Q298 -9 298 7Q298 16 315 38Q328 52 340 67Q364 103 364 164Q364 297 175 297Q142 297 131 264Q124 242 124 202V50Q124 28 114 11Q102 -10 82 -10Q63 -10 63 26Q63 48 66 92T70 159Q70 296 47 368Q30 421 30 438Q30 453 51 484T87 515Q111 515 120 461Q120 458 125 388Q126 371 134 371Q184 371 248 432Q298 480 333 538Q347 562 362 586Q385 619 401 619Q427 619 427 588Z"  />
<glyph unicode="&#x5D1;" horiz-adv-x="472" d="M442 73Q442 64 427 30Q414 0 396 0H61Q30 0 30 21Q30 40 45 69Q56 90 76 90H198Q267 90 318 144T369 267Q369 317 338 356T257 395H94Q34 395 34 428Q34 435 51 476Q62 503 74 503Q80 503 95 494T120 484H255Q336 484 377 420Q411 367 411 281Q411 226 387 174Q377 156 367 138Q354 113 354 102Q354 89 391 89Q397 89 405 90Q413 90 414 90Q442 90 442 73Z"  />
<glyph unicode="&#x5D2;" horiz-adv-x="337" d="M297 96Q297 74 282 36Q266 -7 248 -7Q233 -7 217 59T194 126Q186 126 144 42Q110 -26 95 -61Q64 -135 40 -135Q14 -135 14 -109Q14 -90 43 -43Q78 23 151 153Q179 202 182 207Q197 239 197 266V359Q197 395 150 395H126Q74 395 74 428Q74 437 91 476Q103 503 115 503Q121 503 134 494T157 484Q201 484 219 467T237 407V247Q237 214 267 159T297 96Z"  />
<glyph unicode="&#x5D3;" horiz-adv-x="466" d="M430 464Q430 446 416 423T380 388T352 371Q340 355 340 314Q340 271 347 187T354 60Q354 35 344 16Q331 -7 308 -7Q294 -7 294 20V307Q294 372 319 395H78Q26 395 26 428Q26 434 43 476Q54 503 66 503Q72 503 85 494T109 485H400Q430 485 430 464Z"  />
<glyph unicode="&#x5D4;" horiz-adv-x="496" d="M456 240Q456 190 434 117Q408 34 376 11Q351 -7 328 -7Q316 -7 316 10Q316 21 348 60Q413 139 413 241Q413 303 371 349T268 395H90Q34 395 34 428Q34 436 51 476Q62 503 74 503Q82 503 101 494T133 484L252 485Q348 485 405 409Q456 340 456 240ZM135 50Q135 -7 96 -7Q79 -7 79 24Q79 34 79 54Q78 73 78 83V235Q78 275 98 275Q118 275 121 216Q122 193 129 133Q135 80 135 50Z"  />
<glyph unicode="&#x5D5;" horiz-adv-x="262" d="M200 50Q200 31 188 12T157 -7Q140 -7 140 24V362Q140 395 97 395H77Q28 395 28 428Q28 437 45 476Q57 503 69 503Q74 503 87 494T111 484Q155 484 169 468T184 407Q184 390 183 357T182 306Q182 263 191 178T200 50Z"  />
<glyph unicode="&#x5D6;" horiz-adv-x="304" d="M264 464Q264 450 253 425Q240 395 218 395Q134 395 134 311Q134 271 163 200T192 91Q192 71 179 35Q164 -7 149 -7Q133 -7 122 56Q114 95 101 173Q94 224 94 277Q94 333 122 395Q122 395 96 395Q30 395 30 432Q30 441 45 476Q56 503 68 503Q74 503 88 494T111 485H233Q264 485 264 464Z"  />
<glyph unicode="&#x5D7;" horiz-adv-x="525" d="M485 233Q485 187 461 114Q435 32 405 11Q380 -7 357 -7Q346 -7 346 8Q346 21 377 60Q442 142 442 234Q442 303 401 349T291 395H223Q173 395 153 383Q125 367 125 320Q125 249 135 151Q143 73 143 50Q143 30 131 13Q118 -7 99 -7Q83 -7 83 24H83V353Q83 372 56 396T28 439Q28 450 50 476T83 503Q88 503 102 489T128 475Q143 475 167 478Q197 482 206 483Q235 485 272 485Q375 485 433 409Q485 340 485 233Z"  />
<glyph unicode="&#x5D8;" horiz-adv-x="551" d="M511 291Q511 170 451 87Q383 -7 267 -7Q100 -7 100 210Q100 297 60 351Q49 365 38 378Q26 395 26 410Q26 435 41 467Q58 504 80 504Q96 504 114 459Q128 426 134 398Q145 346 145 249Q145 90 233 90H319Q381 90 426 154Q466 213 466 278Q466 325 446 362Q422 406 379 406Q358 406 326 383T273 360Q260 360 260 380Q260 392 270 414Q310 503 374 503Q447 503 483 429Q511 372 511 291Z"  />
<glyph unicode="&#x5D9;" horiz-adv-x="239" d="M199 368Q199 324 180 280Q156 225 118 225Q106 225 106 240Q106 248 133 287T160 352Q160 370 146 382T112 395Q107 395 96 395Q85 394 80 394Q22 394 22 428Q22 435 39 476Q50 503 62 503Q68 503 80 494T101 484L121 485Q161 485 182 445Q199 413 199 368Z"  />
<glyph unicode="&#x5DA;" horiz-adv-x="449" d="M387 -139Q387 -156 372 -178T341 -200Q323 -200 323 -169V266Q323 320 302 354Q276 395 225 395H87Q26 395 26 428Q26 437 43 476Q55 503 67 503Q72 503 85 494T109 485H224Q368 485 368 270V137Q368 61 385 -110Q387 -130 387 -139Z"  />
<glyph unicode="&#x5DB;" horiz-adv-x="443" d="M405 245Q405 148 351 77Q292 0 198 0H61Q30 0 30 21Q30 44 43 69Q50 83 55 86T76 90H217Q283 90 322 132T361 241Q361 309 321 352T213 395H86Q34 395 34 428Q34 437 51 476Q63 503 75 503Q80 503 94 494T118 485H205Q297 485 353 409Q405 340 405 245Z"  />
<glyph unicode="&#x5DC;" horiz-adv-x="462" d="M424 291Q424 179 363 94Q296 0 188 0Q162 0 162 21Q162 40 176 69Q183 83 187 86T206 90H218Q282 90 330 144T379 263Q379 395 253 395H92Q32 395 32 452Q32 483 44 542T57 632Q57 659 32 693T6 743Q6 764 18 782T50 800Q79 800 95 773Q108 751 108 719Q108 661 93 587Q79 517 79 497Q79 484 100 484H256Q339 484 384 428Q424 376 424 291Z"  />
<glyph unicode="&#x5DD;" horiz-adv-x="561" d="M507 87Q507 0 440 0H157Q109 0 93 27Q82 47 82 99V338Q82 359 55 388T28 438Q28 449 50 476T83 503Q88 503 102 489T127 475Q136 475 168 479Q208 484 257 484H358Q417 484 444 472Q479 456 493 418Q502 394 505 344Q507 308 507 279V87ZM464 155V207Q464 245 461 276Q453 355 433 375T335 395H208Q166 395 148 385Q122 370 122 332Q122 330 122 326Q123 322 123 320L131 145Q133 91 159 91H413Q444 91 456 109Q464 123 464 155Z"  />
<glyph unicode="&#x5DE;" horiz-adv-x="554" d="M514 246Q514 150 459 78Q400 0 306 0H268Q237 0 237 21Q237 42 250 69Q257 84 261 87T282 90H282H282H324Q385 90 425 136Q462 180 462 242Q462 304 424 353T325 403H289Q231 403 194 366T156 272V24Q156 -7 139 -7Q119 -7 108 13Q99 29 99 50Q99 67 103 113Q111 206 111 284Q111 315 74 354T36 410Q36 429 52 464Q70 504 85 504Q106 504 128 446T155 388Q161 388 174 408Q182 421 190 434Q233 496 312 496Q404 496 462 415Q514 342 514 246Z"  />
<glyph unicode="&#x5DF;" horiz-adv-x="290" d="M228 -139Q228 -160 215 -180T181 -200Q164 -200 164 -169V302Q164 395 120 395Q115 395 104 395Q93 394 88 394Q28 394 28 428Q28 435 45 476Q56 503 68 503Q75 503 92 494T120 485L131 484Q209 484 209 341V129Q209 59 226 -110Q228 -130 228 -139Z"  />
<glyph unicode="&#x5E0;" horiz-adv-x="291" d="M237 159Q237 0 138 0H55Q24 0 24 21Q24 41 38 70Q45 84 49 87T69 90H126Q168 90 183 121Q192 141 192 189V291Q192 396 122 396Q119 396 113 396Q107 395 104 395Q39 395 39 428Q39 437 56 476Q68 503 80 503Q89 503 103 494T127 485H142Q237 485 237 272V159Z"  />
<glyph unicode="&#x5E1;" horiz-adv-x="539" d="M501 257Q501 213 480 162Q413 0 262 0H157Q110 0 94 28Q82 48 82 99V339Q82 360 55 388T28 438Q28 450 50 476T83 502Q88 502 102 489T128 476Q144 476 175 480T223 485H306Q399 485 452 416Q501 352 501 257ZM453 248Q453 314 424 352Q391 395 327 395H207Q123 395 123 332Q123 299 127 234T131 136Q131 90 155 90H296Q362 90 407 135T453 248Z"  />
<glyph unicode="&#x5E2;" horiz-adv-x="542" d="M504 296Q504 180 444 95Q378 0 266 0H61Q30 0 30 21Q30 38 44 69Q51 84 55 87T74 90H183Q203 90 203 112Q203 177 139 281T75 424Q75 440 86 469Q98 503 110 503Q124 503 142 447Q149 427 228 215Q275 90 311 90Q371 90 415 152Q455 208 455 271Q455 395 341 395H319Q292 395 292 412Q292 424 309 460Q316 475 321 479T340 484Q419 484 463 428Q504 377 504 296Z"  />
<glyph unicode="&#x5E3;" horiz-adv-x="532" d="M470 -139Q470 -156 456 -178T424 -200Q406 -200 406 -169V247Q406 311 365 353T260 395Q103 395 103 323Q103 251 173 251Q194 251 225 272T270 294Q286 294 286 280Q286 245 241 210T160 175Q105 175 85 221Q72 251 72 315V348Q72 369 45 395T18 439Q18 448 41 475T72 503Q78 503 92 489T117 475Q128 475 163 479Q215 485 262 485Q380 485 422 401Q452 344 452 219Q452 205 452 177Q451 150 451 137Q451 65 468 -110Q470 -131 470 -139Z"  />
<glyph unicode="&#x5E4;" horiz-adv-x="523" d="M483 234Q483 175 461 123Q433 58 389 29T272 0H83Q52 0 52 21Q52 43 65 69Q76 90 97 90H300Q363 90 401 131T439 237Q439 306 391 351T273 396Q115 396 115 323Q115 291 134 271T185 251Q206 251 237 272T281 294Q297 294 297 280Q297 245 253 210T172 175Q117 175 97 221Q84 252 84 316V348Q84 369 57 395T30 439Q30 448 53 475T85 503Q91 503 105 489T130 475Q139 475 178 480T274 485Q377 485 433 409Q483 341 483 234Z"  />
<glyph unicode="&#x5E5;" horiz-adv-x="363" d="M339 595Q339 568 302 507Q242 405 235 390Q198 317 198 263V137Q198 64 215 -110Q217 -131 217 -139Q217 -156 203 -178T171 -200Q153 -200 153 -169L154 204Q154 249 94 310T34 416Q34 433 48 466Q64 503 78 503Q92 503 106 435T140 366Q173 366 210 436Q230 473 266 547Q298 620 321 620Q339 620 339 595Z"  />
<glyph unicode="&#x5E6;" horiz-adv-x="459" d="M419 583Q419 560 351 475T283 367Q283 355 301 355H310Q372 355 398 313Q418 281 418 214Q418 118 345 57Q277 0 179 0H61Q30 0 30 21Q30 45 39 65Q50 90 71 90H208Q363 90 363 195Q363 255 332 276Q308 292 245 292H166Q109 292 76 334Q44 373 44 431Q44 448 59 474T89 501Q114 501 116 436Q119 366 141 359Q153 355 173 355H174H192Q211 355 275 447Q330 526 349 564Q373 614 394 614Q419 614 419 583Z"  />
<glyph unicode="&#x5E7;" horiz-adv-x="523" d="M483 262Q483 163 417 84Q348 0 251 0Q225 0 225 21Q225 42 238 69Q248 90 267 90H287Q349 90 392 139T435 251Q435 312 407 351Q375 395 316 395H103Q51 395 51 428Q51 439 68 476Q80 503 92 503Q97 503 112 494T137 485H282Q377 485 432 420Q483 359 483 262ZM159 -139Q159 -156 145 -178T113 -200Q95 -200 95 -169V232Q95 273 115 273Q140 273 140 231V137Q140 60 157 -110Q159 -130 159 -139Z"  />
<glyph unicode="&#x5E8;" horiz-adv-x="434" d="M394 240Q394 189 372 117Q346 36 314 11Q290 -7 266 -7Q254 -7 254 10Q254 21 286 60Q351 138 351 241Q351 303 309 349T206 395H86Q26 395 26 428Q26 436 43 476Q54 503 66 503Q71 503 85 494T109 485H193Q286 485 343 407Q394 337 394 240Z"  />
<glyph unicode="&#x5E9;" horiz-adv-x="542" d="M502 257Q502 212 481 162Q412 0 262 0H161Q118 0 102 17T85 77V219Q85 234 81 264T76 309T57 355T38 406Q38 431 48 463Q60 503 79 503Q98 503 111 435T135 367Q149 367 194 446Q228 506 245 544Q277 617 301 617Q322 617 322 585Q322 547 227 409T132 225V174Q132 115 146 99Q154 90 178 90H310Q366 90 412 140T459 248Q459 302 430 343Q398 390 346 390Q315 390 315 410Q315 431 328 461T362 491Q439 491 476 408Q502 347 502 257Z"  />
<glyph unicode="&#x5EA;" horiz-adv-x="557" d="M517 233Q517 185 493 114Q467 35 436 11Q413 -7 389 -7Q376 -7 376 10Q376 20 409 60Q474 138 474 241Q474 317 430 356T308 395H287Q217 395 189 382Q144 361 144 300Q144 262 164 189T184 78Q184 47 166 24T117 0H62Q30 0 30 21Q30 45 48 77Q55 90 66 90H80Q119 90 119 114Q119 120 108 162Q100 193 100 243Q100 261 104 296T108 349Q108 368 84 393T60 437Q60 449 81 477T115 505Q121 505 134 490T158 475Q171 475 199 480T241 485H304Q407 485 465 409Q517 340 517 233Z"  />
<glyph unicode="&#x5F0;" horiz-adv-x="472" d="M410 50Q410 31 398 12T367 -7Q350 -7 350 24V362Q350 395 307 395H287Q238 395 238 428Q238 437 255 476Q267 503 279 503Q284 503 297 494T321 484Q365 484 379 468T394 407Q394 390 393 357T392 306Q392 263 401 178T410 50ZM200 50Q200 31 188 12T157 -7Q140 -7 140 24V362Q140 395 97 395H77Q28 395 28 428Q28 437 45 476Q57 503 69 503Q74 503 87 494T111 484Q155 484 169 468T184 407Q184 390 183 357T182 306Q182 263 191 178T200 50Z"  />
<glyph unicode="&#x5F1;" horiz-adv-x="472" d="M410 50Q410 31 398 12T367 -7Q350 -7 350 24V362Q350 395 307 395H287Q238 395 238 428Q238 437 255 476Q267 503 279 503Q284 503 297 494T321 484Q365 484 379 468T394 407Q394 390 393 357T392 306Q392 263 401 178T410 50ZM199 368Q199 324 180 280Q156 225 118 225Q106 225 106 240Q106 248 133 287T160 352Q160 370 146 382T112 395Q107 395 96 395Q85 394 80 394Q22 394 22 428Q22 435 39 476Q50 503 62 503Q68 503 80 494T101 484L121 485Q161 485 182 445Q199 413 199 368Z"  />
<glyph unicode="&#x5F2;" horiz-adv-x="459" d="M419 368Q419 324 400 280Q376 225 338 225Q326 225 326 240Q326 248 353 287T380 352Q380 370 366 382T332 395Q327 395 316 395Q305 394 300 394Q242 394 242 428Q242 435 259 476Q270 503 282 503Q288 503 300 494T321 484L341 485Q381 485 402 445Q419 413 419 368ZM199 368Q199 324 180 280Q156 225 118 225Q106 225 106 240Q106 248 133 287T160 352Q160 370 146 382T112 395Q107 395 96 395Q85 394 80 394Q22 394 22 428Q22 435 39 476Q50 503 62 503Q68 503 80 494T101 484L121 485Q161 485 182 445Q199 413 199 368Z"  />
<glyph unicode="&#x5F3;" horiz-adv-x="283" d="M162 520Q162 474 120 418Q87 374 64 374Q54 374 54 383Q54 391 73 414T92 455Q92 468 74 485T56 516Q56 540 74 559T116 579Q137 579 149 561T162 520Z"  />
<glyph unicode="&#x5F4;" horiz-adv-x="425" d="M302 519Q302 473 260 417Q227 373 204 373Q195 373 195 382Q195 391 213 414T232 454Q232 467 214 484T196 515Q196 540 214 559T257 578Q278 578 290 560T302 519ZM162 519Q162 473 120 417Q87 373 64 373Q54 373 54 382Q54 390 73 413T92 454Q92 467 74 484T56 515Q56 539 74 558T116 578Q137 578 149 560T162 519Z"  />
<glyph unicode="&#xF25;" horiz-adv-x="462" d="M424 291Q424 179 363 94Q296 0 188 0Q162 0 162 21Q162 40 176 69Q183 83 187 86T206 90H218Q282 90 330 144T379 263Q379 395 253 395H92Q32 395 32 452Q32 483 44 542T57 632Q57 659 32 693T6 743Q6 764 18 782T50 800Q79 800 95 773Q108 751 108 719Q108 661 93 587Q79 517 79 497Q79 484 100 484H256Q339 484 384 428Q424 376 424 291Z"  />
<glyph unicode="&#x200E;" horiz-adv-x="406" d="M375 448L211 296V404H141V0H55V490H211V600L375 448Z"  />
<glyph unicode="&#x200F;" horiz-adv-x="406" d="M351 0H265V404H195V296L31 448L195 600V490H351V0Z"  />
<glyph unicode="&#x2013;" horiz-adv-x="380" d="M321 473Q321 434 295 434H72Q60 434 60 445Q60 484 86 484H310Q321 484 321 473Z"  />
<glyph unicode="&#x2014;" horiz-adv-x="651" d="M591 259Q591 220 565 220H72Q60 220 60 231Q60 270 86 270H580Q591 270 591 259Z"  />
<glyph unicode="&#x201A;" horiz-adv-x="283" d="M150 61Q150 15 108 -41Q75 -85 52 -85Q42 -85 42 -76Q42 -68 61 -45T80 -4Q80 9 62 26T44 57Q44 81 62 100T104 120Q125 120 137 102T150 61Z"  />
<glyph unicode="&#x201C;" horiz-adv-x="380" d="M356 105Q356 95 350 83T334 70Q330 70 326 74L190 210L54 74Q50 70 46 70Q37 70 31 82T24 105Q24 115 29 120L156 245L29 371Q24 376 24 385Q24 395 30 407T46 420Q51 420 54 417L190 281L326 417Q329 420 334 420Q343 420 349 408T356 385Q356 376 351 371L225 245L351 120Q356 115 356 105Z"  />
<glyph unicode="&#x201D;" horiz-adv-x="380" d="M244 417Q244 391 223 373T174 354Q157 354 145 368T133 400Q133 424 152 442T196 460Q214 460 229 448T244 417ZM391 260Q391 220 365 220H0Q-11 220 -11 231Q-11 270 15 270H380Q391 270 391 260ZM244 92Q244 66 223 48T174 29Q157 29 145 43T133 75Q133 99 152 117T196 135Q214 135 229 123T244 92Z"  />
<glyph unicode="&#x2020;" horiz-adv-x="271" d="M222 423H155V66H119V423H53V456H119V520Q119 531 110 552T101 585Q101 597 108 618T120 664T137 689Q149 689 154 664T166 618T173 585Q173 573 164 552T155 520V456H222V423Z"  />
<glyph unicode="&#x2021;" horiz-adv-x="271" d="M221 174H154V110Q154 99 163 78T172 45Q172 33 165 12T153 -33Q147 -60 136 -60Q125 -60 119 -33Q114 -9 107 12T100 45Q100 57 109 78T118 110V174H52V207H118V422H52V456H118V520Q118 531 109 551T100 584Q100 597 107 618T119 664T136 689Q148 689 153 664T165 618T172 584Q172 572 163 552T154 520V456H221V422H154V207H221V174Z"  />
<glyph unicode="&#x2022;" horiz-adv-x="471" d="M405 227Q405 163 355 117T234 71Q163 71 113 117T62 227Q62 291 112 336T234 382Q305 382 355 337T405 227Z"  />
<glyph unicode="&#x2026;" horiz-adv-x="528" d="M478 57Q478 31 456 13T407 -6Q390 -6 379 8T367 40Q367 64 386 82T431 100Q449 100 463 88T478 57ZM321 57Q321 31 299 13T250 -6Q233 -6 222 8T210 40Q210 64 229 82T274 100Q292 100 306 88T321 57ZM165 57Q165 31 143 13T94 -6Q77 -6 66 8T54 40Q54 64 73 82T118 100Q136 100 150 88T165 57Z"  />
<glyph unicode="&#x2030;" horiz-adv-x="1138" d="M1096 179Q1096 101 1055 48Q1010 -11 930 -11Q847 -11 798 49Q755 102 755 179Q755 254 798 307Q845 365 926 365Q1007 365 1054 306Q1096 254 1096 179ZM736 179Q736 101 695 48Q650 -11 570 -11Q487 -11 438 49Q394 103 394 179Q394 254 437 307Q484 365 565 365Q647 365 694 306Q736 254 736 179ZM638 656L173 -4H126L591 656H638ZM372 469Q372 391 331 339Q286 280 206 280Q123 280 74 339Q31 393 31 469Q31 545 74 597Q121 656 202 656Q283 656 330 597Q372 544 372 469ZM1001 167V190Q1001 269 990 299Q975 344 926 344Q877 344 861 299Q850 269 850 190V167Q850 85 861 56Q877 11 930 11Q976 11 991 54Q1001 85 1001 167ZM640 167V190Q640 269 629 299Q614 344 565 344Q516 344 500 299Q490 269 490 190V167Q490 85 501 56Q517 11 570 11Q616 11 630 54Q640 84 640 167ZM277 458V481Q277 560 266 590Q251 634 202 634Q153 634 137 589Q126 559 126 481V458Q126 376 137 346Q153 301 206 301Q252 301 267 345Q277 375 277 458Z"  />
<glyph unicode="&#x2039;" horiz-adv-x="271" d="M238 108H208L29 258L208 408H238L109 258L238 108Z"  />
<glyph unicode="&#x203A;" horiz-adv-x="271" d="M243 258L63 108H35L164 258L35 408H63L243 258Z"  />
<glyph unicode="&#x20AA;" horiz-adv-x="644" d="M578 246Q578 192 557 120Q532 37 498 11Q475 -7 450 -7Q438 -7 438 10Q438 22 470 60Q535 138 535 240Q535 306 492 352T383 399Q332 399 287 367T230 285Q227 270 225 255Q220 232 212 232Q199 232 189 256Q180 277 180 292Q180 372 238 434T376 496Q469 496 527 415Q578 343 578 246ZM422 197Q422 117 363 55T225 -7Q132 -7 75 74Q24 146 24 243Q24 297 45 369Q70 452 104 478Q127 496 152 496Q164 496 164 479Q164 467 132 429Q67 351 67 249Q67 183 110 137T219 90Q270 90 315 122T371 204Q374 219 377 234Q382 257 390 257Q403 257 412 235T422 197Z"  />
<glyph unicode="&#x20AC;" horiz-adv-x="615" d="M589 52Q509 -16 403 -16Q307 -16 231 41T127 191H29L63 251H117Q116 271 116 271Q116 278 117 294H29L63 354H128Q157 445 232 501T403 558Q509 558 589 490L558 437Q493 498 403 498Q334 498 278 459T192 354H512L476 294H177Q176 282 176 271Q176 266 177 251H452L417 191H190Q218 124 275 84T403 44Q493 44 558 105L572 79Q575 74 589 52Z"  />
<glyph unicode="&#x2122;" horiz-adv-x="510" d="M467 464H371V480H399V596L351 464H339L286 589V480H315V464H238V480H266V628H238V645H301L353 522L399 645H467V628H440V480H467V464ZM216 600H199Q198 607 196 612Q190 628 169 628H147V480H175V464H78V480H105V628H82Q56 628 52 600H35L40 645H212L216 600Z"  />
<glyph unicode="&#x2153;" horiz-adv-x="561" d="M188 238Q188 206 164 206H50Q32 206 32 221Q32 227 35 236Q41 254 52 254H98V424Q98 445 86 445Q77 445 67 432T49 418Q41 418 41 432Q41 451 62 479T102 508Q133 508 133 444Q133 439 132 432Q132 425 132 423V254H169Q188 254 188 238ZM529 85Q529 37 490 6T403 -26Q374 -26 346 -15Q311 -1 311 23Q311 40 334 40Q348 40 375 28T418 16Q448 16 472 34T497 82Q497 108 470 123Q447 136 419 136Q414 136 403 134T386 132Q373 132 373 140Q373 144 421 168T470 218Q470 240 452 251T410 263Q384 263 352 238T323 212Q316 212 316 226Q316 239 324 253Q351 301 411 301Q446 301 473 284Q504 263 504 230Q504 182 454 164Q484 164 506 140T529 85ZM402 687Q402 658 380 593Q363 546 347 498L193 -1Q186 -28 169 -80Q158 -103 139 -103Q120 -103 120 -91Q120 -86 125 -72Q190 114 329 589Q336 616 353 669Q360 688 365 692T389 697Q402 697 402 687Z"  />
<glyph unicode="&#x2154;" horiz-adv-x="561" d="M209 418Q209 370 166 343Q127 324 86 304T45 253H187Q205 253 205 238Q205 205 185 205H34Q12 205 12 240Q12 244 12 251T12 261Q12 294 56 320Q96 340 136 360Q180 384 180 411Q180 439 155 453Q134 466 104 466Q76 466 49 442T25 418Q16 418 16 432Q16 443 24 459Q48 507 103 507Q146 507 177 483T209 418ZM549 85Q549 37 510 6T423 -26Q394 -26 367 -15Q331 -1 331 23Q331 40 354 40Q368 40 395 28T438 16Q469 16 493 34T517 82Q517 108 490 123Q468 136 440 136Q434 136 423 134T407 132Q393 132 393 140Q393 144 442 168T491 218Q491 240 473 251T431 263Q404 263 372 238T343 212Q336 212 336 226Q336 239 344 253Q372 301 431 301Q467 301 493 284Q524 263 524 230Q524 182 474 164Q504 164 526 140T549 85ZM427 687Q427 658 405 593Q388 546 372 498L218 -1Q211 -28 194 -80Q183 -103 164 -103Q145 -103 145 -91Q145 -86 150 -72Q215 114 354 589Q361 616 378 669Q384 688 389 692T414 697Q427 697 427 687Z"  />
<glyph unicode="&#x2212;" horiz-adv-x="277" d="M277 231H4V262H277V231Z"  />
<glyph unicode="&#x2219;" horiz-adv-x="231" d="M172 309Q172 287 155 272T112 257Q87 257 70 272T52 309Q52 331 69 346T112 361Q137 361 154 346T172 309Z"  />
<glyph unicode="&#xE802;" horiz-adv-x="449" d="M387 -139Q387 -156 372 -178T341 -200Q323 -200 323 -169V266Q323 320 302 354Q276 395 225 395H87Q26 395 26 428Q26 437 43 476Q55 503 67 503Q72 503 85 494T109 485H224Q368 485 368 270V137Q368 61 385 -110Q387 -130 387 -139ZM198 270Q198 254 185 243T156 232Q132 232 132 260Q132 274 143 285T169 296Q198 296 198 270ZM198 185Q198 169 185 158T156 147Q132 147 132 174Q132 188 143 199T169 210Q198 210 198 185Z"  />
<glyph unicode="&#xE803;" horiz-adv-x="449" d="M387 -139Q387 -156 372 -178T341 -200Q323 -200 323 -169V266Q323 320 302 354Q276 395 225 395H87Q26 395 26 428Q26 437 43 476Q55 503 67 503Q72 503 85 494T109 485H224Q368 485 368 270V137Q368 61 385 -110Q387 -130 387 -139ZM254 275Q254 240 216 240H195V186Q195 162 159 162Q150 162 150 172V240H101Q91 240 91 249Q91 285 115 285H244Q254 285 254 275Z"  />
<glyph unicode="&#xE804;" horiz-adv-x="462" d="M424 291Q424 179 363 94Q296 0 188 0Q162 0 162 21Q162 40 176 69Q183 83 187 86T206 90H218Q282 90 330 144T379 263Q379 395 253 395H92Q32 395 32 452Q32 483 44 542T57 632Q57 659 32 693T6 743Q6 764 18 782T50 800Q79 800 95 773Q108 751 108 719Q108 661 93 587Q79 517 79 497Q79 484 100 484H256Q339 484 384 428Q424 376 424 291ZM10 602Q10 587 -3 577T-32 566Q-56 566 -56 593Q-56 607 -45 617T-19 628Q10 628 10 602Z"  />
<glyph unicode="&#xE805;" horiz-adv-x="462" d="M424 291Q424 179 363 94Q296 0 188 0Q162 0 162 21Q162 40 176 69Q183 83 187 86T206 90H218Q282 90 330 144T379 263Q379 395 253 395H92Q32 395 32 452Q32 483 44 542T57 632Q57 659 32 693T6 743Q6 764 18 782T50 800Q79 800 95 773Q108 751 108 719Q108 661 93 587Q79 517 79 497Q79 484 100 484H256Q339 484 384 428Q424 376 424 291ZM10 602Q10 587 -3 577T-32 566Q-56 566 -56 593Q-56 607 -45 617T-19 628Q10 628 10 602ZM229 252Q229 236 216 226T187 216Q163 216 163 242Q163 257 174 267T200 278Q229 278 229 252Z"  />
<glyph unicode="&#xFB1F;" horiz-adv-x="492" d="M441 368Q441 324 422 280Q398 225 360 225Q348 225 348 240Q348 248 375 287T402 352Q402 370 388 382T354 395Q349 395 338 395Q327 394 322 394Q264 394 264 428Q264 435 281 476Q292 503 304 503Q310 503 322 494T343 484L363 485Q403 487 424 446Q441 413 441 368ZM221 368Q221 324 202 280Q178 225 140 225Q128 225 128 240Q128 248 155 287T182 352Q182 370 168 382T134 395Q129 395 118 395Q107 394 102 394Q44 394 44 428Q44 435 61 476Q72 503 84 503Q90 503 102 494T123 484L143 485Q183 487 204 446Q221 413 221 368ZM452 0H22V38H452V0Z"  />
<glyph unicode="&#xFB20;" horiz-adv-x="542" d="M504 296Q504 180 444 95Q378 0 266 0H61Q30 0 30 21Q30 38 44 69Q51 84 55 87T74 90H183Q203 90 203 112Q203 177 139 281T75 424Q75 440 86 469Q98 503 110 503Q124 503 142 447Q149 427 228 215Q275 90 311 90Q371 90 415 152Q455 208 455 271Q455 395 341 395H319Q292 395 292 412Q292 424 309 460Q316 475 321 479T340 484Q419 484 463 428Q504 377 504 296Z"  />
<glyph unicode="&#xFB21;" horiz-adv-x="496" d="M456 240Q456 190 434 117Q408 34 376 11Q351 -7 328 -7Q316 -7 316 10Q316 21 348 60Q413 139 413 241Q413 303 371 349T268 395H90Q34 395 34 428Q34 436 51 476Q62 503 74 503Q82 503 101 494T133 484L252 485Q348 486 405 409Q456 340 456 240ZM135 50Q135 -7 96 -7Q79 -7 79 24Q79 34 79 54Q78 73 78 83V235Q78 275 98 275Q118 275 121 216Q122 193 129 133Q135 81 135 50Z"  />
<glyph unicode="&#xFB22;" horiz-adv-x="466" d="M430 464Q430 446 416 423T380 388T352 371Q340 355 340 314Q340 271 347 187T354 60Q354 35 344 16Q331 -7 308 -7Q294 -7 294 20V307Q294 372 319 395H78Q26 395 26 428Q26 434 43 476Q54 503 66 503Q72 503 85 494T109 485H400Q430 485 430 464Z"  />
<glyph unicode="&#xFB24;" horiz-adv-x="443" d="M405 245Q405 148 351 77Q292 0 198 0H61Q30 0 30 21Q30 44 43 69Q50 83 55 86T76 90H217Q283 90 322 132T361 241Q361 309 321 352T213 395H86Q34 395 34 428Q34 437 51 476Q63 503 75 503Q80 503 94 494T118 485H205Q297 485 353 409Q405 340 405 245Z"  />
<glyph unicode="&#xFB26;" horiz-adv-x="561" d="M507 87Q507 0 440 0H157Q109 0 93 27Q82 47 82 99V338Q82 359 55 388T28 438Q28 449 50 476T83 503Q88 503 102 489T127 475Q136 475 168 479Q208 484 257 484H358Q417 484 444 472Q479 456 493 418Q502 394 505 344Q507 308 507 279V87ZM464 155V207Q464 245 461 276Q453 355 433 375T335 395H208Q166 395 148 385Q122 370 122 332Q122 330 122 326Q123 322 123 320L131 145Q133 91 159 91H413Q444 91 456 109Q464 123 464 155Z"  />
<glyph unicode="&#xFB27;" horiz-adv-x="434" d="M394 240Q394 189 372 117Q346 36 314 11Q290 -7 266 -7Q254 -7 254 10Q254 21 286 60Q351 138 351 241Q351 303 309 349T206 395H86Q26 395 26 428Q26 436 43 476Q54 503 66 503Q71 503 85 494T109 485H193Q286 485 343 407Q394 337 394 240Z"  />
<glyph unicode="&#xFB28;" horiz-adv-x="557" d="M517 233Q517 185 493 114Q467 35 436 11Q413 -7 389 -7Q376 -7 376 10Q376 20 409 60Q474 138 474 241Q474 317 430 356T308 395H287Q217 395 189 382Q144 361 144 300Q144 262 164 189T184 78Q184 47 166 24T117 0H62Q30 0 30 21Q30 45 48 77Q55 90 66 90H80Q119 90 119 114Q119 120 108 162Q100 193 100 243Q100 261 104 296T108 349Q108 368 84 393T60 437Q60 449 81 477T115 505Q121 505 134 490T158 475Q171 475 199 480T241 485H304Q407 485 465 409Q517 340 517 233Z"  />
<glyph unicode="&#xFB2A;" horiz-adv-x="542" d="M502 257Q502 212 481 162Q412 0 262 0H161Q118 0 102 17T85 77V219Q85 234 81 264T76 309T57 355T38 406Q38 431 48 463Q60 503 79 503Q98 503 111 435T135 367Q149 367 194 446Q228 506 245 544Q277 617 301 617Q322 617 322 585Q322 547 227 409T132 225V174Q132 115 146 99Q154 90 178 90H310Q366 90 412 140T459 248Q459 302 430 343Q398 390 346 390Q315 390 315 410Q315 431 328 461T362 491Q439 491 476 408Q502 347 502 257ZM459 602Q459 587 446 577T417 566Q393 566 393 593Q393 607 404 617T430 628Q459 628 459 602Z"  />
<glyph unicode="&#xFB2B;" horiz-adv-x="542" d="M502 257Q502 212 481 162Q412 0 262 0H161Q118 0 102 17T85 77V219Q85 234 81 264T76 309T57 355T38 406Q38 431 48 463Q60 503 79 503Q98 503 111 435T135 367Q149 367 194 446Q228 506 245 544Q277 617 301 617Q322 617 322 585Q322 547 227 409T132 225V174Q132 115 146 99Q154 90 178 90H310Q366 90 412 140T459 248Q459 302 430 343Q398 390 346 390Q315 390 315 410Q315 431 328 461T362 491Q439 491 476 408Q502 347 502 257ZM119 602Q119 587 106 577T77 566Q53 566 53 593Q53 607 64 617T90 628Q119 628 119 602Z"  />
<glyph unicode="&#xFB2C;" horiz-adv-x="542" d="M502 257Q502 212 481 162Q412 0 262 0H161Q118 0 102 17T85 77V219Q85 234 81 264T76 309T57 355T38 406Q38 431 48 463Q60 503 79 503Q98 503 111 435T135 367Q149 367 194 446Q228 506 245 544Q277 617 301 617Q322 617 322 585Q322 547 227 409T132 225V174Q132 115 146 99Q154 90 178 90H310Q366 90 412 140T459 248Q459 302 430 343Q398 390 346 390Q315 390 315 410Q315 431 328 461T362 491Q439 491 476 408Q502 347 502 257ZM459 602Q459 587 446 577T417 566Q393 566 393 593Q393 607 404 617T430 628Q459 628 459 602ZM319 252Q319 236 306 226T277 216Q253 216 253 242Q253 257 264 267T290 278Q319 278 319 252Z"  />
<glyph unicode="&#xFB2D;" horiz-adv-x="542" d="M502 257Q502 212 481 162Q412 0 262 0H161Q118 0 102 17T85 77V219Q85 234 81 264T76 309T57 355T38 406Q38 431 48 463Q60 503 79 503Q98 503 111 435T135 367Q149 367 194 446Q228 506 245 544Q277 617 301 617Q322 617 322 585Q322 547 227 409T132 225V174Q132 115 146 99Q154 90 178 90H310Q366 90 412 140T459 248Q459 302 430 343Q398 390 346 390Q315 390 315 410Q315 431 328 461T362 491Q439 491 476 408Q502 347 502 257ZM119 602Q119 587 106 577T77 566Q53 566 53 593Q53 607 64 617T90 628Q119 628 119 602ZM329 252Q329 236 316 226T287 216Q263 216 263 242Q263 257 274 267T300 278Q329 278 329 252Z"  />
<glyph unicode="&#xFB2E;" horiz-adv-x="465" d="M427 588Q427 548 362 480Q286 399 275 376Q411 329 411 177Q411 94 365 28Q339 -9 309 -9Q298 -9 298 7Q298 16 315 38Q328 52 340 67Q364 103 364 164Q364 297 175 297Q142 297 131 264Q124 242 124 202V50Q124 28 114 11Q102 -10 82 -10Q63 -10 63 26Q63 48 66 92T70 159Q70 296 47 368Q30 421 30 438Q30 453 51 484T87 515Q111 515 120 461Q120 458 125 388Q126 371 134 371Q184 371 248 432Q298 480 333 538Q347 562 362 586Q385 619 401 619Q427 619 427 588ZM296 -103Q296 -138 270 -138H145Q133 -138 133 -129Q133 -93 159 -93H285Q296 -93 296 -103Z"  />
<glyph unicode="&#xFB2F;" horiz-adv-x="465" d="M427 588Q427 548 362 480Q286 399 275 376Q411 329 411 177Q411 94 365 28Q339 -9 309 -9Q298 -9 298 7Q298 16 315 38Q328 52 340 67Q364 103 364 164Q364 297 175 297Q142 297 131 264Q124 242 124 202V50Q124 28 114 11Q102 -10 82 -10Q63 -10 63 26Q63 48 66 92T70 159Q70 296 47 368Q30 421 30 438Q30 453 51 484T87 515Q111 515 120 461Q120 458 125 388Q126 371 134 371Q184 371 248 432Q298 480 333 538Q347 562 362 586Q385 619 401 619Q427 619 427 588ZM306 -103Q306 -138 268 -138H247V-192Q247 -216 211 -216Q202 -216 202 -206V-138H153Q143 -138 143 -129Q143 -93 167 -93H296Q306 -93 306 -103Z"  />
<glyph unicode="&#xFB30;" horiz-adv-x="465" d="M427 588Q427 548 362 480Q286 399 275 376Q411 329 411 177Q411 94 365 28Q339 -9 309 -9Q298 -9 298 7Q298 16 315 38Q328 52 340 67Q364 103 364 164Q364 297 175 297Q142 297 131 264Q124 242 124 202V50Q124 28 114 11Q102 -10 82 -10Q63 -10 63 26Q63 48 66 92T70 159Q70 296 47 368Q30 421 30 438Q30 453 51 484T87 515Q111 515 120 461Q120 458 125 388Q126 371 134 371Q184 371 248 432Q298 480 333 538Q347 562 362 586Q385 619 401 619Q427 619 427 588ZM241 -108Q241 -124 228 -134T199 -145Q175 -145 175 -118Q175 -104 186 -93T212 -82Q241 -82 241 -108Z"  />
<glyph unicode="&#xFB31;" horiz-adv-x="472" d="M442 73Q442 64 427 30Q414 0 396 0H61Q30 0 30 21Q30 40 45 69Q56 90 76 90H198Q267 90 318 144T369 267Q369 317 338 356T257 395H94Q34 395 34 428Q34 435 51 476Q62 503 74 503Q80 503 95 494T120 484H255Q336 484 377 420Q411 367 411 281Q411 226 387 174Q377 156 367 138Q354 113 354 102Q354 89 391 89Q397 89 405 90Q413 90 414 90Q442 90 442 73ZM229 252Q229 236 216 226T187 216Q163 216 163 242Q163 257 174 267T200 278Q229 278 229 252Z"  />
<glyph unicode="&#xFB32;" horiz-adv-x="337" d="M297 96Q297 74 282 36Q266 -7 248 -7Q233 -7 217 59T194 126Q186 126 144 42Q110 -26 95 -61Q64 -135 40 -135Q14 -135 14 -109Q14 -90 43 -43Q78 23 151 153Q179 202 182 207Q197 239 197 266V359Q197 395 150 395H126Q74 395 74 428Q74 437 91 476Q103 503 115 503Q121 503 134 494T157 484Q201 484 219 467T237 407V247Q237 214 267 159T297 96ZM150 252Q150 236 137 226T108 216Q84 216 84 242Q84 257 95 267T121 278Q150 278 150 252Z"  />
<glyph unicode="&#xFB33;" horiz-adv-x="466" d="M430 464Q430 446 416 423T380 388T352 371Q340 355 340 314Q340 271 347 187T354 60Q354 35 344 16Q331 -7 308 -7Q294 -7 294 20V307Q294 372 319 395H78Q26 395 26 428Q26 434 43 476Q54 503 66 503Q72 503 85 494T109 485H400Q430 485 430 464ZM199 252Q199 236 186 226T157 216Q133 216 133 242Q133 257 144 267T170 278Q199 278 199 252Z"  />
<glyph unicode="&#xFB34;" horiz-adv-x="496" d="M456 240Q456 190 434 117Q408 34 376 11Q351 -7 328 -7Q316 -7 316 10Q316 21 348 60Q413 139 413 241Q413 303 371 349T268 395H90Q34 395 34 428Q34 436 51 476Q62 503 74 503Q82 503 101 494T133 484L252 485Q348 485 405 409Q456 340 456 240ZM135 50Q135 -7 96 -7Q79 -7 79 24Q79 34 79 54Q78 73 78 83V235Q78 275 98 275Q118 275 121 216Q122 193 129 133Q135 80 135 50ZM289 252Q289 236 276 226T247 216Q223 216 223 242Q223 257 234 267T260 278Q289 278 289 252Z"  />
<glyph unicode="&#xFB35;" horiz-adv-x="262" d="M200 50Q200 31 188 12T157 -7Q140 -7 140 24V362Q140 395 97 395H77Q28 395 28 428Q28 437 45 476Q57 503 69 503Q74 503 87 494T111 484Q155 484 169 468T184 407Q184 390 183 357T182 306Q182 263 191 178T200 50ZM110 252Q110 236 97 226T68 216Q44 216 44 242Q44 257 55 267T81 278Q110 278 110 252Z"  />
<glyph unicode="&#xFB36;" horiz-adv-x="304" d="M264 464Q264 450 253 425Q240 395 218 395Q134 395 134 311Q134 271 163 200T192 91Q192 71 179 35Q164 -7 149 -7Q133 -7 122 56Q114 95 101 173Q94 224 94 277Q94 333 122 395Q122 395 96 395Q30 395 30 432Q30 441 45 476Q56 503 68 503Q74 503 88 494T111 485H233Q264 485 264 464ZM70 252Q70 236 57 226T28 216Q4 216 4 242Q4 257 15 267T41 278Q70 278 70 252Z"  />
<glyph unicode="&#xFB38;" horiz-adv-x="551" d="M511 291Q511 170 451 87Q383 -7 267 -7Q100 -7 100 210Q100 297 60 351Q49 365 38 378Q26 395 26 410Q26 435 41 467Q58 504 80 504Q96 504 114 459Q128 426 134 398Q145 346 145 249Q145 90 233 90H319Q381 90 426 154Q466 213 466 278Q466 325 446 362Q422 406 379 406Q358 406 326 383T273 360Q260 360 260 380Q260 392 270 414Q310 503 374 503Q447 503 483 429Q511 372 511 291ZM329 252Q329 236 316 226T287 216Q263 216 263 242Q263 257 274 267T300 278Q329 278 329 252Z"  />
<glyph unicode="&#xFB39;" horiz-adv-x="239" d="M199 368Q199 324 180 280Q156 225 118 225Q106 225 106 240Q106 248 133 287T160 352Q160 370 146 382T112 395Q107 395 96 395Q85 394 80 394Q22 394 22 428Q22 435 39 476Q50 503 62 503Q68 503 80 494T101 484L121 485Q161 485 182 445Q199 413 199 368ZM100 322Q100 306 87 296T58 286Q34 286 34 312Q34 327 45 337T71 348Q100 348 100 322Z"  />
<glyph unicode="&#xFB3A;" horiz-adv-x="449" d="M387 -139Q387 -156 372 -178T341 -200Q323 -200 323 -169V266Q323 320 302 354Q276 395 225 395H87Q26 395 26 428Q26 437 43 476Q55 503 67 503Q72 503 85 494T109 485H224Q368 485 368 270V137Q368 61 385 -110Q387 -130 387 -139ZM199 252Q199 236 186 226T157 216Q133 216 133 242Q133 257 144 267T170 278Q199 278 199 252Z"  />
<glyph unicode="&#xFB3B;" horiz-adv-x="443" d="M405 245Q405 148 351 77Q292 0 198 0H61Q30 0 30 21Q30 44 43 69Q50 83 55 86T76 90H217Q283 90 322 132T361 241Q361 309 321 352T213 395H86Q34 395 34 428Q34 437 51 476Q63 503 75 503Q80 503 94 494T118 485H205Q297 485 353 409Q405 340 405 245ZM219 252Q219 236 206 226T177 216Q153 216 153 242Q153 257 164 267T190 278Q219 278 219 252Z"  />
<glyph unicode="&#xFB3C;" horiz-adv-x="462" d="M424 291Q424 179 363 94Q296 0 188 0Q162 0 162 21Q162 40 176 69Q183 83 187 86T206 90H218Q282 90 330 144T379 263Q379 395 253 395H92Q32 395 32 452Q32 483 44 542T57 632Q57 659 32 693T6 743Q6 764 18 782T50 800Q79 800 95 773Q108 751 108 719Q108 661 93 587Q79 517 79 497Q79 484 100 484H256Q339 484 384 428Q424 376 424 291ZM229 252Q229 236 216 226T187 216Q163 216 163 242Q163 257 174 267T200 278Q229 278 229 252Z"  />
<glyph unicode="&#xFB3E;" horiz-adv-x="551" d="M514 246Q514 150 459 78Q400 0 306 0H268Q237 0 237 21Q237 42 250 69Q257 84 261 87T282 90H282H282H324Q385 90 425 136Q462 180 462 242Q462 304 424 353T325 403H289Q231 403 194 366T156 272V24Q156 -7 139 -7Q119 -7 108 13Q99 29 99 50Q99 67 103 113Q111 206 111 284Q111 315 74 354T36 410Q36 429 52 464Q70 504 85 504Q106 504 128 446T155 388Q161 388 174 408Q182 421 190 434Q233 496 312 496Q404 496 462 415Q514 342 514 246ZM339 252Q339 236 326 226T297 216Q273 216 273 242Q273 257 284 267T310 278Q339 278 339 252Z"  />
<glyph unicode="&#xFB40;" horiz-adv-x="291" d="M237 159Q237 0 138 0H55Q24 0 24 21Q24 41 38 70Q45 84 49 87T69 90H126Q168 90 183 121Q192 141 192 189V291Q192 396 122 396Q119 396 113 396Q107 395 104 395Q39 395 39 428Q39 437 56 476Q68 503 80 503Q89 503 103 494T127 485H142Q237 485 237 272V159ZM150 252Q150 236 137 226T108 216Q84 216 84 242Q84 257 95 267T121 278Q150 278 150 252Z"  />
<glyph unicode="&#xFB41;" horiz-adv-x="539" d="M501 257Q501 213 480 162Q413 0 262 0H157Q110 0 94 28Q82 48 82 99V339Q82 360 55 388T28 438Q28 450 50 476T83 502Q88 502 102 489T128 476Q144 476 175 480T223 485H306Q399 485 452 416Q501 352 501 257ZM453 248Q453 314 424 352Q391 395 327 395H207Q123 395 123 332Q123 299 127 234T131 136Q131 90 155 90H296Q362 90 407 135T453 248ZM319 252Q319 236 306 226T277 216Q253 216 253 242Q253 257 264 267T290 278Q319 278 319 252Z"  />
<glyph unicode="&#xFB44;" horiz-adv-x="523" d="M483 234Q483 175 461 123Q433 58 389 29T272 0H83Q52 0 52 21Q52 43 65 69Q76 90 97 90H300Q363 90 401 131T439 237Q439 306 391 351T273 396Q115 396 115 323Q115 291 134 271T185 251Q206 251 237 272T281 294Q297 294 297 280Q297 245 253 210T172 175Q117 175 97 221Q84 252 84 316V348Q84 369 57 395T30 439Q30 448 53 475T85 503Q91 503 105 489T130 475Q139 475 178 480T274 485Q377 485 433 409Q483 341 483 234ZM399 252Q399 236 386 226T357 216Q333 216 333 242Q333 257 344 267T370 278Q399 278 399 252Z"  />
<glyph unicode="&#xFB46;" horiz-adv-x="459" d="M419 583Q419 560 351 475T283 367Q283 355 301 355H310Q372 355 398 313Q418 281 418 214Q418 118 345 57Q277 0 179 0H61Q30 0 30 21Q30 45 39 65Q50 90 71 90H208Q363 90 363 195Q363 255 332 276Q308 292 245 292H166Q109 292 76 334Q44 373 44 431Q44 448 59 474T89 501Q114 501 116 436Q119 366 141 359Q153 355 173 355H174H192Q211 355 275 447Q330 526 349 564Q373 614 394 614Q419 614 419 583ZM249 193Q249 177 236 167T207 157Q183 157 183 183Q183 198 194 208T220 219Q249 219 249 193Z"  />
<glyph unicode="&#xFB47;" horiz-adv-x="523" d="M483 262Q483 163 417 84Q348 0 251 0Q225 0 225 21Q225 42 238 69Q248 90 267 90H287Q349 90 392 139T435 251Q435 312 407 351Q375 395 316 395H103Q51 395 51 428Q51 439 68 476Q80 503 92 503Q97 503 112 494T137 485H282Q377 485 432 420Q483 359 483 262ZM159 -139Q159 -156 145 -178T113 -200Q95 -200 95 -169V232Q95 273 115 273Q140 273 140 231V137Q140 60 157 -110Q159 -130 159 -139ZM319 252Q319 236 306 226T277 216Q253 216 253 242Q253 257 264 267T290 278Q319 278 319 252Z"  />
<glyph unicode="&#xFB48;" horiz-adv-x="434" d="M394 240Q394 189 372 117Q346 36 314 11Q290 -7 266 -7Q254 -7 254 10Q254 21 286 60Q351 138 351 241Q351 303 309 349T206 395H86Q26 395 26 428Q26 436 43 476Q54 503 66 503Q71 503 85 494T109 485H193Q286 485 343 407Q394 337 394 240ZM219 252Q219 236 206 226T177 216Q153 216 153 242Q153 257 164 267T190 278Q219 278 219 252Z"  />
<glyph unicode="&#xFB49;" horiz-adv-x="542" d="M502 257Q502 212 481 162Q412 0 262 0H161Q118 0 102 17T85 77V219Q85 234 81 264T76 309T57 355T38 406Q38 431 48 463Q60 503 79 503Q98 503 111 435T135 367Q149 367 194 446Q228 506 245 544Q277 617 301 617Q322 617 322 585Q322 547 227 409T132 225V174Q132 115 146 99Q154 90 178 90H310Q366 90 412 140T459 248Q459 302 430 343Q398 390 346 390Q315 390 315 410Q315 431 328 461T362 491Q439 491 476 408Q502 347 502 257ZM329 252Q329 236 316 226T287 216Q263 216 263 242Q263 257 274 267T300 278Q329 278 329 252Z"  />
<glyph unicode="&#xFB4A;" horiz-adv-x="557" d="M517 233Q517 185 493 114Q467 35 436 11Q413 -7 389 -7Q376 -7 376 10Q376 20 409 60Q474 138 474 241Q474 317 430 356T308 395H287Q217 395 189 382Q144 361 144 300Q144 262 164 189T184 78Q184 47 166 24T117 0H62Q30 0 30 21Q30 45 48 77Q55 90 66 90H80Q119 90 119 114Q119 120 108 162Q100 193 100 243Q100 261 104 296T108 349Q108 368 84 393T60 437Q60 449 81 477T115 505Q121 505 134 490T158 475Q171 475 199 480T241 485H304Q407 485 465 409Q517 340 517 233ZM349 252Q349 236 336 226T307 216Q283 216 283 242Q283 257 294 267T320 278Q349 278 349 252Z"  />
<glyph unicode="&#xFB4B;" horiz-adv-x="262" d="M200 50Q200 31 188 12T157 -7Q140 -7 140 24V362Q140 395 97 395H77Q28 395 28 428Q28 437 45 476Q57 503 69 503Q74 503 87 494T111 484Q155 484 169 468T184 407Q184 390 183 357T182 306Q182 263 191 178T200 50ZM149 602Q149 587 136 577T107 566Q83 566 83 593Q83 607 94 617T120 628Q149 628 149 602Z"  />
<glyph unicode="&#xFB4C;" horiz-adv-x="472" d="M442 73Q442 64 427 30Q414 0 396 0H61Q30 0 30 21Q30 40 45 69Q56 90 76 90H198Q267 90 318 144T369 267Q369 317 338 356T257 395H94Q34 395 34 428Q34 435 51 476Q62 503 74 503Q80 503 95 494T120 484H255Q336 484 377 420Q411 367 411 281Q411 226 387 174Q377 156 367 138Q354 113 354 102Q354 89 391 89Q397 89 405 90Q413 90 414 90Q442 90 442 73ZM348 637Q348 602 322 602H87Q75 602 75 611Q75 647 101 647H337Q348 647 348 637Z"  />
<glyph unicode="&#xFB4D;" horiz-adv-x="443" d="M405 245Q405 148 351 77Q292 0 198 0H61Q30 0 30 21Q30 44 43 69Q50 83 55 86T76 90H217Q283 90 322 132T361 241Q361 309 321 352T213 395H86Q34 395 34 428Q34 437 51 476Q63 503 75 503Q80 503 94 494T118 485H205Q297 485 353 409Q405 340 405 245ZM328 637Q328 602 302 602H67Q55 602 55 611Q55 647 81 647H317Q328 647 328 637Z"  />
<glyph unicode="&#xFB4E;" horiz-adv-x="523" d="M483 234Q483 175 461 123Q433 58 389 29T272 0H83Q52 0 52 21Q52 43 65 69Q76 90 97 90H300Q363 90 401 131T439 237Q439 306 391 351T273 396Q115 396 115 323Q115 291 134 271T185 251Q206 251 237 272T281 294Q297 294 297 280Q297 245 253 210T172 175Q117 175 97 221Q84 252 84 316V348Q84 369 57 395T30 439Q30 448 53 475T85 503Q91 503 105 489T130 475Q139 475 178 480T274 485Q377 485 433 409Q483 341 483 234ZM368 637Q368 602 342 602H107Q95 602 95 611Q95 647 121 647H357Q368 647 368 637Z"  />
<glyph unicode="&#xFB4F;" horiz-adv-x="470" d="M435 62Q435 22 399 -8L181 254Q137 215 137 189Q137 174 162 133L201 69L182 0H62V33L99 45Q74 135 74 156Q74 217 159 281L100 352Q45 352 28 377Q14 396 14 455Q14 529 40 573Q36 579 7 597Q-14 611 -14 629Q-14 683 23 703V699Q23 686 70 665Q102 650 102 629Q102 620 82 576T62 503Q62 458 115 458H129L298 255Q300 275 356 356Q345 355 345 355Q276 355 276 440Q276 484 316 496Q324 458 347 458H383Q432 458 432 390Q432 383 427 357H396L354 287Q337 259 326 221L406 124Q435 89 435 62Z"  />


</font>
</defs>
</svg>
