<?xml  version="1.0" encoding="UTF-8"?>
<!DOCTYPE svg PUBLIC "-//W3C//DTD SVG 1.0//EN" "http://www.w3.org/TR/2001/REC-SVG-20010904/DTD/svg10.dtd" >
<svg xmlns="http://www.w3.org/2000/svg" >
<metadata>
<version>1.0</version>
<id><![CDATA[Oron W26 Text Bold]]></id>
<vendor>Monotype Imaging Inc.</vendor>
<credits>
<name>Fonts.com WebFonts</name>
<URL>http://webfonts.fonts.com</URL>
<role>Home of the Web fonts</role>
</credits>
<license>
<URL>http://webfonts.fonts.com/Legal</URL>
</license>
<copyright><![CDATA[Masterfont Studio Rosenberg 2003 (C) version 1.0]]></copyright>
<trademark></trademark>
<licensee>
<name></name>
</licensee>
</metadata>
<defs >
<font horiz-adv-x="468" id="95003465-f2ce-4a26-9e47-ff471837581e">
<font-face font-family="" panose-1="0 0 7 0 0 0 0 0 0 0" ascent="800" descent="-325" units-per-em="1000" alphabetic="0">
</font-face>
<missing-glyph horiz-adv-x="500" d="M63 0V800H438V0H63ZM125 63H375V738H125V63Z"  />

<glyph unicode="&#xA;" />
<glyph unicode="&#xD;" />
<glyph unicode=" " horiz-adv-x="282" />
<glyph unicode="!" horiz-adv-x="293" d="M206 566Q206 556 204 537Q196 477 189 418Q180 347 180 298Q180 292 181 281Q181 269 181 263Q181 202 141 202Q112 202 105 239Q102 252 102 299T93 418Q86 477 78 537Q76 556 76 566Q76 593 95 612T141 631Q168 631 187 612T206 566ZM211 75Q211 41 183 18T120 -6Q98 -6 83 12T68 53Q68 84 93 107T150 130Q173 130 192 114T211 75Z"  />
<glyph unicode="&quot;" horiz-adv-x="418" d="M364 501Q364 442 310 370Q267 313 238 313Q226 313 226 324Q226 335 250 365T274 417Q274 434 251 456T227 496Q227 528 250 552T306 577Q333 577 350 552Q364 529 364 501ZM193 501Q193 442 139 370Q96 313 67 313Q54 313 54 324Q54 334 78 365T103 417Q103 434 80 456T56 496Q56 528 79 552T134 577Q161 577 177 553T193 501Z"  />
<glyph unicode="#" horiz-adv-x="546" d="M475 370Q475 327 450 327H393L362 158H409Q431 158 431 138Q431 93 407 93H352L338 18Q335 0 308 0Q279 0 279 16Q279 27 292 93H171L158 18Q155 0 128 0Q99 0 99 17Q99 22 111 93H66Q42 93 42 115Q42 158 67 158H124L154 327H107Q85 327 85 347Q85 391 110 391H166L180 466Q183 484 210 484Q239 484 239 468Q239 462 225 391H346L360 466Q363 484 390 484Q419 484 419 468Q419 458 406 391H451Q475 391 475 370ZM333 327H215L184 158H303L333 327Z"  />
<glyph unicode="$" horiz-adv-x="569" d="M493 93Q493 30 429 -9Q374 -42 307 -42Q307 -42 307 -57Q307 -102 282 -102Q252 -102 256 -42Q185 -42 127 -1Q64 43 64 112Q64 131 77 146T109 162Q130 162 145 146T160 108Q160 74 192 51Q220 31 256 31V195Q68 259 68 368Q68 432 133 470Q187 502 256 502Q256 502 256 539Q256 589 282 589Q305 589 307 548Q308 521 307 501Q369 500 425 457Q485 410 485 350Q485 330 474 315T444 300Q422 300 409 316T395 355Q395 383 366 404T308 427V264Q392 234 431 206Q493 160 493 93ZM256 286V428Q226 427 200 412Q169 394 169 367Q169 311 256 286ZM393 96Q393 154 307 177V33Q338 34 363 49Q393 68 393 96Z"  />
<glyph unicode="%" horiz-adv-x="682" d="M561 582Q561 579 559 575L195 -68Q189 -79 150 -79Q120 -79 120 -69Q120 -66 122 -62L486 581Q492 592 524 592Q561 592 561 582ZM598 95Q598 44 568 4Q535 -41 486 -41Q435 -41 405 -4T374 85Q374 136 404 176Q436 220 485 220Q536 220 567 184T598 95ZM292 400Q292 349 262 309Q229 264 180 264Q129 264 98 302Q68 337 68 389Q68 440 98 480Q131 525 180 525Q231 525 261 489T292 400ZM558 97Q558 124 536 139T486 155Q457 155 435 134T413 83Q413 56 435 40T485 24Q514 24 536 46T558 97ZM253 402Q253 429 231 444T181 460Q152 460 130 439T107 388Q107 361 131 344Q152 329 180 329Q209 329 231 351T253 402Z"  />
<glyph unicode="&apos;" horiz-adv-x="243" d="M193 501Q193 442 139 370Q96 313 67 313Q54 313 54 324Q54 334 78 365T103 417Q103 434 80 456T56 496Q56 528 79 552T134 577Q161 577 177 553T193 501Z"  />
<glyph unicode="(" horiz-adv-x="301" d="M258 -70Q258 -91 234 -91Q191 -91 160 -72T98 11Q74 61 61 110Q38 199 38 317Q38 435 85 544Q103 586 136 632Q179 694 206 694Q222 694 222 674Q222 656 193 619Q99 498 99 317Q99 123 213 -4Q258 -54 258 -70Z"  />
<glyph unicode=")" horiz-adv-x="311" d="M263 273Q263 155 216 46Q198 4 165 -42Q122 -104 95 -104Q79 -104 79 -84Q79 -66 108 -29Q202 92 202 273Q202 360 174 444Q143 534 89 594Q43 645 43 657Q43 680 79 680Q113 680 143 661T204 579Q228 529 241 480Q263 394 263 273Z"  />
<glyph unicode="*" horiz-adv-x="476" d="M373 505Q373 477 338 457Q307 440 277 440Q263 440 263 447Q263 453 278 458Q289 462 299 466T318 503Q325 529 349 529Q373 529 373 505ZM247 540Q247 524 241 499Q233 468 222 468Q215 468 215 476Q215 482 217 492T220 509Q220 522 203 539T186 569Q186 596 212 596Q247 596 247 540ZM384 352Q384 326 351 326Q329 326 297 348T264 392Q264 398 270 398Q279 398 291 386T313 373Q320 373 332 377T351 382Q364 382 374 373T384 352ZM181 447Q181 441 175 441Q166 441 154 453T131 466Q124 466 112 462T92 457Q80 457 70 466T60 487Q60 513 92 513Q114 513 147 491T181 447ZM258 270Q258 243 233 243Q197 243 197 299Q197 315 203 340Q211 371 222 371Q228 371 228 363Q228 357 226 347T224 330Q224 317 241 300T258 270ZM181 392Q181 386 166 380Q156 377 146 372T127 336Q119 310 96 310Q70 310 70 334Q70 362 106 382Q137 399 167 399Q181 399 181 392Z"  />
<glyph unicode="+" horiz-adv-x="449" d="M358 263Q358 246 350 231Q340 213 324 213H256V146Q256 130 237 120Q222 112 204 112Q191 112 191 126V213H108Q92 213 92 227Q92 245 101 261T126 278H191V343Q191 359 209 369Q224 377 242 377Q256 377 256 362V278H344Q358 278 358 263Z"  />
<glyph unicode="&#x2c;" horiz-adv-x="237" d="M193 44Q193 -15 139 -87Q96 -144 67 -144Q54 -144 54 -133Q54 -123 78 -92T103 -40Q103 -23 80 -1T56 39Q56 71 79 95T134 120Q161 120 177 96T193 44Z"  />
<glyph unicode="-" horiz-adv-x="449" d="M358 263Q358 246 350 231Q340 213 324 213H108Q92 213 92 227Q92 245 101 261T126 278H344Q358 278 358 263Z"  />
<glyph unicode="." horiz-adv-x="241" d="M197 75Q197 41 169 18T106 -6Q84 -6 69 12T54 53Q54 84 79 107T136 130Q159 130 178 114T197 75Z"  />
<glyph unicode="/" horiz-adv-x="432" d="M364 685Q364 646 340 575Q320 521 301 466L162 16Q155 -15 134 -76Q126 -94 120 -98T95 -103Q68 -103 68 -89Q68 -83 73 -67Q154 187 229 437Q244 494 260 552Q278 620 298 664Q309 688 315 692T349 696Q364 696 364 685Z"  />
<glyph unicode="0" horiz-adv-x="476" d="M425 242Q425 144 381 74Q330 -9 238 -9Q147 -9 94 85Q51 163 51 262Q51 360 95 430Q146 513 238 513Q329 513 382 419Q425 341 425 242ZM366 235Q366 296 333 342Q296 393 237 393Q185 393 148 357T110 269Q110 208 143 162Q180 111 239 111Q296 111 331 144T366 235Z"  />
<glyph unicode="1" horiz-adv-x="476" d="M369 85Q369 64 357 34Q342 0 324 0H138Q107 0 107 25Q107 43 124 81Q137 111 155 111H203V350Q203 385 187 385Q175 385 157 367T122 348Q108 348 108 375Q108 421 143 461T224 502Q288 502 288 360V111H338Q369 111 369 85Z"  />
<glyph unicode="2" horiz-adv-x="476" d="M413 354Q413 274 345 223Q310 197 218 160Q149 133 148 111H375Q405 111 405 86Q405 65 393 35Q379 0 362 0H101Q63 0 63 58Q63 64 64 76Q64 87 64 93Q64 158 135 201Q200 231 265 262Q336 294 336 334Q336 373 300 394Q270 412 228 412Q191 412 146 380T90 347Q66 347 66 377Q66 397 79 422Q121 502 227 502Q299 502 353 465Q413 423 413 354Z"  />
<glyph unicode="3" horiz-adv-x="476" d="M431 141Q431 61 359 7Q292 -44 210 -44Q159 -44 109 -25Q45 1 45 43Q45 63 60 78T96 94Q121 94 166 76T237 58Q273 58 309 79Q349 102 349 136Q349 212 238 212Q229 212 211 209T183 206Q170 206 160 215T150 237Q150 250 190 270Q253 300 265 308Q305 334 305 364Q305 406 235 406Q184 406 142 386Q139 385 106 365Q79 348 74 348Q47 348 47 377Q47 397 61 422Q106 502 224 502Q285 502 333 473Q389 440 389 383Q389 346 360 315Q334 288 296 274Q348 273 389 233T431 141Z"  />
<glyph unicode="4" horiz-adv-x="476" d="M436 198Q436 173 424 147Q410 114 389 114H367V9Q367 -39 336 -39Q295 -39 295 -5Q295 13 300 114H66Q41 114 41 174Q41 289 121 391Q207 500 319 500Q334 500 350 491T367 467V221Q367 221 385 221Q436 221 436 198ZM295 220V368Q295 391 276 391Q214 391 169 337T123 220H295Z"  />
<glyph unicode="5" horiz-adv-x="476" d="M430 136Q430 59 357 5Q290 -43 210 -43Q161 -43 111 -25Q46 -2 46 38Q46 61 60 77T97 94Q121 94 167 76T238 58Q277 58 309 76Q348 98 348 134Q348 180 304 209Q265 234 216 234Q198 234 164 224T111 214Q88 214 88 240Q88 243 90 254Q97 294 97 341Q97 387 91 413Q82 452 82 457Q82 485 125 485H389Q420 485 420 459Q420 445 402 403Q389 374 373 374H164Q166 357 166 341Q166 319 162 299Q193 315 240 315Q320 315 375 265T430 136Z"  />
<glyph unicode="6" horiz-adv-x="476" d="M450 150Q450 73 389 18T250 -38Q136 -38 77 43Q26 114 26 233Q26 335 102 418T280 501Q366 501 366 456Q366 392 297 392Q292 392 284 393T270 394Q192 394 143 355Q90 313 90 237Q90 162 132 118T250 73Q391 73 391 154Q391 193 347 212Q314 226 270 226Q237 226 191 196T140 165Q122 165 122 180Q122 229 174 273T276 318Q354 318 402 273T450 150Z"  />
<glyph unicode="7" horiz-adv-x="476" d="M437 458Q437 417 405 374Q376 338 346 303Q268 206 260 86Q259 63 257 41Q254 15 243 1T210 -26T171 -38Q161 -38 151 -31T140 -14Q140 63 206 189Q255 284 323 374H70Q39 374 39 399Q39 422 48 449Q60 484 78 484H397Q437 484 437 458Z"  />
<glyph unicode="8" horiz-adv-x="476" d="M447 125Q447 47 380 1Q320 -39 239 -39Q159 -39 98 0Q29 45 29 121Q29 165 58 203T131 241Q159 241 159 227Q159 219 143 185T127 129Q127 82 158 55T237 28Q281 28 314 53T347 121Q347 191 274 229Q207 257 140 285Q67 323 67 393Q67 447 128 477Q176 500 237 500Q300 500 347 478Q409 450 409 394Q409 364 385 339T330 314Q324 314 312 319T300 329Q300 339 309 356T319 385Q319 409 289 424Q265 435 237 435Q212 435 189 424Q161 410 161 387Q161 346 235 313Q363 256 373 250Q447 202 447 125Z"  />
<glyph unicode="9" horiz-adv-x="476" d="M450 230Q450 123 377 44Q302 -38 196 -38Q111 -38 111 7Q111 32 127 51T168 71Q174 71 187 70T206 69Q284 69 333 108Q386 150 386 226Q386 390 214 390Q172 390 134 374Q85 353 85 317Q85 278 128 255Q163 237 206 237Q238 237 289 268T339 299Q355 299 355 278Q355 259 340 233Q318 195 280 170T200 145Q122 145 73 201Q26 254 26 333Q26 409 83 456Q137 501 214 501Q330 501 393 421Q450 349 450 230Z"  />
<glyph unicode=":" horiz-adv-x="260" d="M186 340Q186 306 158 283T95 259Q73 259 58 277T43 318Q43 349 68 372T125 396Q148 396 167 380T186 340ZM186 74Q186 40 158 16T95 -8Q73 -8 58 10T43 52Q43 83 68 106T125 129Q148 129 167 113T186 74Z"  />
<glyph unicode=";" horiz-adv-x="261" d="M186 340Q186 306 158 283T95 259Q73 259 58 277T43 318Q43 349 68 372T125 396Q148 396 167 380T186 340ZM187 41Q187 -17 132 -90Q89 -147 60 -147Q48 -147 48 -135Q48 -124 72 -94T96 -42Q96 -25 73 -3T50 36Q50 68 73 93T128 118Q155 118 172 92Q187 70 187 41Z"  />
<glyph unicode="&lt;" horiz-adv-x="411" d="M361 125Q361 114 349 104T325 93Q320 93 313 97L61 232Q56 235 56 242Q56 251 64 255L311 387Q315 389 323 389Q336 389 348 380T361 358Q361 351 353 347L151 240L353 137Q361 133 361 125Z"  />
<glyph unicode="=" horiz-adv-x="449" d="M358 320Q358 303 350 288Q340 270 324 270H108Q92 270 92 284Q92 302 101 318T126 335H344Q358 335 358 320ZM358 198Q358 181 350 166Q340 148 324 148H108Q92 148 92 162Q92 180 101 196T126 213H344Q358 213 358 198Z"  />
<glyph unicode="&gt;" horiz-adv-x="411" d="M355 242Q355 233 347 229L100 97Q96 95 88 95Q76 95 64 104T51 126Q51 134 58 138L260 244L58 347Q50 351 50 359Q50 370 62 380T86 391Q91 391 98 387L350 252Q355 249 355 242Z"  />
<glyph unicode="?" horiz-adv-x="532" d="M453 502Q453 444 408 402Q392 387 323 345Q278 318 278 294V269Q278 202 234 202Q189 202 189 263Q189 323 228 361Q264 388 300 415Q339 447 339 496Q339 527 307 545Q281 560 247 560Q212 560 184 548Q147 532 147 502Q147 480 127 464T83 448Q66 448 54 463T42 495Q42 563 115 601Q174 632 249 632Q317 632 378 601Q453 563 453 502ZM307 75Q307 41 279 18T217 -6Q195 -6 180 12T165 53Q165 84 190 107T246 130Q269 130 288 114T307 75Z"  />
<glyph unicode="@" horiz-adv-x="759" d="M699 350Q699 258 647 201Q591 140 495 140Q404 140 390 195Q332 146 282 146Q242 146 217 172Q187 202 187 262Q187 349 234 419Q287 496 366 496Q422 496 450 462L456 484H533L470 229Q468 221 468 216Q468 178 517 178Q567 178 608 216Q661 265 661 351Q661 449 587 517Q508 590 383 590Q254 590 168 512T81 315Q81 200 167 123T382 45Q486 45 568 99Q577 103 581 103Q598 103 598 87Q598 77 589 70Q511 10 382 10Q235 10 139 96T43 315Q43 452 138 538T383 625Q524 625 613 543Q699 464 699 350ZM440 426Q425 462 377 462Q334 462 299 391Q265 324 265 250Q265 184 303 184Q354 184 388 234L440 426Z"  />
<glyph unicode="A" horiz-adv-x="681" d="M669 0H358V24H462L399 198H198L136 24H256V0H18V24H108L334 654H352L578 24H669V0ZM390 222L298 475L207 222H390Z"  />
<glyph unicode="B" horiz-adv-x="616" d="M568 176Q568 94 507 47T338 0H25V24H114V621H25V645H330Q418 645 479 606Q545 563 545 493Q545 383 406 350Q470 336 514 295Q568 246 568 176ZM437 485V501Q437 621 330 621H223V360H330Q382 360 408 385Q437 415 437 485ZM457 164V187Q457 336 330 336H223V24H330Q399 24 429 60Q457 93 457 164Z"  />
<glyph unicode="C" horiz-adv-x="631" d="M598 4Q598 -7 587 -7Q581 -7 575 -1L523 51Q453 -18 351 -18Q231 -18 135 82Q35 185 35 323Q35 451 126 551Q221 656 356 656Q450 656 518 607L555 642Q565 651 572 651Q584 651 584 632V478Q584 462 575 462Q568 462 565 470L563 475Q537 546 486 586Q431 630 356 630Q171 630 171 374V268Q171 8 351 8Q490 8 574 188Q580 201 588 201Q598 201 598 187V4Z"  />
<glyph unicode="D" horiz-adv-x="682" d="M664 330Q664 180 575 90T337 0H28V24H119V621H28V645H337Q481 645 572 558T664 330ZM541 306V354Q541 496 479 563Q426 621 335 621H228V24H335Q541 24 541 306Z"  />
<glyph unicode="E" horiz-adv-x="591" d="M553 35Q553 0 519 0H31V24H118V621H29V645H494Q525 645 525 618V474Q525 457 513 457Q501 457 500 475Q497 528 472 569Q439 621 379 621H227V352H304Q342 352 358 377Q367 390 377 435Q381 452 389 452Q400 452 400 436V244Q400 227 389 227Q381 227 377 244Q373 267 357 306Q342 328 304 328H227V24H388Q452 24 484 67Q507 99 525 181Q530 204 541 204Q553 204 553 177V35Z"  />
<glyph unicode="F" horiz-adv-x="564" d="M529 474Q529 457 517 457Q505 457 504 475Q501 528 476 569Q443 621 383 621H231V352H308Q346 352 362 377Q371 390 381 435Q385 452 393 452Q404 452 404 436V244Q404 227 393 227Q385 227 381 244Q377 267 361 306Q346 328 308 328H231V24H320V0H36V24H122V621H34V645H499Q529 645 529 618V474Z"  />
<glyph unicode="G" horiz-adv-x="689" d="M686 217H597V189Q597 86 523 31Q458 -18 350 -18Q224 -18 129 82T33 319Q33 456 127 556T353 656Q451 656 517 604L558 642Q568 651 576 651Q589 651 589 636V457Q589 444 578 444Q568 444 564 456Q504 630 353 630Q268 630 220 571Q168 507 168 379V263Q168 138 216 73T352 8Q482 8 482 132V217H371V241H686V217Z"  />
<glyph unicode="H" horiz-adv-x="706" d="M688 0H402V24H491V330H227V24H316V0H29V24H118V621H29V645H316V621H227V355H491V621H402V645H688V621H600V24H688V0Z"  />
<glyph unicode="I" horiz-adv-x="366" d="M326 0H40V24H128V621H40V645H326V621H237V24H326V0Z"  />
<glyph unicode="J" horiz-adv-x="381" d="M371 621H294V56Q294 -97 126 -97Q74 -97 39 -66Q8 -39 8 -8Q8 46 59 46Q81 46 94 32T107 -1Q107 -47 64 -53Q85 -71 119 -71Q156 -71 170 -51T185 20V621H90V645H371V621Z"  />
<glyph unicode="K" horiz-adv-x="692" d="M685 0H385V24H470L219 353L510 621H428V645H640V621H550L313 403L601 24H685V0ZM304 0H31V24H113V621H31V645H304V621H222V24H304V0Z"  />
<glyph unicode="L" horiz-adv-x="617" d="M596 35Q596 0 561 0H26V24H115V621H26V645H322V621H224V24H431Q495 24 526 67Q549 98 567 181Q572 204 583 204Q596 204 596 177V35Z"  />
<glyph unicode="M" horiz-adv-x="821" d="M793 0H520V24H602V589L380 0H360L138 585V24H221V0H31V24H113V621H31V645H229L415 167L595 645H793V621H711V24H793V0Z"  />
<glyph unicode="N" horiz-adv-x="677" d="M660 621H571V-8H529L137 583V24H226V0H23V24H112V621H23V645H233L546 175V621H457V645H660V621Z"  />
<glyph unicode="O" horiz-adv-x="712" d="M684 320Q684 187 589 86Q492 -18 360 -18Q228 -18 132 86Q37 187 37 320Q37 453 132 554T360 656Q492 656 588 555T684 320ZM549 272V367Q549 512 500 574Q455 630 360 630Q266 630 221 572Q172 508 172 367V272Q172 8 360 8Q549 8 549 272Z"  />
<glyph unicode="P" horiz-adv-x="558" d="M534 469Q534 390 476 342T325 293H223V24H311V0H25V24H114V621H25V645H315Q415 645 474 597T534 469ZM433 452V486Q433 621 315 621H223V317H325Q433 317 433 452Z"  />
<glyph unicode="Q" horiz-adv-x="701" d="M684 319Q684 205 611 110T429 -12V-29Q429 -197 589 -197Q603 -197 603 -208Q603 -218 589 -218Q446 -218 385 -188Q304 -148 294 -33L292 -12Q183 14 110 109T37 319Q37 452 132 554T360 656Q492 656 588 554T684 319ZM549 271V366Q549 511 500 574Q455 630 360 630Q266 630 221 571Q172 508 172 366V271Q172 6 360 6Q549 6 549 271Z"  />
<glyph unicode="R" horiz-adv-x="647" d="M645 34Q645 29 641 25Q630 14 597 3Q561 -8 528 -8Q476 -8 452 20Q430 44 424 97Q422 130 417 196Q402 325 307 325H226V24H315V0H28V24H117V621H28V645H323Q417 645 478 603Q543 559 543 484Q543 365 393 332Q489 307 519 251Q539 213 542 109Q543 60 548 47Q556 26 585 26Q609 26 629 39Q633 41 638 41Q645 41 645 34ZM436 467V501Q436 621 323 621H226V349H323Q436 349 436 467Z"  />
<glyph unicode="S" horiz-adv-x="558" d="M524 205Q524 110 456 46T287 -18Q194 -18 118 44L84 -1Q75 -13 67 -13Q53 -13 53 4V174Q53 191 65 191Q77 191 81 176Q102 98 162 53Q219 8 293 8Q360 8 407 47Q458 88 458 152Q458 220 401 245Q357 264 311 277Q214 305 209 307Q68 351 68 467Q68 546 126 599Q187 656 286 656Q362 656 434 618L461 650Q470 660 476 660Q487 660 487 646V477Q487 463 475 463Q463 463 461 476Q452 542 411 583Q364 630 286 630Q226 630 185 602Q139 571 139 518Q139 454 201 432Q228 422 385 380Q524 342 524 205Z"  />
<glyph unicode="T" horiz-adv-x="638" d="M617 455H586Q574 533 540 577T460 621H376V24H465V0H179V24H267V621H183Q138 621 104 577T57 455H27L43 625Q45 645 68 645H576Q599 645 601 625L617 455Z"  />
<glyph unicode="U" horiz-adv-x="657" d="M643 621H555V162Q555 74 499 28T343 -18Q248 -18 185 20Q107 68 107 162V621H18V645H304V621H216V162Q216 88 256 48T367 8Q437 8 483 49T529 162V621H440V645H643V621Z"  />
<glyph unicode="V" horiz-adv-x="651" d="M649 621H574L353 -10H329L97 621H7V645H294V621H203L378 149L543 621H456V645H649V621Z"  />
<glyph unicode="W" horiz-adv-x="926" d="M915 621H843L602 -10H582L470 277L361 -10H341L101 621H23V645H680V621H616L532 402L630 141L814 621H728V645H915V621ZM588 621H448L518 439L588 621ZM456 315L341 621H208L390 143L456 315Z"  />
<glyph unicode="X" horiz-adv-x="706" d="M689 0H404V24H484L324 283L148 24H247V0H22V24H114L308 309L115 621H24V645H329V621H239L375 401L523 621H427V645H652V621H558L392 375L608 24H689V0Z"  />
<glyph unicode="Y" horiz-adv-x="682" d="M673 621H588L420 340V24H518V0H212V24H311V316L113 621H28V645H325V621H234L398 367L550 621H454V645H673V621Z"  />
<glyph unicode="Z" horiz-adv-x="524" d="M502 0H31V30L383 621H192Q64 621 59 472H36V645H495V617L139 24H328Q398 24 434 62Q472 104 477 199H502V0Z"  />
<glyph unicode="[" horiz-adv-x="287" d="M217 -118Q217 -135 197 -135H91Q71 -135 71 -115V646Q71 666 91 666H178Q197 666 206 633Q217 594 217 582Q217 567 198 565Q200 565 167 565Q134 565 134 545V-21Q134 -34 144 -34H177Q197 -34 206 -67Q217 -105 217 -118Z"  />
<glyph unicode="\" horiz-adv-x="255" d="M208 -10H153L67 519H123L208 -10Z"  />
<glyph unicode="]" horiz-adv-x="287" d="M217 -115Q217 -135 197 -135H91Q71 -135 71 -118Q71 -105 82 -67Q91 -34 110 -34H144Q154 -34 154 -21V545Q154 562 134 564Q136 564 101 564Q71 564 71 582Q71 594 82 633Q91 666 110 666H197Q217 666 217 646V-115Z"  />
<glyph unicode="^" horiz-adv-x="381" d="M325 325L303 314L195 521L87 314L64 325L178 606H211L325 325Z"  />
<glyph unicode="_" horiz-adv-x="300" d="M311 -31H-4V-11H311V-31Z"  />
<glyph unicode="`" horiz-adv-x="266" d="M233 457L219 450L44 604H147L233 457Z"  />
<glyph unicode="a" horiz-adv-x="456" d="M453 54Q453 34 430 14Q401 -13 353 -13Q288 -13 274 34Q231 -13 158 -13Q42 -13 42 75Q42 138 108 176Q171 211 268 212V319Q268 369 204 369Q182 369 163 364T143 352Q145 350 152 344Q166 331 166 314Q166 277 123 277Q104 277 93 288T81 316Q81 347 116 367Q156 390 228 390Q366 390 366 301V74Q366 43 370 33Q375 20 390 20Q417 20 434 53Q439 63 445 63Q453 63 453 54ZM268 68V194Q203 190 172 173Q132 151 132 99Q132 20 193 20Q213 20 240 37T268 68Z"  />
<glyph unicode="b" horiz-adv-x="534" d="M510 192Q510 116 451 52T315 -12Q250 -12 204 40V0H28V24H107V621H28V645H204V346Q246 393 312 393Q383 393 444 336Q510 275 510 192ZM394 171V214Q394 309 369 343Q351 369 308 369Q246 369 204 303V83Q246 12 312 12Q394 12 394 171Z"  />
<glyph unicode="c" horiz-adv-x="422" d="M411 105Q411 103 410 100L409 96Q396 56 360 26Q312 -13 242 -13Q159 -13 97 41Q29 99 29 187Q29 274 97 334Q162 390 247 390Q296 390 339 369Q388 344 388 308Q388 264 338 264Q289 264 289 306Q289 324 298 336T307 349Q307 354 293 359Q275 366 245 366Q193 366 170 333Q146 297 146 208V167Q146 77 165 45Q186 10 245 10Q298 10 338 40Q372 66 385 105Q389 117 399 117Q411 117 411 105Z"  />
<glyph unicode="d" horiz-adv-x="534" d="M513 0H337V41Q291 -13 227 -13Q159 -13 97 48Q32 112 32 191Q32 266 93 329T230 393Q298 393 337 350V621H259V645H435V24H513V0ZM337 82V301Q295 369 234 369Q187 369 168 336T148 215V168Q148 79 169 43Q188 11 231 11Q291 11 337 82Z"  />
<glyph unicode="e" horiz-adv-x="447" d="M414 117Q414 110 411 102Q391 52 348 21Q298 -13 230 -13Q144 -13 84 49Q28 108 28 185Q28 262 85 324Q144 390 226 390Q315 390 367 327Q406 281 409 233Q410 216 388 216H145V124Q145 10 232 10Q341 10 390 116Q396 128 404 128Q414 128 414 117ZM303 279Q303 366 227 366Q145 366 145 273V240H293Q303 240 303 279Z"  />
<glyph unicode="f" horiz-adv-x="352" d="M340 585Q340 547 303 547Q263 547 263 583Q263 607 286 617Q286 628 244 628Q195 628 195 561V380H278V356H195V24H272V0H20V24H97V356H21V380H97V416Q97 524 118 569Q157 652 242 652Q284 652 312 632T340 585Z"  />
<glyph unicode="g" horiz-adv-x="439" d="M433 371Q433 339 398 339Q360 339 360 370Q360 372 361 377Q347 369 331 352Q377 312 377 255Q377 208 340 169Q292 119 207 119Q172 119 148 126Q68 106 68 66Q68 30 129 30H295Q354 30 388 1Q424 -31 424 -90Q424 -166 366 -209T220 -253Q31 -253 31 -144Q31 -75 109 -43Q33 -24 33 49Q33 114 114 139Q37 180 37 255Q37 310 81 348Q128 390 207 390Q277 390 312 366Q351 405 390 405Q433 405 433 371ZM275 238V270Q275 325 258 347Q243 366 207 366Q171 366 156 347Q139 325 139 270V238Q139 188 153 167Q168 143 207 143Q246 143 261 167Q275 188 275 238ZM377 -129Q377 -96 351 -72T278 -47H147Q130 -47 111 -69Q89 -94 89 -126Q89 -229 224 -229Q284 -229 327 -205Q377 -178 377 -129Z"  />
<glyph unicode="h" horiz-adv-x="555" d="M539 0H298V24H369V291Q369 360 312 360Q265 360 229 322Q196 288 196 256V24H268V0H26V24H99V621H26V645H196V325Q244 393 344 393Q467 393 467 302V24H539V0Z"  />
<glyph unicode="i" horiz-adv-x="303" d="M216 550Q216 528 199 513T158 497Q134 497 117 512T100 550Q100 573 117 588T158 604Q182 604 199 589T216 550ZM285 0H33V24H110V356H33V380H207V24H285V0Z"  />
<glyph unicode="j" horiz-adv-x="282" d="M228 550Q228 527 211 512T170 496Q146 496 129 511T112 550Q112 573 129 588T170 604Q194 604 211 589T228 550ZM225 -28Q225 -133 184 -192T70 -252Q33 -252 6 -234T-21 -187Q-21 -167 -8 -153T28 -138Q50 -138 62 -152T75 -184Q75 -212 53 -226Q57 -228 69 -228Q92 -228 109 -212T127 -164V355H44V379H225V-28Z"  />
<glyph unicode="k" horiz-adv-x="556" d="M549 0H291V24H359L223 202H207V24H280V0H27V24H110V621H27V645H207V226H230L373 356H292V380H494V356H410L294 249L475 24H549V0Z"  />
<glyph unicode="l" horiz-adv-x="294" d="M273 0H32V24H104V621H32V645H201V24H273V0Z"  />
<glyph unicode="m" horiz-adv-x="785" d="M766 0H536V24H601V287Q601 353 553 353Q510 353 476 314Q446 280 446 248V24H513V0H282V24H349V287Q349 316 344 328Q334 353 300 353Q262 353 226 315Q194 281 194 256V24H260V0H29V24H96V353H29V377H194V316Q244 385 344 385Q432 385 445 314Q493 385 596 385Q699 385 699 297V24H766V0Z"  />
<glyph unicode="n" horiz-adv-x="547" d="M528 0H286V24H358V287Q358 353 305 353Q268 353 235 319T202 252V24H274V0H33V24H105V353H33V376H202V316Q250 384 343 384Q456 384 456 293V24H528V0Z"  />
<glyph unicode="o" horiz-adv-x="460" d="M441 188Q441 117 385 55Q323 -13 234 -13Q145 -13 82 55Q25 117 25 188Q25 259 82 321Q145 390 234 390Q323 390 385 321Q441 259 441 188ZM325 168V209Q325 295 309 327Q289 366 234 366Q179 366 158 327Q141 294 141 209V168Q141 80 158 47Q178 10 234 10Q290 10 309 47Q325 79 325 168Z"  />
<glyph unicode="p" horiz-adv-x="515" d="M494 187Q494 105 433 44T295 -17Q228 -17 187 29V-233H254V-257H22V-233H89V352H22V377H187V336Q233 390 297 390Q370 390 432 329T494 187ZM378 167V210Q378 304 352 341Q333 366 296 366Q258 366 223 337T187 275V91Q187 64 220 37T293 9Q337 9 355 36Q378 70 378 167Z"  />
<glyph unicode="q" horiz-adv-x="524" d="M507 -257H276V-233H343V30Q300 -17 233 -17Q158 -17 96 45T34 187Q34 265 95 326T231 387Q299 387 343 335V376H507V352H440V-233H507V-257ZM343 106V266Q343 303 307 334T232 366Q150 366 150 245V141Q150 61 173 32Q192 8 235 8Q283 8 313 37T343 106Z"  />
<glyph unicode="r" horiz-adv-x="412" d="M402 313Q402 289 386 275T346 261Q321 261 305 274T289 310Q289 340 314 354Q317 355 317 357Q317 361 293 361Q257 361 223 333T188 276V24H260V0H18V24H90V353H18V377H188V332Q231 385 304 385Q344 385 370 369Q402 350 402 313Z"  />
<glyph unicode="s" horiz-adv-x="367" d="M343 119Q343 62 306 25Q266 -13 199 -13Q125 -13 83 24L64 -1Q59 -8 54 -8Q43 -8 43 4V105Q43 117 54 117Q63 117 66 105Q93 10 196 10Q234 10 264 27Q299 47 299 81Q299 122 238 144Q227 147 142 165Q50 184 50 266Q50 317 86 352Q126 390 191 390Q237 390 269 365L289 384L292 386Q296 390 300 390Q307 390 307 379V278Q307 268 299 268Q290 268 288 277Q282 312 258 337Q229 366 185 366Q148 366 124 348T99 306Q99 277 134 267Q178 257 246 239Q343 210 343 119Z"  />
<glyph unicode="t" horiz-adv-x="348" d="M338 83Q338 79 337 73Q321 -13 214 -13Q154 -13 122 18T89 104V355H19V379H89V485L187 530V379H287V355H187V102Q187 16 249 16Q303 16 314 81Q316 95 328 95Q338 95 338 83Z"  />
<glyph unicode="u" horiz-adv-x="556" d="M529 0H359V60Q306 -11 204 -11Q95 -11 95 95V353H23V376H193V89Q193 55 201 42Q212 25 245 25Q287 25 323 59T359 123V353H287V376H457V24H529V0Z"  />
<glyph unicode="v" horiz-adv-x="505" d="M488 353H425L269 -4H255L90 353H21V376H264V353H194L297 123L397 353H326V376H488V353Z"  />
<glyph unicode="w" horiz-adv-x="668" d="M654 353H582L457 -11H443L338 230L251 -11H236L92 353H23V376H257V353H191L278 135L363 376H377L482 134L556 353H472V376H654V353Z"  />
<glyph unicode="x" horiz-adv-x="518" d="M505 0H263V24H336L239 152L134 24H205V0H31V24H102L223 173L86 353H26V376H253V353H190L279 236L374 353H313V376H476V353H408L295 215L441 24H505V0Z"  />
<glyph unicode="y" horiz-adv-x="521" d="M511 352H442L231 -154Q191 -251 111 -251Q54 -251 54 -206Q54 -167 95 -167Q125 -167 139 -194Q145 -205 151 -205Q183 -205 207 -146L266 -3L96 352H26V376H277V352H201L313 110L414 352H340V376H511V352Z"  />
<glyph unicode="z" horiz-adv-x="414" d="M388 0H49V26L275 353H179Q100 353 89 255H68V376H377V348L155 24H267Q359 24 367 132H388V0Z"  />
<glyph unicode="{" horiz-adv-x="328" d="M278 601Q278 584 248 584Q244 584 235 585Q226 585 222 585Q195 585 195 565V393Q195 344 178 309Q156 263 112 262Q157 261 178 216Q195 182 195 132V-41Q195 -54 205 -54H244Q259 -54 266 -75Q276 -104 276 -117Q276 -135 263 -135H152Q132 -135 132 -115V159Q132 192 123 208T73 243Q51 253 51 255V271Q51 272 75 283Q112 299 123 321Q132 338 132 383V646Q132 666 152 666H243Q260 666 268 648Q278 626 278 601Z"  />
<glyph unicode="|" horiz-adv-x="434" d="M247 -204Q247 -217 228 -224Q213 -230 198 -230Q188 -230 188 -219V744Q188 757 207 764Q221 770 236 770Q247 770 247 759V-204Z"  />
<glyph unicode="}" horiz-adv-x="328" d="M278 255Q278 253 257 244T228 229Q213 220 206 208Q197 193 197 159V-115Q197 -135 177 -135H66Q53 -135 53 -117Q53 -103 63 -75Q70 -54 85 -54H124Q134 -54 134 -41V132Q134 182 151 216Q172 261 217 262Q173 263 151 309Q134 344 134 393V565Q134 586 105 586Q100 586 90 585T75 584Q51 584 51 601Q51 626 61 648Q69 666 86 666H177Q197 666 197 646Q197 600 197 508Q196 417 196 371Q196 336 208 317T254 283Q278 272 278 271V255Z"  />
<glyph unicode="&#xA0;" horiz-adv-x="250" />
<glyph unicode="&#xA1;" horiz-adv-x="277" d="M206 453Q206 430 189 414T146 398Q121 398 104 414T86 453Q86 476 103 492T146 509Q171 509 188 493T206 453ZM208 -48Q208 -138 145 -138Q80 -138 80 -48Q80 -11 91 41Q101 84 111 128Q122 185 134 347H155Q159 296 162 244Q168 176 177 128Q183 105 195 50T208 -48Z"  />
<glyph unicode="&#xA2;" horiz-adv-x="354" d="M331 213Q331 210 330 206Q307 125 211 118L210 70H185V119Q123 124 79 167T35 271Q35 333 75 373T185 424V461H210L211 424Q250 423 281 405T312 361Q312 324 274 324Q258 324 248 334T237 359Q237 373 242 379T248 389Q248 403 211 405V140Q248 142 275 163T309 215Q311 224 320 224Q331 224 331 213ZM185 140V404Q150 397 138 374T125 291V250Q125 200 132 180Q145 145 185 140Z"  />
<glyph unicode="&#xA3;" horiz-adv-x="559" d="M535 187Q535 126 484 60Q429 -11 363 -11Q273 -11 217 48Q184 -5 107 -5Q63 -5 39 20T14 80Q14 129 59 160Q98 186 144 186Q162 186 182 182L131 324H35V350H120Q86 448 86 491Q86 581 169 624Q235 658 340 658Q402 658 448 628Q498 595 498 546Q498 465 426 465Q399 465 381 479T362 517Q362 573 430 573Q445 573 445 580Q445 598 412 616T340 634Q285 634 259 608Q228 578 228 506V350H309V324H228V170Q344 103 405 103Q443 103 468 127Q489 147 511 193Q515 201 523 201Q535 201 535 187ZM194 68Q138 132 89 132Q73 132 59 120Q42 105 42 80Q42 57 59 39T107 21Q171 21 194 68Z"  />
<glyph unicode="&#xA5;" horiz-adv-x="674" d="M665 621H579L411 340V324H511V300H411V261H511V237H411V24H510V0H204V24H302V237H201V261H302V300H201V324H297L105 621H20V645H317V621H226L390 367L542 621H446V645H665V621Z"  />
<glyph unicode="&#xA6;" horiz-adv-x="118" d="M80 357H43V647H80V357ZM80 0H43V265H80V0Z"  />
<glyph unicode="&#xA7;" horiz-adv-x="387" d="M367 335Q367 246 292 214Q364 181 364 93Q364 20 317 -24T190 -69Q130 -69 89 -37T48 37Q48 85 91 85Q130 85 130 46Q130 9 88 9Q83 9 83 8Q83 -3 112 -22Q148 -45 190 -45Q245 -45 277 -20T309 43Q309 95 238 119Q173 140 108 161Q37 197 37 279Q37 372 119 401Q36 429 36 518Q36 579 79 621Q124 667 195 667Q271 667 312 637Q345 614 345 581Q345 542 307 542Q264 542 264 577Q264 610 297 616Q260 643 195 643Q153 643 121 622T89 569Q89 513 190 499Q367 474 367 335ZM329 300Q329 332 268 359Q220 381 163 390Q90 375 90 323Q90 289 124 268Q163 243 259 225Q329 250 329 300Z"  />
<glyph unicode="&#xA8;" horiz-adv-x="432" d="M353 554Q353 535 338 522T300 509Q278 509 263 522T247 554Q247 573 262 586T300 599Q322 599 337 586T353 554ZM196 554Q196 535 181 522T143 509Q121 509 106 522T90 554Q90 573 105 586T143 599Q165 599 180 586T196 554Z"  />
<glyph unicode="&#xA9;" horiz-adv-x="637" d="M616 357Q616 247 532 169T327 91Q207 91 122 169T37 357Q37 467 122 545T327 623Q447 623 531 545T616 357ZM586 358Q586 456 511 525T328 594Q221 594 145 525T69 358Q69 260 145 191T328 122Q435 122 510 191T586 358ZM428 241Q428 234 420 234Q417 234 414 237L393 257Q363 230 324 230Q274 230 233 272T192 370Q192 423 231 466T327 510Q362 510 392 489L405 503Q408 507 415 507H417Q423 506 423 498V434Q423 424 415 424Q411 424 407 431Q386 491 327 491Q254 491 254 391V349Q254 248 324 248Q377 248 411 317Q413 325 421 325Q428 325 428 317V241Z"  />
<glyph unicode="&#xAA;" horiz-adv-x="354" d="M323 398Q323 385 309 373Q291 356 262 356Q223 356 213 383Q186 356 144 356Q73 356 73 411Q73 449 112 471T209 494V555Q209 582 172 582Q141 582 137 577L139 575Q140 575 142 573Q151 563 151 553Q151 529 123 529Q96 529 96 555Q96 573 119 586T186 600Q271 600 271 545V410Q271 380 283 380Q295 380 304 392T316 405Q323 405 323 398ZM323 284H44V322H323V284ZM209 408V480Q130 474 130 425Q130 380 165 380Q177 380 193 390T209 408Z"  />
<glyph unicode="&#xAB;" horiz-adv-x="438" d="M382 108H354L174 258L354 408H382L254 258L382 108ZM232 108H203L24 258L203 408H232L104 258L232 108Z"  />
<glyph unicode="&#xAC;" horiz-adv-x="564" d="M545 230H506V389H18V429H545V230Z"  />
<glyph unicode="&#xAE;" horiz-adv-x="448" d="M413 475Q413 402 357 351T219 299Q138 299 82 350T25 475Q25 549 82 600T219 652Q299 652 356 601T413 475ZM383 475Q383 536 335 579T220 622Q152 622 105 579T57 475Q57 414 104 371T220 328Q287 328 335 371T383 475ZM331 388Q331 380 329 378Q318 368 290 368Q271 368 265 376Q256 385 254 404Q253 419 252 434Q248 473 218 473H197V388H225V370H127V388H156V562H127V580H225Q257 580 277 566T298 526Q298 491 258 478Q283 470 291 450Q297 437 298 407Q299 384 309 384Q316 384 322 388H331ZM258 520V531Q258 562 225 562H197V491H225Q258 491 258 520Z"  />
<glyph unicode="&#xAF;" horiz-adv-x="454" d="M360 516H107V543H360V516Z"  />
<glyph unicode="&#xB0;" horiz-adv-x="231" d="M202 582Q202 552 178 531T121 510Q88 510 64 531T39 582Q39 612 63 633T121 654Q154 654 178 633T202 582ZM177 582Q177 603 161 617T121 631Q97 631 81 617T64 582Q64 562 80 548T121 533Q145 533 161 547T177 582Z"  />
<glyph unicode="&#xB1;" horiz-adv-x="410" d="M374 344H235V217H171V344H32V403H171V530H235V403H374V344ZM358 126H48V185H358V126Z"  />
<glyph unicode="&#xB2;" horiz-adv-x="306" d="M259 418Q259 369 218 339Q198 323 142 302Q101 285 100 272H237Q255 272 255 257Q255 244 247 227Q239 205 229 205H72Q49 205 49 240Q49 244 50 251Q50 258 50 261Q50 300 92 326Q132 344 172 363T213 406Q213 429 194 441T148 453Q126 453 99 434T66 414Q51 414 51 432Q51 444 59 459Q84 507 148 507Q191 507 223 484Q259 459 259 418Z"  />
<glyph unicode="&#xB3;" horiz-adv-x="306" d="M268 292Q268 245 227 213T135 181Q105 181 75 193Q36 208 36 233Q36 245 45 254T67 264Q82 264 109 253T152 242Q173 242 196 255T219 289Q219 335 152 335Q147 335 136 333T119 331Q99 331 99 350Q99 358 145 380T192 426Q192 451 150 451Q120 451 95 439Q93 438 73 427Q57 416 54 416Q38 416 38 434Q38 446 46 461Q73 509 144 509Q180 509 209 492Q243 471 243 437Q243 392 187 372Q218 372 243 348T268 292Z"  />
<glyph unicode="&#xB4;" horiz-adv-x="404" d="M371 622L196 468L183 477L268 622H371Z"  />
<glyph unicode="&#xB6;" horiz-adv-x="664" d="M625 621H536V-104H471V621H392V-104H328V291H263Q163 291 101 334Q34 381 34 468Q34 555 101 602Q163 645 263 645H625V621Z"  />
<glyph unicode="&#xB8;" horiz-adv-x="359" d="M266 -101Q266 -125 246 -140T194 -156Q151 -156 123 -117Q118 -110 118 -104Q118 -96 126 -96Q131 -96 146 -108T179 -121Q215 -121 215 -93Q215 -69 180 -56L194 0H228L217 -45Q266 -61 266 -101Z"  />
<glyph unicode="&#xB9;" horiz-adv-x="306" d="M229 257Q229 245 222 227Q213 206 202 206H90Q72 206 72 221Q72 232 82 255Q90 273 101 273H129V417Q129 438 120 438Q113 438 102 427T81 415Q72 415 72 432Q72 459 93 483T142 508Q180 508 180 423V273H210Q229 273 229 257Z"  />
<glyph unicode="&#xBA;" horiz-adv-x="327" d="M293 477Q293 434 259 396Q221 354 167 354Q113 354 75 396Q40 434 40 477Q40 520 75 557Q113 598 167 598Q221 598 259 557Q293 520 293 477ZM304 284H26V322H304V284ZM219 464V488Q219 533 214 549Q203 580 167 580Q131 580 120 549Q113 532 113 488V464Q113 419 119 402Q130 372 167 372Q203 372 214 403Q219 419 219 464Z"  />
<glyph unicode="&#xBB;" horiz-adv-x="426" d="M422 258L243 108H214L343 258L214 408H243L422 258ZM266 258L87 108H58L187 258L58 408H87L266 258Z"  />
<glyph unicode="&#xBC;" horiz-adv-x="593" d="M556 119Q556 104 549 88Q541 68 528 68H515Q515 68 515 5Q515 -23 496 -23Q471 -23 471 -3Q471 8 474 68H334Q319 68 319 104Q319 174 367 235Q418 300 486 300Q515 300 515 280V133Q515 133 525 133Q556 133 556 119ZM471 132V221Q471 235 460 235Q423 235 396 203T368 132H471ZM194 257Q194 245 187 227Q178 206 167 206H56Q37 206 37 221Q37 232 47 255Q55 273 66 273H95V417Q95 438 85 438Q78 438 67 427T46 415Q38 415 38 432Q38 459 59 483T107 508Q146 508 146 423V273H176Q194 273 194 257ZM428 685Q428 646 403 575Q384 521 365 466L226 16Q218 -15 198 -76Q190 -94 184 -98T159 -103Q132 -103 132 -89Q132 -83 137 -67Q218 187 293 437Q308 494 323 552Q342 620 362 664Q372 688 379 692T413 696Q428 696 428 685Z"  />
<glyph unicode="&#xBD;" horiz-adv-x="593" d="M203 257Q203 245 196 227Q187 206 176 206H65Q46 206 46 221Q46 232 56 255Q64 273 75 273H104V417Q104 438 94 438Q87 438 76 427T55 415Q47 415 47 432Q47 459 68 483T116 508Q155 508 155 423V273H185Q203 273 203 257ZM547 212Q547 164 506 134Q485 118 430 96Q388 80 388 67H524Q542 67 542 52Q542 39 535 21Q527 0 516 0H360Q337 0 337 35Q337 38 337 45T337 56Q337 95 380 121Q419 139 458 157Q501 177 501 200Q501 224 479 237Q461 247 436 247Q414 247 387 228T353 208Q339 208 339 226Q339 238 346 253Q372 301 435 301Q479 301 511 279Q547 254 547 212ZM435 685Q435 646 411 575Q391 521 372 466L233 16Q225 -15 205 -76Q197 -94 191 -98T166 -103Q139 -103 139 -89Q139 -83 144 -67Q225 187 300 437Q315 494 330 552Q349 620 369 664Q380 688 386 692T420 696Q435 696 435 685Z"  />
<glyph unicode="&#xBE;" horiz-adv-x="593" d="M249 292Q249 245 205 212Q165 181 116 181Q85 181 56 193Q17 208 17 233Q17 245 26 254T48 264Q63 264 90 253T132 242Q154 242 176 255T199 289Q199 335 133 335Q127 335 116 333T100 331Q80 331 80 350Q80 358 126 380T173 426Q173 451 131 451Q100 451 75 439Q74 438 56 427T34 416Q18 416 18 434Q18 446 27 461Q54 509 124 509Q161 509 190 492Q223 471 223 437Q223 392 168 372Q199 372 224 348T249 292ZM576 119Q576 104 569 88Q561 68 548 68H535Q535 68 535 5Q535 -23 516 -23Q491 -23 491 -3Q491 8 494 68H354Q339 68 339 104Q339 174 387 235Q438 300 506 300Q535 300 535 280V133Q535 133 545 133Q576 133 576 119ZM491 132V221Q491 235 480 235Q443 235 416 203T388 132H491ZM461 685Q461 646 437 575Q418 521 398 466L259 16Q252 -15 231 -76Q224 -94 218 -98T192 -103Q165 -103 165 -89Q165 -83 170 -67Q252 187 326 437Q342 494 357 552Q376 620 395 664Q406 688 413 692T446 696Q461 696 461 685Z"  />
<glyph unicode="&#xBF;" horiz-adv-x="415" d="M292 448Q292 425 275 409T232 393Q207 393 190 409T172 448Q172 471 189 487T232 504Q257 504 274 488T292 448ZM369 -38Q369 -77 325 -105Q277 -134 202 -134Q125 -134 82 -99T38 2Q38 47 64 85Q81 110 124 148L170 189Q221 235 221 256Q221 282 220 290Q218 306 218 310Q218 321 231 321Q241 321 243 311Q256 249 256 212Q256 174 246 152Q230 117 196 85Q143 34 138 28Q101 -15 101 -46Q101 -72 124 -90Q151 -110 200 -110Q247 -110 275 -98Q295 -90 295 -85Q295 -85 294 -87Q247 -78 247 -37Q247 -14 264 1T309 16Q335 16 352 1T369 -38Z"  />
<glyph unicode="&#xD7;" horiz-adv-x="581" d="M549 57L493 6L290 192L89 6L33 57L234 243L33 427L89 479L290 293L493 479L549 427L347 243L549 57Z"  />
<glyph unicode="&#xF7;" horiz-adv-x="382" d="M255 385Q255 362 238 346T195 330Q170 330 153 346T135 385Q135 408 152 424T195 440Q220 440 237 424T255 385ZM336 225H53V283H336V225ZM255 116Q255 93 238 77T195 61Q170 61 153 77T135 116Q135 139 152 155T195 171Q220 171 237 155T255 116Z"  />
<glyph unicode="&#x192;" horiz-adv-x="500" d="M488 623Q488 585 455 585Q424 585 424 612Q424 619 429 629T435 642Q435 655 417 655Q379 655 367 602Q351 530 335 427H422L414 395H329Q303 260 245 49Q200 -116 145 -170Q104 -210 61 -210Q36 -210 19 -197T1 -159Q1 -116 39 -116Q50 -116 60 -124T70 -143Q70 -148 61 -164Q59 -168 59 -171Q59 -181 71 -181Q96 -181 118 -145Q131 -124 147 -59Q151 -43 189 144Q192 161 249 395H163L170 427Q206 430 214 431Q240 436 251 450Q264 468 281 516Q306 590 327 621Q365 677 421 677Q448 677 468 663T488 623Z"  />
<glyph unicode="&#x3BC;" horiz-adv-x="576" d="M534 100Q526 -14 438 -14Q368 -14 360 79Q281 -14 207 -14Q182 -14 162 -3Q148 5 131 28Q131 28 131 5Q131 -36 147 -111Q154 -144 154 -162Q154 -184 142 -200T108 -216Q65 -216 65 -163Q65 -144 82 -74Q88 -47 90 -31Q96 23 96 56V447H176V187Q176 117 185 90Q200 46 245 46Q302 46 360 112V447H441V128Q441 79 445 64Q452 39 474 39Q505 39 514 100H534Z"  />
<glyph unicode="&#x5B0;" horiz-adv-x="0" d="M322 -116Q322 -136 305 -150T267 -164Q254 -164 245 -153T236 -128Q236 -109 251 -96T285 -82Q299 -82 310 -92T322 -116ZM322 -214Q322 -234 305 -248T267 -262Q254 -262 245 -252T236 -228Q236 -209 251 -195T285 -181Q299 -181 310 -190T322 -214Z"  />
<glyph unicode="&#x5B1;" horiz-adv-x="0" d="M412 -116Q412 -136 396 -150T358 -164Q345 -164 336 -153T327 -129Q327 -110 341 -96T375 -82Q389 -82 400 -92T412 -116ZM412 -211Q412 -231 395 -245T357 -259Q344 -259 335 -249T326 -225Q326 -206 341 -192T375 -178Q389 -178 400 -187T412 -211ZM312 -116Q312 -136 295 -150T257 -164Q244 -164 235 -153T226 -129Q226 -110 241 -96T275 -82Q289 -82 300 -92T312 -116ZM212 -116Q212 -136 196 -150T158 -164Q145 -164 136 -153T126 -129Q126 -110 141 -96T175 -82Q189 -82 200 -92T212 -116ZM252 -211Q252 -231 235 -245T197 -259Q184 -259 175 -249T166 -225Q166 -206 181 -192T215 -178Q229 -178 240 -187T252 -211Z"  />
<glyph unicode="&#x5B2;" horiz-adv-x="0" d="M431 -116Q431 -136 415 -150T377 -165Q364 -165 355 -154T345 -129Q345 -110 360 -96T394 -82Q408 -82 419 -92T431 -116ZM432 -209Q432 -229 415 -243T377 -258Q364 -258 355 -247T346 -223Q346 -204 361 -191T395 -177Q409 -177 420 -186T432 -209ZM325 -106Q325 -151 297 -151H175Q162 -151 162 -139Q162 -93 189 -93H312Q325 -93 325 -106Z"  />
<glyph unicode="&#x5B3;" horiz-adv-x="0" d="M416 -115Q416 -135 399 -149T361 -164Q348 -164 339 -153T330 -128Q330 -109 345 -96T379 -82Q393 -82 404 -91T416 -115ZM416 -209Q416 -229 399 -243T361 -258Q348 -258 339 -247T330 -223Q330 -204 345 -191T379 -177Q393 -177 404 -186T416 -209ZM310 -106Q310 -122 303 -135Q294 -151 280 -151H244V-220Q244 -234 229 -243T199 -252Q186 -252 186 -238V-151H134Q121 -151 121 -139Q121 -92 158 -92H289Q310 -92 310 -106Z"  />
<glyph unicode="&#x5B4;" horiz-adv-x="0" d="M320 -104Q320 -124 303 -138T265 -153Q252 -153 243 -142T234 -117Q234 -98 249 -85T283 -71Q297 -71 308 -80T320 -104Z"  />
<glyph unicode="&#x5B5;" horiz-adv-x="0" d="M385 -116Q385 -136 368 -150T330 -164Q317 -164 308 -153T299 -128Q299 -109 314 -96T348 -82Q362 -82 373 -92T385 -116ZM245 -116Q245 -136 228 -150T190 -164Q177 -164 168 -153T159 -128Q159 -109 174 -96T208 -82Q222 -82 233 -92T245 -116Z"  />
<glyph unicode="&#x5B6;" horiz-adv-x="0" d="M390 -115Q390 -135 373 -149T335 -164Q322 -164 313 -153T304 -128Q304 -109 319 -96T353 -82Q367 -82 378 -91T390 -115ZM250 -115Q250 -135 233 -149T195 -164Q182 -164 173 -153T164 -128Q164 -109 179 -96T213 -82Q227 -82 238 -91T250 -115ZM320 -215Q320 -235 303 -249T265 -264Q252 -264 243 -253T234 -228Q234 -209 249 -196T283 -182Q297 -182 308 -191T320 -215Z"  />
<glyph unicode="&#x5B7;" horiz-adv-x="0" d="M364 -106Q364 -151 338 -151H213Q201 -151 201 -139Q201 -93 227 -93H353Q364 -93 364 -106Z"  />
<glyph unicode="&#x5B8;" horiz-adv-x="0" d="M367 -106Q367 -122 360 -135Q351 -151 337 -151H310V-205Q310 -219 295 -228T265 -237Q252 -237 252 -223V-151H211Q198 -151 198 -139Q198 -93 224 -93H354Q367 -93 367 -106Z"  />
<glyph unicode="&#x5B9;" horiz-adv-x="0" d="M109 598Q109 578 92 565T54 551Q41 551 32 562T23 586Q23 605 38 618T72 632Q86 632 97 622T109 598Z"  />
<glyph unicode="&#x5BB;" horiz-adv-x="0" d="M295 -115Q295 -135 278 -149T240 -164Q227 -164 218 -153T209 -128Q209 -109 224 -96T258 -82Q272 -82 283 -91T295 -115ZM343 -196Q343 -216 326 -230T288 -245Q275 -245 266 -234T257 -209Q257 -190 271 -176T305 -162Q319 -162 331 -172T343 -196ZM398 -276Q398 -296 381 -310T343 -325Q330 -325 321 -314T312 -289Q312 -270 327 -256T361 -242Q375 -242 386 -252T398 -276Z"  />
<glyph unicode="&#x5BC;" horiz-adv-x="0" d="M179 254Q179 234 162 220T124 206Q111 206 102 217T93 241Q93 260 108 274T142 288Q156 288 167 278T179 254Z"  />
<glyph unicode="&#x5BD;" horiz-adv-x="0" d="M28 -229H0V-102H28V-229Z"  />
<glyph unicode="&#x5BE;" horiz-adv-x="449" d="M358 464Q358 447 350 432Q340 414 324 414H108Q92 414 92 428Q92 446 101 462T126 479H344Q358 479 358 464Z"  />
<glyph unicode="&#x5BF;" horiz-adv-x="600" d="M364 639Q364 594 338 594H113Q101 594 101 606Q101 652 127 652H353Q364 652 364 639Z"  />
<glyph unicode="&#x5C0;" horiz-adv-x="168" d="M108 -130H60V617H108V-130Z"  />
<glyph unicode="&#x5C1;" horiz-adv-x="0" d="M716 598Q716 578 699 565T661 551Q648 551 639 562T630 586Q630 605 645 618T679 632Q693 632 704 622T716 598Z"  />
<glyph unicode="&#x5C2;" horiz-adv-x="0" d="M232 598Q232 578 215 565T177 551Q164 551 155 562T146 586Q146 605 161 618T195 632Q209 632 220 622T232 598Z"  />
<glyph unicode="&#x5C3;" horiz-adv-x="275" d="M186 340Q186 306 158 283T95 259Q73 259 58 277T43 318Q43 349 68 372T125 396Q148 396 167 380T186 340ZM186 74Q186 40 158 16T95 -8Q73 -8 58 10T43 52Q43 83 68 106T125 129Q148 129 167 113T186 74Z"  />
<glyph unicode="&#x5D0;" horiz-adv-x="490" d="M456 579Q456 537 397 478Q324 406 313 385Q376 371 415 306Q449 247 449 178Q449 137 433 89Q415 34 388 14T323 -7Q317 -7 310 -2T302 8Q302 15 320 39Q343 69 354 90Q372 127 372 165Q372 231 325 270Q281 306 214 306Q193 306 186 302Q176 297 169 279T162 182V52Q162 26 143 9T97 -9Q83 -9 72 6T61 36Q61 65 67 124T73 212Q73 287 45 369Q28 419 28 431Q28 446 61 481T110 516Q136 516 145 485Q150 468 151 424Q151 387 157 380H161Q211 380 269 438Q312 480 347 539Q373 583 377 589Q401 621 420 621Q456 621 456 579Z"  />
<glyph unicode="&#x5D1;" horiz-adv-x="479" d="M455 108Q455 92 445 68Q436 49 427 30Q414 0 396 0H61Q30 0 30 21Q30 42 59 104Q71 130 90 130H202Q255 130 298 167T341 257Q341 355 257 355H80Q61 355 47 364Q30 375 30 392Q30 407 57 476Q68 503 80 503Q86 503 101 494T126 485H255Q336 485 377 421Q411 367 411 281Q411 227 394 194Q386 181 378 169Q369 153 369 142Q369 130 412 130T455 108Z"  />
<glyph unicode="&#x5D2;" horiz-adv-x="356" d="M320 96Q320 69 297 33Q272 -7 247 -7Q231 -7 219 55T197 118Q190 118 151 38Q119 -25 104 -61Q73 -135 45 -135Q32 -135 20 -127T8 -106Q8 -84 32 -43Q66 15 140 153Q178 224 178 266V319Q178 345 159 352Q151 355 119 355Q101 355 85 365T69 392Q69 412 95 476Q106 503 119 503Q125 503 139 494T162 485H189Q246 485 246 407V255Q246 219 283 163T320 96Z"  />
<glyph unicode="&#x5D3;" horiz-adv-x="473" d="M437 464Q437 433 412 385Q402 365 381 355Q356 343 351 338Q343 329 343 305Q343 243 359 87Q361 68 361 58Q361 31 340 12T291 -7Q273 -7 273 25V276Q273 334 288 355H68Q50 355 34 365T18 392Q18 407 45 476Q56 503 68 503Q74 503 88 494T111 485H407Q437 485 437 464Z"  />
<glyph unicode="&#x5D4;" horiz-adv-x="502" d="M466 240Q466 191 443 117Q417 31 388 12T320 -7Q314 -7 306 -2T298 10Q298 22 330 60Q395 138 395 241Q395 355 264 355H80Q62 355 46 365T30 392Q30 409 57 476Q68 503 80 503Q91 503 115 493T153 483Q171 483 207 484T262 485Q357 485 414 408Q466 338 466 240ZM154 59Q154 -5 96 -5Q69 -5 69 43L68 213Q68 275 102 275Q139 275 139 213Q139 187 146 136T154 59Z"  />
<glyph unicode="&#x5D5;" horiz-adv-x="272" d="M218 50Q218 29 194 11T147 -7Q129 -7 129 23V323Q129 356 91 356Q86 356 76 356Q66 355 61 355Q24 355 24 392Q24 410 51 476Q62 503 75 503Q80 503 95 495Q114 486 117 485Q149 477 181 469Q202 459 202 407Q202 390 201 357T200 306Q200 263 209 178T218 50Z"  />
<glyph unicode="&#x5D6;" horiz-adv-x="311" d="M271 464Q271 448 261 424Q253 404 244 385Q232 355 213 355Q148 355 148 279Q148 244 179 185T210 91Q210 70 190 33Q168 -7 149 -7Q126 -7 112 56Q108 75 92 160Q80 225 80 245Q80 293 108 355Q74 354 81 354Q24 354 24 392Q24 407 51 476Q62 503 74 503Q81 503 94 494T117 484H240Q271 484 271 464Z"  />
<glyph unicode="&#x5D7;" horiz-adv-x="531" d="M495 233Q495 189 471 113Q444 29 415 11T349 -7Q330 -7 330 10Q330 23 359 60Q424 142 424 234Q424 312 372 338Q338 355 251 355Q197 355 176 344Q145 328 145 280Q145 242 153 165T162 50Q162 31 139 12T96 -7Q73 -7 73 30V341Q73 360 51 390T28 439Q28 450 50 476T83 503Q89 503 103 489T128 475Q137 475 176 480T272 485Q495 485 495 233Z"  />
<glyph unicode="&#x5D8;" horiz-adv-x="557" d="M521 291Q521 166 458 84Q388 -7 267 -7Q175 -7 129 58Q90 114 90 210Q90 279 69 320Q55 341 42 363Q26 389 26 410Q26 437 42 468Q60 504 84 504Q109 504 130 462Q145 432 152 398Q162 349 162 224Q162 130 233 130H319Q380 130 416 174Q448 215 448 278Q448 378 375 378Q356 378 322 360T269 342Q256 342 256 362Q256 406 293 454T374 503Q447 503 487 430Q521 370 521 291Z"  />
<glyph unicode="&#x5D9;" horiz-adv-x="249" d="M209 368Q209 339 197 301Q184 256 166 242Q144 225 110 225Q93 225 93 240Q93 251 117 276T142 320Q142 347 116 353Q109 355 68 355Q49 355 35 364Q18 375 18 392Q18 409 28 435Q37 455 46 476Q57 503 69 503Q75 503 87 494T108 485H132Q170 485 191 443Q209 409 209 368Z"  />
<glyph unicode="&#x5DA;" horiz-adv-x="455" d="M401 -139Q401 -158 379 -179T337 -200Q326 -200 318 -190T309 -169V218Q309 273 288 310Q262 355 211 355H69Q50 355 34 364T18 392Q18 408 47 476Q58 503 71 503Q77 503 90 494T113 485H219Q307 485 349 403Q382 340 382 242V137Q382 65 399 -110Q401 -131 401 -139Z"  />
<glyph unicode="&#x5DB;" horiz-adv-x="441" d="M405 245Q405 148 351 77Q292 0 198 0H61Q30 0 30 21Q30 53 57 105Q70 130 90 130H221Q270 130 301 161T333 241Q333 293 298 324T209 355H80Q62 355 46 365T30 392Q30 410 58 476Q70 503 82 503Q88 503 101 494T125 485H205Q297 485 353 409Q405 340 405 245Z"  />
<glyph unicode="&#x5DC;" horiz-adv-x="449" d="M413 291Q413 179 352 94Q285 0 177 0Q151 0 151 21Q151 38 181 105Q189 122 193 126T214 130H226Q271 130 307 175Q340 217 340 263Q340 302 311 328T242 355H79Q20 355 20 420Q20 468 30 523Q46 611 46 632Q46 657 24 692T2 743Q2 800 57 800Q129 800 129 719Q129 649 114 587Q96 512 96 497Q96 485 118 485H245Q328 485 372 428Q413 376 413 291Z"  />
<glyph unicode="&#x5DD;" horiz-adv-x="561" d="M507 87Q507 0 440 0H157Q109 0 93 28Q82 47 82 99V338Q82 359 55 388T28 438Q28 449 50 476T83 503Q89 503 102 489T127 475Q136 475 168 479Q208 484 257 484H358Q418 484 444 472Q479 456 493 418Q502 394 505 344Q507 308 507 279V87ZM436 194V218Q436 311 413 333T296 355H219Q151 355 151 309Q151 286 155 246Q158 202 159 183Q160 155 163 147Q169 130 191 130H389Q419 130 429 148Q436 161 436 194Z"  />
<glyph unicode="&#x5DE;" horiz-adv-x="550" d="M514 246Q514 150 459 78Q399 0 306 0H268Q237 0 237 21Q237 50 265 105Q273 121 277 124T300 130Q300 130 323 130Q442 130 442 242Q442 297 407 330T317 363H281Q232 363 199 326T166 240V24Q166 -7 139 -7Q121 -7 99 13T77 51Q77 87 85 159T93 268Q93 299 61 344T28 410Q28 436 43 468Q62 504 85 504Q106 504 128 446T155 388Q161 388 174 408Q182 421 190 434Q234 496 312 496Q404 496 462 415Q514 342 514 246Z"  />
<glyph unicode="&#x5DF;" horiz-adv-x="300" d="M246 -139Q246 -158 223 -179T181 -200Q170 -200 162 -190T154 -169L155 283Q155 355 116 355H70Q24 355 24 392Q24 405 52 476Q63 503 75 503Q82 503 99 494T127 485H135Q227 485 227 286V137Q227 65 244 -110Q246 -131 246 -139Z"  />
<glyph unicode="&#x5E0;" horiz-adv-x="301" d="M247 159Q247 0 148 0H55Q24 0 24 21Q24 41 53 105Q64 130 84 130L120 129Q154 129 165 145Q174 157 174 193Q174 201 174 216Q173 230 173 238Q173 288 167 311Q155 355 118 355Q113 355 104 355Q95 354 90 354Q35 354 35 392Q35 408 63 476Q74 503 87 503Q96 503 114 494T148 485Q245 485 245 244Q245 230 246 202T247 159Z"  />
<glyph unicode="&#x5E1;" horiz-adv-x="537" d="M501 257Q501 213 480 162Q413 0 262 0H157Q110 0 94 28Q82 48 82 99V339Q82 360 55 388T28 438Q28 450 50 476T83 502Q88 502 102 489T128 476Q144 476 175 480T223 485H306Q399 485 452 416Q501 352 501 257ZM425 248Q425 355 315 355H227Q188 355 172 344Q151 330 151 292Q151 304 159 176Q162 130 183 130H284Q340 130 380 161Q425 194 425 248Z"  />
<glyph unicode="&#x5E2;" horiz-adv-x="550" d="M514 288Q514 176 452 92Q384 0 276 0H61Q30 0 30 21Q30 47 59 105Q72 130 89 130H177Q193 130 193 152Q193 197 130 285T66 408Q66 427 83 463Q102 503 118 503Q142 503 164 447Q203 350 250 215Q280 130 315 130Q363 130 400 172T437 263Q437 323 399 343Q380 352 327 355Q289 357 289 375Q289 408 314 460Q325 484 345 484Q423 484 471 424Q514 369 514 288Z"  />
<glyph unicode="&#x5E3;" horiz-adv-x="542" d="M488 -139Q488 -158 466 -179T424 -200Q413 -200 405 -190T396 -169V227Q396 361 258 361Q121 361 121 298Q121 253 173 253Q190 253 221 264T269 275Q285 275 285 261Q285 218 244 182T160 145Q97 145 75 204Q62 239 62 316Q62 342 40 382T18 439Q18 448 41 475T72 503Q79 503 92 489T117 475Q128 475 163 479Q215 485 262 485Q400 485 444 370Q469 303 469 137Q469 65 486 -110Q488 -131 488 -139Z"  />
<glyph unicode="&#x5E4;" horiz-adv-x="529" d="M493 234Q493 174 471 123Q418 0 272 0H83Q52 0 52 21Q52 48 81 105Q94 130 113 130H294Q347 130 382 156Q421 186 421 237Q421 361 262 361Q133 361 133 308Q133 273 185 273Q204 273 235 289T281 305Q287 305 292 296T297 281Q297 239 256 202T172 165Q107 165 86 223Q74 257 74 336Q74 356 52 388T30 439Q30 448 53 475T85 503Q92 503 105 489T130 475Q139 475 178 480T274 485Q377 485 438 410Q493 340 493 234Z"  />
<glyph unicode="&#x5E5;" horiz-adv-x="379" d="M355 591Q355 563 322 505Q264 404 259 396Q226 328 226 275V137Q226 64 243 -110Q245 -131 245 -139Q245 -158 223 -179T181 -200Q170 -200 162 -190T153 -169L154 192Q154 229 122 267Q92 299 62 331Q30 372 30 416Q30 436 50 469T88 503Q108 503 122 439T153 375Q171 375 202 436Q221 473 257 546T323 620Q355 620 355 591Z"  />
<glyph unicode="&#x5E6;" horiz-adv-x="462" d="M428 214Q428 118 355 57Q287 0 189 0H61Q30 0 30 21Q30 45 60 105Q72 130 91 130H218Q343 130 343 195Q343 244 315 256Q301 262 245 262H146Q99 262 60 315Q24 365 24 414Q24 437 51 469T102 501Q129 501 136 438Q143 372 168 367Q179 365 192 365Q217 365 327 560Q357 614 389 614Q403 614 411 602T419 575Q419 538 359 471T298 374Q298 355 320 355Q428 355 428 214Z"  />
<glyph unicode="&#x5E7;" horiz-adv-x="517" d="M481 262Q481 163 415 84Q346 0 249 0Q223 0 223 21Q223 51 251 105Q259 120 264 124T286 129H298Q344 129 376 168Q405 204 405 251Q405 298 378 326T304 355H95Q77 355 61 365T45 392Q45 409 74 476Q86 503 98 503Q104 503 118 494T143 485H279Q374 485 429 420Q481 359 481 262ZM175 -139Q175 -158 153 -179T111 -200Q100 -200 92 -190T83 -169V222Q83 273 113 273Q156 273 156 217V137Q156 61 173 -110Q175 -130 175 -139Z"  />
<glyph unicode="&#x5E8;" horiz-adv-x="436" d="M400 240Q400 192 377 116Q351 31 321 12T254 -7Q248 -7 240 -2T232 10Q232 22 264 60Q329 138 329 241Q329 308 281 335Q245 356 172 356Q159 356 133 355T94 354Q18 354 18 392Q18 405 47 476Q58 503 70 503Q76 503 89 494T113 485H199Q292 485 349 407Q400 337 400 240Z"  />
<glyph unicode="&#x5E9;" horiz-adv-x="552" d="M516 257Q516 151 449 77Q380 0 276 0H165Q122 0 104 17T86 77V229Q86 275 67 320Q55 345 43 369Q28 400 28 421Q28 437 48 470T83 503Q110 503 123 459Q129 426 135 393Q138 377 144 377Q153 377 191 453Q213 500 235 547Q271 620 301 620Q332 620 332 579Q332 549 285 476Q242 409 199 342Q152 263 152 215Q152 187 156 165Q161 140 167 135T198 130H298Q362 130 401 156Q446 187 446 248Q446 301 420 338Q391 380 340 380Q309 380 309 400Q309 414 333 462Q342 480 345 483Q352 491 366 491Q442 491 483 408Q516 342 516 257Z"  />
<glyph unicode="&#x5EA;" horiz-adv-x="573" d="M537 233Q537 187 513 114Q487 33 456 11Q431 -7 391 -7Q384 -7 376 -2T368 10Q368 21 401 60Q466 137 466 241Q466 297 418 328Q377 355 318 355H297Q241 355 213 343Q172 325 172 276Q172 242 194 177T216 78Q216 0 134 0H62Q30 0 30 21Q30 38 51 85Q62 110 78 110H93Q123 110 123 122Q123 127 111 166Q100 202 100 243Q100 259 104 292T108 341Q108 359 89 389T70 437Q70 449 91 477T125 505Q131 505 144 490T168 475Q181 475 209 479T250 484T288 485Q312 485 324 485Q427 485 485 409Q537 340 537 233Z"  />
<glyph unicode="&#x5F0;" horiz-adv-x="502" d="M448 50Q448 29 424 11T377 -7Q359 -7 359 23V323Q359 356 321 356Q316 356 306 356Q296 355 291 355Q254 355 254 392Q254 410 281 476Q292 503 305 503Q310 503 325 495Q344 486 347 485Q379 477 411 469Q432 459 432 407Q432 390 431 357T430 306Q430 263 439 178T448 50ZM218 50Q218 29 194 11T147 -7Q129 -7 129 23V323Q129 356 91 356Q86 356 76 356Q66 355 61 355Q24 355 24 392Q24 410 51 476Q62 503 75 503Q80 503 95 495Q114 486 117 485Q149 477 181 469Q202 459 202 407Q202 390 201 357T200 306Q200 263 209 178T218 50Z"  />
<glyph unicode="&#x5F1;" horiz-adv-x="502" d="M448 50Q448 29 424 11T377 -7Q359 -7 359 23V323Q359 356 321 356Q316 356 306 356Q296 355 291 355Q254 355 254 392Q254 410 281 476Q292 503 305 503Q310 503 325 495Q344 486 347 485Q379 477 411 469Q432 459 432 407Q432 390 431 357T430 306Q430 263 439 178T448 50ZM209 368Q209 339 197 301Q184 256 166 242Q144 225 110 225Q93 225 93 240Q93 251 117 276T142 320Q142 347 116 353Q109 355 68 355Q49 355 35 364Q18 375 18 392Q18 409 28 435Q37 455 46 476Q57 503 69 503Q75 503 87 494T108 485H132Q170 485 191 443Q209 409 209 368Z"  />
<glyph unicode="&#x5F2;" horiz-adv-x="489" d="M449 368Q449 339 437 301Q424 256 406 242Q384 225 350 225Q333 225 333 240Q333 251 357 276T382 320Q382 347 356 353Q349 355 308 355Q289 355 275 364Q258 375 258 392Q258 409 268 435Q277 455 286 476Q297 503 309 503Q315 503 327 494T348 485H372Q410 485 431 443Q449 409 449 368ZM209 368Q209 339 197 301Q184 256 166 242Q144 225 110 225Q93 225 93 240Q93 251 117 276T142 320Q142 347 116 353Q109 355 68 355Q49 355 35 364Q18 375 18 392Q18 409 28 435Q37 455 46 476Q57 503 69 503Q75 503 87 494T108 485H132Q170 485 191 443Q209 409 209 368Z"  />
<glyph unicode="&#x5F3;" horiz-adv-x="283" d="M193 501Q193 442 139 370Q96 313 67 313Q54 313 54 324Q54 334 78 365T103 417Q103 434 80 456T56 496Q56 528 79 552T134 577Q161 577 177 553T193 501Z"  />
<glyph unicode="&#x5F4;" horiz-adv-x="425" d="M364 501Q364 442 310 370Q267 313 238 313Q226 313 226 324Q226 335 250 365T274 417Q274 434 251 456T227 496Q227 528 250 552T306 577Q333 577 350 552Q364 529 364 501ZM193 501Q193 442 139 370Q96 313 67 313Q54 313 54 324Q54 334 78 365T103 417Q103 434 80 456T56 496Q56 528 79 552T134 577Q161 577 177 553T193 501Z"  />
<glyph unicode="&#xF25;" horiz-adv-x="449" d="M413 291Q413 179 352 94Q285 0 177 0Q151 0 151 21Q151 38 181 105Q189 122 193 126T214 130H226Q271 130 307 175Q340 217 340 263Q340 302 311 328T242 355H79Q20 355 20 420Q20 468 30 523Q46 611 46 632Q46 657 24 692T2 743Q2 800 57 800Q129 800 129 719Q129 649 114 587Q96 512 96 497Q96 485 118 485H245Q328 485 372 428Q413 376 413 291Z"  />
<glyph unicode="&#x200E;" horiz-adv-x="406" d="M375 448L211 296V404H141V0H55V490H211V600L375 448Z"  />
<glyph unicode="&#x200F;" horiz-adv-x="406" d="M351 0H265V404H195V296L31 448L195 600V490H351V0Z"  />
<glyph unicode="&#x2013;" horiz-adv-x="449" d="M358 464Q358 447 350 432Q340 414 324 414H108Q92 414 92 428Q92 446 101 462T126 479H344Q358 479 358 464Z"  />
<glyph unicode="&#x2014;" horiz-adv-x="629" d="M577 263Q577 246 569 231Q559 213 543 213H67Q51 213 51 227Q51 245 60 261T85 278H563Q577 278 577 263Z"  />
<glyph unicode="&#x201A;" horiz-adv-x="283" d="M181 42Q181 -17 127 -89Q84 -146 55 -146Q42 -146 42 -135Q42 -125 66 -94T91 -42Q91 -25 68 -3T44 37Q44 69 67 93T122 118Q149 118 165 94T181 42Z"  />
<glyph unicode="&#x201C;" horiz-adv-x="449" d="M402 101Q402 88 394 72T373 56Q368 56 363 61L225 200L87 62Q82 57 77 57Q65 57 57 73T48 102Q48 116 54 122L181 245L55 370Q48 377 48 388Q48 401 56 417T77 433Q83 433 87 429L225 292L362 430Q366 434 373 434Q385 434 393 418T401 388Q401 376 395 370L270 245L395 121Q402 114 402 101Z"  />
<glyph unicode="&#x201D;" horiz-adv-x="449" d="M294 420Q294 386 266 363T204 339Q182 339 167 357T152 398Q152 429 176 452T233 475Q256 475 275 459T294 420ZM426 264Q426 213 400 213H35Q24 213 24 227Q24 277 50 277H415Q426 277 426 264ZM294 95Q294 61 266 38T204 14Q182 14 167 32T152 73Q152 104 176 127T233 150Q256 150 275 134T294 95Z"  />
<glyph unicode="&#x2020;" horiz-adv-x="271" d="M222 423H155V66H119V423H53V456H119V520Q119 531 110 552T101 585Q101 597 108 618T120 664T137 689Q149 689 154 664T166 618T173 585Q173 573 164 552T155 520V456H222V423Z"  />
<glyph unicode="&#x2021;" horiz-adv-x="271" d="M221 174H154V110Q154 99 163 78T172 45Q172 33 165 12T153 -33Q147 -60 136 -60Q125 -60 119 -33Q114 -9 107 12T100 45Q100 57 109 78T118 110V174H52V207H118V422H52V456H118V520Q118 531 109 551T100 584Q100 597 107 618T119 664T136 689Q148 689 153 664T165 618T172 584Q172 572 163 552T154 520V456H221V422H154V207H221V174Z"  />
<glyph unicode="&#x2022;" horiz-adv-x="471" d="M405 227Q405 163 355 117T234 71Q163 71 113 117T62 227Q62 291 112 336T234 382Q305 382 355 337T405 227Z"  />
<glyph unicode="&#x2026;" horiz-adv-x="703" d="M652 75Q652 41 624 18T561 -6Q539 -6 524 12T509 53Q509 84 534 107T591 130Q614 130 633 114T652 75ZM425 75Q425 41 397 18T334 -6Q312 -6 297 12T282 53Q282 84 307 107T364 130Q387 130 406 114T425 75ZM197 75Q197 41 169 18T106 -6Q84 -6 69 12T54 53Q54 84 79 107T136 130Q159 130 178 114T197 75Z"  />
<glyph unicode="&#x2030;" horiz-adv-x="1138" d="M1096 179Q1096 101 1055 48Q1010 -11 930 -11Q847 -11 798 49Q755 102 755 179Q755 254 798 307Q845 365 926 365Q1007 365 1054 306Q1096 254 1096 179ZM736 179Q736 101 695 48Q650 -11 570 -11Q487 -11 438 49Q394 103 394 179Q394 254 437 307Q484 365 565 365Q647 365 694 306Q736 254 736 179ZM638 656L173 -4H126L591 656H638ZM372 469Q372 391 331 339Q286 280 206 280Q123 280 74 339Q31 393 31 469Q31 545 74 597Q121 656 202 656Q283 656 330 597Q372 544 372 469ZM1001 167V190Q1001 269 990 299Q975 344 926 344Q877 344 861 299Q850 269 850 190V167Q850 85 861 56Q877 11 930 11Q976 11 991 54Q1001 85 1001 167ZM640 167V190Q640 269 629 299Q614 344 565 344Q516 344 500 299Q490 269 490 190V167Q490 85 501 56Q517 11 570 11Q616 11 630 54Q640 84 640 167ZM277 458V481Q277 560 266 590Q251 634 202 634Q153 634 137 589Q126 559 126 481V458Q126 376 137 346Q153 301 206 301Q252 301 267 345Q277 375 277 458Z"  />
<glyph unicode="&#x2039;" horiz-adv-x="271" d="M238 108H208L29 258L208 408H238L109 258L238 108Z"  />
<glyph unicode="&#x203A;" horiz-adv-x="271" d="M243 258L63 108H35L164 258L35 408H63L243 258Z"  />
<glyph unicode="&#x20AA;" horiz-adv-x="664" d="M598 246Q598 195 576 119Q550 31 519 12T452 -7Q446 -7 438 -2T430 10Q430 22 462 60Q527 137 527 240Q527 297 489 335T393 374Q294 374 259 277Q253 260 247 244Q237 224 222 224Q209 224 199 248Q190 269 190 284Q190 365 248 430T387 496Q480 496 542 416Q598 342 598 246ZM432 205Q432 124 375 59Q315 -7 235 -7Q142 -7 80 73Q24 147 24 243Q24 294 46 370Q72 458 103 477T170 496Q176 496 184 491T192 479Q192 467 160 429Q95 352 95 249Q95 192 133 154T229 115Q330 115 364 212Q370 228 375 245Q385 265 400 265Q413 265 422 243T432 205Z"  />
<glyph unicode="&#x20AC;" horiz-adv-x="615" d="M589 52Q509 -16 403 -16Q307 -16 231 41T127 191H29L63 251H117Q116 271 116 271Q116 278 117 294H29L63 354H128Q157 445 232 501T403 558Q509 558 589 490L558 437Q493 498 403 498Q334 498 278 459T192 354H512L476 294H177Q176 282 176 271Q176 266 177 251H452L417 191H190Q218 124 275 84T403 44Q493 44 558 105L572 79Q575 74 589 52Z"  />
<glyph unicode="&#x2122;" horiz-adv-x="510" d="M467 464H371V480H399V596L351 464H339L286 589V480H315V464H238V480H266V628H238V645H301L353 522L399 645H467V628H440V480H467V464ZM216 600H199Q198 607 196 612Q190 628 169 628H147V480H175V464H78V480H105V628H82Q56 628 52 600H35L40 645H212L216 600Z"  />
<glyph unicode="&#x2153;" horiz-adv-x="593" d="M189 257Q189 245 181 227Q172 206 162 206H50Q32 206 32 221Q32 232 42 255Q50 273 60 273H89V417Q89 438 80 438Q73 438 62 427T41 415Q32 415 32 432Q32 459 53 483T102 508Q140 508 140 423V273H170Q189 273 189 257ZM561 85Q561 37 520 6T429 -26Q398 -26 368 -15Q330 0 330 26Q330 38 339 47T360 56Q375 56 402 46T445 35Q467 35 489 48T512 82Q512 127 446 127Q440 127 429 126T413 124Q393 124 393 142Q393 150 439 172T486 218Q486 244 444 244Q413 244 388 232Q386 231 368 220T347 209Q331 209 331 226Q331 238 339 253Q367 301 437 301Q474 301 502 284Q536 264 536 230Q536 184 480 164Q512 164 536 140T561 85ZM422 685Q422 646 398 575Q379 521 359 466L220 16Q213 -15 192 -76Q184 -94 178 -98T153 -103Q126 -103 126 -89Q126 -83 131 -67Q213 187 287 437Q302 494 318 552Q336 620 356 664Q367 688 373 692T407 696Q422 696 422 685Z"  />
<glyph unicode="&#x2154;" horiz-adv-x="593" d="M223 418Q223 369 182 339Q161 323 106 302Q64 285 64 272H200Q218 272 218 257Q218 244 211 227Q203 205 192 205H36Q13 205 13 240Q13 244 13 251Q14 258 14 261Q14 300 56 326Q95 344 134 362Q177 382 177 406Q177 429 155 442Q137 453 112 453Q90 453 63 434T29 414Q15 414 15 432Q15 444 23 459Q48 507 111 507Q155 507 187 484Q223 459 223 418ZM580 85Q580 37 539 6T447 -26Q417 -26 387 -15Q348 0 348 26Q348 38 357 47T379 56Q394 56 421 46T464 35Q486 35 508 48T531 82Q531 127 464 127Q459 127 448 126T431 124Q411 124 411 142Q411 150 457 172T504 218Q504 244 462 244Q432 244 407 232Q405 231 385 219Q369 209 366 209Q350 209 350 226Q350 238 358 253Q385 301 456 301Q492 301 521 284Q555 264 555 230Q555 184 499 164Q530 164 555 140T580 85ZM445 685Q445 645 421 575Q401 520 382 466L243 16Q235 -16 215 -76Q207 -94 201 -98T176 -103Q149 -103 149 -89Q149 -83 154 -67Q235 187 310 437Q325 494 341 551Q359 620 379 664Q390 688 396 692T430 696Q445 696 445 685Z"  />
<glyph unicode="&#x2212;" horiz-adv-x="277" d="M277 231H4V262H277V231Z"  />
<glyph unicode="&#x2219;" horiz-adv-x="231" d="M172 309Q172 287 155 272T112 257Q87 257 70 272T52 309Q52 331 69 346T112 361Q137 361 154 346T172 309Z"  />
<glyph unicode="&#xE802;" horiz-adv-x="455" d="M401 -139Q401 -158 379 -179T337 -200Q326 -200 318 -190T309 -169V218Q309 273 288 310Q262 355 211 355H69Q50 355 34 364T18 392Q18 408 47 476Q58 503 71 503Q77 503 90 494T113 485H219Q307 485 349 403Q382 340 382 242V137Q382 65 399 -110Q401 -131 401 -139ZM204 262Q204 242 187 228T149 214Q136 214 127 225T118 250Q118 269 133 282T167 296Q181 296 192 286T204 262ZM204 164Q204 144 187 130T149 116Q136 116 127 126T118 150Q118 169 133 183T167 197Q181 197 192 188T204 164Z"  />
<glyph unicode="&#xE803;" horiz-adv-x="455" d="M401 -139Q401 -158 379 -179T337 -200Q326 -200 318 -190T309 -169V218Q309 273 288 310Q262 355 211 355H69Q50 355 34 364T18 392Q18 408 47 476Q58 503 71 503Q77 503 90 494T113 485H219Q307 485 349 403Q382 340 382 242V137Q382 65 399 -110Q401 -131 401 -139ZM242 276Q242 260 235 247Q226 231 212 231H185V177Q185 163 170 154T140 145Q127 145 127 159V231H86Q73 231 73 243Q73 289 99 289H229Q242 289 242 276Z"  />
<glyph unicode="&#xE804;" horiz-adv-x="449" d="M413 291Q413 179 352 94Q285 0 177 0Q151 0 151 21Q151 38 181 105Q189 122 193 126T214 130H226Q271 130 307 175Q340 217 340 263Q340 302 311 328T242 355H79Q20 355 20 420Q20 468 30 523Q46 611 46 632Q46 657 24 692T2 743Q2 800 57 800Q129 800 129 719Q129 649 114 587Q96 512 96 497Q96 485 118 485H245Q328 485 372 428Q413 376 413 291ZM10 598Q10 578 -7 565T-45 551Q-58 551 -67 562T-76 586Q-76 605 -61 618T-27 632Q-13 632 -2 622T10 598Z"  />
<glyph unicode="&#xE805;" horiz-adv-x="449" d="M413 291Q413 179 352 94Q285 0 177 0Q151 0 151 21Q151 38 181 105Q189 122 193 126T214 130H226Q271 130 307 175Q340 217 340 263Q340 302 311 328T242 355H79Q20 355 20 420Q20 468 30 523Q46 611 46 632Q46 657 24 692T2 743Q2 800 57 800Q129 800 129 719Q129 649 114 587Q96 512 96 497Q96 485 118 485H245Q328 485 372 428Q413 376 413 291ZM10 598Q10 578 -7 565T-45 551Q-58 551 -67 562T-76 586Q-76 605 -61 618T-27 632Q-13 632 -2 622T10 598ZM219 254Q219 234 202 220T164 206Q151 206 142 217T133 241Q133 260 148 274T182 288Q196 288 207 278T219 254Z"  />
<glyph unicode="&#xFB1F;" horiz-adv-x="535" d="M467 368Q467 339 455 301Q442 256 424 242Q402 225 368 225Q351 225 351 240Q351 251 375 276T400 320Q400 347 374 353Q367 355 326 355Q307 355 293 364Q276 375 276 392Q276 409 286 435Q295 455 304 476Q315 503 327 503Q333 503 345 494T366 485H390Q428 485 449 443Q467 409 467 368ZM227 368Q227 339 215 301Q202 256 184 242Q162 225 128 225Q111 225 111 240Q111 251 135 276T160 320Q160 347 134 353Q127 355 86 355Q67 355 53 364Q36 375 36 392Q36 409 46 435Q55 455 64 476Q75 503 87 503Q93 503 105 494T126 485H150Q188 485 209 443Q227 409 227 368ZM495 0H18V47H495V0Z"  />
<glyph unicode="&#xFB20;" horiz-adv-x="550" d="M514 288Q514 176 452 92Q384 0 276 0H61Q30 0 30 21Q30 47 59 105Q72 130 89 130H177Q193 130 193 152Q193 197 130 285T66 408Q66 427 83 463Q102 503 118 503Q142 503 164 447Q203 350 250 215Q280 130 315 130Q363 130 400 172T437 263Q437 323 399 343Q380 352 327 355Q289 357 289 375Q289 408 314 460Q325 484 345 484Q423 484 471 424Q514 369 514 288Z"  />
<glyph unicode="&#xFB21;" horiz-adv-x="502" d="M466 240Q466 191 443 117Q417 31 388 12T320 -7Q314 -7 306 -2T298 10Q298 22 330 60Q395 138 395 241Q395 355 264 355H80Q62 355 46 365T30 392Q30 409 57 476Q68 503 80 503Q91 503 115 493T153 483Q171 483 207 484T262 485Q357 485 414 408Q466 338 466 240ZM154 59Q154 -5 96 -5Q69 -5 69 43L68 213Q68 275 102 275Q139 275 139 213Q139 187 146 136T154 59Z"  />
<glyph unicode="&#xFB22;" horiz-adv-x="473" d="M437 464Q437 433 412 385Q402 365 381 355Q356 343 351 338Q343 329 343 305Q343 243 359 87Q361 68 361 58Q361 31 340 12T291 -7Q273 -7 273 25V276Q273 334 288 355H68Q50 355 34 365T18 392Q18 407 45 476Q56 503 68 503Q74 503 88 494T111 485H407Q437 485 437 464Z"  />
<glyph unicode="&#xFB24;" horiz-adv-x="441" d="M405 245Q405 148 351 77Q292 0 198 0H61Q30 0 30 21Q30 53 57 105Q70 130 90 130H221Q270 130 301 161T333 241Q333 293 298 324T209 355H80Q62 355 46 365T30 392Q30 410 58 476Q70 503 82 503Q88 503 101 494T125 485H205Q297 485 353 409Q405 340 405 245Z"  />
<glyph unicode="&#xFB26;" horiz-adv-x="561" d="M507 87Q507 0 440 0H157Q109 0 93 28Q82 47 82 99V338Q82 359 55 388T28 438Q28 449 50 476T83 503Q89 503 102 489T127 475Q136 475 168 479Q208 484 257 484H358Q418 484 444 472Q479 456 493 418Q502 394 505 344Q507 308 507 279V87ZM436 194V218Q436 311 413 333T296 355H219Q151 355 151 309Q151 286 155 246Q158 202 159 183Q160 155 163 147Q169 130 191 130H389Q419 130 429 148Q436 161 436 194Z"  />
<glyph unicode="&#xFB27;" horiz-adv-x="436" d="M400 240Q400 192 377 116Q351 31 321 12T254 -7Q248 -7 240 -2T232 10Q232 22 264 60Q329 138 329 241Q329 308 281 335Q245 356 172 356Q159 356 133 355T94 354Q18 354 18 392Q18 405 47 476Q58 503 70 503Q76 503 89 494T113 485H199Q292 485 349 407Q400 337 400 240Z"  />
<glyph unicode="&#xFB28;" horiz-adv-x="573" d="M537 233Q537 187 513 114Q487 33 456 11Q431 -7 391 -7Q384 -7 376 -2T368 10Q368 21 401 60Q466 137 466 241Q466 297 418 328Q377 355 318 355H297Q241 355 213 343Q172 325 172 276Q172 242 194 177T216 78Q216 0 134 0H62Q30 0 30 21Q30 38 51 85Q62 110 78 110H93Q123 110 123 122Q123 127 111 166Q100 202 100 243Q100 259 104 292T108 341Q108 359 89 389T70 437Q70 449 91 477T125 505Q131 505 144 490T168 475Q181 475 209 479T250 484T287 485Q312 485 324 485Q427 485 485 409Q537 340 537 233Z"  />
<glyph unicode="&#xFB2A;" horiz-adv-x="552" d="M516 257Q516 151 449 77Q380 0 276 0H165Q122 0 104 17T86 77V229Q86 275 67 320Q55 345 43 369Q28 400 28 421Q28 437 48 470T83 503Q110 503 123 459Q129 426 135 393Q138 377 144 377Q153 377 191 453Q213 500 235 547Q271 620 301 620Q332 620 332 579Q332 549 285 476Q242 409 199 342Q152 263 152 215Q152 187 156 165Q161 140 167 135T198 130H298Q362 130 401 156Q446 187 446 248Q446 301 420 338Q391 380 340 380Q309 380 309 400Q309 414 333 462Q342 480 345 483Q352 491 366 491Q442 491 483 408Q516 342 516 257ZM479 598Q479 578 462 565T424 551Q411 551 402 562T393 586Q393 605 408 618T442 632Q456 632 467 622T479 598Z"  />
<glyph unicode="&#xFB2B;" horiz-adv-x="552" d="M516 257Q516 151 449 77Q380 0 276 0H165Q122 0 104 17T86 77V229Q86 275 67 320Q55 345 43 369Q28 400 28 421Q28 437 48 470T83 503Q110 503 123 459Q129 426 135 393Q138 377 144 377Q153 377 191 453Q213 500 235 547Q271 620 301 620Q332 620 332 579Q332 549 285 476Q242 409 199 342Q152 263 152 215Q152 187 156 165Q161 140 167 135T198 130H298Q362 130 401 156Q446 187 446 248Q446 301 420 338Q391 380 340 380Q309 380 309 400Q309 414 333 462Q342 480 345 483Q352 491 366 491Q442 491 483 408Q516 342 516 257ZM129 598Q129 578 112 565T74 551Q61 551 52 562T43 586Q43 605 58 618T92 632Q106 632 117 622T129 598Z"  />
<glyph unicode="&#xFB2C;" horiz-adv-x="552" d="M516 257Q516 151 449 77Q380 0 276 0H165Q122 0 104 17T86 77V229Q86 275 67 320Q55 345 43 369Q28 400 28 421Q28 437 48 470T83 503Q110 503 123 459Q129 426 135 393Q138 377 144 377Q153 377 191 453Q213 500 235 547Q271 620 301 620Q332 620 332 579Q332 549 285 476Q242 409 199 342Q152 263 152 215Q152 187 156 165Q161 140 167 135T198 130H298Q362 130 401 156Q446 187 446 248Q446 301 420 338Q391 380 340 380Q309 380 309 400Q309 414 333 462Q342 480 345 483Q352 491 366 491Q442 491 483 408Q516 342 516 257ZM479 598Q479 578 462 565T424 551Q411 551 402 562T393 586Q393 605 408 618T442 632Q456 632 467 622T479 598ZM339 254Q339 234 322 220T284 206Q271 206 262 217T253 241Q253 260 268 274T302 288Q316 288 327 278T339 254Z"  />
<glyph unicode="&#xFB2D;" horiz-adv-x="552" d="M516 257Q516 151 449 77Q380 0 276 0H165Q122 0 104 17T86 77V229Q86 275 67 320Q55 345 43 369Q28 400 28 421Q28 437 48 470T83 503Q110 503 123 459Q129 426 135 393Q138 377 144 377Q153 377 191 453Q213 500 235 547Q271 620 301 620Q332 620 332 579Q332 549 285 476Q242 409 199 342Q152 263 152 215Q152 187 156 165Q161 140 167 135T198 130H298Q362 130 401 156Q446 187 446 248Q446 301 420 338Q391 380 340 380Q309 380 309 400Q309 414 333 462Q342 480 345 483Q352 491 366 491Q442 491 483 408Q516 342 516 257ZM129 598Q129 578 112 565T74 551Q61 551 52 562T43 586Q43 605 58 618T92 632Q106 632 117 622T129 598ZM339 254Q339 234 322 220T284 206Q271 206 262 217T253 241Q253 260 268 274T302 288Q316 288 327 278T339 254Z"  />
<glyph unicode="&#xFB2E;" horiz-adv-x="490" d="M456 579Q456 537 397 478Q324 406 313 385Q376 371 415 306Q449 247 449 178Q449 137 433 89Q415 34 388 14T323 -7Q317 -7 310 -2T302 8Q302 15 320 39Q343 69 354 90Q372 127 372 165Q372 231 325 270Q281 306 214 306Q193 306 186 302Q176 297 169 279T162 182V52Q162 26 143 9T97 -9Q83 -9 72 6T61 36Q61 65 67 124T73 212Q73 287 45 369Q28 419 28 431Q28 446 61 481T110 516Q136 516 145 485Q150 468 151 424Q151 387 157 380H161Q211 380 269 438Q312 480 347 539Q373 583 377 589Q401 621 420 621Q456 621 456 579ZM315 -106Q315 -151 289 -151H164Q152 -151 152 -139Q152 -93 178 -93H304Q315 -93 315 -106Z"  />
<glyph unicode="&#xFB2F;" horiz-adv-x="490" d="M456 579Q456 537 397 478Q324 406 313 385Q376 371 415 306Q449 247 449 178Q449 137 433 89Q415 34 388 14T323 -7Q317 -7 310 -2T302 8Q302 15 320 39Q343 69 354 90Q372 127 372 165Q372 231 325 270Q281 306 214 306Q193 306 186 302Q176 297 169 279T162 182V52Q162 26 143 9T97 -9Q83 -9 72 6T61 36Q61 65 67 124T73 212Q73 287 45 369Q28 419 28 431Q28 446 61 481T110 516Q136 516 145 485Q150 468 151 424Q151 387 157 380H161Q211 380 269 438Q312 480 347 539Q373 583 377 589Q401 621 420 621Q456 621 456 579ZM318 -106Q318 -122 311 -135Q302 -151 288 -151H261V-205Q261 -219 246 -228T216 -237Q203 -237 203 -223V-151H162Q149 -151 149 -139Q149 -93 175 -93H305Q318 -93 318 -106Z"  />
<glyph unicode="&#xFB30;" horiz-adv-x="490" d="M456 579Q456 537 397 478Q324 406 313 385Q376 371 415 306Q449 247 449 178Q449 137 433 89Q415 34 388 14T323 -7Q317 -7 310 -2T302 8Q302 15 320 39Q343 69 354 90Q372 127 372 165Q372 231 325 270Q281 306 214 306Q193 306 186 302Q176 297 169 279T162 182V52Q162 26 143 9T97 -9Q83 -9 72 6T61 36Q61 65 67 124T73 212Q73 287 45 369Q28 419 28 431Q28 446 61 481T110 516Q136 516 145 485Q150 468 151 424Q151 387 157 380H161Q211 380 269 438Q312 480 347 539Q373 583 377 589Q401 621 420 621Q456 621 456 579ZM281 -104Q281 -124 264 -138T226 -153Q213 -153 204 -142T195 -117Q195 -98 210 -85T244 -71Q258 -71 269 -80T281 -104Z"  />
<glyph unicode="&#xFB31;" horiz-adv-x="479" d="M455 108Q455 92 445 68Q436 49 427 30Q414 0 396 0H61Q30 0 30 21Q30 42 59 104Q71 130 90 130H202Q255 130 298 167T341 257Q341 355 257 355H80Q61 355 47 364Q30 375 30 392Q30 407 57 476Q68 503 80 503Q86 503 101 494T126 485H255Q336 485 377 421Q411 367 411 281Q411 227 394 194Q386 181 378 169Q369 153 369 142Q369 130 412 130T455 108ZM229 254Q229 234 212 220T174 206Q161 206 152 217T143 241Q143 260 158 274T192 288Q206 288 217 278T229 254Z"  />
<glyph unicode="&#xFB32;" horiz-adv-x="356" d="M320 96Q320 69 297 33Q272 -7 247 -7Q231 -7 219 55T197 118Q190 118 151 38Q119 -25 104 -61Q73 -135 45 -135Q32 -135 20 -127T8 -106Q8 -84 32 -43Q66 15 140 153Q178 224 178 266V319Q178 345 159 352Q151 355 119 355Q101 355 85 365T69 392Q69 412 95 476Q106 503 119 503Q125 503 139 494T162 485H189Q246 485 246 407V255Q246 219 283 163T320 96ZM140 254Q140 234 123 220T85 206Q72 206 63 217T54 241Q54 260 69 274T103 288Q117 288 128 278T140 254Z"  />
<glyph unicode="&#xFB33;" horiz-adv-x="473" d="M437 464Q437 433 412 385Q402 365 381 355Q356 343 351 338Q343 329 343 305Q343 243 359 87Q361 68 361 58Q361 31 340 12T291 -7Q273 -7 273 25V276Q273 334 288 355H68Q50 355 34 365T18 392Q18 407 45 476Q56 503 68 503Q74 503 88 494T111 485H407Q437 485 437 464ZM189 254Q189 234 172 220T134 206Q121 206 112 217T103 241Q103 260 118 274T152 288Q166 288 177 278T189 254Z"  />
<glyph unicode="&#xFB34;" horiz-adv-x="502" d="M466 240Q466 191 443 117Q417 31 388 12T320 -7Q314 -7 306 -2T298 10Q298 22 330 60Q395 138 395 241Q395 355 264 355H80Q62 355 46 365T30 392Q30 409 57 476Q68 503 80 503Q91 503 115 493T153 483Q171 483 207 484T262 485Q357 485 414 408Q466 338 466 240ZM154 59Q154 -5 96 -5Q69 -5 69 43L68 213Q68 275 102 275Q139 275 139 213Q139 187 146 136T154 59ZM299 254Q299 234 282 220T244 206Q231 206 222 217T213 241Q213 260 228 274T262 288Q276 288 287 278T299 254Z"  />
<glyph unicode="&#xFB35;" horiz-adv-x="272" d="M218 50Q218 29 194 11T147 -7Q129 -7 129 23V323Q129 356 91 356Q86 356 76 356Q66 355 61 355Q24 355 24 392Q24 410 51 476Q62 503 75 503Q80 503 95 495Q114 486 117 485Q149 477 181 469Q202 459 202 407Q202 390 201 357T200 306Q200 263 209 178T218 50ZM100 254Q100 234 83 220T45 206Q32 206 23 217T14 241Q14 260 29 274T63 288Q77 288 88 278T100 254Z"  />
<glyph unicode="&#xFB36;" horiz-adv-x="311" d="M271 464Q271 448 261 424Q253 404 244 385Q232 355 213 355Q148 355 148 279Q148 244 179 185T210 91Q210 70 190 33Q168 -7 149 -7Q126 -7 112 56Q108 75 92 160Q80 225 80 245Q80 293 108 355Q74 354 81 354Q24 354 24 392Q24 407 51 476Q62 503 74 503Q81 503 94 494T117 484H240Q271 484 271 464ZM50 254Q50 234 33 220T-5 206Q-18 206 -27 217T-36 241Q-36 260 -21 274T13 288Q27 288 38 278T50 254Z"  />
<glyph unicode="&#xFB38;" horiz-adv-x="557" d="M521 291Q521 166 458 84Q388 -7 267 -7Q175 -7 129 58Q90 114 90 210Q90 279 69 320Q55 341 42 363Q26 389 26 410Q26 437 42 468Q60 504 84 504Q109 504 130 462Q145 432 152 398Q162 349 162 224Q162 130 233 130H319Q380 130 416 174Q448 215 448 278Q448 378 375 378Q356 378 322 360T269 342Q256 342 256 362Q256 406 293 454T374 503Q447 503 487 430Q521 370 521 291ZM339 254Q339 234 322 220T284 206Q271 206 262 217T253 241Q253 260 268 274T302 288Q316 288 327 278T339 254Z"  />
<glyph unicode="&#xFB39;" horiz-adv-x="249" d="M209 368Q209 339 197 301Q184 256 166 242Q144 225 110 225Q93 225 93 240Q93 251 117 276T142 320Q142 347 116 353Q109 355 68 355Q49 355 35 364Q18 375 18 392Q18 409 28 435Q37 455 46 476Q57 503 69 503Q75 503 87 494T108 485H132Q170 485 191 443Q209 409 209 368ZM80 294Q80 274 63 260T25 246Q12 246 3 257T-6 281Q-6 300 9 314T43 328Q57 328 68 318T80 294Z"  />
<glyph unicode="&#xFB3A;" horiz-adv-x="455" d="M401 -139Q401 -158 379 -179T337 -200Q326 -200 318 -190T309 -169V218Q309 273 288 310Q262 355 211 355H69Q50 355 34 364T18 392Q18 408 47 476Q58 503 71 503Q77 503 90 494T113 485H219Q307 485 349 403Q382 340 382 242V137Q382 65 399 -110Q401 -131 401 -139ZM199 254Q199 234 182 220T144 206Q131 206 122 217T113 241Q113 260 128 274T162 288Q176 288 187 278T199 254Z"  />
<glyph unicode="&#xFB3B;" horiz-adv-x="441" d="M405 245Q405 148 351 77Q292 0 198 0H61Q30 0 30 21Q30 53 57 105Q70 130 90 130H221Q270 130 301 161T333 241Q333 293 298 324T209 355H80Q62 355 46 365T30 392Q30 410 58 476Q70 503 82 503Q88 503 101 494T125 485H205Q297 485 353 409Q405 340 405 245ZM219 254Q219 234 202 220T164 206Q151 206 142 217T133 241Q133 260 148 274T182 288Q196 288 207 278T219 254Z"  />
<glyph unicode="&#xFB3C;" horiz-adv-x="449" d="M413 291Q413 179 352 94Q285 0 177 0Q151 0 151 21Q151 38 181 105Q189 122 193 126T214 130H226Q271 130 307 175Q340 217 340 263Q340 302 311 328T242 355H79Q20 355 20 420Q20 468 30 523Q46 611 46 632Q46 657 24 692T2 743Q2 800 57 800Q129 800 129 719Q129 649 114 587Q96 512 96 497Q96 485 118 485H245Q328 485 372 428Q413 376 413 291ZM229 254Q229 234 212 220T174 206Q161 206 152 217T143 241Q143 260 158 274T192 288Q206 288 217 278T229 254Z"  />
<glyph unicode="&#xFB3E;" horiz-adv-x="557" d="M514 246Q514 150 459 78Q399 0 306 0H268Q237 0 237 21Q237 50 265 105Q273 121 277 124T300 130Q300 130 323 130Q442 130 442 242Q442 297 407 330T317 363H281Q232 363 199 326T166 240V24Q166 -7 139 -7Q121 -7 99 13T77 51Q77 87 85 159T93 268Q93 299 61 344T28 410Q28 436 43 468Q62 504 85 504Q106 504 128 446T155 388Q161 388 174 408Q182 421 190 434Q234 496 312 496Q404 496 462 415Q514 342 514 246ZM349 254Q349 234 332 220T294 206Q281 206 272 217T263 241Q263 260 278 274T312 288Q326 288 337 278T349 254Z"  />
<glyph unicode="&#xFB40;" horiz-adv-x="301" d="M247 159Q247 0 148 0H55Q24 0 24 21Q24 41 53 105Q64 130 84 130L120 129Q154 129 165 145Q174 157 174 193Q174 201 174 216Q173 230 173 238Q173 288 167 311Q155 355 118 355Q113 355 104 355Q95 354 90 354Q35 354 35 392Q35 408 63 476Q74 503 87 503Q96 503 114 494T148 485Q245 485 245 244Q245 230 246 202T247 159ZM140 254Q140 234 123 220T85 206Q72 206 63 217T54 241Q54 260 69 274T103 288Q117 288 128 278T140 254Z"  />
<glyph unicode="&#xFB41;" horiz-adv-x="537" d="M501 257Q501 213 480 162Q413 0 262 0H157Q110 0 94 28Q82 48 82 99V339Q82 360 55 388T28 438Q28 450 50 476T83 502Q88 502 102 489T128 476Q144 476 175 480T223 485H306Q399 485 452 416Q501 352 501 257ZM425 248Q425 355 315 355H227Q188 355 172 344Q151 330 151 292Q151 304 159 176Q162 130 183 130H284Q340 130 380 161Q425 194 425 248ZM329 254Q329 234 312 220T274 206Q261 206 252 217T243 241Q243 260 258 274T292 288Q306 288 317 278T329 254Z"  />
<glyph unicode="&#xFB44;" horiz-adv-x="529" d="M493 234Q493 174 471 123Q418 0 272 0H83Q52 0 52 21Q52 48 81 105Q94 130 113 130H294Q347 130 382 156Q421 186 421 237Q421 361 262 361Q133 361 133 308Q133 273 185 273Q204 273 235 289T281 305Q287 305 292 296T297 281Q297 239 256 202T172 165Q107 165 86 223Q74 257 74 336Q74 356 52 388T30 439Q30 448 53 475T85 503Q92 503 105 489T130 475Q139 475 178 480T274 485Q377 485 438 410Q493 340 493 234ZM397 254Q397 234 380 220T342 206Q329 206 320 217T311 241Q311 260 326 274T360 288Q374 288 385 278T397 254Z"  />
<glyph unicode="&#xFB46;" horiz-adv-x="462" d="M428 214Q428 118 355 57Q287 0 189 0H61Q30 0 30 21Q30 45 60 105Q72 130 91 130H218Q343 130 343 195Q343 244 315 256Q301 262 245 262H146Q99 262 60 315Q24 365 24 414Q24 437 51 469T102 501Q129 501 136 438Q143 372 168 367Q179 365 192 365Q217 365 327 560Q357 614 389 614Q403 614 411 602T419 575Q419 538 359 471T298 374Q298 355 320 355Q428 355 428 214ZM259 205Q259 185 242 171T204 157Q191 157 182 168T173 192Q173 211 188 225T222 239Q236 239 247 229T259 205Z"  />
<glyph unicode="&#xFB47;" horiz-adv-x="517" d="M481 262Q481 163 415 84Q346 0 249 0Q223 0 223 21Q223 51 251 105Q259 120 264 124T286 129H298Q344 129 376 168Q405 204 405 251Q405 298 378 326T304 355H95Q77 355 61 365T45 392Q45 409 74 476Q86 503 98 503Q104 503 118 494T143 485H279Q374 485 429 420Q481 359 481 262ZM175 -139Q175 -158 153 -179T111 -200Q100 -200 92 -190T83 -169V222Q83 273 113 273Q156 273 156 217V137Q156 61 173 -110Q175 -130 175 -139ZM309 254Q309 234 292 220T254 206Q241 206 232 217T223 241Q223 260 238 274T272 288Q286 288 297 278T309 254Z"  />
<glyph unicode="&#xFB48;" horiz-adv-x="436" d="M400 240Q400 192 377 116Q351 31 321 12T254 -7Q248 -7 240 -2T232 10Q232 22 264 60Q329 138 329 241Q329 308 281 335Q245 356 172 356Q159 356 133 355T94 354Q18 354 18 392Q18 405 47 476Q58 503 70 503Q76 503 89 494T113 485H199Q292 485 349 407Q400 337 400 240ZM219 254Q219 234 202 220T164 206Q151 206 142 217T133 241Q133 260 148 274T182 288Q196 288 207 278T219 254Z"  />
<glyph unicode="&#xFB49;" horiz-adv-x="552" d="M516 257Q516 151 449 77Q380 0 276 0H165Q122 0 104 17T86 77V229Q86 275 67 320Q55 345 43 369Q28 400 28 421Q28 437 48 470T83 503Q110 503 123 459Q129 426 135 393Q138 377 144 377Q153 377 191 453Q213 500 235 547Q271 620 301 620Q332 620 332 579Q332 549 285 476Q242 409 199 342Q152 263 152 215Q152 187 156 165Q161 140 167 135T198 130H298Q362 130 401 156Q446 187 446 248Q446 301 420 338Q391 380 340 380Q309 380 309 400Q309 414 333 462Q342 480 345 483Q352 491 366 491Q442 491 483 408Q516 342 516 257ZM339 254Q339 234 322 220T284 206Q271 206 262 217T253 241Q253 260 268 274T302 288Q316 288 327 278T339 254Z"  />
<glyph unicode="&#xFB4A;" horiz-adv-x="573" d="M537 233Q537 187 513 114Q487 33 456 11Q431 -7 391 -7Q384 -7 376 -2T368 10Q368 21 401 60Q466 137 466 241Q466 297 418 328Q377 355 318 355H297Q241 355 213 343Q172 325 172 276Q172 242 194 177T216 78Q216 0 134 0H62Q30 0 30 21Q30 38 51 85Q62 110 78 110H93Q123 110 123 122Q123 127 111 166Q100 202 100 243Q100 259 104 292T108 341Q108 359 89 389T70 437Q70 449 91 477T125 505Q131 505 144 490T168 475Q181 475 209 479T250 484T288 485Q312 485 324 485Q427 485 485 409Q537 340 537 233ZM359 254Q359 234 342 220T304 206Q291 206 282 217T273 241Q273 260 288 274T322 288Q336 288 347 278T359 254Z"  />
<glyph unicode="&#xFB4B;" horiz-adv-x="272" d="M218 50Q218 29 194 11T147 -7Q129 -7 129 23V323Q129 356 91 356Q86 356 76 356Q66 355 61 355Q24 355 24 392Q24 410 51 476Q62 503 75 503Q80 503 95 495Q114 486 117 485Q149 477 181 469Q202 459 202 407Q202 390 201 357T200 306Q200 263 209 178T218 50ZM169 598Q169 578 152 565T114 551Q101 551 92 562T83 586Q83 605 98 618T132 632Q146 632 157 622T169 598Z"  />
<glyph unicode="&#xFB4C;" horiz-adv-x="479" d="M455 108Q455 92 445 68Q436 49 427 30Q414 0 396 0H61Q30 0 30 21Q30 42 59 104Q71 130 90 130H202Q255 130 298 167T341 257Q341 355 257 355H80Q61 355 47 364Q30 375 30 392Q30 407 57 476Q68 503 80 503Q86 503 101 494T126 485H255Q336 485 377 421Q411 367 411 281Q411 227 394 194Q386 181 378 169Q369 153 369 142Q369 130 412 130T455 108ZM364 639Q364 594 338 594H113Q101 594 101 606Q101 652 127 652H353Q364 652 364 639Z"  />
<glyph unicode="&#xFB4D;" horiz-adv-x="441" d="M405 245Q405 148 351 77Q292 0 198 0H61Q30 0 30 21Q30 53 57 105Q70 130 90 130H221Q270 130 301 161T333 241Q333 293 298 324T209 355H80Q62 355 46 365T30 392Q30 410 58 476Q70 503 82 503Q88 503 101 494T125 485H205Q297 485 353 409Q405 340 405 245ZM325 639Q325 594 299 594H74Q62 594 62 606Q62 652 88 652H314Q325 652 325 639Z"  />
<glyph unicode="&#xFB4E;" horiz-adv-x="529" d="M493 234Q493 174 471 123Q418 0 272 0H83Q52 0 52 21Q52 48 81 105Q94 130 113 130H294Q347 130 382 156Q421 186 421 237Q421 361 262 361Q133 361 133 308Q133 273 185 273Q204 273 235 289T281 305Q287 305 292 296T297 281Q297 239 256 202T172 165Q107 165 86 223Q74 257 74 336Q74 356 52 388T30 439Q30 448 53 475T85 503Q92 503 105 489T130 475Q139 475 178 480T274 485Q377 485 438 410Q493 340 493 234ZM384 639Q384 594 358 594H133Q121 594 121 606Q121 652 147 652H373Q384 652 384 639Z"  />
<glyph unicode="&#xFB4F;" horiz-adv-x="470" d="M435 62Q435 22 399 -8L181 254Q137 215 137 189Q137 174 162 133L201 69L182 0H62V33L99 45Q74 135 74 156Q74 217 159 281L100 352Q45 352 28 377Q14 396 14 455Q14 529 40 573Q36 579 7 597Q-14 611 -14 629Q-14 683 23 703V699Q23 686 70 665Q102 650 102 629Q102 620 82 576T62 503Q62 458 115 458H129L298 255Q300 275 356 356Q345 355 345 355Q276 355 276 440Q276 484 316 496Q324 458 347 458H383Q432 458 432 390Q432 383 427 357H396L354 287Q337 259 326 221L406 124Q435 89 435 62Z"  />


</font>
</defs>
</svg>
