<?xml  version="1.0" encoding="UTF-8"?>
<!DOCTYPE svg PUBLIC "-//W3C//DTD SVG 1.0//EN" "http://www.w3.org/TR/2001/REC-SVG-20010904/DTD/svg10.dtd" >
<svg xmlns="http://www.w3.org/2000/svg" >
<metadata>
<version>1.0</version>
<id><![CDATA[Oron Extra W26 Black]]></id>
<vendor>Monotype Imaging Inc.</vendor>
<credits>
<name>Fonts.com WebFonts</name>
<URL>http://webfonts.fonts.com</URL>
<role>Home of the Web fonts</role>
</credits>
<license>
<URL>http://webfonts.fonts.com/Legal</URL>
</license>
<copyright><![CDATA[Masterfont Studio Rosenberg 2003 (C) version 1.0]]></copyright>
<trademark></trademark>
<licensee>
<name></name>
</licensee>
</metadata>
<defs >
<font horiz-adv-x="518" id="ba4f1efb-b3b4-412b-a9cb-b091232b2e8d">
<font-face font-family="" panose-1="0 0 4 0 0 0 0 0 0 0" ascent="752" descent="-350" units-per-em="1000" alphabetic="0">
</font-face>
<missing-glyph horiz-adv-x="500" d="M63 0V720H438V0H63ZM125 63H375V658H125V63Z"  />

<glyph unicode="&#xA;" />
<glyph unicode="&#xD;" />
<glyph unicode=" " horiz-adv-x="239" />
<glyph unicode="!" horiz-adv-x="312" d="M282 641L249 208H63L30 641H282ZM275 0H38V160H275V0Z"  />
<glyph unicode="&quot;" horiz-adv-x="559" d="M548 499L429 257H270L322 499H548ZM296 499L177 257H20L72 499H296Z"  />
<glyph unicode="#" horiz-adv-x="562" d="M519 403L502 311H422L403 203H484L467 111H387L365 -15H272L294 111H217L195 -15H102L124 111H43L59 203H140L159 311H78L94 403H175L196 518H289L268 403H345L366 518H459L438 403H519ZM329 311H252L233 203H310L329 311Z"  />
<glyph unicode="$" horiz-adv-x="625" d="M608 147Q608 78 537 35Q476 -3 403 -3V-75H212V-5Q212 -5 204 -5Q121 -5 68 36Q9 82 9 163H231V158Q231 131 260 109Q277 96 310 96Q335 96 356 104Q384 115 384 136Q384 176 289 198Q125 236 111 241Q16 278 16 355Q16 489 212 507V579H403V509Q432 509 469 497Q594 457 594 347H374Q375 407 297 407Q240 407 240 357Q240 342 312 326Q355 318 398 310Q445 301 483 291Q608 258 608 147Z"  />
<glyph unicode="%" horiz-adv-x="804" d="M784 123Q784 51 733 16Q688 -15 613 -15Q538 -15 494 16Q443 52 443 123Q443 194 494 230Q538 261 613 261Q688 261 732 230Q784 194 784 123ZM582 502L332 0H222L472 502H582ZM361 379Q361 307 310 272Q265 241 190 241Q115 241 71 272Q20 308 20 379Q20 450 71 486Q115 517 190 517Q265 517 309 486Q361 450 361 379ZM664 123Q664 194 613 194Q563 194 563 123Q563 52 613 52Q664 52 664 123ZM239 379Q239 414 232 428Q221 450 190 450Q140 450 140 379Q140 308 190 308Q221 308 232 330Q239 344 239 379Z"  />
<glyph unicode="&apos;" horiz-adv-x="308" d="M297 502L178 260H20L72 502H297Z"  />
<glyph unicode="(" horiz-adv-x="373" d="M348 -68H113Q58 16 37 85T15 252Q15 350 36 419T113 572H348Q301 485 283 418Q265 348 265 252Q265 156 283 87T348 -68Z"  />
<glyph unicode=")" horiz-adv-x="374" d="M359 252Q359 156 337 84Q315 16 261 -68H25Q72 18 90 87T108 252Q108 348 90 418Q72 485 25 572H261Q315 488 337 420Q359 349 359 252Z"  />
<glyph unicode="*" horiz-adv-x="424" d="M396 593Q396 591 395 589L266 552Q251 570 240 596L335 692Q349 690 372 650T396 593ZM248 740L216 611Q200 608 190 608Q179 608 164 611L128 740Q138 752 190 752Q240 752 248 740ZM397 487Q397 470 374 430Q350 387 336 387L240 480Q246 498 266 524L396 491Q397 488 397 487ZM139 597Q131 574 113 552L-17 585Q-18 588 -18 589Q-18 606 5 647T43 689L139 597ZM251 336Q242 324 192 324Q140 324 132 336L164 465Q175 468 188 468Q200 468 216 465L251 336ZM139 480L45 384Q30 387 7 426T-16 482Q-16 483 -14 487L113 524Q130 505 139 480Z"  />
<glyph unicode="+" horiz-adv-x="478" d="M441 177H313V50H165V177H37V325H165V452H313V325H441V177Z"  />
<glyph unicode="&#x2c;" horiz-adv-x="352" d="M319 163L200 -82H26L78 163H319Z"  />
<glyph unicode="-" horiz-adv-x="478" d="M441 177H37V325H441V177Z"  />
<glyph unicode="." horiz-adv-x="373" d="M277 0H42V184H277V0Z"  />
<glyph unicode="/" horiz-adv-x="382" d="M402 605L115 -102H-20L267 605H402Z"  />
<glyph unicode="0" horiz-adv-x="582" d="M570 251Q570 120 498 53T294 -15Q20 -15 20 251Q20 517 294 517Q427 517 498 450T570 251ZM347 191Q347 201 346 221T344 251Q344 262 345 283T347 315Q347 377 294 377Q240 377 240 314Q240 303 241 283T243 251Q243 241 242 221T240 191Q240 126 294 126Q347 126 347 191Z"  />
<glyph unicode="1" horiz-adv-x="582" d="M470 0H225V290Q170 268 111 268Q98 268 90 269V439Q132 451 174 462Q226 479 249 502H470V0Z"  />
<glyph unicode="2" horiz-adv-x="582" d="M551 0H20V142L155 213Q326 303 326 351Q326 406 282 406Q224 406 225 330H16Q16 432 105 483Q176 523 287 523Q550 523 550 340Q550 262 465 215Q416 187 311 162Q316 161 373 161Q472 161 551 162V0Z"  />
<glyph unicode="3" horiz-adv-x="582" d="M562 135Q562 53 461 13Q389 -15 291 -15Q186 -15 116 17Q22 60 22 153Q22 164 23 169H231Q230 141 248 124T295 106Q345 106 345 155Q345 215 281 215Q267 215 255 212V300Q265 298 276 298Q340 298 340 353Q340 400 286 400Q261 400 247 384T235 344H41Q40 346 38 355Q38 355 38 366Q38 451 137 489Q206 515 306 515Q543 515 543 358Q543 300 488 273Q477 268 452 260Q440 256 440 255Q442 254 446 253Q485 248 505 238Q562 210 562 135Z"  />
<glyph unicode="4" horiz-adv-x="582" d="M573 90H514V0H284V90H16V242L209 512H514V233H573V90ZM284 234L283 364L203 233L284 234Z"  />
<glyph unicode="5" horiz-adv-x="582" d="M560 151Q560 58 464 13Q392 -20 287 -20Q184 -20 111 14Q16 59 16 151H232Q234 105 292 105Q317 105 331 123T346 167Q346 241 293 241Q276 241 260 234Q240 226 239 211H33L58 499H526V354H254Q245 305 245 292Q245 289 245 289Q260 300 288 315Q313 325 347 325Q449 325 500 289Q560 247 560 151Z"  />
<glyph unicode="6" horiz-adv-x="582" d="M567 162Q567 74 476 25Q402 -15 306 -15Q170 -15 95 55Q16 127 16 262Q16 389 104 456Q184 517 314 517Q492 517 543 413Q556 387 556 363H348Q347 390 303 390Q241 390 242 255Q255 289 286 309T356 329Q457 329 506 298Q567 258 567 162ZM357 166Q357 232 306 232Q248 232 248 166Q248 97 306 97Q357 97 357 166Z"  />
<glyph unicode="7" horiz-adv-x="582" d="M554 361L416 -1H143L289 336H42L43 498H554V361Z"  />
<glyph unicode="8" horiz-adv-x="582" d="M568 153Q568 -18 295 -18Q19 -18 19 153Q19 217 91 249Q99 253 135 263Q146 266 146 268Q143 269 135 271Q109 279 94 288Q43 318 43 374Q43 454 135 489Q199 514 295 514Q389 514 454 489Q546 453 546 374Q546 316 493 287Q478 279 451 271Q446 270 440 268Q440 266 451 263Q466 259 495 248Q568 215 568 153ZM346 358Q346 407 295 407Q244 407 244 358Q244 290 295 290Q327 290 338 310Q346 325 346 358ZM357 154Q357 217 295 217Q261 217 248 203T234 154Q234 104 295 104Q357 104 357 154Z"  />
<glyph unicode="9" horiz-adv-x="582" d="M567 240Q567 113 479 46Q399 -15 269 -15Q91 -15 40 89Q27 115 27 139H235Q236 112 280 112Q342 112 341 247Q328 213 297 193T227 173Q126 173 77 204Q16 244 16 340Q16 428 107 477Q181 517 277 517Q413 517 488 447Q567 375 567 240ZM335 336Q335 405 277 405Q226 405 226 336Q226 270 277 270Q335 270 335 336Z"  />
<glyph unicode=":" horiz-adv-x="321" d="M277 280H42V464H277V280ZM277 0H42V184H277V0Z"  />
<glyph unicode=";" horiz-adv-x="321" d="M277 280H42V464H277V280ZM289 163L170 -82H-4L48 163H289Z"  />
<glyph unicode="&lt;" horiz-adv-x="660" d="M572 0L82 182V302L572 484V315L324 243L572 171V0Z"  />
<glyph unicode="=" horiz-adv-x="478" d="M441 289H37V437H441V289ZM441 65H37V213H441V65Z"  />
<glyph unicode="&gt;" horiz-adv-x="660" d="M578 182L88 0V171L335 243L88 315V484L578 302V182Z"  />
<glyph unicode="?" horiz-adv-x="605" d="M555 462Q555 400 499 362Q496 360 394 310Q338 283 338 248V214H147V260Q147 312 225 362Q244 374 269 388Q306 409 316 417Q340 437 340 463Q340 525 266 525Q176 525 176 465Q176 414 189 394H8Q-30 431 -30 477Q-30 520 -3 559Q69 663 272 663Q555 663 555 462ZM362 0H127V160H362V0Z"  />
<glyph unicode="@" horiz-adv-x="759" d="M699 350Q699 258 647 201Q591 140 495 140Q404 140 390 195Q332 146 282 146Q242 146 217 172Q187 202 187 262Q187 349 234 419Q287 496 366 496Q422 496 450 462L456 484H533L470 229Q468 221 468 216Q468 178 517 178Q567 178 608 216Q661 265 661 351Q661 449 587 517Q508 590 383 590Q254 590 168 512T81 315Q81 200 167 123T382 45Q486 45 568 99Q577 103 581 103Q598 103 598 87Q598 77 589 70Q511 10 382 10Q235 10 139 96T43 315Q43 452 138 538T383 625Q524 625 613 543Q699 464 699 350ZM440 426Q425 462 377 462Q334 462 299 391Q265 324 265 250Q265 184 303 184Q354 184 388 234L440 426Z"  />
<glyph unicode="A" horiz-adv-x="681" d="M669 0H358V24H462L399 198H198L136 24H256V0H18V24H108L334 654H352L578 24H669V0ZM390 222L298 475L207 222H390Z"  />
<glyph unicode="B" horiz-adv-x="616" d="M568 176Q568 94 507 47T338 0H25V24H114V621H25V645H330Q418 645 479 606Q545 563 545 493Q545 383 406 350Q470 336 514 295Q568 246 568 176ZM437 485V501Q437 621 330 621H223V360H330Q382 360 408 385Q437 415 437 485ZM457 164V187Q457 336 330 336H223V24H330Q399 24 429 60Q457 93 457 164Z"  />
<glyph unicode="C" horiz-adv-x="631" d="M598 4Q598 -7 587 -7Q581 -7 575 -1L523 51Q453 -18 351 -18Q231 -18 135 82Q35 185 35 323Q35 451 126 551Q221 656 356 656Q450 656 518 607L555 642Q565 651 572 651Q584 651 584 632V478Q584 462 575 462Q568 462 565 470L563 475Q537 546 486 586Q431 630 356 630Q171 630 171 374V268Q171 8 351 8Q490 8 574 188Q580 201 588 201Q598 201 598 187V4Z"  />
<glyph unicode="D" horiz-adv-x="682" d="M664 330Q664 180 575 90T337 0H28V24H119V621H28V645H337Q481 645 572 558T664 330ZM541 306V354Q541 496 479 563Q426 621 335 621H228V24H335Q541 24 541 306Z"  />
<glyph unicode="E" horiz-adv-x="591" d="M553 35Q553 0 519 0H31V24H118V621H29V645H494Q525 645 525 618V474Q525 457 513 457Q501 457 500 475Q497 528 472 569Q439 621 379 621H227V352H304Q342 352 358 377Q367 390 377 435Q381 452 389 452Q400 452 400 436V244Q400 227 389 227Q381 227 377 244Q373 267 357 306Q342 328 304 328H227V24H388Q452 24 484 67Q507 99 525 181Q530 204 541 204Q553 204 553 177V35Z"  />
<glyph unicode="F" horiz-adv-x="564" d="M529 474Q529 457 517 457Q505 457 504 475Q501 528 476 569Q443 621 383 621H231V352H308Q346 352 362 377Q371 390 381 435Q385 452 393 452Q404 452 404 436V244Q404 227 393 227Q385 227 381 244Q377 267 361 306Q346 328 308 328H231V24H320V0H36V24H122V621H34V645H499Q529 645 529 618V474Z"  />
<glyph unicode="G" horiz-adv-x="689" d="M686 217H597V189Q597 86 523 31Q458 -18 350 -18Q224 -18 129 82T33 319Q33 456 127 556T353 656Q451 656 517 604L558 642Q568 651 576 651Q589 651 589 636V457Q589 444 578 444Q568 444 564 456Q504 630 353 630Q268 630 220 571Q168 507 168 379V263Q168 138 216 73T352 8Q482 8 482 132V217H371V241H686V217Z"  />
<glyph unicode="H" horiz-adv-x="706" d="M688 0H402V24H491V330H227V24H316V0H29V24H118V621H29V645H316V621H227V355H491V621H402V645H688V621H600V24H688V0Z"  />
<glyph unicode="I" horiz-adv-x="366" d="M326 0H40V24H128V621H40V645H326V621H237V24H326V0Z"  />
<glyph unicode="J" horiz-adv-x="381" d="M371 621H294V56Q294 -97 126 -97Q74 -97 39 -66Q8 -39 8 -8Q8 46 59 46Q81 46 94 32T107 -1Q107 -47 64 -53Q85 -71 119 -71Q156 -71 170 -51T185 20V621H90V645H371V621Z"  />
<glyph unicode="K" horiz-adv-x="692" d="M685 0H385V24H470L219 353L510 621H428V645H640V621H550L313 403L601 24H685V0ZM304 0H31V24H113V621H31V645H304V621H222V24H304V0Z"  />
<glyph unicode="L" horiz-adv-x="617" d="M596 35Q596 0 561 0H26V24H115V621H26V645H322V621H224V24H431Q495 24 526 67Q549 98 567 181Q572 204 583 204Q596 204 596 177V35Z"  />
<glyph unicode="M" horiz-adv-x="821" d="M793 0H520V24H602V589L380 0H360L138 585V24H221V0H31V24H113V621H31V645H229L415 167L595 645H793V621H711V24H793V0Z"  />
<glyph unicode="N" horiz-adv-x="677" d="M660 621H571V-8H529L137 583V24H226V0H23V24H112V621H23V645H233L546 175V621H457V645H660V621Z"  />
<glyph unicode="O" horiz-adv-x="712" d="M684 320Q684 187 589 86Q492 -18 360 -18Q228 -18 132 86Q37 187 37 320Q37 453 132 554T360 656Q492 656 588 555T684 320ZM549 272V367Q549 512 500 574Q455 630 360 630Q266 630 221 572Q172 508 172 367V272Q172 8 360 8Q549 8 549 272Z"  />
<glyph unicode="P" horiz-adv-x="558" d="M534 469Q534 390 476 342T325 293H223V24H311V0H25V24H114V621H25V645H315Q415 645 474 597T534 469ZM433 452V486Q433 621 315 621H223V317H325Q433 317 433 452Z"  />
<glyph unicode="Q" horiz-adv-x="701" d="M684 319Q684 205 611 110T429 -12V-29Q429 -197 589 -197Q603 -197 603 -208Q603 -218 589 -218Q446 -218 385 -188Q304 -148 294 -33L292 -12Q183 14 110 109T37 319Q37 452 132 554T360 656Q492 656 588 554T684 319ZM549 271V366Q549 511 500 574Q455 630 360 630Q266 630 221 571Q172 508 172 366V271Q172 6 360 6Q549 6 549 271Z"  />
<glyph unicode="R" horiz-adv-x="647" d="M645 34Q645 29 641 25Q630 14 597 3Q561 -8 528 -8Q476 -8 452 20Q430 44 424 97Q422 130 417 196Q402 325 307 325H226V24H315V0H28V24H117V621H28V645H323Q417 645 478 603Q543 559 543 484Q543 365 393 332Q489 307 519 251Q539 213 542 109Q543 60 548 47Q556 26 585 26Q609 26 629 39Q633 41 638 41Q645 41 645 34ZM436 467V501Q436 621 323 621H226V349H323Q436 349 436 467Z"  />
<glyph unicode="S" horiz-adv-x="558" d="M524 205Q524 110 456 46T287 -18Q194 -18 118 44L84 -1Q75 -13 67 -13Q53 -13 53 4V174Q53 191 65 191Q77 191 81 176Q102 98 162 53Q219 8 293 8Q360 8 407 47Q458 88 458 152Q458 220 401 245Q357 264 311 277Q214 305 209 307Q68 351 68 467Q68 546 126 599Q187 656 286 656Q362 656 434 618L461 650Q470 660 476 660Q487 660 487 646V477Q487 463 475 463Q463 463 461 476Q452 542 411 583Q364 630 286 630Q226 630 185 602Q139 571 139 518Q139 454 201 432Q228 422 385 380Q524 342 524 205Z"  />
<glyph unicode="T" horiz-adv-x="638" d="M617 455H586Q574 533 540 577T460 621H376V24H465V0H179V24H267V621H183Q138 621 104 577T57 455H27L43 625Q45 645 68 645H576Q599 645 601 625L617 455Z"  />
<glyph unicode="U" horiz-adv-x="657" d="M643 621H555V162Q555 74 499 28T343 -18Q248 -18 185 20Q107 68 107 162V621H18V645H304V621H216V162Q216 88 256 48T367 8Q437 8 483 49T529 162V621H440V645H643V621Z"  />
<glyph unicode="V" horiz-adv-x="651" d="M649 621H574L353 -10H329L97 621H7V645H294V621H203L378 149L543 621H456V645H649V621Z"  />
<glyph unicode="W" horiz-adv-x="926" d="M915 621H843L602 -10H582L470 277L361 -10H341L101 621H23V645H680V621H616L532 402L630 141L814 621H728V645H915V621ZM588 621H448L518 439L588 621ZM456 315L341 621H208L390 143L456 315Z"  />
<glyph unicode="X" horiz-adv-x="706" d="M689 0H404V24H484L324 283L148 24H247V0H22V24H114L308 309L115 621H24V645H329V621H239L375 401L523 621H427V645H652V621H558L392 375L608 24H689V0Z"  />
<glyph unicode="Y" horiz-adv-x="682" d="M673 621H588L420 340V24H518V0H212V24H311V316L113 621H28V645H325V621H234L398 367L550 621H454V645H673V621Z"  />
<glyph unicode="Z" horiz-adv-x="524" d="M502 0H31V30L383 621H192Q64 621 59 472H36V645H495V617L139 24H328Q398 24 434 62Q472 104 477 199H502V0Z"  />
<glyph unicode="[" horiz-adv-x="366" d="M331 -103H57V605H331V502H235V0H331V-103Z"  />
<glyph unicode="\" horiz-adv-x="255" d="M208 -10H153L67 519H123L208 -10Z"  />
<glyph unicode="]" horiz-adv-x="367" d="M310 -103H35V0H132V502H35V605H310V-103Z"  />
<glyph unicode="^" horiz-adv-x="381" d="M325 325L303 314L195 521L87 314L64 325L178 606H211L325 325Z"  />
<glyph unicode="_" horiz-adv-x="300" d="M311 -31H-4V-11H311V-31Z"  />
<glyph unicode="`" horiz-adv-x="266" d="M233 457L219 450L44 604H147L233 457Z"  />
<glyph unicode="a" horiz-adv-x="456" d="M453 54Q453 34 430 14Q401 -13 353 -13Q288 -13 274 34Q231 -13 158 -13Q42 -13 42 75Q42 138 108 176Q171 211 268 212V319Q268 369 204 369Q182 369 163 364T143 352Q145 350 152 344Q166 331 166 314Q166 277 123 277Q104 277 93 288T81 316Q81 347 116 367Q156 390 228 390Q366 390 366 301V74Q366 43 370 33Q375 20 390 20Q417 20 434 53Q439 63 445 63Q453 63 453 54ZM268 68V194Q203 190 172 173Q132 151 132 99Q132 20 193 20Q213 20 240 37T268 68Z"  />
<glyph unicode="b" horiz-adv-x="534" d="M510 192Q510 116 451 52T315 -12Q250 -12 204 40V0H28V24H107V621H28V645H204V346Q246 393 312 393Q383 393 444 336Q510 275 510 192ZM394 171V214Q394 309 369 343Q351 369 308 369Q246 369 204 303V83Q246 12 312 12Q394 12 394 171Z"  />
<glyph unicode="c" horiz-adv-x="422" d="M411 105Q411 103 410 100L409 96Q396 56 360 26Q312 -13 242 -13Q159 -13 97 41Q29 99 29 187Q29 274 97 334Q162 390 247 390Q296 390 339 369Q388 344 388 308Q388 264 338 264Q289 264 289 306Q289 324 298 336T307 349Q307 354 293 359Q275 366 245 366Q193 366 170 333Q146 297 146 208V167Q146 77 165 45Q186 10 245 10Q298 10 338 40Q372 66 385 105Q389 117 399 117Q411 117 411 105Z"  />
<glyph unicode="d" horiz-adv-x="534" d="M513 0H337V41Q291 -13 227 -13Q159 -13 97 48Q32 112 32 191Q32 266 93 329T230 393Q298 393 337 350V621H259V645H435V24H513V0ZM337 82V301Q295 369 234 369Q187 369 168 336T148 215V168Q148 79 169 43Q188 11 231 11Q291 11 337 82Z"  />
<glyph unicode="e" horiz-adv-x="447" d="M414 117Q414 110 411 102Q391 52 348 21Q298 -13 230 -13Q144 -13 84 49Q28 108 28 185Q28 262 85 324Q144 390 226 390Q315 390 367 327Q406 281 409 233Q410 216 388 216H145V124Q145 10 232 10Q341 10 390 116Q396 128 404 128Q414 128 414 117ZM303 279Q303 366 227 366Q145 366 145 273V240H293Q303 240 303 279Z"  />
<glyph unicode="f" horiz-adv-x="352" d="M340 585Q340 547 303 547Q263 547 263 583Q263 607 286 617Q286 628 244 628Q195 628 195 561V380H278V356H195V24H272V0H20V24H97V356H21V380H97V416Q97 524 118 569Q157 652 242 652Q284 652 312 632T340 585Z"  />
<glyph unicode="g" horiz-adv-x="439" d="M433 371Q433 339 398 339Q360 339 360 370Q360 372 361 377Q347 369 331 352Q377 312 377 255Q377 208 340 169Q292 119 207 119Q172 119 148 126Q68 106 68 66Q68 30 129 30H295Q354 30 388 1Q424 -31 424 -90Q424 -166 366 -209T220 -253Q31 -253 31 -144Q31 -75 109 -43Q33 -24 33 49Q33 114 114 139Q37 180 37 255Q37 310 81 348Q128 390 207 390Q277 390 312 366Q351 405 390 405Q433 405 433 371ZM275 238V270Q275 325 258 347Q243 366 207 366Q171 366 156 347Q139 325 139 270V238Q139 188 153 167Q168 143 207 143Q246 143 261 167Q275 188 275 238ZM377 -129Q377 -96 351 -72T278 -47H147Q130 -47 111 -69Q89 -94 89 -126Q89 -229 224 -229Q284 -229 327 -205Q377 -178 377 -129Z"  />
<glyph unicode="h" horiz-adv-x="555" d="M539 0H298V24H369V291Q369 360 312 360Q265 360 229 322Q196 288 196 256V24H268V0H26V24H99V621H26V645H196V325Q244 393 344 393Q467 393 467 302V24H539V0Z"  />
<glyph unicode="i" horiz-adv-x="303" d="M216 550Q216 528 199 513T158 497Q134 497 117 512T100 550Q100 573 117 588T158 604Q182 604 199 589T216 550ZM285 0H33V24H110V356H33V380H207V24H285V0Z"  />
<glyph unicode="j" horiz-adv-x="282" d="M228 550Q228 527 211 512T170 496Q146 496 129 511T112 550Q112 573 129 588T170 604Q194 604 211 589T228 550ZM225 -28Q225 -133 184 -192T70 -252Q33 -252 6 -234T-21 -187Q-21 -167 -8 -153T28 -138Q50 -138 62 -152T75 -184Q75 -212 53 -226Q57 -228 69 -228Q92 -228 109 -212T127 -164V355H44V379H225V-28Z"  />
<glyph unicode="k" horiz-adv-x="556" d="M549 0H291V24H359L223 202H207V24H280V0H27V24H110V621H27V645H207V226H230L373 356H292V380H494V356H410L294 249L475 24H549V0Z"  />
<glyph unicode="l" horiz-adv-x="294" d="M273 0H32V24H104V621H32V645H201V24H273V0Z"  />
<glyph unicode="m" horiz-adv-x="785" d="M766 0H536V24H601V287Q601 353 553 353Q510 353 476 314Q446 280 446 248V24H513V0H282V24H349V287Q349 316 344 328Q334 353 300 353Q262 353 226 315Q194 281 194 256V24H260V0H29V24H96V353H29V377H194V316Q244 385 344 385Q432 385 445 314Q493 385 596 385Q699 385 699 297V24H766V0Z"  />
<glyph unicode="n" horiz-adv-x="547" d="M528 0H286V24H358V287Q358 353 305 353Q268 353 235 319T202 252V24H274V0H33V24H105V353H33V376H202V316Q250 384 343 384Q456 384 456 293V24H528V0Z"  />
<glyph unicode="o" horiz-adv-x="460" d="M441 188Q441 117 385 55Q323 -13 234 -13Q145 -13 82 55Q25 117 25 188Q25 259 82 321Q145 390 234 390Q323 390 385 321Q441 259 441 188ZM325 168V209Q325 295 309 327Q289 366 234 366Q179 366 158 327Q141 294 141 209V168Q141 80 158 47Q178 10 234 10Q290 10 309 47Q325 79 325 168Z"  />
<glyph unicode="p" horiz-adv-x="515" d="M494 187Q494 105 433 44T295 -17Q228 -17 187 29V-233H254V-257H22V-233H89V352H22V377H187V336Q233 390 297 390Q370 390 432 329T494 187ZM378 167V210Q378 304 352 341Q333 366 296 366Q258 366 223 337T187 275V91Q187 64 220 37T293 9Q337 9 355 36Q378 70 378 167Z"  />
<glyph unicode="q" horiz-adv-x="524" d="M507 -257H276V-233H343V30Q300 -17 233 -17Q158 -17 96 45T34 187Q34 265 95 326T231 387Q299 387 343 335V376H507V352H440V-233H507V-257ZM343 106V266Q343 303 307 334T232 366Q150 366 150 245V141Q150 61 173 32Q192 8 235 8Q283 8 313 37T343 106Z"  />
<glyph unicode="r" horiz-adv-x="412" d="M402 313Q402 289 386 275T346 261Q321 261 305 274T289 310Q289 340 314 354Q317 355 317 357Q317 361 293 361Q257 361 223 333T188 276V24H260V0H18V24H90V353H18V377H188V332Q231 385 304 385Q344 385 370 369Q402 350 402 313Z"  />
<glyph unicode="s" horiz-adv-x="367" d="M343 119Q343 62 306 25Q266 -13 199 -13Q125 -13 83 24L64 -1Q59 -8 54 -8Q43 -8 43 4V105Q43 117 54 117Q63 117 66 105Q93 10 196 10Q234 10 264 27Q299 47 299 81Q299 122 238 144Q227 147 142 165Q50 184 50 266Q50 317 86 352Q126 390 191 390Q237 390 269 365L289 384L292 386Q296 390 300 390Q307 390 307 379V278Q307 268 299 268Q290 268 288 277Q282 312 258 337Q229 366 185 366Q148 366 124 348T99 306Q99 277 134 267Q178 257 246 239Q343 210 343 119Z"  />
<glyph unicode="t" horiz-adv-x="348" d="M338 83Q338 79 337 73Q321 -13 214 -13Q154 -13 122 18T89 104V355H19V379H89V485L187 530V379H287V355H187V102Q187 16 249 16Q303 16 314 81Q316 95 328 95Q338 95 338 83Z"  />
<glyph unicode="u" horiz-adv-x="556" d="M529 0H359V60Q306 -11 204 -11Q95 -11 95 95V353H23V376H193V89Q193 55 201 42Q212 25 245 25Q287 25 323 59T359 123V353H287V376H457V24H529V0Z"  />
<glyph unicode="v" horiz-adv-x="505" d="M488 353H425L269 -4H255L90 353H21V376H264V353H194L297 123L397 353H326V376H488V353Z"  />
<glyph unicode="w" horiz-adv-x="668" d="M654 353H582L457 -11H443L338 230L251 -11H236L92 353H23V376H257V353H191L278 135L363 376H377L482 134L556 353H472V376H654V353Z"  />
<glyph unicode="x" d="M505 0H263V24H336L239 152L134 24H205V0H31V24H102L223 173L86 353H26V376H253V353H190L279 236L374 353H313V376H476V353H408L295 215L441 24H505V0Z"  />
<glyph unicode="y" horiz-adv-x="521" d="M511 352H442L231 -154Q191 -251 111 -251Q54 -251 54 -206Q54 -167 95 -167Q125 -167 139 -194Q145 -205 151 -205Q183 -205 207 -146L266 -3L96 352H26V376H277V352H201L313 110L414 352H340V376H511V352Z"  />
<glyph unicode="z" horiz-adv-x="414" d="M388 0H49V26L275 353H179Q100 353 89 255H68V376H377V348L155 24H267Q359 24 367 132H388V0Z"  />
<glyph unicode="{" horiz-adv-x="464" d="M381 -181H295Q245 -181 204 -145Q160 -105 160 -47L161 96Q161 148 147 167Q130 189 73 194V311Q129 316 145 336T161 409L160 553Q160 611 204 651Q245 687 295 687H381V571H319Q291 565 291 532V394Q291 310 229 253Q291 206 291 111V-26Q291 -59 319 -65H381V-181Z"  />
<glyph unicode="|" horiz-adv-x="301" d="M221 -113H80V617H221V-113Z"  />
<glyph unicode="}" horiz-adv-x="464" d="M391 195Q335 190 319 170T303 97L304 -47Q304 -105 260 -145Q219 -181 169 -181H83V-65H145Q173 -59 173 -26V112Q173 196 235 253Q173 300 173 395V532Q173 565 145 571H83V687H169Q219 687 260 651Q304 611 304 553L303 410Q303 358 317 339Q334 317 391 312V195Z"  />
<glyph unicode="&#xA0;" horiz-adv-x="239" />
<glyph unicode="&#xA1;" horiz-adv-x="277" d="M206 453Q206 430 189 414T146 398Q121 398 104 414T86 453Q86 476 103 492T146 509Q171 509 188 493T206 453ZM208 -48Q208 -138 145 -138Q80 -138 80 -48Q80 -11 91 41Q101 84 111 128Q122 185 134 347H155Q159 296 162 244Q168 176 177 128Q183 105 195 50T208 -48Z"  />
<glyph unicode="&#xA2;" horiz-adv-x="354" d="M331 213Q331 210 330 206Q307 125 211 118L210 70H185V119Q123 124 79 167T35 271Q35 333 75 373T185 424V461H210L211 424Q250 423 281 405T312 361Q312 324 274 324Q258 324 248 334T237 359Q237 373 242 379T248 389Q248 403 211 405V140Q248 142 275 163T309 215Q311 224 320 224Q331 224 331 213ZM185 140V404Q150 397 138 374T125 291V250Q125 200 132 180Q145 145 185 140Z"  />
<glyph unicode="&#xA3;" horiz-adv-x="559" d="M535 187Q535 126 484 60Q429 -11 363 -11Q273 -11 217 48Q184 -5 107 -5Q63 -5 39 20T14 80Q14 129 59 160Q98 186 144 186Q162 186 182 182L131 324H35V350H120Q86 448 86 491Q86 581 169 624Q235 658 340 658Q402 658 448 628Q498 595 498 546Q498 465 426 465Q399 465 381 479T362 517Q362 573 430 573Q445 573 445 580Q445 598 412 616T340 634Q285 634 259 608Q228 578 228 506V350H309V324H228V170Q344 103 405 103Q443 103 468 127Q489 147 511 193Q515 201 523 201Q535 201 535 187ZM194 68Q138 132 89 132Q73 132 59 120Q42 105 42 80Q42 57 59 39T107 21Q171 21 194 68Z"  />
<glyph unicode="&#xA5;" horiz-adv-x="674" d="M665 621H579L411 340V324H511V300H411V261H511V237H411V24H510V0H204V24H302V237H201V261H302V300H201V324H297L105 621H20V645H317V621H226L390 367L542 621H446V645H665V621Z"  />
<glyph unicode="&#xA6;" horiz-adv-x="118" d="M80 357H43V647H80V357ZM80 0H43V265H80V0Z"  />
<glyph unicode="&#xA7;" horiz-adv-x="387" d="M367 335Q367 246 292 214Q364 181 364 93Q364 20 317 -24T190 -69Q130 -69 89 -37T48 37Q48 85 91 85Q130 85 130 46Q130 9 88 9Q83 9 83 8Q83 -3 112 -22Q148 -45 190 -45Q245 -45 277 -20T309 43Q309 95 238 119Q173 140 108 161Q37 197 37 279Q37 372 119 401Q36 429 36 518Q36 579 79 621Q124 667 195 667Q271 667 312 637Q345 614 345 581Q345 542 307 542Q264 542 264 577Q264 610 297 616Q260 643 195 643Q153 643 121 622T89 569Q89 513 190 499Q367 474 367 335ZM329 300Q329 332 268 359Q220 381 163 390Q90 375 90 323Q90 289 124 268Q163 243 259 225Q329 250 329 300Z"  />
<glyph unicode="&#xA8;" horiz-adv-x="432" d="M353 554Q353 535 338 522T300 509Q278 509 263 522T247 554Q247 573 262 586T300 599Q322 599 337 586T353 554ZM196 554Q196 535 181 522T143 509Q121 509 106 522T90 554Q90 573 105 586T143 599Q165 599 180 586T196 554Z"  />
<glyph unicode="&#xA9;" horiz-adv-x="637" d="M616 357Q616 247 532 169T327 91Q207 91 122 169T37 357Q37 467 122 545T327 623Q447 623 531 545T616 357ZM586 358Q586 456 511 525T328 594Q221 594 145 525T69 358Q69 260 145 191T328 122Q435 122 510 191T586 358ZM428 241Q428 234 420 234Q417 234 414 237L393 257Q363 230 324 230Q274 230 233 272T192 370Q192 423 231 466T327 510Q362 510 392 489L405 503Q408 507 415 507H417Q423 506 423 498V434Q423 424 415 424Q411 424 407 431Q386 491 327 491Q254 491 254 391V349Q254 248 324 248Q377 248 411 317Q413 325 421 325Q428 325 428 317V241Z"  />
<glyph unicode="&#xAA;" horiz-adv-x="354" d="M323 398Q323 385 309 373Q291 356 262 356Q223 356 213 383Q186 356 144 356Q73 356 73 411Q73 449 112 471T209 494V555Q209 582 172 582Q141 582 137 577L139 575Q140 575 142 573Q151 563 151 553Q151 529 123 529Q96 529 96 555Q96 573 119 586T186 600Q271 600 271 545V410Q271 380 283 380Q295 380 304 392T316 405Q323 405 323 398ZM323 284H44V322H323V284ZM209 408V480Q130 474 130 425Q130 380 165 380Q177 380 193 390T209 408Z"  />
<glyph unicode="&#xAB;" horiz-adv-x="438" d="M382 108H354L174 258L354 408H382L254 258L382 108ZM232 108H203L24 258L203 408H232L104 258L232 108Z"  />
<glyph unicode="&#xAC;" horiz-adv-x="564" d="M545 230H506V389H18V429H545V230Z"  />
<glyph unicode="&#xAE;" horiz-adv-x="448" d="M413 475Q413 402 357 351T219 299Q138 299 82 350T25 475Q25 549 82 600T219 652Q299 652 356 601T413 475ZM383 475Q383 536 335 579T220 622Q152 622 105 579T57 475Q57 414 104 371T220 328Q287 328 335 371T383 475ZM331 388Q331 380 329 378Q318 368 290 368Q271 368 265 376Q256 385 254 404Q253 419 252 434Q248 473 218 473H197V388H225V370H127V388H156V562H127V580H225Q257 580 277 566T298 526Q298 491 258 478Q283 470 291 450Q297 437 298 407Q299 384 309 384Q316 384 322 388H331ZM258 520V531Q258 562 225 562H197V491H225Q258 491 258 520Z"  />
<glyph unicode="&#xAF;" horiz-adv-x="454" d="M360 516H107V543H360V516Z"  />
<glyph unicode="&#xB0;" horiz-adv-x="231" d="M202 582Q202 552 178 531T121 510Q88 510 64 531T39 582Q39 612 63 633T121 654Q154 654 178 633T202 582ZM177 582Q177 603 161 617T121 631Q97 631 81 617T64 582Q64 562 80 548T121 533Q145 533 161 547T177 582Z"  />
<glyph unicode="&#xB1;" horiz-adv-x="410" d="M374 344H235V217H171V344H32V403H171V530H235V403H374V344ZM358 126H48V185H358V126Z"  />
<glyph unicode="&#xB2;" horiz-adv-x="306" d="M314 205H-4V291L77 333Q179 387 179 416Q179 449 153 449Q118 449 119 403H-7Q-7 465 46 495Q89 519 156 519Q314 519 314 409Q314 362 263 334Q233 318 170 303Q173 302 207 302Q267 302 314 303V205Z"  />
<glyph unicode="&#xB3;" horiz-adv-x="306" d="M317 289Q317 239 256 216Q213 199 154 199Q91 199 49 218Q-7 244 -7 299Q-7 306 -7 309H118Q116 271 156 271Q186 271 186 301Q186 337 148 337Q140 337 132 335V388Q139 386 145 386Q183 386 183 419Q183 448 151 448Q117 448 120 414H4Q3 415 2 421Q2 421 2 427Q2 478 62 501Q103 517 163 517Q305 517 305 422Q305 380 251 364Q247 363 243 361Q244 360 247 359Q270 357 282 350Q317 334 317 289Z"  />
<glyph unicode="&#xB4;" horiz-adv-x="404" d="M371 622L196 468L183 477L268 622H371Z"  />
<glyph unicode="&#xB6;" horiz-adv-x="664" d="M625 621H536V-104H471V621H392V-104H328V291H263Q163 291 101 334Q34 381 34 468Q34 555 101 602Q163 645 263 645H625V621Z"  />
<glyph unicode="&#xB8;" horiz-adv-x="359" d="M266 -101Q266 -125 246 -140T194 -156Q151 -156 123 -117Q118 -110 118 -104Q118 -96 126 -96Q131 -96 146 -108T179 -121Q215 -121 215 -93Q215 -69 180 -56L194 0H228L217 -45Q266 -61 266 -101Z"  />
<glyph unicode="&#xB9;" horiz-adv-x="306" d="M268 206H121V381Q88 367 52 367Q45 367 40 368V470Q65 477 90 484Q121 494 135 508H268V206Z"  />
<glyph unicode="&#xBA;" horiz-adv-x="327" d="M293 477Q293 434 259 396Q221 354 167 354Q113 354 75 396Q40 434 40 477Q40 520 75 557Q113 598 167 598Q221 598 259 557Q293 520 293 477ZM304 284H26V322H304V284ZM219 464V488Q219 533 214 549Q203 580 167 580Q131 580 120 549Q113 532 113 488V464Q113 419 119 402Q130 372 167 372Q203 372 214 403Q219 419 219 464Z"  />
<glyph unicode="&#xBB;" horiz-adv-x="426" d="M422 258L243 108H214L343 258L214 408H243L422 258ZM266 258L87 108H58L187 258L58 408H87L266 258Z"  />
<glyph unicode="&#xBC;" horiz-adv-x="854" d="M725 54H690V0H552V54H391V145L507 307H690V140H725V54ZM552 140L551 218L503 140H552ZM234 206H87V381Q54 367 19 367Q11 367 6 368V470Q31 477 56 484Q87 494 101 508H234V206ZM575 605L288 -102H153L440 605H575Z"  />
<glyph unicode="&#xBD;" horiz-adv-x="854" d="M234 206H87V381Q54 367 18 367Q11 367 6 368V470Q31 477 56 484Q87 494 101 508H234V206ZM730 0H412V85L493 128Q595 182 595 211Q595 244 569 244Q534 244 535 198H409Q409 259 462 290Q505 314 572 314Q730 314 730 204Q730 157 679 129Q649 112 586 97Q589 97 623 97Q683 97 730 97V0ZM573 605L286 -102H151L438 605H573Z"  />
<glyph unicode="&#xBE;" horiz-adv-x="854" d="M331 289Q331 239 271 216Q228 199 169 199Q106 199 64 218Q7 244 7 299Q7 306 8 309H133Q131 271 171 271Q201 271 201 301Q201 337 163 337Q154 337 147 335V388Q153 386 160 386Q198 386 198 419Q198 448 166 448Q132 448 135 414H19Q18 415 17 421Q17 421 17 427Q17 478 76 501Q118 517 178 517Q320 517 320 422Q320 380 265 364Q262 363 258 361Q259 360 262 359Q285 357 297 350Q331 334 331 289ZM793 54H757V0H619V54H459V145L574 307H757V140H793V54ZM619 140V218L571 140H619ZM647 605L360 -102H225L512 605H647Z"  />
<glyph unicode="&#xBF;" horiz-adv-x="415" d="M292 448Q292 425 275 409T232 393Q207 393 190 409T172 448Q172 471 189 487T232 504Q257 504 274 488T292 448ZM369 -38Q369 -77 325 -105Q277 -134 202 -134Q125 -134 82 -99T38 2Q38 47 64 85Q81 110 124 148L170 189Q221 235 221 256Q221 282 220 290Q218 306 218 310Q218 321 231 321Q241 321 243 311Q256 249 256 212Q256 174 246 152Q230 117 196 85Q143 34 138 28Q101 -15 101 -46Q101 -72 124 -90Q151 -110 200 -110Q247 -110 275 -98Q295 -90 295 -85Q295 -85 294 -87Q247 -78 247 -37Q247 -14 264 1T309 16Q335 16 352 1T369 -38Z"  />
<glyph unicode="&#xD7;" horiz-adv-x="581" d="M549 57L493 6L290 192L89 6L33 57L234 243L33 427L89 479L290 293L493 479L549 427L347 243L549 57Z"  />
<glyph unicode="&#xF7;" horiz-adv-x="382" d="M255 385Q255 362 238 346T195 330Q170 330 153 346T135 385Q135 408 152 424T195 440Q220 440 237 424T255 385ZM336 225H53V283H336V225ZM255 116Q255 93 238 77T195 61Q170 61 153 77T135 116Q135 139 152 155T195 171Q220 171 237 155T255 116Z"  />
<glyph unicode="&#x192;" horiz-adv-x="500" d="M488 623Q488 585 455 585Q424 585 424 612Q424 619 429 629T435 642Q435 655 417 655Q379 655 367 602Q351 530 335 427H422L414 395H329Q303 260 245 49Q200 -116 145 -170Q104 -210 61 -210Q36 -210 19 -197T1 -159Q1 -116 39 -116Q50 -116 60 -124T70 -143Q70 -148 61 -164Q59 -168 59 -171Q59 -181 71 -181Q96 -181 118 -145Q131 -124 147 -59Q151 -43 189 144Q192 161 249 395H163L170 427Q206 430 214 431Q240 436 251 450Q264 468 281 516Q306 590 327 621Q365 677 421 677Q448 677 468 663T488 623Z"  />
<glyph unicode="&#x3BC;" horiz-adv-x="576" d="M534 100Q526 -14 438 -14Q368 -14 360 79Q281 -14 207 -14Q182 -14 162 -3Q148 5 131 28Q131 28 131 5Q131 -36 147 -111Q154 -144 154 -162Q154 -184 142 -200T108 -216Q65 -216 65 -163Q65 -144 82 -74Q88 -47 90 -31Q96 23 96 56V447H176V187Q176 117 185 90Q200 46 245 46Q302 46 360 112V447H441V128Q441 79 445 64Q452 39 474 39Q505 39 514 100H534Z"  />
<glyph unicode="&#x5B0;" horiz-adv-x="0" d="M264 -117Q264 -155 224 -155Q183 -155 183 -117Q183 -80 224 -80Q264 -80 264 -117ZM264 -242Q264 -280 224 -280Q183 -280 183 -242Q183 -205 224 -205Q264 -205 264 -242Z"  />
<glyph unicode="&#x5B1;" horiz-adv-x="0" d="M362 -111Q362 -142 328 -142Q294 -142 294 -111Q294 -80 328 -80Q362 -80 362 -111ZM272 -111Q272 -142 239 -142Q204 -142 204 -111Q204 -80 239 -80Q272 -80 272 -111ZM362 -208Q362 -239 328 -239Q294 -239 294 -208Q294 -177 328 -177Q362 -177 362 -208ZM182 -111Q182 -142 148 -142Q114 -142 114 -111Q114 -80 148 -80Q182 -80 182 -111ZM227 -208Q227 -240 193 -240Q159 -240 159 -208Q159 -177 193 -177Q227 -177 227 -208Z"  />
<glyph unicode="&#x5B2;" horiz-adv-x="0" d="M358 -111Q358 -142 324 -142Q290 -142 290 -111Q290 -80 324 -80Q358 -80 358 -111ZM358 -208Q358 -239 324 -239Q290 -239 290 -208Q290 -177 324 -177Q358 -177 358 -208ZM262 -124H114V-85H262V-124Z"  />
<glyph unicode="&#x5B3;" horiz-adv-x="0" d="M394 -143H352V-102H394V-143ZM394 -244H352V-202H394V-244ZM294 -143H225L227 -243H180L183 -143H116V-102H294V-143Z"  />
<glyph unicode="&#x5B4;" horiz-adv-x="0" d="M264 -117Q264 -155 224 -155Q183 -155 183 -117Q183 -80 224 -80Q264 -80 264 -117Z"  />
<glyph unicode="&#x5B5;" horiz-adv-x="0" d="M337 -117Q337 -155 297 -155Q256 -155 256 -117Q256 -80 297 -80Q337 -80 337 -117ZM172 -117Q172 -155 132 -155Q91 -155 91 -117Q91 -80 132 -80Q172 -80 172 -117Z"  />
<glyph unicode="&#x5B6;" horiz-adv-x="0" d="M347 -117Q347 -155 307 -155Q266 -155 266 -117Q266 -80 307 -80Q347 -80 347 -117ZM182 -117Q182 -155 142 -155Q101 -155 101 -117Q101 -80 142 -80Q182 -80 182 -117ZM264 -217Q264 -255 224 -255Q183 -255 183 -217Q183 -180 224 -180Q264 -180 264 -217Z"  />
<glyph unicode="&#x5B7;" horiz-adv-x="0" d="M318 -139H118V-86H318V-139Z"  />
<glyph unicode="&#x5B8;" horiz-adv-x="0" d="M314 -139H238Q246 -188 246 -235Q246 -239 245 -258H183Q182 -239 182 -235Q182 -188 190 -139H114V-86H314V-139Z"  />
<glyph unicode="&#x5B9;" horiz-adv-x="0" d="M43 602Q43 586 31 575T1 563Q-15 563 -26 575T-38 604Q-38 620 -26 631T3 643Q19 643 31 631T43 602Z"  />
<glyph unicode="&#x5BB;" horiz-adv-x="0" d="M262 -117Q262 -155 222 -155Q181 -155 181 -117Q181 -80 222 -80Q262 -80 262 -117ZM310 -215Q310 -253 270 -253Q229 -253 229 -215Q229 -178 270 -178Q310 -178 310 -215ZM362 -311Q362 -328 351 -339T322 -350Q281 -350 281 -311Q281 -275 322 -275Q362 -275 362 -311Z"  />
<glyph unicode="&#x5BC;" horiz-adv-x="0" d="M226 259Q226 242 214 230T185 217Q168 217 156 229T144 258Q144 275 156 287T185 300Q202 300 214 288T226 259Z"  />
<glyph unicode="&#x5BD;" horiz-adv-x="0" d="M28 -229H0V-102H28V-229Z"  />
<glyph unicode="&#x5BE;" horiz-adv-x="478" d="M441 351H37V499H441V351Z"  />
<glyph unicode="&#x5BF;" horiz-adv-x="0" d="M384 635H107V676H384V635Z"  />
<glyph unicode="&#x5C0;" horiz-adv-x="168" d="M108 -130H60V617H108V-130Z"  />
<glyph unicode="&#x5C1;" horiz-adv-x="0" d="M650 602Q650 586 638 575T608 563Q592 563 581 575T569 604Q569 620 581 631T610 643Q626 643 638 631T650 602Z"  />
<glyph unicode="&#x5C2;" horiz-adv-x="0" d="M166 602Q166 586 154 575T124 563Q108 563 97 575T85 604Q85 620 97 631T126 643Q142 643 154 631T166 602Z"  />
<glyph unicode="&#x5C3;" horiz-adv-x="275" d="M277 280H42V464H277V280ZM277 0H42V184H277V0Z"  />
<glyph unicode="&#x5D0;" horiz-adv-x="631" d="M623 0H369Q264 167 260 167Q255 167 253 147L235 0H18L117 337L8 499H257Q306 420 342 369Q353 354 354 354Q355 355 356 358T363 389Q371 431 381 499H600L505 167L623 0Z"  />
<glyph unicode="&#x5D1;" horiz-adv-x="509" d="M494 0H15V162H131Q222 162 222 249Q222 336 131 336H18V499H260Q358 499 410 447T462 297Q462 258 445 227Q434 207 412 185Q395 168 395 163Q395 157 405 157Q419 157 449 160T494 163V0Z"  />
<glyph unicode="&#x5D2;" horiz-adv-x="389" d="M372 0H175Q167 9 158 49Q150 83 141 83Q133 83 129 58Q123 24 115 10Q101 -15 68 -15Q28 -15 20 0V176L23 177Q31 172 39 167Q55 157 70 157Q99 157 115 192Q128 219 128 252Q128 285 111 310T62 335H32V499H191Q281 499 321 455T361 320V69Q361 48 372 0Z"  />
<glyph unicode="&#x5D3;" horiz-adv-x="537" d="M517 336H444V0H202V336H6V499H517V336Z"  />
<glyph unicode="&#x5D4;" horiz-adv-x="613" d="M588 0H349V241Q349 299 333 317T260 336H25V499H390Q494 499 538 463Q588 423 588 320V0ZM258 0H25V251H258V0Z"  />
<glyph unicode="&#x5D5;" horiz-adv-x="299" d="M274 0H33V387Q33 464 13 499H254Q274 457 274 387V0Z"  />
<glyph unicode="&#x5D6;" horiz-adv-x="418" d="M398 336Q353 336 341 331Q320 322 316 276Q315 268 315 210V0H74V207Q74 298 149 324Q150 337 108 337Q92 337 59 337Q26 336 10 336V499H398V336Z"  />
<glyph unicode="&#x5D7;" horiz-adv-x="632" d="M607 0H368V241Q368 301 361 314Q349 336 296 336H271V0H30V499H435Q526 499 566 461T607 333V0Z"  />
<glyph unicode="&#x5D8;" horiz-adv-x="624" d="M619 267Q619 105 550 43Q485 -15 319 -15Q201 -15 119 29Q16 84 16 192V499H253V241Q253 189 261 172Q274 142 319 142Q384 142 384 255Q384 332 358 344Q351 347 337 347Q320 347 313 337Q303 324 298 322L295 323V476Q339 514 405 514Q619 514 619 267Z"  />
<glyph unicode="&#x5D9;" horiz-adv-x="287" d="M267 211H26V378Q26 465 5 499H246Q267 457 267 378V211Z"  />
<glyph unicode="&#x5DA;" horiz-adv-x="467" d="M442 -192H202V245Q202 308 187 322T110 336H0V499H271Q377 499 411 463Q442 429 442 324V-192Z"  />
<glyph unicode="&#x5DB;" horiz-adv-x="479" d="M474 250Q474 146 418 76Q357 0 256 0H20V162H136Q176 162 203 186T230 249Q230 288 203 312T136 336H20V499H256Q357 499 418 423Q474 353 474 250Z"  />
<glyph unicode="&#x5DC;" horiz-adv-x="532" d="M522 401Q514 354 498 260L454 0H210L268 241Q278 283 278 293Q278 336 220 336H146Q83 336 54 351Q13 372 13 430V620Q13 679 0 719H226Q240 687 240 589Q240 516 257 505Q266 499 302 499H430Q472 499 497 475T522 408Q522 401 522 401Z"  />
<glyph unicode="&#x5DD;" horiz-adv-x="661" d="M636 0H55V499H446Q562 499 601 453Q636 411 636 293V0ZM396 162V242Q396 318 378 329Q366 336 342 336H296V162H396Z"  />
<glyph unicode="&#x5DE;" horiz-adv-x="619" d="M612 247Q612 116 583 62Q542 -14 422 -14Q359 -14 312 7V174Q313 175 315 175Q319 175 325 167T340 159Q371 159 371 249Q371 342 349 358Q340 365 318 365Q273 365 273 261V0H33V325Q33 465 13 499H242Q252 499 256 457T266 415Q269 415 280 433Q287 444 294 455T310 475Q351 515 422 515Q492 515 528 497Q582 470 601 386Q612 337 612 247Z"  />
<glyph unicode="&#x5DF;" horiz-adv-x="299" d="M274 -192H33V386Q33 463 13 499H254Q274 456 274 386V-192Z"  />
<glyph unicode="&#x5E0;" horiz-adv-x="372" d="M347 0H15V161H105V246Q105 290 100 306Q89 336 54 336H16V499H186Q271 499 309 461T347 338V0Z"  />
<glyph unicode="&#x5E1;" horiz-adv-x="611" d="M591 205Q591 82 512 36Q452 0 320 0H69L5 499H591V205ZM351 242V336H242L271 162H304Q351 162 351 242Z"  />
<glyph unicode="&#x5E2;" horiz-adv-x="609" d="M584 202Q584 92 537 46T380 0H17V162H104L7 499H242L316 162Q344 160 344 257V499H584V202Z"  />
<glyph unicode="&#x5E3;" horiz-adv-x="573" d="M553 -191H333V264Q333 317 324 340Q310 378 266 378Q207 378 207 287Q207 217 221 217H18Q15 217 8 224Q-15 247 -15 313Q-15 415 68 469Q138 515 246 515Q401 515 475 451Q553 383 553 231V-191Z"  />
<glyph unicode="&#x5E4;" horiz-adv-x="604" d="M599 249Q599 105 520 48Q452 0 299 0H89L62 162H218Q329 162 347 204Q355 222 355 271Q355 378 287 378Q226 378 226 284Q226 227 239 217H27Q5 250 5 315Q5 516 309 516Q458 516 526 458Q599 395 599 249Z"  />
<glyph unicode="&#x5E5;" horiz-adv-x="625" d="M605 378Q605 314 588 261T533 164Q494 117 446 98V-190H207V54L0 500H258Q284 423 342 271Q344 265 348 259Q355 259 366 287Q374 308 377 321Q382 343 382 359V366Q382 431 371 500H584Q605 452 605 378Z"  />
<glyph unicode="&#x5E6;" horiz-adv-x="573" d="M568 499L464 231Q495 174 550 156V0H19V162H163Q176 162 203 161T243 160Q253 160 253 160Q259 160 259 162Q259 165 250 173L240 182Q156 257 8 499H247Q317 368 324 368Q328 368 334 397Q341 433 348 499H568Z"  />
<glyph unicode="&#x5E7;" horiz-adv-x="622" d="M597 213Q597 103 567 52Q528 -15 427 -15Q357 -15 305 5V165Q311 163 322 163Q357 163 357 203V335H25V499H597V213ZM266 -191H29V249H266V-191Z"  />
<glyph unicode="&#x5E8;" horiz-adv-x="465" d="M440 0H200V244Q200 306 186 321T108 336H6V499H269Q375 499 409 463Q440 429 440 324V0Z"  />
<glyph unicode="&#x5E9;" horiz-adv-x="819" d="M501 228H335L302 499H489L501 228ZM794 214Q794 95 747 48T583 0H66L12 499H241L276 162H449Q517 162 536 180T556 268V499H794V214Z"  />
<glyph unicode="&#x5EA;" horiz-adv-x="676" d="M651 0H411V220Q411 280 400 302Q383 335 330 335H302V162Q302 63 261 24T121 -15Q40 -15 10 9Q4 14 4 18V179Q12 178 20 173T35 168Q70 168 70 221V499H453Q575 499 613 460T651 297V0Z"  />
<glyph unicode="&#x5F0;" horiz-adv-x="609" d="M584 0H343V387Q343 464 323 499H564Q584 457 584 387V0ZM274 0H33V387Q33 464 13 499H254Q274 457 274 387V0Z"  />
<glyph unicode="&#x5F1;" horiz-adv-x="599" d="M574 0H333V387Q333 464 313 499H554Q574 457 574 387V0ZM267 211H26V378Q26 465 5 499H246Q267 457 267 378V211Z"  />
<glyph unicode="&#x5F2;" horiz-adv-x="597" d="M577 211H336V378Q336 465 315 499H556Q577 457 577 378V211ZM267 211H26V378Q26 465 5 499H246Q267 457 267 378V211Z"  />
<glyph unicode="&#x5F3;" horiz-adv-x="283" d="M297 502L178 260H20L72 502H297Z"  />
<glyph unicode="&#x5F4;" horiz-adv-x="425" d="M548 499L429 257H270L322 499H548ZM296 499L177 257H20L72 499H296Z"  />
<glyph unicode="&#xF25;" horiz-adv-x="532" d="M522 401Q514 354 498 260L454 0H210L268 241Q278 283 278 293Q278 336 220 336H146Q83 336 54 351Q13 372 13 430V620Q13 679 0 719H226Q240 687 240 589Q240 516 257 505Q266 499 302 499H430Q472 499 497 475T522 408Q522 401 522 401Z"  />
<glyph unicode="&#x200E;" horiz-adv-x="406" d="M375 448L211 296V404H141V0H55V490H211V600L375 448Z"  />
<glyph unicode="&#x200F;" horiz-adv-x="406" d="M351 0H265V404H195V296L31 448L195 600V490H351V0Z"  />
<glyph unicode="&#x2013;" horiz-adv-x="478" d="M441 177H37V325H441V177Z"  />
<glyph unicode="&#x2014;" horiz-adv-x="678" d="M641 177H37V325H641V177Z"  />
<glyph unicode="&#x2018;" horiz-adv-x="308" d="M288 260H130L11 502H236L288 260Z"  />
<glyph unicode="&#x2019;" horiz-adv-x="308" d="M297 502L178 260H20L72 502H297Z"  />
<glyph unicode="&#x201A;" horiz-adv-x="283" d="M285 43L166 -199H8L60 43H285Z"  />
<glyph unicode="&#x201C;" horiz-adv-x="559" d="M539 257H382L263 499H487L539 257ZM289 257H130L11 499H237L289 257Z"  />
<glyph unicode="&#x201D;" horiz-adv-x="559" d="M548 499L429 257H270L322 499H548ZM296 499L177 257H20L72 499H296Z"  />
<glyph unicode="&#x201E;" horiz-adv-x="559" d="M548 29L429 -213H270L322 29H548ZM296 29L177 -213H20L72 29H296Z"  />
<glyph unicode="&#x2020;" horiz-adv-x="271" d="M222 423H155V66H119V423H53V456H119V520Q119 531 110 552T101 585Q101 597 108 618T120 664T137 689Q149 689 154 664T166 618T173 585Q173 573 164 552T155 520V456H222V423Z"  />
<glyph unicode="&#x2021;" horiz-adv-x="271" d="M221 174H154V110Q154 99 163 78T172 45Q172 33 165 12T153 -33Q147 -60 136 -60Q125 -60 119 -33Q114 -9 107 12T100 45Q100 57 109 78T118 110V174H52V207H118V422H52V456H118V520Q118 531 109 551T100 584Q100 597 107 618T119 664T136 689Q148 689 153 664T165 618T172 584Q172 572 163 552T154 520V456H221V422H154V207H221V174Z"  />
<glyph unicode="&#x2022;" horiz-adv-x="471" d="M405 227Q405 163 355 117T234 71Q163 71 113 117T62 227Q62 291 112 336T234 382Q305 382 355 337T405 227Z"  />
<glyph unicode="&#x2026;" horiz-adv-x="931" d="M835 0H600V184H835V0ZM556 0H321V184H556V0ZM277 0H42V184H277V0Z"  />
<glyph unicode="&#x2030;" horiz-adv-x="1138" d="M1096 179Q1096 101 1055 48Q1010 -11 930 -11Q847 -11 798 49Q755 102 755 179Q755 254 798 307Q845 365 926 365Q1007 365 1054 306Q1096 254 1096 179ZM736 179Q736 101 695 48Q650 -11 570 -11Q487 -11 438 49Q394 103 394 179Q394 254 437 307Q484 365 565 365Q647 365 694 306Q736 254 736 179ZM638 656L173 -4H126L591 656H638ZM372 469Q372 391 331 339Q286 280 206 280Q123 280 74 339Q31 393 31 469Q31 545 74 597Q121 656 202 656Q283 656 330 597Q372 544 372 469ZM1001 167V190Q1001 269 990 299Q975 344 926 344Q877 344 861 299Q850 269 850 190V167Q850 85 861 56Q877 11 930 11Q976 11 991 54Q1001 85 1001 167ZM640 167V190Q640 269 629 299Q614 344 565 344Q516 344 500 299Q490 269 490 190V167Q490 85 501 56Q517 11 570 11Q616 11 630 54Q640 84 640 167ZM277 458V481Q277 560 266 590Q251 634 202 634Q153 634 137 589Q126 559 126 481V458Q126 376 137 346Q153 301 206 301Q252 301 267 345Q277 375 277 458Z"  />
<glyph unicode="&#x2039;" horiz-adv-x="271" d="M238 108H208L29 258L208 408H238L109 258L238 108Z"  />
<glyph unicode="&#x203A;" horiz-adv-x="271" d="M243 258L63 108H35L164 258L35 408H63L243 258Z"  />
<glyph unicode="&#x20AA;" horiz-adv-x="1033" d="M971 210Q971 85 925 42T754 -1H315L282 319H454L474 121H701Q774 121 786 134T799 225V498H971V210ZM722 194H549V289Q549 342 542 355Q530 377 476 377H212V-1H40V499H543Q637 499 679 458T722 324V194Z"  />
<glyph unicode="&#x20AC;" horiz-adv-x="615" d="M589 52Q509 -16 403 -16Q307 -16 231 41T127 191H29L63 251H117Q116 271 116 271Q116 278 117 294H29L63 354H128Q157 445 232 501T403 558Q509 558 589 490L558 437Q493 498 403 498Q334 498 278 459T192 354H512L476 294H177Q176 282 176 271Q176 266 177 251H452L417 191H190Q218 124 275 84T403 44Q493 44 558 105L572 79Q575 74 589 52Z"  />
<glyph unicode="&#x2122;" horiz-adv-x="510" d="M467 464H371V480H399V596L351 464H339L286 589V480H315V464H238V480H266V628H238V645H301L353 522L399 645H467V628H440V480H467V464ZM216 600H199Q198 607 196 612Q190 628 169 628H147V480H175V464H78V480H105V628H82Q56 628 52 600H35L40 645H212L216 600Z"  />
<glyph unicode="&#x2153;" horiz-adv-x="854" d="M234 206H87V381Q53 367 18 367Q11 367 6 368V470Q31 477 56 484Q87 494 101 508H234V206ZM746 81Q746 32 685 8Q642 -9 583 -9Q520 -9 478 10Q422 36 422 92Q422 98 422 101H547Q546 64 586 64Q616 64 616 93Q616 129 577 129Q569 129 562 127V180Q568 179 574 179Q613 179 613 212Q613 240 580 240Q546 240 550 206H433Q432 208 431 213Q431 213 431 220Q431 270 491 293Q532 309 592 309Q734 309 734 215Q734 173 680 156Q676 155 673 153Q674 152 676 152Q699 149 712 143Q746 126 746 81ZM577 605L290 -102H155L442 605H577Z"  />
<glyph unicode="&#x2154;" horiz-adv-x="854" d="M322 205H4V291L85 333Q187 387 187 416Q187 449 161 449Q126 449 127 403H1Q1 465 54 495Q97 519 164 519Q322 519 322 409Q322 362 271 334Q241 318 178 303Q181 302 215 302Q275 302 322 303V205ZM837 81Q837 32 776 8Q733 -9 674 -9Q611 -9 569 10Q513 36 513 92Q513 98 513 101H638Q636 64 676 64Q706 64 706 93Q706 129 668 129Q660 129 652 127V180Q659 179 665 179Q703 179 703 212Q703 240 671 240Q637 240 640 206H524Q523 208 522 213Q522 213 522 220Q522 270 582 293Q623 309 683 309Q825 309 825 215Q825 173 771 156Q767 155 763 153Q764 152 767 152Q790 149 802 143Q837 126 837 81ZM667 605L380 -102H245L532 605H667Z"  />
<glyph unicode="&#x2212;" horiz-adv-x="277" d="M277 231H4V262H277V231Z"  />
<glyph unicode="&#x2219;" horiz-adv-x="231" d="M172 309Q172 287 155 272T112 257Q87 257 70 272T52 309Q52 331 69 346T112 361Q137 361 154 346T172 309Z"  />
<glyph unicode="&#xE802;" horiz-adv-x="467" d="M442 -192H202V245Q202 308 187 322T110 336H0V499H271Q377 499 411 463Q442 429 442 324V-192ZM131 248Q131 210 91 210Q50 210 50 248Q50 285 91 285Q131 285 131 248ZM131 123Q131 85 91 85Q50 85 50 123Q50 160 91 160Q131 160 131 123Z"  />
<glyph unicode="&#xE803;" horiz-adv-x="467" d="M442 -192H202V245Q202 308 187 322T110 336H0V499H271Q377 499 411 463Q442 429 442 324V-192ZM167 200H91Q99 151 99 104Q99 100 98 81H36Q35 100 35 104Q35 151 43 200H-33V253H167V200Z"  />
<glyph unicode="&#xE804;" horiz-adv-x="532" d="M522 401Q514 354 498 260L454 0H210L268 241Q278 283 278 293Q278 336 220 336H146Q83 336 54 351Q13 372 13 430V620Q13 679 0 719H226Q240 687 240 589Q240 516 257 505Q266 499 302 499H430Q472 499 497 475T522 408Q522 401 522 401ZM-16 602Q-16 586 -28 575T-58 563Q-74 563 -85 575T-97 604Q-97 620 -85 631T-56 643Q-40 643 -28 631T-16 602Z"  />
<glyph unicode="&#xE805;" horiz-adv-x="532" d="M522 401Q514 354 498 260L454 0H210L268 241Q278 283 278 293Q278 336 220 336H146Q83 336 54 351Q13 372 13 430V620Q13 679 0 719H226Q240 687 240 589Q240 516 257 505Q266 499 302 499H430Q472 499 497 475T522 408Q522 401 522 401ZM-16 602Q-16 586 -28 575T-58 563Q-74 563 -85 575T-97 604Q-97 620 -85 631T-56 643Q-40 643 -28 631T-16 602ZM197 259Q197 242 185 230T156 217Q139 217 127 229T115 258Q115 275 127 287T156 300Q173 300 185 288T197 259Z"  />
<glyph unicode="&#xFB1F;" horiz-adv-x="602" d="M577 211H336V378Q336 465 315 499H556Q577 457 577 378V211ZM267 211H26V378Q26 465 5 499H246Q267 457 267 378V211ZM582 0H35V42H582V0Z"  />
<glyph unicode="&#xFB20;" horiz-adv-x="609" d="M584 202Q584 92 537 46T380 0H17V162H104L7 499H242L316 162Q344 160 344 257V499H584V202Z"  />
<glyph unicode="&#xFB21;" horiz-adv-x="613" d="M588 0H349V241Q349 299 333 317T260 336H25V499H390Q494 499 538 463Q588 423 588 320V0ZM258 0H25V251H258V0Z"  />
<glyph unicode="&#xFB22;" horiz-adv-x="537" d="M517 336H444V0H202V336H6V499H517V336Z"  />
<glyph unicode="&#xFB24;" horiz-adv-x="479" d="M474 250Q474 146 418 76Q357 0 256 0H20V162H136Q176 162 203 186T230 249Q230 288 203 312T136 336H20V499H256Q357 499 418 423Q474 353 474 250Z"  />
<glyph unicode="&#xFB26;" horiz-adv-x="661" d="M636 0H55V499H446Q562 499 601 453Q636 411 636 293V0ZM396 162V242Q396 318 378 329Q366 336 342 336H296V162H396Z"  />
<glyph unicode="&#xFB27;" horiz-adv-x="465" d="M440 0H200V244Q200 306 186 321T108 336H6V499H269Q375 499 409 463Q440 429 440 324V0Z"  />
<glyph unicode="&#xFB28;" horiz-adv-x="676" d="M651 0H411V220Q411 280 400 302Q383 335 330 335H302V162Q302 63 261 24T121 -15Q40 -15 10 9Q4 14 4 18V179Q12 178 20 173T35 168Q70 168 70 221V499H453Q575 499 613 460T651 297V0Z"  />
<glyph unicode="&#xFB2A;" horiz-adv-x="819" d="M501 228H335L302 499H489L501 228ZM794 214Q794 95 747 48T583 0H66L12 499H241L276 162H449Q517 162 536 180T556 268V499H794V214ZM713 602Q713 586 701 575T671 563Q655 563 644 575T632 604Q632 620 644 631T673 643Q689 643 701 631T713 602Z"  />
<glyph unicode="&#xFB2B;" horiz-adv-x="819" d="M501 228H335L302 499H489L501 228ZM794 214Q794 95 747 48T583 0H66L12 499H241L276 162H449Q517 162 536 180T556 268V499H794V214ZM153 602Q153 586 141 575T111 563Q95 563 84 575T72 604Q72 620 84 631T113 643Q129 643 141 631T153 602Z"  />
<glyph unicode="&#xFB2C;" horiz-adv-x="819" d="M501 228H335L302 499H489L501 228ZM794 214Q794 95 747 48T583 0H66L12 499H241L276 162H449Q517 162 536 180T556 268V499H794V214ZM713 602Q713 586 701 575T671 563Q655 563 644 575T632 604Q632 620 644 631T673 643Q689 643 701 631T713 602ZM415 195Q415 167 388 167Q360 167 360 194Q360 222 388 222Q415 222 415 195Z"  />
<glyph unicode="&#xFB2D;" horiz-adv-x="819" d="M501 228H335L302 499H489L501 228ZM794 214Q794 95 747 48T583 0H66L12 499H241L276 162H449Q517 162 536 180T556 268V499H794V214ZM153 602Q153 586 141 575T111 563Q95 563 84 575T72 604Q72 620 84 631T113 643Q129 643 141 631T153 602ZM415 195Q415 167 388 167Q360 167 360 194Q360 222 388 222Q415 222 415 195Z"  />
<glyph unicode="&#xFB2E;" horiz-adv-x="631" d="M623 0H369Q264 167 260 167Q255 167 253 147L235 0H18L117 337L8 499H257Q306 420 342 369Q353 354 354 354Q355 355 356 358T363 389Q371 431 381 499H600L505 167L623 0ZM388 -139H188V-86H388V-139Z"  />
<glyph unicode="&#xFB2F;" horiz-adv-x="631" d="M623 0H369Q264 167 260 167Q255 167 253 147L235 0H18L117 337L8 499H257Q306 420 342 369Q353 354 354 354Q355 355 356 358T363 389Q371 431 381 499H600L505 167L623 0ZM394 -139H318Q326 -188 326 -235Q326 -239 325 -258H263Q262 -239 262 -235Q262 -188 270 -139H194V-86H394V-139Z"  />
<glyph unicode="&#xFB30;" horiz-adv-x="631" d="M623 0H369Q264 167 260 167Q255 167 253 147L235 0H18L117 337L8 499H257Q306 420 342 369Q353 354 354 354Q355 355 356 358T363 389Q371 431 381 499H600L505 167L623 0ZM334 -117Q334 -155 294 -155Q253 -155 253 -117Q253 -80 294 -80Q334 -80 334 -117Z"  />
<glyph unicode="&#xFB31;" horiz-adv-x="509" d="M494 0H15V162H131Q222 162 222 249Q222 336 131 336H18V499H260Q358 499 410 447T462 297Q462 258 445 227Q434 207 412 185Q395 168 395 163Q395 157 405 157Q419 157 449 160T494 163V0ZM167 259Q167 242 155 230T126 217Q109 217 97 229T85 258Q85 275 97 287T126 300Q143 300 155 288T167 259Z"  />
<glyph unicode="&#xFB32;" horiz-adv-x="389" d="M372 0H175Q167 9 158 49Q150 83 141 83Q133 83 129 58Q123 24 115 10Q101 -15 68 -15Q28 -15 20 0V176L23 177Q31 172 39 167Q55 157 70 157Q99 157 115 192Q128 219 128 252Q128 285 111 310T62 335H32V499H191Q281 499 321 455T361 320V69Q361 48 372 0ZM88 259Q88 242 76 230T47 217Q30 217 18 229T6 258Q6 275 18 287T47 300Q64 300 76 288T88 259Z"  />
<glyph unicode="&#xFB33;" horiz-adv-x="537" d="M517 336H444V0H202V336H6V499H517V336ZM156 259Q156 242 144 230T115 217Q98 217 86 229T74 258Q74 275 86 287T115 300Q132 300 144 288T156 259Z"  />
<glyph unicode="&#xFB34;" horiz-adv-x="613" d="M588 0H349V241Q349 299 333 317T260 336H25V499H390Q494 499 538 463Q588 423 588 320V0ZM258 0H25V251H258V0ZM345 259Q345 242 333 230T304 217Q287 217 275 229T263 258Q263 275 275 287T304 300Q321 300 333 288T345 259Z"  />
<glyph unicode="&#xFB35;" horiz-adv-x="299" d="M274 0H33V387Q33 464 13 499H254Q274 457 274 387V0ZM17 259Q17 242 5 230T-24 217Q-41 217 -53 229T-65 258Q-65 275 -53 287T-24 300Q-7 300 5 288T17 259Z"  />
<glyph unicode="&#xFB36;" horiz-adv-x="418" d="M398 336Q353 336 341 331Q320 322 316 276Q315 268 315 210V0H74V207Q74 298 149 324Q150 337 108 337Q92 337 59 337Q26 336 10 336V499H398V336ZM57 259Q57 242 45 230T16 217Q-1 217 -13 229T-25 258Q-25 275 -13 287T16 300Q33 300 45 288T57 259Z"  />
<glyph unicode="&#xFB38;" horiz-adv-x="624" d="M619 267Q619 105 550 43Q485 -15 319 -15Q201 -15 119 29Q16 84 16 192V499H253V241Q253 189 261 172Q274 142 319 142Q384 142 384 255Q384 332 358 344Q351 347 337 347Q320 347 313 337Q303 324 298 322L295 323V476Q339 514 405 514Q619 514 619 267ZM358 259Q358 242 346 230T317 217Q300 217 288 229T276 258Q276 275 288 287T317 300Q334 300 346 288T358 259Z"  />
<glyph unicode="&#xFB39;" horiz-adv-x="287" d="M267 211H26V378Q26 465 5 499H246Q267 457 267 378V211ZM7 259Q7 242 -5 230T-34 217Q-51 217 -63 229T-75 258Q-75 275 -63 287T-34 300Q-17 300 -5 288T7 259Z"  />
<glyph unicode="&#xFB3A;" horiz-adv-x="467" d="M442 -192H202V245Q202 308 187 322T110 336H0V499H271Q377 499 411 463Q442 429 442 324V-192ZM144 259Q144 242 132 230T103 217Q86 217 74 229T62 258Q62 275 74 287T103 300Q120 300 132 288T144 259Z"  />
<glyph unicode="&#xFB3B;" horiz-adv-x="479" d="M474 250Q474 146 418 76Q357 0 256 0H20V162H136Q176 162 203 186T230 249Q230 288 203 312T136 336H20V499H256Q357 499 418 423Q474 353 474 250ZM157 259Q157 242 145 230T116 217Q99 217 87 229T75 258Q75 275 87 287T116 300Q133 300 145 288T157 259Z"  />
<glyph unicode="&#xFB3C;" horiz-adv-x="532" d="M522 401Q514 354 498 260L454 0H210L268 241Q278 283 278 293Q278 336 220 336H146Q83 336 54 351Q13 372 13 430V620Q13 679 0 719H226Q240 687 240 589Q240 516 257 505Q266 499 302 499H430Q472 499 497 475T522 408Q522 401 522 401ZM197 259Q197 242 185 230T156 217Q139 217 127 229T115 258Q115 275 127 287T156 300Q173 300 185 288T197 259Z"  />
<glyph unicode="&#xFB3E;" horiz-adv-x="624" d="M612 247Q612 116 583 62Q542 -14 422 -14Q359 -14 312 7V174Q313 175 315 175Q319 175 325 167T340 159Q371 159 371 249Q371 342 349 358Q340 365 318 365Q273 365 273 261V0H33V325Q33 465 13 499H242Q252 499 256 457T266 415Q269 415 280 433Q287 444 294 455T310 475Q351 515 422 515Q492 515 528 497Q582 470 601 386Q612 337 612 247ZM364 259Q364 242 352 230T323 217Q306 217 294 229T282 258Q282 275 294 287T323 300Q340 300 352 288T364 259Z"  />
<glyph unicode="&#xFB40;" horiz-adv-x="372" d="M347 0H15V161H105V246Q105 290 100 306Q89 336 54 336H16V499H186Q271 499 309 461T347 338V0ZM88 259Q88 242 76 230T47 217Q30 217 18 229T6 258Q6 275 18 287T47 300Q64 300 76 288T88 259Z"  />
<glyph unicode="&#xFB41;" horiz-adv-x="611" d="M591 205Q591 82 512 36Q452 0 320 0H69L5 499H591V205ZM351 242V336H242L271 162H304Q351 162 351 242ZM346 259Q346 242 334 230T305 217Q288 217 276 229T264 258Q264 275 276 287T305 300Q322 300 334 288T346 259Z"  />
<glyph unicode="&#xFB44;" horiz-adv-x="604" d="M599 249Q599 105 520 48Q452 0 299 0H89L62 162H218Q329 162 347 204Q355 222 355 271Q355 378 287 378Q226 378 226 284Q226 227 239 217H27Q5 250 5 315Q5 516 309 516Q458 516 526 458Q599 395 599 249ZM336 259Q336 242 324 230T295 217Q278 217 266 229T254 258Q254 275 266 287T295 300Q312 300 324 288T336 259Z"  />
<glyph unicode="&#xFB46;" horiz-adv-x="573" d="M568 499L464 231Q495 174 550 156V0H19V162H163Q176 162 203 161T243 160Q253 160 253 160Q259 160 259 162Q259 165 250 173L240 182Q156 257 8 499H247Q317 368 324 368Q328 368 334 397Q341 433 348 499H568ZM127 259Q127 242 115 230T86 217Q69 217 57 229T45 258Q45 275 57 287T86 300Q103 300 115 288T127 259Z"  />
<glyph unicode="&#xFB47;" horiz-adv-x="622" d="M597 213Q597 103 567 52Q528 -15 427 -15Q357 -15 305 5V165Q311 163 322 163Q357 163 357 203V335H25V499H597V213ZM266 -191H29V249H266V-191ZM351 259Q351 242 339 230T310 217Q293 217 281 229T269 258Q269 275 281 287T310 300Q327 300 339 288T351 259Z"  />
<glyph unicode="&#xFB48;" horiz-adv-x="465" d="M440 0H200V244Q200 306 186 321T108 336H6V499H269Q375 499 409 463Q440 429 440 324V0ZM147 259Q147 242 135 230T106 217Q89 217 77 229T65 258Q65 275 77 287T106 300Q123 300 135 288T147 259Z"  />
<glyph unicode="&#xFB49;" horiz-adv-x="819" d="M501 228H335L302 499H489L501 228ZM794 214Q794 95 747 48T583 0H66L12 499H241L276 162H449Q517 162 536 180T556 268V499H794V214ZM415 195Q415 167 388 167Q360 167 360 194Q360 222 388 222Q415 222 415 195Z"  />
<glyph unicode="&#xFB4A;" horiz-adv-x="676" d="M651 0H411V220Q411 280 400 302Q383 335 330 335H302V162Q302 63 261 24T121 -15Q40 -15 10 9Q4 14 4 18V179Q12 178 20 173T35 168Q70 168 70 221V499H453Q575 499 613 460T651 297V0ZM397 259Q397 242 385 230T356 217Q339 217 327 229T315 258Q315 275 327 287T356 300Q373 300 385 288T397 259Z"  />
<glyph unicode="&#xFB4B;" horiz-adv-x="299" d="M274 0H33V387Q33 464 13 499H254Q274 457 274 387V0ZM173 602Q173 586 161 575T131 563Q115 563 104 575T92 604Q92 620 104 631T133 643Q149 643 161 631T173 602Z"  />
<glyph unicode="&#xFB4C;" horiz-adv-x="509" d="M494 0H15V162H131Q222 162 222 249Q222 336 131 336H18V499H260Q358 499 410 447T462 297Q462 258 445 227Q434 207 412 185Q395 168 395 163Q395 157 405 157Q419 157 449 160T494 163V0ZM375 635H98V676H375V635Z"  />
<glyph unicode="&#xFB4D;" horiz-adv-x="479" d="M474 250Q474 146 418 76Q357 0 256 0H20V162H136Q176 162 203 186T230 249Q230 288 203 312T136 336H20V499H256Q357 499 418 423Q474 353 474 250ZM355 635H78V676H355V635Z"  />
<glyph unicode="&#xFB4E;" horiz-adv-x="604" d="M599 249Q599 105 520 48Q452 0 299 0H89L62 162H218Q329 162 347 204Q355 222 355 271Q355 378 287 378Q226 378 226 284Q226 227 239 217H27Q5 250 5 315Q5 516 309 516Q458 516 526 458Q599 395 599 249ZM434 635H157V676H434V635Z"  />
<glyph unicode="&#xFB4F;" horiz-adv-x="631" d="M623 0H369Q264 167 260 167Q255 167 253 147L235 0H18L117 337L8 499H257Q306 420 342 369Q353 354 354 354Q355 355 356 358T363 389Q371 431 381 499H600L505 167L623 0Z"  />


</font>
</defs>
</svg>
