<?xml  version="1.0" encoding="UTF-8"?>
<!DOCTYPE svg PUBLIC "-//W3C//DTD SVG 1.0//EN" "http://www.w3.org/TR/2001/REC-SVG-20010904/DTD/svg10.dtd" >
<svg xmlns="http://www.w3.org/2000/svg" >
<metadata>
<version>1.0</version>
<id><![CDATA[Oron W26 Bold Italic]]></id>
<vendor>Monotype Imaging Inc.</vendor>
<credits>
<name>Fonts.com WebFonts</name>
<URL>http://webfonts.fonts.com</URL>
<role>Home of the Web fonts</role>
</credits>
<license>
<URL>http://webfonts.fonts.com/Legal</URL>
</license>
<copyright><![CDATA[Masterfont Studio Rosenberg 2003 (C) version 1.0]]></copyright>
<trademark></trademark>
<licensee>
<name></name>
</licensee>
</metadata>
<defs >
<font horiz-adv-x="513" id="da6e9f59-71d6-408a-879e-4026b64a86d7">
<font-face font-family="" panose-1="0 0 7 0 0 0 0 0 0 0" ascent="800" descent="-320" units-per-em="1000" alphabetic="0">
</font-face>
<missing-glyph horiz-adv-x="500" d="M63 0V800H438V0H63ZM125 63H375V738H125V63Z"  />

<glyph unicode="&#xA;" />
<glyph unicode="&#xD;" />
<glyph unicode=" " horiz-adv-x="250" />
<glyph unicode="!" horiz-adv-x="258" d="M179 206H62L-43 641H126L179 206ZM221 0H90L66 133H197L221 0Z"  />
<glyph unicode="&quot;" horiz-adv-x="503" d="M446 503L394 292H282L288 503H446ZM228 503L176 292H64L70 503H228Z"  />
<glyph unicode="#" horiz-adv-x="537" d="M490 122H409L431 0H354L332 122H239L261 0H184L162 122H81L67 197H148L126 316H45L32 391H113L93 503H170L190 391H283L263 503H340L360 391H441L455 316H374L396 197H477L490 122ZM318 197L296 316H204L226 197H318Z"  />
<glyph unicode="$" horiz-adv-x="550" d="M500 126Q500 72 459 35T362 -7L374 -75H258L247 -12Q176 -6 121 35Q63 79 51 146H190Q205 85 282 85Q346 85 346 130Q346 175 271 195Q136 230 124 236Q38 275 18 366Q15 380 15 393Q15 446 59 481Q100 513 154 513L142 579H257L269 512Q330 505 376 467Q425 426 436 368H301Q288 417 224 417Q171 417 171 384Q171 345 245 324Q372 288 391 278Q477 237 498 150Q500 142 500 126Z"  />
<glyph unicode="%" horiz-adv-x="793" d="M728 84Q728 -19 606 -19Q527 -19 482 27T437 153Q437 256 558 256Q636 256 682 209T728 84ZM511 521L340 -20H267L438 521H511ZM341 350Q341 246 220 246Q142 246 96 293T50 420Q50 522 172 522Q250 522 295 476T341 350ZM632 80Q632 94 628 118Q615 197 568 197Q531 197 531 155Q531 142 535 118Q548 39 596 39Q632 39 632 80ZM246 347Q246 361 242 385Q229 463 182 463Q145 463 145 422Q145 409 149 385Q162 306 210 306Q246 306 246 347Z"  />
<glyph unicode="&apos;" horiz-adv-x="301" d="M228 503L176 292H64L70 503H228Z"  />
<glyph unicode="(" horiz-adv-x="417" d="M325 -50H196Q55 160 55 366Q55 465 88 555H218Q193 497 193 396Q193 327 206 252Q232 100 325 -50Z"  />
<glyph unicode=")" horiz-adv-x="417" d="M354 140Q354 56 318 -50H189Q215 39 215 119Q215 225 180 347Q143 480 84 555H214Q354 360 354 140Z"  />
<glyph unicode="*" horiz-adv-x="447" d="M352 489Q318 480 250 460Q237 471 224 495Q225 496 246 521L289 572Q328 540 352 489ZM210 611Q210 611 201 506Q199 506 195 506Q191 505 189 505H173Q171 505 167 506Q163 506 161 506Q144 541 114 613Q135 620 161 620Q188 620 210 613V611ZM366 406Q361 353 333 323Q322 331 240 400Q243 415 254 435Q273 430 310 421T366 406ZM142 494Q139 479 128 459Q96 469 16 488Q23 539 49 572Q49 572 142 494ZM269 281Q243 274 222 274Q200 274 172 281V284Q172 271 182 388Q186 389 194 389H210Q218 389 222 388Q239 353 269 281ZM158 400Q156 397 136 373L93 322Q53 358 30 406Q98 426 132 435Q150 419 158 400Z"  />
<glyph unicode="+" horiz-adv-x="546" d="M476 197H332L357 54H248L223 197H79L59 307H203L178 450H287L312 307H456L476 197Z"  />
<glyph unicode="&#x2c;" horiz-adv-x="317" d="M240 122L188 -88H76L82 122H240Z"  />
<glyph unicode="-" horiz-adv-x="302" d="M277 200H79L61 301H259L277 200Z"  />
<glyph unicode="." horiz-adv-x="260" d="M194 0H57L35 122H172L194 0Z"  />
<glyph unicode="/" horiz-adv-x="355" d="M283 609L175 -118H64L172 609H283Z"  />
<glyph unicode="0" horiz-adv-x="576" d="M517 178Q517 86 470 34Q420 -20 329 -20Q196 -20 118 88Q48 184 48 322Q48 414 95 468T233 522Q365 522 445 413Q517 315 517 178ZM369 170Q369 206 361 251Q331 420 251 420Q191 420 191 332Q191 303 200 251Q229 83 311 83Q369 83 369 170Z"  />
<glyph unicode="1" horiz-adv-x="511" d="M411 0H263L203 341Q163 300 85 284L63 411Q169 452 180 503H323L411 0Z"  />
<glyph unicode="2" horiz-adv-x="511" d="M500 0H86L70 93Q138 156 273 284Q305 315 305 352Q305 431 216 431Q155 431 155 372Q155 355 159 343H26Q21 359 21 383Q21 522 198 522Q300 522 363 478Q435 427 435 329Q435 264 358 195Q326 169 295 142Q243 99 243 92Q243 90 246 90Q267 90 309 93T374 97H483L500 0Z"  />
<glyph unicode="3" horiz-adv-x="511" d="M491 103Q491 34 420 3Q368 -20 289 -20Q105 -20 50 93Q35 124 35 150H180Q182 116 213 96Q239 78 275 78Q340 78 340 123Q340 211 234 211Q217 211 199 208L183 299Q194 297 216 297Q297 297 297 349Q297 385 269 405Q245 422 208 422Q146 422 146 368Q146 359 149 348H20Q11 366 11 395Q11 521 205 521Q401 521 431 359Q433 348 433 340Q433 291 376 264Q359 259 353 252Q375 249 419 234Q453 216 472 180T491 103Z"  />
<glyph unicode="4" horiz-adv-x="511" d="M507 116H431L451 0H301L281 116H45L25 228L175 502H363L414 209H490L507 116ZM264 209Q249 297 239 383Q239 403 234 403Q233 403 226 392Q210 365 178 301Q142 227 142 214Q142 208 158 208Q176 208 211 209Q247 209 264 209Z"  />
<glyph unicode="5" horiz-adv-x="511" d="M486 120Q486 45 424 9Q373 -20 293 -20Q74 -20 50 121H194Q202 75 280 75Q310 75 329 92T348 138Q348 181 322 211T252 241Q179 241 186 202H50L17 503H394L411 403H162Q163 389 164 361T166 317Q172 292 171 292Q176 292 186 301Q200 312 202 313Q222 324 275 324Q454 324 483 151Q486 133 486 120Z"  />
<glyph unicode="6" horiz-adv-x="511" d="M494 134Q494 62 437 19Q385 -20 311 -20Q80 -20 31 244Q23 287 23 330Q23 522 219 522Q309 522 368 487Q437 446 451 364H316Q298 438 226 438Q167 438 167 342Q167 318 175 274Q180 273 185 286Q205 336 280 336Q363 336 419 292T491 167Q494 151 494 134ZM357 147Q357 187 330 216T263 246Q235 246 217 228T199 181Q199 142 226 111T292 80Q322 80 339 98T357 147Z"  />
<glyph unicode="7" horiz-adv-x="511" d="M412 422L333 0H186L249 353Q250 359 256 376T263 401Q263 402 262 403T255 405Q250 405 239 404T222 403H8L-9 503H398L412 422Z"  />
<glyph unicode="8" horiz-adv-x="511" d="M502 111Q502 -20 297 -20Q71 -20 39 147Q38 152 38 163Q38 211 91 243Q106 250 133 266Q129 268 119 271Q15 302 15 402Q15 467 79 498Q128 522 201 522Q290 522 350 491Q423 454 438 376Q440 366 440 354Q440 318 418 297Q402 283 363 266Q383 257 421 239Q502 195 502 111ZM298 351Q298 389 276 415T215 442Q190 442 173 428T156 388Q156 349 179 324T241 298Q298 298 298 351ZM349 133Q349 170 322 192T256 214Q186 214 186 158Q186 122 215 98T280 73Q307 73 328 89T349 133Z"  />
<glyph unicode="9" horiz-adv-x="511" d="M482 164Q482 -20 275 -20Q124 -20 56 92Q40 119 34 147H183Q187 118 209 99T261 79Q337 79 337 168Q337 205 327 236Q314 208 277 192Q246 178 210 178Q124 178 63 235T2 378Q2 451 59 491Q109 525 185 525Q307 525 382 448Q450 378 473 253Q482 204 482 164ZM300 328Q300 369 274 395T207 422Q179 422 162 405T144 359Q144 321 170 294T235 266Q263 266 281 283T300 328Z"  />
<glyph unicode=":" horiz-adv-x="274" d="M166 315H29L7 437H144L166 315ZM222 0H85L63 122H200L222 0Z"  />
<glyph unicode=";" horiz-adv-x="312" d="M185 316H47L26 437H164L185 316ZM242 122L189 -88H76L83 122H242Z"  />
<glyph unicode="&lt;" horiz-adv-x="610" d="M597 -23L54 201L36 301L501 525L523 399L199 250L575 105L597 -23Z"  />
<glyph unicode="=" horiz-adv-x="546" d="M455 305H60L41 415H436L455 305ZM494 85H99L80 195H475L494 85Z"  />
<glyph unicode="&gt;" horiz-adv-x="610" d="M562 201L97 -23L75 105L399 250L23 399L1 525L544 301L562 201Z"  />
<glyph unicode="?" horiz-adv-x="572" d="M477 405Q477 342 441 312Q408 295 375 277Q339 257 339 218Q339 207 343 183H224Q213 240 213 261Q213 296 243 321Q271 341 299 362Q329 390 329 435Q329 489 299 526T215 564Q179 564 156 543T133 486Q133 435 159 393H42Q36 393 33 398Q-5 432 -5 507Q-5 586 61 625Q114 657 199 657Q318 657 395 592Q477 522 477 405ZM377 0H239L217 122H355L377 0Z"  />
<glyph unicode="@" horiz-adv-x="759" d="M699 350Q699 258 647 201Q591 140 495 140Q404 140 390 195Q332 146 282 146Q242 146 217 172Q187 202 187 262Q187 349 234 419Q287 496 366 496Q422 496 450 462L456 484H533L470 229Q468 221 468 216Q468 178 517 178Q567 178 608 216Q661 265 661 351Q661 449 587 517Q508 590 383 590Q254 590 168 512T81 315Q81 200 167 123T382 45Q486 45 568 99Q577 103 581 103Q598 103 598 87Q598 77 589 70Q511 10 382 10Q235 10 139 96T43 315Q43 452 138 538T383 625Q524 625 613 543Q699 464 699 350ZM440 426Q425 462 377 462Q334 462 299 391Q265 324 265 250Q265 184 303 184Q354 184 388 234L440 426Z"  />
<glyph unicode="A" horiz-adv-x="681" d="M669 0H358V24H462L399 198H198L136 24H256V0H18V24H108L334 654H352L578 24H669V0ZM390 222L298 475L207 222H390Z"  />
<glyph unicode="B" horiz-adv-x="616" d="M568 176Q568 94 507 47T338 0H25V24H114V621H25V645H330Q418 645 479 606Q545 563 545 493Q545 383 406 350Q470 336 514 295Q568 246 568 176ZM437 485V501Q437 621 330 621H223V360H330Q382 360 408 385Q437 415 437 485ZM457 164V187Q457 336 330 336H223V24H330Q399 24 429 60Q457 93 457 164Z"  />
<glyph unicode="C" horiz-adv-x="631" d="M598 4Q598 -7 587 -7Q581 -7 575 -1L523 51Q453 -18 351 -18Q231 -18 135 82Q35 185 35 323Q35 451 126 551Q221 656 356 656Q450 656 518 607L555 642Q565 651 572 651Q584 651 584 632V478Q584 462 575 462Q568 462 565 470L563 475Q537 546 486 586Q431 630 356 630Q171 630 171 374V268Q171 8 351 8Q490 8 574 188Q580 201 588 201Q598 201 598 187V4Z"  />
<glyph unicode="D" horiz-adv-x="682" d="M664 330Q664 180 575 90T337 0H28V24H119V621H28V645H337Q481 645 572 558T664 330ZM541 306V354Q541 496 479 563Q426 621 335 621H228V24H335Q541 24 541 306Z"  />
<glyph unicode="E" horiz-adv-x="591" d="M553 35Q553 0 519 0H31V24H118V621H29V645H494Q525 645 525 618V474Q525 457 513 457Q501 457 500 475Q497 528 472 569Q439 621 379 621H227V352H304Q342 352 358 377Q367 390 377 435Q381 452 389 452Q400 452 400 436V244Q400 227 389 227Q381 227 377 244Q373 267 357 306Q342 328 304 328H227V24H388Q452 24 484 67Q507 99 525 181Q530 204 541 204Q553 204 553 177V35Z"  />
<glyph unicode="F" horiz-adv-x="564" d="M529 474Q529 457 517 457Q505 457 504 475Q501 528 476 569Q443 621 383 621H231V352H308Q346 352 362 377Q371 390 381 435Q385 452 393 452Q404 452 404 436V244Q404 227 393 227Q385 227 381 244Q377 267 361 306Q346 328 308 328H231V24H320V0H36V24H122V621H34V645H499Q529 645 529 618V474Z"  />
<glyph unicode="G" horiz-adv-x="689" d="M686 217H597V189Q597 86 523 31Q458 -18 350 -18Q224 -18 129 82T33 319Q33 456 127 556T353 656Q451 656 517 604L558 642Q568 651 576 651Q589 651 589 636V457Q589 444 578 444Q568 444 564 456Q504 630 353 630Q268 630 220 571Q168 507 168 379V263Q168 138 216 73T352 8Q482 8 482 132V217H371V241H686V217Z"  />
<glyph unicode="H" horiz-adv-x="706" d="M688 0H402V24H491V330H227V24H316V0H29V24H118V621H29V645H316V621H227V355H491V621H402V645H688V621H600V24H688V0Z"  />
<glyph unicode="I" horiz-adv-x="366" d="M326 0H40V24H128V621H40V645H326V621H237V24H326V0Z"  />
<glyph unicode="J" horiz-adv-x="381" d="M371 621H294V56Q294 -97 126 -97Q74 -97 39 -66Q8 -39 8 -8Q8 46 59 46Q81 46 94 32T107 -1Q107 -47 64 -53Q85 -71 119 -71Q156 -71 170 -51T185 20V621H90V645H371V621Z"  />
<glyph unicode="K" horiz-adv-x="692" d="M685 0H385V24H470L219 353L510 621H428V645H640V621H550L313 403L601 24H685V0ZM304 0H31V24H113V621H31V645H304V621H222V24H304V0Z"  />
<glyph unicode="L" horiz-adv-x="617" d="M596 35Q596 0 561 0H26V24H115V621H26V645H322V621H224V24H431Q495 24 526 67Q549 98 567 181Q572 204 583 204Q596 204 596 177V35Z"  />
<glyph unicode="M" horiz-adv-x="821" d="M793 0H520V24H602V589L380 0H360L138 585V24H221V0H31V24H113V621H31V645H229L415 167L595 645H793V621H711V24H793V0Z"  />
<glyph unicode="N" horiz-adv-x="677" d="M660 621H571V-8H529L137 583V24H226V0H23V24H112V621H23V645H233L546 175V621H457V645H660V621Z"  />
<glyph unicode="O" horiz-adv-x="712" d="M684 320Q684 187 589 86Q492 -18 360 -18Q228 -18 132 86Q37 187 37 320Q37 453 132 554T360 656Q492 656 588 555T684 320ZM549 272V367Q549 512 500 574Q455 630 360 630Q266 630 221 572Q172 508 172 367V272Q172 8 360 8Q549 8 549 272Z"  />
<glyph unicode="P" horiz-adv-x="558" d="M534 469Q534 390 476 342T325 293H223V24H311V0H25V24H114V621H25V645H315Q415 645 474 597T534 469ZM433 452V486Q433 621 315 621H223V317H325Q433 317 433 452Z"  />
<glyph unicode="Q" horiz-adv-x="701" d="M684 319Q684 205 611 110T429 -12V-29Q429 -197 589 -197Q603 -197 603 -208Q603 -218 589 -218Q446 -218 385 -188Q304 -148 294 -33L292 -12Q183 14 110 109T37 319Q37 452 132 554T360 656Q492 656 588 554T684 319ZM549 271V366Q549 511 500 574Q455 630 360 630Q266 630 221 571Q172 508 172 366V271Q172 6 360 6Q549 6 549 271Z"  />
<glyph unicode="R" horiz-adv-x="647" d="M645 34Q645 29 641 25Q630 14 597 3Q561 -8 528 -8Q476 -8 452 20Q430 44 424 97Q422 130 417 196Q402 325 307 325H226V24H315V0H28V24H117V621H28V645H323Q417 645 478 603Q543 559 543 484Q543 365 393 332Q489 307 519 251Q539 213 542 109Q543 60 548 47Q556 26 585 26Q609 26 629 39Q633 41 638 41Q645 41 645 34ZM436 467V501Q436 621 323 621H226V349H323Q436 349 436 467Z"  />
<glyph unicode="S" horiz-adv-x="558" d="M524 205Q524 110 456 46T287 -18Q194 -18 118 44L84 -1Q75 -13 67 -13Q53 -13 53 4V174Q53 191 65 191Q77 191 81 176Q102 98 162 53Q219 8 293 8Q360 8 407 47Q458 88 458 152Q458 220 401 245Q357 264 311 277Q214 305 209 307Q68 351 68 467Q68 546 126 599Q187 656 286 656Q362 656 434 618L461 650Q470 660 476 660Q487 660 487 646V477Q487 463 475 463Q463 463 461 476Q452 542 411 583Q364 630 286 630Q226 630 185 602Q139 571 139 518Q139 454 201 432Q228 422 385 380Q524 342 524 205Z"  />
<glyph unicode="T" horiz-adv-x="638" d="M617 455H586Q574 533 540 577T460 621H376V24H465V0H179V24H267V621H183Q138 621 104 577T57 455H27L43 625Q45 645 68 645H576Q599 645 601 625L617 455Z"  />
<glyph unicode="U" horiz-adv-x="657" d="M643 621H555V162Q555 74 499 28T343 -18Q248 -18 185 20Q107 68 107 162V621H18V645H304V621H216V162Q216 88 256 48T367 8Q437 8 483 49T529 162V621H440V645H643V621Z"  />
<glyph unicode="V" horiz-adv-x="651" d="M649 621H574L353 -10H329L97 621H7V645H294V621H203L378 149L543 621H456V645H649V621Z"  />
<glyph unicode="W" horiz-adv-x="926" d="M915 621H843L602 -10H582L470 277L361 -10H341L101 621H23V645H680V621H616L532 402L630 141L814 621H728V645H915V621ZM588 621H448L518 439L588 621ZM456 315L341 621H208L390 143L456 315Z"  />
<glyph unicode="X" horiz-adv-x="706" d="M689 0H404V24H484L324 283L148 24H247V0H22V24H114L308 309L115 621H24V645H329V621H239L375 401L523 621H427V645H652V621H558L392 375L608 24H689V0Z"  />
<glyph unicode="Y" horiz-adv-x="682" d="M673 621H588L420 340V24H518V0H212V24H311V316L113 621H28V645H325V621H234L398 367L550 621H454V645H673V621Z"  />
<glyph unicode="Z" horiz-adv-x="524" d="M502 0H31V30L383 621H192Q64 621 59 472H36V645H495V617L139 24H328Q398 24 434 62Q472 104 477 199H502V0Z"  />
<glyph unicode="[" horiz-adv-x="386" d="M353 -50H125L17 557H245L258 487H160L242 19H340L353 -50Z"  />
<glyph unicode="\" horiz-adv-x="255" d="M208 -10H153L67 519H123L208 -10Z"  />
<glyph unicode="]" horiz-adv-x="386" d="M361 -50H133L120 19H218L136 487H38L25 557H253L361 -50Z"  />
<glyph unicode="^" horiz-adv-x="381" d="M325 325L303 314L195 521L87 314L64 325L178 606H211L325 325Z"  />
<glyph unicode="_" horiz-adv-x="300" d="M311 -31H-4V-11H311V-31Z"  />
<glyph unicode="`" horiz-adv-x="266" d="M233 457L219 450L44 604H147L233 457Z"  />
<glyph unicode="a" horiz-adv-x="456" d="M453 54Q453 34 430 14Q401 -13 353 -13Q288 -13 274 34Q231 -13 158 -13Q42 -13 42 75Q42 138 108 176Q171 211 268 212V319Q268 369 204 369Q182 369 163 364T143 352Q145 350 152 344Q166 331 166 314Q166 277 123 277Q104 277 93 288T81 316Q81 347 116 367Q156 390 228 390Q366 390 366 301V74Q366 43 370 33Q375 20 390 20Q417 20 434 53Q439 63 445 63Q453 63 453 54ZM268 68V194Q203 190 172 173Q132 151 132 99Q132 20 193 20Q213 20 240 37T268 68Z"  />
<glyph unicode="b" horiz-adv-x="534" d="M510 192Q510 116 451 52T315 -12Q250 -12 204 40V0H28V24H107V621H28V645H204V346Q246 393 312 393Q383 393 444 336Q510 275 510 192ZM394 171V214Q394 309 369 343Q351 369 308 369Q246 369 204 303V83Q246 12 312 12Q394 12 394 171Z"  />
<glyph unicode="c" horiz-adv-x="422" d="M411 105Q411 103 410 100L409 96Q396 56 360 26Q312 -13 242 -13Q159 -13 97 41Q29 99 29 187Q29 274 97 334Q162 390 247 390Q296 390 339 369Q388 344 388 308Q388 264 338 264Q289 264 289 306Q289 324 298 336T307 349Q307 354 293 359Q275 366 245 366Q193 366 170 333Q146 297 146 208V167Q146 77 165 45Q186 10 245 10Q298 10 338 40Q372 66 385 105Q389 117 399 117Q411 117 411 105Z"  />
<glyph unicode="d" horiz-adv-x="534" d="M513 0H337V41Q291 -13 227 -13Q159 -13 97 48Q32 112 32 191Q32 266 93 329T230 393Q298 393 337 350V621H259V645H435V24H513V0ZM337 82V301Q295 369 234 369Q187 369 168 336T148 215V168Q148 79 169 43Q188 11 231 11Q291 11 337 82Z"  />
<glyph unicode="e" horiz-adv-x="447" d="M414 117Q414 110 411 102Q391 52 348 21Q298 -13 230 -13Q144 -13 84 49Q28 108 28 185Q28 262 85 324Q144 390 226 390Q315 390 367 327Q406 281 409 233Q410 216 388 216H145V124Q145 10 232 10Q341 10 390 116Q396 128 404 128Q414 128 414 117ZM303 279Q303 366 227 366Q145 366 145 273V240H293Q303 240 303 279Z"  />
<glyph unicode="f" horiz-adv-x="352" d="M340 585Q340 547 303 547Q263 547 263 583Q263 607 286 617Q286 628 244 628Q195 628 195 561V380H278V356H195V24H272V0H20V24H97V356H21V380H97V416Q97 524 118 569Q157 652 242 652Q284 652 312 632T340 585Z"  />
<glyph unicode="g" horiz-adv-x="439" d="M433 371Q433 339 398 339Q360 339 360 370Q360 372 361 377Q347 369 331 352Q377 312 377 255Q377 208 340 169Q292 119 207 119Q172 119 148 126Q68 106 68 66Q68 30 129 30H295Q354 30 388 1Q424 -31 424 -90Q424 -166 366 -209T220 -253Q31 -253 31 -144Q31 -75 109 -43Q33 -24 33 49Q33 114 114 139Q37 180 37 255Q37 310 81 348Q128 390 207 390Q277 390 312 366Q351 405 390 405Q433 405 433 371ZM275 238V270Q275 325 258 347Q243 366 207 366Q171 366 156 347Q139 325 139 270V238Q139 188 153 167Q168 143 207 143Q246 143 261 167Q275 188 275 238ZM377 -129Q377 -96 351 -72T278 -47H147Q130 -47 111 -69Q89 -94 89 -126Q89 -229 224 -229Q284 -229 327 -205Q377 -178 377 -129Z"  />
<glyph unicode="h" horiz-adv-x="555" d="M539 0H298V24H369V291Q369 360 312 360Q265 360 229 322Q196 288 196 256V24H268V0H26V24H99V621H26V645H196V325Q244 393 344 393Q467 393 467 302V24H539V0Z"  />
<glyph unicode="i" horiz-adv-x="303" d="M216 550Q216 528 199 513T158 497Q134 497 117 512T100 550Q100 573 117 588T158 604Q182 604 199 589T216 550ZM285 0H33V24H110V356H33V380H207V24H285V0Z"  />
<glyph unicode="j" horiz-adv-x="282" d="M228 550Q228 527 211 512T170 496Q146 496 129 511T112 550Q112 573 129 588T170 604Q194 604 211 589T228 550ZM225 -28Q225 -133 184 -192T70 -252Q33 -252 6 -234T-21 -187Q-21 -167 -8 -153T28 -138Q50 -138 62 -152T75 -184Q75 -212 53 -226Q57 -228 69 -228Q92 -228 109 -212T127 -164V355H44V379H225V-28Z"  />
<glyph unicode="k" horiz-adv-x="556" d="M549 0H291V24H359L223 202H207V24H280V0H27V24H110V621H27V645H207V226H230L373 356H292V380H494V356H410L294 249L475 24H549V0Z"  />
<glyph unicode="l" horiz-adv-x="294" d="M273 0H32V24H104V621H32V645H201V24H273V0Z"  />
<glyph unicode="m" horiz-adv-x="785" d="M766 0H536V24H601V287Q601 353 553 353Q510 353 476 314Q446 280 446 248V24H513V0H282V24H349V287Q349 316 344 328Q334 353 300 353Q262 353 226 315Q194 281 194 256V24H260V0H29V24H96V353H29V377H194V316Q244 385 344 385Q432 385 445 314Q493 385 596 385Q699 385 699 297V24H766V0Z"  />
<glyph unicode="n" horiz-adv-x="547" d="M528 0H286V24H358V287Q358 353 305 353Q268 353 235 319T202 252V24H274V0H33V24H105V353H33V376H202V316Q250 384 343 384Q456 384 456 293V24H528V0Z"  />
<glyph unicode="o" horiz-adv-x="460" d="M441 188Q441 117 385 55Q323 -13 234 -13Q145 -13 82 55Q25 117 25 188Q25 259 82 321Q145 390 234 390Q323 390 385 321Q441 259 441 188ZM325 168V209Q325 295 309 327Q289 366 234 366Q179 366 158 327Q141 294 141 209V168Q141 80 158 47Q178 10 234 10Q290 10 309 47Q325 79 325 168Z"  />
<glyph unicode="p" horiz-adv-x="515" d="M494 187Q494 105 433 44T295 -17Q228 -17 187 29V-233H254V-257H22V-233H89V352H22V377H187V336Q233 390 297 390Q370 390 432 329T494 187ZM378 167V210Q378 304 352 341Q333 366 296 366Q258 366 223 337T187 275V91Q187 64 220 37T293 9Q337 9 355 36Q378 70 378 167Z"  />
<glyph unicode="q" horiz-adv-x="524" d="M507 -257H276V-233H343V30Q300 -17 233 -17Q158 -17 96 45T34 187Q34 265 95 326T231 387Q299 387 343 335V376H507V352H440V-233H507V-257ZM343 106V266Q343 303 307 334T232 366Q150 366 150 245V141Q150 61 173 32Q192 8 235 8Q283 8 313 37T343 106Z"  />
<glyph unicode="r" horiz-adv-x="412" d="M402 313Q402 289 386 275T346 261Q321 261 305 274T289 310Q289 340 314 354Q317 355 317 357Q317 361 293 361Q257 361 223 333T188 276V24H260V0H18V24H90V353H18V377H188V332Q231 385 304 385Q344 385 370 369Q402 350 402 313Z"  />
<glyph unicode="s" horiz-adv-x="367" d="M343 119Q343 62 306 25Q266 -13 199 -13Q125 -13 83 24L64 -1Q59 -8 54 -8Q43 -8 43 4V105Q43 117 54 117Q63 117 66 105Q93 10 196 10Q234 10 264 27Q299 47 299 81Q299 122 238 144Q227 147 142 165Q50 184 50 266Q50 317 86 352Q126 390 191 390Q237 390 269 365L289 384L292 386Q296 390 300 390Q307 390 307 379V278Q307 268 299 268Q290 268 288 277Q282 312 258 337Q229 366 185 366Q148 366 124 348T99 306Q99 277 134 267Q178 257 246 239Q343 210 343 119Z"  />
<glyph unicode="t" horiz-adv-x="348" d="M338 83Q338 79 337 73Q321 -13 214 -13Q154 -13 122 18T89 104V355H19V379H89V485L187 530V379H287V355H187V102Q187 16 249 16Q303 16 314 81Q316 95 328 95Q338 95 338 83Z"  />
<glyph unicode="u" horiz-adv-x="556" d="M529 0H359V60Q306 -11 204 -11Q95 -11 95 95V353H23V376H193V89Q193 55 201 42Q212 25 245 25Q287 25 323 59T359 123V353H287V376H457V24H529V0Z"  />
<glyph unicode="v" horiz-adv-x="505" d="M488 353H425L269 -4H255L90 353H21V376H264V353H194L297 123L397 353H326V376H488V353Z"  />
<glyph unicode="w" horiz-adv-x="668" d="M654 353H582L457 -11H443L338 230L251 -11H236L92 353H23V376H257V353H191L278 135L363 376H377L482 134L556 353H472V376H654V353Z"  />
<glyph unicode="x" horiz-adv-x="518" d="M505 0H263V24H336L239 152L134 24H205V0H31V24H102L223 173L86 353H26V376H253V353H190L279 236L374 353H313V376H476V353H408L295 215L441 24H505V0Z"  />
<glyph unicode="y" horiz-adv-x="521" d="M511 352H442L231 -154Q191 -251 111 -251Q54 -251 54 -206Q54 -167 95 -167Q125 -167 139 -194Q145 -205 151 -205Q183 -205 207 -146L266 -3L96 352H26V376H277V352H201L313 110L414 352H340V376H511V352Z"  />
<glyph unicode="z" horiz-adv-x="414" d="M388 0H49V26L275 353H179Q100 353 89 255H68V376H377V348L155 24H267Q359 24 367 132H388V0Z"  />
<glyph unicode="{" horiz-adv-x="340" d="M372 -156H297Q284 -156 262 -146Q191 -113 177 -36L141 166Q132 217 60 217L46 297Q111 297 111 332V340L75 542Q73 553 73 566Q73 601 96 631T153 662H228L244 572H224Q189 572 189 545Q189 533 190 527L222 342Q224 330 224 323Q224 263 156 258V256Q240 248 254 164L286 -21Q291 -52 309 -61Q320 -66 356 -66L372 -156Z"  />
<glyph unicode="|" horiz-adv-x="213" d="M223 -165H148L-14 749H61L223 -165Z"  />
<glyph unicode="}" horiz-adv-x="340" d="M287 209Q222 209 222 174V166L258 -36Q260 -47 260 -60Q260 -95 237 -125T180 -156H105L89 -66H109Q144 -66 144 -39Q144 -27 143 -21L111 164Q109 176 109 183Q109 243 177 248V250Q93 258 79 342L47 527Q42 558 24 567Q13 572 -23 572L-39 662H36Q49 662 71 652Q142 619 156 542L192 340Q201 289 273 289L287 209Z"  />
<glyph unicode="&#xA0;" horiz-adv-x="250" />
<glyph unicode="&#xA1;" horiz-adv-x="277" d="M206 453Q206 430 189 414T146 398Q121 398 104 414T86 453Q86 476 103 492T146 509Q171 509 188 493T206 453ZM208 -48Q208 -138 145 -138Q80 -138 80 -48Q80 -11 91 41Q101 84 111 128Q122 185 134 347H155Q159 296 162 244Q168 176 177 128Q183 105 195 50T208 -48Z"  />
<glyph unicode="&#xA2;" horiz-adv-x="354" d="M331 213Q331 210 330 206Q307 125 211 118L210 70H185V119Q123 124 79 167T35 271Q35 333 75 373T185 424V461H210L211 424Q250 423 281 405T312 361Q312 324 274 324Q258 324 248 334T237 359Q237 373 242 379T248 389Q248 403 211 405V140Q248 142 275 163T309 215Q311 224 320 224Q331 224 331 213ZM185 140V404Q150 397 138 374T125 291V250Q125 200 132 180Q145 145 185 140Z"  />
<glyph unicode="&#xA3;" horiz-adv-x="559" d="M535 187Q535 126 484 60Q429 -11 363 -11Q273 -11 217 48Q184 -5 107 -5Q63 -5 39 20T14 80Q14 129 59 160Q98 186 144 186Q162 186 182 182L131 324H35V350H120Q86 448 86 491Q86 581 169 624Q235 658 340 658Q402 658 448 628Q498 595 498 546Q498 465 426 465Q399 465 381 479T362 517Q362 573 430 573Q445 573 445 580Q445 598 412 616T340 634Q285 634 259 608Q228 578 228 506V350H309V324H228V170Q344 103 405 103Q443 103 468 127Q489 147 511 193Q515 201 523 201Q535 201 535 187ZM194 68Q138 132 89 132Q73 132 59 120Q42 105 42 80Q42 57 59 39T107 21Q171 21 194 68Z"  />
<glyph unicode="&#xA5;" horiz-adv-x="674" d="M665 621H579L411 340V324H511V300H411V261H511V237H411V24H510V0H204V24H302V237H201V261H302V300H201V324H297L105 621H20V645H317V621H226L390 367L542 621H446V645H665V621Z"  />
<glyph unicode="&#xA6;" horiz-adv-x="118" d="M80 357H43V647H80V357ZM80 0H43V265H80V0Z"  />
<glyph unicode="&#xA7;" horiz-adv-x="387" d="M367 335Q367 246 292 214Q364 181 364 93Q364 20 317 -24T190 -69Q130 -69 89 -37T48 37Q48 85 91 85Q130 85 130 46Q130 9 88 9Q83 9 83 8Q83 -3 112 -22Q148 -45 190 -45Q245 -45 277 -20T309 43Q309 95 238 119Q173 140 108 161Q37 197 37 279Q37 372 119 401Q36 429 36 518Q36 579 79 621Q124 667 195 667Q271 667 312 637Q345 614 345 581Q345 542 307 542Q264 542 264 577Q264 610 297 616Q260 643 195 643Q153 643 121 622T89 569Q89 513 190 499Q367 474 367 335ZM329 300Q329 332 268 359Q220 381 163 390Q90 375 90 323Q90 289 124 268Q163 243 259 225Q329 250 329 300Z"  />
<glyph unicode="&#xA8;" horiz-adv-x="432" d="M353 554Q353 535 338 522T300 509Q278 509 263 522T247 554Q247 573 262 586T300 599Q322 599 337 586T353 554ZM196 554Q196 535 181 522T143 509Q121 509 106 522T90 554Q90 573 105 586T143 599Q165 599 180 586T196 554Z"  />
<glyph unicode="&#xA9;" horiz-adv-x="637" d="M616 357Q616 247 532 169T327 91Q207 91 122 169T37 357Q37 467 122 545T327 623Q447 623 531 545T616 357ZM586 358Q586 456 511 525T328 594Q221 594 145 525T69 358Q69 260 145 191T328 122Q435 122 510 191T586 358ZM428 241Q428 234 420 234Q417 234 414 237L393 257Q363 230 324 230Q274 230 233 272T192 370Q192 423 231 466T327 510Q362 510 392 489L405 503Q408 507 415 507H417Q423 506 423 498V434Q423 424 415 424Q411 424 407 431Q386 491 327 491Q254 491 254 391V349Q254 248 324 248Q377 248 411 317Q413 325 421 325Q428 325 428 317V241Z"  />
<glyph unicode="&#xAA;" horiz-adv-x="354" d="M323 398Q323 385 309 373Q291 356 262 356Q223 356 213 383Q186 356 144 356Q73 356 73 411Q73 449 112 471T209 494V555Q209 582 172 582Q141 582 137 577L139 575Q140 575 142 573Q151 563 151 553Q151 529 123 529Q96 529 96 555Q96 573 119 586T186 600Q271 600 271 545V410Q271 380 283 380Q295 380 304 392T316 405Q323 405 323 398ZM323 284H44V322H323V284ZM209 408V480Q130 474 130 425Q130 380 165 380Q177 380 193 390T209 408Z"  />
<glyph unicode="&#xAB;" horiz-adv-x="438" d="M382 108H354L174 258L354 408H382L254 258L382 108ZM232 108H203L24 258L203 408H232L104 258L232 108Z"  />
<glyph unicode="&#xAC;" horiz-adv-x="564" d="M545 230H506V389H18V429H545V230Z"  />
<glyph unicode="&#xAE;" horiz-adv-x="448" d="M413 475Q413 402 357 351T219 299Q138 299 82 350T25 475Q25 549 82 600T219 652Q299 652 356 601T413 475ZM383 475Q383 536 335 579T220 622Q152 622 105 579T57 475Q57 414 104 371T220 328Q287 328 335 371T383 475ZM331 388Q331 380 329 378Q318 368 290 368Q271 368 265 376Q256 385 254 404Q253 419 252 434Q248 473 218 473H197V388H225V370H127V388H156V562H127V580H225Q257 580 277 566T298 526Q298 491 258 478Q283 470 291 450Q297 437 298 407Q299 384 309 384Q316 384 322 388H331ZM258 520V531Q258 562 225 562H197V491H225Q258 491 258 520Z"  />
<glyph unicode="&#xAF;" horiz-adv-x="454" d="M360 516H107V543H360V516Z"  />
<glyph unicode="&#xB0;" horiz-adv-x="231" d="M202 582Q202 552 178 531T121 510Q88 510 64 531T39 582Q39 612 63 633T121 654Q154 654 178 633T202 582ZM177 582Q177 603 161 617T121 631Q97 631 81 617T64 582Q64 562 80 548T121 533Q145 533 161 547T177 582Z"  />
<glyph unicode="&#xB1;" horiz-adv-x="410" d="M374 344H235V217H171V344H32V403H171V530H235V403H374V344ZM358 126H48V185H358V126Z"  />
<glyph unicode="&#xB2;" horiz-adv-x="306" d="M301 205H52L43 261Q83 299 164 376Q184 394 184 417Q184 464 130 464Q94 464 94 429Q94 418 96 411H16Q13 421 13 435Q13 519 119 519Q180 519 218 492Q262 461 262 403Q262 364 215 322Q196 307 177 291Q146 265 146 261Q146 259 148 259Q161 259 186 261T225 264H290L301 205Z"  />
<glyph unicode="&#xB3;" horiz-adv-x="306" d="M298 269Q298 196 177 196Q66 196 33 263Q24 282 24 298H111Q113 277 130 266T168 254Q207 254 207 281Q207 334 144 334Q134 334 123 332L113 387Q120 386 133 386Q182 386 182 417Q182 461 128 461Q91 461 91 428Q91 423 93 416H15Q10 427 10 445Q10 520 126 520Q244 520 262 423Q263 416 263 412Q263 382 229 366Q219 363 215 359Q228 357 255 348Q298 326 298 269Z"  />
<glyph unicode="&#xB4;" horiz-adv-x="404" d="M371 622L196 468L183 477L268 622H371Z"  />
<glyph unicode="&#xB6;" horiz-adv-x="664" d="M625 621H536V-104H471V621H392V-104H328V291H263Q163 291 101 334Q34 381 34 468Q34 555 101 602Q163 645 263 645H625V621Z"  />
<glyph unicode="&#xB8;" horiz-adv-x="359" d="M266 -101Q266 -125 246 -140T194 -156Q151 -156 123 -117Q118 -110 118 -104Q118 -96 126 -96Q131 -96 146 -108T179 -121Q215 -121 215 -93Q215 -69 180 -56L194 0H228L217 -45Q266 -61 266 -101Z"  />
<glyph unicode="&#xB9;" horiz-adv-x="306" d="M262 206H173L137 411Q113 386 67 377L53 453Q117 478 124 508H209L262 206Z"  />
<glyph unicode="&#xBA;" horiz-adv-x="327" d="M293 477Q293 434 259 396Q221 354 167 354Q113 354 75 396Q40 434 40 477Q40 520 75 557Q113 598 167 598Q221 598 259 557Q293 520 293 477ZM304 284H26V322H304V284ZM219 464V488Q219 533 214 549Q203 580 167 580Q131 580 120 549Q113 532 113 488V464Q113 419 119 402Q130 372 167 372Q203 372 214 403Q219 419 219 464Z"  />
<glyph unicode="&#xBB;" horiz-adv-x="426" d="M422 258L243 108H214L343 258L214 408H243L422 258ZM266 258L87 108H58L187 258L58 408H87L266 258Z"  />
<glyph unicode="&#xBC;" horiz-adv-x="739" d="M696 70H651L663 0H573L561 70H419L407 137L497 301H610L640 125H686L696 70ZM550 125Q541 178 535 230Q535 242 532 242Q531 241 528 235Q518 219 499 180Q477 136 477 128Q477 125 487 125Q497 125 518 125T550 125ZM252 206H163L127 411Q103 386 56 377L43 453Q106 478 113 508H199L252 206ZM451 609L343 -118H232L340 609H451Z"  />
<glyph unicode="&#xBD;" horiz-adv-x="739" d="M246 206H157L121 411Q97 386 50 377L37 453Q100 478 107 508H193L246 206ZM702 0H454L444 56Q485 94 566 170Q585 189 585 211Q585 259 532 259Q495 259 495 223Q495 213 498 206H418Q415 216 415 230Q415 313 521 313Q582 313 620 287Q663 256 663 197Q663 158 617 117Q598 101 579 85Q548 59 548 55Q548 54 550 54Q562 54 588 56T627 58H692L702 0ZM442 609L334 -118H223L331 609H442Z"  />
<glyph unicode="&#xBE;" horiz-adv-x="739" d="M297 269Q297 196 176 196Q66 196 33 263Q24 282 24 298H111Q112 277 129 266T168 254Q207 254 207 281Q207 334 143 334Q133 334 122 332L113 387Q119 386 132 386Q181 386 181 417Q181 461 128 461Q90 461 90 428Q90 423 92 416H15Q9 427 9 445Q9 520 126 520Q244 520 261 423Q263 416 263 412Q263 382 228 366Q218 363 215 359Q228 357 254 348Q297 326 297 269ZM730 70H684L696 0H606L594 70H452L440 137L530 301H643L674 125H719L730 70ZM584 125Q575 178 569 230Q569 242 566 242Q564 241 561 235Q551 219 533 180Q511 136 511 128Q511 125 520 125Q531 125 552 125T584 125ZM491 609L383 -118H272L380 609H491Z"  />
<glyph unicode="&#xBF;" horiz-adv-x="415" d="M292 448Q292 425 275 409T232 393Q207 393 190 409T172 448Q172 471 189 487T232 504Q257 504 274 488T292 448ZM369 -38Q369 -77 325 -105Q277 -134 202 -134Q125 -134 82 -99T38 2Q38 47 64 85Q81 110 124 148L170 189Q221 235 221 256Q221 282 220 290Q218 306 218 310Q218 321 231 321Q241 321 243 311Q256 249 256 212Q256 174 246 152Q230 117 196 85Q143 34 138 28Q101 -15 101 -46Q101 -72 124 -90Q151 -110 200 -110Q247 -110 275 -98Q295 -90 295 -85Q295 -85 294 -87Q247 -78 247 -37Q247 -14 264 1T309 16Q335 16 352 1T369 -38Z"  />
<glyph unicode="&#xD7;" horiz-adv-x="581" d="M549 57L493 6L290 192L89 6L33 57L234 243L33 427L89 479L290 293L493 479L549 427L347 243L549 57Z"  />
<glyph unicode="&#xF7;" horiz-adv-x="382" d="M255 385Q255 362 238 346T195 330Q170 330 153 346T135 385Q135 408 152 424T195 440Q220 440 237 424T255 385ZM336 225H53V283H336V225ZM255 116Q255 93 238 77T195 61Q170 61 153 77T135 116Q135 139 152 155T195 171Q220 171 237 155T255 116Z"  />
<glyph unicode="&#x192;" horiz-adv-x="500" d="M488 623Q488 585 455 585Q424 585 424 612Q424 619 429 629T435 642Q435 655 417 655Q379 655 367 602Q351 530 335 427H422L414 395H329Q303 260 245 49Q200 -116 145 -170Q104 -210 61 -210Q36 -210 19 -197T1 -159Q1 -116 39 -116Q50 -116 60 -124T70 -143Q70 -148 61 -164Q59 -168 59 -171Q59 -181 71 -181Q96 -181 118 -145Q131 -124 147 -59Q151 -43 189 144Q192 161 249 395H163L170 427Q206 430 214 431Q240 436 251 450Q264 468 281 516Q306 590 327 621Q365 677 421 677Q448 677 468 663T488 623Z"  />
<glyph unicode="&#x3BC;" horiz-adv-x="576" d="M534 100Q526 -14 438 -14Q368 -14 360 79Q281 -14 207 -14Q182 -14 162 -3Q148 5 131 28Q131 28 131 5Q131 -36 147 -111Q154 -144 154 -162Q154 -184 142 -200T108 -216Q65 -216 65 -163Q65 -144 82 -74Q88 -47 90 -31Q96 23 96 56V447H176V187Q176 117 185 90Q200 46 245 46Q302 46 360 112V447H441V128Q441 79 445 64Q452 39 474 39Q505 39 514 100H534Z"  />
<glyph unicode="&#x5B0;" horiz-adv-x="0" d="M126 -122Q126 -152 93 -152Q76 -152 62 -140T47 -110Q47 -80 80 -80Q97 -80 111 -92T126 -122ZM150 -217Q150 -247 117 -247Q100 -247 86 -235T71 -205Q71 -175 104 -175Q121 -175 135 -187T150 -217Z"  />
<glyph unicode="&#x5B1;" horiz-adv-x="0" d="M326 -122Q326 -152 293 -152Q276 -152 262 -140T247 -110Q247 -80 280 -80Q297 -80 311 -92T326 -122ZM350 -217Q350 -247 317 -247Q300 -247 286 -235T271 -205Q271 -175 304 -175Q321 -175 335 -187T350 -217ZM212 -122Q212 -152 179 -152Q162 -152 148 -140T133 -110Q133 -80 166 -80Q183 -80 197 -92T212 -122ZM94 -122Q94 -152 61 -152Q44 -152 30 -140T15 -110Q15 -80 48 -80Q65 -80 79 -92T94 -122ZM170 -213Q170 -243 137 -243Q120 -243 106 -231T91 -201Q91 -171 124 -171Q141 -171 155 -183T170 -213Z"  />
<glyph unicode="&#x5B2;" horiz-adv-x="0" d="M364 -122Q364 -152 331 -152Q314 -152 300 -140T285 -110Q285 -80 318 -80Q335 -80 349 -92T364 -122ZM388 -217Q388 -247 355 -247Q338 -247 324 -235T309 -205Q309 -175 342 -175Q359 -175 373 -187T388 -217ZM257 -143H31L18 -79H243L257 -143Z"  />
<glyph unicode="&#x5B3;" horiz-adv-x="0" d="M453 -122Q453 -152 420 -152Q403 -152 389 -140T374 -110Q374 -80 407 -80Q424 -80 438 -92T453 -122ZM477 -217Q477 -247 444 -247Q427 -247 413 -235T398 -205Q398 -175 431 -175Q448 -175 462 -187T477 -217ZM352 -142H270L293 -240H223L200 -142H126L112 -78H339L352 -142Z"  />
<glyph unicode="&#x5B4;" horiz-adv-x="0" d="M112 -122Q112 -152 79 -152Q62 -152 48 -140T33 -110Q33 -80 66 -80Q83 -80 97 -92T112 -122Z"  />
<glyph unicode="&#x5B5;" horiz-adv-x="0" d="M212 -122Q212 -152 179 -152Q162 -152 148 -140T133 -110Q133 -80 166 -80Q183 -80 197 -92T212 -122ZM94 -122Q94 -152 61 -152Q44 -152 30 -140T15 -110Q15 -80 48 -80Q65 -80 79 -92T94 -122Z"  />
<glyph unicode="&#x5B6;" horiz-adv-x="0" d="M222 -122Q222 -152 189 -152Q172 -152 158 -140T143 -110Q143 -80 176 -80Q193 -80 207 -92T222 -122ZM104 -122Q104 -152 71 -152Q54 -152 40 -140T25 -110Q25 -80 58 -80Q75 -80 89 -92T104 -122ZM180 -213Q180 -243 147 -243Q130 -243 116 -231T101 -201Q101 -171 134 -171Q151 -171 165 -183T180 -213Z"  />
<glyph unicode="&#x5B7;" horiz-adv-x="0" d="M257 -143H31L18 -79H243L257 -143Z"  />
<glyph unicode="&#x5B8;" horiz-adv-x="0" d="M275 -142H193L216 -240H146L123 -142H49L35 -78H262L275 -142Z"  />
<glyph unicode="&#x5B9;" horiz-adv-x="0" d="M49 596Q49 563 12 563Q-7 563 -22 577T-38 610Q-38 643 -2 643Q17 643 33 629T49 596Z"  />
<glyph unicode="&#x5BB;" horiz-adv-x="0" d="M94 -122Q94 -152 61 -152Q44 -152 30 -140T15 -110Q15 -80 48 -80Q65 -80 79 -92T94 -122ZM140 -208Q140 -238 107 -238Q90 -238 76 -226T61 -196Q61 -166 94 -166Q111 -166 125 -178T140 -208ZM194 -290Q194 -320 161 -320Q144 -320 130 -308T115 -278Q115 -248 148 -248Q165 -248 179 -260T194 -290Z"  />
<glyph unicode="&#x5BC;" horiz-adv-x="0" d="M273 240Q273 207 236 207Q217 207 201 221T185 254Q185 287 222 287Q241 287 257 273T273 240Z"  />
<glyph unicode="&#x5BD;" horiz-adv-x="0" d="M28 -229H0V-102H28V-229Z"  />
<glyph unicode="&#x5BE;" horiz-adv-x="352" d="M277 402H79L61 503H259L277 402Z"  />
<glyph unicode="&#x5BF;" horiz-adv-x="0" d="M364 552H139L125 615H351L364 552Z"  />
<glyph unicode="&#x5C0;" horiz-adv-x="168" d="M108 -130H60V617H108V-130Z"  />
<glyph unicode="&#x5C1;" horiz-adv-x="0" d="M656 596Q656 563 619 563Q600 563 585 577T569 610Q569 643 605 643Q624 643 640 629T656 596Z"  />
<glyph unicode="&#x5C2;" horiz-adv-x="0" d="M172 596Q172 563 135 563Q116 563 101 577T85 610Q85 643 121 643Q140 643 156 629T172 596Z"  />
<glyph unicode="&#x5C3;" horiz-adv-x="275" d="M166 315H29L7 437H144L166 315ZM222 0H85L63 122H200L222 0Z"  />
<glyph unicode="&#x5D0;" horiz-adv-x="599" d="M616 0H441L278 200Q266 216 254 232Q235 257 228 257Q221 257 221 237Q221 228 222 210T223 183Q223 170 223 170L213 0H72L115 379L-1 503H178L312 334Q323 318 333 303Q350 278 355 278Q361 278 361 311V342Q361 353 361 353L372 503H515L475 162L616 0Z"  />
<glyph unicode="&#x5D1;" horiz-adv-x="602" d="M615 0H108L91 100H271Q369 100 369 201Q369 232 364 259Q350 334 318 367Q281 402 207 402H31L13 503H235Q356 503 424 450T515 278Q521 247 521 221Q521 161 490 131Q487 128 472 118Q443 104 443 101Q443 96 457 96Q466 96 484 98T511 100H598L615 0Z"  />
<glyph unicode="&#x5D2;" horiz-adv-x="450" d="M438 0H302Q277 23 270 68Q265 97 259 97Q254 97 248 70Q245 54 242 37Q225 -15 165 -15Q91 -15 88 0L68 113Q100 97 132 97Q180 97 204 134Q225 165 225 215Q225 238 220 267Q208 340 189 367T132 400Q115 402 29 402L11 503H130Q250 503 301 446Q344 400 368 275L397 120Q413 39 438 0Z"  />
<glyph unicode="&#x5D3;" horiz-adv-x="570" d="M503 402H396L467 0H318L247 402H23L5 503H485L503 402Z"  />
<glyph unicode="&#x5D4;" horiz-adv-x="638" d="M604 0H455Q439 97 403 291Q389 359 367 379Q342 402 275 402H41L23 503H323Q430 503 482 453Q530 408 551 300Q569 200 604 0ZM261 0H112L62 279H211L261 0Z"  />
<glyph unicode="&#x5D5;" horiz-adv-x="272" d="M265 0H116L44 404Q32 469 13 503H157Q185 456 194 402L265 0Z"  />
<glyph unicode="&#x5D6;" horiz-adv-x="453" d="M358 402H339Q279 402 279 364Q279 353 288 302L341 0H192L145 267Q135 324 135 332Q135 387 197 402Q194 403 165 403Q80 403 38 402L20 503H340L358 402Z"  />
<glyph unicode="&#x5D7;" horiz-adv-x="621" d="M617 0H468L417 289Q405 356 391 374Q369 402 308 402H190L261 0H112L23 504L355 503Q447 503 493 464T557 335Q559 324 617 0Z"  />
<glyph unicode="&#x5D8;" horiz-adv-x="650" d="M588 156Q588 57 527 15Q476 -20 373 -20Q260 -20 183 24Q94 75 74 178Q64 229 16 503H165Q181 407 216 216Q242 83 354 83Q440 83 440 160Q440 178 432 236Q422 312 403 350Q373 412 313 412Q287 412 264 398L248 490Q288 519 348 519Q531 519 580 236Q588 189 588 156Z"  />
<glyph unicode="&#x5D9;" horiz-adv-x="267" d="M225 211H74L40 404Q29 465 -1 503H149Q179 475 191 404L225 211Z"  />
<glyph unicode="&#x5DA;" horiz-adv-x="479" d="M496 -194H347L262 289Q252 346 231 371Q205 403 152 403H-39L-56 503H175Q314 503 379 395Q397 366 402 335L496 -194Z"  />
<glyph unicode="&#x5DB;" horiz-adv-x="579" d="M530 206Q530 107 463 52Q400 0 300 0H113L95 99H261Q315 99 345 132T375 219Q375 291 327 347T207 403H41L24 503H211Q303 503 380 459T498 333Q530 269 530 206Z"  />
<glyph unicode="&#x5DC;" horiz-adv-x="502" d="M440 0H292L296 337Q296 403 230 403H117Q11 403 -9 502Q-18 558 -27 613Q-39 678 -61 721H83Q103 689 114 631Q120 597 126 563Q137 515 155 507Q164 503 198 503H327Q371 503 402 476T436 404Q438 378 438 272Q438 182 440 0Z"  />
<glyph unicode="&#x5DD;" horiz-adv-x="651" d="M632 0H111L22 503H345Q484 503 547 400Q566 369 572 335L632 0ZM465 100L432 289Q422 345 401 370Q375 402 323 402H189L242 100H465Z"  />
<glyph unicode="&#x5DE;" horiz-adv-x="660" d="M599 150Q599 -14 463 -14Q424 -14 371 0L354 98Q371 89 391 89Q448 89 448 179Q448 209 441 251Q428 331 412 362Q383 420 322 420Q221 420 221 302Q221 277 228 237L269 0H121L59 354Q36 484 21 503H146Q155 503 169 465Q180 436 184 416Q188 414 190 414Q192 414 198 427Q209 451 225 469Q268 518 342 518Q466 518 523 443Q564 387 589 251Q599 196 599 150Z"  />
<glyph unicode="&#x5DF;" horiz-adv-x="275" d="M288 -194H139L33 404Q24 453 -9 503H140Q169 478 182 404L288 -194Z"  />
<glyph unicode="&#x5E0;" horiz-adv-x="440" d="M415 0H102L84 99H248Q238 163 215 289Q202 357 182 378Q158 403 94 403Q76 403 37 402L20 503H160Q321 503 355 335Q357 327 415 0Z"  />
<glyph unicode="&#x5E1;" horiz-adv-x="662" d="M594 138Q594 38 518 12Q483 0 357 0H146L1 503H556Q569 395 592 179Q594 159 594 138ZM444 165Q444 232 418 403H181L266 99H387Q444 99 444 165Z"  />
<glyph unicode="&#x5E2;" horiz-adv-x="638" d="M586 151Q586 81 540 41T424 0H106L88 99H218L18 503H167L362 99Q394 99 413 118T433 169Q433 180 431 191L376 503H526Q546 398 582 190Q586 164 586 151Z"  />
<glyph unicode="&#x5E3;" horiz-adv-x="644" d="M633 -192H485L416 195Q397 297 373 341Q333 417 253 417Q176 417 176 327Q176 268 204 195H64Q12 236 12 333Q12 427 79 475Q138 518 235 518Q345 518 413 481Q490 440 528 344Q545 301 564 195L633 -192Z"  />
<glyph unicode="&#x5E4;" horiz-adv-x="621" d="M564 189Q564 0 339 0H167L149 100H281Q414 100 414 210Q414 225 410 250Q398 326 375 363Q341 417 277 417Q193 417 193 316Q193 256 220 208H83Q48 278 48 344Q48 432 112 477Q167 517 259 517Q397 517 468 451Q535 389 558 251Q564 216 564 189Z"  />
<glyph unicode="&#x5E5;" horiz-adv-x="567" d="M477 310Q477 196 366 107L419 -194H271L225 69L-53 503H94L226 289Q273 212 280 212Q288 212 309 245Q325 273 331 288Q342 317 342 338Q342 404 287 503H426Q477 403 477 310Z"  />
<glyph unicode="&#x5E6;" horiz-adv-x="619" d="M580 0H100L82 100H413Q182 293 4 503H159Q254 395 321 336L364 503H505L424 234L562 99L580 0Z"  />
<glyph unicode="&#x5E7;" horiz-adv-x="616" d="M567 155Q567 82 524 36T409 -11Q365 -11 326 -1L308 98Q336 94 370 94Q417 94 417 162Q417 177 414 194L377 403H12L-5 503H509L563 194Q567 171 567 155ZM294 -194H144L62 271H212L294 -194Z"  />
<glyph unicode="&#x5E8;" horiz-adv-x="546" d="M529 0H370Q355 96 320 287Q308 348 287 372Q260 403 203 403H29L12 503H238Q349 503 396 471Q449 435 471 330Q477 302 529 0Z"  />
<glyph unicode="&#x5E9;" horiz-adv-x="728" d="M449 165H313L254 503H390L449 165ZM682 131Q682 47 625 19Q587 0 493 0H146L0 503H149L265 100H460Q496 100 511 108Q532 118 532 151Q532 173 525 213L474 503H622L674 205Q682 159 682 131Z"  />
<glyph unicode="&#x5EA;" horiz-adv-x="726" d="M691 0H542L491 288Q479 358 462 377Q439 402 373 402H261L303 163Q314 100 314 70Q314 17 283 -1Q260 -15 203 -15Q102 -15 98 10L80 110Q106 93 129 93Q158 93 158 131Q158 141 155 158L94 503H403Q526 503 571 463T638 299L691 0Z"  />
<glyph unicode="&#x5F0;" horiz-adv-x="502" d="M495 0H346L274 404Q262 469 243 503H387Q415 456 424 402L495 0ZM265 0H116L44 404Q32 469 13 503H157Q185 456 194 402L265 0Z"  />
<glyph unicode="&#x5F1;" horiz-adv-x="502" d="M495 0H346L274 404Q262 469 243 503H387Q415 456 424 402L495 0ZM225 211H74L40 404Q29 465 -1 503H149Q179 475 191 404L225 211Z"  />
<glyph unicode="&#x5F2;" horiz-adv-x="497" d="M455 211H304L270 404Q259 465 229 503H379Q409 475 421 404L455 211ZM225 211H74L40 404Q29 465 -1 503H149Q179 475 191 404L225 211Z"  />
<glyph unicode="&#x5F3;" horiz-adv-x="283" d="M228 503L176 292H64L70 503H228Z"  />
<glyph unicode="&#x5F4;" horiz-adv-x="425" d="M446 503L394 292H282L288 503H446ZM228 503L176 292H64L70 503H228Z"  />
<glyph unicode="&#xF25;" horiz-adv-x="502" d="M440 0H292L296 337Q296 403 230 403H117Q11 403 -9 502Q-18 558 -27 613Q-39 678 -61 721H83Q103 689 114 631Q120 597 126 563Q137 515 155 507Q164 503 198 503H327Q371 503 402 476T436 404Q438 378 438 272Q438 182 440 0Z"  />
<glyph unicode="&#x200E;" horiz-adv-x="406" d="M375 448L211 296V404H141V0H55V490H211V600L375 448Z"  />
<glyph unicode="&#x200F;" horiz-adv-x="406" d="M351 0H265V404H195V296L31 448L195 600V490H351V0Z"  />
<glyph unicode="&#x2013;" horiz-adv-x="352" d="M277 402H79L61 503H259L277 402Z"  />
<glyph unicode="&#x2014;" horiz-adv-x="703" d="M678 202H78L61 300H661L678 202Z"  />
<glyph unicode="&#x2018;" horiz-adv-x="301" d="M218 292H106L54 503H212L218 292Z"  />
<glyph unicode="&#x2019;" horiz-adv-x="301" d="M228 503L176 292H64L70 503H228Z"  />
<glyph unicode="&#x201A;" horiz-adv-x="283" d="M216 44L164 -167H52L58 44H216Z"  />
<glyph unicode="&#x201C;" horiz-adv-x="503" d="M438 292H326L274 503H432L438 292ZM220 292H108L56 503H214L220 292Z"  />
<glyph unicode="&#x201D;" horiz-adv-x="503" d="M446 503L394 292H282L288 503H446ZM228 503L176 292H64L70 503H228Z"  />
<glyph unicode="&#x201E;" horiz-adv-x="503" d="M446 133L394 -78H282L288 133H446ZM228 133L176 -78H64L70 133H228Z"  />
<glyph unicode="&#x2020;" horiz-adv-x="271" d="M222 423H155V66H119V423H53V456H119V520Q119 531 110 552T101 585Q101 597 108 618T120 664T137 689Q149 689 154 664T166 618T173 585Q173 573 164 552T155 520V456H222V423Z"  />
<glyph unicode="&#x2021;" horiz-adv-x="271" d="M221 174H154V110Q154 99 163 78T172 45Q172 33 165 12T153 -33Q147 -60 136 -60Q125 -60 119 -33Q114 -9 107 12T100 45Q100 57 109 78T118 110V174H52V207H118V422H52V456H118V520Q118 531 109 551T100 584Q100 597 107 618T119 664T136 689Q148 689 153 664T165 618T172 584Q172 572 163 552T154 520V456H221V422H154V207H221V174Z"  />
<glyph unicode="&#x2022;" horiz-adv-x="471" d="M405 227Q405 163 355 117T234 71Q163 71 113 117T62 227Q62 291 112 336T234 382Q305 382 355 337T405 227Z"  />
<glyph unicode="&#x2026;" horiz-adv-x="660" d="M594 0H457L435 122H572L594 0ZM394 0H257L235 122H372L394 0ZM194 0H57L35 122H172L194 0Z"  />
<glyph unicode="&#x2030;" horiz-adv-x="1138" d="M1096 179Q1096 101 1055 48Q1010 -11 930 -11Q847 -11 798 49Q755 102 755 179Q755 254 798 307Q845 365 926 365Q1007 365 1054 306Q1096 254 1096 179ZM736 179Q736 101 695 48Q650 -11 570 -11Q487 -11 438 49Q394 103 394 179Q394 254 437 307Q484 365 565 365Q647 365 694 306Q736 254 736 179ZM638 656L173 -4H126L591 656H638ZM372 469Q372 391 331 339Q286 280 206 280Q123 280 74 339Q31 393 31 469Q31 545 74 597Q121 656 202 656Q283 656 330 597Q372 544 372 469ZM1001 167V190Q1001 269 990 299Q975 344 926 344Q877 344 861 299Q850 269 850 190V167Q850 85 861 56Q877 11 930 11Q976 11 991 54Q1001 85 1001 167ZM640 167V190Q640 269 629 299Q614 344 565 344Q516 344 500 299Q490 269 490 190V167Q490 85 501 56Q517 11 570 11Q616 11 630 54Q640 84 640 167ZM277 458V481Q277 560 266 590Q251 634 202 634Q153 634 137 589Q126 559 126 481V458Q126 376 137 346Q153 301 206 301Q252 301 267 345Q277 375 277 458Z"  />
<glyph unicode="&#x2039;" horiz-adv-x="271" d="M238 108H208L29 258L208 408H238L109 258L238 108Z"  />
<glyph unicode="&#x203A;" horiz-adv-x="271" d="M243 258L63 108H35L164 258L35 408H63L243 258Z"  />
<glyph unicode="&#x20AA;" horiz-adv-x="1044" d="M977 127Q977 45 923 18Q887 0 795 0H385L299 311H434L492 99H784Q841 99 841 144Q841 168 833 213L782 503H917L969 204Q977 158 977 127ZM723 188H587L569 289Q557 358 547 373Q528 402 468 402H175L246 0H111L23 503H496Q587 503 633 464T697 335Q706 286 723 188Z"  />
<glyph unicode="&#x20AC;" horiz-adv-x="615" d="M589 52Q509 -16 403 -16Q307 -16 231 41T127 191H29L63 251H117Q116 271 116 271Q116 278 117 294H29L63 354H128Q157 445 232 501T403 558Q509 558 589 490L558 437Q493 498 403 498Q334 498 278 459T192 354H512L476 294H177Q176 282 176 271Q176 266 177 251H452L417 191H190Q218 124 275 84T403 44Q493 44 558 105L572 79Q575 74 589 52Z"  />
<glyph unicode="&#x2122;" horiz-adv-x="510" d="M467 464H371V480H399V596L351 464H339L286 589V480H315V464H238V480H266V628H238V645H301L353 522L399 645H467V628H440V480H467V464ZM216 600H199Q198 607 196 612Q190 628 169 628H147V480H175V464H78V480H105V628H82Q56 628 52 600H35L40 645H212L216 600Z"  />
<glyph unicode="&#x2153;" horiz-adv-x="739" d="M238 206H149L113 411Q89 386 42 377L29 453Q92 478 99 508H185L238 206ZM710 62Q710 -12 589 -12Q479 -12 446 56Q437 74 437 90H524Q525 69 542 58T581 47Q620 47 620 74Q620 127 556 127Q546 127 535 125L525 179Q532 178 545 178Q594 178 594 209Q594 253 540 253Q503 253 503 221Q503 215 505 209H428Q422 220 422 237Q422 313 539 313Q657 313 674 215Q675 209 675 204Q675 174 641 158Q631 155 627 151Q641 149 667 140Q710 118 710 62ZM439 609L331 -118H220L328 609H439Z"  />
<glyph unicode="&#x2154;" horiz-adv-x="739" d="M293 205H45L35 261Q76 299 157 376Q176 394 176 417Q176 464 123 464Q86 464 86 429Q86 418 89 411H9Q6 421 6 435Q6 519 112 519Q173 519 211 492Q254 461 254 403Q254 364 208 322Q189 307 170 291Q139 265 139 261Q139 259 141 259Q153 259 179 261T218 264H283L293 205ZM733 62Q733 -12 612 -12Q501 -12 468 56Q459 74 459 90H546Q548 69 565 58T603 47Q642 47 642 74Q642 127 579 127Q569 127 558 125L548 179Q555 178 568 178Q617 178 617 209Q617 253 563 253Q526 253 526 221Q526 215 528 209H450Q445 220 445 237Q445 313 561 313Q679 313 697 215Q698 209 698 204Q698 174 664 158Q654 155 650 151Q664 149 690 140Q733 118 733 62ZM486 609L378 -118H267L375 609H486Z"  />
<glyph unicode="&#x2212;" horiz-adv-x="277" d="M277 231H4V262H277V231Z"  />
<glyph unicode="&#x2219;" horiz-adv-x="231" d="M172 309Q172 287 155 272T112 257Q87 257 70 272T52 309Q52 331 69 346T112 361Q137 361 154 346T172 309Z"  />
<glyph unicode="&#xE802;" horiz-adv-x="479" d="M496 -194H347L262 289Q252 346 231 371Q205 403 152 403H-39L-56 503H175Q314 503 379 395Q397 366 402 335L496 -194ZM154 247Q154 217 121 217Q104 217 90 229T75 259Q75 289 108 289Q125 289 139 277T154 247ZM178 152Q178 122 145 122Q128 122 114 134T99 164Q99 194 132 194Q149 194 163 182T178 152Z"  />
<glyph unicode="&#xE803;" horiz-adv-x="479" d="M496 -194H347L262 289Q252 346 231 371Q205 403 152 403H-39L-56 503H175Q314 503 379 395Q397 366 402 335L496 -194ZM244 173H162L185 75H115L92 173H18L4 237H231L244 173Z"  />
<glyph unicode="&#xE804;" horiz-adv-x="502" d="M440 0H292L296 337Q296 403 230 403H117Q11 403 -9 502Q-18 558 -27 613Q-39 678 -61 721H83Q103 689 114 631Q120 597 126 563Q137 515 155 507Q164 503 198 503H327Q371 503 402 476T436 404Q438 378 438 272Q438 182 440 0ZM-60 596Q-60 563 -97 563Q-116 563 -131 577T-147 610Q-147 643 -111 643Q-92 643 -76 629T-60 596Z"  />
<glyph unicode="&#xE805;" horiz-adv-x="502" d="M440 0H292L296 337Q296 403 230 403H117Q11 403 -9 502Q-18 558 -27 613Q-39 678 -61 721H83Q103 689 114 631Q120 597 126 563Q137 515 155 507Q164 503 198 503H327Q371 503 402 476T436 404Q438 378 438 272Q438 182 440 0ZM-60 596Q-60 563 -97 563Q-116 563 -131 577T-147 610Q-147 643 -111 643Q-92 643 -76 629T-60 596ZM224 240Q224 207 187 207Q168 207 152 221T136 254Q136 287 173 287Q192 287 208 273T224 240Z"  />
<glyph unicode="&#xFB1F;" horiz-adv-x="537" d="M455 211H304L270 404Q259 465 229 503H379Q409 475 421 404L455 211ZM225 211H74L40 404Q29 465 -1 503H149Q179 475 191 404L225 211ZM495 0H109L96 64H481L495 0Z"  />
<glyph unicode="&#xFB20;" horiz-adv-x="638" d="M586 151Q586 81 540 41T424 0H106L88 99H218L18 503H167L362 99Q394 99 413 118T433 169Q433 180 431 191L376 503H526Q546 398 582 190Q586 164 586 151Z"  />
<glyph unicode="&#xFB21;" horiz-adv-x="638" d="M604 0H455Q439 97 403 291Q389 359 367 379Q342 402 275 402H41L23 503H323Q430 503 482 453Q530 408 551 300Q569 200 604 0ZM261 0H112L62 279H211L261 0Z"  />
<glyph unicode="&#xFB22;" horiz-adv-x="570" d="M503 402H396L467 0H318L247 402H23L5 503H485L503 402Z"  />
<glyph unicode="&#xFB24;" horiz-adv-x="579" d="M530 206Q530 107 463 52Q400 0 300 0H113L95 99H261Q315 99 345 132T375 219Q375 291 327 347T207 403H41L24 503H211Q303 503 380 459T498 333Q530 269 530 206Z"  />
<glyph unicode="&#xFB26;" horiz-adv-x="651" d="M632 0H111L22 503H345Q484 503 547 400Q566 369 572 335L632 0ZM465 100L432 289Q422 345 401 370Q375 402 323 402H189L242 100H465Z"  />
<glyph unicode="&#xFB27;" horiz-adv-x="546" d="M529 0H370Q355 96 320 287Q308 348 287 372Q260 403 203 403H29L12 503H238Q349 503 396 471Q449 435 471 330Q477 302 529 0Z"  />
<glyph unicode="&#xFB28;" horiz-adv-x="726" d="M691 0H542L491 288Q479 358 462 377Q439 402 373 402H261L303 163Q314 100 314 70Q314 17 283 -1Q260 -15 203 -15Q102 -15 98 10L80 110Q106 93 129 93Q158 93 158 131Q158 141 155 158L94 503H403Q526 503 571 463T638 299L691 0Z"  />
<glyph unicode="&#xFB2A;" horiz-adv-x="728" d="M449 165H313L254 503H390L449 165ZM682 131Q682 47 625 19Q587 0 493 0H146L0 503H149L265 100H460Q496 100 511 108Q532 118 532 151Q532 173 525 213L474 503H622L674 205Q682 159 682 131ZM579 596Q579 563 542 563Q523 563 508 577T492 610Q492 643 528 643Q547 643 563 629T579 596Z"  />
<glyph unicode="&#xFB2B;" horiz-adv-x="728" d="M449 165H313L254 503H390L449 165ZM682 131Q682 47 625 19Q587 0 493 0H146L0 503H149L265 100H460Q496 100 511 108Q532 118 532 151Q532 173 525 213L474 503H622L674 205Q682 159 682 131ZM89 596Q89 563 52 563Q33 563 18 577T2 610Q2 643 38 643Q57 643 73 629T89 596Z"  />
<glyph unicode="&#xFB2C;" horiz-adv-x="728" d="M449 165H313L254 503H390L449 165ZM682 131Q682 47 625 19Q587 0 493 0H146L0 503H149L265 100H460Q496 100 511 108Q532 118 532 151Q532 173 525 213L474 503H622L674 205Q682 159 682 131ZM579 596Q579 563 542 563Q523 563 508 577T492 610Q492 643 528 643Q547 643 563 629T579 596ZM511 250Q511 224 482 224Q466 224 454 235T441 261Q441 288 471 288Q486 288 498 277T511 250Z"  />
<glyph unicode="&#xFB2D;" horiz-adv-x="728" d="M449 165H313L254 503H390L449 165ZM682 131Q682 47 625 19Q587 0 493 0H146L0 503H149L265 100H460Q496 100 511 108Q532 118 532 151Q532 173 525 213L474 503H622L674 205Q682 159 682 131ZM89 596Q89 563 52 563Q33 563 18 577T2 610Q2 643 38 643Q57 643 73 629T89 596ZM511 250Q511 224 482 224Q466 224 454 235T441 261Q441 288 471 288Q486 288 498 277T511 250Z"  />
<glyph unicode="&#xFB2E;" horiz-adv-x="599" d="M616 0H441L278 200Q266 216 254 232Q235 257 228 257Q221 257 221 237Q221 228 222 210T223 183Q223 170 223 170L213 0H72L115 379L-1 503H178L312 334Q323 318 333 303Q350 278 355 278Q361 278 361 311V342Q361 353 361 353L372 503H515L475 162L616 0ZM447 -143H221L208 -79H433L447 -143Z"  />
<glyph unicode="&#xFB2F;" horiz-adv-x="599" d="M616 0H441L278 200Q266 216 254 232Q235 257 228 257Q221 257 221 237Q221 228 222 210T223 183Q223 170 223 170L213 0H72L115 379L-1 503H178L312 334Q323 318 333 303Q350 278 355 278Q361 278 361 311V342Q361 353 361 353L372 503H515L475 162L616 0ZM445 -142H363L386 -240H316L293 -142H219L205 -78H432L445 -142Z"  />
<glyph unicode="&#xFB30;" horiz-adv-x="599" d="M616 0H441L278 200Q266 216 254 232Q235 257 228 257Q221 257 221 237Q221 228 222 210T223 183Q223 170 223 170L213 0H72L115 379L-1 503H178L312 334Q323 318 333 303Q350 278 355 278Q361 278 361 311V342Q361 353 361 353L372 503H515L475 162L616 0ZM352 -122Q352 -152 319 -152Q302 -152 288 -140T273 -110Q273 -80 306 -80Q323 -80 337 -92T352 -122Z"  />
<glyph unicode="&#xFB31;" horiz-adv-x="602" d="M615 0H108L91 100H271Q369 100 369 201Q369 232 364 259Q350 334 318 367Q281 402 207 402H31L13 503H235Q356 503 424 450T515 278Q521 247 521 221Q521 161 490 131Q487 128 472 118Q443 104 443 101Q443 96 457 96Q466 96 484 98T511 100H598L615 0ZM264 240Q264 207 227 207Q208 207 192 221T176 254Q176 287 213 287Q232 287 248 273T264 240Z"  />
<glyph unicode="&#xFB32;" horiz-adv-x="450" d="M438 0H302Q277 23 270 68Q265 97 259 97Q254 97 248 70Q245 54 242 37Q225 -15 165 -15Q91 -15 88 0L68 113Q100 97 132 97Q180 97 204 134Q225 165 225 215Q225 238 220 267Q208 340 189 367T132 400Q115 402 29 402L11 503H130Q250 503 301 446Q344 400 368 275L397 120Q413 39 438 0ZM184 240Q184 207 147 207Q128 207 112 221T96 254Q96 287 133 287Q152 287 168 273T184 240Z"  />
<glyph unicode="&#xFB33;" horiz-adv-x="570" d="M503 402H396L467 0H318L247 402H23L5 503H485L503 402ZM214 240Q214 207 177 207Q158 207 142 221T126 254Q126 287 163 287Q182 287 198 273T214 240Z"  />
<glyph unicode="&#xFB34;" horiz-adv-x="638" d="M604 0H455Q439 97 403 291Q389 359 367 379Q342 402 275 402H41L23 503H323Q430 503 482 453Q530 408 551 300Q569 200 604 0ZM261 0H112L62 279H211L261 0ZM363 240Q363 207 326 207Q307 207 291 221T275 254Q275 287 312 287Q331 287 347 273T363 240Z"  />
<glyph unicode="&#xFB35;" horiz-adv-x="272" d="M265 0H116L44 404Q32 469 13 503H157Q185 456 194 402L265 0ZM44 240Q44 207 7 207Q-12 207 -28 221T-44 254Q-44 287 -7 287Q12 287 28 273T44 240Z"  />
<glyph unicode="&#xFB36;" horiz-adv-x="453" d="M358 402H339Q279 402 279 364Q279 353 288 302L341 0H192L145 267Q135 324 135 332Q135 387 197 402Q194 403 165 403Q80 403 38 402L20 503H340L358 402ZM124 240Q124 207 87 207Q68 207 52 221T36 254Q36 287 73 287Q92 287 108 273T124 240Z"  />
<glyph unicode="&#xFB38;" horiz-adv-x="650" d="M588 156Q588 57 527 15Q476 -20 373 -20Q260 -20 183 24Q94 75 74 178Q64 229 16 503H165Q181 407 216 216Q242 83 354 83Q440 83 440 160Q440 178 432 236Q422 312 403 350Q373 412 313 412Q287 412 264 398L248 490Q288 519 348 519Q531 519 580 236Q588 189 588 156ZM363 240Q363 207 326 207Q307 207 291 221T275 254Q275 287 312 287Q331 287 347 273T363 240Z"  />
<glyph unicode="&#xFB39;" horiz-adv-x="267" d="M225 211H74L40 404Q29 465 -1 503H149Q179 475 191 404L225 211ZM44 270Q44 237 7 237Q-12 237 -28 251T-44 284Q-44 317 -7 317Q12 317 28 303T44 270Z"  />
<glyph unicode="&#xFB3A;" horiz-adv-x="479" d="M496 -194H347L262 289Q252 346 231 371Q205 403 152 403H-39L-56 503H175Q314 503 379 395Q397 366 402 335L496 -194ZM174 240Q174 207 137 207Q118 207 102 221T86 254Q86 287 123 287Q142 287 158 273T174 240Z"  />
<glyph unicode="&#xFB3B;" horiz-adv-x="579" d="M530 206Q530 107 463 52Q400 0 300 0H113L95 99H261Q315 99 345 132T375 219Q375 291 327 347T207 403H41L24 503H211Q303 503 380 459T498 333Q530 269 530 206ZM244 240Q244 207 207 207Q188 207 172 221T156 254Q156 287 193 287Q212 287 228 273T244 240Z"  />
<glyph unicode="&#xFB3C;" horiz-adv-x="502" d="M440 0H292L296 337Q296 403 230 403H117Q11 403 -9 502Q-18 558 -27 613Q-39 678 -61 721H83Q103 689 114 631Q120 597 126 563Q137 515 155 507Q164 503 198 503H327Q371 503 402 476T436 404Q438 378 438 272Q438 182 440 0ZM214 240Q214 207 177 207Q158 207 142 221T126 254Q126 287 163 287Q182 287 198 273T214 240Z"  />
<glyph unicode="&#xFB3E;" horiz-adv-x="660" d="M599 150Q599 -14 463 -14Q424 -14 371 0L354 98Q371 89 391 89Q448 89 448 179Q448 209 441 251Q428 331 412 362Q383 420 322 420Q221 420 221 302Q221 277 228 237L269 0H121L59 354Q36 484 21 503H146Q155 503 169 465Q180 436 184 416Q188 414 190 414Q192 414 198 427Q209 451 225 469Q268 518 342 518Q466 518 523 443Q564 387 589 251Q599 196 599 150ZM383 240Q383 207 346 207Q327 207 311 221T295 254Q295 287 332 287Q351 287 367 273T383 240Z"  />
<glyph unicode="&#xFB40;" horiz-adv-x="440" d="M415 0H102L84 99H248Q238 163 215 289Q202 357 182 378Q158 403 94 403Q76 403 37 402L20 503H160Q321 503 355 335Q357 327 415 0ZM184 240Q184 207 147 207Q128 207 112 221T96 254Q96 287 133 287Q152 287 168 273T184 240Z"  />
<glyph unicode="&#xFB41;" horiz-adv-x="662" d="M594 138Q594 38 518 12Q483 0 357 0H146L1 503H556Q569 395 592 179Q594 159 594 138ZM444 165Q444 232 418 403H181L266 99H387Q444 99 444 165ZM383 240Q383 207 346 207Q327 207 311 221T295 254Q295 287 332 287Q351 287 367 273T383 240Z"  />
<glyph unicode="&#xFB44;" horiz-adv-x="621" d="M564 189Q564 0 339 0H167L149 100H281Q414 100 414 210Q414 225 410 250Q398 326 375 363Q341 417 277 417Q193 417 193 316Q193 256 220 208H83Q48 278 48 344Q48 432 112 477Q167 517 259 517Q397 517 468 451Q535 389 558 251Q564 216 564 189ZM353 240Q353 207 316 207Q297 207 281 221T265 254Q265 287 302 287Q321 287 337 273T353 240Z"  />
<glyph unicode="&#xFB46;" horiz-adv-x="619" d="M580 0H100L82 100H413Q182 293 4 503H159Q254 395 321 336L364 503H505L424 234L562 99L580 0ZM244 161Q244 128 207 128Q188 128 172 142T156 175Q156 208 193 208Q212 208 228 194T244 161Z"  />
<glyph unicode="&#xFB47;" horiz-adv-x="616" d="M567 155Q567 82 524 36T409 -11Q365 -11 326 -1L308 98Q336 94 370 94Q417 94 417 162Q417 177 414 194L377 403H12L-5 503H509L563 194Q567 171 567 155ZM294 -194H144L62 271H212L294 -194ZM363 240Q363 207 326 207Q307 207 291 221T275 254Q275 287 312 287Q331 287 347 273T363 240Z"  />
<glyph unicode="&#xFB48;" horiz-adv-x="546" d="M529 0H370Q355 96 320 287Q308 348 287 372Q260 403 203 403H29L12 503H238Q349 503 396 471Q449 435 471 330Q477 302 529 0ZM234 240Q234 207 197 207Q178 207 162 221T146 254Q146 287 183 287Q202 287 218 273T234 240Z"  />
<glyph unicode="&#xFB49;" horiz-adv-x="728" d="M449 165H313L254 503H390L449 165ZM682 131Q682 47 625 19Q587 0 493 0H146L0 503H149L265 100H460Q496 100 511 108Q532 118 532 151Q532 173 525 213L474 503H622L674 205Q682 159 682 131ZM511 250Q511 224 482 224Q466 224 454 235T441 261Q441 288 471 288Q486 288 498 277T511 250Z"  />
<glyph unicode="&#xFB4A;" horiz-adv-x="726" d="M691 0H542L491 288Q479 358 462 377Q439 402 373 402H261L303 163Q314 100 314 70Q314 17 283 -1Q260 -15 203 -15Q102 -15 98 10L80 110Q106 93 129 93Q158 93 158 131Q158 141 155 158L94 503H403Q526 503 571 463T638 299L691 0ZM433 240Q433 207 396 207Q377 207 361 221T345 254Q345 287 382 287Q401 287 417 273T433 240Z"  />
<glyph unicode="&#xFB4B;" horiz-adv-x="272" d="M265 0H116L44 404Q32 469 13 503H157Q185 456 194 402L265 0ZM109 596Q109 563 72 563Q53 563 38 577T22 610Q22 643 58 643Q77 643 93 629T109 596Z"  />
<glyph unicode="&#xFB4C;" horiz-adv-x="602" d="M615 0H108L91 100H271Q369 100 369 201Q369 232 364 259Q350 334 318 367Q281 402 207 402H31L13 503H235Q356 503 424 450T515 278Q521 247 521 221Q521 161 490 131Q487 128 472 118Q443 104 443 101Q443 96 457 96Q466 96 484 98T511 100H598L615 0ZM364 552H139L125 615H351L364 552Z"  />
<glyph unicode="&#xFB4D;" horiz-adv-x="579" d="M530 206Q530 107 463 52Q400 0 300 0H113L95 99H261Q315 99 345 132T375 219Q375 291 327 347T207 403H41L24 503H211Q303 503 380 459T498 333Q530 269 530 206ZM364 552H139L125 615H351L364 552Z"  />
<glyph unicode="&#xFB4E;" horiz-adv-x="621" d="M564 189Q564 0 339 0H167L149 100H281Q414 100 414 210Q414 225 410 250Q398 326 375 363Q341 417 277 417Q193 417 193 316Q193 256 220 208H83Q48 278 48 344Q48 432 112 477Q167 517 259 517Q397 517 468 451Q535 389 558 251Q564 216 564 189ZM384 552H159L145 615H371L384 552Z"  />
<glyph unicode="&#xFB4F;" horiz-adv-x="470" d="M435 62Q435 22 399 -8L181 254Q137 215 137 189Q137 174 162 133L201 69L182 0H62V33L99 45Q74 135 74 156Q74 217 159 281L100 352Q45 352 28 377Q14 396 14 455Q14 529 40 573Q36 579 7 597Q-14 611 -14 629Q-14 683 23 703V699Q23 686 70 665Q102 650 102 629Q102 620 82 576T62 503Q62 458 115 458H129L298 255Q300 275 356 356Q345 355 345 355Q276 355 276 440Q276 484 316 496Q324 458 347 458H383Q432 458 432 390Q432 383 427 357H396L354 287Q337 259 326 221L406 124Q435 89 435 62Z"  />


</font>
</defs>
</svg>
