<?xml  version="1.0" encoding="UTF-8"?>
<!DOCTYPE svg PUBLIC "-//W3C//DTD SVG 1.0//EN" "http://www.w3.org/TR/2001/REC-SVG-20010904/DTD/svg10.dtd" >
<svg xmlns="http://www.w3.org/2000/svg" >
<metadata>
<version>1.0</version>
<id><![CDATA[Oron W26 Extended Regular]]></id>
<vendor>Monotype Imaging Inc.</vendor>
<credits>
<name>Fonts.com WebFonts</name>
<URL>http://webfonts.fonts.com</URL>
<role>Home of the Web fonts</role>
</credits>
<license>
<URL>http://webfonts.fonts.com/Legal</URL>
</license>
<copyright><![CDATA[Masterfont Studio Rosenberg 2003 (C) version 1.0]]></copyright>
<trademark></trademark>
<licensee>
<name></name>
</licensee>
</metadata>
<defs >
<font horiz-adv-x="546" id="eb22ca9e-117e-4043-b49a-0a73611d0f4d">
<font-face font-family="" panose-1="0 0 4 0 0 0 0 0 0 0" ascent="749" descent="-333" units-per-em="1000" alphabetic="0">
</font-face>
<missing-glyph horiz-adv-x="500" d="M63 0V720H438V0H63ZM125 63H375V658H125V63Z"  />

<glyph unicode="&#xA;" />
<glyph unicode="&#xD;" />
<glyph unicode=" " horiz-adv-x="250" />
<glyph unicode="!" horiz-adv-x="249" d="M150 641L129 167H64L43 641H150ZM150 0H43V100H150V0Z"  />
<glyph unicode="&quot;" horiz-adv-x="425" d="M368 502L278 292H209L253 502H368ZM214 502L123 292H55L99 502H214Z"  />
<glyph unicode="#" horiz-adv-x="526" d="M476 382L468 332H387L360 182H441L432 132H351L328 0H278L301 132H181L158 0H108L131 132H50L59 182H140L167 332H86L94 382H175L197 503H247L225 382H345L367 503H417L395 382H476ZM337 332H217L190 182H310L337 332Z"  />
<glyph unicode="$" horiz-adv-x="651" d="M558 146Q558 19 348 -3V-69H269V-5Q186 -1 129 33Q63 73 63 139H168Q174 90 217 65Q253 44 304 44Q360 44 399 62Q454 86 454 141Q454 185 388 205Q374 209 257 231Q171 247 130 271Q76 304 76 365Q76 425 139 464Q192 497 269 505V569H348V506Q425 502 478 471Q541 435 542 375V373H438Q435 458 304 458Q255 458 223 440Q180 417 180 368Q180 326 248 306Q284 299 339 287Q367 281 422 267Q488 250 517 229Q558 199 558 146Z"  />
<glyph unicode="%" horiz-adv-x="813" d="M763 116Q763 -15 608 -15Q453 -15 453 116Q453 247 608 247Q763 247 763 116ZM673 562L201 -60H139L610 562H673ZM361 389Q361 258 206 258Q51 258 51 389Q51 520 206 520Q361 520 361 389ZM688 116Q688 203 608 203Q527 203 527 116Q527 29 608 29Q688 29 688 116ZM286 389Q286 476 206 476Q124 476 124 389Q124 302 206 302Q286 302 286 389Z"  />
<glyph unicode="&apos;" horiz-adv-x="271" d="M214 502L123 292H55L99 502H214Z"  />
<glyph unicode="(" horiz-adv-x="476" d="M294 -50H190Q139 32 118 93Q93 166 93 252Q93 413 187 555H293Q212 446 212 252Q212 163 231 95Q249 31 294 -50Z"  />
<glyph unicode=")" horiz-adv-x="475" d="M384 252Q384 165 360 93Q339 30 288 -50H184Q230 31 247 97T265 256Q265 450 185 555H290Q384 415 384 252Z"  />
<glyph unicode="*" horiz-adv-x="487" d="M446 596Q439 593 406 586Q387 582 314 566Q304 574 299 587Q303 591 397 664Q434 634 446 596ZM291 712Q290 703 258 606Q246 600 229 606Q226 616 219 637Q218 640 195 712Q228 720 244 720Q260 720 291 712ZM448 498Q433 457 398 429Q389 435 300 507Q300 519 315 527Q320 527 354 519Q368 516 448 498ZM187 586Q184 577 172 566Q157 569 128 576L41 595Q52 633 89 664L187 586ZM294 381Q261 374 243 374Q226 374 195 380Q197 389 205 415Q216 451 229 488Q243 491 259 488Q259 488 270 454L294 381ZM187 507Q185 505 155 481L91 430Q53 459 41 498Q45 499 174 527Q181 521 187 507Z"  />
<glyph unicode="+" horiz-adv-x="666" d="M580 218H373V51H293V218H86V283H293V450H373V283H580V218Z"  />
<glyph unicode="&#x2c;" horiz-adv-x="245" d="M183 127L93 -86H24L67 127H183Z"  />
<glyph unicode="-" horiz-adv-x="666" d="M580 218H86V283H580V218Z"  />
<glyph unicode="." horiz-adv-x="244" d="M163 0H56V100H163V0Z"  />
<glyph unicode="/" horiz-adv-x="305" d="M304 621L67 -119H1L238 621H304Z"  />
<glyph unicode="0" horiz-adv-x="641" d="M601 251Q601 119 528 52T321 -15Q190 -15 117 49Q41 117 41 246Q41 379 114 448T321 517Q454 517 526 451Q601 382 601 251ZM507 251Q507 346 460 398T321 451Q139 451 139 251Q139 157 183 106Q230 51 321 51Q413 51 461 105Q507 156 507 251Z"  />
<glyph unicode="1" horiz-adv-x="641" d="M403 0H308V395Q250 354 146 329V413Q291 453 314 502H403V0Z"  />
<glyph unicode="2" horiz-adv-x="641" d="M554 0H72V93Q312 188 404 271Q458 320 458 363Q458 424 412 442Q386 452 312 452Q171 452 171 336V325H73V335Q73 519 309 519Q424 519 479 491Q554 452 554 350Q554 294 490 239Q455 209 366 160Q285 115 181 66H554V0Z"  />
<glyph unicode="3" horiz-adv-x="641" d="M568 128Q568 45 471 9Q406 -15 305 -15Q206 -15 138 12Q42 51 42 136Q42 145 43 150H140Q139 51 306 51Q385 51 416 61Q476 80 476 141Q476 188 396 208Q342 222 278 220V284Q333 284 385 303Q454 329 454 373Q454 406 444 421Q425 450 318 450Q160 450 160 360V348H67Q66 351 65 360T64 370Q64 454 156 492Q222 520 319 520Q423 520 475 494Q548 458 548 366Q548 303 470 272Q417 251 417 253Q417 253 443 250Q568 233 568 128Z"  />
<glyph unicode="4" horiz-adv-x="641" d="M580 131H486V0H388V131H66V203L363 502H486V197H580V131ZM388 197V430L155 197H388Z"  />
<glyph unicode="5" horiz-adv-x="641" d="M575 159Q575 117 551 81Q486 -15 316 -15Q225 -15 161 7Q66 40 66 114H167Q167 77 229 59Q272 47 324 47Q383 47 426 74Q478 105 478 160Q478 268 330 268Q226 268 178 226Q163 212 162 202H76L99 502H538V436H191L177 287Q194 309 254 321Q298 330 340 330Q438 330 499 294Q575 250 575 159Z"  />
<glyph unicode="6" horiz-adv-x="641" d="M595 167Q595 122 570 84Q506 -14 340 -14Q193 -14 124 45Q50 108 50 250Q50 381 129 451Q205 518 340 518Q528 518 576 430Q588 408 588 383H487Q487 422 429 440Q388 452 336 452Q247 452 197 399T147 256Q155 269 174 285Q237 337 339 337Q440 337 508 303Q595 259 595 167ZM499 167Q499 227 446 255Q405 277 339 277Q274 277 226 254Q164 225 164 167Q164 108 225 77Q275 51 339 51Q397 51 444 80Q499 113 499 167Z"  />
<glyph unicode="7" horiz-adv-x="641" d="M533 422L346 0H242L434 436H73V503H533V422Z"  />
<glyph unicode="8" horiz-adv-x="642" d="M587 143Q587 53 488 13Q418 -15 312 -15Q56 -15 56 145Q56 216 154 250Q163 253 202 263Q213 266 213 267Q213 267 202 269L190 271Q67 291 67 376Q67 455 156 492Q220 519 312 519Q409 519 473 494Q565 458 565 376Q565 306 470 280Q459 277 424 271Q413 269 413 268Q415 267 423 265L433 263Q449 260 481 252Q587 219 587 143ZM484 374Q484 421 418 447Q369 466 312 466Q258 466 211 446Q149 420 149 375Q149 337 214 315Q264 299 312 299Q364 299 414 314Q484 335 484 374ZM494 138Q494 188 424 215Q371 236 312 236Q259 236 210 214Q149 186 149 139Q149 108 181 83Q207 63 242 53Q274 44 312 44Q371 44 423 63Q494 89 494 138Z"  />
<glyph unicode="9" horiz-adv-x="641" d="M590 253Q590 120 514 53T300 -15Q146 -15 92 64Q74 90 74 114H176Q176 80 225 63Q260 51 304 51Q493 51 492 247Q456 212 403 189T301 166Q244 166 196 179Q134 196 93 233Q45 276 45 335Q45 378 67 414Q129 517 300 517Q447 517 516 458Q590 395 590 253ZM476 335Q476 452 301 452Q141 452 141 335Q141 280 200 250Q247 226 307 226Q370 226 417 249Q476 278 476 335Z"  />
<glyph unicode=":" horiz-adv-x="258" d="M162 336H56V436H162V336ZM162 0H56V100H162V0Z"  />
<glyph unicode=";" horiz-adv-x="267" d="M173 336H66V436H173V336ZM184 127L93 -86H24L68 127H184Z"  />
<glyph unicode="&lt;" horiz-adv-x="583" d="M534 0L46 207V278L534 483V404L139 243L534 80V0Z"  />
<glyph unicode="=" horiz-adv-x="537" d="M469 298H69V368H469V298ZM469 128H69V198H469V128Z"  />
<glyph unicode="&gt;" horiz-adv-x="583" d="M538 207L49 0V80L444 243L49 404V483L538 278V207Z"  />
<glyph unicode="?" horiz-adv-x="676" d="M582 465Q582 403 529 354Q484 312 418 292Q381 281 372 277Q343 264 336 248Q331 237 331 209V166H237V201Q237 254 247 274Q259 300 304 320Q321 326 356 340Q465 386 465 466Q465 492 451 518Q411 591 310 591Q202 591 165 514Q154 491 154 469Q154 431 167 409H60Q41 426 41 466Q41 555 134 610Q213 657 309 657Q408 657 487 611Q582 557 582 465ZM352 0H218V100H352V0Z"  />
<glyph unicode="@" horiz-adv-x="759" d="M699 350Q699 255 644 198T495 140Q404 140 390 195Q333 146 282 146Q234 146 209 181Q187 212 187 262Q187 347 233 417Q285 496 366 496Q422 496 450 462L456 484H533L470 229Q468 221 468 216Q468 178 517 178Q542 178 570 191Q661 233 661 351Q661 460 574 527Q495 590 383 590Q258 590 172 516Q81 437 81 315Q81 195 173 118Q259 45 382 45Q473 45 568 99Q575 103 581 103Q598 103 598 87Q598 77 589 70Q515 10 382 10Q241 10 145 91Q43 177 43 315Q43 457 144 543Q239 625 383 625Q511 625 602 553Q699 475 699 350ZM440 426Q425 462 377 462Q341 462 309 410Q287 372 275 325Q265 285 265 250Q265 184 303 184Q347 184 382 227Q385 229 388 234L440 426Z"  />
<glyph unicode="A" horiz-adv-x="681" d="M669 0H358V24H462L399 198H198L136 24H256V0H18V24H108L334 654H352L578 24H669V0ZM390 222L298 475L207 222H390Z"  />
<glyph unicode="B" horiz-adv-x="616" d="M568 176Q568 85 495 39Q434 0 338 0H25V24H114V621H25V645H330Q411 645 472 610Q545 568 545 493Q545 382 406 350Q475 335 519 291Q568 243 568 176ZM437 501Q437 621 330 621H223V360H330Q395 360 419 400Q437 430 437 501ZM457 187Q457 336 330 336H223V24H330Q408 24 436 69Q457 104 457 187Z"  />
<glyph unicode="C" horiz-adv-x="631" d="M598 4Q598 -7 587 -7Q581 -7 523 51Q453 -18 351 -18Q223 -18 127 90Q35 194 35 323Q35 455 130 555T356 656Q450 656 518 607Q565 651 572 651Q584 651 584 632V478Q584 462 575 462Q568 462 563 475Q503 630 356 630Q171 630 171 374V268Q171 8 351 8Q431 8 489 62Q532 103 574 188Q580 201 588 201Q598 201 598 187V4Z"  />
<glyph unicode="D" horiz-adv-x="682" d="M664 330Q664 181 575 91T337 0H28V24H119V621H28V645H337Q480 645 572 559T664 330ZM541 306V354Q541 471 497 539Q445 621 335 621H228V24H335Q541 24 541 306Z"  />
<glyph unicode="E" horiz-adv-x="591" d="M553 35Q553 0 519 0H31V24H118V621H29V645H494Q525 645 525 618V474Q525 457 513 457Q502 457 500 475Q495 536 468 574Q436 621 379 621H227V352H304Q342 352 359 378Q368 392 374 426Q379 452 389 452Q400 452 400 436V244Q400 227 389 227Q379 227 375 253Q368 288 360 302Q343 328 304 328H227V24H388Q456 24 487 72Q506 100 525 181Q530 204 541 204Q553 204 553 177V35Z"  />
<glyph unicode="F" horiz-adv-x="564" d="M529 474Q529 457 517 457Q505 457 504 475Q499 536 472 574Q440 621 383 621H231V352H308Q346 352 363 378Q372 392 378 426Q383 452 393 452Q404 452 404 436V244Q404 227 393 227Q383 227 379 253Q372 288 364 302Q347 328 308 328H231V24H320V0H36V24H122V621H34V645H499Q529 645 529 618V474Z"  />
<glyph unicode="G" horiz-adv-x="689" d="M686 217H597V189Q597 85 523 31Q457 -18 350 -18Q220 -18 125 86Q33 187 33 319Q33 454 126 555T353 656Q451 656 517 604Q568 651 576 651Q589 651 589 636V457Q589 444 578 444Q569 444 564 456Q558 473 543 508Q483 630 353 630Q253 630 206 551Q168 487 168 379V263Q168 155 205 90Q252 8 352 8Q482 8 482 132V217H371V241H686V217Z"  />
<glyph unicode="H" horiz-adv-x="706" d="M688 0H402V24H491V330H227V24H316V0H29V24H118V621H29V645H316V621H227V355H491V621H402V645H688V621H600V24H688V0Z"  />
<glyph unicode="I" horiz-adv-x="366" d="M326 0H40V24H128V621H40V645H326V621H237V24H326V0Z"  />
<glyph unicode="J" horiz-adv-x="381" d="M371 621H294V56Q294 -97 126 -97Q85 -97 49 -74Q8 -47 8 -8Q8 46 59 46Q80 46 93 33T107 -1Q107 -47 64 -53Q85 -71 119 -71Q160 -71 174 -45Q185 -25 185 20V621H90V645H371V621Z"  />
<glyph unicode="K" horiz-adv-x="692" d="M685 0H385V24H470L222 349V24H304V0H31V24H113V621H31V645H304V621H222V356L510 621H428V645H640V621H550L313 403L601 24H685V0Z"  />
<glyph unicode="L" horiz-adv-x="617" d="M596 35Q596 0 561 0H26V24H115V621H26V645H322V621H224V24H431Q499 24 530 72Q547 99 567 181Q573 204 583 204Q596 204 596 177V35Z"  />
<glyph unicode="M" horiz-adv-x="821" d="M793 0H520V24H602V589L380 0H360L138 585V24H221V0H31V24H113V621H31V645H229L415 167L595 645H793V621H711V24H793V0Z"  />
<glyph unicode="N" horiz-adv-x="677" d="M660 621H571V-8H529L137 583V24H226V0H23V24H112V621H23V645H233L546 175V621H457V645H660V621Z"  />
<glyph unicode="O" horiz-adv-x="712" d="M684 320Q684 187 589 86Q492 -18 360 -18Q228 -18 132 86Q37 187 37 320Q37 453 132 554T360 656Q492 656 588 555T684 320ZM549 272V367Q549 490 515 550Q471 630 360 630Q251 630 206 549Q172 487 172 367V272Q172 8 360 8Q549 8 549 272Z"  />
<glyph unicode="P" horiz-adv-x="558" d="M534 469Q534 385 470 337Q412 293 325 293H223V24H311V0H25V24H114V621H25V645H315Q406 645 466 603Q534 556 534 469ZM433 452V486Q433 621 315 621H223V317H325Q433 317 433 452Z"  />
<glyph unicode="Q" horiz-adv-x="701" d="M684 319Q684 205 612 110T429 -12V-29Q429 -197 589 -197Q603 -197 603 -208Q603 -218 589 -218Q486 -218 435 -206Q348 -184 316 -120Q299 -86 294 -33L292 -12Q182 14 109 111Q37 205 37 319Q37 452 132 554T360 656Q492 656 588 554T684 319ZM549 271V366Q549 489 515 550Q471 630 360 630Q251 630 206 548Q172 486 172 366V271Q172 6 360 6Q549 6 549 271Z"  />
<glyph unicode="R" horiz-adv-x="647" d="M645 34Q645 29 641 25Q627 11 587 1Q553 -8 528 -8Q469 -8 444 30Q426 58 422 117Q415 209 415 212Q395 325 307 325H226V24H315V0H28V24H117V621H28V645H323Q409 645 470 608Q543 564 543 484Q543 365 393 332Q487 308 517 255Q539 215 542 109Q543 63 546 54Q554 26 585 26Q599 26 616 33T638 41Q645 41 645 34ZM436 467V501Q436 621 323 621H226V349H323Q436 349 436 467Z"  />
<glyph unicode="S" horiz-adv-x="558" d="M524 205Q524 108 455 45T287 -18Q194 -18 118 44Q75 -13 67 -13Q53 -13 53 4V174Q53 191 65 191Q76 191 81 176Q87 157 104 120Q167 8 293 8Q359 8 408 47T458 152Q458 219 401 245Q364 262 306 279Q210 307 209 307Q68 353 68 467Q68 554 135 607Q197 656 286 656Q363 656 434 618Q469 660 476 660Q487 660 487 646V477Q487 463 475 463Q464 463 461 476Q458 493 447 528Q405 630 286 630Q228 630 187 604Q139 573 139 518Q139 455 201 432Q237 418 292 404Q339 392 385 380Q524 341 524 205Z"  />
<glyph unicode="T" horiz-adv-x="638" d="M617 455H586Q577 518 550 562Q514 621 460 621H376V24H465V0H179V24H267V621H183Q129 621 93 562Q66 518 57 455H27L43 625Q45 645 68 645H576Q599 645 601 625L617 455Z"  />
<glyph unicode="U" horiz-adv-x="657" d="M643 621H555V162Q555 70 493 23Q439 -18 343 -18Q245 -18 182 22Q107 70 107 162V621H18V645H304V621H216V162Q216 89 255 49T367 8Q438 8 483 49T529 162V621H440V645H643V621Z"  />
<glyph unicode="V" horiz-adv-x="651" d="M649 621H574L353 -10H329L97 621H7V645H294V621H203L378 149L543 621H456V645H649V621Z"  />
<glyph unicode="W" horiz-adv-x="926" d="M915 621H843L602 -10H582L470 277L361 -10H341L101 621H23V645H680V621H616L532 402L630 141L814 621H728V645H915V621ZM588 621H448L518 439L588 621ZM456 315L341 621H208L390 143L456 315Z"  />
<glyph unicode="X" horiz-adv-x="706" d="M689 0H404V24H484L324 283L148 24H247V0H22V24H114L308 309L115 621H24V645H329V621H239L375 401L523 621H427V645H652V621H558L392 375L608 24H689V0Z"  />
<glyph unicode="Y" horiz-adv-x="682" d="M673 621H588L420 340V24H518V0H212V24H311V316L113 621H28V645H325V621H234L398 367L550 621H454V645H673V621Z"  />
<glyph unicode="Z" horiz-adv-x="524" d="M502 0H31V30L383 621H192Q64 621 59 472H36V645H495V617L139 24H328Q407 24 443 73Q473 115 477 199H502V0Z"  />
<glyph unicode="[" horiz-adv-x="432" d="M321 -51H99V556H321V492H190V13H321V-51Z"  />
<glyph unicode="\" horiz-adv-x="255" d="M208 -10H153L67 519H123L208 -10Z"  />
<glyph unicode="]" horiz-adv-x="433" d="M332 -51H110V12H242V491H110V556H332V-51Z"  />
<glyph unicode="^" horiz-adv-x="381" d="M325 325L303 314L195 521L87 314L64 325L178 606H211L325 325Z"  />
<glyph unicode="_" horiz-adv-x="300" d="M311 -31H-4V-11H311V-31Z"  />
<glyph unicode="`" horiz-adv-x="266" d="M233 457L219 450L44 604H147L233 457Z"  />
<glyph unicode="a" horiz-adv-x="456" d="M453 54Q453 44 445 31Q418 -13 353 -13Q288 -13 274 34Q231 -13 158 -13Q42 -13 42 75Q42 147 124 183Q186 211 268 212V319Q268 369 204 369Q144 369 143 352Q151 344 158 336T166 314Q166 277 123 277Q106 277 94 288T81 316Q81 357 138 376Q177 390 228 390Q366 390 366 301V74Q366 47 368 40Q372 20 390 20Q410 20 426 41T445 63Q453 63 453 54ZM268 68V194Q206 191 176 175Q132 153 132 99Q132 20 193 20Q210 20 239 36T268 68Z"  />
<glyph unicode="b" horiz-adv-x="534" d="M510 192Q510 115 451 52T315 -12Q249 -12 204 40V0H28V24H107V621H28V645H204V346Q245 393 312 393Q389 393 449 331T510 192ZM394 171V214Q394 337 350 361Q335 369 308 369Q245 369 204 303V83Q246 12 312 12Q394 12 394 171Z"  />
<glyph unicode="c" horiz-adv-x="422" d="M411 105Q411 102 409 96Q393 45 346 16T242 -13Q156 -13 93 44T29 187Q29 273 96 332Q160 390 247 390Q291 390 334 371Q388 347 388 308Q388 288 374 276T338 264Q289 264 289 306Q289 323 298 336T307 349Q307 366 245 366Q183 366 161 315Q146 282 146 208V167Q146 88 158 59Q179 10 245 10Q330 10 372 77Q375 81 385 105Q390 117 399 117Q411 117 411 105Z"  />
<glyph unicode="d" horiz-adv-x="534" d="M513 0H337V41Q292 -13 227 -13Q154 -13 93 52T32 191Q32 267 93 330T230 393Q298 393 337 350V621H259V645H435V24H513V0ZM337 82V301Q295 369 234 369Q177 369 159 316Q148 286 148 215V168Q148 98 159 67Q177 11 231 11Q291 11 337 82Z"  />
<glyph unicode="e" horiz-adv-x="447" d="M414 117Q414 110 411 102Q389 46 341 17T230 -13Q148 -13 88 45T28 185Q28 265 87 327T226 390Q345 390 394 285Q409 253 409 233Q409 216 388 216H145V124Q145 10 232 10Q323 10 373 85Q375 88 390 116Q396 128 404 128Q414 128 414 117ZM303 279Q303 366 227 366Q145 366 145 273V240H293Q303 240 303 279Z"  />
<glyph unicode="f" horiz-adv-x="352" d="M340 585Q340 547 303 547Q263 547 263 583Q263 607 286 617Q284 628 244 628Q195 628 195 561V380H278V356H195V24H272V0H20V24H97V356H21V380H97Q97 524 118 569Q157 652 242 652Q276 652 305 636Q340 617 340 585Z"  />
<glyph unicode="g" horiz-adv-x="439" d="M433 371Q433 339 398 339Q380 339 369 349T361 377Q347 369 331 352Q377 312 377 255Q377 231 364 204Q323 119 207 119Q172 119 148 126Q68 106 68 66Q68 30 129 30H295Q355 30 389 0T424 -90Q424 -170 360 -214Q303 -253 220 -253Q31 -253 31 -144Q31 -75 109 -43Q33 -24 33 49Q33 114 114 139Q37 180 37 255Q37 319 92 357Q140 390 207 390Q276 390 312 366Q351 405 390 405Q433 405 433 371ZM275 238V270Q275 317 264 338Q249 366 207 366Q165 366 150 338Q139 317 139 270V238Q139 192 150 171Q165 143 207 143Q249 143 264 171Q275 192 275 238ZM377 -129Q377 -91 348 -69T278 -47H147Q124 -47 107 -74T89 -126Q89 -180 131 -207Q166 -229 224 -229Q280 -229 323 -207Q377 -180 377 -129Z"  />
<glyph unicode="h" horiz-adv-x="555" d="M539 0H298V24H369V291Q369 360 312 360Q273 360 235 328T196 256V24H268V0H26V24H99V621H26V645H196V325Q244 393 344 393Q467 393 467 302V24H539V0Z"  />
<glyph unicode="i" horiz-adv-x="303" d="M216 550Q216 527 199 512T158 497Q135 497 118 512T100 550Q100 573 117 588T158 604Q181 604 198 589T216 550ZM285 0H33V24H110V356H33V380H207V24H285V0Z"  />
<glyph unicode="j" horiz-adv-x="282" d="M228 550Q228 527 211 512T170 496Q147 496 130 511T112 550Q112 573 129 588T170 604Q193 604 210 589T228 550ZM225 -28Q225 -118 193 -177Q152 -252 70 -252Q37 -252 10 -236Q-21 -218 -21 -187Q-21 -166 -7 -152T28 -138Q48 -138 61 -151T75 -184Q75 -212 53 -226Q58 -228 69 -228Q96 -228 111 -210T127 -164V355H44V379H225V-28Z"  />
<glyph unicode="k" horiz-adv-x="556" d="M549 0H291V24H359L223 202H207V24H280V0H27V24H110V621H27V645H207V226H230L373 356H292V380H494V356H410L294 249L475 24H549V0Z"  />
<glyph unicode="l" horiz-adv-x="294" d="M273 0H32V24H104V621H32V645H201V24H273V0Z"  />
<glyph unicode="m" horiz-adv-x="785" d="M766 0H536V24H601V287Q601 353 553 353Q516 353 481 319T446 248V24H513V0H282V24H349V293Q349 353 300 353Q267 353 231 320T194 256V24H260V0H29V24H96V353H29V377H194V316Q244 385 344 385Q432 385 445 314Q493 385 596 385Q699 385 699 297V24H766V0Z"  />
<glyph unicode="n" horiz-adv-x="547" d="M528 0H286V24H358V287Q358 353 305 353Q271 353 237 320T202 252V24H274V0H33V24H105V353H33V376H202V316Q250 384 343 384Q456 384 456 293V24H528V0Z"  />
<glyph unicode="o" horiz-adv-x="460" d="M441 188Q441 108 378 48T234 -13Q154 -13 90 48T25 188Q25 267 89 328T234 390Q314 390 377 329T441 188ZM325 168V209Q325 285 314 314Q295 366 234 366Q172 366 153 314Q141 284 141 209V168Q141 90 152 61Q171 10 234 10Q278 10 298 32Q316 51 322 96Q325 120 325 168Z"  />
<glyph unicode="p" horiz-adv-x="515" d="M494 187Q494 107 435 45T295 -17Q228 -17 187 29V-233H254V-257H22V-233H89V352H22V377H187V336Q233 390 297 390Q374 390 434 327T494 187ZM378 167V210Q378 277 367 310Q348 366 296 366Q261 366 224 338T187 275V91Q187 59 225 33Q260 9 293 9Q322 9 338 19Q378 44 378 167Z"  />
<glyph unicode="q" horiz-adv-x="524" d="M507 -257H276V-233H343V30Q300 -17 233 -17Q156 -17 95 46T34 187Q34 263 94 325T231 387Q299 387 343 335V376H507V352H440V-233H507V-257ZM343 106V266Q343 304 307 335T232 366Q150 366 150 245V141Q150 78 162 50Q181 8 235 8Q279 8 311 35T343 106Z"  />
<glyph unicode="r" horiz-adv-x="412" d="M402 313Q402 290 386 276T346 261Q323 261 306 274T289 310Q289 332 301 344Q309 350 317 357Q317 361 307 361H293Q260 361 224 335T188 276V24H260V0H18V24H90V353H18V377H188V332Q231 385 304 385Q344 385 370 369Q402 350 402 313Z"  />
<glyph unicode="s" horiz-adv-x="367" d="M343 119Q343 58 303 23T199 -13Q125 -13 83 24Q59 -8 54 -8Q43 -8 43 4V105Q43 117 54 117Q62 117 66 105Q99 10 196 10Q233 10 263 27Q299 47 299 81Q299 122 238 143Q232 145 141 165T50 266Q50 323 93 358Q133 390 191 390Q237 390 269 365Q295 390 300 390Q307 390 307 379V278Q307 268 299 268Q291 268 289 276T281 302Q254 366 185 366Q155 366 129 351Q99 334 99 306Q99 278 134 267Q180 255 227 244Q282 229 308 206Q343 175 343 119Z"  />
<glyph unicode="t" horiz-adv-x="348" d="M338 83Q338 33 299 8Q266 -13 214 -13Q156 -13 123 17T89 104V355H19V379H89V485L187 530V379H287V355H187V102Q187 16 249 16Q292 16 309 61Q311 68 314 81T328 95Q338 95 338 83Z"  />
<glyph unicode="u" horiz-adv-x="556" d="M529 0H359V60Q306 -11 204 -11Q95 -11 95 95V353H23V376H193V89Q193 54 201 41Q212 25 245 25Q281 25 320 56T359 123V353H287V376H457V24H529V0Z"  />
<glyph unicode="v" horiz-adv-x="505" d="M488 353H425L269 -4H255L90 353H21V376H264V353H194L297 123L397 353H326V376H488V353Z"  />
<glyph unicode="w" horiz-adv-x="668" d="M654 353H582L457 -11H443L338 230L251 -11H236L92 353H23V376H257V353H191L278 135L363 376H377L482 134L556 353H472V376H654V353Z"  />
<glyph unicode="x" horiz-adv-x="518" d="M505 0H263V24H336L239 152L134 24H205V0H31V24H102L223 173L86 353H26V376H253V353H190L279 236L374 353H313V376H476V353H408L295 215L441 24H505V0Z"  />
<glyph unicode="y" horiz-adv-x="521" d="M511 352H442L231 -154Q191 -251 111 -251Q54 -251 54 -206Q54 -167 95 -167Q120 -167 133 -186T151 -205Q183 -205 207 -146L266 -3L96 352H26V376H277V352H201L313 110L414 352H340V376H511V352Z"  />
<glyph unicode="z" horiz-adv-x="414" d="M388 0H49V26L275 353H179Q99 353 89 255H68V376H377V348L155 24H267Q360 24 367 132H388V0Z"  />
<glyph unicode="{" horiz-adv-x="414" d="M378 -156H303Q253 -156 212 -127Q166 -95 166 -47Q166 -23 167 26Q167 76 167 100Q167 160 143 186T58 217V288Q120 293 144 320T167 409Q166 525 166 553Q166 601 212 633Q253 662 303 662H378V596Q329 596 329 596Q302 595 285 577T267 532V394Q267 307 167 252Q267 204 267 111V-26Q267 -52 284 -70T329 -90Q329 -90 378 -90V-156Z"  />
<glyph unicode="|" horiz-adv-x="203" d="M127 -165H77V749H127V-165Z"  />
<glyph unicode="}" horiz-adv-x="414" d="M356 218Q294 213 270 186T247 97Q248 -19 248 -47Q248 -95 203 -127Q162 -156 112 -156H36V-90Q86 -90 86 -90Q113 -89 130 -71T148 -26V112Q148 200 247 254Q148 301 148 395V532Q148 558 131 576T86 596Q86 596 36 596V662H112Q162 662 203 633Q248 601 248 553Q248 529 248 480Q247 430 247 406Q247 346 271 320T356 289V218Z"  />
<glyph unicode="&#xA0;" horiz-adv-x="250" />
<glyph unicode="&#xA1;" horiz-adv-x="277" d="M206 453Q206 429 188 414T146 398Q122 398 104 413T86 453Q86 477 104 493T146 509Q170 509 188 493T206 453ZM208 -48Q208 -138 145 -138Q80 -138 80 -48Q80 -11 91 41Q101 84 111 128Q122 185 134 347H155Q159 292 163 237Q168 174 177 130T197 42Q208 -6 208 -48Z"  />
<glyph unicode="&#xA2;" horiz-adv-x="354" d="M331 213Q331 175 288 146Q251 121 211 118L210 70H185V119Q123 124 79 167T35 271Q35 336 79 377Q119 414 185 424V461H210L211 424Q244 423 274 408Q312 390 312 361Q312 324 274 324Q259 324 248 334T237 359Q237 372 242 378T248 389Q248 404 211 405V140Q274 143 301 194Q304 199 309 215Q312 224 320 224Q331 224 331 213ZM185 140V404Q145 397 132 363Q125 342 125 291V250Q125 200 132 179Q145 145 185 140Z"  />
<glyph unicode="&#xA3;" horiz-adv-x="559" d="M535 187Q535 123 482 58Q427 -11 363 -11Q273 -11 217 48Q184 -5 107 -5Q68 -5 41 18T14 80Q14 127 57 158Q95 186 144 186Q162 186 182 182L131 324H35V350H120Q86 448 86 491Q86 583 172 625Q238 658 340 658Q396 658 443 631Q498 599 498 546Q498 465 426 465Q400 465 381 478T362 517Q362 573 430 573Q445 573 445 580Q445 596 419 612Q400 624 380 629T340 634Q278 634 252 600Q228 570 228 506V350H309V324H228V170Q344 103 405 103Q446 103 471 131Q483 143 511 193Q515 201 523 201Q535 201 535 187ZM194 68Q138 132 89 132Q69 132 56 117T42 80Q42 54 61 38T107 21Q172 21 194 68Z"  />
<glyph unicode="&#xA5;" horiz-adv-x="674" d="M665 621H579L411 340V324H511V300H411V261H511V237H411V24H510V0H204V24H302V237H201V261H302V300H201V324H297L105 621H20V645H317V621H226L390 367L542 621H446V645H665V621Z"  />
<glyph unicode="&#xA6;" horiz-adv-x="118" d="M80 357H43V647H80V357ZM80 0H43V265H80V0Z"  />
<glyph unicode="&#xA7;" horiz-adv-x="387" d="M367 335Q367 245 292 214Q364 181 364 93Q364 17 316 -26T190 -69Q139 -69 97 -42Q48 -11 48 37Q48 85 91 85Q130 85 130 46Q130 8 84 9L83 8Q84 2 94 -8Q133 -45 190 -45Q237 -45 270 -25Q309 -1 309 43Q309 95 238 119Q173 140 108 161Q37 197 37 279Q37 372 119 401Q36 429 36 518Q36 583 82 625T195 667Q248 667 289 650Q345 627 345 581Q345 542 307 542Q264 542 264 577Q264 610 297 616Q260 643 195 643Q158 643 126 625Q89 604 89 569Q89 515 190 499Q367 471 367 335ZM329 300Q329 353 193 384Q167 390 163 390Q156 390 139 384Q90 366 90 323Q90 278 156 252Q188 239 259 225Q329 250 329 300Z"  />
<glyph unicode="&#xA8;" horiz-adv-x="432" d="M353 554Q353 534 337 522T300 509Q280 509 264 521T247 554Q247 574 263 586T300 599Q320 599 336 587T353 554ZM196 554Q196 534 180 522T143 509Q123 509 107 521T90 554Q90 574 106 586T143 599Q163 599 179 587T196 554Z"  />
<glyph unicode="&#xA9;" horiz-adv-x="637" d="M616 357Q616 243 528 165Q443 91 327 91Q211 91 126 165Q37 243 37 357Q37 471 126 549Q211 623 327 623Q443 623 528 549Q616 471 616 357ZM586 358Q586 460 509 527T328 594Q225 594 149 528Q69 459 69 358Q69 257 149 188Q225 122 328 122Q431 122 508 189T586 358ZM428 241Q428 234 420 234Q417 234 393 257Q363 230 324 230Q271 230 232 273T192 370Q192 425 232 467T327 510Q362 510 392 489Q408 507 416 507Q423 507 423 498V434Q423 424 415 424Q410 424 408 430T399 449Q376 491 327 491Q254 491 254 391V349Q254 248 324 248Q374 248 411 317Q415 325 421 325Q428 325 428 317V241Z"  />
<glyph unicode="&#xAA;" horiz-adv-x="354" d="M323 398Q323 379 303 368T262 356Q223 356 213 383Q186 356 144 356Q73 356 73 411Q73 454 122 476Q159 493 209 494V555Q209 582 172 582Q142 582 137 577Q151 561 151 553Q151 529 123 529Q96 529 96 555Q96 579 130 591Q155 600 186 600Q271 600 271 545V402Q271 380 283 380Q294 380 303 392T316 405Q323 405 323 398ZM323 284H44V322H323V284ZM209 408V480Q130 474 130 425Q130 380 165 380Q175 380 192 389T209 408Z"  />
<glyph unicode="&#xAB;" horiz-adv-x="438" d="M382 108H354L174 258L354 408H382L254 258L382 108ZM232 108H203L24 258L203 408H232L104 258L232 108Z"  />
<glyph unicode="&#xAC;" horiz-adv-x="564" d="M545 230H506V389H18V429H545V230Z"  />
<glyph unicode="&#xAE;" horiz-adv-x="448" d="M413 475Q413 399 353 348Q297 299 219 299Q141 299 85 348Q25 399 25 475Q25 551 85 603Q142 652 219 652Q296 652 353 603Q413 551 413 475ZM383 475Q383 538 334 580T220 622Q155 622 106 581T57 475Q57 411 106 370T220 328Q285 328 334 370T383 475ZM331 388Q331 380 329 378Q320 368 290 368Q263 368 259 390T252 434Q247 473 218 473H197V388H225V370H127V388H156V562H127V580H225Q254 580 274 568Q298 553 298 526Q298 491 258 478Q285 469 293 444Q296 435 298 404Q299 384 309 384Q316 384 322 388H331ZM258 520V531Q258 562 225 562H197V491H225Q258 491 258 520Z"  />
<glyph unicode="&#xAF;" horiz-adv-x="454" d="M360 516H107V543H360V516Z"  />
<glyph unicode="&#xB0;" horiz-adv-x="231" d="M202 582Q202 551 178 531T121 510Q89 510 64 530T39 582Q39 613 64 633T121 654Q153 654 177 634T202 582ZM177 582Q177 604 160 617T121 631Q99 631 82 618T64 582Q64 560 81 547T121 533Q143 533 160 546T177 582Z"  />
<glyph unicode="&#xB1;" horiz-adv-x="410" d="M374 344H235V217H171V344H32V403H171V530H235V403H374V344ZM358 126H48V185H358V126Z"  />
<glyph unicode="&#xB2;" horiz-adv-x="306" d="M297 205H8V261Q152 318 207 368Q239 397 239 423Q239 459 212 470Q196 477 152 477Q67 477 67 407V400H8V406Q8 517 150 517Q219 517 252 500Q297 477 297 415Q297 382 259 349Q238 331 184 301Q135 274 73 245H297V205Z"  />
<glyph unicode="&#xB3;" horiz-adv-x="306" d="M315 284Q315 199 157 199Q98 199 57 215Q0 238 0 289Q0 295 0 298H58Q58 238 158 238Q205 238 224 244Q260 256 260 292Q260 320 213 332Q180 341 141 340V378Q174 378 206 390Q247 405 247 431Q247 451 241 460Q229 478 165 478Q70 478 70 424V416H15Q14 418 13 423Q13 429 13 430Q13 480 68 503Q107 520 166 520Q303 520 303 427Q303 390 256 371Q241 366 225 359Q230 359 240 358Q315 348 315 284Z"  />
<glyph unicode="&#xB4;" horiz-adv-x="404" d="M371 622L196 468L183 477L268 622H371Z"  />
<glyph unicode="&#xB6;" horiz-adv-x="664" d="M625 621H536V-104H471V621H392V-104H328V291H263Q168 291 106 331Q34 378 34 468Q34 558 106 605Q168 645 263 645H625V621Z"  />
<glyph unicode="&#xB8;" horiz-adv-x="359" d="M266 -101Q266 -128 244 -142T194 -156Q148 -156 123 -117Q118 -109 118 -104Q118 -96 126 -96Q130 -96 146 -108T179 -121Q215 -121 215 -93Q215 -69 180 -56L194 0H228L217 -45Q266 -61 266 -101Z"  />
<glyph unicode="&#xB9;" horiz-adv-x="306" d="M227 206H170V444Q136 419 73 404V454Q160 478 174 508H227V206Z"  />
<glyph unicode="&#xBA;" horiz-adv-x="327" d="M293 477Q293 428 255 391T167 354Q118 354 79 391T40 477Q40 525 79 561T167 598Q215 598 254 562T293 477ZM304 284H26V322H304V284ZM219 464V488Q219 534 214 550Q203 580 167 580Q131 580 120 550Q113 532 113 488V464Q113 418 119 402Q130 372 167 372Q203 372 214 402Q219 418 219 464Z"  />
<glyph unicode="&#xBB;" horiz-adv-x="426" d="M422 258L243 108H214L343 258L214 408H243L422 258ZM266 258L87 108H58L187 258L58 408H87L266 258Z"  />
<glyph unicode="&#xBC;" horiz-adv-x="748" d="M665 79H608V0H549V79H356V122L534 301H608V118H665V79ZM549 118V258L410 118H549ZM238 206H181V444Q146 419 83 404V454Q171 478 184 508H238V206ZM471 621L234 -119H168L405 621H471Z"  />
<glyph unicode="&#xBD;" horiz-adv-x="748" d="M232 206H175V444Q140 419 77 404V454Q165 478 178 508H232V206ZM671 0H381V56Q526 113 581 163Q613 192 613 218Q613 254 585 265Q570 271 525 271Q441 271 441 202V195H382V201Q382 311 524 311Q593 311 625 295Q671 271 671 210Q671 176 632 143Q611 125 558 96Q509 69 447 40H671V0ZM465 621L228 -119H162L399 621H465Z"  />
<glyph unicode="&#xBE;" horiz-adv-x="748" d="M336 284Q336 199 178 199Q118 199 77 215Q20 238 20 289Q20 295 21 298H79Q78 238 178 238Q226 238 245 244Q280 256 280 292Q280 320 233 332Q201 341 162 340V378Q195 378 226 390Q267 405 267 431Q267 451 261 460Q250 478 186 478Q91 478 91 424V416H35Q35 418 34 423T33 430Q33 480 88 503Q128 520 186 520Q324 520 324 427Q324 390 277 371Q261 366 245 359Q251 359 261 358Q336 348 336 284ZM728 79H672V0H613V79H420V122L598 301H672V118H728V79ZM613 118V258L473 118H613ZM545 621L308 -119H242L479 621H545Z"  />
<glyph unicode="&#xBF;" horiz-adv-x="415" d="M292 448Q292 424 274 409T232 393Q208 393 190 408T172 448Q172 472 190 488T232 504Q256 504 274 488T292 448ZM369 -38Q369 -87 306 -114Q259 -134 202 -134Q130 -134 87 -103Q38 -68 38 2Q38 46 64 84Q81 110 124 148Q179 197 181 199Q221 238 221 256Q221 281 220 290Q218 307 218 310Q218 321 231 321Q240 321 243 311Q256 272 256 212Q256 174 246 152Q231 119 197 85Q143 33 138 28Q101 -15 101 -46Q101 -79 136 -96Q163 -110 200 -110Q261 -110 288 -92Q292 -89 294 -87Q247 -78 247 -37Q247 -12 265 2T309 16Q334 16 351 1T369 -38Z"  />
<glyph unicode="&#xD7;" horiz-adv-x="581" d="M549 57L493 6L290 192L89 6L33 57L234 243L33 427L89 479L290 293L493 479L549 427L347 243L549 57Z"  />
<glyph unicode="&#xF7;" horiz-adv-x="382" d="M255 385Q255 361 237 346T195 330Q171 330 153 345T135 385Q135 409 153 424T195 440Q219 440 237 425T255 385ZM336 225H53V283H336V225ZM255 116Q255 92 237 77T195 61Q171 61 153 76T135 116Q135 140 153 155T195 171Q219 171 237 156T255 116Z"  />
<glyph unicode="&#x192;" horiz-adv-x="500" d="M488 623Q488 585 455 585Q424 585 424 612Q424 619 429 629T435 642Q435 655 417 655Q380 655 367 602Q353 542 335 427H422L414 395H329Q302 257 245 49Q174 -210 61 -210Q36 -210 19 -197T1 -159Q1 -116 39 -116Q50 -116 60 -124T70 -143Q70 -151 65 -159T59 -171Q59 -181 71 -181Q95 -181 118 -145Q135 -119 160 -3Q174 70 189 144Q193 161 249 395H163L170 427Q207 430 213 431Q240 436 252 451T281 516Q307 590 328 621Q365 677 421 677Q448 677 468 663T488 623Z"  />
<glyph unicode="&#x3BC;" horiz-adv-x="576" d="M534 100Q526 -14 438 -14Q368 -14 360 79Q281 -14 207 -14Q162 -14 131 28V19Q131 -34 147 -111Q154 -144 154 -162Q154 -184 142 -200T108 -216Q65 -216 65 -163Q65 -144 80 -82Q96 -16 96 56V447H176V187Q176 122 183 97Q197 46 245 46Q302 46 360 112V447H441V128Q441 85 443 74Q449 39 474 39Q505 39 514 100H534Z"  />
<glyph unicode="&#x5B0;" horiz-adv-x="0" d="M240 -143H198V-102H240V-143ZM240 -244H198V-202H240V-244Z"  />
<glyph unicode="&#x5B1;" horiz-adv-x="0" d="M366 -143H324V-102H366V-143ZM270 -143H228V-102H270V-143ZM366 -244H324V-202H366V-244ZM170 -143H128V-102H170V-143ZM220 -243H178V-202H220V-243Z"  />
<glyph unicode="&#x5B2;" horiz-adv-x="0" d="M359 -143H318V-102H359V-143ZM359 -244H318V-202H359V-244ZM272 -143H95V-102H272V-143Z"  />
<glyph unicode="&#x5B3;" horiz-adv-x="0" d="M394 -143H352V-102H394V-143ZM394 -244H352V-202H394V-244ZM294 -143H225L227 -243H180L183 -143H116V-102H294V-143Z"  />
<glyph unicode="&#x5B4;" horiz-adv-x="0" d="M243 -143H202V-102H243V-143Z"  />
<glyph unicode="&#x5B5;" horiz-adv-x="0" d="M286 -143H244V-102H286V-143ZM186 -143H144V-102H186V-143Z"  />
<glyph unicode="&#x5B6;" horiz-adv-x="0" d="M296 -143H254V-102H296V-143ZM195 -143H154V-102H195V-143ZM246 -243H205V-202H246V-243Z"  />
<glyph unicode="&#x5B7;" horiz-adv-x="0" d="M306 -143H130V-102H306V-143Z"  />
<glyph unicode="&#x5B8;" horiz-adv-x="0" d="M306 -143H238L241 -243H194L196 -143H130V-102H306V-143Z"  />
<glyph unicode="&#x5B9;" horiz-adv-x="0" d="M35 595Q35 580 25 570T-1 560Q-36 560 -36 595Q-36 610 -26 620T-1 631Q14 631 24 621T35 595Z"  />
<glyph unicode="&#x5BB;" horiz-adv-x="0" d="M226 -143H184V-102H226V-143ZM259 -204H218V-162H259V-204ZM293 -266H251V-225H293V-266Z"  />
<glyph unicode="&#x5BC;" horiz-adv-x="0" d="M262 253Q262 218 227 218Q212 218 202 228T191 253Q191 268 201 278T227 289Q242 289 252 279T262 253Z"  />
<glyph unicode="&#x5BD;" horiz-adv-x="0" d="M28 -229H0V-102H28V-229Z"  />
<glyph unicode="&#x5BE;" horiz-adv-x="666" d="M580 436H86V501H580V436Z"  />
<glyph unicode="&#x5BF;" horiz-adv-x="0" d="M384 635H107V676H384V635Z"  />
<glyph unicode="&#x5C0;" horiz-adv-x="168" d="M108 -130H60V617H108V-130Z"  />
<glyph unicode="&#x5C1;" horiz-adv-x="0" d="M642 595Q642 580 632 570T606 560Q571 560 571 595Q571 610 581 620T606 631Q621 631 631 621T642 595Z"  />
<glyph unicode="&#x5C2;" horiz-adv-x="0" d="M158 595Q158 580 148 570T122 560Q87 560 87 595Q87 610 97 620T122 631Q137 631 147 621T158 595Z"  />
<glyph unicode="&#x5C3;" horiz-adv-x="275" d="M162 336H56V436H162V336ZM162 0H56V100H162V0Z"  />
<glyph unicode="&#x5D0;" horiz-adv-x="657" d="M630 0H513L210 322L130 0H33L141 388L36 502H159L421 222L508 502H608L491 150L630 0Z"  />
<glyph unicode="&#x5D1;" horiz-adv-x="628" d="M593 0H40V66H210Q306 66 363 114Q424 165 424 259Q424 350 355 396Q296 436 201 436H47V502H202Q529 502 529 261Q529 170 482 121Q461 99 427 83Q419 80 405 73Q401 70 401 67Q401 62 417 62Q428 62 451 64T485 66H593V0Z"  />
<glyph unicode="&#x5D2;" horiz-adv-x="488" d="M427 0H339Q323 9 316 49Q310 85 292 85Q286 85 259 49Q247 33 234 22Q190 -15 117 -15Q36 -15 25 0V79Q66 63 109 63Q193 63 246 115T300 253V306Q300 383 265 411Q234 436 154 436H40V502H181Q280 502 336 454Q396 404 396 306Q396 278 396 221Q395 165 395 137Q395 47 427 0Z"  />
<glyph unicode="&#x5D3;" horiz-adv-x="590" d="M570 436H425V0H328V436H15V502H570V436Z"  />
<glyph unicode="&#x5D4;" horiz-adv-x="721" d="M634 0H536V291Q536 381 494 411Q459 436 362 436H78V502H347Q497 502 553 472Q634 428 634 294V0ZM177 0H78V296H177V0Z"  />
<glyph unicode="&#x5D5;" horiz-adv-x="331" d="M226 0H128V404Q128 422 120 456T102 502H202Q226 471 226 402V0Z"  />
<glyph unicode="&#x5D6;" horiz-adv-x="385" d="M350 436Q278 436 252 405Q229 378 229 302V0H133L132 309Q132 362 145 388Q162 424 210 433H211Q213 433 213 436Q213 439 203 439Q192 439 171 438T139 436H20V502H350V436Z"  />
<glyph unicode="&#x5D7;" horiz-adv-x="757" d="M665 0H567V289Q567 377 537 406T417 436H193V0H95V502H421Q506 502 549 491Q623 472 647 417Q665 376 665 302V0Z"  />
<glyph unicode="&#x5D8;" horiz-adv-x="765" d="M680 236Q680 -15 384 -15Q180 -15 111 120Q87 167 87 220V502H185V216Q185 186 200 158Q226 108 279 80Q329 54 387 54Q470 54 524 103T578 235Q578 332 556 378Q525 444 439 444Q385 444 350 429Q347 427 334 421V488Q334 497 368 506Q393 513 408 515Q427 517 439 517Q583 517 635 447Q680 387 680 236Z"  />
<glyph unicode="&#x5D9;" horiz-adv-x="241" d="M168 211H73V404Q73 422 67 454Q60 491 52 502H149Q168 472 168 402V211Z"  />
<glyph unicode="&#x5DA;" horiz-adv-x="592" d="M498 -193H401V290Q401 338 395 361Q375 436 243 436H19V502H277Q498 502 498 336V-193Z"  />
<glyph unicode="&#x5DB;" horiz-adv-x="574" d="M510 248Q510 134 427 65Q350 0 233 0H45V66H253Q325 66 368 123Q407 174 407 249Q407 325 368 378Q324 436 251 436H45V501H231Q348 501 427 434Q510 363 510 248Z"  />
<glyph unicode="&#x5DC;" horiz-adv-x="545" d="M474 408Q474 390 455 303L389 0H289L355 307Q367 363 367 378Q367 436 267 436H112Q-11 436 -11 529Q-11 623 -11 628Q-16 688 -40 722H67Q87 688 87 631T88 564Q92 517 113 508Q126 502 166 502H330Q474 502 474 408Z"  />
<glyph unicode="&#x5DD;" horiz-adv-x="771" d="M682 0H94V502H449Q569 502 617 475Q682 438 682 330V0ZM584 66V319Q584 375 563 399T485 431Q448 436 391 436H192V66H584Z"  />
<glyph unicode="&#x5DE;" horiz-adv-x="775" d="M686 147Q686 62 624 21Q571 -14 482 -14Q427 -14 362 0V69Q410 58 451 58Q587 58 587 154V318Q587 450 432 450Q370 450 315 418T228 331Q206 293 206 256V0H108V417Q108 462 93 502H183Q199 468 199 398Q202 394 206 394Q209 394 212 398T219 410Q290 519 443 519Q686 519 686 315V147Z"  />
<glyph unicode="&#x5DF;" horiz-adv-x="267" d="M182 -192H87V404Q87 422 81 454Q74 491 66 502H163Q182 472 182 402V-192Z"  />
<glyph unicode="&#x5E0;" horiz-adv-x="465" d="M376 0H31V67H279V289Q279 368 256 399Q228 436 153 436H40V502H171Q376 502 376 327V0Z"  />
<glyph unicode="&#x5E1;" horiz-adv-x="751" d="M662 179Q662 76 589 33Q533 0 422 0H139L57 502H662V179ZM564 174V436H167L226 66H430Q485 66 522 92Q564 121 564 174Z"  />
<glyph unicode="&#x5E2;" horiz-adv-x="696" d="M609 212Q609 0 360 0H35V66H231L35 502H140L331 66Q511 65 511 214V502H609V212Z"  />
<glyph unicode="&#x5E3;" horiz-adv-x="714" d="M626 -192H532V179Q532 314 506 368Q466 451 347 451Q267 451 214 408Q158 362 158 284Q158 231 186 208H89Q60 248 60 302Q60 348 82 389Q151 517 348 517Q458 517 521 481Q596 439 616 340Q626 292 626 197V-192Z"  />
<glyph unicode="&#x5E4;" horiz-adv-x="700" d="M632 251Q632 0 296 0H129V66H285Q531 66 531 250Q531 352 491 399Q447 450 347 450Q269 450 214 407Q153 361 153 285Q153 242 176 208H86Q53 245 53 298Q53 342 76 385Q147 517 347 517Q632 517 632 251Z"  />
<glyph unicode="&#x5E5;" horiz-adv-x="684" d="M611 388Q611 339 594 296Q571 239 505 187Q447 141 379 116V-195H283V100L11 502H123L337 183Q391 206 437 242Q495 285 511 327Q521 353 521 382Q521 446 486 502H583Q611 457 611 388Z"  />
<glyph unicode="&#x5E6;" horiz-adv-x="644" d="M598 502L425 206L582 67V0H29V67H456Q251 220 20 502H136L360 259L494 502H598Z"  />
<glyph unicode="&#x5E7;" horiz-adv-x="715" d="M626 188Q626 89 566 38T402 -14Q340 -14 310 2V69Q347 53 407 53Q464 53 498 96Q528 135 528 194V436H52V502H626V188ZM180 -192H82V288H180V-192Z"  />
<glyph unicode="&#x5E8;" horiz-adv-x="600" d="M507 0H410V319Q410 365 400 388Q385 422 327 432Q302 436 237 436H30V502H276Q351 502 397 491Q460 476 485 435Q507 399 507 330V0Z"  />
<glyph unicode="&#x5E9;" horiz-adv-x="855" d="M467 165H371V502H467V165ZM766 204Q766 78 673 32Q608 0 467 0H130L66 502H162L221 66H415Q530 66 579 81Q669 109 669 197V502H766V204Z"  />
<glyph unicode="&#x5EA;" horiz-adv-x="762" d="M675 0H577V321Q577 370 559 395T493 429Q456 436 396 436H219V126Q219 50 184 20T72 -11Q33 -11 7 10V75Q32 59 60 59Q122 59 122 124V502H401Q458 502 503 499Q563 495 593 484Q642 467 658 427T675 299V0Z"  />
<glyph unicode="&#x5F0;" horiz-adv-x="521" d="M416 0H318V404Q318 422 310 456T292 502H392Q416 471 416 402V0ZM226 0H128V404Q128 422 120 456T102 502H202Q226 471 226 402V0Z"  />
<glyph unicode="&#x5F1;" horiz-adv-x="461" d="M356 0H258V404Q258 422 250 456T232 502H332Q356 471 356 402V0ZM168 211H73V404Q73 422 67 454Q60 491 52 502H149Q168 472 168 402V211Z"  />
<glyph unicode="&#x5F2;" horiz-adv-x="431" d="M358 211H263V404Q263 422 257 454Q250 491 242 502H339Q358 472 358 402V211ZM168 211H73V404Q73 422 67 454Q60 491 52 502H149Q168 472 168 402V211Z"  />
<glyph unicode="&#x5F3;" horiz-adv-x="283" d="M214 502L123 292H55L99 502H214Z"  />
<glyph unicode="&#x5F4;" horiz-adv-x="425" d="M368 502L278 292H209L253 502H368ZM214 502L123 292H55L99 502H214Z"  />
<glyph unicode="&#xF25;" horiz-adv-x="545" d="M474 408Q474 390 455 303L389 0H289L355 307Q367 363 367 378Q367 436 267 436H112Q-11 436 -11 529Q-11 623 -11 628Q-16 688 -40 722H67Q87 688 87 631T88 564Q92 517 113 508Q126 502 166 502H330Q474 502 474 408Z"  />
<glyph unicode="&#x200E;" horiz-adv-x="406" d="M375 448L211 296V404H141V0H55V490H211V600L375 448Z"  />
<glyph unicode="&#x200F;" horiz-adv-x="406" d="M351 0H265V404H195V296L31 448L195 600V490H351V0Z"  />
<glyph unicode="&#x2013;" horiz-adv-x="666" d="M580 218H86V283H580V218Z"  />
<glyph unicode="&#x2014;" horiz-adv-x="716" d="M630 218H86V283H630V218Z"  />
<glyph unicode="&#x2018;" horiz-adv-x="271" d="M216 292H148L57 502H172L216 292Z"  />
<glyph unicode="&#x2019;" horiz-adv-x="271" d="M214 502L123 292H55L99 502H214Z"  />
<glyph unicode="&#x201A;" horiz-adv-x="283" d="M202 43L111 -167H43L87 43H202Z"  />
<glyph unicode="&#x201C;" horiz-adv-x="425" d="M370 292H302L211 502H326L370 292ZM216 292H147L57 502H172L216 292Z"  />
<glyph unicode="&#x201D;" horiz-adv-x="425" d="M368 502L278 292H209L253 502H368ZM214 502L123 292H55L99 502H214Z"  />
<glyph unicode="&#x201E;" horiz-adv-x="425" d="M368 42L278 -168H209L253 42H368ZM214 42L123 -168H55L99 42H214Z"  />
<glyph unicode="&#x2020;" horiz-adv-x="271" d="M222 423H155V66H119V423H53V456H119V520Q119 531 110 552T101 585Q101 595 109 623Q119 660 120 663Q126 689 137 689Q148 689 154 663Q155 660 165 623Q173 595 173 585Q173 573 164 552T155 520V456H222V423Z"  />
<glyph unicode="&#x2021;" horiz-adv-x="271" d="M221 174H154V110Q154 99 163 78T172 45Q172 34 164 7Q154 -29 153 -33Q147 -60 136 -60Q125 -60 119 -33Q118 -29 108 7Q100 34 100 45Q100 57 109 78T118 110V174H52V207H118V422H52V456H118V520Q118 531 109 551T100 584Q100 596 108 623Q118 660 119 663Q125 689 136 689Q147 689 153 663Q154 660 164 623Q172 596 172 584Q172 572 163 552T154 520V456H221V422H154V207H221V174Z"  />
<glyph unicode="&#x2022;" horiz-adv-x="471" d="M405 227Q405 160 354 116T234 71Q166 71 114 115T62 227Q62 294 114 338T234 382Q302 382 353 338T405 227Z"  />
<glyph unicode="&#x2026;" horiz-adv-x="625" d="M163 0H56V100H163V0ZM353 0H246V100H353V0ZM544 0H437V100H544V0Z"  />
<glyph unicode="&#x2030;" horiz-adv-x="1138" d="M1096 179Q1096 99 1054 46Q1008 -11 930 -11Q851 -11 803 44T755 179Q755 258 801 311T926 365Q1004 365 1050 312T1096 179ZM736 179Q736 99 694 46Q648 -11 570 -11Q491 -11 443 44T394 179Q394 258 440 311T565 365Q643 365 691 310Q736 258 736 179ZM638 656L173 -4H126L591 656H638ZM372 469Q372 389 330 337Q284 280 206 280Q127 280 78 336Q31 389 31 469Q31 548 77 602T202 656Q280 656 326 602T372 469ZM1001 167V190Q1001 263 994 289Q979 344 926 344Q869 344 855 278Q850 256 850 167Q850 91 857 66Q873 11 930 11Q981 11 995 69Q1001 93 1001 167ZM640 167V190Q640 263 633 289Q618 344 565 344Q508 344 494 278Q490 257 490 167Q490 91 497 66Q513 11 570 11Q621 11 634 69Q640 92 640 167ZM277 458V481Q277 554 270 579Q255 634 202 634Q145 634 131 569Q126 547 126 458Q126 382 133 356Q149 301 206 301Q257 301 271 359Q277 384 277 458Z"  />
<glyph unicode="&#x2039;" horiz-adv-x="271" d="M238 108H208L29 258L208 408H238L109 258L238 108Z"  />
<glyph unicode="&#x203A;" horiz-adv-x="271" d="M243 258L63 108H35L164 258L35 408H63L243 258Z"  />
<glyph unicode="&#x20AA;" horiz-adv-x="1104" d="M975 203Q975 83 885 39Q822 8 682 8H391L352 315H454L490 59H631Q690 59 728 63Q799 70 832 96Q872 128 872 197V495H975V203ZM717 187H613V289Q613 381 586 411Q556 444 464 444H226V8H123V496H467Q600 496 651 464Q717 422 717 302V187Z"  />
<glyph unicode="&#x20AC;" horiz-adv-x="615" d="M589 52Q509 -16 403 -16Q307 -16 231 41T127 191H29L63 251H117Q116 269 116 271Q116 279 117 294H29L63 354H128Q157 445 232 501T403 558Q509 558 589 490L558 437Q493 498 403 498Q333 498 277 459T192 354H512L476 294H177Q176 282 176 271Q176 265 177 251H452L417 191H190Q218 124 275 84T403 44Q493 44 558 105Q565 92 589 52Z"  />
<glyph unicode="&#x2122;" horiz-adv-x="510" d="M467 464H371V480H399V596L351 464H339L286 589V480H315V464H238V480H266V628H238V645H301L353 522L399 645H467V628H440V480H467V464ZM216 600H199Q195 628 169 628H147V480H175V464H78V480H105V628H82Q56 628 52 600H35L40 645H212L216 600Z"  />
<glyph unicode="&#x2153;" horiz-adv-x="748" d="M231 206H174V444Q140 419 77 404V454Q164 478 178 508H231V206ZM671 77Q671 -9 513 -9Q453 -9 413 7Q355 31 355 82Q355 87 356 90H414Q413 31 514 31Q561 31 580 37Q616 48 616 85Q616 112 568 125Q536 133 497 132V170Q530 171 561 182Q602 197 602 224Q602 244 596 253Q585 270 521 270Q426 270 426 216V209H370Q370 210 369 215T368 222Q368 272 424 295Q463 312 521 312Q659 312 659 220Q659 182 612 163Q596 158 580 152Q586 151 596 150Q671 140 671 77ZM460 621L223 -119H157L394 621H460Z"  />
<glyph unicode="&#x2154;" horiz-adv-x="748" d="M299 205H10V261Q154 318 209 368Q242 397 242 423Q242 459 214 470Q198 477 154 477Q69 477 69 407V400H11V406Q11 517 152 517Q222 517 254 500Q299 477 299 415Q299 382 261 349Q240 331 186 301Q138 274 75 245H299V205ZM738 77Q738 -9 580 -9Q521 -9 480 7Q422 31 422 82Q422 87 423 90H481Q481 31 581 31Q628 31 647 37Q683 48 683 85Q683 112 636 125Q603 133 564 132V170Q597 171 628 182Q670 197 670 224Q670 244 664 253Q652 270 588 270Q493 270 493 216V209H437Q437 210 436 215Q436 221 436 222Q436 272 491 295Q530 312 589 312Q726 312 726 220Q726 182 679 163Q663 158 647 152Q653 151 663 150Q738 140 738 77ZM523 621L286 -119H220L457 621H523Z"  />
<glyph unicode="&#x2212;" horiz-adv-x="277" d="M277 231H4V262H277V231Z"  />
<glyph unicode="&#x2219;" horiz-adv-x="231" d="M172 309Q172 286 154 272T112 257Q89 257 71 271T52 309Q52 332 70 346T112 361Q135 361 153 347T172 309Z"  />
<glyph unicode="&#xE802;" horiz-adv-x="592" d="M498 -193H401V290Q401 338 395 361Q375 436 243 436H19V502H277Q498 502 498 336V-193ZM237 225H195V266H237V225ZM237 124H195V166H237V124Z"  />
<glyph unicode="&#xE803;" horiz-adv-x="592" d="M498 -193H401V290Q401 338 395 361Q375 436 243 436H19V502H277Q498 502 498 336V-193ZM290 219H222L225 119H178L180 219H114V260H290V219Z"  />
<glyph unicode="&#xE804;" horiz-adv-x="545" d="M474 408Q474 390 455 303L389 0H289L355 307Q367 363 367 378Q367 436 267 436H112Q-11 436 -11 529Q-11 623 -11 628Q-16 688 -40 722H67Q87 688 87 631T88 564Q92 517 113 508Q126 502 166 502H330Q474 502 474 408ZM-28 595Q-28 580 -38 570T-64 560Q-99 560 -99 595Q-99 610 -89 620T-64 631Q-49 631 -39 621T-28 595Z"  />
<glyph unicode="&#xE805;" horiz-adv-x="545" d="M474 408Q474 390 455 303L389 0H289L355 307Q367 363 367 378Q367 436 267 436H112Q-11 436 -11 529Q-11 623 -11 628Q-16 688 -40 722H67Q87 688 87 631T88 564Q92 517 113 508Q126 502 166 502H330Q474 502 474 408ZM-28 595Q-28 580 -38 570T-64 560Q-99 560 -99 595Q-99 610 -89 620T-64 631Q-49 631 -39 621T-28 595ZM233 253Q233 218 198 218Q183 218 173 228T162 253Q162 268 172 278T198 289Q213 289 223 279T233 253Z"  />
<glyph unicode="&#xFB1F;" horiz-adv-x="445" d="M358 211H263V404Q263 422 257 454Q250 491 242 502H339Q358 472 358 402V211ZM168 211H73V404Q73 422 67 454Q60 491 52 502H149Q168 472 168 402V211ZM372 0H75V42H372V0Z"  />
<glyph unicode="&#xFB20;" horiz-adv-x="696" d="M609 212Q609 0 360 0H35V66H231L35 502H140L331 66Q511 65 511 214V502H609V212Z"  />
<glyph unicode="&#xFB21;" horiz-adv-x="721" d="M634 0H536V291Q536 381 494 411Q459 436 362 436H78V502H347Q497 502 553 472Q634 428 634 294V0ZM177 0H78V296H177V0Z"  />
<glyph unicode="&#xFB22;" horiz-adv-x="586" d="M570 436H425V0H328V436H15V502H570V436Z"  />
<glyph unicode="&#xFB24;" horiz-adv-x="574" d="M510 248Q510 134 427 65Q350 0 233 0H45V67H253Q325 67 368 124Q407 175 407 250Q407 326 368 378Q324 436 251 436H45V502H231Q348 502 427 434Q510 363 510 248Z"  />
<glyph unicode="&#xFB26;" horiz-adv-x="771" d="M682 0H94V502H449Q569 502 617 475Q682 438 682 330V0ZM584 66V319Q584 375 563 399T485 431Q448 436 391 436H192V66H584Z"  />
<glyph unicode="&#xFB27;" horiz-adv-x="591" d="M498 0H401V319Q401 365 391 388Q376 422 318 432Q293 436 228 436H21V502H267Q342 502 388 491Q451 476 476 435Q498 399 498 330V0Z"  />
<glyph unicode="&#xFB28;" horiz-adv-x="762" d="M675 0H577V321Q577 370 559 395T493 429Q456 436 396 436H219V126Q219 50 184 20T72 -11Q33 -11 7 10V75Q32 59 60 59Q122 59 122 124V502H401Q458 502 503 499Q563 495 593 484Q642 467 658 427T675 299V0Z"  />
<glyph unicode="&#xFB2A;" horiz-adv-x="855" d="M467 165H371V502H467V165ZM766 204Q766 78 673 32Q608 0 467 0H130L66 502H162L221 66H415Q530 66 579 81Q669 109 669 197V502H766V204ZM753 595Q753 580 743 570T717 560Q682 560 682 595Q682 610 692 620T717 631Q732 631 742 621T753 595Z"  />
<glyph unicode="&#xFB2B;" horiz-adv-x="855" d="M467 165H371V502H467V165ZM766 204Q766 78 673 32Q608 0 467 0H130L66 502H162L221 66H415Q530 66 579 81Q669 109 669 197V502H766V204ZM136 595Q136 580 126 570T100 560Q65 560 65 595Q65 610 75 620T100 631Q115 631 125 621T136 595Z"  />
<glyph unicode="&#xFB2C;" horiz-adv-x="855" d="M467 165H371V502H467V165ZM766 204Q766 78 673 32Q608 0 467 0H130L66 502H162L221 66H415Q530 66 579 81Q669 109 669 197V502H766V204ZM753 595Q753 580 743 570T717 560Q682 560 682 595Q682 610 692 620T717 631Q732 631 742 621T753 595ZM601 253Q601 218 566 218Q551 218 541 228T530 253Q530 268 540 278T566 289Q581 289 591 279T601 253Z"  />
<glyph unicode="&#xFB2D;" horiz-adv-x="855" d="M467 165H371V502H467V165ZM766 204Q766 78 673 32Q608 0 467 0H130L66 502H162L221 66H415Q530 66 579 81Q669 109 669 197V502H766V204ZM136 595Q136 580 126 570T100 560Q65 560 65 595Q65 610 75 620T100 631Q115 631 125 621T136 595ZM596 253Q596 218 561 218Q546 218 536 228T525 253Q525 268 535 278T561 289Q576 289 586 279T596 253Z"  />
<glyph unicode="&#xFB2E;" horiz-adv-x="657" d="M630 0H513L210 322L130 0H33L141 388L36 502H159L421 222L508 502H608L491 150L630 0ZM406 -143H230V-102H406V-143Z"  />
<glyph unicode="&#xFB2F;" horiz-adv-x="657" d="M630 0H513L210 322L130 0H33L141 388L36 502H159L421 222L508 502H608L491 150L630 0ZM426 -143H358L361 -243H314L316 -143H250V-102H426V-143Z"  />
<glyph unicode="&#xFB30;" horiz-adv-x="657" d="M630 0H513L210 322L130 0H33L141 388L36 502H159L421 222L508 502H608L491 150L630 0ZM333 -143H292V-102H333V-143Z"  />
<glyph unicode="&#xFB31;" horiz-adv-x="628" d="M593 0H40V66H210Q306 66 363 114Q424 165 424 259Q424 350 355 396Q296 436 201 436H47V502H202Q529 502 529 261Q529 170 482 121Q461 99 427 83Q419 80 405 73Q401 70 401 67Q401 62 417 62Q428 62 451 64T485 66H593V0ZM262 253Q262 218 227 218Q212 218 202 228T191 253Q191 268 201 278T227 289Q242 289 252 279T262 253Z"  />
<glyph unicode="&#xFB32;" horiz-adv-x="488" d="M427 0H339Q323 9 316 49Q310 85 292 85Q286 85 259 49Q247 33 234 22Q190 -15 117 -15Q36 -15 25 0V79Q66 63 109 63Q193 63 246 115T300 253V306Q300 383 265 411Q234 436 154 436H40V502H181Q280 502 336 454Q396 404 396 306Q396 278 396 221Q395 165 395 137Q395 47 427 0ZM213 253Q213 218 178 218Q163 218 153 228T142 253Q142 268 152 278T178 289Q193 289 203 279T213 253Z"  />
<glyph unicode="&#xFB33;" horiz-adv-x="590" d="M570 436H425V0H328V436H15V502H570V436ZM233 253Q233 218 198 218Q183 218 173 228T162 253Q162 268 172 278T198 289Q213 289 223 279T233 253Z"  />
<glyph unicode="&#xFB34;" horiz-adv-x="721" d="M634 0H536V291Q536 381 494 411Q459 436 362 436H78V502H347Q497 502 553 472Q634 428 634 294V0ZM177 0H78V296H177V0ZM362 253Q362 218 327 218Q312 218 302 228T291 253Q291 268 301 278T327 289Q342 289 352 279T362 253Z"  />
<glyph unicode="&#xFB35;" horiz-adv-x="331" d="M226 0H128V404Q128 422 120 456T102 502H202Q226 471 226 402V0ZM113 253Q113 218 78 218Q63 218 53 228T42 253Q42 268 52 278T78 289Q93 289 103 279T113 253Z"  />
<glyph unicode="&#xFB36;" horiz-adv-x="385" d="M350 436Q278 436 252 405Q229 378 229 302V0H133L132 309Q132 362 145 388Q162 424 210 433H211Q213 433 213 436Q213 439 203 439Q192 439 171 438T139 436H20V502H350V436ZM112 253Q112 218 77 218Q62 218 52 228T41 253Q41 268 51 278T77 289Q92 289 102 279T112 253Z"  />
<glyph unicode="&#xFB38;" horiz-adv-x="765" d="M680 236Q680 -15 384 -15Q180 -15 111 120Q87 167 87 220V502H185V216Q185 186 200 158Q226 108 279 80Q329 54 387 54Q470 54 524 103T578 235Q578 332 556 378Q525 444 439 444Q385 444 350 429Q347 427 334 421V488Q334 497 368 506Q393 513 408 515Q427 517 439 517Q583 517 635 447Q680 387 680 236ZM412 253Q412 218 377 218Q362 218 352 228T341 253Q341 268 351 278T377 289Q392 289 402 279T412 253Z"  />
<glyph unicode="&#xFB39;" horiz-adv-x="241" d="M168 211H73V404Q73 422 67 454Q60 491 52 502H149Q168 472 168 402V211ZM55 253Q55 218 20 218Q5 218 -5 228T-16 253Q-16 268 -6 278T20 289Q35 289 45 279T55 253Z"  />
<glyph unicode="&#xFB3A;" horiz-adv-x="592" d="M498 -193H401V290Q401 338 395 361Q375 436 243 436H19V502H277Q498 502 498 336V-193ZM262 253Q262 218 227 218Q212 218 202 228T191 253Q191 268 201 278T227 289Q242 289 252 279T262 253Z"  />
<glyph unicode="&#xFB3B;" horiz-adv-x="574" d="M510 248Q510 134 427 65Q350 0 233 0H45V66H253Q325 66 368 123Q407 174 407 249Q407 325 368 378Q324 436 251 436H45V501H231Q348 501 427 434Q510 363 510 248ZM262 253Q262 218 227 218Q212 218 202 228T191 253Q191 268 201 278T227 289Q242 289 252 279T262 253Z"  />
<glyph unicode="&#xFB3C;" horiz-adv-x="545" d="M474 408Q474 390 455 303L389 0H289L355 307Q367 363 367 378Q367 436 267 436H112Q-11 436 -11 529Q-11 623 -11 628Q-16 688 -40 722H67Q87 688 87 631T88 564Q92 517 113 508Q126 502 166 502H330Q474 502 474 408ZM253 253Q253 218 218 218Q203 218 193 228T182 253Q182 268 192 278T218 289Q233 289 243 279T253 253Z"  />
<glyph unicode="&#xFB3E;" horiz-adv-x="775" d="M686 147Q686 62 624 21Q571 -14 482 -14Q427 -14 362 0V69Q410 58 451 58Q587 58 587 154V318Q587 450 432 450Q370 450 315 418T228 331Q206 293 206 256V0H108V417Q108 462 93 502H183Q199 468 199 398Q202 394 206 394Q209 394 212 398T219 410Q290 519 443 519Q686 519 686 315V147ZM432 253Q432 218 397 218Q382 218 372 228T361 253Q361 268 371 278T397 289Q412 289 422 279T432 253Z"  />
<glyph unicode="&#xFB40;" horiz-adv-x="465" d="M376 0H31V67H279V289Q279 368 256 399Q228 436 153 436H40V502H171Q376 502 376 327V0ZM213 253Q213 218 178 218Q163 218 153 228T142 253Q142 268 152 278T178 289Q193 289 203 279T213 253Z"  />
<glyph unicode="&#xFB41;" horiz-adv-x="751" d="M662 179Q662 76 589 33Q533 0 422 0H139L57 502H662V179ZM564 174V436H167L226 66H430Q485 66 522 92Q564 121 564 174ZM406 253Q406 218 371 218Q356 218 346 228T335 253Q335 268 345 278T371 289Q386 289 396 279T406 253Z"  />
<glyph unicode="&#xFB44;" horiz-adv-x="700" d="M632 251Q632 0 296 0H129V66H285Q531 66 531 250Q531 352 491 399Q447 450 347 450Q269 450 214 407Q153 361 153 285Q153 242 176 208H86Q53 245 53 298Q53 342 76 385Q147 517 347 517Q632 517 632 251ZM382 253Q382 218 347 218Q332 218 322 228T311 253Q311 268 321 278T347 289Q362 289 372 279T382 253Z"  />
<glyph unicode="&#xFB46;" horiz-adv-x="644" d="M598 502L425 206L582 67V0H29V67H456Q251 220 20 502H136L360 259L494 502H598ZM262 144Q262 109 227 109Q212 109 202 119T191 144Q191 159 201 169T227 180Q242 180 252 170T262 144Z"  />
<glyph unicode="&#xFB47;" horiz-adv-x="715" d="M626 188Q626 89 566 38T402 -14Q340 -14 310 2V69Q347 53 407 53Q464 53 498 96Q528 135 528 194V436H52V502H626V188ZM180 -192H82V288H180V-192ZM372 253Q372 218 337 218Q322 218 312 228T301 253Q301 268 311 278T337 289Q352 289 362 279T372 253Z"  />
<glyph unicode="&#xFB48;" horiz-adv-x="591" d="M507 0H410V319Q410 365 400 388Q385 422 327 432Q302 436 237 436H30V502H276Q351 502 397 491Q460 476 485 435Q507 399 507 330V0ZM262 253Q262 218 227 218Q212 218 202 228T191 253Q191 268 201 278T227 289Q242 289 252 279T262 253Z"  />
<glyph unicode="&#xFB49;" horiz-adv-x="855" d="M467 165H371V502H467V165ZM766 204Q766 78 673 32Q608 0 467 0H130L66 502H162L221 66H415Q530 66 579 81Q669 109 669 197V502H766V204ZM603 253Q603 218 568 218Q553 218 543 228T532 253Q532 268 542 278T568 289Q583 289 593 279T603 253Z"  />
<glyph unicode="&#xFB4A;" horiz-adv-x="762" d="M675 0H577V321Q577 370 559 395T493 429Q456 436 396 436H219V126Q219 50 184 20T72 -11Q33 -11 7 10V75Q32 59 60 59Q122 59 122 124V502H401Q458 502 503 499Q563 495 593 484Q642 467 658 427T675 299V0ZM422 253Q422 218 387 218Q372 218 362 228T351 253Q351 268 361 278T387 289Q402 289 412 279T422 253Z"  />
<glyph unicode="&#xFB4B;" horiz-adv-x="331" d="M226 0H128V404Q128 422 120 456T102 502H202Q226 471 226 402V0ZM175 595Q175 580 165 570T139 560Q104 560 104 595Q104 610 114 620T139 631Q154 631 164 621T175 595Z"  />
<glyph unicode="&#xFB4C;" horiz-adv-x="628" d="M593 0H40V66H210Q306 66 363 114Q424 165 424 259Q424 350 355 396Q296 436 201 436H47V502H202Q529 502 529 261Q529 170 482 121Q461 99 427 83Q419 80 405 73Q401 70 401 67Q401 62 417 62Q428 62 451 64T485 66H593V0ZM414 635H137V676H414V635Z"  />
<glyph unicode="&#xFB4D;" horiz-adv-x="574" d="M510 248Q510 134 427 65Q350 0 233 0H45V66H253Q325 66 368 123Q407 174 407 249Q407 325 368 378Q324 436 251 436H45V501H231Q348 501 427 434Q510 363 510 248ZM404 635H127V676H404V635Z"  />
<glyph unicode="&#xFB4E;" horiz-adv-x="700" d="M632 251Q632 0 296 0H129V66H285Q531 66 531 250Q531 352 491 399Q447 450 347 450Q269 450 214 407Q153 361 153 285Q153 242 176 208H86Q53 245 53 298Q53 342 76 385Q147 517 347 517Q632 517 632 251ZM474 635H197V676H474V635Z"  />
<glyph unicode="&#xFB4F;" horiz-adv-x="657" d="M630 0H513L210 322L130 0H33L141 388L36 502H159L421 222L508 502H608L491 150L630 0Z"  />


</font>
</defs>
</svg>
